<?xml version="1.0" encoding="UTF-8" standalone="no"?>
<!DOCTYPE svg PUBLIC "-//W3C//DTD SVG 1.1//EN"
 "http://www.w3.org/Graphics/SVG/1.1/DTD/svg11.dtd">
<!-- Generated by graphviz version 2.40.1 (20161225.0304)
 -->
<!-- Title: dependencies Pages: 1 -->
<svg width="720pt" height="284pt"
 viewBox="0.00 0.00 720.00 284.00" xmlns="http://www.w3.org/2000/svg" xmlns:xlink="http://www.w3.org/1999/xlink">
<g id="graph0" class="graph" transform="scale(1 1) rotate(0) translate(4 280)">
<title>dependencies</title>
<polygon fill="#ffffff" stroke="transparent" points="-4,4 -4,-280 716,-280 716,4 -4,4"/>
<text text-anchor="start" x="335.0091" y="-42.4" font-family="sans-serif" font-weight="bold" font-size="14.00" fill="#000000">Legend</text>
<polygon fill="#ffffb3" stroke="transparent" points="122,-10 122,-30 142,-30 142,-10 122,-10"/>
<text text-anchor="start" x="145.629" y="-15.4" font-family="sans-serif" font-size="14.00" fill="#000000"> &#160;Declarations</text>
<polygon fill="#8dd3c7" stroke="transparent" points="235,-10 235,-30 255,-30 255,-10 235,-10"/>
<text text-anchor="start" x="258.7251" y="-15.4" font-family="sans-serif" font-size="14.00" fill="#000000"> &#160;Module</text>
<polygon fill="#80b1d3" stroke="transparent" points="321,-10 321,-30 341,-30 341,-10 321,-10"/>
<text text-anchor="start" x="344.7812" y="-15.4" font-family="sans-serif" font-size="14.00" fill="#000000"> &#160;Bootstrap</text>
<polygon fill="#fdb462" stroke="transparent" points="418,-10 418,-30 438,-30 438,-10 418,-10"/>
<text text-anchor="start" x="441.6732" y="-15.4" font-family="sans-serif" font-size="14.00" fill="#000000"> &#160;Providers</text>
<polygon fill="#fb8072" stroke="transparent" points="514,-10 514,-30 534,-30 534,-10 514,-10"/>
<text text-anchor="start" x="537.7258" y="-15.4" font-family="sans-serif" font-size="14.00" fill="#000000"> &#160;Exports</text>
<g id="clust1" class="cluster">
<title>cluster_HelgolandFlotGraphModule</title>
<polygon fill="none" stroke="#000000" stroke-dasharray="1,5" points="8,-70 8,-268 704,-268 704,-70 8,-70"/>
</g>
<g id="clust2" class="cluster">
<title>cluster_HelgolandFlotGraphModule_declarations</title>
<polygon fill="none" stroke="#000000" points="206,-78 206,-130 696,-130 696,-78 206,-78"/>
</g>
<g id="clust5" class="cluster">
<title>cluster_HelgolandFlotGraphModule_imports</title>
<polygon fill="none" stroke="#000000" points="16,-78 16,-130 198,-130 198,-78 16,-78"/>
</g>
<g id="clust6" class="cluster">
<title>cluster_HelgolandFlotGraphModule_exports</title>
<polygon fill="none" stroke="#000000" points="108,-208 108,-260 604,-260 604,-208 108,-208"/>
</g>
<!-- FlotTimeseriesGraphComponent -->
<g id="node1" class="node">
<title>FlotTimeseriesGraphComponent</title>
<polygon fill="#ffffb3" stroke="#000000" points="688.2962,-122 487.7038,-122 487.7038,-86 688.2962,-86 688.2962,-122"/>
<text text-anchor="middle" x="588" y="-99.8" font-family="Times,serif" font-size="14.00" fill="#000000">FlotTimeseriesGraphComponent</text>
</g>
<!-- HelgolandFlotGraphModule -->
<g id="node3" class="node">
<title>HelgolandFlotGraphModule</title>
<polygon fill="#8dd3c7" stroke="#000000" points="429.9129,-187 426.9129,-191 405.9129,-191 402.9129,-187 254.0871,-187 254.0871,-151 429.9129,-151 429.9129,-187"/>
<text text-anchor="middle" x="342" y="-164.8" font-family="Times,serif" font-size="14.00" fill="#000000">HelgolandFlotGraphModule</text>
</g>
<!-- FlotTimeseriesGraphComponent&#45;&gt;HelgolandFlotGraphModule -->
<g id="edge1" class="edge">
<title>FlotTimeseriesGraphComponent&#45;&gt;HelgolandFlotGraphModule</title>
<path fill="none" stroke="#000000" d="M541.875,-122.1061C541.875,-141.3391 541.875,-169 541.875,-169 541.875,-169 439.9589,-169 439.9589,-169"/>
<polygon fill="#000000" stroke="#000000" points="439.959,-165.5001 429.9589,-169 439.9589,-172.5001 439.959,-165.5001"/>
</g>
<!-- FlotOverviewTimeseriesGraphComponent -->
<g id="node2" class="node">
<title>FlotOverviewTimeseriesGraphComponent</title>
<polygon fill="#ffffb3" stroke="#000000" points="469.9901,-122 214.0099,-122 214.0099,-86 469.9901,-86 469.9901,-122"/>
<text text-anchor="middle" x="342" y="-99.8" font-family="Times,serif" font-size="14.00" fill="#000000">FlotOverviewTimeseriesGraphComponent</text>
</g>
<!-- FlotOverviewTimeseriesGraphComponent&#45;&gt;HelgolandFlotGraphModule -->
<g id="edge2" class="edge">
<title>FlotOverviewTimeseriesGraphComponent&#45;&gt;HelgolandFlotGraphModule</title>
<path fill="none" stroke="#000000" d="M342,-122.1061C342,-122.1061 342,-140.991 342,-140.991"/>
<polygon fill="#000000" stroke="#000000" points="338.5001,-140.9909 342,-150.991 345.5001,-140.991 338.5001,-140.9909"/>
</g>
<!-- FlotTimeseriesGraphComponent  -->
<g id="node5" class="node">
<title>FlotTimeseriesGraphComponent </title>
<polygon fill="#fb8072" stroke="#000000" points="595.7961,-252 392.2039,-252 392.2039,-216 595.7961,-216 595.7961,-252"/>
<text text-anchor="middle" x="494" y="-229.8" font-family="Times,serif" font-size="14.00" fill="#000000">FlotTimeseriesGraphComponent </text>
</g>
<!-- HelgolandFlotGraphModule&#45;&gt;FlotTimeseriesGraphComponent  -->
<g id="edge4" class="edge">
<title>HelgolandFlotGraphModule&#45;&gt;FlotTimeseriesGraphComponent </title>
<path fill="none" stroke="#000000" stroke-dasharray="5,2" d="M410.9041,-187.1061C410.9041,-187.1061 410.9041,-205.991 410.9041,-205.991"/>
<polygon fill="#000000" stroke="#000000" points="407.4042,-205.9909 410.9041,-215.991 414.4042,-205.991 407.4042,-205.9909"/>
</g>
<!-- FlotOverviewTimeseriesGraphComponent  -->
<g id="node6" class="node">
<title>FlotOverviewTimeseriesGraphComponent </title>
<polygon fill="#fb8072" stroke="#000000" points="374.4896,-252 115.5104,-252 115.5104,-216 374.4896,-216 374.4896,-252"/>
<text text-anchor="middle" x="245" y="-229.8" font-family="Times,serif" font-size="14.00" fill="#000000">FlotOverviewTimeseriesGraphComponent </text>
</g>
<!-- HelgolandFlotGraphModule&#45;&gt;FlotOverviewTimeseriesGraphComponent  -->
<g id="edge5" class="edge">
<title>HelgolandFlotGraphModule&#45;&gt;FlotOverviewTimeseriesGraphComponent </title>
<path fill="none" stroke="#000000" stroke-dasharray="5,2" d="M314.3943,-187.1061C314.3943,-187.1061 314.3943,-205.991 314.3943,-205.991"/>
<polygon fill="#000000" stroke="#000000" points="310.8944,-205.9909 314.3943,-215.991 317.8944,-205.991 310.8944,-205.9909"/>
</g>
<!-- HelgolandServicesModule -->
<g id="node4" class="node">
<title>HelgolandServicesModule</title>
<polygon fill="#8dd3c7" stroke="#000000" points="189.7893,-122 186.7893,-126 165.7893,-126 162.7893,-122 24.2107,-122 24.2107,-86 189.7893,-86 189.7893,-122"/>
<text text-anchor="middle" x="107" y="-99.8" font-family="Times,serif" font-size="14.00" fill="#000000">HelgolandServicesModule</text>
</g>
<!-- HelgolandServicesModule&#45;&gt;HelgolandFlotGraphModule -->
<g id="edge3" class="edge">
<title>HelgolandServicesModule&#45;&gt;HelgolandFlotGraphModule</title>
<path fill="none" stroke="#000000" d="M152.5749,-122.1061C152.5749,-141.3391 152.5749,-169 152.5749,-169 152.5749,-169 244.2189,-169 244.2189,-169"/>
<polygon fill="#000000" stroke="#000000" points="244.2189,-172.5001 254.2189,-169 244.2188,-165.5001 244.2189,-172.5001"/>
</g>
</g>
</svg>
