<?xml version="1.0" encoding="UTF-8" standalone="no"?>
<!DOCTYPE svg PUBLIC "-//W3C//DTD SVG 1.1//EN"
 "http://www.w3.org/Graphics/SVG/1.1/DTD/svg11.dtd">
<!-- Generated by graphviz version 2.40.1 (20161225.0304)
 -->
<!-- Title: dependencies Pages: 1 -->
<svg width="504pt" height="284pt"
 viewBox="0.00 0.00 504.00 284.00" xmlns="http://www.w3.org/2000/svg" xmlns:xlink="http://www.w3.org/1999/xlink">
<g id="graph0" class="graph" transform="scale(1 1) rotate(0) translate(4 280)">
<title>dependencies</title>
<polygon fill="#ffffff" stroke="transparent" points="-4,4 -4,-280 500,-280 500,4 -4,4"/>
<text text-anchor="start" x="227.0091" y="-42.4" font-family="sans-serif" font-weight="bold" font-size="14.00" fill="#000000">Legend</text>
<polygon fill="#ffffb3" stroke="transparent" points="14,-10 14,-30 34,-30 34,-10 14,-10"/>
<text text-anchor="start" x="37.629" y="-15.4" font-family="sans-serif" font-size="14.00" fill="#000000"> &#160;Declarations</text>
<polygon fill="#8dd3c7" stroke="transparent" points="127,-10 127,-30 147,-30 147,-10 127,-10"/>
<text text-anchor="start" x="150.7251" y="-15.4" font-family="sans-serif" font-size="14.00" fill="#000000"> &#160;Module</text>
<polygon fill="#80b1d3" stroke="transparent" points="213,-10 213,-30 233,-30 233,-10 213,-10"/>
<text text-anchor="start" x="236.7812" y="-15.4" font-family="sans-serif" font-size="14.00" fill="#000000"> &#160;Bootstrap</text>
<polygon fill="#fdb462" stroke="transparent" points="310,-10 310,-30 330,-30 330,-10 310,-10"/>
<text text-anchor="start" x="333.6732" y="-15.4" font-family="sans-serif" font-size="14.00" fill="#000000"> &#160;Providers</text>
<polygon fill="#fb8072" stroke="transparent" points="406,-10 406,-30 426,-30 426,-10 406,-10"/>
<text text-anchor="start" x="429.7258" y="-15.4" font-family="sans-serif" font-size="14.00" fill="#000000"> &#160;Exports</text>
<g id="clust1" class="cluster">
<title>cluster_HelgolandDatasetTableModule</title>
<polygon fill="none" stroke="#000000" stroke-dasharray="1,5" points="69,-70 69,-268 427,-268 427,-70 69,-70"/>
</g>
<g id="clust2" class="cluster">
<title>cluster_HelgolandDatasetTableModule_declarations</title>
<polygon fill="none" stroke="#000000" points="247,-78 247,-130 419,-130 419,-78 247,-78"/>
</g>
<g id="clust4" class="cluster">
<title>cluster_HelgolandDatasetTableModule_imports</title>
<polygon fill="none" stroke="#000000" points="77,-78 77,-130 239,-130 239,-78 77,-78"/>
</g>
<g id="clust5" class="cluster">
<title>cluster_HelgolandDatasetTableModule_exports</title>
<polygon fill="none" stroke="#000000" points="161,-208 161,-260 335,-260 335,-208 161,-208"/>
</g>
<!-- DatasetTableComponent -->
<g id="node1" class="node">
<title>DatasetTableComponent</title>
<polygon fill="#ffffb3" stroke="#000000" points="410.6811,-122 255.3189,-122 255.3189,-86 410.6811,-86 410.6811,-122"/>
<text text-anchor="middle" x="333" y="-99.8" font-family="Times,serif" font-size="14.00" fill="#000000">DatasetTableComponent</text>
</g>
<!-- HelgolandDatasetTableModule -->
<g id="node2" class="node">
<title>HelgolandDatasetTableModule</title>
<polygon fill="#8dd3c7" stroke="#000000" points="343.7156,-187 340.7156,-191 319.7156,-191 316.7156,-187 152.2844,-187 152.2844,-151 343.7156,-151 343.7156,-187"/>
<text text-anchor="middle" x="248" y="-164.8" font-family="Times,serif" font-size="14.00" fill="#000000">HelgolandDatasetTableModule</text>
</g>
<!-- DatasetTableComponent&#45;&gt;HelgolandDatasetTableModule -->
<g id="edge1" class="edge">
<title>DatasetTableComponent&#45;&gt;HelgolandDatasetTableModule</title>
<path fill="none" stroke="#000000" d="M299.6336,-122.1061C299.6336,-122.1061 299.6336,-140.991 299.6336,-140.991"/>
<polygon fill="#000000" stroke="#000000" points="296.1337,-140.9909 299.6336,-150.991 303.1337,-140.991 296.1337,-140.9909"/>
</g>
<!-- DatasetTableComponent  -->
<g id="node4" class="node">
<title>DatasetTableComponent </title>
<polygon fill="#fb8072" stroke="#000000" points="327.1813,-252 168.8187,-252 168.8187,-216 327.1813,-216 327.1813,-252"/>
<text text-anchor="middle" x="248" y="-229.8" font-family="Times,serif" font-size="14.00" fill="#000000">DatasetTableComponent </text>
</g>
<!-- HelgolandDatasetTableModule&#45;&gt;DatasetTableComponent  -->
<g id="edge3" class="edge">
<title>HelgolandDatasetTableModule&#45;&gt;DatasetTableComponent </title>
<path fill="none" stroke="#000000" stroke-dasharray="5,2" d="M248,-187.1061C248,-187.1061 248,-205.991 248,-205.991"/>
<polygon fill="#000000" stroke="#000000" points="244.5001,-205.9909 248,-215.991 251.5001,-205.991 244.5001,-205.9909"/>
</g>
<!-- HelgolandCoreModule -->
<g id="node3" class="node">
<title>HelgolandCoreModule</title>
<polygon fill="#8dd3c7" stroke="#000000" points="230.5786,-122 227.5786,-126 206.5786,-126 203.5786,-122 85.4214,-122 85.4214,-86 230.5786,-86 230.5786,-122"/>
<text text-anchor="middle" x="158" y="-99.8" font-family="Times,serif" font-size="14.00" fill="#000000">HelgolandCoreModule</text>
</g>
<!-- HelgolandCoreModule&#45;&gt;HelgolandDatasetTableModule -->
<g id="edge2" class="edge">
<title>HelgolandCoreModule&#45;&gt;HelgolandDatasetTableModule</title>
<path fill="none" stroke="#000000" d="M191.3408,-122.1061C191.3408,-122.1061 191.3408,-140.991 191.3408,-140.991"/>
<polygon fill="#000000" stroke="#000000" points="187.8409,-140.9909 191.3408,-150.991 194.8409,-140.991 187.8409,-140.9909"/>
</g>
</g>
</svg>
