<?xml version="1.0" encoding="UTF-8" standalone="no"?>
<!DOCTYPE svg PUBLIC "-//W3C//DTD SVG 1.1//EN"
 "http://www.w3.org/Graphics/SVG/1.1/DTD/svg11.dtd">
<!-- Generated by graphviz version 2.40.1 (20161225.0304)
 -->
<!-- Title: dependencies Pages: 1 -->
<svg width="1210pt" height="284pt"
 viewBox="0.00 0.00 1210.00 284.00" xmlns="http://www.w3.org/2000/svg" xmlns:xlink="http://www.w3.org/1999/xlink">
<g id="graph0" class="graph" transform="scale(1 1) rotate(0) translate(4 280)">
<title>dependencies</title>
<polygon fill="#ffffff" stroke="transparent" points="-4,4 -4,-280 1206,-280 1206,4 -4,4"/>
<text text-anchor="start" x="580.0091" y="-42.4" font-family="sans-serif" font-weight="bold" font-size="14.00" fill="#000000">Legend</text>
<polygon fill="#ffffb3" stroke="transparent" points="367,-10 367,-30 387,-30 387,-10 367,-10"/>
<text text-anchor="start" x="390.629" y="-15.4" font-family="sans-serif" font-size="14.00" fill="#000000"> &#160;Declarations</text>
<polygon fill="#8dd3c7" stroke="transparent" points="480,-10 480,-30 500,-30 500,-10 480,-10"/>
<text text-anchor="start" x="503.7251" y="-15.4" font-family="sans-serif" font-size="14.00" fill="#000000"> &#160;Module</text>
<polygon fill="#80b1d3" stroke="transparent" points="566,-10 566,-30 586,-30 586,-10 566,-10"/>
<text text-anchor="start" x="589.7812" y="-15.4" font-family="sans-serif" font-size="14.00" fill="#000000"> &#160;Bootstrap</text>
<polygon fill="#fdb462" stroke="transparent" points="663,-10 663,-30 683,-30 683,-10 663,-10"/>
<text text-anchor="start" x="686.6732" y="-15.4" font-family="sans-serif" font-size="14.00" fill="#000000"> &#160;Providers</text>
<polygon fill="#fb8072" stroke="transparent" points="759,-10 759,-30 779,-30 779,-10 759,-10"/>
<text text-anchor="start" x="782.7258" y="-15.4" font-family="sans-serif" font-size="14.00" fill="#000000"> &#160;Exports</text>
<g id="clust1" class="cluster">
<title>cluster_HelgolandDatasetlistModule</title>
<polygon fill="none" stroke="#000000" stroke-dasharray="1,5" points="8,-70 8,-268 1194,-268 1194,-70 8,-70"/>
</g>
<g id="clust2" class="cluster">
<title>cluster_HelgolandDatasetlistModule_declarations</title>
<polygon fill="none" stroke="#000000" points="659,-78 659,-130 1186,-130 1186,-78 659,-78"/>
</g>
<g id="clust6" class="cluster">
<title>cluster_HelgolandDatasetlistModule_imports</title>
<polygon fill="none" stroke="#000000" points="278,-78 278,-130 651,-130 651,-78 278,-78"/>
</g>
<g id="clust7" class="cluster">
<title>cluster_HelgolandDatasetlistModule_exports</title>
<polygon fill="none" stroke="#000000" points="385,-208 385,-260 923,-260 923,-208 385,-208"/>
</g>
<g id="clust9" class="cluster">
<title>cluster_HelgolandDatasetlistModule_providers</title>
<polygon fill="none" stroke="#000000" points="16,-78 16,-130 270,-130 270,-78 16,-78"/>
</g>
<!-- BoolTogglerComponent -->
<g id="node1" class="node">
<title>BoolTogglerComponent</title>
<polygon fill="#ffffb3" stroke="#000000" points="1178.378,-122 1025.622,-122 1025.622,-86 1178.378,-86 1178.378,-122"/>
<text text-anchor="middle" x="1102" y="-99.8" font-family="Times,serif" font-size="14.00" fill="#000000">BoolTogglerComponent</text>
</g>
<!-- HelgolandDatasetlistModule -->
<g id="node4" class="node">
<title>HelgolandDatasetlistModule</title>
<polygon fill="#8dd3c7" stroke="#000000" points="746.4594,-187 743.4594,-191 722.4594,-191 719.4594,-187 569.5406,-187 569.5406,-151 746.4594,-151 746.4594,-187"/>
<text text-anchor="middle" x="658" y="-164.8" font-family="Times,serif" font-size="14.00" fill="#000000">HelgolandDatasetlistModule</text>
</g>
<!-- BoolTogglerComponent&#45;&gt;HelgolandDatasetlistModule -->
<g id="edge1" class="edge">
<title>BoolTogglerComponent&#45;&gt;HelgolandDatasetlistModule</title>
<path fill="none" stroke="#000000" d="M1102,-122.1061C1102,-141.3391 1102,-169 1102,-169 1102,-169 756.5168,-169 756.5168,-169"/>
<polygon fill="#000000" stroke="#000000" points="756.5168,-165.5001 746.5168,-169 756.5168,-172.5001 756.5168,-165.5001"/>
</g>
<!-- RefreshButtonComponent -->
<g id="node2" class="node">
<title>RefreshButtonComponent</title>
<polygon fill="#ffffb3" stroke="#000000" points="1007.4818,-122 844.5182,-122 844.5182,-86 1007.4818,-86 1007.4818,-122"/>
<text text-anchor="middle" x="926" y="-99.8" font-family="Times,serif" font-size="14.00" fill="#000000">RefreshButtonComponent</text>
</g>
<!-- RefreshButtonComponent&#45;&gt;HelgolandDatasetlistModule -->
<g id="edge2" class="edge">
<title>RefreshButtonComponent&#45;&gt;HelgolandDatasetlistModule</title>
<path fill="none" stroke="#000000" d="M879.8491,-122.027C879.8491,-138.3976 879.8491,-160 879.8491,-160 879.8491,-160 756.6371,-160 756.6371,-160"/>
<polygon fill="#000000" stroke="#000000" points="756.6371,-156.5001 746.6371,-160 756.637,-163.5001 756.6371,-156.5001"/>
</g>
<!-- StringTogglerComponent -->
<g id="node3" class="node">
<title>StringTogglerComponent</title>
<polygon fill="#ffffb3" stroke="#000000" points="826.8752,-122 667.1248,-122 667.1248,-86 826.8752,-86 826.8752,-122"/>
<text text-anchor="middle" x="747" y="-99.8" font-family="Times,serif" font-size="14.00" fill="#000000">StringTogglerComponent</text>
</g>
<!-- StringTogglerComponent&#45;&gt;HelgolandDatasetlistModule -->
<g id="edge3" class="edge">
<title>StringTogglerComponent&#45;&gt;HelgolandDatasetlistModule</title>
<path fill="none" stroke="#000000" d="M706.7711,-122.1061C706.7711,-122.1061 706.7711,-140.991 706.7711,-140.991"/>
<polygon fill="#000000" stroke="#000000" points="703.2711,-140.9909 706.7711,-150.991 710.2711,-140.991 703.2711,-140.9909"/>
</g>
<!-- BoolTogglerComponent  -->
<g id="node7" class="node">
<title>BoolTogglerComponent </title>
<polygon fill="#fb8072" stroke="#000000" points="915.3785,-252 758.6215,-252 758.6215,-216 915.3785,-216 915.3785,-252"/>
<text text-anchor="middle" x="837" y="-229.8" font-family="Times,serif" font-size="14.00" fill="#000000">BoolTogglerComponent </text>
</g>
<!-- HelgolandDatasetlistModule&#45;&gt;BoolTogglerComponent  -->
<g id="edge6" class="edge">
<title>HelgolandDatasetlistModule&#45;&gt;BoolTogglerComponent </title>
<path fill="none" stroke="#000000" stroke-dasharray="5,2" d="M746.8354,-178C772.0878,-178 792.8743,-178 792.8743,-178 792.8743,-178 792.8743,-205.973 792.8743,-205.973"/>
<polygon fill="#000000" stroke="#000000" points="789.3744,-205.973 792.8743,-215.973 796.3744,-205.973 789.3744,-205.973"/>
</g>
<!-- RefreshButtonComponent  -->
<g id="node8" class="node">
<title>RefreshButtonComponent </title>
<polygon fill="#fb8072" stroke="#000000" points="741.4825,-252 574.5175,-252 574.5175,-216 741.4825,-216 741.4825,-252"/>
<text text-anchor="middle" x="658" y="-229.8" font-family="Times,serif" font-size="14.00" fill="#000000">RefreshButtonComponent </text>
</g>
<!-- HelgolandDatasetlistModule&#45;&gt;RefreshButtonComponent  -->
<g id="edge7" class="edge">
<title>HelgolandDatasetlistModule&#45;&gt;RefreshButtonComponent </title>
<path fill="none" stroke="#000000" stroke-dasharray="5,2" d="M658,-187.1061C658,-187.1061 658,-205.991 658,-205.991"/>
<polygon fill="#000000" stroke="#000000" points="654.5001,-205.9909 658,-215.991 661.5001,-205.991 654.5001,-205.9909"/>
</g>
<!-- StringTogglerComponent  -->
<g id="node9" class="node">
<title>StringTogglerComponent </title>
<polygon fill="#fb8072" stroke="#000000" points="556.8756,-252 393.1244,-252 393.1244,-216 556.8756,-216 556.8756,-252"/>
<text text-anchor="middle" x="475" y="-229.8" font-family="Times,serif" font-size="14.00" fill="#000000">StringTogglerComponent </text>
</g>
<!-- HelgolandDatasetlistModule&#45;&gt;StringTogglerComponent  -->
<g id="edge8" class="edge">
<title>HelgolandDatasetlistModule&#45;&gt;StringTogglerComponent </title>
<path fill="none" stroke="#000000" stroke-dasharray="5,2" d="M569.2206,-178C545.8712,-178 527.0741,-178 527.0741,-178 527.0741,-178 527.0741,-205.973 527.0741,-205.973"/>
<polygon fill="#000000" stroke="#000000" points="523.5742,-205.973 527.0741,-215.973 530.5742,-205.973 523.5742,-205.973"/>
</g>
<!-- HelgolandCoreModule -->
<g id="node5" class="node">
<title>HelgolandCoreModule</title>
<polygon fill="#8dd3c7" stroke="#000000" points="642.5786,-122 639.5786,-126 618.5786,-126 615.5786,-122 497.4214,-122 497.4214,-86 642.5786,-86 642.5786,-122"/>
<text text-anchor="middle" x="570" y="-99.8" font-family="Times,serif" font-size="14.00" fill="#000000">HelgolandCoreModule</text>
</g>
<!-- HelgolandCoreModule&#45;&gt;HelgolandDatasetlistModule -->
<g id="edge4" class="edge">
<title>HelgolandCoreModule&#45;&gt;HelgolandDatasetlistModule</title>
<path fill="none" stroke="#000000" d="M606.0298,-122.1061C606.0298,-122.1061 606.0298,-140.991 606.0298,-140.991"/>
<polygon fill="#000000" stroke="#000000" points="602.5299,-140.9909 606.0298,-150.991 609.5299,-140.991 602.5299,-140.9909"/>
</g>
<!-- HelgolandLabelMapperModule -->
<g id="node6" class="node">
<title>HelgolandLabelMapperModule</title>
<polygon fill="#8dd3c7" stroke="#000000" points="479.7738,-122 476.7738,-126 455.7738,-126 452.7738,-122 286.2262,-122 286.2262,-86 479.7738,-86 479.7738,-122"/>
<text text-anchor="middle" x="383" y="-99.8" font-family="Times,serif" font-size="14.00" fill="#000000">HelgolandLabelMapperModule</text>
</g>
<!-- HelgolandLabelMapperModule&#45;&gt;HelgolandDatasetlistModule -->
<g id="edge5" class="edge">
<title>HelgolandLabelMapperModule&#45;&gt;HelgolandDatasetlistModule</title>
<path fill="none" stroke="#000000" d="M436.4746,-122.027C436.4746,-138.3976 436.4746,-160 436.4746,-160 436.4746,-160 559.4923,-160 559.4923,-160"/>
<polygon fill="#000000" stroke="#000000" points="559.4923,-163.5001 569.4923,-160 559.4922,-156.5001 559.4923,-163.5001"/>
</g>
<!-- ReferenceValueColorCache -->
<g id="node10" class="node">
<title>ReferenceValueColorCache</title>
<ellipse fill="#fdb462" stroke="#000000" cx="143" cy="-104" rx="119.1997" ry="18"/>
<text text-anchor="middle" x="143" y="-99.8" font-family="Times,serif" font-size="14.00" fill="#000000">ReferenceValueColorCache</text>
</g>
<!-- ReferenceValueColorCache&#45;&gt;HelgolandDatasetlistModule -->
<g id="edge9" class="edge">
<title>ReferenceValueColorCache&#45;&gt;HelgolandDatasetlistModule</title>
<path fill="none" stroke="#000000" d="M143,-122.1061C143,-141.3391 143,-169 143,-169 143,-169 559.4683,-169 559.4683,-169"/>
<polygon fill="#000000" stroke="#000000" points="559.4684,-172.5001 569.4683,-169 559.4683,-165.5001 559.4684,-172.5001"/>
</g>
</g>
</svg>
