<?xml version="1.0" encoding="UTF-8" standalone="no"?>
<!DOCTYPE svg PUBLIC "-//W3C//DTD SVG 1.1//EN"
 "http://www.w3.org/Graphics/SVG/1.1/DTD/svg11.dtd">
<!-- Generated by graphviz version 2.40.1 (20161225.0304)
 -->
<!-- Title: dependencies Pages: 1 -->
<svg width="1812pt" height="284pt"
 viewBox="0.00 0.00 1812.00 284.00" xmlns="http://www.w3.org/2000/svg" xmlns:xlink="http://www.w3.org/1999/xlink">
<g id="graph0" class="graph" transform="scale(1 1) rotate(0) translate(4 280)">
<title>dependencies</title>
<polygon fill="#ffffff" stroke="transparent" points="-4,4 -4,-280 1808,-280 1808,4 -4,4"/>
<text text-anchor="start" x="881.0091" y="-42.4" font-family="sans-serif" font-weight="bold" font-size="14.00" fill="#000000">Legend</text>
<polygon fill="#ffffb3" stroke="transparent" points="668,-10 668,-30 688,-30 688,-10 668,-10"/>
<text text-anchor="start" x="691.629" y="-15.4" font-family="sans-serif" font-size="14.00" fill="#000000"> &#160;Declarations</text>
<polygon fill="#8dd3c7" stroke="transparent" points="781,-10 781,-30 801,-30 801,-10 781,-10"/>
<text text-anchor="start" x="804.7251" y="-15.4" font-family="sans-serif" font-size="14.00" fill="#000000"> &#160;Module</text>
<polygon fill="#80b1d3" stroke="transparent" points="867,-10 867,-30 887,-30 887,-10 867,-10"/>
<text text-anchor="start" x="890.7812" y="-15.4" font-family="sans-serif" font-size="14.00" fill="#000000"> &#160;Bootstrap</text>
<polygon fill="#fdb462" stroke="transparent" points="964,-10 964,-30 984,-30 984,-10 964,-10"/>
<text text-anchor="start" x="987.6732" y="-15.4" font-family="sans-serif" font-size="14.00" fill="#000000"> &#160;Providers</text>
<polygon fill="#fb8072" stroke="transparent" points="1060,-10 1060,-30 1080,-30 1080,-10 1060,-10"/>
<text text-anchor="start" x="1083.7258" y="-15.4" font-family="sans-serif" font-size="14.00" fill="#000000"> &#160;Exports</text>
<g id="clust1" class="cluster">
<title>cluster_HelgolandDatasetlistModule</title>
<polygon fill="none" stroke="#000000" stroke-dasharray="1,5" points="8,-70 8,-268 1796,-268 1796,-70 8,-70"/>
</g>
<g id="clust2" class="cluster">
<title>cluster_HelgolandDatasetlistModule_declarations</title>
<polygon fill="none" stroke="#000000" points="1241,-78 1241,-130 1788,-130 1788,-78 1241,-78"/>
</g>
<g id="clust6" class="cluster">
<title>cluster_HelgolandDatasetlistModule_imports</title>
<polygon fill="none" stroke="#000000" points="278,-78 278,-130 1233,-130 1233,-78 278,-78"/>
</g>
<g id="clust7" class="cluster">
<title>cluster_HelgolandDatasetlistModule_exports</title>
<polygon fill="none" stroke="#000000" points="653,-208 653,-260 1211,-260 1211,-208 653,-208"/>
</g>
<g id="clust9" class="cluster">
<title>cluster_HelgolandDatasetlistModule_providers</title>
<polygon fill="none" stroke="#000000" points="16,-78 16,-130 270,-130 270,-78 16,-78"/>
</g>
<!-- TimeseriesEntryComponent -->
<g id="node1" class="node">
<title>TimeseriesEntryComponent</title>
<polygon fill="#ffffb3" stroke="#000000" points="1779.8543,-122 1606.1457,-122 1606.1457,-86 1779.8543,-86 1779.8543,-122"/>
<text text-anchor="middle" x="1693" y="-99.8" font-family="Times,serif" font-size="14.00" fill="#000000">TimeseriesEntryComponent</text>
</g>
<!-- HelgolandDatasetlistModule -->
<g id="node4" class="node">
<title>HelgolandDatasetlistModule</title>
<polygon fill="#8dd3c7" stroke="#000000" points="1018.4594,-187 1015.4594,-191 994.4594,-191 991.4594,-187 841.5406,-187 841.5406,-151 1018.4594,-151 1018.4594,-187"/>
<text text-anchor="middle" x="930" y="-164.8" font-family="Times,serif" font-size="14.00" fill="#000000">HelgolandDatasetlistModule</text>
</g>
<!-- TimeseriesEntryComponent&#45;&gt;HelgolandDatasetlistModule -->
<g id="edge1" class="edge">
<title>TimeseriesEntryComponent&#45;&gt;HelgolandDatasetlistModule</title>
<path fill="none" stroke="#000000" d="M1693,-122.2843C1693,-143.3211 1693,-175 1693,-175 1693,-175 1028.6448,-175 1028.6448,-175"/>
<polygon fill="#000000" stroke="#000000" points="1028.6448,-171.5001 1018.6448,-175 1028.6448,-178.5001 1028.6448,-171.5001"/>
</g>
<!-- ProfileEntryComponent -->
<g id="node2" class="node">
<title>ProfileEntryComponent</title>
<polygon fill="#ffffb3" stroke="#000000" points="1588.0365,-122 1437.9635,-122 1437.9635,-86 1588.0365,-86 1588.0365,-122"/>
<text text-anchor="middle" x="1513" y="-99.8" font-family="Times,serif" font-size="14.00" fill="#000000">ProfileEntryComponent</text>
</g>
<!-- ProfileEntryComponent&#45;&gt;HelgolandDatasetlistModule -->
<g id="edge2" class="edge">
<title>ProfileEntryComponent&#45;&gt;HelgolandDatasetlistModule</title>
<path fill="none" stroke="#000000" d="M1513,-122.1061C1513,-141.3391 1513,-169 1513,-169 1513,-169 1028.5452,-169 1028.5452,-169"/>
<polygon fill="#000000" stroke="#000000" points="1028.5452,-165.5001 1018.5452,-169 1028.5451,-172.5001 1028.5452,-165.5001"/>
</g>
<!-- TrajectoryEntryComponent -->
<g id="node3" class="node">
<title>TrajectoryEntryComponent</title>
<polygon fill="#ffffb3" stroke="#000000" points="1419.2352,-122 1248.7648,-122 1248.7648,-86 1419.2352,-86 1419.2352,-122"/>
<text text-anchor="middle" x="1334" y="-99.8" font-family="Times,serif" font-size="14.00" fill="#000000">TrajectoryEntryComponent</text>
</g>
<!-- TrajectoryEntryComponent&#45;&gt;HelgolandDatasetlistModule -->
<g id="edge3" class="edge">
<title>TrajectoryEntryComponent&#45;&gt;HelgolandDatasetlistModule</title>
<path fill="none" stroke="#000000" d="M1334,-122.0225C1334,-139.3734 1334,-163 1334,-163 1334,-163 1028.6595,-163 1028.6595,-163"/>
<polygon fill="#000000" stroke="#000000" points="1028.6595,-159.5001 1018.6595,-163 1028.6595,-166.5001 1028.6595,-159.5001"/>
</g>
<!-- TimeseriesEntryComponent  -->
<g id="node10" class="node">
<title>TimeseriesEntryComponent </title>
<polygon fill="#fb8072" stroke="#000000" points="1202.8546,-252 1025.1454,-252 1025.1454,-216 1202.8546,-216 1202.8546,-252"/>
<text text-anchor="middle" x="1114" y="-229.8" font-family="Times,serif" font-size="14.00" fill="#000000">TimeseriesEntryComponent </text>
</g>
<!-- HelgolandDatasetlistModule&#45;&gt;TimeseriesEntryComponent  -->
<g id="edge9" class="edge">
<title>HelgolandDatasetlistModule&#45;&gt;TimeseriesEntryComponent </title>
<path fill="none" stroke="#000000" stroke-dasharray="5,2" d="M1018.8455,-181C1025.6378,-181 1029.9206,-181 1029.9206,-181 1029.9206,-181 1029.9206,-205.7604 1029.9206,-205.7604"/>
<polygon fill="#000000" stroke="#000000" points="1026.4206,-205.7604 1029.9206,-215.7604 1033.4206,-205.7604 1026.4206,-205.7604"/>
</g>
<!-- ProfileEntryComponent  -->
<g id="node11" class="node">
<title>ProfileEntryComponent </title>
<polygon fill="#fb8072" stroke="#000000" points="1007.0358,-252 852.9642,-252 852.9642,-216 1007.0358,-216 1007.0358,-252"/>
<text text-anchor="middle" x="930" y="-229.8" font-family="Times,serif" font-size="14.00" fill="#000000">ProfileEntryComponent </text>
</g>
<!-- HelgolandDatasetlistModule&#45;&gt;ProfileEntryComponent  -->
<g id="edge10" class="edge">
<title>HelgolandDatasetlistModule&#45;&gt;ProfileEntryComponent </title>
<path fill="none" stroke="#000000" stroke-dasharray="5,2" d="M930,-187.1061C930,-187.1061 930,-205.991 930,-205.991"/>
<polygon fill="#000000" stroke="#000000" points="926.5001,-205.9909 930,-215.991 933.5001,-205.991 926.5001,-205.9909"/>
</g>
<!-- TrajectoryEntryComponent  -->
<g id="node12" class="node">
<title>TrajectoryEntryComponent </title>
<polygon fill="#fb8072" stroke="#000000" points="835.2352,-252 660.7648,-252 660.7648,-216 835.2352,-216 835.2352,-252"/>
<text text-anchor="middle" x="748" y="-229.8" font-family="Times,serif" font-size="14.00" fill="#000000">TrajectoryEntryComponent </text>
</g>
<!-- HelgolandDatasetlistModule&#45;&gt;TrajectoryEntryComponent  -->
<g id="edge11" class="edge">
<title>HelgolandDatasetlistModule&#45;&gt;TrajectoryEntryComponent </title>
<path fill="none" stroke="#000000" stroke-dasharray="5,2" d="M841.166,-181C834.6244,-181 830.5199,-181 830.5199,-181 830.5199,-181 830.5199,-205.7604 830.5199,-205.7604"/>
<polygon fill="#000000" stroke="#000000" points="827.0199,-205.7604 830.5199,-215.7604 834.0199,-205.7604 827.0199,-205.7604"/>
</g>
<!-- HelgolandModificationModule -->
<g id="node5" class="node">
<title>HelgolandModificationModule</title>
<polygon fill="#8dd3c7" stroke="#000000" points="1225.4636,-122 1222.4636,-126 1201.4636,-126 1198.4636,-122 1034.5364,-122 1034.5364,-86 1225.4636,-86 1225.4636,-122"/>
<text text-anchor="middle" x="1130" y="-99.8" font-family="Times,serif" font-size="14.00" fill="#000000">HelgolandModificationModule</text>
</g>
<!-- HelgolandModificationModule&#45;&gt;HelgolandDatasetlistModule -->
<g id="edge4" class="edge">
<title>HelgolandModificationModule&#45;&gt;HelgolandDatasetlistModule</title>
<path fill="none" stroke="#000000" d="M1118.5977,-122.2396C1118.5977,-137.5706 1118.5977,-157 1118.5977,-157 1118.5977,-157 1028.5005,-157 1028.5005,-157"/>
<polygon fill="#000000" stroke="#000000" points="1028.5005,-153.5001 1018.5005,-157 1028.5005,-160.5001 1028.5005,-153.5001"/>
</g>
<!-- HelgolandDepictionModule -->
<g id="node6" class="node">
<title>HelgolandDepictionModule</title>
<polygon fill="#8dd3c7" stroke="#000000" points="1016.5744,-122 1013.5744,-126 992.5744,-126 989.5744,-122 843.4256,-122 843.4256,-86 1016.5744,-86 1016.5744,-122"/>
<text text-anchor="middle" x="930" y="-99.8" font-family="Times,serif" font-size="14.00" fill="#000000">HelgolandDepictionModule</text>
</g>
<!-- HelgolandDepictionModule&#45;&gt;HelgolandDatasetlistModule -->
<g id="edge5" class="edge">
<title>HelgolandDepictionModule&#45;&gt;HelgolandDatasetlistModule</title>
<path fill="none" stroke="#000000" d="M930,-122.1061C930,-122.1061 930,-140.991 930,-140.991"/>
<polygon fill="#000000" stroke="#000000" points="926.5001,-140.9909 930,-150.991 933.5001,-140.991 926.5001,-140.9909"/>
</g>
<!-- HelgolandMapViewModule -->
<g id="node7" class="node">
<title>HelgolandMapViewModule</title>
<polygon fill="#8dd3c7" stroke="#000000" points="825.8445,-122 822.8445,-126 801.8445,-126 798.8445,-122 652.1555,-122 652.1555,-86 825.8445,-86 825.8445,-122"/>
<text text-anchor="middle" x="739" y="-99.8" font-family="Times,serif" font-size="14.00" fill="#000000">HelgolandMapViewModule</text>
</g>
<!-- HelgolandMapViewModule&#45;&gt;HelgolandDatasetlistModule -->
<g id="edge6" class="edge">
<title>HelgolandMapViewModule&#45;&gt;HelgolandDatasetlistModule</title>
<path fill="none" stroke="#000000" d="M743.4024,-122.2396C743.4024,-137.5706 743.4024,-157 743.4024,-157 743.4024,-157 831.3462,-157 831.3462,-157"/>
<polygon fill="#000000" stroke="#000000" points="831.3462,-160.5001 841.3462,-157 831.3462,-153.5001 831.3462,-160.5001"/>
</g>
<!-- HelgolandServicesModule -->
<g id="node8" class="node">
<title>HelgolandServicesModule</title>
<polygon fill="#8dd3c7" stroke="#000000" points="633.7893,-122 630.7893,-126 609.7893,-126 606.7893,-122 468.2107,-122 468.2107,-86 633.7893,-86 633.7893,-122"/>
<text text-anchor="middle" x="551" y="-99.8" font-family="Times,serif" font-size="14.00" fill="#000000">HelgolandServicesModule</text>
</g>
<!-- HelgolandServicesModule&#45;&gt;HelgolandDatasetlistModule -->
<g id="edge7" class="edge">
<title>HelgolandServicesModule&#45;&gt;HelgolandDatasetlistModule</title>
<path fill="none" stroke="#000000" d="M551,-122.0225C551,-139.3734 551,-163 551,-163 551,-163 831.1413,-163 831.1413,-163"/>
<polygon fill="#000000" stroke="#000000" points="831.1414,-166.5001 841.1413,-163 831.1413,-159.5001 831.1414,-166.5001"/>
</g>
<!-- HelgolandFavoriteModule -->
<g id="node9" class="node">
<title>HelgolandFavoriteModule</title>
<polygon fill="#8dd3c7" stroke="#000000" points="450.0211,-122 447.0211,-126 426.0211,-126 423.0211,-122 285.9789,-122 285.9789,-86 450.0211,-86 450.0211,-122"/>
<text text-anchor="middle" x="368" y="-99.8" font-family="Times,serif" font-size="14.00" fill="#000000">HelgolandFavoriteModule</text>
</g>
<!-- HelgolandFavoriteModule&#45;&gt;HelgolandDatasetlistModule -->
<g id="edge8" class="edge">
<title>HelgolandFavoriteModule&#45;&gt;HelgolandDatasetlistModule</title>
<path fill="none" stroke="#000000" d="M368,-122.1061C368,-141.3391 368,-169 368,-169 368,-169 831.2595,-169 831.2595,-169"/>
<polygon fill="#000000" stroke="#000000" points="831.2596,-172.5001 841.2595,-169 831.2595,-165.5001 831.2596,-172.5001"/>
</g>
<!-- ReferenceValueColorCache -->
<g id="node13" class="node">
<title>ReferenceValueColorCache</title>
<ellipse fill="#fdb462" stroke="#000000" cx="143" cy="-104" rx="119.1997" ry="18"/>
<text text-anchor="middle" x="143" y="-99.8" font-family="Times,serif" font-size="14.00" fill="#000000">ReferenceValueColorCache</text>
</g>
<!-- ReferenceValueColorCache&#45;&gt;HelgolandDatasetlistModule -->
<g id="edge12" class="edge">
<title>ReferenceValueColorCache&#45;&gt;HelgolandDatasetlistModule</title>
<path fill="none" stroke="#000000" d="M143,-122.2843C143,-143.3211 143,-175 143,-175 143,-175 831.2509,-175 831.2509,-175"/>
<polygon fill="#000000" stroke="#000000" points="831.251,-178.5001 841.2509,-175 831.2509,-171.5001 831.251,-178.5001"/>
</g>
</g>
</svg>
