<?xml version="1.0" encoding="UTF-8" standalone="no"?>
<!DOCTYPE svg PUBLIC "-//W3C//DTD SVG 1.1//EN"
 "http://www.w3.org/Graphics/SVG/1.1/DTD/svg11.dtd">
<!-- Generated by graphviz version 2.40.1 (20161225.0304)
 -->
<!-- Title: dependencies Pages: 1 -->
<svg width="2958pt" height="284pt"
 viewBox="0.00 0.00 2958.00 284.00" xmlns="http://www.w3.org/2000/svg" xmlns:xlink="http://www.w3.org/1999/xlink">
<g id="graph0" class="graph" transform="scale(1 1) rotate(0) translate(4 280)">
<title>dependencies</title>
<polygon fill="#ffffff" stroke="transparent" points="-4,4 -4,-280 2954,-280 2954,4 -4,4"/>
<text text-anchor="start" x="1454.0091" y="-42.4" font-family="sans-serif" font-weight="bold" font-size="14.00" fill="#000000">Legend</text>
<polygon fill="#ffffb3" stroke="transparent" points="1241,-10 1241,-30 1261,-30 1261,-10 1241,-10"/>
<text text-anchor="start" x="1264.629" y="-15.4" font-family="sans-serif" font-size="14.00" fill="#000000"> &#160;Declarations</text>
<polygon fill="#8dd3c7" stroke="transparent" points="1354,-10 1354,-30 1374,-30 1374,-10 1354,-10"/>
<text text-anchor="start" x="1377.7251" y="-15.4" font-family="sans-serif" font-size="14.00" fill="#000000"> &#160;Module</text>
<polygon fill="#80b1d3" stroke="transparent" points="1440,-10 1440,-30 1460,-30 1460,-10 1440,-10"/>
<text text-anchor="start" x="1463.7812" y="-15.4" font-family="sans-serif" font-size="14.00" fill="#000000"> &#160;Bootstrap</text>
<polygon fill="#fdb462" stroke="transparent" points="1537,-10 1537,-30 1557,-30 1557,-10 1537,-10"/>
<text text-anchor="start" x="1560.6732" y="-15.4" font-family="sans-serif" font-size="14.00" fill="#000000"> &#160;Providers</text>
<polygon fill="#fb8072" stroke="transparent" points="1633,-10 1633,-30 1653,-30 1653,-10 1633,-10"/>
<text text-anchor="start" x="1656.7258" y="-15.4" font-family="sans-serif" font-size="14.00" fill="#000000"> &#160;Exports</text>
<g id="clust1" class="cluster">
<title>cluster_HelgolandDatasetlistModule</title>
<polygon fill="none" stroke="#000000" stroke-dasharray="1,5" points="8,-70 8,-268 2942,-268 2942,-70 8,-70"/>
</g>
<g id="clust2" class="cluster">
<title>cluster_HelgolandDatasetlistModule_declarations</title>
<polygon fill="none" stroke="#000000" points="659,-78 659,-130 2934,-130 2934,-78 659,-78"/>
</g>
<g id="clust13" class="cluster">
<title>cluster_HelgolandDatasetlistModule_imports</title>
<polygon fill="none" stroke="#000000" points="278,-78 278,-130 651,-130 651,-78 278,-78"/>
</g>
<g id="clust14" class="cluster">
<title>cluster_HelgolandDatasetlistModule_exports</title>
<polygon fill="none" stroke="#000000" points="309,-208 309,-260 2622,-260 2622,-208 309,-208"/>
</g>
<g id="clust16" class="cluster">
<title>cluster_HelgolandDatasetlistModule_providers</title>
<polygon fill="none" stroke="#000000" points="16,-78 16,-130 270,-130 270,-78 16,-78"/>
</g>
<!-- D3GeneralGraphComponent -->
<g id="node1" class="node">
<title>D3GeneralGraphComponent</title>
<polygon fill="#ffffb3" stroke="#000000" points="2925.7226,-122 2748.2774,-122 2748.2774,-86 2925.7226,-86 2925.7226,-122"/>
<text text-anchor="middle" x="2837" y="-99.8" font-family="Times,serif" font-size="14.00" fill="#000000">D3GeneralGraphComponent</text>
</g>
<!-- HelgolandDatasetlistModule -->
<g id="node11" class="node">
<title>HelgolandDatasetlistModule</title>
<polygon fill="#8dd3c7" stroke="#000000" points="1556.4594,-187 1553.4594,-191 1532.4594,-191 1529.4594,-187 1379.5406,-187 1379.5406,-151 1556.4594,-151 1556.4594,-187"/>
<text text-anchor="middle" x="1468" y="-164.8" font-family="Times,serif" font-size="14.00" fill="#000000">HelgolandDatasetlistModule</text>
</g>
<!-- D3GeneralGraphComponent&#45;&gt;HelgolandDatasetlistModule -->
<g id="edge1" class="edge">
<title>D3GeneralGraphComponent&#45;&gt;HelgolandDatasetlistModule</title>
<path fill="none" stroke="#000000" d="M2837,-122.308C2837,-142.1455 2837,-171 2837,-171 2837,-171 1566.5062,-171 1566.5062,-171"/>
<polygon fill="#000000" stroke="#000000" points="1566.5063,-167.5001 1556.5062,-171 1566.5062,-174.5001 1566.5063,-167.5001"/>
</g>
<!-- D3GraphCopyrightComponent -->
<g id="node2" class="node">
<title>D3GraphCopyrightComponent</title>
<polygon fill="#ffffb3" stroke="#000000" points="2730.1993,-122 2539.8007,-122 2539.8007,-86 2730.1993,-86 2730.1993,-122"/>
<text text-anchor="middle" x="2635" y="-99.8" font-family="Times,serif" font-size="14.00" fill="#000000">D3GraphCopyrightComponent</text>
</g>
<!-- D3GraphCopyrightComponent&#45;&gt;HelgolandDatasetlistModule -->
<g id="edge2" class="edge">
<title>D3GraphCopyrightComponent&#45;&gt;HelgolandDatasetlistModule</title>
<path fill="none" stroke="#000000" d="M2576.7558,-122.1686C2576.7558,-141.0898 2576.7558,-168 2576.7558,-168 2576.7558,-168 1566.8599,-168 1566.8599,-168"/>
<polygon fill="#000000" stroke="#000000" points="1566.8599,-164.5001 1556.8599,-168 1566.8599,-171.5001 1566.8599,-164.5001"/>
</g>
<!-- D3GraphHoverLineComponent -->
<g id="node3" class="node">
<title>D3GraphHoverLineComponent</title>
<polygon fill="#ffffb3" stroke="#000000" points="2522.0604,-122 2327.9396,-122 2327.9396,-86 2522.0604,-86 2522.0604,-122"/>
<text text-anchor="middle" x="2425" y="-99.8" font-family="Times,serif" font-size="14.00" fill="#000000">D3GraphHoverLineComponent</text>
</g>
<!-- D3GraphHoverLineComponent&#45;&gt;HelgolandDatasetlistModule -->
<g id="edge3" class="edge">
<title>D3GraphHoverLineComponent&#45;&gt;HelgolandDatasetlistModule</title>
<path fill="none" stroke="#000000" d="M2371.4097,-122.302C2371.4097,-140.2699 2371.4097,-165 2371.4097,-165 2371.4097,-165 1566.6808,-165 1566.6808,-165"/>
<polygon fill="#000000" stroke="#000000" points="1566.6809,-161.5001 1556.6808,-165 1566.6808,-168.5001 1566.6809,-161.5001"/>
</g>
<!-- D3GraphPanZoomInteractionComponent -->
<g id="node4" class="node">
<title>D3GraphPanZoomInteractionComponent</title>
<polygon fill="#ffffb3" stroke="#000000" points="2310.4985,-122 2061.5015,-122 2061.5015,-86 2310.4985,-86 2310.4985,-122"/>
<text text-anchor="middle" x="2186" y="-99.8" font-family="Times,serif" font-size="14.00" fill="#000000">D3GraphPanZoomInteractionComponent</text>
</g>
<!-- D3GraphPanZoomInteractionComponent&#45;&gt;HelgolandDatasetlistModule -->
<g id="edge4" class="edge">
<title>D3GraphPanZoomInteractionComponent&#45;&gt;HelgolandDatasetlistModule</title>
<path fill="none" stroke="#000000" d="M2132.2656,-122.0352C2132.2656,-138.7344 2132.2656,-161 2132.2656,-161 2132.2656,-161 1566.5527,-161 1566.5527,-161"/>
<polygon fill="#000000" stroke="#000000" points="1566.5527,-157.5001 1556.5527,-161 1566.5527,-164.5001 1566.5527,-157.5001"/>
</g>
<!-- D3OverviewTimeseriesGraphComponent -->
<g id="node5" class="node">
<title>D3OverviewTimeseriesGraphComponent</title>
<polygon fill="#ffffb3" stroke="#000000" points="2044.0324,-122 1793.9676,-122 1793.9676,-86 2044.0324,-86 2044.0324,-122"/>
<text text-anchor="middle" x="1919" y="-99.8" font-family="Times,serif" font-size="14.00" fill="#000000">D3OverviewTimeseriesGraphComponent</text>
</g>
<!-- D3OverviewTimeseriesGraphComponent&#45;&gt;HelgolandDatasetlistModule -->
<g id="edge5" class="edge">
<title>D3OverviewTimeseriesGraphComponent&#45;&gt;HelgolandDatasetlistModule</title>
<path fill="none" stroke="#000000" d="M1890.4914,-122.2819C1890.4914,-137.9478 1890.4914,-158 1890.4914,-158 1890.4914,-158 1566.568,-158 1566.568,-158"/>
<polygon fill="#000000" stroke="#000000" points="1566.5681,-154.5001 1556.568,-158 1566.568,-161.5001 1566.5681,-154.5001"/>
</g>
<!-- D3TimeseriesGraphComponent -->
<g id="node6" class="node">
<title>D3TimeseriesGraphComponent</title>
<polygon fill="#ffffb3" stroke="#000000" points="1776.3389,-122 1581.6611,-122 1581.6611,-86 1776.3389,-86 1776.3389,-122"/>
<text text-anchor="middle" x="1679" y="-99.8" font-family="Times,serif" font-size="14.00" fill="#000000">D3TimeseriesGraphComponent</text>
</g>
<!-- D3TimeseriesGraphComponent&#45;&gt;HelgolandDatasetlistModule -->
<g id="edge6" class="edge">
<title>D3TimeseriesGraphComponent&#45;&gt;HelgolandDatasetlistModule</title>
<path fill="none" stroke="#000000" d="M1649.1734,-122.1243C1649.1734,-136.7832 1649.1734,-155 1649.1734,-155 1649.1734,-155 1566.4637,-155 1566.4637,-155"/>
<polygon fill="#000000" stroke="#000000" points="1566.4638,-151.5001 1556.4637,-155 1566.4637,-158.5001 1566.4638,-151.5001"/>
</g>
<!-- D3TrajectoryGraphComponent -->
<g id="node7" class="node">
<title>D3TrajectoryGraphComponent</title>
<polygon fill="#ffffb3" stroke="#000000" points="1563.7198,-122 1372.2802,-122 1372.2802,-86 1563.7198,-86 1563.7198,-122"/>
<text text-anchor="middle" x="1468" y="-99.8" font-family="Times,serif" font-size="14.00" fill="#000000">D3TrajectoryGraphComponent</text>
</g>
<!-- D3TrajectoryGraphComponent&#45;&gt;HelgolandDatasetlistModule -->
<g id="edge7" class="edge">
<title>D3TrajectoryGraphComponent&#45;&gt;HelgolandDatasetlistModule</title>
<path fill="none" stroke="#000000" d="M1468,-122.1061C1468,-122.1061 1468,-140.991 1468,-140.991"/>
<polygon fill="#000000" stroke="#000000" points="1464.5001,-140.9909 1468,-150.991 1471.5001,-140.991 1464.5001,-140.9909"/>
</g>
<!-- D3YAxisModifierComponent -->
<g id="node8" class="node">
<title>D3YAxisModifierComponent</title>
<polygon fill="#ffffb3" stroke="#000000" points="1354.2492,-122 1169.7508,-122 1169.7508,-86 1354.2492,-86 1354.2492,-122"/>
<text text-anchor="middle" x="1262" y="-99.8" font-family="Times,serif" font-size="14.00" fill="#000000">D3YAxisModifierComponent</text>
</g>
<!-- D3YAxisModifierComponent&#45;&gt;HelgolandDatasetlistModule -->
<g id="edge8" class="edge">
<title>D3YAxisModifierComponent&#45;&gt;HelgolandDatasetlistModule</title>
<path fill="none" stroke="#000000" d="M1300.6026,-122.1243C1300.6026,-136.7832 1300.6026,-155 1300.6026,-155 1300.6026,-155 1369.3995,-155 1369.3995,-155"/>
<polygon fill="#000000" stroke="#000000" points="1369.3996,-158.5001 1379.3995,-155 1369.3995,-151.5001 1369.3996,-158.5001"/>
</g>
<!-- ExportImageButtonComponent -->
<g id="node9" class="node">
<title>ExportImageButtonComponent</title>
<polygon fill="#ffffb3" stroke="#000000" points="1151.035,-122 958.965,-122 958.965,-86 1151.035,-86 1151.035,-122"/>
<text text-anchor="middle" x="1055" y="-99.8" font-family="Times,serif" font-size="14.00" fill="#000000">ExportImageButtonComponent</text>
</g>
<!-- ExportImageButtonComponent&#45;&gt;HelgolandDatasetlistModule -->
<g id="edge9" class="edge">
<title>ExportImageButtonComponent&#45;&gt;HelgolandDatasetlistModule</title>
<path fill="none" stroke="#000000" d="M1092.3287,-122.2819C1092.3287,-137.9478 1092.3287,-158 1092.3287,-158 1092.3287,-158 1369.4469,-158 1369.4469,-158"/>
<polygon fill="#000000" stroke="#000000" points="1369.4469,-161.5001 1379.4469,-158 1369.4468,-154.5001 1369.4469,-161.5001"/>
</g>
<!-- ExtendedDataD3TimeseriesGraphComponent -->
<g id="node10" class="node">
<title>ExtendedDataD3TimeseriesGraphComponent</title>
<polygon fill="#ffffb3" stroke="#000000" points="941.1376,-122 666.8624,-122 666.8624,-86 941.1376,-86 941.1376,-122"/>
<text text-anchor="middle" x="804" y="-99.8" font-family="Times,serif" font-size="14.00" fill="#000000">ExtendedDataD3TimeseriesGraphComponent</text>
</g>
<!-- ExtendedDataD3TimeseriesGraphComponent&#45;&gt;HelgolandDatasetlistModule -->
<g id="edge10" class="edge">
<title>ExtendedDataD3TimeseriesGraphComponent&#45;&gt;HelgolandDatasetlistModule</title>
<path fill="none" stroke="#000000" d="M883.9722,-122.0352C883.9722,-138.7344 883.9722,-161 883.9722,-161 883.9722,-161 1369.2987,-161 1369.2987,-161"/>
<polygon fill="#000000" stroke="#000000" points="1369.2988,-164.5001 1379.2987,-161 1369.2987,-157.5001 1369.2988,-164.5001"/>
</g>
<!-- D3GeneralGraphComponent  -->
<g id="node14" class="node">
<title>D3GeneralGraphComponent </title>
<polygon fill="#fb8072" stroke="#000000" points="2613.7225,-252 2432.2775,-252 2432.2775,-216 2613.7225,-216 2613.7225,-252"/>
<text text-anchor="middle" x="2523" y="-229.8" font-family="Times,serif" font-size="14.00" fill="#000000">D3GeneralGraphComponent </text>
</g>
<!-- HelgolandDatasetlistModule&#45;&gt;D3GeneralGraphComponent  -->
<g id="edge13" class="edge">
<title>HelgolandDatasetlistModule&#45;&gt;D3GeneralGraphComponent </title>
<path fill="none" stroke="#000000" stroke-dasharray="5,2" d="M1556.6761,-174C1802.9418,-174 2477.2095,-174 2477.2095,-174 2477.2095,-174 2477.2095,-205.998 2477.2095,-205.998"/>
<polygon fill="#000000" stroke="#000000" points="2473.7096,-205.998 2477.2095,-215.998 2480.7096,-205.9981 2473.7096,-205.998"/>
</g>
<!-- D3GraphCopyrightComponent  -->
<g id="node15" class="node">
<title>D3GraphCopyrightComponent </title>
<polygon fill="#fb8072" stroke="#000000" points="2414.6994,-252 2221.3006,-252 2221.3006,-216 2414.6994,-216 2414.6994,-252"/>
<text text-anchor="middle" x="2318" y="-229.8" font-family="Times,serif" font-size="14.00" fill="#000000">D3GraphCopyrightComponent </text>
</g>
<!-- HelgolandDatasetlistModule&#45;&gt;D3GraphCopyrightComponent  -->
<g id="edge14" class="edge">
<title>HelgolandDatasetlistModule&#45;&gt;D3GraphCopyrightComponent </title>
<path fill="none" stroke="#000000" stroke-dasharray="5,2" d="M1556.7997,-178C1764.7241,-178 2265.6997,-178 2265.6997,-178 2265.6997,-178 2265.6997,-205.973 2265.6997,-205.973"/>
<polygon fill="#000000" stroke="#000000" points="2262.1998,-205.973 2265.6997,-215.973 2269.1998,-205.973 2262.1998,-205.973"/>
</g>
<!-- D3GraphHoverLineComponent  -->
<g id="node16" class="node">
<title>D3GraphHoverLineComponent </title>
<polygon fill="#fb8072" stroke="#000000" points="2202.5609,-252 2005.4391,-252 2005.4391,-216 2202.5609,-216 2202.5609,-252"/>
<text text-anchor="middle" x="2104" y="-229.8" font-family="Times,serif" font-size="14.00" fill="#000000">D3GraphHoverLineComponent </text>
</g>
<!-- HelgolandDatasetlistModule&#45;&gt;D3GraphHoverLineComponent  -->
<g id="edge15" class="edge">
<title>HelgolandDatasetlistModule&#45;&gt;D3GraphHoverLineComponent </title>
<path fill="none" stroke="#000000" stroke-dasharray="5,2" d="M1556.5053,-181C1713.5555,-181 2024.618,-181 2024.618,-181 2024.618,-181 2024.618,-205.7604 2024.618,-205.7604"/>
<polygon fill="#000000" stroke="#000000" points="2021.1181,-205.7604 2024.618,-215.7604 2028.1181,-205.7604 2021.1181,-205.7604"/>
</g>
<!-- D3GraphPanZoomInteractionComponent  -->
<g id="node17" class="node">
<title>D3GraphPanZoomInteractionComponent </title>
<polygon fill="#fb8072" stroke="#000000" points="1986.998,-252 1735.002,-252 1735.002,-216 1986.998,-216 1986.998,-252"/>
<text text-anchor="middle" x="1861" y="-229.8" font-family="Times,serif" font-size="14.00" fill="#000000">D3GraphPanZoomInteractionComponent </text>
</g>
<!-- HelgolandDatasetlistModule&#45;&gt;D3GraphPanZoomInteractionComponent  -->
<g id="edge16" class="edge">
<title>HelgolandDatasetlistModule&#45;&gt;D3GraphPanZoomInteractionComponent </title>
<path fill="none" stroke="#000000" stroke-dasharray="5,2" d="M1556.6702,-184C1641.2063,-184 1755.7102,-184 1755.7102,-184 1755.7102,-184 1755.7102,-205.9489 1755.7102,-205.9489"/>
<polygon fill="#000000" stroke="#000000" points="1752.2103,-205.9488 1755.7102,-215.9489 1759.2103,-205.9489 1752.2103,-205.9488"/>
</g>
<!-- D3OverviewTimeseriesGraphComponent  -->
<g id="node18" class="node">
<title>D3OverviewTimeseriesGraphComponent </title>
<polygon fill="#fb8072" stroke="#000000" points="1716.5328,-252 1463.4672,-252 1463.4672,-216 1716.5328,-216 1716.5328,-252"/>
<text text-anchor="middle" x="1590" y="-229.8" font-family="Times,serif" font-size="14.00" fill="#000000">D3OverviewTimeseriesGraphComponent </text>
</g>
<!-- HelgolandDatasetlistModule&#45;&gt;D3OverviewTimeseriesGraphComponent  -->
<g id="edge17" class="edge">
<title>HelgolandDatasetlistModule&#45;&gt;D3OverviewTimeseriesGraphComponent </title>
<path fill="none" stroke="#000000" stroke-dasharray="5,2" d="M1509.8568,-187.1061C1509.8568,-187.1061 1509.8568,-205.991 1509.8568,-205.991"/>
<polygon fill="#000000" stroke="#000000" points="1506.3568,-205.9909 1509.8568,-215.991 1513.3568,-205.991 1506.3568,-205.9909"/>
</g>
<!-- D3TimeseriesGraphComponent  -->
<g id="node19" class="node">
<title>D3TimeseriesGraphComponent </title>
<polygon fill="#fb8072" stroke="#000000" points="1445.3391,-252 1246.6609,-252 1246.6609,-216 1445.3391,-216 1445.3391,-252"/>
<text text-anchor="middle" x="1346" y="-229.8" font-family="Times,serif" font-size="14.00" fill="#000000">D3TimeseriesGraphComponent </text>
</g>
<!-- HelgolandDatasetlistModule&#45;&gt;D3TimeseriesGraphComponent  -->
<g id="edge18" class="edge">
<title>HelgolandDatasetlistModule&#45;&gt;D3TimeseriesGraphComponent </title>
<path fill="none" stroke="#000000" stroke-dasharray="5,2" d="M1412.3449,-187.1061C1412.3449,-187.1061 1412.3449,-205.991 1412.3449,-205.991"/>
<polygon fill="#000000" stroke="#000000" points="1408.8449,-205.9909 1412.3449,-215.991 1415.8449,-205.991 1408.8449,-205.9909"/>
</g>
<!-- D3TrajectoryGraphComponent  -->
<g id="node20" class="node">
<title>D3TrajectoryGraphComponent </title>
<polygon fill="#fb8072" stroke="#000000" points="1228.7197,-252 1033.2803,-252 1033.2803,-216 1228.7197,-216 1228.7197,-252"/>
<text text-anchor="middle" x="1131" y="-229.8" font-family="Times,serif" font-size="14.00" fill="#000000">D3TrajectoryGraphComponent </text>
</g>
<!-- HelgolandDatasetlistModule&#45;&gt;D3TrajectoryGraphComponent  -->
<g id="edge19" class="edge">
<title>HelgolandDatasetlistModule&#45;&gt;D3TrajectoryGraphComponent </title>
<path fill="none" stroke="#000000" stroke-dasharray="5,2" d="M1379.2127,-184C1300.8932,-184 1199.1177,-184 1199.1177,-184 1199.1177,-184 1199.1177,-205.9489 1199.1177,-205.9489"/>
<polygon fill="#000000" stroke="#000000" points="1195.6177,-205.9488 1199.1177,-215.9489 1202.6177,-205.9489 1195.6177,-205.9488"/>
</g>
<!-- D3YAxisModifierComponent  -->
<g id="node21" class="node">
<title>D3YAxisModifierComponent </title>
<polygon fill="#fb8072" stroke="#000000" points="1015.2492,-252 826.7508,-252 826.7508,-216 1015.2492,-216 1015.2492,-252"/>
<text text-anchor="middle" x="921" y="-229.8" font-family="Times,serif" font-size="14.00" fill="#000000">D3YAxisModifierComponent </text>
</g>
<!-- HelgolandDatasetlistModule&#45;&gt;D3YAxisModifierComponent  -->
<g id="edge20" class="edge">
<title>HelgolandDatasetlistModule&#45;&gt;D3YAxisModifierComponent </title>
<path fill="none" stroke="#000000" stroke-dasharray="5,2" d="M1379.4839,-181C1240.5417,-181 986.9287,-181 986.9287,-181 986.9287,-181 986.9287,-205.7604 986.9287,-205.7604"/>
<polygon fill="#000000" stroke="#000000" points="983.4287,-205.7604 986.9287,-215.7604 990.4287,-205.7604 983.4287,-205.7604"/>
</g>
<!-- ExportImageButtonComponent  -->
<g id="node22" class="node">
<title>ExportImageButtonComponent </title>
<polygon fill="#fb8072" stroke="#000000" points="809.0344,-252 612.9656,-252 612.9656,-216 809.0344,-216 809.0344,-252"/>
<text text-anchor="middle" x="711" y="-229.8" font-family="Times,serif" font-size="14.00" fill="#000000">ExportImageButtonComponent </text>
</g>
<!-- HelgolandDatasetlistModule&#45;&gt;ExportImageButtonComponent  -->
<g id="edge21" class="edge">
<title>HelgolandDatasetlistModule&#45;&gt;ExportImageButtonComponent </title>
<path fill="none" stroke="#000000" stroke-dasharray="5,2" d="M1379.2143,-178C1184.6612,-178 737.9742,-178 737.9742,-178 737.9742,-178 737.9742,-205.973 737.9742,-205.973"/>
<polygon fill="#000000" stroke="#000000" points="734.4743,-205.973 737.9742,-215.973 741.4743,-205.973 734.4743,-205.973"/>
</g>
<!-- ExtendedDataD3TimeseriesGraphComponent  -->
<g id="node23" class="node">
<title>ExtendedDataD3TimeseriesGraphComponent </title>
<polygon fill="#fb8072" stroke="#000000" points="594.6378,-252 317.3622,-252 317.3622,-216 594.6378,-216 594.6378,-252"/>
<text text-anchor="middle" x="456" y="-229.8" font-family="Times,serif" font-size="14.00" fill="#000000">ExtendedDataD3TimeseriesGraphComponent </text>
</g>
<!-- HelgolandDatasetlistModule&#45;&gt;ExtendedDataD3TimeseriesGraphComponent  -->
<g id="edge22" class="edge">
<title>HelgolandDatasetlistModule&#45;&gt;ExtendedDataD3TimeseriesGraphComponent </title>
<path fill="none" stroke="#000000" stroke-dasharray="5,2" d="M1379.1898,-174C1148.1463,-174 546.1398,-174 546.1398,-174 546.1398,-174 546.1398,-205.998 546.1398,-205.998"/>
<polygon fill="#000000" stroke="#000000" points="542.6398,-205.998 546.1398,-215.998 549.6398,-205.9981 542.6398,-205.998"/>
</g>
<!-- HelgolandCoreModule -->
<g id="node12" class="node">
<title>HelgolandCoreModule</title>
<polygon fill="#8dd3c7" stroke="#000000" points="642.5786,-122 639.5786,-126 618.5786,-126 615.5786,-122 497.4214,-122 497.4214,-86 642.5786,-86 642.5786,-122"/>
<text text-anchor="middle" x="570" y="-99.8" font-family="Times,serif" font-size="14.00" fill="#000000">HelgolandCoreModule</text>
</g>
<!-- HelgolandCoreModule&#45;&gt;HelgolandDatasetlistModule -->
<g id="edge11" class="edge">
<title>HelgolandCoreModule&#45;&gt;HelgolandDatasetlistModule</title>
<path fill="none" stroke="#000000" d="M627.7611,-122.302C627.7611,-140.2699 627.7611,-165 627.7611,-165 627.7611,-165 1369.2719,-165 1369.2719,-165"/>
<polygon fill="#000000" stroke="#000000" points="1369.2719,-168.5001 1379.2719,-165 1369.2718,-161.5001 1369.2719,-168.5001"/>
</g>
<!-- HelgolandLabelMapperModule -->
<g id="node13" class="node">
<title>HelgolandLabelMapperModule</title>
<polygon fill="#8dd3c7" stroke="#000000" points="479.7738,-122 476.7738,-126 455.7738,-126 452.7738,-122 286.2262,-122 286.2262,-86 479.7738,-86 479.7738,-122"/>
<text text-anchor="middle" x="383" y="-99.8" font-family="Times,serif" font-size="14.00" fill="#000000">HelgolandLabelMapperModule</text>
</g>
<!-- HelgolandLabelMapperModule&#45;&gt;HelgolandDatasetlistModule -->
<g id="edge12" class="edge">
<title>HelgolandLabelMapperModule&#45;&gt;HelgolandDatasetlistModule</title>
<path fill="none" stroke="#000000" d="M398.409,-122.1686C398.409,-141.0898 398.409,-168 398.409,-168 398.409,-168 1369.1044,-168 1369.1044,-168"/>
<polygon fill="#000000" stroke="#000000" points="1369.1045,-171.5001 1379.1044,-168 1369.1044,-164.5001 1369.1045,-171.5001"/>
</g>
<!-- ReferenceValueColorCache -->
<g id="node24" class="node">
<title>ReferenceValueColorCache</title>
<ellipse fill="#fdb462" stroke="#000000" cx="143" cy="-104" rx="119.1997" ry="18"/>
<text text-anchor="middle" x="143" y="-99.8" font-family="Times,serif" font-size="14.00" fill="#000000">ReferenceValueColorCache</text>
</g>
<!-- ReferenceValueColorCache&#45;&gt;HelgolandDatasetlistModule -->
<g id="edge23" class="edge">
<title>ReferenceValueColorCache&#45;&gt;HelgolandDatasetlistModule</title>
<path fill="none" stroke="#000000" d="M143,-122.308C143,-142.1455 143,-171 143,-171 143,-171 1369.5219,-171 1369.5219,-171"/>
<polygon fill="#000000" stroke="#000000" points="1369.5219,-174.5001 1379.5219,-171 1369.5219,-167.5001 1369.5219,-174.5001"/>
</g>
</g>
</svg>
