<?xml version="1.0" encoding="UTF-8" standalone="no"?>
<!DOCTYPE svg PUBLIC "-//W3C//DTD SVG 1.1//EN"
 "http://www.w3.org/Graphics/SVG/1.1/DTD/svg11.dtd">
<!-- Generated by graphviz version 2.40.1 (20161225.0304)
 -->
<!-- Title: dependencies Pages: 1 -->
<svg width="2746pt" height="284pt"
 viewBox="0.00 0.00 2746.00 284.00" xmlns="http://www.w3.org/2000/svg" xmlns:xlink="http://www.w3.org/1999/xlink">
<g id="graph0" class="graph" transform="scale(1 1) rotate(0) translate(4 280)">
<title>dependencies</title>
<polygon fill="#ffffff" stroke="transparent" points="-4,4 -4,-280 2742,-280 2742,4 -4,4"/>
<text text-anchor="start" x="1348.0091" y="-42.4" font-family="sans-serif" font-weight="bold" font-size="14.00" fill="#000000">Legend</text>
<polygon fill="#ffffb3" stroke="transparent" points="1135,-10 1135,-30 1155,-30 1155,-10 1135,-10"/>
<text text-anchor="start" x="1158.629" y="-15.4" font-family="sans-serif" font-size="14.00" fill="#000000"> &#160;Declarations</text>
<polygon fill="#8dd3c7" stroke="transparent" points="1248,-10 1248,-30 1268,-30 1268,-10 1248,-10"/>
<text text-anchor="start" x="1271.7251" y="-15.4" font-family="sans-serif" font-size="14.00" fill="#000000"> &#160;Module</text>
<polygon fill="#80b1d3" stroke="transparent" points="1334,-10 1334,-30 1354,-30 1354,-10 1334,-10"/>
<text text-anchor="start" x="1357.7812" y="-15.4" font-family="sans-serif" font-size="14.00" fill="#000000"> &#160;Bootstrap</text>
<polygon fill="#fdb462" stroke="transparent" points="1431,-10 1431,-30 1451,-30 1451,-10 1431,-10"/>
<text text-anchor="start" x="1454.6732" y="-15.4" font-family="sans-serif" font-size="14.00" fill="#000000"> &#160;Providers</text>
<polygon fill="#fb8072" stroke="transparent" points="1527,-10 1527,-30 1547,-30 1547,-10 1527,-10"/>
<text text-anchor="start" x="1550.7258" y="-15.4" font-family="sans-serif" font-size="14.00" fill="#000000"> &#160;Exports</text>
<g id="clust1" class="cluster">
<title>cluster_HelgolandDatasetlistModule</title>
<polygon fill="none" stroke="#000000" stroke-dasharray="1,5" points="8,-70 8,-268 2730,-268 2730,-70 8,-70"/>
</g>
<g id="clust2" class="cluster">
<title>cluster_HelgolandDatasetlistModule_declarations</title>
<polygon fill="none" stroke="#000000" points="659,-78 659,-130 2722,-130 2722,-78 659,-78"/>
</g>
<g id="clust12" class="cluster">
<title>cluster_HelgolandDatasetlistModule_imports</title>
<polygon fill="none" stroke="#000000" points="278,-78 278,-130 651,-130 651,-78 278,-78"/>
</g>
<g id="clust13" class="cluster">
<title>cluster_HelgolandDatasetlistModule_exports</title>
<polygon fill="none" stroke="#000000" points="328,-208 328,-260 2425,-260 2425,-208 328,-208"/>
</g>
<g id="clust15" class="cluster">
<title>cluster_HelgolandDatasetlistModule_providers</title>
<polygon fill="none" stroke="#000000" points="16,-78 16,-130 270,-130 270,-78 16,-78"/>
</g>
<!-- D3GeneralGraphComponent -->
<g id="node1" class="node">
<title>D3GeneralGraphComponent</title>
<polygon fill="#ffffb3" stroke="#000000" points="2713.7226,-122 2536.2774,-122 2536.2774,-86 2713.7226,-86 2713.7226,-122"/>
<text text-anchor="middle" x="2625" y="-99.8" font-family="Times,serif" font-size="14.00" fill="#000000">D3GeneralGraphComponent</text>
</g>
<!-- HelgolandDatasetlistModule -->
<g id="node10" class="node">
<title>HelgolandDatasetlistModule</title>
<polygon fill="#8dd3c7" stroke="#000000" points="1453.4594,-187 1450.4594,-191 1429.4594,-191 1426.4594,-187 1276.5406,-187 1276.5406,-151 1453.4594,-151 1453.4594,-187"/>
<text text-anchor="middle" x="1365" y="-164.8" font-family="Times,serif" font-size="14.00" fill="#000000">HelgolandDatasetlistModule</text>
</g>
<!-- D3GeneralGraphComponent&#45;&gt;HelgolandDatasetlistModule -->
<g id="edge1" class="edge">
<title>D3GeneralGraphComponent&#45;&gt;HelgolandDatasetlistModule</title>
<path fill="none" stroke="#000000" d="M2625,-122.1061C2625,-141.3391 2625,-169 2625,-169 2625,-169 1463.6008,-169 1463.6008,-169"/>
<polygon fill="#000000" stroke="#000000" points="1463.6008,-165.5001 1453.6008,-169 1463.6007,-172.5001 1463.6008,-165.5001"/>
</g>
<!-- D3GraphCopyrightComponent -->
<g id="node2" class="node">
<title>D3GraphCopyrightComponent</title>
<polygon fill="#ffffb3" stroke="#000000" points="2518.1993,-122 2327.8007,-122 2327.8007,-86 2518.1993,-86 2518.1993,-122"/>
<text text-anchor="middle" x="2423" y="-99.8" font-family="Times,serif" font-size="14.00" fill="#000000">D3GraphCopyrightComponent</text>
</g>
<!-- D3GraphCopyrightComponent&#45;&gt;HelgolandDatasetlistModule -->
<g id="edge2" class="edge">
<title>D3GraphCopyrightComponent&#45;&gt;HelgolandDatasetlistModule</title>
<path fill="none" stroke="#000000" d="M2372.2558,-122.2667C2372.2558,-140.5552 2372.2558,-166 2372.2558,-166 2372.2558,-166 1463.5044,-166 1463.5044,-166"/>
<polygon fill="#000000" stroke="#000000" points="1463.5045,-162.5001 1453.5044,-166 1463.5044,-169.5001 1463.5045,-162.5001"/>
</g>
<!-- D3GraphPanZoomInteractionComponent -->
<g id="node3" class="node">
<title>D3GraphPanZoomInteractionComponent</title>
<polygon fill="#ffffb3" stroke="#000000" points="2310.4985,-122 2061.5015,-122 2061.5015,-86 2310.4985,-86 2310.4985,-122"/>
<text text-anchor="middle" x="2186" y="-99.8" font-family="Times,serif" font-size="14.00" fill="#000000">D3GraphPanZoomInteractionComponent</text>
</g>
<!-- D3GraphPanZoomInteractionComponent&#45;&gt;HelgolandDatasetlistModule -->
<g id="edge3" class="edge">
<title>D3GraphPanZoomInteractionComponent&#45;&gt;HelgolandDatasetlistModule</title>
<path fill="none" stroke="#000000" d="M2139.8003,-122.0336C2139.8003,-139.0597 2139.8003,-162 2139.8003,-162 2139.8003,-162 1463.502,-162 1463.502,-162"/>
<polygon fill="#000000" stroke="#000000" points="1463.502,-158.5001 1453.502,-162 1463.5019,-165.5001 1463.502,-158.5001"/>
</g>
<!-- D3OverviewTimeseriesGraphComponent -->
<g id="node4" class="node">
<title>D3OverviewTimeseriesGraphComponent</title>
<polygon fill="#ffffb3" stroke="#000000" points="2044.0324,-122 1793.9676,-122 1793.9676,-86 2044.0324,-86 2044.0324,-122"/>
<text text-anchor="middle" x="1919" y="-99.8" font-family="Times,serif" font-size="14.00" fill="#000000">D3OverviewTimeseriesGraphComponent</text>
</g>
<!-- D3OverviewTimeseriesGraphComponent&#45;&gt;HelgolandDatasetlistModule -->
<g id="edge4" class="edge">
<title>D3OverviewTimeseriesGraphComponent&#45;&gt;HelgolandDatasetlistModule</title>
<path fill="none" stroke="#000000" d="M1899.9914,-122.0091C1899.9914,-138.0494 1899.9914,-159 1899.9914,-159 1899.9914,-159 1463.643,-159 1463.643,-159"/>
<polygon fill="#000000" stroke="#000000" points="1463.6431,-155.5001 1453.643,-159 1463.643,-162.5001 1463.6431,-155.5001"/>
</g>
<!-- D3TimeseriesGraphComponent -->
<g id="node5" class="node">
<title>D3TimeseriesGraphComponent</title>
<polygon fill="#ffffb3" stroke="#000000" points="1776.3389,-122 1581.6611,-122 1581.6611,-86 1776.3389,-86 1776.3389,-122"/>
<text text-anchor="middle" x="1679" y="-99.8" font-family="Times,serif" font-size="14.00" fill="#000000">D3TimeseriesGraphComponent</text>
</g>
<!-- D3TimeseriesGraphComponent&#45;&gt;HelgolandDatasetlistModule -->
<g id="edge5" class="edge">
<title>D3TimeseriesGraphComponent&#45;&gt;HelgolandDatasetlistModule</title>
<path fill="none" stroke="#000000" d="M1658.6734,-122.1243C1658.6734,-136.7832 1658.6734,-155 1658.6734,-155 1658.6734,-155 1463.51,-155 1463.51,-155"/>
<polygon fill="#000000" stroke="#000000" points="1463.51,-151.5001 1453.51,-155 1463.5099,-158.5001 1463.51,-151.5001"/>
</g>
<!-- D3TrajectoryGraphComponent -->
<g id="node6" class="node">
<title>D3TrajectoryGraphComponent</title>
<polygon fill="#ffffb3" stroke="#000000" points="1563.7198,-122 1372.2802,-122 1372.2802,-86 1563.7198,-86 1563.7198,-122"/>
<text text-anchor="middle" x="1468" y="-99.8" font-family="Times,serif" font-size="14.00" fill="#000000">D3TrajectoryGraphComponent</text>
</g>
<!-- D3TrajectoryGraphComponent&#45;&gt;HelgolandDatasetlistModule -->
<g id="edge6" class="edge">
<title>D3TrajectoryGraphComponent&#45;&gt;HelgolandDatasetlistModule</title>
<path fill="none" stroke="#000000" d="M1412.81,-122.1061C1412.81,-122.1061 1412.81,-140.991 1412.81,-140.991"/>
<polygon fill="#000000" stroke="#000000" points="1409.31,-140.9909 1412.81,-150.991 1416.31,-140.991 1409.31,-140.9909"/>
</g>
<!-- D3YAxisModifierComponent -->
<g id="node7" class="node">
<title>D3YAxisModifierComponent</title>
<polygon fill="#ffffb3" stroke="#000000" points="1354.2492,-122 1169.7508,-122 1169.7508,-86 1354.2492,-86 1354.2492,-122"/>
<text text-anchor="middle" x="1262" y="-99.8" font-family="Times,serif" font-size="14.00" fill="#000000">D3YAxisModifierComponent</text>
</g>
<!-- D3YAxisModifierComponent&#45;&gt;HelgolandDatasetlistModule -->
<g id="edge7" class="edge">
<title>D3YAxisModifierComponent&#45;&gt;HelgolandDatasetlistModule</title>
<path fill="none" stroke="#000000" d="M1315.4474,-122.1061C1315.4474,-122.1061 1315.4474,-140.991 1315.4474,-140.991"/>
<polygon fill="#000000" stroke="#000000" points="1311.9475,-140.9909 1315.4474,-150.991 1318.9475,-140.991 1311.9475,-140.9909"/>
</g>
<!-- ExportImageButtonComponent -->
<g id="node8" class="node">
<title>ExportImageButtonComponent</title>
<polygon fill="#ffffb3" stroke="#000000" points="1151.035,-122 958.965,-122 958.965,-86 1151.035,-86 1151.035,-122"/>
<text text-anchor="middle" x="1055" y="-99.8" font-family="Times,serif" font-size="14.00" fill="#000000">ExportImageButtonComponent</text>
</g>
<!-- ExportImageButtonComponent&#45;&gt;HelgolandDatasetlistModule -->
<g id="edge8" class="edge">
<title>ExportImageButtonComponent&#45;&gt;HelgolandDatasetlistModule</title>
<path fill="none" stroke="#000000" d="M1101.8287,-122.1243C1101.8287,-136.7832 1101.8287,-155 1101.8287,-155 1101.8287,-155 1266.2691,-155 1266.2691,-155"/>
<polygon fill="#000000" stroke="#000000" points="1266.2691,-158.5001 1276.2691,-155 1266.2691,-151.5001 1266.2691,-158.5001"/>
</g>
<!-- ExtendedDataD3TimeseriesGraphComponent -->
<g id="node9" class="node">
<title>ExtendedDataD3TimeseriesGraphComponent</title>
<polygon fill="#ffffb3" stroke="#000000" points="941.1376,-122 666.8624,-122 666.8624,-86 941.1376,-86 941.1376,-122"/>
<text text-anchor="middle" x="804" y="-99.8" font-family="Times,serif" font-size="14.00" fill="#000000">ExtendedDataD3TimeseriesGraphComponent</text>
</g>
<!-- ExtendedDataD3TimeseriesGraphComponent&#45;&gt;HelgolandDatasetlistModule -->
<g id="edge9" class="edge">
<title>ExtendedDataD3TimeseriesGraphComponent&#45;&gt;HelgolandDatasetlistModule</title>
<path fill="none" stroke="#000000" d="M893.4722,-122.0091C893.4722,-138.0494 893.4722,-159 893.4722,-159 893.4722,-159 1266.3092,-159 1266.3092,-159"/>
<polygon fill="#000000" stroke="#000000" points="1266.3093,-162.5001 1276.3092,-159 1266.3092,-155.5001 1266.3093,-162.5001"/>
</g>
<!-- D3GeneralGraphComponent  -->
<g id="node13" class="node">
<title>D3GeneralGraphComponent </title>
<polygon fill="#fb8072" stroke="#000000" points="2416.7225,-252 2235.2775,-252 2235.2775,-216 2416.7225,-216 2416.7225,-252"/>
<text text-anchor="middle" x="2326" y="-229.8" font-family="Times,serif" font-size="14.00" fill="#000000">D3GeneralGraphComponent </text>
</g>
<!-- HelgolandDatasetlistModule&#45;&gt;D3GeneralGraphComponent  -->
<g id="edge12" class="edge">
<title>HelgolandDatasetlistModule&#45;&gt;D3GeneralGraphComponent </title>
<path fill="none" stroke="#000000" stroke-dasharray="5,2" d="M1453.6984,-173C1682.1292,-173 2272.8189,-173 2272.8189,-173 2272.8189,-173 2272.8189,-205.698 2272.8189,-205.698"/>
<polygon fill="#000000" stroke="#000000" points="2269.319,-205.698 2272.8189,-215.698 2276.319,-205.698 2269.319,-205.698"/>
</g>
<!-- D3GraphCopyrightComponent  -->
<g id="node14" class="node">
<title>D3GraphCopyrightComponent </title>
<polygon fill="#fb8072" stroke="#000000" points="2217.6994,-252 2024.3006,-252 2024.3006,-216 2217.6994,-216 2217.6994,-252"/>
<text text-anchor="middle" x="2121" y="-229.8" font-family="Times,serif" font-size="14.00" fill="#000000">D3GraphCopyrightComponent </text>
</g>
<!-- HelgolandDatasetlistModule&#45;&gt;D3GraphCopyrightComponent  -->
<g id="edge13" class="edge">
<title>HelgolandDatasetlistModule&#45;&gt;D3GraphCopyrightComponent </title>
<path fill="none" stroke="#000000" stroke-dasharray="5,2" d="M1453.5038,-177C1635.3486,-177 2034.0833,-177 2034.0833,-177 2034.0833,-177 2034.0833,-205.9648 2034.0833,-205.9648"/>
<polygon fill="#000000" stroke="#000000" points="2030.5834,-205.9648 2034.0833,-215.9648 2037.5834,-205.9649 2030.5834,-205.9648"/>
</g>
<!-- D3GraphPanZoomInteractionComponent  -->
<g id="node15" class="node">
<title>D3GraphPanZoomInteractionComponent </title>
<polygon fill="#fb8072" stroke="#000000" points="2005.998,-252 1754.002,-252 1754.002,-216 2005.998,-216 2005.998,-252"/>
<text text-anchor="middle" x="1880" y="-229.8" font-family="Times,serif" font-size="14.00" fill="#000000">D3GraphPanZoomInteractionComponent </text>
</g>
<!-- HelgolandDatasetlistModule&#45;&gt;D3GraphPanZoomInteractionComponent  -->
<g id="edge14" class="edge">
<title>HelgolandDatasetlistModule&#45;&gt;D3GraphPanZoomInteractionComponent </title>
<path fill="none" stroke="#000000" stroke-dasharray="5,2" d="M1453.8196,-180C1571.7248,-180 1765.2102,-180 1765.2102,-180 1765.2102,-180 1765.2102,-205.7181 1765.2102,-205.7181"/>
<polygon fill="#000000" stroke="#000000" points="1761.7103,-205.718 1765.2102,-215.7181 1768.7103,-205.7181 1761.7103,-205.718"/>
</g>
<!-- D3OverviewTimeseriesGraphComponent  -->
<g id="node16" class="node">
<title>D3OverviewTimeseriesGraphComponent </title>
<polygon fill="#fb8072" stroke="#000000" points="1735.5328,-252 1482.4672,-252 1482.4672,-216 1735.5328,-216 1735.5328,-252"/>
<text text-anchor="middle" x="1609" y="-229.8" font-family="Times,serif" font-size="14.00" fill="#000000">D3OverviewTimeseriesGraphComponent </text>
</g>
<!-- HelgolandDatasetlistModule&#45;&gt;D3OverviewTimeseriesGraphComponent  -->
<g id="edge15" class="edge">
<title>HelgolandDatasetlistModule&#45;&gt;D3OverviewTimeseriesGraphComponent </title>
<path fill="none" stroke="#000000" stroke-dasharray="5,2" d="M1453.7252,-184C1489.7516,-184 1523.0468,-184 1523.0468,-184 1523.0468,-184 1523.0468,-205.9489 1523.0468,-205.9489"/>
<polygon fill="#000000" stroke="#000000" points="1519.5469,-205.9488 1523.0468,-215.9489 1526.5469,-205.9489 1519.5469,-205.9488"/>
</g>
<!-- D3TimeseriesGraphComponent  -->
<g id="node17" class="node">
<title>D3TimeseriesGraphComponent </title>
<polygon fill="#fb8072" stroke="#000000" points="1464.3391,-252 1265.6609,-252 1265.6609,-216 1464.3391,-216 1464.3391,-252"/>
<text text-anchor="middle" x="1365" y="-229.8" font-family="Times,serif" font-size="14.00" fill="#000000">D3TimeseriesGraphComponent </text>
</g>
<!-- HelgolandDatasetlistModule&#45;&gt;D3TimeseriesGraphComponent  -->
<g id="edge16" class="edge">
<title>HelgolandDatasetlistModule&#45;&gt;D3TimeseriesGraphComponent </title>
<path fill="none" stroke="#000000" stroke-dasharray="5,2" d="M1365,-187.1061C1365,-187.1061 1365,-205.991 1365,-205.991"/>
<polygon fill="#000000" stroke="#000000" points="1361.5001,-205.9909 1365,-215.991 1368.5001,-205.991 1361.5001,-205.9909"/>
</g>
<!-- D3TrajectoryGraphComponent  -->
<g id="node18" class="node">
<title>D3TrajectoryGraphComponent </title>
<polygon fill="#fb8072" stroke="#000000" points="1247.7197,-252 1052.2803,-252 1052.2803,-216 1247.7197,-216 1247.7197,-252"/>
<text text-anchor="middle" x="1150" y="-229.8" font-family="Times,serif" font-size="14.00" fill="#000000">D3TrajectoryGraphComponent </text>
</g>
<!-- HelgolandDatasetlistModule&#45;&gt;D3TrajectoryGraphComponent  -->
<g id="edge17" class="edge">
<title>HelgolandDatasetlistModule&#45;&gt;D3TrajectoryGraphComponent </title>
<path fill="none" stroke="#000000" stroke-dasharray="5,2" d="M1276.2997,-184C1241.0038,-184 1208.6177,-184 1208.6177,-184 1208.6177,-184 1208.6177,-205.9489 1208.6177,-205.9489"/>
<polygon fill="#000000" stroke="#000000" points="1205.1177,-205.9488 1208.6177,-215.9489 1212.1177,-205.9489 1205.1177,-205.9488"/>
</g>
<!-- D3YAxisModifierComponent  -->
<g id="node19" class="node">
<title>D3YAxisModifierComponent </title>
<polygon fill="#fb8072" stroke="#000000" points="1034.2492,-252 845.7508,-252 845.7508,-216 1034.2492,-216 1034.2492,-252"/>
<text text-anchor="middle" x="940" y="-229.8" font-family="Times,serif" font-size="14.00" fill="#000000">D3YAxisModifierComponent </text>
</g>
<!-- HelgolandDatasetlistModule&#45;&gt;D3YAxisModifierComponent  -->
<g id="edge18" class="edge">
<title>HelgolandDatasetlistModule&#45;&gt;D3YAxisModifierComponent </title>
<path fill="none" stroke="#000000" stroke-dasharray="5,2" d="M1276.2489,-180C1167.1891,-180 996.4287,-180 996.4287,-180 996.4287,-180 996.4287,-205.7181 996.4287,-205.7181"/>
<polygon fill="#000000" stroke="#000000" points="992.9287,-205.718 996.4287,-215.7181 999.9287,-205.7181 992.9287,-205.718"/>
</g>
<!-- ExportImageButtonComponent  -->
<g id="node20" class="node">
<title>ExportImageButtonComponent </title>
<polygon fill="#fb8072" stroke="#000000" points="828.0344,-252 631.9656,-252 631.9656,-216 828.0344,-216 828.0344,-252"/>
<text text-anchor="middle" x="730" y="-229.8" font-family="Times,serif" font-size="14.00" fill="#000000">ExportImageButtonComponent </text>
</g>
<!-- HelgolandDatasetlistModule&#45;&gt;ExportImageButtonComponent  -->
<g id="edge19" class="edge">
<title>HelgolandDatasetlistModule&#45;&gt;ExportImageButtonComponent </title>
<path fill="none" stroke="#000000" stroke-dasharray="5,2" d="M1276.5236,-177C1105.7722,-177 747.4742,-177 747.4742,-177 747.4742,-177 747.4742,-205.9648 747.4742,-205.9648"/>
<polygon fill="#000000" stroke="#000000" points="743.9743,-205.9648 747.4742,-215.9648 750.9743,-205.9649 743.9743,-205.9648"/>
</g>
<!-- ExtendedDataD3TimeseriesGraphComponent  -->
<g id="node21" class="node">
<title>ExtendedDataD3TimeseriesGraphComponent </title>
<polygon fill="#fb8072" stroke="#000000" points="613.6378,-252 336.3622,-252 336.3622,-216 613.6378,-216 613.6378,-252"/>
<text text-anchor="middle" x="475" y="-229.8" font-family="Times,serif" font-size="14.00" fill="#000000">ExtendedDataD3TimeseriesGraphComponent </text>
</g>
<!-- HelgolandDatasetlistModule&#45;&gt;ExtendedDataD3TimeseriesGraphComponent  -->
<g id="edge20" class="edge">
<title>HelgolandDatasetlistModule&#45;&gt;ExtendedDataD3TimeseriesGraphComponent </title>
<path fill="none" stroke="#000000" stroke-dasharray="5,2" d="M1276.4567,-173C1066.447,-173 555.6398,-173 555.6398,-173 555.6398,-173 555.6398,-205.698 555.6398,-205.698"/>
<polygon fill="#000000" stroke="#000000" points="552.1398,-205.698 555.6398,-215.698 559.1398,-205.698 552.1398,-205.698"/>
</g>
<!-- HelgolandCoreModule -->
<g id="node11" class="node">
<title>HelgolandCoreModule</title>
<polygon fill="#8dd3c7" stroke="#000000" points="642.5786,-122 639.5786,-126 618.5786,-126 615.5786,-122 497.4214,-122 497.4214,-86 642.5786,-86 642.5786,-122"/>
<text text-anchor="middle" x="570" y="-99.8" font-family="Times,serif" font-size="14.00" fill="#000000">HelgolandCoreModule</text>
</g>
<!-- HelgolandCoreModule&#45;&gt;HelgolandDatasetlistModule -->
<g id="edge10" class="edge">
<title>HelgolandCoreModule&#45;&gt;HelgolandDatasetlistModule</title>
<path fill="none" stroke="#000000" d="M637.2611,-122.0336C637.2611,-139.0597 637.2611,-162 637.2611,-162 637.2611,-162 1266.4925,-162 1266.4925,-162"/>
<polygon fill="#000000" stroke="#000000" points="1266.4925,-165.5001 1276.4925,-162 1266.4924,-158.5001 1266.4925,-165.5001"/>
</g>
<!-- HelgolandLabelMapperModule -->
<g id="node12" class="node">
<title>HelgolandLabelMapperModule</title>
<polygon fill="#8dd3c7" stroke="#000000" points="479.7738,-122 476.7738,-126 455.7738,-126 452.7738,-122 286.2262,-122 286.2262,-86 479.7738,-86 479.7738,-122"/>
<text text-anchor="middle" x="383" y="-99.8" font-family="Times,serif" font-size="14.00" fill="#000000">HelgolandLabelMapperModule</text>
</g>
<!-- HelgolandLabelMapperModule&#45;&gt;HelgolandDatasetlistModule -->
<g id="edge11" class="edge">
<title>HelgolandLabelMapperModule&#45;&gt;HelgolandDatasetlistModule</title>
<path fill="none" stroke="#000000" d="M407.909,-122.2667C407.909,-140.5552 407.909,-166 407.909,-166 407.909,-166 1266.2471,-166 1266.2471,-166"/>
<polygon fill="#000000" stroke="#000000" points="1266.2471,-169.5001 1276.2471,-166 1266.2471,-162.5001 1266.2471,-169.5001"/>
</g>
<!-- ReferenceValueColorCache -->
<g id="node22" class="node">
<title>ReferenceValueColorCache</title>
<ellipse fill="#fdb462" stroke="#000000" cx="143" cy="-104" rx="119.1997" ry="18"/>
<text text-anchor="middle" x="143" y="-99.8" font-family="Times,serif" font-size="14.00" fill="#000000">ReferenceValueColorCache</text>
</g>
<!-- ReferenceValueColorCache&#45;&gt;HelgolandDatasetlistModule -->
<g id="edge21" class="edge">
<title>ReferenceValueColorCache&#45;&gt;HelgolandDatasetlistModule</title>
<path fill="none" stroke="#000000" d="M143,-122.1061C143,-141.3391 143,-169 143,-169 143,-169 1266.1324,-169 1266.1324,-169"/>
<polygon fill="#000000" stroke="#000000" points="1266.1325,-172.5001 1276.1324,-169 1266.1324,-165.5001 1266.1325,-172.5001"/>
</g>
</g>
</svg>
