<?xml version="1.0" encoding="UTF-8" standalone="no"?>
<!DOCTYPE svg PUBLIC "-//W3C//DTD SVG 1.1//EN"
 "http://www.w3.org/Graphics/SVG/1.1/DTD/svg11.dtd">
<!-- Generated by graphviz version 2.40.1 (20161225.0304)
 -->
<!-- Title: dependencies Pages: 1 -->
<svg width="1230pt" height="284pt"
 viewBox="0.00 0.00 1230.00 284.00" xmlns="http://www.w3.org/2000/svg" xmlns:xlink="http://www.w3.org/1999/xlink">
<g id="graph0" class="graph" transform="scale(1 1) rotate(0) translate(4 280)">
<title>dependencies</title>
<polygon fill="#ffffff" stroke="transparent" points="-4,4 -4,-280 1226,-280 1226,4 -4,4"/>
<text text-anchor="start" x="590.0091" y="-42.4" font-family="sans-serif" font-weight="bold" font-size="14.00" fill="#000000">Legend</text>
<polygon fill="#ffffb3" stroke="transparent" points="377,-10 377,-30 397,-30 397,-10 377,-10"/>
<text text-anchor="start" x="400.629" y="-15.4" font-family="sans-serif" font-size="14.00" fill="#000000"> &#160;Declarations</text>
<polygon fill="#8dd3c7" stroke="transparent" points="490,-10 490,-30 510,-30 510,-10 490,-10"/>
<text text-anchor="start" x="513.7251" y="-15.4" font-family="sans-serif" font-size="14.00" fill="#000000"> &#160;Module</text>
<polygon fill="#80b1d3" stroke="transparent" points="576,-10 576,-30 596,-30 596,-10 576,-10"/>
<text text-anchor="start" x="599.7812" y="-15.4" font-family="sans-serif" font-size="14.00" fill="#000000"> &#160;Bootstrap</text>
<polygon fill="#fdb462" stroke="transparent" points="673,-10 673,-30 693,-30 693,-10 673,-10"/>
<text text-anchor="start" x="696.6732" y="-15.4" font-family="sans-serif" font-size="14.00" fill="#000000"> &#160;Providers</text>
<polygon fill="#fb8072" stroke="transparent" points="769,-10 769,-30 789,-30 789,-10 769,-10"/>
<text text-anchor="start" x="792.7258" y="-15.4" font-family="sans-serif" font-size="14.00" fill="#000000"> &#160;Exports</text>
<g id="clust1" class="cluster">
<title>cluster_HelgolandDatasetlistModule</title>
<polygon fill="none" stroke="#000000" stroke-dasharray="1,5" points="8,-70 8,-268 1214,-268 1214,-70 8,-70"/>
</g>
<g id="clust2" class="cluster">
<title>cluster_HelgolandDatasetlistModule_declarations</title>
<polygon fill="none" stroke="#000000" points="659,-78 659,-130 1206,-130 1206,-78 659,-78"/>
</g>
<g id="clust6" class="cluster">
<title>cluster_HelgolandDatasetlistModule_imports</title>
<polygon fill="none" stroke="#000000" points="278,-78 278,-130 651,-130 651,-78 278,-78"/>
</g>
<g id="clust7" class="cluster">
<title>cluster_HelgolandDatasetlistModule_exports</title>
<polygon fill="none" stroke="#000000" points="384,-208 384,-260 942,-260 942,-208 384,-208"/>
</g>
<g id="clust9" class="cluster">
<title>cluster_HelgolandDatasetlistModule_providers</title>
<polygon fill="none" stroke="#000000" points="16,-78 16,-130 270,-130 270,-78 16,-78"/>
</g>
<!-- TimeseriesEntryComponent -->
<g id="node1" class="node">
<title>TimeseriesEntryComponent</title>
<polygon fill="#ffffb3" stroke="#000000" points="1197.8543,-122 1024.1457,-122 1024.1457,-86 1197.8543,-86 1197.8543,-122"/>
<text text-anchor="middle" x="1111" y="-99.8" font-family="Times,serif" font-size="14.00" fill="#000000">TimeseriesEntryComponent</text>
</g>
<!-- HelgolandDatasetlistModule -->
<g id="node4" class="node">
<title>HelgolandDatasetlistModule</title>
<polygon fill="#8dd3c7" stroke="#000000" points="749.4594,-187 746.4594,-191 725.4594,-191 722.4594,-187 572.5406,-187 572.5406,-151 749.4594,-151 749.4594,-187"/>
<text text-anchor="middle" x="661" y="-164.8" font-family="Times,serif" font-size="14.00" fill="#000000">HelgolandDatasetlistModule</text>
</g>
<!-- TimeseriesEntryComponent&#45;&gt;HelgolandDatasetlistModule -->
<g id="edge1" class="edge">
<title>TimeseriesEntryComponent&#45;&gt;HelgolandDatasetlistModule</title>
<path fill="none" stroke="#000000" d="M1111,-122.2843C1111,-143.3211 1111,-175 1111,-175 1111,-175 759.6369,-175 759.6369,-175"/>
<polygon fill="#000000" stroke="#000000" points="759.637,-171.5001 749.6369,-175 759.6369,-178.5001 759.637,-171.5001"/>
</g>
<!-- ProfileEntryComponent -->
<g id="node2" class="node">
<title>ProfileEntryComponent</title>
<polygon fill="#ffffb3" stroke="#000000" points="1006.0365,-122 855.9635,-122 855.9635,-86 1006.0365,-86 1006.0365,-122"/>
<text text-anchor="middle" x="931" y="-99.8" font-family="Times,serif" font-size="14.00" fill="#000000">ProfileEntryComponent</text>
</g>
<!-- ProfileEntryComponent&#45;&gt;HelgolandDatasetlistModule -->
<g id="edge2" class="edge">
<title>ProfileEntryComponent&#45;&gt;HelgolandDatasetlistModule</title>
<path fill="none" stroke="#000000" d="M894.7046,-122.0225C894.7046,-139.3734 894.7046,-163 894.7046,-163 894.7046,-163 759.6869,-163 759.6869,-163"/>
<polygon fill="#000000" stroke="#000000" points="759.687,-159.5001 749.6869,-163 759.6869,-166.5001 759.687,-159.5001"/>
</g>
<!-- TrajectoryEntryComponent -->
<g id="node3" class="node">
<title>TrajectoryEntryComponent</title>
<polygon fill="#ffffb3" stroke="#000000" points="837.2352,-122 666.7648,-122 666.7648,-86 837.2352,-86 837.2352,-122"/>
<text text-anchor="middle" x="752" y="-99.8" font-family="Times,serif" font-size="14.00" fill="#000000">TrajectoryEntryComponent</text>
</g>
<!-- TrajectoryEntryComponent&#45;&gt;HelgolandDatasetlistModule -->
<g id="edge3" class="edge">
<title>TrajectoryEntryComponent&#45;&gt;HelgolandDatasetlistModule</title>
<path fill="none" stroke="#000000" d="M708.0561,-122.1061C708.0561,-122.1061 708.0561,-140.991 708.0561,-140.991"/>
<polygon fill="#000000" stroke="#000000" points="704.5562,-140.9909 708.0561,-150.991 711.5562,-140.991 704.5562,-140.9909"/>
</g>
<!-- TimeseriesEntryComponent  -->
<g id="node7" class="node">
<title>TimeseriesEntryComponent </title>
<polygon fill="#fb8072" stroke="#000000" points="933.8546,-252 756.1454,-252 756.1454,-216 933.8546,-216 933.8546,-252"/>
<text text-anchor="middle" x="845" y="-229.8" font-family="Times,serif" font-size="14.00" fill="#000000">TimeseriesEntryComponent </text>
</g>
<!-- HelgolandDatasetlistModule&#45;&gt;TimeseriesEntryComponent  -->
<g id="edge6" class="edge">
<title>HelgolandDatasetlistModule&#45;&gt;TimeseriesEntryComponent </title>
<path fill="none" stroke="#000000" stroke-dasharray="5,2" d="M743.7488,-187.1061C743.7488,-206.3391 743.7488,-234 743.7488,-234 743.7488,-234 746.1642,-234 746.1642,-234"/>
<polygon fill="#000000" stroke="#000000" points="746.1642,-237.5001 756.1642,-234 746.1641,-230.5001 746.1642,-237.5001"/>
</g>
<!-- ProfileEntryComponent  -->
<g id="node8" class="node">
<title>ProfileEntryComponent </title>
<polygon fill="#fb8072" stroke="#000000" points="738.0358,-252 583.9642,-252 583.9642,-216 738.0358,-216 738.0358,-252"/>
<text text-anchor="middle" x="661" y="-229.8" font-family="Times,serif" font-size="14.00" fill="#000000">ProfileEntryComponent </text>
</g>
<!-- HelgolandDatasetlistModule&#45;&gt;ProfileEntryComponent  -->
<g id="edge7" class="edge">
<title>HelgolandDatasetlistModule&#45;&gt;ProfileEntryComponent </title>
<path fill="none" stroke="#000000" stroke-dasharray="5,2" d="M661,-187.1061C661,-187.1061 661,-205.991 661,-205.991"/>
<polygon fill="#000000" stroke="#000000" points="657.5001,-205.9909 661,-215.991 664.5001,-205.991 657.5001,-205.9909"/>
</g>
<!-- TrajectoryEntryComponent  -->
<g id="node9" class="node">
<title>TrajectoryEntryComponent </title>
<polygon fill="#fb8072" stroke="#000000" points="566.2352,-252 391.7648,-252 391.7648,-216 566.2352,-216 566.2352,-252"/>
<text text-anchor="middle" x="479" y="-229.8" font-family="Times,serif" font-size="14.00" fill="#000000">TrajectoryEntryComponent </text>
</g>
<!-- HelgolandDatasetlistModule&#45;&gt;TrajectoryEntryComponent  -->
<g id="edge8" class="edge">
<title>HelgolandDatasetlistModule&#45;&gt;TrajectoryEntryComponent </title>
<path fill="none" stroke="#000000" stroke-dasharray="5,2" d="M578.2512,-187.1061C578.2512,-206.3391 578.2512,-234 578.2512,-234 578.2512,-234 576.476,-234 576.476,-234"/>
<polygon fill="#000000" stroke="#000000" points="576.4761,-230.5001 566.476,-234 576.476,-237.5001 576.4761,-230.5001"/>
</g>
<!-- HelgolandCoreModule -->
<g id="node5" class="node">
<title>HelgolandCoreModule</title>
<polygon fill="#8dd3c7" stroke="#000000" points="642.5786,-122 639.5786,-126 618.5786,-126 615.5786,-122 497.4214,-122 497.4214,-86 642.5786,-86 642.5786,-122"/>
<text text-anchor="middle" x="570" y="-99.8" font-family="Times,serif" font-size="14.00" fill="#000000">HelgolandCoreModule</text>
</g>
<!-- HelgolandCoreModule&#45;&gt;HelgolandDatasetlistModule -->
<g id="edge4" class="edge">
<title>HelgolandCoreModule&#45;&gt;HelgolandDatasetlistModule</title>
<path fill="none" stroke="#000000" d="M607.5298,-122.1061C607.5298,-122.1061 607.5298,-140.991 607.5298,-140.991"/>
<polygon fill="#000000" stroke="#000000" points="604.0299,-140.9909 607.5298,-150.991 611.0299,-140.991 604.0299,-140.9909"/>
</g>
<!-- HelgolandLabelMapperModule -->
<g id="node6" class="node">
<title>HelgolandLabelMapperModule</title>
<polygon fill="#8dd3c7" stroke="#000000" points="479.7738,-122 476.7738,-126 455.7738,-126 452.7738,-122 286.2262,-122 286.2262,-86 479.7738,-86 479.7738,-122"/>
<text text-anchor="middle" x="383" y="-99.8" font-family="Times,serif" font-size="14.00" fill="#000000">HelgolandLabelMapperModule</text>
</g>
<!-- HelgolandLabelMapperModule&#45;&gt;HelgolandDatasetlistModule -->
<g id="edge5" class="edge">
<title>HelgolandLabelMapperModule&#45;&gt;HelgolandDatasetlistModule</title>
<path fill="none" stroke="#000000" d="M435.7597,-122.0225C435.7597,-139.3734 435.7597,-163 435.7597,-163 435.7597,-163 562.3024,-163 562.3024,-163"/>
<polygon fill="#000000" stroke="#000000" points="562.3024,-166.5001 572.3024,-163 562.3023,-159.5001 562.3024,-166.5001"/>
</g>
<!-- ReferenceValueColorCache -->
<g id="node10" class="node">
<title>ReferenceValueColorCache</title>
<ellipse fill="#fdb462" stroke="#000000" cx="143" cy="-104" rx="119.1997" ry="18"/>
<text text-anchor="middle" x="143" y="-99.8" font-family="Times,serif" font-size="14.00" fill="#000000">ReferenceValueColorCache</text>
</g>
<!-- ReferenceValueColorCache&#45;&gt;HelgolandDatasetlistModule -->
<g id="edge9" class="edge">
<title>ReferenceValueColorCache&#45;&gt;HelgolandDatasetlistModule</title>
<path fill="none" stroke="#000000" d="M143,-122.2843C143,-143.3211 143,-175 143,-175 143,-175 562.2471,-175 562.2471,-175"/>
<polygon fill="#000000" stroke="#000000" points="562.2471,-178.5001 572.2471,-175 562.2471,-171.5001 562.2471,-178.5001"/>
</g>
</g>
</svg>
