<?xml version="1.0" encoding="UTF-8" standalone="no"?>
<!DOCTYPE svg PUBLIC "-//W3C//DTD SVG 1.1//EN"
 "http://www.w3.org/Graphics/SVG/1.1/DTD/svg11.dtd">
<!-- Generated by graphviz version 2.40.1 (20161225.0304)
 -->
<!-- Title: dependencies Pages: 1 -->
<svg width="1179pt" height="284pt"
 viewBox="0.00 0.00 1179.00 284.00" xmlns="http://www.w3.org/2000/svg" xmlns:xlink="http://www.w3.org/1999/xlink">
<g id="graph0" class="graph" transform="scale(1 1) rotate(0) translate(4 280)">
<title>dependencies</title>
<polygon fill="#ffffff" stroke="transparent" points="-4,4 -4,-280 1175,-280 1175,4 -4,4"/>
<text text-anchor="start" x="564.5091" y="-42.4" font-family="sans-serif" font-weight="bold" font-size="14.00" fill="#000000">Legend</text>
<polygon fill="#ffffb3" stroke="transparent" points="351.5,-10 351.5,-30 371.5,-30 371.5,-10 351.5,-10"/>
<text text-anchor="start" x="375.129" y="-15.4" font-family="sans-serif" font-size="14.00" fill="#000000"> &#160;Declarations</text>
<polygon fill="#8dd3c7" stroke="transparent" points="464.5,-10 464.5,-30 484.5,-30 484.5,-10 464.5,-10"/>
<text text-anchor="start" x="488.2251" y="-15.4" font-family="sans-serif" font-size="14.00" fill="#000000"> &#160;Module</text>
<polygon fill="#80b1d3" stroke="transparent" points="550.5,-10 550.5,-30 570.5,-30 570.5,-10 550.5,-10"/>
<text text-anchor="start" x="574.2812" y="-15.4" font-family="sans-serif" font-size="14.00" fill="#000000"> &#160;Bootstrap</text>
<polygon fill="#fdb462" stroke="transparent" points="647.5,-10 647.5,-30 667.5,-30 667.5,-10 647.5,-10"/>
<text text-anchor="start" x="671.1732" y="-15.4" font-family="sans-serif" font-size="14.00" fill="#000000"> &#160;Providers</text>
<polygon fill="#fb8072" stroke="transparent" points="743.5,-10 743.5,-30 763.5,-30 763.5,-10 743.5,-10"/>
<text text-anchor="start" x="767.2258" y="-15.4" font-family="sans-serif" font-size="14.00" fill="#000000"> &#160;Exports</text>
<g id="clust1" class="cluster">
<title>cluster_HelgolandDatasetlistModule</title>
<polygon fill="none" stroke="#000000" stroke-dasharray="1,5" points="8,-70 8,-268 1163,-268 1163,-70 8,-70"/>
</g>
<g id="clust2" class="cluster">
<title>cluster_HelgolandDatasetlistModule_declarations</title>
<polygon fill="none" stroke="#000000" points="797,-78 797,-130 1155,-130 1155,-78 797,-78"/>
</g>
<g id="clust5" class="cluster">
<title>cluster_HelgolandDatasetlistModule_imports</title>
<polygon fill="none" stroke="#000000" points="16,-78 16,-130 789,-130 789,-78 16,-78"/>
</g>
<g id="clust6" class="cluster">
<title>cluster_HelgolandDatasetlistModule_exports</title>
<polygon fill="none" stroke="#000000" points="409,-208 409,-260 775,-260 775,-208 409,-208"/>
</g>
<!-- TimeseriesEntryComponent -->
<g id="node1" class="node">
<title>TimeseriesEntryComponent</title>
<polygon fill="#ffffb3" stroke="#000000" points="1146.8543,-122 973.1457,-122 973.1457,-86 1146.8543,-86 1146.8543,-122"/>
<text text-anchor="middle" x="1060" y="-99.8" font-family="Times,serif" font-size="14.00" fill="#000000">TimeseriesEntryComponent</text>
</g>
<!-- HelgolandDatasetlistModule -->
<g id="node3" class="node">
<title>HelgolandDatasetlistModule</title>
<polygon fill="#8dd3c7" stroke="#000000" points="674.4594,-187 671.4594,-191 650.4594,-191 647.4594,-187 497.5406,-187 497.5406,-151 674.4594,-151 674.4594,-187"/>
<text text-anchor="middle" x="586" y="-164.8" font-family="Times,serif" font-size="14.00" fill="#000000">HelgolandDatasetlistModule</text>
</g>
<!-- TimeseriesEntryComponent&#45;&gt;HelgolandDatasetlistModule -->
<g id="edge1" class="edge">
<title>TimeseriesEntryComponent&#45;&gt;HelgolandDatasetlistModule</title>
<path fill="none" stroke="#000000" d="M1060,-122.2843C1060,-143.3211 1060,-175 1060,-175 1060,-175 684.5997,-175 684.5997,-175"/>
<polygon fill="#000000" stroke="#000000" points="684.5998,-171.5001 674.5997,-175 684.5997,-178.5001 684.5998,-171.5001"/>
</g>
<!-- ProfileEntryComponent -->
<g id="node2" class="node">
<title>ProfileEntryComponent</title>
<polygon fill="#ffffb3" stroke="#000000" points="955.0365,-122 804.9635,-122 804.9635,-86 955.0365,-86 955.0365,-122"/>
<text text-anchor="middle" x="880" y="-99.8" font-family="Times,serif" font-size="14.00" fill="#000000">ProfileEntryComponent</text>
</g>
<!-- ProfileEntryComponent&#45;&gt;HelgolandDatasetlistModule -->
<g id="edge2" class="edge">
<title>ProfileEntryComponent&#45;&gt;HelgolandDatasetlistModule</title>
<path fill="none" stroke="#000000" d="M880,-122.0225C880,-139.3734 880,-163 880,-163 880,-163 684.6084,-163 684.6084,-163"/>
<polygon fill="#000000" stroke="#000000" points="684.6084,-159.5001 674.6084,-163 684.6084,-166.5001 684.6084,-159.5001"/>
</g>
<!-- TimeseriesEntryComponent  -->
<g id="node8" class="node">
<title>TimeseriesEntryComponent </title>
<polygon fill="#fb8072" stroke="#000000" points="766.8546,-252 589.1454,-252 589.1454,-216 766.8546,-216 766.8546,-252"/>
<text text-anchor="middle" x="678" y="-229.8" font-family="Times,serif" font-size="14.00" fill="#000000">TimeseriesEntryComponent </text>
</g>
<!-- HelgolandDatasetlistModule&#45;&gt;TimeseriesEntryComponent  -->
<g id="edge7" class="edge">
<title>HelgolandDatasetlistModule&#45;&gt;TimeseriesEntryComponent </title>
<path fill="none" stroke="#000000" stroke-dasharray="5,2" d="M631.9013,-187.1061C631.9013,-187.1061 631.9013,-205.991 631.9013,-205.991"/>
<polygon fill="#000000" stroke="#000000" points="628.4014,-205.9909 631.9013,-215.991 635.4014,-205.991 628.4014,-205.9909"/>
</g>
<!-- ProfileEntryComponent  -->
<g id="node9" class="node">
<title>ProfileEntryComponent </title>
<polygon fill="#fb8072" stroke="#000000" points="571.0358,-252 416.9642,-252 416.9642,-216 571.0358,-216 571.0358,-252"/>
<text text-anchor="middle" x="494" y="-229.8" font-family="Times,serif" font-size="14.00" fill="#000000">ProfileEntryComponent </text>
</g>
<!-- HelgolandDatasetlistModule&#45;&gt;ProfileEntryComponent  -->
<g id="edge8" class="edge">
<title>HelgolandDatasetlistModule&#45;&gt;ProfileEntryComponent </title>
<path fill="none" stroke="#000000" stroke-dasharray="5,2" d="M534.2691,-187.1061C534.2691,-187.1061 534.2691,-205.991 534.2691,-205.991"/>
<polygon fill="#000000" stroke="#000000" points="530.7692,-205.9909 534.2691,-215.991 537.7692,-205.991 530.7692,-205.9909"/>
</g>
<!-- HelgolandModificationModule -->
<g id="node4" class="node">
<title>HelgolandModificationModule</title>
<polygon fill="#8dd3c7" stroke="#000000" points="781.4636,-122 778.4636,-126 757.4636,-126 754.4636,-122 590.5364,-122 590.5364,-86 781.4636,-86 781.4636,-122"/>
<text text-anchor="middle" x="686" y="-99.8" font-family="Times,serif" font-size="14.00" fill="#000000">HelgolandModificationModule</text>
</g>
<!-- HelgolandModificationModule&#45;&gt;HelgolandDatasetlistModule -->
<g id="edge3" class="edge">
<title>HelgolandModificationModule&#45;&gt;HelgolandDatasetlistModule</title>
<path fill="none" stroke="#000000" d="M632.4989,-122.1061C632.4989,-122.1061 632.4989,-140.991 632.4989,-140.991"/>
<polygon fill="#000000" stroke="#000000" points="628.999,-140.9909 632.4989,-150.991 635.999,-140.991 628.999,-140.9909"/>
</g>
<!-- HelgolandDepictionModule -->
<g id="node5" class="node">
<title>HelgolandDepictionModule</title>
<polygon fill="#8dd3c7" stroke="#000000" points="572.5744,-122 569.5744,-126 548.5744,-126 545.5744,-122 399.4256,-122 399.4256,-86 572.5744,-86 572.5744,-122"/>
<text text-anchor="middle" x="486" y="-99.8" font-family="Times,serif" font-size="14.00" fill="#000000">HelgolandDepictionModule</text>
</g>
<!-- HelgolandDepictionModule&#45;&gt;HelgolandDatasetlistModule -->
<g id="edge4" class="edge">
<title>HelgolandDepictionModule&#45;&gt;HelgolandDatasetlistModule</title>
<path fill="none" stroke="#000000" d="M535.0287,-122.1061C535.0287,-122.1061 535.0287,-140.991 535.0287,-140.991"/>
<polygon fill="#000000" stroke="#000000" points="531.5288,-140.9909 535.0287,-150.991 538.5288,-140.991 531.5288,-140.9909"/>
</g>
<!-- HelgolandMapViewModule -->
<g id="node6" class="node">
<title>HelgolandMapViewModule</title>
<polygon fill="#8dd3c7" stroke="#000000" points="381.8445,-122 378.8445,-126 357.8445,-126 354.8445,-122 208.1555,-122 208.1555,-86 381.8445,-86 381.8445,-122"/>
<text text-anchor="middle" x="295" y="-99.8" font-family="Times,serif" font-size="14.00" fill="#000000">HelgolandMapViewModule</text>
</g>
<!-- HelgolandMapViewModule&#45;&gt;HelgolandDatasetlistModule -->
<g id="edge5" class="edge">
<title>HelgolandMapViewModule&#45;&gt;HelgolandDatasetlistModule</title>
<path fill="none" stroke="#000000" d="M295,-122.0225C295,-139.3734 295,-163 295,-163 295,-163 487.5052,-163 487.5052,-163"/>
<polygon fill="#000000" stroke="#000000" points="487.5052,-166.5001 497.5052,-163 487.5051,-159.5001 487.5052,-166.5001"/>
</g>
<!-- HelgolandServicesModule -->
<g id="node7" class="node">
<title>HelgolandServicesModule</title>
<polygon fill="#8dd3c7" stroke="#000000" points="189.7893,-122 186.7893,-126 165.7893,-126 162.7893,-122 24.2107,-122 24.2107,-86 189.7893,-86 189.7893,-122"/>
<text text-anchor="middle" x="107" y="-99.8" font-family="Times,serif" font-size="14.00" fill="#000000">HelgolandServicesModule</text>
</g>
<!-- HelgolandServicesModule&#45;&gt;HelgolandDatasetlistModule -->
<g id="edge6" class="edge">
<title>HelgolandServicesModule&#45;&gt;HelgolandDatasetlistModule</title>
<path fill="none" stroke="#000000" d="M107,-122.2843C107,-143.3211 107,-175 107,-175 107,-175 487.3062,-175 487.3062,-175"/>
<polygon fill="#000000" stroke="#000000" points="487.3063,-178.5001 497.3062,-175 487.3062,-171.5001 487.3063,-178.5001"/>
</g>
</g>
</svg>
