<?xml version="1.0" encoding="UTF-8" standalone="no"?>
<!DOCTYPE svg PUBLIC "-//W3C//DTD SVG 1.1//EN"
 "http://www.w3.org/Graphics/SVG/1.1/DTD/svg11.dtd">
<!-- Generated by graphviz version 2.40.1 (20161225.0304)
 -->
<!-- Title: dependencies Pages: 1 -->
<svg width="1550pt" height="284pt"
 viewBox="0.00 0.00 1550.00 284.00" xmlns="http://www.w3.org/2000/svg" xmlns:xlink="http://www.w3.org/1999/xlink">
<g id="graph0" class="graph" transform="scale(1 1) rotate(0) translate(4 280)">
<title>dependencies</title>
<polygon fill="#ffffff" stroke="transparent" points="-4,4 -4,-280 1546,-280 1546,4 -4,4"/>
<text text-anchor="start" x="750.0091" y="-42.4" font-family="sans-serif" font-weight="bold" font-size="14.00" fill="#000000">Legend</text>
<polygon fill="#ffffb3" stroke="transparent" points="537,-10 537,-30 557,-30 557,-10 537,-10"/>
<text text-anchor="start" x="560.629" y="-15.4" font-family="sans-serif" font-size="14.00" fill="#000000"> &#160;Declarations</text>
<polygon fill="#8dd3c7" stroke="transparent" points="650,-10 650,-30 670,-30 670,-10 650,-10"/>
<text text-anchor="start" x="673.7251" y="-15.4" font-family="sans-serif" font-size="14.00" fill="#000000"> &#160;Module</text>
<polygon fill="#80b1d3" stroke="transparent" points="736,-10 736,-30 756,-30 756,-10 736,-10"/>
<text text-anchor="start" x="759.7812" y="-15.4" font-family="sans-serif" font-size="14.00" fill="#000000"> &#160;Bootstrap</text>
<polygon fill="#fdb462" stroke="transparent" points="833,-10 833,-30 853,-30 853,-10 833,-10"/>
<text text-anchor="start" x="856.6732" y="-15.4" font-family="sans-serif" font-size="14.00" fill="#000000"> &#160;Providers</text>
<polygon fill="#fb8072" stroke="transparent" points="929,-10 929,-30 949,-30 949,-10 929,-10"/>
<text text-anchor="start" x="952.7258" y="-15.4" font-family="sans-serif" font-size="14.00" fill="#000000"> &#160;Exports</text>
<g id="clust1" class="cluster">
<title>cluster_HelgolandDatasetlistModule</title>
<polygon fill="none" stroke="#000000" stroke-dasharray="1,5" points="8,-70 8,-268 1534,-268 1534,-70 8,-70"/>
</g>
<g id="clust2" class="cluster">
<title>cluster_HelgolandDatasetlistModule_declarations</title>
<polygon fill="none" stroke="#000000" points="979,-78 979,-130 1526,-130 1526,-78 979,-78"/>
</g>
<g id="clust6" class="cluster">
<title>cluster_HelgolandDatasetlistModule_imports</title>
<polygon fill="none" stroke="#000000" points="16,-78 16,-130 971,-130 971,-78 16,-78"/>
</g>
<g id="clust7" class="cluster">
<title>cluster_HelgolandDatasetlistModule_exports</title>
<polygon fill="none" stroke="#000000" points="491,-208 491,-260 1049,-260 1049,-208 491,-208"/>
</g>
<!-- TimeseriesEntryComponent -->
<g id="node1" class="node">
<title>TimeseriesEntryComponent</title>
<polygon fill="#ffffb3" stroke="#000000" points="1517.8543,-122 1344.1457,-122 1344.1457,-86 1517.8543,-86 1517.8543,-122"/>
<text text-anchor="middle" x="1431" y="-99.8" font-family="Times,serif" font-size="14.00" fill="#000000">TimeseriesEntryComponent</text>
</g>
<!-- HelgolandDatasetlistModule -->
<g id="node4" class="node">
<title>HelgolandDatasetlistModule</title>
<polygon fill="#8dd3c7" stroke="#000000" points="856.4594,-187 853.4594,-191 832.4594,-191 829.4594,-187 679.5406,-187 679.5406,-151 856.4594,-151 856.4594,-187"/>
<text text-anchor="middle" x="768" y="-164.8" font-family="Times,serif" font-size="14.00" fill="#000000">HelgolandDatasetlistModule</text>
</g>
<!-- TimeseriesEntryComponent&#45;&gt;HelgolandDatasetlistModule -->
<g id="edge1" class="edge">
<title>TimeseriesEntryComponent&#45;&gt;HelgolandDatasetlistModule</title>
<path fill="none" stroke="#000000" d="M1431,-122.2921C1431,-144.2057 1431,-178 1431,-178 1431,-178 866.7272,-178 866.7272,-178"/>
<polygon fill="#000000" stroke="#000000" points="866.7272,-174.5001 856.7272,-178 866.7271,-181.5001 866.7272,-174.5001"/>
</g>
<!-- ProfileEntryComponent -->
<g id="node2" class="node">
<title>ProfileEntryComponent</title>
<polygon fill="#ffffb3" stroke="#000000" points="1326.0365,-122 1175.9635,-122 1175.9635,-86 1326.0365,-86 1326.0365,-122"/>
<text text-anchor="middle" x="1251" y="-99.8" font-family="Times,serif" font-size="14.00" fill="#000000">ProfileEntryComponent</text>
</g>
<!-- ProfileEntryComponent&#45;&gt;HelgolandDatasetlistModule -->
<g id="edge2" class="edge">
<title>ProfileEntryComponent&#45;&gt;HelgolandDatasetlistModule</title>
<path fill="none" stroke="#000000" d="M1251,-122.1061C1251,-141.3391 1251,-169 1251,-169 1251,-169 866.5896,-169 866.5896,-169"/>
<polygon fill="#000000" stroke="#000000" points="866.5897,-165.5001 856.5896,-169 866.5896,-172.5001 866.5897,-165.5001"/>
</g>
<!-- TrajectoryEntryComponent -->
<g id="node3" class="node">
<title>TrajectoryEntryComponent</title>
<polygon fill="#ffffb3" stroke="#000000" points="1157.2352,-122 986.7648,-122 986.7648,-86 1157.2352,-86 1157.2352,-122"/>
<text text-anchor="middle" x="1072" y="-99.8" font-family="Times,serif" font-size="14.00" fill="#000000">TrajectoryEntryComponent</text>
</g>
<!-- TrajectoryEntryComponent&#45;&gt;HelgolandDatasetlistModule -->
<g id="edge3" class="edge">
<title>TrajectoryEntryComponent&#45;&gt;HelgolandDatasetlistModule</title>
<path fill="none" stroke="#000000" d="M1013.6548,-122.027C1013.6548,-138.3976 1013.6548,-160 1013.6548,-160 1013.6548,-160 866.687,-160 866.687,-160"/>
<polygon fill="#000000" stroke="#000000" points="866.6871,-156.5001 856.687,-160 866.687,-163.5001 866.6871,-156.5001"/>
</g>
<!-- TimeseriesEntryComponent  -->
<g id="node10" class="node">
<title>TimeseriesEntryComponent </title>
<polygon fill="#fb8072" stroke="#000000" points="1040.8546,-252 863.1454,-252 863.1454,-216 1040.8546,-216 1040.8546,-252"/>
<text text-anchor="middle" x="952" y="-229.8" font-family="Times,serif" font-size="14.00" fill="#000000">TimeseriesEntryComponent </text>
</g>
<!-- HelgolandDatasetlistModule&#45;&gt;TimeseriesEntryComponent  -->
<g id="edge9" class="edge">
<title>HelgolandDatasetlistModule&#45;&gt;TimeseriesEntryComponent </title>
<path fill="none" stroke="#000000" stroke-dasharray="5,2" d="M850.7488,-187.1061C850.7488,-206.3391 850.7488,-234 850.7488,-234 850.7488,-234 853.1642,-234 853.1642,-234"/>
<polygon fill="#000000" stroke="#000000" points="853.1642,-237.5001 863.1642,-234 853.1641,-230.5001 853.1642,-237.5001"/>
</g>
<!-- ProfileEntryComponent  -->
<g id="node11" class="node">
<title>ProfileEntryComponent </title>
<polygon fill="#fb8072" stroke="#000000" points="845.0358,-252 690.9642,-252 690.9642,-216 845.0358,-216 845.0358,-252"/>
<text text-anchor="middle" x="768" y="-229.8" font-family="Times,serif" font-size="14.00" fill="#000000">ProfileEntryComponent </text>
</g>
<!-- HelgolandDatasetlistModule&#45;&gt;ProfileEntryComponent  -->
<g id="edge10" class="edge">
<title>HelgolandDatasetlistModule&#45;&gt;ProfileEntryComponent </title>
<path fill="none" stroke="#000000" stroke-dasharray="5,2" d="M768,-187.1061C768,-187.1061 768,-205.991 768,-205.991"/>
<polygon fill="#000000" stroke="#000000" points="764.5001,-205.9909 768,-215.991 771.5001,-205.991 764.5001,-205.9909"/>
</g>
<!-- TrajectoryEntryComponent  -->
<g id="node12" class="node">
<title>TrajectoryEntryComponent </title>
<polygon fill="#fb8072" stroke="#000000" points="673.2352,-252 498.7648,-252 498.7648,-216 673.2352,-216 673.2352,-252"/>
<text text-anchor="middle" x="586" y="-229.8" font-family="Times,serif" font-size="14.00" fill="#000000">TrajectoryEntryComponent </text>
</g>
<!-- HelgolandDatasetlistModule&#45;&gt;TrajectoryEntryComponent  -->
<g id="edge11" class="edge">
<title>HelgolandDatasetlistModule&#45;&gt;TrajectoryEntryComponent </title>
<path fill="none" stroke="#000000" stroke-dasharray="5,2" d="M685.2512,-187.1061C685.2512,-206.3391 685.2512,-234 685.2512,-234 685.2512,-234 683.476,-234 683.476,-234"/>
<polygon fill="#000000" stroke="#000000" points="683.4761,-230.5001 673.476,-234 683.476,-237.5001 683.4761,-230.5001"/>
</g>
<!-- HelgolandModificationModule -->
<g id="node5" class="node">
<title>HelgolandModificationModule</title>
<polygon fill="#8dd3c7" stroke="#000000" points="963.4636,-122 960.4636,-126 939.4636,-126 936.4636,-122 772.5364,-122 772.5364,-86 963.4636,-86 963.4636,-122"/>
<text text-anchor="middle" x="868" y="-99.8" font-family="Times,serif" font-size="14.00" fill="#000000">HelgolandModificationModule</text>
</g>
<!-- HelgolandModificationModule&#45;&gt;HelgolandDatasetlistModule -->
<g id="edge4" class="edge">
<title>HelgolandModificationModule&#45;&gt;HelgolandDatasetlistModule</title>
<path fill="none" stroke="#000000" d="M814.4989,-122.1061C814.4989,-122.1061 814.4989,-140.991 814.4989,-140.991"/>
<polygon fill="#000000" stroke="#000000" points="810.999,-140.9909 814.4989,-150.991 817.999,-140.991 810.999,-140.9909"/>
</g>
<!-- HelgolandDepictionModule -->
<g id="node6" class="node">
<title>HelgolandDepictionModule</title>
<polygon fill="#8dd3c7" stroke="#000000" points="754.5744,-122 751.5744,-126 730.5744,-126 727.5744,-122 581.4256,-122 581.4256,-86 754.5744,-86 754.5744,-122"/>
<text text-anchor="middle" x="668" y="-99.8" font-family="Times,serif" font-size="14.00" fill="#000000">HelgolandDepictionModule</text>
</g>
<!-- HelgolandDepictionModule&#45;&gt;HelgolandDatasetlistModule -->
<g id="edge5" class="edge">
<title>HelgolandDepictionModule&#45;&gt;HelgolandDatasetlistModule</title>
<path fill="none" stroke="#000000" d="M717.0287,-122.1061C717.0287,-122.1061 717.0287,-140.991 717.0287,-140.991"/>
<polygon fill="#000000" stroke="#000000" points="713.5288,-140.9909 717.0287,-150.991 720.5288,-140.991 713.5288,-140.9909"/>
</g>
<!-- HelgolandMapViewModule -->
<g id="node7" class="node">
<title>HelgolandMapViewModule</title>
<polygon fill="#8dd3c7" stroke="#000000" points="563.8445,-122 560.8445,-126 539.8445,-126 536.8445,-122 390.1555,-122 390.1555,-86 563.8445,-86 563.8445,-122"/>
<text text-anchor="middle" x="477" y="-99.8" font-family="Times,serif" font-size="14.00" fill="#000000">HelgolandMapViewModule</text>
</g>
<!-- HelgolandMapViewModule&#45;&gt;HelgolandDatasetlistModule -->
<g id="edge6" class="edge">
<title>HelgolandMapViewModule&#45;&gt;HelgolandDatasetlistModule</title>
<path fill="none" stroke="#000000" d="M531.4024,-122.027C531.4024,-138.3976 531.4024,-160 531.4024,-160 531.4024,-160 669.2266,-160 669.2266,-160"/>
<polygon fill="#000000" stroke="#000000" points="669.2267,-163.5001 679.2266,-160 669.2266,-156.5001 669.2267,-163.5001"/>
</g>
<!-- HelgolandServicesModule -->
<g id="node8" class="node">
<title>HelgolandServicesModule</title>
<polygon fill="#8dd3c7" stroke="#000000" points="371.7893,-122 368.7893,-126 347.7893,-126 344.7893,-122 206.2107,-122 206.2107,-86 371.7893,-86 371.7893,-122"/>
<text text-anchor="middle" x="289" y="-99.8" font-family="Times,serif" font-size="14.00" fill="#000000">HelgolandServicesModule</text>
</g>
<!-- HelgolandServicesModule&#45;&gt;HelgolandDatasetlistModule -->
<g id="edge7" class="edge">
<title>HelgolandServicesModule&#45;&gt;HelgolandDatasetlistModule</title>
<path fill="none" stroke="#000000" d="M289,-122.1061C289,-141.3391 289,-169 289,-169 289,-169 669.3062,-169 669.3062,-169"/>
<polygon fill="#000000" stroke="#000000" points="669.3063,-172.5001 679.3062,-169 669.3062,-165.5001 669.3063,-172.5001"/>
</g>
<!-- HelgolandFavoriteModule -->
<g id="node9" class="node">
<title>HelgolandFavoriteModule</title>
<polygon fill="#8dd3c7" stroke="#000000" points="188.0211,-122 185.0211,-126 164.0211,-126 161.0211,-122 23.9789,-122 23.9789,-86 188.0211,-86 188.0211,-122"/>
<text text-anchor="middle" x="106" y="-99.8" font-family="Times,serif" font-size="14.00" fill="#000000">HelgolandFavoriteModule</text>
</g>
<!-- HelgolandFavoriteModule&#45;&gt;HelgolandDatasetlistModule -->
<g id="edge8" class="edge">
<title>HelgolandFavoriteModule&#45;&gt;HelgolandDatasetlistModule</title>
<path fill="none" stroke="#000000" d="M106,-122.2921C106,-144.2057 106,-178 106,-178 106,-178 669.4066,-178 669.4066,-178"/>
<polygon fill="#000000" stroke="#000000" points="669.4067,-181.5001 679.4066,-178 669.4066,-174.5001 669.4067,-181.5001"/>
</g>
</g>
</svg>
