<?xml version="1.0" encoding="UTF-8" standalone="no"?>
<!DOCTYPE svg PUBLIC "-//W3C//DTD SVG 1.1//EN"
 "http://www.w3.org/Graphics/SVG/1.1/DTD/svg11.dtd">
<!-- Generated by graphviz version 2.40.1 (20161225.0304)
 -->
<!-- Title: dependencies Pages: 1 -->
<svg width="913pt" height="284pt"
 viewBox="0.00 0.00 913.00 284.00" xmlns="http://www.w3.org/2000/svg" xmlns:xlink="http://www.w3.org/1999/xlink">
<g id="graph0" class="graph" transform="scale(1 1) rotate(0) translate(4 280)">
<title>dependencies</title>
<polygon fill="#ffffff" stroke="transparent" points="-4,4 -4,-280 909,-280 909,4 -4,4"/>
<text text-anchor="start" x="431.5091" y="-42.4" font-family="sans-serif" font-weight="bold" font-size="14.00" fill="#000000">Legend</text>
<polygon fill="#ffffb3" stroke="transparent" points="218.5,-10 218.5,-30 238.5,-30 238.5,-10 218.5,-10"/>
<text text-anchor="start" x="242.129" y="-15.4" font-family="sans-serif" font-size="14.00" fill="#000000"> &#160;Declarations</text>
<polygon fill="#8dd3c7" stroke="transparent" points="331.5,-10 331.5,-30 351.5,-30 351.5,-10 331.5,-10"/>
<text text-anchor="start" x="355.2251" y="-15.4" font-family="sans-serif" font-size="14.00" fill="#000000"> &#160;Module</text>
<polygon fill="#80b1d3" stroke="transparent" points="417.5,-10 417.5,-30 437.5,-30 437.5,-10 417.5,-10"/>
<text text-anchor="start" x="441.2812" y="-15.4" font-family="sans-serif" font-size="14.00" fill="#000000"> &#160;Bootstrap</text>
<polygon fill="#fdb462" stroke="transparent" points="514.5,-10 514.5,-30 534.5,-30 534.5,-10 514.5,-10"/>
<text text-anchor="start" x="538.1732" y="-15.4" font-family="sans-serif" font-size="14.00" fill="#000000"> &#160;Providers</text>
<polygon fill="#fb8072" stroke="transparent" points="610.5,-10 610.5,-30 630.5,-30 630.5,-10 610.5,-10"/>
<text text-anchor="start" x="634.2258" y="-15.4" font-family="sans-serif" font-size="14.00" fill="#000000"> &#160;Exports</text>
<g id="clust1" class="cluster">
<title>cluster_HelgolandModificationModule</title>
<polygon fill="none" stroke="#000000" stroke-dasharray="1,5" points="8,-70 8,-268 897,-268 897,-70 8,-70"/>
</g>
<g id="clust2" class="cluster">
<title>cluster_HelgolandModificationModule_declarations</title>
<polygon fill="none" stroke="#000000" points="186,-78 186,-130 889,-130 889,-78 186,-78"/>
</g>
<g id="clust7" class="cluster">
<title>cluster_HelgolandModificationModule_imports</title>
<polygon fill="none" stroke="#000000" points="16,-78 16,-130 178,-130 178,-78 16,-78"/>
</g>
<g id="clust8" class="cluster">
<title>cluster_HelgolandModificationModule_exports</title>
<polygon fill="none" stroke="#000000" points="94,-208 94,-260 811,-260 811,-208 94,-208"/>
</g>
<!-- AxesOptionsComponent -->
<g id="node1" class="node">
<title>AxesOptionsComponent</title>
<polygon fill="#ffffb3" stroke="#000000" points="881.4312,-122 726.5688,-122 726.5688,-86 881.4312,-86 881.4312,-122"/>
<text text-anchor="middle" x="804" y="-99.8" font-family="Times,serif" font-size="14.00" fill="#000000">AxesOptionsComponent</text>
</g>
<!-- HelgolandModificationModule -->
<g id="node5" class="node">
<title>HelgolandModificationModule</title>
<polygon fill="#8dd3c7" stroke="#000000" points="550.4636,-187 547.4636,-191 526.4636,-191 523.4636,-187 359.5364,-187 359.5364,-151 550.4636,-151 550.4636,-187"/>
<text text-anchor="middle" x="455" y="-164.8" font-family="Times,serif" font-size="14.00" fill="#000000">HelgolandModificationModule</text>
</g>
<!-- AxesOptionsComponent&#45;&gt;HelgolandModificationModule -->
<g id="edge1" class="edge">
<title>AxesOptionsComponent&#45;&gt;HelgolandModificationModule</title>
<path fill="none" stroke="#000000" d="M764.875,-122.0225C764.875,-139.3734 764.875,-163 764.875,-163 764.875,-163 560.5012,-163 560.5012,-163"/>
<polygon fill="#000000" stroke="#000000" points="560.5012,-159.5001 550.5012,-163 560.5012,-166.5001 560.5012,-159.5001"/>
</g>
<!-- ColorSelectorComponent -->
<g id="node2" class="node">
<title>ColorSelectorComponent</title>
<polygon fill="#ffffb3" stroke="#000000" points="708.5884,-122 549.4116,-122 549.4116,-86 708.5884,-86 708.5884,-122"/>
<text text-anchor="middle" x="629" y="-99.8" font-family="Times,serif" font-size="14.00" fill="#000000">ColorSelectorComponent</text>
</g>
<!-- ColorSelectorComponent&#45;&gt;HelgolandModificationModule -->
<g id="edge2" class="edge">
<title>ColorSelectorComponent&#45;&gt;HelgolandModificationModule</title>
<path fill="none" stroke="#000000" d="M549.4349,-104C544.0102,-104 540.6396,-104 540.6396,-104 540.6396,-104 540.6396,-140.8939 540.6396,-140.8939"/>
<polygon fill="#000000" stroke="#000000" points="537.1396,-140.8938 540.6396,-150.8939 544.1396,-140.8939 537.1396,-140.8938"/>
</g>
<!-- DragOptionsComponent -->
<g id="node3" class="node">
<title>DragOptionsComponent</title>
<polygon fill="#ffffb3" stroke="#000000" points="531.647,-122 378.353,-122 378.353,-86 531.647,-86 531.647,-122"/>
<text text-anchor="middle" x="455" y="-99.8" font-family="Times,serif" font-size="14.00" fill="#000000">DragOptionsComponent</text>
</g>
<!-- DragOptionsComponent&#45;&gt;HelgolandModificationModule -->
<g id="edge3" class="edge">
<title>DragOptionsComponent&#45;&gt;HelgolandModificationModule</title>
<path fill="none" stroke="#000000" d="M455,-122.1061C455,-122.1061 455,-140.991 455,-140.991"/>
<polygon fill="#000000" stroke="#000000" points="451.5001,-140.9909 455,-150.991 458.5001,-140.991 451.5001,-140.9909"/>
</g>
<!-- MinMaxRangeComponent -->
<g id="node4" class="node">
<title>MinMaxRangeComponent</title>
<polygon fill="#ffffb3" stroke="#000000" points="360.0926,-122 193.9074,-122 193.9074,-86 360.0926,-86 360.0926,-122"/>
<text text-anchor="middle" x="277" y="-99.8" font-family="Times,serif" font-size="14.00" fill="#000000">MinMaxRangeComponent</text>
</g>
<!-- MinMaxRangeComponent&#45;&gt;HelgolandModificationModule -->
<g id="edge4" class="edge">
<title>MinMaxRangeComponent&#45;&gt;HelgolandModificationModule</title>
<path fill="none" stroke="#000000" d="M360.2795,-104C365.7369,-104 369.1115,-104 369.1115,-104 369.1115,-104 369.1115,-140.8939 369.1115,-140.8939"/>
<polygon fill="#000000" stroke="#000000" points="365.6116,-140.8938 369.1115,-150.8939 372.6116,-140.8939 365.6116,-140.8938"/>
</g>
<!-- AxesOptionsComponent  -->
<g id="node7" class="node">
<title>AxesOptionsComponent </title>
<polygon fill="#fb8072" stroke="#000000" points="802.9306,-252 645.0694,-252 645.0694,-216 802.9306,-216 802.9306,-252"/>
<text text-anchor="middle" x="724" y="-229.8" font-family="Times,serif" font-size="14.00" fill="#000000">AxesOptionsComponent </text>
</g>
<!-- HelgolandModificationModule&#45;&gt;AxesOptionsComponent  -->
<g id="edge6" class="edge">
<title>HelgolandModificationModule&#45;&gt;AxesOptionsComponent </title>
<path fill="none" stroke="#000000" stroke-dasharray="5,2" d="M550.6679,-175C610.6951,-175 676.7895,-175 676.7895,-175 676.7895,-175 676.7895,-205.9775 676.7895,-205.9775"/>
<polygon fill="#000000" stroke="#000000" points="673.2895,-205.9774 676.7895,-215.9775 680.2895,-205.9775 673.2895,-205.9774"/>
</g>
<!-- ColorSelectorComponent  -->
<g id="node8" class="node">
<title>ColorSelectorComponent </title>
<polygon fill="#fb8072" stroke="#000000" points="627.0889,-252 464.9111,-252 464.9111,-216 627.0889,-216 627.0889,-252"/>
<text text-anchor="middle" x="546" y="-229.8" font-family="Times,serif" font-size="14.00" fill="#000000">ColorSelectorComponent </text>
</g>
<!-- HelgolandModificationModule&#45;&gt;ColorSelectorComponent  -->
<g id="edge7" class="edge">
<title>HelgolandModificationModule&#45;&gt;ColorSelectorComponent </title>
<path fill="none" stroke="#000000" stroke-dasharray="5,2" d="M507.5938,-187.1061C507.5938,-187.1061 507.5938,-205.991 507.5938,-205.991"/>
<polygon fill="#000000" stroke="#000000" points="504.0939,-205.9909 507.5938,-215.991 511.0939,-205.991 504.0939,-205.9909"/>
</g>
<!-- DragOptionsComponent  -->
<g id="node9" class="node">
<title>DragOptionsComponent </title>
<polygon fill="#fb8072" stroke="#000000" points="446.6467,-252 289.3533,-252 289.3533,-216 446.6467,-216 446.6467,-252"/>
<text text-anchor="middle" x="368" y="-229.8" font-family="Times,serif" font-size="14.00" fill="#000000">DragOptionsComponent </text>
</g>
<!-- HelgolandModificationModule&#45;&gt;DragOptionsComponent  -->
<g id="edge8" class="edge">
<title>HelgolandModificationModule&#45;&gt;DragOptionsComponent </title>
<path fill="none" stroke="#000000" stroke-dasharray="5,2" d="M403.0458,-187.1061C403.0458,-187.1061 403.0458,-205.991 403.0458,-205.991"/>
<polygon fill="#000000" stroke="#000000" points="399.5458,-205.9909 403.0458,-215.991 406.5458,-205.991 399.5458,-205.9909"/>
</g>
<!-- MinMaxRangeComponent  -->
<g id="node10" class="node">
<title>MinMaxRangeComponent </title>
<polygon fill="#fb8072" stroke="#000000" points="271.5931,-252 102.4069,-252 102.4069,-216 271.5931,-216 271.5931,-252"/>
<text text-anchor="middle" x="187" y="-229.8" font-family="Times,serif" font-size="14.00" fill="#000000">MinMaxRangeComponent </text>
</g>
<!-- HelgolandModificationModule&#45;&gt;MinMaxRangeComponent  -->
<g id="edge9" class="edge">
<title>HelgolandModificationModule&#45;&gt;MinMaxRangeComponent </title>
<path fill="none" stroke="#000000" stroke-dasharray="5,2" d="M359.5099,-175C299.3064,-175 232.875,-175 232.875,-175 232.875,-175 232.875,-205.9775 232.875,-205.9775"/>
<polygon fill="#000000" stroke="#000000" points="229.3751,-205.9774 232.875,-215.9775 236.3751,-205.9775 229.3751,-205.9774"/>
</g>
<!-- HelgolandCoreModule -->
<g id="node6" class="node">
<title>HelgolandCoreModule</title>
<polygon fill="#8dd3c7" stroke="#000000" points="169.5786,-122 166.5786,-126 145.5786,-126 142.5786,-122 24.4214,-122 24.4214,-86 169.5786,-86 169.5786,-122"/>
<text text-anchor="middle" x="97" y="-99.8" font-family="Times,serif" font-size="14.00" fill="#000000">HelgolandCoreModule</text>
</g>
<!-- HelgolandCoreModule&#45;&gt;HelgolandModificationModule -->
<g id="edge5" class="edge">
<title>HelgolandCoreModule&#45;&gt;HelgolandModificationModule</title>
<path fill="none" stroke="#000000" d="M135.8715,-122.0225C135.8715,-139.3734 135.8715,-163 135.8715,-163 135.8715,-163 349.2509,-163 349.2509,-163"/>
<polygon fill="#000000" stroke="#000000" points="349.251,-166.5001 359.2509,-163 349.2509,-159.5001 349.251,-166.5001"/>
</g>
</g>
</svg>
