<?xml version="1.0" encoding="UTF-8" standalone="no"?>
<!DOCTYPE svg PUBLIC "-//W3C//DTD SVG 1.1//EN"
 "http://www.w3.org/Graphics/SVG/1.1/DTD/svg11.dtd">
<!-- Generated by graphviz version 2.40.1 (20161225.0304)
 -->
<!-- Title: dependencies Pages: 1 -->
<svg width="729pt" height="284pt"
 viewBox="0.00 0.00 729.00 284.00" xmlns="http://www.w3.org/2000/svg" xmlns:xlink="http://www.w3.org/1999/xlink">
<g id="graph0" class="graph" transform="scale(1 1) rotate(0) translate(4 280)">
<title>dependencies</title>
<polygon fill="#ffffff" stroke="transparent" points="-4,4 -4,-280 725,-280 725,4 -4,4"/>
<text text-anchor="start" x="339.5091" y="-42.4" font-family="sans-serif" font-weight="bold" font-size="14.00" fill="#000000">Legend</text>
<polygon fill="#ffffb3" stroke="transparent" points="126.5,-10 126.5,-30 146.5,-30 146.5,-10 126.5,-10"/>
<text text-anchor="start" x="150.129" y="-15.4" font-family="sans-serif" font-size="14.00" fill="#000000"> &#160;Declarations</text>
<polygon fill="#8dd3c7" stroke="transparent" points="239.5,-10 239.5,-30 259.5,-30 259.5,-10 239.5,-10"/>
<text text-anchor="start" x="263.2251" y="-15.4" font-family="sans-serif" font-size="14.00" fill="#000000"> &#160;Module</text>
<polygon fill="#80b1d3" stroke="transparent" points="325.5,-10 325.5,-30 345.5,-30 345.5,-10 325.5,-10"/>
<text text-anchor="start" x="349.2812" y="-15.4" font-family="sans-serif" font-size="14.00" fill="#000000"> &#160;Bootstrap</text>
<polygon fill="#fdb462" stroke="transparent" points="422.5,-10 422.5,-30 442.5,-30 442.5,-10 422.5,-10"/>
<text text-anchor="start" x="446.1732" y="-15.4" font-family="sans-serif" font-size="14.00" fill="#000000"> &#160;Providers</text>
<polygon fill="#fb8072" stroke="transparent" points="518.5,-10 518.5,-30 538.5,-30 538.5,-10 518.5,-10"/>
<text text-anchor="start" x="542.2258" y="-15.4" font-family="sans-serif" font-size="14.00" fill="#000000"> &#160;Exports</text>
<g id="clust1" class="cluster">
<title>cluster_HelgolandModificationModule</title>
<polygon fill="none" stroke="#000000" stroke-dasharray="1,5" points="8,-70 8,-268 713,-268 713,-70 8,-70"/>
</g>
<g id="clust2" class="cluster">
<title>cluster_HelgolandModificationModule_declarations</title>
<polygon fill="none" stroke="#000000" points="186,-78 186,-130 705,-130 705,-78 186,-78"/>
</g>
<g id="clust6" class="cluster">
<title>cluster_HelgolandModificationModule_imports</title>
<polygon fill="none" stroke="#000000" points="16,-78 16,-130 178,-130 178,-78 16,-78"/>
</g>
<g id="clust7" class="cluster">
<title>cluster_HelgolandModificationModule_exports</title>
<polygon fill="none" stroke="#000000" points="95,-208 95,-260 625,-260 625,-208 95,-208"/>
</g>
<!-- AxesOptionsComponent -->
<g id="node1" class="node">
<title>AxesOptionsComponent</title>
<polygon fill="#ffffb3" stroke="#000000" points="697.4312,-122 542.5688,-122 542.5688,-86 697.4312,-86 697.4312,-122"/>
<text text-anchor="middle" x="620" y="-99.8" font-family="Times,serif" font-size="14.00" fill="#000000">AxesOptionsComponent</text>
</g>
<!-- HelgolandModificationModule -->
<g id="node4" class="node">
<title>HelgolandModificationModule</title>
<polygon fill="#8dd3c7" stroke="#000000" points="455.4636,-187 452.4636,-191 431.4636,-191 428.4636,-187 264.5364,-187 264.5364,-151 455.4636,-151 455.4636,-187"/>
<text text-anchor="middle" x="360" y="-164.8" font-family="Times,serif" font-size="14.00" fill="#000000">HelgolandModificationModule</text>
</g>
<!-- AxesOptionsComponent&#45;&gt;HelgolandModificationModule -->
<g id="edge1" class="edge">
<title>AxesOptionsComponent&#45;&gt;HelgolandModificationModule</title>
<path fill="none" stroke="#000000" d="M579.875,-122.1061C579.875,-141.3391 579.875,-169 579.875,-169 579.875,-169 465.4811,-169 465.4811,-169"/>
<polygon fill="#000000" stroke="#000000" points="465.4811,-165.5001 455.4811,-169 465.4811,-172.5001 465.4811,-165.5001"/>
</g>
<!-- ColorSelectorComponent -->
<g id="node2" class="node">
<title>ColorSelectorComponent</title>
<polygon fill="#ffffb3" stroke="#000000" points="524.5884,-122 365.4116,-122 365.4116,-86 524.5884,-86 524.5884,-122"/>
<text text-anchor="middle" x="445" y="-99.8" font-family="Times,serif" font-size="14.00" fill="#000000">ColorSelectorComponent</text>
</g>
<!-- ColorSelectorComponent&#45;&gt;HelgolandModificationModule -->
<g id="edge2" class="edge">
<title>ColorSelectorComponent&#45;&gt;HelgolandModificationModule</title>
<path fill="none" stroke="#000000" d="M410.4688,-122.1061C410.4688,-122.1061 410.4688,-140.991 410.4688,-140.991"/>
<polygon fill="#000000" stroke="#000000" points="406.9689,-140.9909 410.4688,-150.991 413.9689,-140.991 406.9689,-140.9909"/>
</g>
<!-- DragOptionsComponent -->
<g id="node3" class="node">
<title>DragOptionsComponent</title>
<polygon fill="#ffffb3" stroke="#000000" points="347.647,-122 194.353,-122 194.353,-86 347.647,-86 347.647,-122"/>
<text text-anchor="middle" x="271" y="-99.8" font-family="Times,serif" font-size="14.00" fill="#000000">DragOptionsComponent</text>
</g>
<!-- DragOptionsComponent&#45;&gt;HelgolandModificationModule -->
<g id="edge3" class="edge">
<title>DragOptionsComponent&#45;&gt;HelgolandModificationModule</title>
<path fill="none" stroke="#000000" d="M306.1708,-122.1061C306.1708,-122.1061 306.1708,-140.991 306.1708,-140.991"/>
<polygon fill="#000000" stroke="#000000" points="302.6708,-140.9909 306.1708,-150.991 309.6708,-140.991 302.6708,-140.9909"/>
</g>
<!-- AxesOptionsComponent  -->
<g id="node6" class="node">
<title>AxesOptionsComponent </title>
<polygon fill="#fb8072" stroke="#000000" points="616.9306,-252 459.0694,-252 459.0694,-216 616.9306,-216 616.9306,-252"/>
<text text-anchor="middle" x="538" y="-229.8" font-family="Times,serif" font-size="14.00" fill="#000000">AxesOptionsComponent </text>
</g>
<!-- HelgolandModificationModule&#45;&gt;AxesOptionsComponent  -->
<g id="edge5" class="edge">
<title>HelgolandModificationModule&#45;&gt;AxesOptionsComponent </title>
<path fill="none" stroke="#000000" stroke-dasharray="5,2" d="M448.388,-187.1061C448.388,-206.3391 448.388,-234 448.388,-234 448.388,-234 449.4512,-234 449.4512,-234"/>
<polygon fill="#000000" stroke="#000000" points="449.0196,-237.5001 459.0196,-234 449.0195,-230.5001 449.0196,-237.5001"/>
</g>
<!-- ColorSelectorComponent  -->
<g id="node7" class="node">
<title>ColorSelectorComponent </title>
<polygon fill="#fb8072" stroke="#000000" points="441.0889,-252 278.9111,-252 278.9111,-216 441.0889,-216 441.0889,-252"/>
<text text-anchor="middle" x="360" y="-229.8" font-family="Times,serif" font-size="14.00" fill="#000000">ColorSelectorComponent </text>
</g>
<!-- HelgolandModificationModule&#45;&gt;ColorSelectorComponent  -->
<g id="edge6" class="edge">
<title>HelgolandModificationModule&#45;&gt;ColorSelectorComponent </title>
<path fill="none" stroke="#000000" stroke-dasharray="5,2" d="M360,-187.1061C360,-187.1061 360,-205.991 360,-205.991"/>
<polygon fill="#000000" stroke="#000000" points="356.5001,-205.9909 360,-215.991 363.5001,-205.991 356.5001,-205.9909"/>
</g>
<!-- DragOptionsComponent  -->
<g id="node8" class="node">
<title>DragOptionsComponent </title>
<polygon fill="#fb8072" stroke="#000000" points="260.6467,-252 103.3533,-252 103.3533,-216 260.6467,-216 260.6467,-252"/>
<text text-anchor="middle" x="182" y="-229.8" font-family="Times,serif" font-size="14.00" fill="#000000">DragOptionsComponent </text>
</g>
<!-- HelgolandModificationModule&#45;&gt;DragOptionsComponent  -->
<g id="edge7" class="edge">
<title>HelgolandModificationModule&#45;&gt;DragOptionsComponent </title>
<path fill="none" stroke="#000000" stroke-dasharray="5,2" d="M271.612,-187.1061C271.612,-206.3391 271.612,-234 271.612,-234 271.612,-234 270.5132,-234 270.5132,-234"/>
<polygon fill="#000000" stroke="#000000" points="270.6238,-230.5001 260.6238,-234 270.6238,-237.5001 270.6238,-230.5001"/>
</g>
<!-- HelgolandCoreModule -->
<g id="node5" class="node">
<title>HelgolandCoreModule</title>
<polygon fill="#8dd3c7" stroke="#000000" points="169.5786,-122 166.5786,-126 145.5786,-126 142.5786,-122 24.4214,-122 24.4214,-86 169.5786,-86 169.5786,-122"/>
<text text-anchor="middle" x="97" y="-99.8" font-family="Times,serif" font-size="14.00" fill="#000000">HelgolandCoreModule</text>
</g>
<!-- HelgolandCoreModule&#45;&gt;HelgolandModificationModule -->
<g id="edge4" class="edge">
<title>HelgolandCoreModule&#45;&gt;HelgolandModificationModule</title>
<path fill="none" stroke="#000000" d="M136.483,-122.1061C136.483,-141.3391 136.483,-169 136.483,-169 136.483,-169 254.236,-169 254.236,-169"/>
<polygon fill="#000000" stroke="#000000" points="254.236,-172.5001 264.236,-169 254.2359,-165.5001 254.236,-172.5001"/>
</g>
</g>
</svg>
