<?xml version="1.0" encoding="UTF-8" standalone="no"?>
<!DOCTYPE svg PUBLIC "-//W3C//DTD SVG 1.1//EN"
 "http://www.w3.org/Graphics/SVG/1.1/DTD/svg11.dtd">
<!-- Generated by graphviz version 2.40.1 (20161225.0304)
 -->
<!-- Title: dependencies Pages: 1 -->
<svg width="730pt" height="284pt"
 viewBox="0.00 0.00 730.00 284.00" xmlns="http://www.w3.org/2000/svg" xmlns:xlink="http://www.w3.org/1999/xlink">
<g id="graph0" class="graph" transform="scale(1 1) rotate(0) translate(4 280)">
<title>dependencies</title>
<polygon fill="#ffffff" stroke="transparent" points="-4,4 -4,-280 726,-280 726,4 -4,4"/>
<text text-anchor="start" x="340.0091" y="-42.4" font-family="sans-serif" font-weight="bold" font-size="14.00" fill="#000000">Legend</text>
<polygon fill="#ffffb3" stroke="transparent" points="127,-10 127,-30 147,-30 147,-10 127,-10"/>
<text text-anchor="start" x="150.629" y="-15.4" font-family="sans-serif" font-size="14.00" fill="#000000"> &#160;Declarations</text>
<polygon fill="#8dd3c7" stroke="transparent" points="240,-10 240,-30 260,-30 260,-10 240,-10"/>
<text text-anchor="start" x="263.7251" y="-15.4" font-family="sans-serif" font-size="14.00" fill="#000000"> &#160;Module</text>
<polygon fill="#80b1d3" stroke="transparent" points="326,-10 326,-30 346,-30 346,-10 326,-10"/>
<text text-anchor="start" x="349.7812" y="-15.4" font-family="sans-serif" font-size="14.00" fill="#000000"> &#160;Bootstrap</text>
<polygon fill="#fdb462" stroke="transparent" points="423,-10 423,-30 443,-30 443,-10 423,-10"/>
<text text-anchor="start" x="446.6732" y="-15.4" font-family="sans-serif" font-size="14.00" fill="#000000"> &#160;Providers</text>
<polygon fill="#fb8072" stroke="transparent" points="519,-10 519,-30 539,-30 539,-10 519,-10"/>
<text text-anchor="start" x="542.7258" y="-15.4" font-family="sans-serif" font-size="14.00" fill="#000000"> &#160;Exports</text>
<g id="clust1" class="cluster">
<title>cluster_HelgolandModificationModule</title>
<polygon fill="none" stroke="#000000" stroke-dasharray="1,5" points="8,-70 8,-268 714,-268 714,-70 8,-70"/>
</g>
<g id="clust2" class="cluster">
<title>cluster_HelgolandModificationModule_declarations</title>
<polygon fill="none" stroke="#000000" points="186,-78 186,-130 706,-130 706,-78 186,-78"/>
</g>
<g id="clust6" class="cluster">
<title>cluster_HelgolandModificationModule_imports</title>
<polygon fill="none" stroke="#000000" points="16,-78 16,-130 178,-130 178,-78 16,-78"/>
</g>
<g id="clust7" class="cluster">
<title>cluster_HelgolandModificationModule_exports</title>
<polygon fill="none" stroke="#000000" points="96,-208 96,-260 626,-260 626,-208 96,-208"/>
</g>
<!-- ColorSelectorComponent -->
<g id="node1" class="node">
<title>ColorSelectorComponent</title>
<polygon fill="#ffffb3" stroke="#000000" points="697.5884,-122 538.4116,-122 538.4116,-86 697.5884,-86 697.5884,-122"/>
<text text-anchor="middle" x="618" y="-99.8" font-family="Times,serif" font-size="14.00" fill="#000000">ColorSelectorComponent</text>
</g>
<!-- HelgolandModificationModule -->
<g id="node4" class="node">
<title>HelgolandModificationModule</title>
<polygon fill="#8dd3c7" stroke="#000000" points="454.4636,-187 451.4636,-191 430.4636,-191 427.4636,-187 263.5364,-187 263.5364,-151 454.4636,-151 454.4636,-187"/>
<text text-anchor="middle" x="359" y="-164.8" font-family="Times,serif" font-size="14.00" fill="#000000">HelgolandModificationModule</text>
</g>
<!-- ColorSelectorComponent&#45;&gt;HelgolandModificationModule -->
<g id="edge1" class="edge">
<title>ColorSelectorComponent&#45;&gt;HelgolandModificationModule</title>
<path fill="none" stroke="#000000" d="M578.375,-122.1061C578.375,-141.3391 578.375,-169 578.375,-169 578.375,-169 464.5829,-169 464.5829,-169"/>
<polygon fill="#000000" stroke="#000000" points="464.5829,-165.5001 454.5829,-169 464.5829,-172.5001 464.5829,-165.5001"/>
</g>
<!-- AxesOptionsComponent -->
<g id="node2" class="node">
<title>AxesOptionsComponent</title>
<polygon fill="#ffffb3" stroke="#000000" points="520.4312,-122 365.5688,-122 365.5688,-86 520.4312,-86 520.4312,-122"/>
<text text-anchor="middle" x="443" y="-99.8" font-family="Times,serif" font-size="14.00" fill="#000000">AxesOptionsComponent</text>
</g>
<!-- AxesOptionsComponent&#45;&gt;HelgolandModificationModule -->
<g id="edge2" class="edge">
<title>AxesOptionsComponent&#45;&gt;HelgolandModificationModule</title>
<path fill="none" stroke="#000000" d="M410.1332,-122.1061C410.1332,-122.1061 410.1332,-140.991 410.1332,-140.991"/>
<polygon fill="#000000" stroke="#000000" points="406.6333,-140.9909 410.1332,-150.991 413.6333,-140.991 406.6333,-140.9909"/>
</g>
<!-- DragOptionsComponent -->
<g id="node3" class="node">
<title>DragOptionsComponent</title>
<polygon fill="#ffffb3" stroke="#000000" points="347.647,-122 194.353,-122 194.353,-86 347.647,-86 347.647,-122"/>
<text text-anchor="middle" x="271" y="-99.8" font-family="Times,serif" font-size="14.00" fill="#000000">DragOptionsComponent</text>
</g>
<!-- DragOptionsComponent&#45;&gt;HelgolandModificationModule -->
<g id="edge3" class="edge">
<title>DragOptionsComponent&#45;&gt;HelgolandModificationModule</title>
<path fill="none" stroke="#000000" d="M305.6708,-122.1061C305.6708,-122.1061 305.6708,-140.991 305.6708,-140.991"/>
<polygon fill="#000000" stroke="#000000" points="302.1708,-140.9909 305.6708,-150.991 309.1708,-140.991 302.1708,-140.9909"/>
</g>
<!-- ColorSelectorComponent  -->
<g id="node6" class="node">
<title>ColorSelectorComponent </title>
<polygon fill="#fb8072" stroke="#000000" points="618.0889,-252 455.9111,-252 455.9111,-216 618.0889,-216 618.0889,-252"/>
<text text-anchor="middle" x="537" y="-229.8" font-family="Times,serif" font-size="14.00" fill="#000000">ColorSelectorComponent </text>
</g>
<!-- HelgolandModificationModule&#45;&gt;ColorSelectorComponent  -->
<g id="edge5" class="edge">
<title>HelgolandModificationModule&#45;&gt;ColorSelectorComponent </title>
<path fill="none" stroke="#000000" stroke-dasharray="5,2" d="M446.2236,-187.1061C446.2236,-206.3391 446.2236,-234 446.2236,-234 446.2236,-234 447.1608,-234 447.1608,-234"/>
<polygon fill="#000000" stroke="#000000" points="445.5964,-237.5001 455.5963,-234 445.5963,-230.5001 445.5964,-237.5001"/>
</g>
<!-- AxesOptionsComponent  -->
<g id="node7" class="node">
<title>AxesOptionsComponent </title>
<polygon fill="#fb8072" stroke="#000000" points="437.9306,-252 280.0694,-252 280.0694,-216 437.9306,-216 437.9306,-252"/>
<text text-anchor="middle" x="359" y="-229.8" font-family="Times,serif" font-size="14.00" fill="#000000">AxesOptionsComponent </text>
</g>
<!-- HelgolandModificationModule&#45;&gt;AxesOptionsComponent  -->
<g id="edge6" class="edge">
<title>HelgolandModificationModule&#45;&gt;AxesOptionsComponent </title>
<path fill="none" stroke="#000000" stroke-dasharray="5,2" d="M359,-187.1061C359,-187.1061 359,-205.991 359,-205.991"/>
<polygon fill="#000000" stroke="#000000" points="355.5001,-205.9909 359,-215.991 362.5001,-205.991 355.5001,-205.9909"/>
</g>
<!-- DragOptionsComponent  -->
<g id="node8" class="node">
<title>DragOptionsComponent </title>
<polygon fill="#fb8072" stroke="#000000" points="261.6467,-252 104.3533,-252 104.3533,-216 261.6467,-216 261.6467,-252"/>
<text text-anchor="middle" x="183" y="-229.8" font-family="Times,serif" font-size="14.00" fill="#000000">DragOptionsComponent </text>
</g>
<!-- HelgolandModificationModule&#45;&gt;DragOptionsComponent  -->
<g id="edge7" class="edge">
<title>HelgolandModificationModule&#45;&gt;DragOptionsComponent </title>
<path fill="none" stroke="#000000" stroke-dasharray="5,2" d="M271.7765,-187.1061C271.7765,-206.3391 271.7765,-234 271.7765,-234 271.7765,-234 270.7581,-234 270.7581,-234"/>
<polygon fill="#000000" stroke="#000000" points="271.5927,-230.5001 261.5927,-234 271.5926,-237.5001 271.5927,-230.5001"/>
</g>
<!-- HelgolandCoreModule -->
<g id="node5" class="node">
<title>HelgolandCoreModule</title>
<polygon fill="#8dd3c7" stroke="#000000" points="169.5786,-122 166.5786,-126 145.5786,-126 142.5786,-122 24.4214,-122 24.4214,-86 169.5786,-86 169.5786,-122"/>
<text text-anchor="middle" x="97" y="-99.8" font-family="Times,serif" font-size="14.00" fill="#000000">HelgolandCoreModule</text>
</g>
<!-- HelgolandCoreModule&#45;&gt;HelgolandModificationModule -->
<g id="edge4" class="edge">
<title>HelgolandCoreModule&#45;&gt;HelgolandModificationModule</title>
<path fill="none" stroke="#000000" d="M136.983,-122.1061C136.983,-141.3391 136.983,-169 136.983,-169 136.983,-169 253.2339,-169 253.2339,-169"/>
<polygon fill="#000000" stroke="#000000" points="253.234,-172.5001 263.2339,-169 253.2339,-165.5001 253.234,-172.5001"/>
</g>
</g>
</svg>
