<?xml version="1.0" encoding="UTF-8" standalone="no"?>
<!DOCTYPE svg PUBLIC "-//W3C//DTD SVG 1.1//EN"
 "http://www.w3.org/Graphics/SVG/1.1/DTD/svg11.dtd">
<!-- Generated by graphviz version 2.40.1 (20161225.0304)
 -->
<!-- Title: dependencies Pages: 1 -->
<svg width="504pt" height="284pt"
 viewBox="0.00 0.00 504.00 284.00" xmlns="http://www.w3.org/2000/svg" xmlns:xlink="http://www.w3.org/1999/xlink">
<g id="graph0" class="graph" transform="scale(1 1) rotate(0) translate(4 280)">
<title>dependencies</title>
<polygon fill="#ffffff" stroke="transparent" points="-4,4 -4,-280 500,-280 500,4 -4,4"/>
<text text-anchor="start" x="227.0091" y="-42.4" font-family="sans-serif" font-weight="bold" font-size="14.00" fill="#000000">Legend</text>
<polygon fill="#ffffb3" stroke="transparent" points="14,-10 14,-30 34,-30 34,-10 14,-10"/>
<text text-anchor="start" x="37.629" y="-15.4" font-family="sans-serif" font-size="14.00" fill="#000000"> &#160;Declarations</text>
<polygon fill="#8dd3c7" stroke="transparent" points="127,-10 127,-30 147,-30 147,-10 127,-10"/>
<text text-anchor="start" x="150.7251" y="-15.4" font-family="sans-serif" font-size="14.00" fill="#000000"> &#160;Module</text>
<polygon fill="#80b1d3" stroke="transparent" points="213,-10 213,-30 233,-30 233,-10 213,-10"/>
<text text-anchor="start" x="236.7812" y="-15.4" font-family="sans-serif" font-size="14.00" fill="#000000"> &#160;Bootstrap</text>
<polygon fill="#fdb462" stroke="transparent" points="310,-10 310,-30 330,-30 330,-10 310,-10"/>
<text text-anchor="start" x="333.6732" y="-15.4" font-family="sans-serif" font-size="14.00" fill="#000000"> &#160;Providers</text>
<polygon fill="#fb8072" stroke="transparent" points="406,-10 406,-30 426,-30 426,-10 406,-10"/>
<text text-anchor="start" x="429.7258" y="-15.4" font-family="sans-serif" font-size="14.00" fill="#000000"> &#160;Exports</text>
<g id="clust1" class="cluster">
<title>cluster_HelgolandD3GraphModule</title>
<polygon fill="none" stroke="#000000" stroke-dasharray="1,5" points="40,-70 40,-268 456,-268 456,-70 40,-70"/>
</g>
<g id="clust2" class="cluster">
<title>cluster_HelgolandD3GraphModule_declarations</title>
<polygon fill="none" stroke="#000000" points="238,-78 238,-130 448,-130 448,-78 238,-78"/>
</g>
<g id="clust4" class="cluster">
<title>cluster_HelgolandD3GraphModule_imports</title>
<polygon fill="none" stroke="#000000" points="48,-78 48,-130 230,-130 230,-78 48,-78"/>
</g>
<g id="clust5" class="cluster">
<title>cluster_HelgolandD3GraphModule_exports</title>
<polygon fill="none" stroke="#000000" points="141,-208 141,-260 355,-260 355,-208 141,-208"/>
</g>
<!-- D3TimeseriesGraphComponent -->
<g id="node1" class="node">
<title>D3TimeseriesGraphComponent</title>
<polygon fill="#ffffb3" stroke="#000000" points="440.3389,-122 245.6611,-122 245.6611,-86 440.3389,-86 440.3389,-122"/>
<text text-anchor="middle" x="343" y="-99.8" font-family="Times,serif" font-size="14.00" fill="#000000">D3TimeseriesGraphComponent</text>
</g>
<!-- HelgolandD3GraphModule -->
<g id="node2" class="node">
<title>HelgolandD3GraphModule</title>
<polygon fill="#8dd3c7" stroke="#000000" points="332.9552,-187 329.9552,-191 308.9552,-191 305.9552,-187 163.0448,-187 163.0448,-151 332.9552,-151 332.9552,-187"/>
<text text-anchor="middle" x="248" y="-164.8" font-family="Times,serif" font-size="14.00" fill="#000000">HelgolandD3GraphModule</text>
</g>
<!-- D3TimeseriesGraphComponent&#45;&gt;HelgolandD3GraphModule -->
<g id="edge1" class="edge">
<title>D3TimeseriesGraphComponent&#45;&gt;HelgolandD3GraphModule</title>
<path fill="none" stroke="#000000" d="M289.2791,-122.1061C289.2791,-122.1061 289.2791,-140.991 289.2791,-140.991"/>
<polygon fill="#000000" stroke="#000000" points="285.7792,-140.9909 289.2791,-150.991 292.7792,-140.991 285.7792,-140.9909"/>
</g>
<!-- D3TimeseriesGraphComponent  -->
<g id="node4" class="node">
<title>D3TimeseriesGraphComponent </title>
<polygon fill="#fb8072" stroke="#000000" points="347.3391,-252 148.6609,-252 148.6609,-216 347.3391,-216 347.3391,-252"/>
<text text-anchor="middle" x="248" y="-229.8" font-family="Times,serif" font-size="14.00" fill="#000000">D3TimeseriesGraphComponent </text>
</g>
<!-- HelgolandD3GraphModule&#45;&gt;D3TimeseriesGraphComponent  -->
<g id="edge3" class="edge">
<title>HelgolandD3GraphModule&#45;&gt;D3TimeseriesGraphComponent </title>
<path fill="none" stroke="#000000" stroke-dasharray="5,2" d="M248,-187.1061C248,-187.1061 248,-205.991 248,-205.991"/>
<polygon fill="#000000" stroke="#000000" points="244.5001,-205.9909 248,-215.991 251.5001,-205.991 244.5001,-205.9909"/>
</g>
<!-- HelgolandServicesModule -->
<g id="node3" class="node">
<title>HelgolandServicesModule</title>
<polygon fill="#8dd3c7" stroke="#000000" points="221.7893,-122 218.7893,-126 197.7893,-126 194.7893,-122 56.2107,-122 56.2107,-86 221.7893,-86 221.7893,-122"/>
<text text-anchor="middle" x="139" y="-99.8" font-family="Times,serif" font-size="14.00" fill="#000000">HelgolandServicesModule</text>
</g>
<!-- HelgolandServicesModule&#45;&gt;HelgolandD3GraphModule -->
<g id="edge2" class="edge">
<title>HelgolandServicesModule&#45;&gt;HelgolandD3GraphModule</title>
<path fill="none" stroke="#000000" d="M192.3335,-122.1061C192.3335,-122.1061 192.3335,-140.991 192.3335,-140.991"/>
<polygon fill="#000000" stroke="#000000" points="188.8335,-140.9909 192.3335,-150.991 195.8335,-140.991 188.8335,-140.9909"/>
</g>
</g>
</svg>
