<?xml version="1.0" encoding="UTF-8" standalone="no"?>
<!DOCTYPE svg PUBLIC "-//W3C//DTD SVG 1.1//EN"
 "http://www.w3.org/Graphics/SVG/1.1/DTD/svg11.dtd">
<!-- Generated by graphviz version 2.40.1 (20161225.0304)
 -->
<!-- Title: dependencies Pages: 1 -->
<svg width="1915pt" height="284pt"
 viewBox="0.00 0.00 1915.00 284.00" xmlns="http://www.w3.org/2000/svg" xmlns:xlink="http://www.w3.org/1999/xlink">
<g id="graph0" class="graph" transform="scale(1 1) rotate(0) translate(4 280)">
<title>dependencies</title>
<polygon fill="#ffffff" stroke="transparent" points="-4,4 -4,-280 1911,-280 1911,4 -4,4"/>
<text text-anchor="start" x="932.5091" y="-42.4" font-family="sans-serif" font-weight="bold" font-size="14.00" fill="#000000">Legend</text>
<polygon fill="#ffffb3" stroke="transparent" points="719.5,-10 719.5,-30 739.5,-30 739.5,-10 719.5,-10"/>
<text text-anchor="start" x="743.129" y="-15.4" font-family="sans-serif" font-size="14.00" fill="#000000"> &#160;Declarations</text>
<polygon fill="#8dd3c7" stroke="transparent" points="832.5,-10 832.5,-30 852.5,-30 852.5,-10 832.5,-10"/>
<text text-anchor="start" x="856.2251" y="-15.4" font-family="sans-serif" font-size="14.00" fill="#000000"> &#160;Module</text>
<polygon fill="#80b1d3" stroke="transparent" points="918.5,-10 918.5,-30 938.5,-30 938.5,-10 918.5,-10"/>
<text text-anchor="start" x="942.2812" y="-15.4" font-family="sans-serif" font-size="14.00" fill="#000000"> &#160;Bootstrap</text>
<polygon fill="#fdb462" stroke="transparent" points="1015.5,-10 1015.5,-30 1035.5,-30 1035.5,-10 1015.5,-10"/>
<text text-anchor="start" x="1039.1732" y="-15.4" font-family="sans-serif" font-size="14.00" fill="#000000"> &#160;Providers</text>
<polygon fill="#fb8072" stroke="transparent" points="1111.5,-10 1111.5,-30 1131.5,-30 1131.5,-10 1111.5,-10"/>
<text text-anchor="start" x="1135.2258" y="-15.4" font-family="sans-serif" font-size="14.00" fill="#000000"> &#160;Exports</text>
<g id="clust1" class="cluster">
<title>cluster_HelgolandSelectorModule</title>
<polygon fill="none" stroke="#000000" stroke-dasharray="1,5" points="8,-70 8,-268 1899,-268 1899,-70 8,-70"/>
</g>
<g id="clust2" class="cluster">
<title>cluster_HelgolandSelectorModule_declarations</title>
<polygon fill="none" stroke="#000000" points="823,-78 823,-130 1891,-130 1891,-78 823,-78"/>
</g>
<g id="clust8" class="cluster">
<title>cluster_HelgolandSelectorModule_imports</title>
<polygon fill="none" stroke="#000000" points="442,-78 442,-130 815,-130 815,-78 442,-78"/>
</g>
<g id="clust9" class="cluster">
<title>cluster_HelgolandSelectorModule_exports</title>
<polygon fill="none" stroke="#000000" points="373,-208 373,-260 1459,-260 1459,-208 373,-208"/>
</g>
<g id="clust11" class="cluster">
<title>cluster_HelgolandSelectorModule_providers</title>
<polygon fill="none" stroke="#000000" points="16,-78 16,-130 434,-130 434,-78 16,-78"/>
</g>
<!-- ProviderSelectorComponent -->
<g id="node1" class="node">
<title>ProviderSelectorComponent</title>
<polygon fill="#ffffb3" stroke="#000000" points="1882.9101,-122 1707.0899,-122 1707.0899,-86 1882.9101,-86 1882.9101,-122"/>
<text text-anchor="middle" x="1795" y="-99.8" font-family="Times,serif" font-size="14.00" fill="#000000">ProviderSelectorComponent</text>
</g>
<!-- HelgolandSelectorModule -->
<g id="node6" class="node">
<title>HelgolandSelectorModule</title>
<polygon fill="#8dd3c7" stroke="#000000" points="1012.7352,-187 1009.7352,-191 988.7352,-191 985.7352,-187 849.2648,-187 849.2648,-151 1012.7352,-151 1012.7352,-187"/>
<text text-anchor="middle" x="931" y="-164.8" font-family="Times,serif" font-size="14.00" fill="#000000">HelgolandSelectorModule</text>
</g>
<!-- ProviderSelectorComponent&#45;&gt;HelgolandSelectorModule -->
<g id="edge1" class="edge">
<title>ProviderSelectorComponent&#45;&gt;HelgolandSelectorModule</title>
<path fill="none" stroke="#000000" d="M1795,-122.2228C1795,-142.3652 1795,-172 1795,-172 1795,-172 1023.062,-172 1023.062,-172"/>
<polygon fill="#000000" stroke="#000000" points="1023.062,-168.5001 1013.062,-172 1023.0619,-175.5001 1023.062,-168.5001"/>
</g>
<!-- DatasetByStationSelectorComponent -->
<g id="node2" class="node">
<title>DatasetByStationSelectorComponent</title>
<polygon fill="#ffffb3" stroke="#000000" points="1689.6825,-122 1464.3175,-122 1464.3175,-86 1689.6825,-86 1689.6825,-122"/>
<text text-anchor="middle" x="1577" y="-99.8" font-family="Times,serif" font-size="14.00" fill="#000000">DatasetByStationSelectorComponent</text>
</g>
<!-- DatasetByStationSelectorComponent&#45;&gt;HelgolandSelectorModule -->
<g id="edge2" class="edge">
<title>DatasetByStationSelectorComponent&#45;&gt;HelgolandSelectorModule</title>
<path fill="none" stroke="#000000" d="M1577,-122.2222C1577,-140.8285 1577,-167 1577,-167 1577,-167 1022.8163,-167 1022.8163,-167"/>
<polygon fill="#000000" stroke="#000000" points="1022.8164,-163.5001 1012.8163,-167 1022.8163,-170.5001 1022.8164,-163.5001"/>
</g>
<!-- ListSelectorComponent -->
<g id="node3" class="node">
<title>ListSelectorComponent</title>
<polygon fill="#ffffb3" stroke="#000000" points="1446.479,-122 1297.521,-122 1297.521,-86 1446.479,-86 1446.479,-122"/>
<text text-anchor="middle" x="1372" y="-99.8" font-family="Times,serif" font-size="14.00" fill="#000000">ListSelectorComponent</text>
</g>
<!-- ListSelectorComponent&#45;&gt;HelgolandSelectorModule -->
<g id="edge3" class="edge">
<title>ListSelectorComponent&#45;&gt;HelgolandSelectorModule</title>
<path fill="none" stroke="#000000" d="M1372,-122.0336C1372,-139.0597 1372,-162 1372,-162 1372,-162 1022.9152,-162 1022.9152,-162"/>
<polygon fill="#000000" stroke="#000000" points="1022.9152,-158.5001 1012.9152,-162 1022.9152,-165.5001 1022.9152,-158.5001"/>
</g>
<!-- MultiServiceFilterSelectorComponent -->
<g id="node4" class="node">
<title>MultiServiceFilterSelectorComponent</title>
<polygon fill="#ffffb3" stroke="#000000" points="1279.1245,-122 1048.8755,-122 1048.8755,-86 1279.1245,-86 1279.1245,-122"/>
<text text-anchor="middle" x="1164" y="-99.8" font-family="Times,serif" font-size="14.00" fill="#000000">MultiServiceFilterSelectorComponent</text>
</g>
<!-- MultiServiceFilterSelectorComponent&#45;&gt;HelgolandSelectorModule -->
<g id="edge4" class="edge">
<title>MultiServiceFilterSelectorComponent&#45;&gt;HelgolandSelectorModule</title>
<path fill="none" stroke="#000000" d="M1151.5146,-122.2396C1151.5146,-137.5706 1151.5146,-157 1151.5146,-157 1151.5146,-157 1022.7981,-157 1022.7981,-157"/>
<polygon fill="#000000" stroke="#000000" points="1022.7981,-153.5001 1012.7981,-157 1022.7981,-160.5001 1022.7981,-153.5001"/>
</g>
<!-- ServiceFilterSelectorComponent -->
<g id="node5" class="node">
<title>ServiceFilterSelectorComponent</title>
<polygon fill="#ffffb3" stroke="#000000" points="1030.5084,-122 831.4916,-122 831.4916,-86 1030.5084,-86 1030.5084,-122"/>
<text text-anchor="middle" x="931" y="-99.8" font-family="Times,serif" font-size="14.00" fill="#000000">ServiceFilterSelectorComponent</text>
</g>
<!-- ServiceFilterSelectorComponent&#45;&gt;HelgolandSelectorModule -->
<g id="edge5" class="edge">
<title>ServiceFilterSelectorComponent&#45;&gt;HelgolandSelectorModule</title>
<path fill="none" stroke="#000000" d="M931,-122.1061C931,-122.1061 931,-140.991 931,-140.991"/>
<polygon fill="#000000" stroke="#000000" points="927.5001,-140.9909 931,-150.991 934.5001,-140.991 927.5001,-140.9909"/>
</g>
<!-- ProviderSelectorComponent  -->
<g id="node9" class="node">
<title>ProviderSelectorComponent </title>
<polygon fill="#fb8072" stroke="#000000" points="1451.4096,-252 1272.5904,-252 1272.5904,-216 1451.4096,-216 1451.4096,-252"/>
<text text-anchor="middle" x="1362" y="-229.8" font-family="Times,serif" font-size="14.00" fill="#000000">ProviderSelectorComponent </text>
</g>
<!-- HelgolandSelectorModule&#45;&gt;ProviderSelectorComponent  -->
<g id="edge8" class="edge">
<title>HelgolandSelectorModule&#45;&gt;ProviderSelectorComponent </title>
<path fill="none" stroke="#000000" stroke-dasharray="5,2" d="M1012.9974,-177C1118.5174,-177 1288.4113,-177 1288.4113,-177 1288.4113,-177 1288.4113,-205.9648 1288.4113,-205.9648"/>
<polygon fill="#000000" stroke="#000000" points="1284.9114,-205.9648 1288.4113,-215.9648 1291.9114,-205.9649 1284.9114,-205.9648"/>
</g>
<!-- DatasetByStationSelectorComponent  -->
<g id="node10" class="node">
<title>DatasetByStationSelectorComponent </title>
<polygon fill="#fb8072" stroke="#000000" points="1254.1826,-252 1025.8174,-252 1025.8174,-216 1254.1826,-216 1254.1826,-252"/>
<text text-anchor="middle" x="1140" y="-229.8" font-family="Times,serif" font-size="14.00" fill="#000000">DatasetByStationSelectorComponent </text>
</g>
<!-- HelgolandSelectorModule&#45;&gt;DatasetByStationSelectorComponent  -->
<g id="edge9" class="edge">
<title>HelgolandSelectorModule&#45;&gt;DatasetByStationSelectorComponent </title>
<path fill="none" stroke="#000000" stroke-dasharray="5,2" d="M1012.8461,-182C1028.2924,-182 1039.7209,-182 1039.7209,-182 1039.7209,-182 1039.7209,-205.8129 1039.7209,-205.8129"/>
<polygon fill="#000000" stroke="#000000" points="1036.221,-205.8129 1039.7209,-215.8129 1043.221,-205.813 1036.221,-205.8129"/>
</g>
<!-- ListSelectorComponent  -->
<g id="node11" class="node">
<title>ListSelectorComponent </title>
<polygon fill="#fb8072" stroke="#000000" points="1007.4798,-252 854.5202,-252 854.5202,-216 1007.4798,-216 1007.4798,-252"/>
<text text-anchor="middle" x="931" y="-229.8" font-family="Times,serif" font-size="14.00" fill="#000000">ListSelectorComponent </text>
</g>
<!-- HelgolandSelectorModule&#45;&gt;ListSelectorComponent  -->
<g id="edge10" class="edge">
<title>HelgolandSelectorModule&#45;&gt;ListSelectorComponent </title>
<path fill="none" stroke="#000000" stroke-dasharray="5,2" d="M931,-187.1061C931,-187.1061 931,-205.991 931,-205.991"/>
<polygon fill="#000000" stroke="#000000" points="927.5001,-205.9909 931,-215.991 934.5001,-205.991 927.5001,-205.9909"/>
</g>
<!-- MultiServiceFilterSelectorComponent  -->
<g id="node12" class="node">
<title>MultiServiceFilterSelectorComponent </title>
<polygon fill="#fb8072" stroke="#000000" points="837.1242,-252 602.8758,-252 602.8758,-216 837.1242,-216 837.1242,-252"/>
<text text-anchor="middle" x="720" y="-229.8" font-family="Times,serif" font-size="14.00" fill="#000000">MultiServiceFilterSelectorComponent </text>
</g>
<!-- HelgolandSelectorModule&#45;&gt;MultiServiceFilterSelectorComponent  -->
<g id="edge11" class="edge">
<title>HelgolandSelectorModule&#45;&gt;MultiServiceFilterSelectorComponent </title>
<path fill="none" stroke="#000000" stroke-dasharray="5,2" d="M849.2298,-182C831.9887,-182 818.8917,-182 818.8917,-182 818.8917,-182 818.8917,-205.8129 818.8917,-205.8129"/>
<polygon fill="#000000" stroke="#000000" points="815.3917,-205.8129 818.8917,-215.8129 822.3917,-205.813 815.3917,-205.8129"/>
</g>
<!-- ServiceFilterSelectorComponent  -->
<g id="node13" class="node">
<title>ServiceFilterSelectorComponent </title>
<polygon fill="#fb8072" stroke="#000000" points="584.5078,-252 381.4922,-252 381.4922,-216 584.5078,-216 584.5078,-252"/>
<text text-anchor="middle" x="483" y="-229.8" font-family="Times,serif" font-size="14.00" fill="#000000">ServiceFilterSelectorComponent </text>
</g>
<!-- HelgolandSelectorModule&#45;&gt;ServiceFilterSelectorComponent  -->
<g id="edge12" class="edge">
<title>HelgolandSelectorModule&#45;&gt;ServiceFilterSelectorComponent </title>
<path fill="none" stroke="#000000" stroke-dasharray="5,2" d="M848.7973,-177C728.1878,-177 517.4297,-177 517.4297,-177 517.4297,-177 517.4297,-205.9648 517.4297,-205.9648"/>
<polygon fill="#000000" stroke="#000000" points="513.9298,-205.9648 517.4297,-215.9648 520.9298,-205.9649 513.9298,-205.9648"/>
</g>
<!-- HelgolandDepictionModule -->
<g id="node7" class="node">
<title>HelgolandDepictionModule</title>
<polygon fill="#8dd3c7" stroke="#000000" points="806.5744,-122 803.5744,-126 782.5744,-126 779.5744,-122 633.4256,-122 633.4256,-86 806.5744,-86 806.5744,-122"/>
<text text-anchor="middle" x="720" y="-99.8" font-family="Times,serif" font-size="14.00" fill="#000000">HelgolandDepictionModule</text>
</g>
<!-- HelgolandDepictionModule&#45;&gt;HelgolandSelectorModule -->
<g id="edge6" class="edge">
<title>HelgolandDepictionModule&#45;&gt;HelgolandSelectorModule</title>
<path fill="none" stroke="#000000" d="M720,-122.2396C720,-137.5706 720,-157 720,-157 720,-157 839.1199,-157 839.1199,-157"/>
<polygon fill="#000000" stroke="#000000" points="839.1199,-160.5001 849.1199,-157 839.1199,-153.5001 839.1199,-160.5001"/>
</g>
<!-- HelgolandServicesModule -->
<g id="node8" class="node">
<title>HelgolandServicesModule</title>
<polygon fill="#8dd3c7" stroke="#000000" points="615.7893,-122 612.7893,-126 591.7893,-126 588.7893,-122 450.2107,-122 450.2107,-86 615.7893,-86 615.7893,-122"/>
<text text-anchor="middle" x="533" y="-99.8" font-family="Times,serif" font-size="14.00" fill="#000000">HelgolandServicesModule</text>
</g>
<!-- HelgolandServicesModule&#45;&gt;HelgolandSelectorModule -->
<g id="edge7" class="edge">
<title>HelgolandServicesModule&#45;&gt;HelgolandSelectorModule</title>
<path fill="none" stroke="#000000" d="M609.2912,-122.0336C609.2912,-139.0597 609.2912,-162 609.2912,-162 609.2912,-162 838.9869,-162 838.9869,-162"/>
<polygon fill="#000000" stroke="#000000" points="838.9869,-165.5001 848.9869,-162 838.9869,-158.5001 838.9869,-165.5001"/>
</g>
<!-- ProviderSelectorService -->
<g id="node14" class="node">
<title>ProviderSelectorService</title>
<ellipse fill="#fdb462" stroke="#000000" cx="321" cy="-104" rx="104.7694" ry="18"/>
<text text-anchor="middle" x="321" y="-99.8" font-family="Times,serif" font-size="14.00" fill="#000000">ProviderSelectorService</text>
</g>
<!-- ProviderSelectorService&#45;&gt;HelgolandSelectorModule -->
<g id="edge13" class="edge">
<title>ProviderSelectorService&#45;&gt;HelgolandSelectorModule</title>
<path fill="none" stroke="#000000" d="M403.6904,-115.2631C403.6904,-133.3842 403.6904,-167 403.6904,-167 403.6904,-167 839.1864,-167 839.1864,-167"/>
<polygon fill="#000000" stroke="#000000" points="839.1865,-170.5001 849.1864,-167 839.1864,-163.5001 839.1865,-170.5001"/>
</g>
<!-- ListSelectorService -->
<g id="node15" class="node">
<title>ListSelectorService</title>
<ellipse fill="#fdb462" stroke="#000000" cx="111" cy="-104" rx="86.8068" ry="18"/>
<text text-anchor="middle" x="111" y="-99.8" font-family="Times,serif" font-size="14.00" fill="#000000">ListSelectorService</text>
</g>
<!-- ListSelectorService&#45;&gt;HelgolandSelectorModule -->
<g id="edge14" class="edge">
<title>ListSelectorService&#45;&gt;HelgolandSelectorModule</title>
<path fill="none" stroke="#000000" d="M111,-122.2228C111,-142.3652 111,-172 111,-172 111,-172 838.9995,-172 838.9995,-172"/>
<polygon fill="#000000" stroke="#000000" points="838.9995,-175.5001 848.9995,-172 838.9994,-168.5001 838.9995,-175.5001"/>
</g>
</g>
</svg>
