<?xml version="1.0" encoding="UTF-8" standalone="no"?>
<!DOCTYPE svg PUBLIC "-//W3C//DTD SVG 1.1//EN"
 "http://www.w3.org/Graphics/SVG/1.1/DTD/svg11.dtd">
<!-- Generated by graphviz version 2.40.1 (20161225.0304)
 -->
<!-- Title: dependencies Pages: 1 -->
<svg width="1899pt" height="284pt"
 viewBox="0.00 0.00 1899.00 284.00" xmlns="http://www.w3.org/2000/svg" xmlns:xlink="http://www.w3.org/1999/xlink">
<g id="graph0" class="graph" transform="scale(1 1) rotate(0) translate(4 280)">
<title>dependencies</title>
<polygon fill="#ffffff" stroke="transparent" points="-4,4 -4,-280 1895,-280 1895,4 -4,4"/>
<text text-anchor="start" x="924.5091" y="-42.4" font-family="sans-serif" font-weight="bold" font-size="14.00" fill="#000000">Legend</text>
<polygon fill="#ffffb3" stroke="transparent" points="711.5,-10 711.5,-30 731.5,-30 731.5,-10 711.5,-10"/>
<text text-anchor="start" x="735.129" y="-15.4" font-family="sans-serif" font-size="14.00" fill="#000000"> &#160;Declarations</text>
<polygon fill="#8dd3c7" stroke="transparent" points="824.5,-10 824.5,-30 844.5,-30 844.5,-10 824.5,-10"/>
<text text-anchor="start" x="848.2251" y="-15.4" font-family="sans-serif" font-size="14.00" fill="#000000"> &#160;Module</text>
<polygon fill="#80b1d3" stroke="transparent" points="910.5,-10 910.5,-30 930.5,-30 930.5,-10 910.5,-10"/>
<text text-anchor="start" x="934.2812" y="-15.4" font-family="sans-serif" font-size="14.00" fill="#000000"> &#160;Bootstrap</text>
<polygon fill="#fdb462" stroke="transparent" points="1007.5,-10 1007.5,-30 1027.5,-30 1027.5,-10 1007.5,-10"/>
<text text-anchor="start" x="1031.1732" y="-15.4" font-family="sans-serif" font-size="14.00" fill="#000000"> &#160;Providers</text>
<polygon fill="#fb8072" stroke="transparent" points="1103.5,-10 1103.5,-30 1123.5,-30 1123.5,-10 1103.5,-10"/>
<text text-anchor="start" x="1127.2258" y="-15.4" font-family="sans-serif" font-size="14.00" fill="#000000"> &#160;Exports</text>
<g id="clust1" class="cluster">
<title>cluster_HelgolandSelectorModule</title>
<polygon fill="none" stroke="#000000" stroke-dasharray="1,5" points="8,-70 8,-268 1883,-268 1883,-70 8,-70"/>
</g>
<g id="clust2" class="cluster">
<title>cluster_HelgolandSelectorModule_declarations</title>
<polygon fill="none" stroke="#000000" points="814,-78 814,-130 1875,-130 1875,-78 814,-78"/>
</g>
<g id="clust8" class="cluster">
<title>cluster_HelgolandSelectorModule_imports</title>
<polygon fill="none" stroke="#000000" points="433,-78 433,-130 806,-130 806,-78 433,-78"/>
</g>
<g id="clust9" class="cluster">
<title>cluster_HelgolandSelectorModule_exports</title>
<polygon fill="none" stroke="#000000" points="352,-208 352,-260 1430,-260 1430,-208 352,-208"/>
</g>
<g id="clust11" class="cluster">
<title>cluster_HelgolandSelectorModule_providers</title>
<polygon fill="none" stroke="#000000" points="16,-78 16,-130 425,-130 425,-78 16,-78"/>
</g>
<!-- ServiceSelectorComponent -->
<g id="node1" class="node">
<title>ServiceSelectorComponent</title>
<polygon fill="#ffffb3" stroke="#000000" points="1866.6783,-122 1697.3217,-122 1697.3217,-86 1866.6783,-86 1866.6783,-122"/>
<text text-anchor="middle" x="1782" y="-99.8" font-family="Times,serif" font-size="14.00" fill="#000000">ServiceSelectorComponent</text>
</g>
<!-- HelgolandSelectorModule -->
<g id="node6" class="node">
<title>HelgolandSelectorModule</title>
<polygon fill="#8dd3c7" stroke="#000000" points="977.7352,-187 974.7352,-191 953.7352,-191 950.7352,-187 814.2648,-187 814.2648,-151 977.7352,-151 977.7352,-187"/>
<text text-anchor="middle" x="896" y="-164.8" font-family="Times,serif" font-size="14.00" fill="#000000">HelgolandSelectorModule</text>
</g>
<!-- ServiceSelectorComponent&#45;&gt;HelgolandSelectorModule -->
<g id="edge1" class="edge">
<title>ServiceSelectorComponent&#45;&gt;HelgolandSelectorModule</title>
<path fill="none" stroke="#000000" d="M1782,-122.1061C1782,-141.3391 1782,-169 1782,-169 1782,-169 987.7646,-169 987.7646,-169"/>
<polygon fill="#000000" stroke="#000000" points="987.7647,-165.5001 977.7646,-169 987.7646,-172.5001 987.7647,-165.5001"/>
</g>
<!-- ServiceFilterSelectorComponent -->
<g id="node2" class="node">
<title>ServiceFilterSelectorComponent</title>
<polygon fill="#ffffb3" stroke="#000000" points="1679.5084,-122 1480.4916,-122 1480.4916,-86 1679.5084,-86 1679.5084,-122"/>
<text text-anchor="middle" x="1580" y="-99.8" font-family="Times,serif" font-size="14.00" fill="#000000">ServiceFilterSelectorComponent</text>
</g>
<!-- ServiceFilterSelectorComponent&#45;&gt;HelgolandSelectorModule -->
<g id="edge2" class="edge">
<title>ServiceFilterSelectorComponent&#45;&gt;HelgolandSelectorModule</title>
<path fill="none" stroke="#000000" d="M1580,-122.0225C1580,-139.3734 1580,-163 1580,-163 1580,-163 987.827,-163 987.827,-163"/>
<polygon fill="#000000" stroke="#000000" points="987.827,-159.5001 977.827,-163 987.8269,-166.5001 987.827,-159.5001"/>
</g>
<!-- DatasetByStationSelectorComponent -->
<g id="node3" class="node">
<title>DatasetByStationSelectorComponent</title>
<polygon fill="#ffffb3" stroke="#000000" points="1462.6825,-122 1237.3175,-122 1237.3175,-86 1462.6825,-86 1462.6825,-122"/>
<text text-anchor="middle" x="1350" y="-99.8" font-family="Times,serif" font-size="14.00" fill="#000000">DatasetByStationSelectorComponent</text>
</g>
<!-- DatasetByStationSelectorComponent&#45;&gt;HelgolandSelectorModule -->
<g id="edge3" class="edge">
<title>DatasetByStationSelectorComponent&#45;&gt;HelgolandSelectorModule</title>
<path fill="none" stroke="#000000" d="M1243.5349,-122.2396C1243.5349,-137.5706 1243.5349,-157 1243.5349,-157 1243.5349,-157 987.9208,-157 987.9208,-157"/>
<polygon fill="#000000" stroke="#000000" points="987.9209,-153.5001 977.9208,-157 987.9208,-160.5001 987.9209,-153.5001"/>
</g>
<!-- MultiServiceFilterSelectorComponent -->
<g id="node4" class="node">
<title>MultiServiceFilterSelectorComponent</title>
<polygon fill="#ffffb3" stroke="#000000" points="1219.1245,-122 988.8755,-122 988.8755,-86 1219.1245,-86 1219.1245,-122"/>
<text text-anchor="middle" x="1104" y="-99.8" font-family="Times,serif" font-size="14.00" fill="#000000">MultiServiceFilterSelectorComponent</text>
</g>
<!-- MultiServiceFilterSelectorComponent&#45;&gt;HelgolandSelectorModule -->
<g id="edge4" class="edge">
<title>MultiServiceFilterSelectorComponent&#45;&gt;HelgolandSelectorModule</title>
<path fill="none" stroke="#000000" d="M988.8183,-104C979.8484,-104 974.1785,-104 974.1785,-104 974.1785,-104 974.1785,-140.8939 974.1785,-140.8939"/>
<polygon fill="#000000" stroke="#000000" points="970.6786,-140.8938 974.1785,-150.8939 977.6786,-140.8939 970.6786,-140.8938"/>
</g>
<!-- ListSelectorComponent -->
<g id="node5" class="node">
<title>ListSelectorComponent</title>
<polygon fill="#ffffb3" stroke="#000000" points="970.479,-122 821.521,-122 821.521,-86 970.479,-86 970.479,-122"/>
<text text-anchor="middle" x="896" y="-99.8" font-family="Times,serif" font-size="14.00" fill="#000000">ListSelectorComponent</text>
</g>
<!-- ListSelectorComponent&#45;&gt;HelgolandSelectorModule -->
<g id="edge5" class="edge">
<title>ListSelectorComponent&#45;&gt;HelgolandSelectorModule</title>
<path fill="none" stroke="#000000" d="M896,-122.1061C896,-122.1061 896,-140.991 896,-140.991"/>
<polygon fill="#000000" stroke="#000000" points="892.5001,-140.9909 896,-150.991 899.5001,-140.991 892.5001,-140.9909"/>
</g>
<!-- ServiceSelectorComponent  -->
<g id="node9" class="node">
<title>ServiceSelectorComponent </title>
<polygon fill="#fb8072" stroke="#000000" points="1422.1785,-252 1249.8215,-252 1249.8215,-216 1422.1785,-216 1422.1785,-252"/>
<text text-anchor="middle" x="1336" y="-229.8" font-family="Times,serif" font-size="14.00" fill="#000000">ServiceSelectorComponent </text>
</g>
<!-- HelgolandSelectorModule&#45;&gt;ServiceSelectorComponent  -->
<g id="edge8" class="edge">
<title>HelgolandSelectorModule&#45;&gt;ServiceSelectorComponent </title>
<path fill="none" stroke="#000000" stroke-dasharray="5,2" d="M977.9868,-175C1105.2854,-175 1336,-175 1336,-175 1336,-175 1336,-205.9775 1336,-205.9775"/>
<polygon fill="#000000" stroke="#000000" points="1332.5001,-205.9774 1336,-215.9775 1339.5001,-205.9775 1332.5001,-205.9774"/>
</g>
<!-- ServiceFilterSelectorComponent  -->
<g id="node10" class="node">
<title>ServiceFilterSelectorComponent </title>
<polygon fill="#fb8072" stroke="#000000" points="1231.5078,-252 1028.4922,-252 1028.4922,-216 1231.5078,-216 1231.5078,-252"/>
<text text-anchor="middle" x="1130" y="-229.8" font-family="Times,serif" font-size="14.00" fill="#000000">ServiceFilterSelectorComponent </text>
</g>
<!-- HelgolandSelectorModule&#45;&gt;ServiceFilterSelectorComponent  -->
<g id="edge9" class="edge">
<title>HelgolandSelectorModule&#45;&gt;ServiceFilterSelectorComponent </title>
<path fill="none" stroke="#000000" stroke-dasharray="5,2" d="M977.9566,-181C1043.2945,-181 1123.9041,-181 1123.9041,-181 1123.9041,-181 1123.9041,-205.7604 1123.9041,-205.7604"/>
<polygon fill="#000000" stroke="#000000" points="1120.4042,-205.7604 1123.9041,-215.7604 1127.4042,-205.7604 1120.4042,-205.7604"/>
</g>
<!-- DatasetByStationSelectorComponent  -->
<g id="node11" class="node">
<title>DatasetByStationSelectorComponent </title>
<polygon fill="#fb8072" stroke="#000000" points="1010.1826,-252 781.8174,-252 781.8174,-216 1010.1826,-216 1010.1826,-252"/>
<text text-anchor="middle" x="896" y="-229.8" font-family="Times,serif" font-size="14.00" fill="#000000">DatasetByStationSelectorComponent </text>
</g>
<!-- HelgolandSelectorModule&#45;&gt;DatasetByStationSelectorComponent  -->
<g id="edge10" class="edge">
<title>HelgolandSelectorModule&#45;&gt;DatasetByStationSelectorComponent </title>
<path fill="none" stroke="#000000" stroke-dasharray="5,2" d="M896,-187.1061C896,-187.1061 896,-205.991 896,-205.991"/>
<polygon fill="#000000" stroke="#000000" points="892.5001,-205.9909 896,-215.991 899.5001,-205.991 892.5001,-205.9909"/>
</g>
<!-- MultiServiceFilterSelectorComponent  -->
<g id="node12" class="node">
<title>MultiServiceFilterSelectorComponent </title>
<polygon fill="#fb8072" stroke="#000000" points="764.1242,-252 529.8758,-252 529.8758,-216 764.1242,-216 764.1242,-252"/>
<text text-anchor="middle" x="647" y="-229.8" font-family="Times,serif" font-size="14.00" fill="#000000">MultiServiceFilterSelectorComponent </text>
</g>
<!-- HelgolandSelectorModule&#45;&gt;MultiServiceFilterSelectorComponent  -->
<g id="edge11" class="edge">
<title>HelgolandSelectorModule&#45;&gt;MultiServiceFilterSelectorComponent </title>
<path fill="none" stroke="#000000" stroke-dasharray="5,2" d="M814.1175,-181C754.5205,-181 684.2126,-181 684.2126,-181 684.2126,-181 684.2126,-205.7604 684.2126,-205.7604"/>
<polygon fill="#000000" stroke="#000000" points="680.7127,-205.7604 684.2126,-215.7604 687.7127,-205.7604 680.7127,-205.7604"/>
</g>
<!-- ListSelectorComponent  -->
<g id="node13" class="node">
<title>ListSelectorComponent </title>
<polygon fill="#fb8072" stroke="#000000" points="512.4798,-252 359.5202,-252 359.5202,-216 512.4798,-216 512.4798,-252"/>
<text text-anchor="middle" x="436" y="-229.8" font-family="Times,serif" font-size="14.00" fill="#000000">ListSelectorComponent </text>
</g>
<!-- HelgolandSelectorModule&#45;&gt;ListSelectorComponent  -->
<g id="edge12" class="edge">
<title>HelgolandSelectorModule&#45;&gt;ListSelectorComponent </title>
<path fill="none" stroke="#000000" stroke-dasharray="5,2" d="M814.1887,-175C692.2084,-175 476.8501,-175 476.8501,-175 476.8501,-175 476.8501,-205.9775 476.8501,-205.9775"/>
<polygon fill="#000000" stroke="#000000" points="473.3502,-205.9774 476.8501,-215.9775 480.3502,-205.9775 473.3502,-205.9774"/>
</g>
<!-- HelgolandLabelMapperModule -->
<g id="node7" class="node">
<title>HelgolandLabelMapperModule</title>
<polygon fill="#8dd3c7" stroke="#000000" points="797.7738,-122 794.7738,-126 773.7738,-126 770.7738,-122 604.2262,-122 604.2262,-86 797.7738,-86 797.7738,-122"/>
<text text-anchor="middle" x="701" y="-99.8" font-family="Times,serif" font-size="14.00" fill="#000000">HelgolandLabelMapperModule</text>
</g>
<!-- HelgolandLabelMapperModule&#45;&gt;HelgolandSelectorModule -->
<g id="edge6" class="edge">
<title>HelgolandLabelMapperModule&#45;&gt;HelgolandSelectorModule</title>
<path fill="none" stroke="#000000" d="M797.7392,-104C809.6997,-104 817.8215,-104 817.8215,-104 817.8215,-104 817.8215,-140.8939 817.8215,-140.8939"/>
<polygon fill="#000000" stroke="#000000" points="814.3216,-140.8938 817.8215,-150.8939 821.3216,-140.8939 814.3216,-140.8938"/>
</g>
<!-- HelgolandCoreModule -->
<g id="node8" class="node">
<title>HelgolandCoreModule</title>
<polygon fill="#8dd3c7" stroke="#000000" points="586.5786,-122 583.5786,-126 562.5786,-126 559.5786,-122 441.4214,-122 441.4214,-86 586.5786,-86 586.5786,-122"/>
<text text-anchor="middle" x="514" y="-99.8" font-family="Times,serif" font-size="14.00" fill="#000000">HelgolandCoreModule</text>
</g>
<!-- HelgolandCoreModule&#45;&gt;HelgolandSelectorModule -->
<g id="edge7" class="edge">
<title>HelgolandCoreModule&#45;&gt;HelgolandSelectorModule</title>
<path fill="none" stroke="#000000" d="M558.2386,-122.2396C558.2386,-137.5706 558.2386,-157 558.2386,-157 558.2386,-157 804.2374,-157 804.2374,-157"/>
<polygon fill="#000000" stroke="#000000" points="804.2374,-160.5001 814.2374,-157 804.2374,-153.5001 804.2374,-160.5001"/>
</g>
<!-- ServiceSelectorService -->
<g id="node14" class="node">
<title>ServiceSelectorService</title>
<ellipse fill="#fdb462" stroke="#000000" cx="316" cy="-104" rx="100.6727" ry="18"/>
<text text-anchor="middle" x="316" y="-99.8" font-family="Times,serif" font-size="14.00" fill="#000000">ServiceSelectorService</text>
</g>
<!-- ServiceSelectorService&#45;&gt;HelgolandSelectorModule -->
<g id="edge13" class="edge">
<title>ServiceSelectorService&#45;&gt;HelgolandSelectorModule</title>
<path fill="none" stroke="#000000" d="M388.1734,-116.8021C388.1734,-134.1545 388.1734,-163 388.1734,-163 388.1734,-163 804.1269,-163 804.1269,-163"/>
<polygon fill="#000000" stroke="#000000" points="804.1269,-166.5001 814.1269,-163 804.1268,-159.5001 804.1269,-166.5001"/>
</g>
<!-- ListSelectorService -->
<g id="node15" class="node">
<title>ListSelectorService</title>
<ellipse fill="#fdb462" stroke="#000000" cx="111" cy="-104" rx="86.8068" ry="18"/>
<text text-anchor="middle" x="111" y="-99.8" font-family="Times,serif" font-size="14.00" fill="#000000">ListSelectorService</text>
</g>
<!-- ListSelectorService&#45;&gt;HelgolandSelectorModule -->
<g id="edge14" class="edge">
<title>ListSelectorService&#45;&gt;HelgolandSelectorModule</title>
<path fill="none" stroke="#000000" d="M111,-122.1061C111,-141.3391 111,-169 111,-169 111,-169 804.2128,-169 804.2128,-169"/>
<polygon fill="#000000" stroke="#000000" points="804.2128,-172.5001 814.2128,-169 804.2127,-165.5001 804.2128,-172.5001"/>
</g>
</g>
</svg>
