<?xml version="1.0" encoding="UTF-8" standalone="no"?>
<!DOCTYPE svg PUBLIC "-//W3C//DTD SVG 1.1//EN"
 "http://www.w3.org/Graphics/SVG/1.1/DTD/svg11.dtd">
<!-- Generated by graphviz version 2.40.1 (20161225.0304)
 -->
<!-- Title: dependencies Pages: 1 -->
<svg width="2140pt" height="284pt"
 viewBox="0.00 0.00 2140.00 284.00" xmlns="http://www.w3.org/2000/svg" xmlns:xlink="http://www.w3.org/1999/xlink">
<g id="graph0" class="graph" transform="scale(1 1) rotate(0) translate(4 280)">
<title>dependencies</title>
<polygon fill="#ffffff" stroke="transparent" points="-4,4 -4,-280 2136,-280 2136,4 -4,4"/>
<text text-anchor="start" x="1045.0091" y="-42.4" font-family="sans-serif" font-weight="bold" font-size="14.00" fill="#000000">Legend</text>
<polygon fill="#ffffb3" stroke="transparent" points="832,-10 832,-30 852,-30 852,-10 832,-10"/>
<text text-anchor="start" x="855.629" y="-15.4" font-family="sans-serif" font-size="14.00" fill="#000000"> &#160;Declarations</text>
<polygon fill="#8dd3c7" stroke="transparent" points="945,-10 945,-30 965,-30 965,-10 945,-10"/>
<text text-anchor="start" x="968.7251" y="-15.4" font-family="sans-serif" font-size="14.00" fill="#000000"> &#160;Module</text>
<polygon fill="#80b1d3" stroke="transparent" points="1031,-10 1031,-30 1051,-30 1051,-10 1031,-10"/>
<text text-anchor="start" x="1054.7812" y="-15.4" font-family="sans-serif" font-size="14.00" fill="#000000"> &#160;Bootstrap</text>
<polygon fill="#fdb462" stroke="transparent" points="1128,-10 1128,-30 1148,-30 1148,-10 1128,-10"/>
<text text-anchor="start" x="1151.6732" y="-15.4" font-family="sans-serif" font-size="14.00" fill="#000000"> &#160;Providers</text>
<polygon fill="#fb8072" stroke="transparent" points="1224,-10 1224,-30 1244,-30 1244,-10 1224,-10"/>
<text text-anchor="start" x="1247.7258" y="-15.4" font-family="sans-serif" font-size="14.00" fill="#000000"> &#160;Exports</text>
<g id="clust1" class="cluster">
<title>cluster_HelgolandSelectorModule</title>
<polygon fill="none" stroke="#000000" stroke-dasharray="1,5" points="8,-70 8,-268 2124,-268 2124,-70 8,-70"/>
</g>
<g id="clust2" class="cluster">
<title>cluster_HelgolandSelectorModule_declarations</title>
<polygon fill="none" stroke="#000000" points="823,-78 823,-130 2116,-130 2116,-78 823,-78"/>
</g>
<g id="clust9" class="cluster">
<title>cluster_HelgolandSelectorModule_imports</title>
<polygon fill="none" stroke="#000000" points="442,-78 442,-130 815,-130 815,-78 442,-78"/>
</g>
<g id="clust10" class="cluster">
<title>cluster_HelgolandSelectorModule_exports</title>
<polygon fill="none" stroke="#000000" points="365,-208 365,-260 1679,-260 1679,-208 365,-208"/>
</g>
<g id="clust12" class="cluster">
<title>cluster_HelgolandSelectorModule_providers</title>
<polygon fill="none" stroke="#000000" points="16,-78 16,-130 434,-130 434,-78 16,-78"/>
</g>
<!-- ProviderSelectorComponent -->
<g id="node1" class="node">
<title>ProviderSelectorComponent</title>
<polygon fill="#ffffb3" stroke="#000000" points="2107.9101,-122 1932.0899,-122 1932.0899,-86 2107.9101,-86 2107.9101,-122"/>
<text text-anchor="middle" x="2020" y="-99.8" font-family="Times,serif" font-size="14.00" fill="#000000">ProviderSelectorComponent</text>
</g>
<!-- HelgolandSelectorModule -->
<g id="node7" class="node">
<title>HelgolandSelectorModule</title>
<polygon fill="#8dd3c7" stroke="#000000" points="1126.7352,-187 1123.7352,-191 1102.7352,-191 1099.7352,-187 963.2648,-187 963.2648,-151 1126.7352,-151 1126.7352,-187"/>
<text text-anchor="middle" x="1045" y="-164.8" font-family="Times,serif" font-size="14.00" fill="#000000">HelgolandSelectorModule</text>
</g>
<!-- ProviderSelectorComponent&#45;&gt;HelgolandSelectorModule -->
<g id="edge1" class="edge">
<title>ProviderSelectorComponent&#45;&gt;HelgolandSelectorModule</title>
<path fill="none" stroke="#000000" d="M2020,-122.2228C2020,-142.3652 2020,-172 2020,-172 2020,-172 1136.8689,-172 1136.8689,-172"/>
<polygon fill="#000000" stroke="#000000" points="1136.8689,-168.5001 1126.8689,-172 1136.8688,-175.5001 1136.8689,-168.5001"/>
</g>
<!-- DatasetByStationSelectorComponent -->
<g id="node2" class="node">
<title>DatasetByStationSelectorComponent</title>
<polygon fill="#ffffb3" stroke="#000000" points="1914.6825,-122 1689.3175,-122 1689.3175,-86 1914.6825,-86 1914.6825,-122"/>
<text text-anchor="middle" x="1802" y="-99.8" font-family="Times,serif" font-size="14.00" fill="#000000">DatasetByStationSelectorComponent</text>
</g>
<!-- DatasetByStationSelectorComponent&#45;&gt;HelgolandSelectorModule -->
<g id="edge2" class="edge">
<title>DatasetByStationSelectorComponent&#45;&gt;HelgolandSelectorModule</title>
<path fill="none" stroke="#000000" d="M1802,-122.2222C1802,-140.8285 1802,-167 1802,-167 1802,-167 1137.0921,-167 1137.0921,-167"/>
<polygon fill="#000000" stroke="#000000" points="1137.0921,-163.5001 1127.0921,-167 1137.0921,-170.5001 1137.0921,-163.5001"/>
</g>
<!-- ListSelectorComponent -->
<g id="node3" class="node">
<title>ListSelectorComponent</title>
<polygon fill="#ffffb3" stroke="#000000" points="1671.479,-122 1522.521,-122 1522.521,-86 1671.479,-86 1671.479,-122"/>
<text text-anchor="middle" x="1597" y="-99.8" font-family="Times,serif" font-size="14.00" fill="#000000">ListSelectorComponent</text>
</g>
<!-- ListSelectorComponent&#45;&gt;HelgolandSelectorModule -->
<g id="edge3" class="edge">
<title>ListSelectorComponent&#45;&gt;HelgolandSelectorModule</title>
<path fill="none" stroke="#000000" d="M1596.9827,-122.0336C1596.9827,-139.0597 1596.9827,-162 1596.9827,-162 1596.9827,-162 1136.7439,-162 1136.7439,-162"/>
<polygon fill="#000000" stroke="#000000" points="1136.744,-158.5001 1126.7439,-162 1136.7439,-165.5001 1136.744,-158.5001"/>
</g>
<!-- MultiServiceFilterSelectorComponent -->
<g id="node4" class="node">
<title>MultiServiceFilterSelectorComponent</title>
<polygon fill="#ffffb3" stroke="#000000" points="1504.1245,-122 1273.8755,-122 1273.8755,-86 1504.1245,-86 1504.1245,-122"/>
<text text-anchor="middle" x="1389" y="-99.8" font-family="Times,serif" font-size="14.00" fill="#000000">MultiServiceFilterSelectorComponent</text>
</g>
<!-- MultiServiceFilterSelectorComponent&#45;&gt;HelgolandSelectorModule -->
<g id="edge4" class="edge">
<title>MultiServiceFilterSelectorComponent&#45;&gt;HelgolandSelectorModule</title>
<path fill="none" stroke="#000000" d="M1374.0145,-122.2396C1374.0145,-137.5706 1374.0145,-157 1374.0145,-157 1374.0145,-157 1136.7522,-157 1136.7522,-157"/>
<polygon fill="#000000" stroke="#000000" points="1136.7522,-153.5001 1126.7522,-157 1136.7521,-160.5001 1136.7522,-153.5001"/>
</g>
<!-- ServiceFilterSelectorComponent -->
<g id="node5" class="node">
<title>ServiceFilterSelectorComponent</title>
<polygon fill="#ffffb3" stroke="#000000" points="1255.5084,-122 1056.4916,-122 1056.4916,-86 1255.5084,-86 1255.5084,-122"/>
<text text-anchor="middle" x="1156" y="-99.8" font-family="Times,serif" font-size="14.00" fill="#000000">ServiceFilterSelectorComponent</text>
</g>
<!-- ServiceFilterSelectorComponent&#45;&gt;HelgolandSelectorModule -->
<g id="edge5" class="edge">
<title>ServiceFilterSelectorComponent&#45;&gt;HelgolandSelectorModule</title>
<path fill="none" stroke="#000000" d="M1091.5568,-122.1061C1091.5568,-122.1061 1091.5568,-140.991 1091.5568,-140.991"/>
<polygon fill="#000000" stroke="#000000" points="1088.0569,-140.9909 1091.5568,-150.991 1095.0569,-140.991 1088.0569,-140.9909"/>
</g>
<!-- MultiPhenomenonListComponent -->
<g id="node6" class="node">
<title>MultiPhenomenonListComponent</title>
<polygon fill="#ffffb3" stroke="#000000" points="1038.8299,-122 831.1701,-122 831.1701,-86 1038.8299,-86 1038.8299,-122"/>
<text text-anchor="middle" x="935" y="-99.8" font-family="Times,serif" font-size="14.00" fill="#000000">MultiPhenomenonListComponent</text>
</g>
<!-- MultiPhenomenonListComponent&#45;&gt;HelgolandSelectorModule -->
<g id="edge6" class="edge">
<title>MultiPhenomenonListComponent&#45;&gt;HelgolandSelectorModule</title>
<path fill="none" stroke="#000000" d="M1000.8987,-122.1061C1000.8987,-122.1061 1000.8987,-140.991 1000.8987,-140.991"/>
<polygon fill="#000000" stroke="#000000" points="997.3987,-140.9909 1000.8987,-150.991 1004.3987,-140.991 997.3987,-140.9909"/>
</g>
<!-- ProviderSelectorComponent  -->
<g id="node10" class="node">
<title>ProviderSelectorComponent </title>
<polygon fill="#fb8072" stroke="#000000" points="1671.4096,-252 1492.5904,-252 1492.5904,-216 1671.4096,-216 1671.4096,-252"/>
<text text-anchor="middle" x="1582" y="-229.8" font-family="Times,serif" font-size="14.00" fill="#000000">ProviderSelectorComponent </text>
</g>
<!-- HelgolandSelectorModule&#45;&gt;ProviderSelectorComponent  -->
<g id="edge9" class="edge">
<title>HelgolandSelectorModule&#45;&gt;ProviderSelectorComponent </title>
<path fill="none" stroke="#000000" stroke-dasharray="5,2" d="M1126.8499,-177C1257.4555,-177 1498.4287,-177 1498.4287,-177 1498.4287,-177 1498.4287,-205.9648 1498.4287,-205.9648"/>
<polygon fill="#000000" stroke="#000000" points="1494.9287,-205.9648 1498.4287,-215.9648 1501.9287,-205.9649 1494.9287,-205.9648"/>
</g>
<!-- DatasetByStationSelectorComponent  -->
<g id="node11" class="node">
<title>DatasetByStationSelectorComponent </title>
<polygon fill="#fb8072" stroke="#000000" points="1474.1826,-252 1245.8174,-252 1245.8174,-216 1474.1826,-216 1474.1826,-252"/>
<text text-anchor="middle" x="1360" y="-229.8" font-family="Times,serif" font-size="14.00" fill="#000000">DatasetByStationSelectorComponent </text>
</g>
<!-- HelgolandSelectorModule&#45;&gt;DatasetByStationSelectorComponent  -->
<g id="edge10" class="edge">
<title>HelgolandSelectorModule&#45;&gt;DatasetByStationSelectorComponent </title>
<path fill="none" stroke="#000000" stroke-dasharray="5,2" d="M1126.8917,-182C1184.2565,-182 1250.7064,-182 1250.7064,-182 1250.7064,-182 1250.7064,-205.8129 1250.7064,-205.8129"/>
<polygon fill="#000000" stroke="#000000" points="1247.2064,-205.8129 1250.7064,-215.8129 1254.2064,-205.813 1247.2064,-205.8129"/>
</g>
<!-- ListSelectorComponent  -->
<g id="node12" class="node">
<title>ListSelectorComponent </title>
<polygon fill="#fb8072" stroke="#000000" points="1227.4798,-252 1074.5202,-252 1074.5202,-216 1227.4798,-216 1227.4798,-252"/>
<text text-anchor="middle" x="1151" y="-229.8" font-family="Times,serif" font-size="14.00" fill="#000000">ListSelectorComponent </text>
</g>
<!-- HelgolandSelectorModule&#45;&gt;ListSelectorComponent  -->
<g id="edge11" class="edge">
<title>HelgolandSelectorModule&#45;&gt;ListSelectorComponent </title>
<path fill="none" stroke="#000000" stroke-dasharray="5,2" d="M1100.814,-187.1061C1100.814,-187.1061 1100.814,-205.991 1100.814,-205.991"/>
<polygon fill="#000000" stroke="#000000" points="1097.3141,-205.9909 1100.814,-215.991 1104.3141,-205.991 1097.3141,-205.9909"/>
</g>
<!-- MultiServiceFilterSelectorComponent  -->
<g id="node13" class="node">
<title>MultiServiceFilterSelectorComponent </title>
<polygon fill="#fb8072" stroke="#000000" points="1057.1242,-252 822.8758,-252 822.8758,-216 1057.1242,-216 1057.1242,-252"/>
<text text-anchor="middle" x="940" y="-229.8" font-family="Times,serif" font-size="14.00" fill="#000000">MultiServiceFilterSelectorComponent </text>
</g>
<!-- HelgolandSelectorModule&#45;&gt;MultiServiceFilterSelectorComponent  -->
<g id="edge12" class="edge">
<title>HelgolandSelectorModule&#45;&gt;MultiServiceFilterSelectorComponent </title>
<path fill="none" stroke="#000000" stroke-dasharray="5,2" d="M1010.0973,-187.1061C1010.0973,-187.1061 1010.0973,-205.991 1010.0973,-205.991"/>
<polygon fill="#000000" stroke="#000000" points="1006.5974,-205.9909 1010.0973,-215.991 1013.5974,-205.991 1006.5974,-205.9909"/>
</g>
<!-- ServiceFilterSelectorComponent  -->
<g id="node14" class="node">
<title>ServiceFilterSelectorComponent </title>
<polygon fill="#fb8072" stroke="#000000" points="804.5078,-252 601.4922,-252 601.4922,-216 804.5078,-216 804.5078,-252"/>
<text text-anchor="middle" x="703" y="-229.8" font-family="Times,serif" font-size="14.00" fill="#000000">ServiceFilterSelectorComponent </text>
</g>
<!-- HelgolandSelectorModule&#45;&gt;ServiceFilterSelectorComponent  -->
<g id="edge13" class="edge">
<title>HelgolandSelectorModule&#45;&gt;ServiceFilterSelectorComponent </title>
<path fill="none" stroke="#000000" stroke-dasharray="5,2" d="M963.22,-182C858.5206,-182 690.4765,-182 690.4765,-182 690.4765,-182 690.4765,-205.8129 690.4765,-205.8129"/>
<polygon fill="#000000" stroke="#000000" points="686.9766,-205.8129 690.4765,-215.8129 693.9766,-205.813 686.9766,-205.8129"/>
</g>
<!-- MultiPhenomenonListComponent  -->
<g id="node15" class="node">
<title>MultiPhenomenonListComponent </title>
<polygon fill="#fb8072" stroke="#000000" points="583.3297,-252 372.6703,-252 372.6703,-216 583.3297,-216 583.3297,-252"/>
<text text-anchor="middle" x="478" y="-229.8" font-family="Times,serif" font-size="14.00" fill="#000000">MultiPhenomenonListComponent </text>
</g>
<!-- HelgolandSelectorModule&#45;&gt;MultiPhenomenonListComponent  -->
<g id="edge14" class="edge">
<title>HelgolandSelectorModule&#45;&gt;MultiPhenomenonListComponent </title>
<path fill="none" stroke="#000000" stroke-dasharray="5,2" d="M963.0615,-177C814.7239,-177 516.8852,-177 516.8852,-177 516.8852,-177 516.8852,-205.9648 516.8852,-205.9648"/>
<polygon fill="#000000" stroke="#000000" points="513.3852,-205.9648 516.8852,-215.9648 520.3852,-205.9649 513.3852,-205.9648"/>
</g>
<!-- HelgolandDepictionModule -->
<g id="node8" class="node">
<title>HelgolandDepictionModule</title>
<polygon fill="#8dd3c7" stroke="#000000" points="806.5744,-122 803.5744,-126 782.5744,-126 779.5744,-122 633.4256,-122 633.4256,-86 806.5744,-86 806.5744,-122"/>
<text text-anchor="middle" x="720" y="-99.8" font-family="Times,serif" font-size="14.00" fill="#000000">HelgolandDepictionModule</text>
</g>
<!-- HelgolandDepictionModule&#45;&gt;HelgolandSelectorModule -->
<g id="edge7" class="edge">
<title>HelgolandDepictionModule&#45;&gt;HelgolandSelectorModule</title>
<path fill="none" stroke="#000000" d="M747.4902,-122.2396C747.4902,-137.5706 747.4902,-157 747.4902,-157 747.4902,-157 952.9166,-157 952.9166,-157"/>
<polygon fill="#000000" stroke="#000000" points="952.9166,-160.5001 962.9166,-157 952.9166,-153.5001 952.9166,-160.5001"/>
</g>
<!-- HelgolandServicesModule -->
<g id="node9" class="node">
<title>HelgolandServicesModule</title>
<polygon fill="#8dd3c7" stroke="#000000" points="615.7893,-122 612.7893,-126 591.7893,-126 588.7893,-122 450.2107,-122 450.2107,-86 615.7893,-86 615.7893,-122"/>
<text text-anchor="middle" x="533" y="-99.8" font-family="Times,serif" font-size="14.00" fill="#000000">HelgolandServicesModule</text>
</g>
<!-- HelgolandServicesModule&#45;&gt;HelgolandSelectorModule -->
<g id="edge8" class="edge">
<title>HelgolandServicesModule&#45;&gt;HelgolandSelectorModule</title>
<path fill="none" stroke="#000000" d="M608.5703,-122.0336C608.5703,-139.0597 608.5703,-162 608.5703,-162 608.5703,-162 953.167,-162 953.167,-162"/>
<polygon fill="#000000" stroke="#000000" points="953.1671,-165.5001 963.167,-162 953.167,-158.5001 953.1671,-165.5001"/>
</g>
<!-- ProviderSelectorService -->
<g id="node16" class="node">
<title>ProviderSelectorService</title>
<ellipse fill="#fdb462" stroke="#000000" cx="321" cy="-104" rx="104.7694" ry="18"/>
<text text-anchor="middle" x="321" y="-99.8" font-family="Times,serif" font-size="14.00" fill="#000000">ProviderSelectorService</text>
</g>
<!-- ProviderSelectorService&#45;&gt;HelgolandSelectorModule -->
<g id="edge15" class="edge">
<title>ProviderSelectorService&#45;&gt;HelgolandSelectorModule</title>
<path fill="none" stroke="#000000" d="M399.2349,-116.147C399.2349,-134.4541 399.2349,-167 399.2349,-167 399.2349,-167 953.2134,-167 953.2134,-167"/>
<polygon fill="#000000" stroke="#000000" points="953.2134,-170.5001 963.2134,-167 953.2134,-163.5001 953.2134,-170.5001"/>
</g>
<!-- ListSelectorService -->
<g id="node17" class="node">
<title>ListSelectorService</title>
<ellipse fill="#fdb462" stroke="#000000" cx="111" cy="-104" rx="86.8068" ry="18"/>
<text text-anchor="middle" x="111" y="-99.8" font-family="Times,serif" font-size="14.00" fill="#000000">ListSelectorService</text>
</g>
<!-- ListSelectorService&#45;&gt;HelgolandSelectorModule -->
<g id="edge16" class="edge">
<title>ListSelectorService&#45;&gt;HelgolandSelectorModule</title>
<path fill="none" stroke="#000000" d="M111,-122.2228C111,-142.3652 111,-172 111,-172 111,-172 952.9323,-172 952.9323,-172"/>
<polygon fill="#000000" stroke="#000000" points="952.9324,-175.5001 962.9323,-172 952.9323,-168.5001 952.9324,-175.5001"/>
</g>
</g>
</svg>
