<?xml version="1.0" encoding="UTF-8" standalone="no"?>
<!DOCTYPE svg PUBLIC "-//W3C//DTD SVG 1.1//EN"
 "http://www.w3.org/Graphics/SVG/1.1/DTD/svg11.dtd">
<!-- Generated by graphviz version 2.40.1 (20161225.0304)
 -->
<!-- Title: dependencies Pages: 1 -->
<svg width="1900pt" height="284pt"
 viewBox="0.00 0.00 1900.00 284.00" xmlns="http://www.w3.org/2000/svg" xmlns:xlink="http://www.w3.org/1999/xlink">
<g id="graph0" class="graph" transform="scale(1 1) rotate(0) translate(4 280)">
<title>dependencies</title>
<polygon fill="#ffffff" stroke="transparent" points="-4,4 -4,-280 1896,-280 1896,4 -4,4"/>
<text text-anchor="start" x="925.0091" y="-42.4" font-family="sans-serif" font-weight="bold" font-size="14.00" fill="#000000">Legend</text>
<polygon fill="#ffffb3" stroke="transparent" points="712,-10 712,-30 732,-30 732,-10 712,-10"/>
<text text-anchor="start" x="735.629" y="-15.4" font-family="sans-serif" font-size="14.00" fill="#000000"> &#160;Declarations</text>
<polygon fill="#8dd3c7" stroke="transparent" points="825,-10 825,-30 845,-30 845,-10 825,-10"/>
<text text-anchor="start" x="848.7251" y="-15.4" font-family="sans-serif" font-size="14.00" fill="#000000"> &#160;Module</text>
<polygon fill="#80b1d3" stroke="transparent" points="911,-10 911,-30 931,-30 931,-10 911,-10"/>
<text text-anchor="start" x="934.7812" y="-15.4" font-family="sans-serif" font-size="14.00" fill="#000000"> &#160;Bootstrap</text>
<polygon fill="#fdb462" stroke="transparent" points="1008,-10 1008,-30 1028,-30 1028,-10 1008,-10"/>
<text text-anchor="start" x="1031.6732" y="-15.4" font-family="sans-serif" font-size="14.00" fill="#000000"> &#160;Providers</text>
<polygon fill="#fb8072" stroke="transparent" points="1104,-10 1104,-30 1124,-30 1124,-10 1104,-10"/>
<text text-anchor="start" x="1127.7258" y="-15.4" font-family="sans-serif" font-size="14.00" fill="#000000"> &#160;Exports</text>
<g id="clust1" class="cluster">
<title>cluster_HelgolandSelectorModule</title>
<polygon fill="none" stroke="#000000" stroke-dasharray="1,5" points="8,-70 8,-268 1884,-268 1884,-70 8,-70"/>
</g>
<g id="clust2" class="cluster">
<title>cluster_HelgolandSelectorModule_declarations</title>
<polygon fill="none" stroke="#000000" points="814,-78 814,-130 1876,-130 1876,-78 814,-78"/>
</g>
<g id="clust8" class="cluster">
<title>cluster_HelgolandSelectorModule_imports</title>
<polygon fill="none" stroke="#000000" points="433,-78 433,-130 806,-130 806,-78 433,-78"/>
</g>
<g id="clust9" class="cluster">
<title>cluster_HelgolandSelectorModule_exports</title>
<polygon fill="none" stroke="#000000" points="370,-208 370,-260 1449,-260 1449,-208 370,-208"/>
</g>
<g id="clust11" class="cluster">
<title>cluster_HelgolandSelectorModule_providers</title>
<polygon fill="none" stroke="#000000" points="16,-78 16,-130 425,-130 425,-78 16,-78"/>
</g>
<!-- DatasetByStationSelectorComponent -->
<g id="node1" class="node">
<title>DatasetByStationSelectorComponent</title>
<polygon fill="#ffffb3" stroke="#000000" points="1867.6825,-122 1642.3175,-122 1642.3175,-86 1867.6825,-86 1867.6825,-122"/>
<text text-anchor="middle" x="1755" y="-99.8" font-family="Times,serif" font-size="14.00" fill="#000000">DatasetByStationSelectorComponent</text>
</g>
<!-- HelgolandSelectorModule -->
<g id="node6" class="node">
<title>HelgolandSelectorModule</title>
<polygon fill="#8dd3c7" stroke="#000000" points="988.7352,-187 985.7352,-191 964.7352,-191 961.7352,-187 825.2648,-187 825.2648,-151 988.7352,-151 988.7352,-187"/>
<text text-anchor="middle" x="907" y="-164.8" font-family="Times,serif" font-size="14.00" fill="#000000">HelgolandSelectorModule</text>
</g>
<!-- DatasetByStationSelectorComponent&#45;&gt;HelgolandSelectorModule -->
<g id="edge1" class="edge">
<title>DatasetByStationSelectorComponent&#45;&gt;HelgolandSelectorModule</title>
<path fill="none" stroke="#000000" d="M1755,-122.2228C1755,-142.3652 1755,-172 1755,-172 1755,-172 999.0803,-172 999.0803,-172"/>
<polygon fill="#000000" stroke="#000000" points="999.0803,-168.5001 989.0803,-172 999.0803,-175.5001 999.0803,-168.5001"/>
</g>
<!-- ListSelectorComponent -->
<g id="node2" class="node">
<title>ListSelectorComponent</title>
<polygon fill="#ffffb3" stroke="#000000" points="1624.479,-122 1475.521,-122 1475.521,-86 1624.479,-86 1624.479,-122"/>
<text text-anchor="middle" x="1550" y="-99.8" font-family="Times,serif" font-size="14.00" fill="#000000">ListSelectorComponent</text>
</g>
<!-- ListSelectorComponent&#45;&gt;HelgolandSelectorModule -->
<g id="edge2" class="edge">
<title>ListSelectorComponent&#45;&gt;HelgolandSelectorModule</title>
<path fill="none" stroke="#000000" d="M1550,-122.2222C1550,-140.8285 1550,-167 1550,-167 1550,-167 998.7627,-167 998.7627,-167"/>
<polygon fill="#000000" stroke="#000000" points="998.7627,-163.5001 988.7627,-167 998.7627,-170.5001 998.7627,-163.5001"/>
</g>
<!-- MultiServiceFilterSelectorComponent -->
<g id="node3" class="node">
<title>MultiServiceFilterSelectorComponent</title>
<polygon fill="#ffffb3" stroke="#000000" points="1457.1245,-122 1226.8755,-122 1226.8755,-86 1457.1245,-86 1457.1245,-122"/>
<text text-anchor="middle" x="1342" y="-99.8" font-family="Times,serif" font-size="14.00" fill="#000000">MultiServiceFilterSelectorComponent</text>
</g>
<!-- MultiServiceFilterSelectorComponent&#45;&gt;HelgolandSelectorModule -->
<g id="edge3" class="edge">
<title>MultiServiceFilterSelectorComponent&#45;&gt;HelgolandSelectorModule</title>
<path fill="none" stroke="#000000" d="M1334.0145,-122.0336C1334.0145,-139.0597 1334.0145,-162 1334.0145,-162 1334.0145,-162 998.8275,-162 998.8275,-162"/>
<polygon fill="#000000" stroke="#000000" points="998.8275,-158.5001 988.8275,-162 998.8274,-165.5001 998.8275,-158.5001"/>
</g>
<!-- ServiceFilterSelectorComponent -->
<g id="node4" class="node">
<title>ServiceFilterSelectorComponent</title>
<polygon fill="#ffffb3" stroke="#000000" points="1208.5084,-122 1009.4916,-122 1009.4916,-86 1208.5084,-86 1208.5084,-122"/>
<text text-anchor="middle" x="1109" y="-99.8" font-family="Times,serif" font-size="14.00" fill="#000000">ServiceFilterSelectorComponent</text>
</g>
<!-- ServiceFilterSelectorComponent&#45;&gt;HelgolandSelectorModule -->
<g id="edge4" class="edge">
<title>ServiceFilterSelectorComponent&#45;&gt;HelgolandSelectorModule</title>
<path fill="none" stroke="#000000" d="M1016.6541,-122.2396C1016.6541,-137.5706 1016.6541,-157 1016.6541,-157 1016.6541,-157 998.9837,-157 998.9837,-157"/>
<polygon fill="#000000" stroke="#000000" points="998.9838,-153.5001 988.9837,-157 998.9837,-160.5001 998.9838,-153.5001"/>
</g>
<!-- ServiceSelectorComponent -->
<g id="node5" class="node">
<title>ServiceSelectorComponent</title>
<polygon fill="#ffffb3" stroke="#000000" points="991.6783,-122 822.3217,-122 822.3217,-86 991.6783,-86 991.6783,-122"/>
<text text-anchor="middle" x="907" y="-99.8" font-family="Times,serif" font-size="14.00" fill="#000000">ServiceSelectorComponent</text>
</g>
<!-- ServiceSelectorComponent&#45;&gt;HelgolandSelectorModule -->
<g id="edge5" class="edge">
<title>ServiceSelectorComponent&#45;&gt;HelgolandSelectorModule</title>
<path fill="none" stroke="#000000" d="M907,-122.1061C907,-122.1061 907,-140.991 907,-140.991"/>
<polygon fill="#000000" stroke="#000000" points="903.5001,-140.9909 907,-150.991 910.5001,-140.991 903.5001,-140.9909"/>
</g>
<!-- DatasetByStationSelectorComponent  -->
<g id="node9" class="node">
<title>DatasetByStationSelectorComponent </title>
<polygon fill="#fb8072" stroke="#000000" points="1441.1826,-252 1212.8174,-252 1212.8174,-216 1441.1826,-216 1441.1826,-252"/>
<text text-anchor="middle" x="1327" y="-229.8" font-family="Times,serif" font-size="14.00" fill="#000000">DatasetByStationSelectorComponent </text>
</g>
<!-- HelgolandSelectorModule&#45;&gt;DatasetByStationSelectorComponent  -->
<g id="edge8" class="edge">
<title>HelgolandSelectorModule&#45;&gt;DatasetByStationSelectorComponent </title>
<path fill="none" stroke="#000000" stroke-dasharray="5,2" d="M988.7428,-177C1081.3851,-177 1219.6734,-177 1219.6734,-177 1219.6734,-177 1219.6734,-205.9648 1219.6734,-205.9648"/>
<polygon fill="#000000" stroke="#000000" points="1216.1734,-205.9648 1219.6734,-215.9648 1223.1734,-205.9649 1216.1734,-205.9648"/>
</g>
<!-- ListSelectorComponent  -->
<g id="node10" class="node">
<title>ListSelectorComponent </title>
<polygon fill="#fb8072" stroke="#000000" points="1194.4798,-252 1041.5202,-252 1041.5202,-216 1194.4798,-216 1194.4798,-252"/>
<text text-anchor="middle" x="1118" y="-229.8" font-family="Times,serif" font-size="14.00" fill="#000000">ListSelectorComponent </text>
</g>
<!-- HelgolandSelectorModule&#45;&gt;ListSelectorComponent  -->
<g id="edge9" class="edge">
<title>HelgolandSelectorModule&#45;&gt;ListSelectorComponent </title>
<path fill="none" stroke="#000000" stroke-dasharray="5,2" d="M988.8801,-182C1048.1907,-182 1118,-182 1118,-182 1118,-182 1118,-205.8129 1118,-205.8129"/>
<polygon fill="#000000" stroke="#000000" points="1114.5001,-205.8129 1118,-215.8129 1121.5001,-205.813 1114.5001,-205.8129"/>
</g>
<!-- MultiServiceFilterSelectorComponent  -->
<g id="node11" class="node">
<title>MultiServiceFilterSelectorComponent </title>
<polygon fill="#fb8072" stroke="#000000" points="1024.1242,-252 789.8758,-252 789.8758,-216 1024.1242,-216 1024.1242,-252"/>
<text text-anchor="middle" x="907" y="-229.8" font-family="Times,serif" font-size="14.00" fill="#000000">MultiServiceFilterSelectorComponent </text>
</g>
<!-- HelgolandSelectorModule&#45;&gt;MultiServiceFilterSelectorComponent  -->
<g id="edge10" class="edge">
<title>HelgolandSelectorModule&#45;&gt;MultiServiceFilterSelectorComponent </title>
<path fill="none" stroke="#000000" stroke-dasharray="5,2" d="M907,-187.1061C907,-187.1061 907,-205.991 907,-205.991"/>
<polygon fill="#000000" stroke="#000000" points="903.5001,-205.9909 907,-215.991 910.5001,-205.991 903.5001,-205.9909"/>
</g>
<!-- ServiceFilterSelectorComponent  -->
<g id="node12" class="node">
<title>ServiceFilterSelectorComponent </title>
<polygon fill="#fb8072" stroke="#000000" points="771.5078,-252 568.4922,-252 568.4922,-216 771.5078,-216 771.5078,-252"/>
<text text-anchor="middle" x="670" y="-229.8" font-family="Times,serif" font-size="14.00" fill="#000000">ServiceFilterSelectorComponent </text>
</g>
<!-- HelgolandSelectorModule&#45;&gt;ServiceFilterSelectorComponent  -->
<g id="edge11" class="edge">
<title>HelgolandSelectorModule&#45;&gt;ServiceFilterSelectorComponent </title>
<path fill="none" stroke="#000000" stroke-dasharray="5,2" d="M825.1426,-182C771.7739,-182 711.9823,-182 711.9823,-182 711.9823,-182 711.9823,-205.8129 711.9823,-205.8129"/>
<polygon fill="#000000" stroke="#000000" points="708.4824,-205.8129 711.9823,-215.8129 715.4824,-205.813 708.4824,-205.8129"/>
</g>
<!-- ServiceSelectorComponent  -->
<g id="node13" class="node">
<title>ServiceSelectorComponent </title>
<polygon fill="#fb8072" stroke="#000000" points="550.1785,-252 377.8215,-252 377.8215,-216 550.1785,-216 550.1785,-252"/>
<text text-anchor="middle" x="464" y="-229.8" font-family="Times,serif" font-size="14.00" fill="#000000">ServiceSelectorComponent </text>
</g>
<!-- HelgolandSelectorModule&#45;&gt;ServiceSelectorComponent  -->
<g id="edge12" class="edge">
<title>HelgolandSelectorModule&#45;&gt;ServiceSelectorComponent </title>
<path fill="none" stroke="#000000" stroke-dasharray="5,2" d="M824.7861,-177C704.8024,-177 495.8512,-177 495.8512,-177 495.8512,-177 495.8512,-205.9648 495.8512,-205.9648"/>
<polygon fill="#000000" stroke="#000000" points="492.3512,-205.9648 495.8512,-215.9648 499.3512,-205.9649 492.3512,-205.9648"/>
</g>
<!-- HelgolandCoreModule -->
<g id="node7" class="node">
<title>HelgolandCoreModule</title>
<polygon fill="#8dd3c7" stroke="#000000" points="797.5786,-122 794.5786,-126 773.5786,-126 770.5786,-122 652.4214,-122 652.4214,-86 797.5786,-86 797.5786,-122"/>
<text text-anchor="middle" x="725" y="-99.8" font-family="Times,serif" font-size="14.00" fill="#000000">HelgolandCoreModule</text>
</g>
<!-- HelgolandCoreModule&#45;&gt;HelgolandSelectorModule -->
<g id="edge6" class="edge">
<title>HelgolandCoreModule&#45;&gt;HelgolandSelectorModule</title>
<path fill="none" stroke="#000000" d="M793.7386,-122.2396C793.7386,-137.5706 793.7386,-157 793.7386,-157 793.7386,-157 814.9876,-157 814.9876,-157"/>
<polygon fill="#000000" stroke="#000000" points="814.9876,-160.5001 824.9876,-157 814.9876,-153.5001 814.9876,-160.5001"/>
</g>
<!-- HelgolandLabelMapperModule -->
<g id="node8" class="node">
<title>HelgolandLabelMapperModule</title>
<polygon fill="#8dd3c7" stroke="#000000" points="634.7738,-122 631.7738,-126 610.7738,-126 607.7738,-122 441.2262,-122 441.2262,-86 634.7738,-86 634.7738,-122"/>
<text text-anchor="middle" x="538" y="-99.8" font-family="Times,serif" font-size="14.00" fill="#000000">HelgolandLabelMapperModule</text>
</g>
<!-- HelgolandLabelMapperModule&#45;&gt;HelgolandSelectorModule -->
<g id="edge7" class="edge">
<title>HelgolandLabelMapperModule&#45;&gt;HelgolandSelectorModule</title>
<path fill="none" stroke="#000000" d="M601.5665,-122.0336C601.5665,-139.0597 601.5665,-162 601.5665,-162 601.5665,-162 815.1494,-162 815.1494,-162"/>
<polygon fill="#000000" stroke="#000000" points="815.1494,-165.5001 825.1494,-162 815.1494,-158.5001 815.1494,-165.5001"/>
</g>
<!-- ListSelectorService -->
<g id="node14" class="node">
<title>ListSelectorService</title>
<ellipse fill="#fdb462" stroke="#000000" cx="330" cy="-104" rx="86.8068" ry="18"/>
<text text-anchor="middle" x="330" y="-99.8" font-family="Times,serif" font-size="14.00" fill="#000000">ListSelectorService</text>
</g>
<!-- ListSelectorService&#45;&gt;HelgolandSelectorModule -->
<g id="edge13" class="edge">
<title>ListSelectorService&#45;&gt;HelgolandSelectorModule</title>
<path fill="none" stroke="#000000" d="M397.1571,-115.5552C397.1571,-133.7427 397.1571,-167 397.1571,-167 397.1571,-167 815.0849,-167 815.0849,-167"/>
<polygon fill="#000000" stroke="#000000" points="815.085,-170.5001 825.0849,-167 815.0849,-163.5001 815.085,-170.5001"/>
</g>
<!-- ServiceSelectorService -->
<g id="node15" class="node">
<title>ServiceSelectorService</title>
<ellipse fill="#fdb462" stroke="#000000" cx="125" cy="-104" rx="100.6727" ry="18"/>
<text text-anchor="middle" x="125" y="-99.8" font-family="Times,serif" font-size="14.00" fill="#000000">ServiceSelectorService</text>
</g>
<!-- ServiceSelectorService&#45;&gt;HelgolandSelectorModule -->
<g id="edge14" class="edge">
<title>ServiceSelectorService&#45;&gt;HelgolandSelectorModule</title>
<path fill="none" stroke="#000000" d="M125,-122.2228C125,-142.3652 125,-172 125,-172 125,-172 815.1582,-172 815.1582,-172"/>
<polygon fill="#000000" stroke="#000000" points="815.1582,-175.5001 825.1582,-172 815.1581,-168.5001 815.1582,-175.5001"/>
</g>
</g>
</svg>
