<?xml version="1.0" encoding="UTF-8" standalone="no"?>
<!DOCTYPE svg PUBLIC "-//W3C//DTD SVG 1.1//EN"
 "http://www.w3.org/Graphics/SVG/1.1/DTD/svg11.dtd">
<!-- Generated by graphviz version 2.40.1 (20161225.0304)
 -->
<!-- Title: dependencies Pages: 1 -->
<svg width="1868pt" height="284pt"
 viewBox="0.00 0.00 1868.00 284.00" xmlns="http://www.w3.org/2000/svg" xmlns:xlink="http://www.w3.org/1999/xlink">
<g id="graph0" class="graph" transform="scale(1 1) rotate(0) translate(4 280)">
<title>dependencies</title>
<polygon fill="#ffffff" stroke="transparent" points="-4,4 -4,-280 1864,-280 1864,4 -4,4"/>
<text text-anchor="start" x="909.0091" y="-42.4" font-family="sans-serif" font-weight="bold" font-size="14.00" fill="#000000">Legend</text>
<polygon fill="#ffffb3" stroke="transparent" points="696,-10 696,-30 716,-30 716,-10 696,-10"/>
<text text-anchor="start" x="719.629" y="-15.4" font-family="sans-serif" font-size="14.00" fill="#000000"> &#160;Declarations</text>
<polygon fill="#8dd3c7" stroke="transparent" points="809,-10 809,-30 829,-30 829,-10 809,-10"/>
<text text-anchor="start" x="832.7251" y="-15.4" font-family="sans-serif" font-size="14.00" fill="#000000"> &#160;Module</text>
<polygon fill="#80b1d3" stroke="transparent" points="895,-10 895,-30 915,-30 915,-10 895,-10"/>
<text text-anchor="start" x="918.7812" y="-15.4" font-family="sans-serif" font-size="14.00" fill="#000000"> &#160;Bootstrap</text>
<polygon fill="#fdb462" stroke="transparent" points="992,-10 992,-30 1012,-30 1012,-10 992,-10"/>
<text text-anchor="start" x="1015.6732" y="-15.4" font-family="sans-serif" font-size="14.00" fill="#000000"> &#160;Providers</text>
<polygon fill="#fb8072" stroke="transparent" points="1088,-10 1088,-30 1108,-30 1108,-10 1088,-10"/>
<text text-anchor="start" x="1111.7258" y="-15.4" font-family="sans-serif" font-size="14.00" fill="#000000"> &#160;Exports</text>
<g id="clust1" class="cluster">
<title>cluster_HelgolandPermalinkModule</title>
<polygon fill="none" stroke="#000000" stroke-dasharray="1,5" points="8,-70 8,-268 885,-268 885,-70 8,-70"/>
</g>
<g id="clust2" class="cluster">
<title>cluster_HelgolandPermalinkModule_declarations</title>
<polygon fill="none" stroke="#000000" points="24,-78 24,-130 871,-130 871,-78 24,-78"/>
</g>
<g id="clust8" class="cluster">
<title>cluster_HelgolandPermalinkModule_exports</title>
<polygon fill="none" stroke="#000000" points="16,-208 16,-260 877,-260 877,-208 16,-208"/>
</g>
<g id="clust11" class="cluster">
<title>cluster_HelgolandToolboxModule</title>
<polygon fill="none" stroke="#000000" stroke-dasharray="1,5" points="893,-70 893,-195 1852,-195 1852,-70 893,-70"/>
</g>
<g id="clust16" class="cluster">
<title>cluster_HelgolandToolboxModule_providers</title>
<polygon fill="none" stroke="#000000" points="901,-78 901,-130 1844,-130 1844,-78 901,-78"/>
</g>
<!-- PermalinkButtonComponent -->
<g id="node1" class="node">
<title>PermalinkButtonComponent</title>
<polygon fill="#ffffb3" stroke="#000000" points="863.4944,-122 686.5056,-122 686.5056,-86 863.4944,-86 863.4944,-122"/>
<text text-anchor="middle" x="775" y="-99.8" font-family="Times,serif" font-size="14.00" fill="#000000">PermalinkButtonComponent</text>
</g>
<!-- HelgolandPermalinkModule -->
<g id="node5" class="node">
<title>HelgolandPermalinkModule</title>
<polygon fill="#8dd3c7" stroke="#000000" points="456.9115,-187 453.9115,-191 432.9115,-191 429.9115,-187 281.0885,-187 281.0885,-151 456.9115,-151 456.9115,-187"/>
<text text-anchor="middle" x="369" y="-164.8" font-family="Times,serif" font-size="14.00" fill="#000000">HelgolandPermalinkModule</text>
</g>
<!-- PermalinkButtonComponent&#45;&gt;HelgolandPermalinkModule -->
<g id="edge1" class="edge">
<title>PermalinkButtonComponent&#45;&gt;HelgolandPermalinkModule</title>
<path fill="none" stroke="#000000" d="M805.2491,-122.2228C805.2491,-142.3652 805.2491,-172 805.2491,-172 805.2491,-172 466.7567,-172 466.7567,-172"/>
<polygon fill="#000000" stroke="#000000" points="466.7568,-168.5001 456.7567,-172 466.7567,-175.5001 466.7568,-168.5001"/>
</g>
<!-- PermalinkInMailComponent -->
<g id="node2" class="node">
<title>PermalinkInMailComponent</title>
<polygon fill="#ffffb3" stroke="#000000" points="668.4776,-122 491.5224,-122 491.5224,-86 668.4776,-86 668.4776,-122"/>
<text text-anchor="middle" x="580" y="-99.8" font-family="Times,serif" font-size="14.00" fill="#000000">PermalinkInMailComponent</text>
</g>
<!-- PermalinkInMailComponent&#45;&gt;HelgolandPermalinkModule -->
<g id="edge2" class="edge">
<title>PermalinkInMailComponent&#45;&gt;HelgolandPermalinkModule</title>
<path fill="none" stroke="#000000" d="M609.4963,-122.2222C609.4963,-140.8285 609.4963,-167 609.4963,-167 609.4963,-167 466.8455,-167 466.8455,-167"/>
<polygon fill="#000000" stroke="#000000" points="466.8456,-163.5001 456.8455,-167 466.8455,-170.5001 466.8456,-163.5001"/>
</g>
<!-- PermalinkNewWindowComponent -->
<g id="node3" class="node">
<title>PermalinkNewWindowComponent</title>
<polygon fill="#ffffb3" stroke="#000000" points="473.5167,-122 260.4833,-122 260.4833,-86 473.5167,-86 473.5167,-122"/>
<text text-anchor="middle" x="367" y="-99.8" font-family="Times,serif" font-size="14.00" fill="#000000">PermalinkNewWindowComponent</text>
</g>
<!-- PermalinkNewWindowComponent&#45;&gt;HelgolandPermalinkModule -->
<g id="edge3" class="edge">
<title>PermalinkNewWindowComponent&#45;&gt;HelgolandPermalinkModule</title>
<path fill="none" stroke="#000000" d="M369,-122.1061C369,-122.1061 369,-140.991 369,-140.991"/>
<polygon fill="#000000" stroke="#000000" points="365.5001,-140.9909 369,-150.991 372.5001,-140.991 365.5001,-140.9909"/>
</g>
<!-- PermalinkToClipboardComponent -->
<g id="node4" class="node">
<title>PermalinkToClipboardComponent</title>
<polygon fill="#ffffb3" stroke="#000000" points="242.4226,-122 31.5774,-122 31.5774,-86 242.4226,-86 242.4226,-122"/>
<text text-anchor="middle" x="137" y="-99.8" font-family="Times,serif" font-size="14.00" fill="#000000">PermalinkToClipboardComponent</text>
</g>
<!-- PermalinkToClipboardComponent&#45;&gt;HelgolandPermalinkModule -->
<g id="edge4" class="edge">
<title>PermalinkToClipboardComponent&#45;&gt;HelgolandPermalinkModule</title>
<path fill="none" stroke="#000000" d="M169.237,-122.0225C169.237,-139.3734 169.237,-163 169.237,-163 169.237,-163 271.0904,-163 271.0904,-163"/>
<polygon fill="#000000" stroke="#000000" points="271.0904,-166.5001 281.0904,-163 271.0903,-159.5001 271.0904,-166.5001"/>
</g>
<!-- PermalinkButtonComponent  -->
<g id="node6" class="node">
<title>PermalinkButtonComponent </title>
<polygon fill="#fb8072" stroke="#000000" points="869.4951,-252 688.5049,-252 688.5049,-216 869.4951,-216 869.4951,-252"/>
<text text-anchor="middle" x="779" y="-229.8" font-family="Times,serif" font-size="14.00" fill="#000000">PermalinkButtonComponent </text>
</g>
<!-- HelgolandPermalinkModule&#45;&gt;PermalinkButtonComponent  -->
<g id="edge5" class="edge">
<title>HelgolandPermalinkModule&#45;&gt;PermalinkButtonComponent </title>
<path fill="none" stroke="#000000" stroke-dasharray="5,2" d="M457.1474,-177C568.8436,-177 747.0009,-177 747.0009,-177 747.0009,-177 747.0009,-205.9648 747.0009,-205.9648"/>
<polygon fill="#000000" stroke="#000000" points="743.501,-205.9648 747.0009,-215.9648 750.501,-205.9649 743.501,-205.9648"/>
</g>
<!-- PermalinkInMailComponent  -->
<g id="node7" class="node">
<title>PermalinkInMailComponent </title>
<polygon fill="#fb8072" stroke="#000000" points="671.4782,-252 490.5218,-252 490.5218,-216 671.4782,-216 671.4782,-252"/>
<text text-anchor="middle" x="581" y="-229.8" font-family="Times,serif" font-size="14.00" fill="#000000">PermalinkInMailComponent </text>
</g>
<!-- HelgolandPermalinkModule&#45;&gt;PermalinkInMailComponent  -->
<g id="edge6" class="edge">
<title>HelgolandPermalinkModule&#45;&gt;PermalinkInMailComponent </title>
<path fill="none" stroke="#000000" stroke-dasharray="5,2" d="M456.8277,-182C503.1571,-182 550.5037,-182 550.5037,-182 550.5037,-182 550.5037,-205.8129 550.5037,-205.8129"/>
<polygon fill="#000000" stroke="#000000" points="547.0038,-205.8129 550.5037,-215.8129 554.0038,-205.813 547.0038,-205.8129"/>
</g>
<!-- PermalinkNewWindowComponent  -->
<g id="node8" class="node">
<title>PermalinkNewWindowComponent </title>
<polygon fill="#fb8072" stroke="#000000" points="472.5162,-252 255.4838,-252 255.4838,-216 472.5162,-216 472.5162,-252"/>
<text text-anchor="middle" x="364" y="-229.8" font-family="Times,serif" font-size="14.00" fill="#000000">PermalinkNewWindowComponent </text>
</g>
<!-- HelgolandPermalinkModule&#45;&gt;PermalinkNewWindowComponent  -->
<g id="edge7" class="edge">
<title>HelgolandPermalinkModule&#45;&gt;PermalinkNewWindowComponent </title>
<path fill="none" stroke="#000000" stroke-dasharray="5,2" d="M369,-187.1061C369,-187.1061 369,-205.991 369,-205.991"/>
<polygon fill="#000000" stroke="#000000" points="365.5001,-205.9909 369,-215.991 372.5001,-205.991 365.5001,-205.9909"/>
</g>
<!-- PermalinkToClipboardComponent  -->
<g id="node9" class="node">
<title>PermalinkToClipboardComponent </title>
<polygon fill="#fb8072" stroke="#000000" points="237.9222,-252 24.0778,-252 24.0778,-216 237.9222,-216 237.9222,-252"/>
<text text-anchor="middle" x="131" y="-229.8" font-family="Times,serif" font-size="14.00" fill="#000000">PermalinkToClipboardComponent </text>
</g>
<!-- HelgolandPermalinkModule&#45;&gt;PermalinkToClipboardComponent  -->
<g id="edge8" class="edge">
<title>HelgolandPermalinkModule&#45;&gt;PermalinkToClipboardComponent </title>
<path fill="none" stroke="#000000" stroke-dasharray="5,2" d="M281.0873,-175C202.7852,-175 100.513,-175 100.513,-175 100.513,-175 100.513,-205.9775 100.513,-205.9775"/>
<polygon fill="#000000" stroke="#000000" points="97.0131,-205.9774 100.513,-215.9775 104.0131,-205.9775 97.0131,-205.9774"/>
</g>
<!-- ApiInterface -->
<g id="node10" class="node">
<title>ApiInterface</title>
<ellipse fill="#fdb462" stroke="#000000" cx="1776" cy="-104" rx="59.6473" ry="18"/>
<text text-anchor="middle" x="1776" y="-99.8" font-family="Times,serif" font-size="14.00" fill="#000000">ApiInterface</text>
</g>
<!-- HelgolandToolboxModule -->
<g id="node17" class="node">
<title>HelgolandToolboxModule</title>
<polygon fill="#8dd3c7" stroke="#000000" points="1400.8103,-187 1397.8103,-191 1376.8103,-191 1373.8103,-187 1235.1897,-187 1235.1897,-151 1400.8103,-151 1400.8103,-187"/>
<text text-anchor="middle" x="1318" y="-164.8" font-family="Times,serif" font-size="14.00" fill="#000000">HelgolandToolboxModule</text>
</g>
<!-- ApiInterface&#45;&gt;HelgolandToolboxModule -->
<g id="edge9" class="edge">
<title>ApiInterface&#45;&gt;HelgolandToolboxModule</title>
<path fill="none" stroke="#000000" d="M1776,-122.2843C1776,-143.3211 1776,-175 1776,-175 1776,-175 1410.6751,-175 1410.6751,-175"/>
<polygon fill="#000000" stroke="#000000" points="1410.6751,-171.5001 1400.6751,-175 1410.6751,-178.5001 1410.6751,-171.5001"/>
</g>
<!-- ApiMapping -->
<g id="node11" class="node">
<title>ApiMapping</title>
<ellipse fill="#fdb462" stroke="#000000" cx="1638" cy="-104" rx="60.2769" ry="18"/>
<text text-anchor="middle" x="1638" y="-99.8" font-family="Times,serif" font-size="14.00" fill="#000000">ApiMapping</text>
</g>
<!-- ApiMapping&#45;&gt;HelgolandToolboxModule -->
<g id="edge10" class="edge">
<title>ApiMapping&#45;&gt;HelgolandToolboxModule</title>
<path fill="none" stroke="#000000" d="M1638,-122.0225C1638,-139.3734 1638,-163 1638,-163 1638,-163 1410.8241,-163 1410.8241,-163"/>
<polygon fill="#000000" stroke="#000000" points="1410.8241,-159.5001 1400.8241,-163 1410.8241,-166.5001 1410.8241,-159.5001"/>
</g>
<!-- InternalIdHandler -->
<g id="node12" class="node">
<title>InternalIdHandler</title>
<ellipse fill="#fdb462" stroke="#000000" cx="1479" cy="-104" rx="80.4151" ry="18"/>
<text text-anchor="middle" x="1479" y="-99.8" font-family="Times,serif" font-size="14.00" fill="#000000">InternalIdHandler</text>
</g>
<!-- InternalIdHandler&#45;&gt;HelgolandToolboxModule -->
<g id="edge11" class="edge">
<title>InternalIdHandler&#45;&gt;HelgolandToolboxModule</title>
<path fill="none" stroke="#000000" d="M1398.549,-104C1393.0639,-104 1389.6557,-104 1389.6557,-104 1389.6557,-104 1389.6557,-140.8939 1389.6557,-140.8939"/>
<polygon fill="#000000" stroke="#000000" points="1386.1558,-140.8938 1389.6557,-150.8939 1393.1558,-140.8939 1386.1558,-140.8938"/>
</g>
<!-- LocalStorage -->
<g id="node13" class="node">
<title>LocalStorage</title>
<ellipse fill="#fdb462" stroke="#000000" cx="1318" cy="-104" rx="62.5373" ry="18"/>
<text text-anchor="middle" x="1318" y="-99.8" font-family="Times,serif" font-size="14.00" fill="#000000">LocalStorage</text>
</g>
<!-- LocalStorage&#45;&gt;HelgolandToolboxModule -->
<g id="edge12" class="edge">
<title>LocalStorage&#45;&gt;HelgolandToolboxModule</title>
<path fill="none" stroke="#000000" d="M1318,-122.1061C1318,-122.1061 1318,-140.991 1318,-140.991"/>
<polygon fill="#000000" stroke="#000000" points="1314.5001,-140.9909 1318,-150.991 1321.5001,-140.991 1314.5001,-140.9909"/>
</g>
<!-- Time -->
<g id="node14" class="node">
<title>Time</title>
<ellipse fill="#fdb462" stroke="#000000" cx="1206" cy="-104" rx="31.3371" ry="18"/>
<text text-anchor="middle" x="1206" y="-99.8" font-family="Times,serif" font-size="14.00" fill="#000000">Time</text>
</g>
<!-- Time&#45;&gt;HelgolandToolboxModule -->
<g id="edge13" class="edge">
<title>Time&#45;&gt;HelgolandToolboxModule</title>
<path fill="none" stroke="#000000" d="M1237.4728,-104C1242.6948,-104 1246.4499,-104 1246.4499,-104 1246.4499,-104 1246.4499,-140.8939 1246.4499,-140.8939"/>
<polygon fill="#000000" stroke="#000000" points="1242.95,-140.8938 1246.4499,-150.8939 1249.95,-140.8939 1242.95,-140.8938"/>
</g>
<!-- MapCache -->
<g id="node15" class="node">
<title>MapCache</title>
<ellipse fill="#fdb462" stroke="#000000" cx="1104" cy="-104" rx="52.7295" ry="18"/>
<text text-anchor="middle" x="1104" y="-99.8" font-family="Times,serif" font-size="14.00" fill="#000000">MapCache</text>
</g>
<!-- MapCache&#45;&gt;HelgolandToolboxModule -->
<g id="edge14" class="edge">
<title>MapCache&#45;&gt;HelgolandToolboxModule</title>
<path fill="none" stroke="#000000" d="M1104,-122.2396C1104,-137.5706 1104,-157 1104,-157 1104,-157 1225.262,-157 1225.262,-157"/>
<polygon fill="#000000" stroke="#000000" points="1225.262,-160.5001 1235.262,-157 1225.262,-153.5001 1225.262,-160.5001"/>
</g>
<!-- ColorService -->
<g id="node16" class="node">
<title>ColorService</title>
<ellipse fill="#fdb462" stroke="#000000" cx="971" cy="-104" rx="61.975" ry="18"/>
<text text-anchor="middle" x="971" y="-99.8" font-family="Times,serif" font-size="14.00" fill="#000000">ColorService</text>
</g>
<!-- ColorService&#45;&gt;HelgolandToolboxModule -->
<g id="edge15" class="edge">
<title>ColorService&#45;&gt;HelgolandToolboxModule</title>
<path fill="none" stroke="#000000" d="M971,-122.0336C971,-139.0597 971,-162 971,-162 971,-162 1225.3257,-162 1225.3257,-162"/>
<polygon fill="#000000" stroke="#000000" points="1225.3257,-165.5001 1235.3257,-162 1225.3257,-158.5001 1225.3257,-165.5001"/>
</g>
</g>
</svg>
