<?xml version="1.0" encoding="UTF-8" standalone="no"?>
<!DOCTYPE svg PUBLIC "-//W3C//DTD SVG 1.1//EN"
 "http://www.w3.org/Graphics/SVG/1.1/DTD/svg11.dtd">
<!-- Generated by graphviz version 2.40.1 (20161225.0304)
 -->
<!-- Title: dependencies Pages: 1 -->
<svg width="636pt" height="284pt"
 viewBox="0.00 0.00 636.00 284.00" xmlns="http://www.w3.org/2000/svg" xmlns:xlink="http://www.w3.org/1999/xlink">
<g id="graph0" class="graph" transform="scale(1 1) rotate(0) translate(4 280)">
<title>dependencies</title>
<polygon fill="#ffffff" stroke="transparent" points="-4,4 -4,-280 632,-280 632,4 -4,4"/>
<text text-anchor="start" x="293.0091" y="-42.4" font-family="sans-serif" font-weight="bold" font-size="14.00" fill="#000000">Legend</text>
<polygon fill="#ffffb3" stroke="transparent" points="80,-10 80,-30 100,-30 100,-10 80,-10"/>
<text text-anchor="start" x="103.629" y="-15.4" font-family="sans-serif" font-size="14.00" fill="#000000"> &#160;Declarations</text>
<polygon fill="#8dd3c7" stroke="transparent" points="193,-10 193,-30 213,-30 213,-10 193,-10"/>
<text text-anchor="start" x="216.7251" y="-15.4" font-family="sans-serif" font-size="14.00" fill="#000000"> &#160;Module</text>
<polygon fill="#80b1d3" stroke="transparent" points="279,-10 279,-30 299,-30 299,-10 279,-10"/>
<text text-anchor="start" x="302.7812" y="-15.4" font-family="sans-serif" font-size="14.00" fill="#000000"> &#160;Bootstrap</text>
<polygon fill="#fdb462" stroke="transparent" points="376,-10 376,-30 396,-30 396,-10 376,-10"/>
<text text-anchor="start" x="399.6732" y="-15.4" font-family="sans-serif" font-size="14.00" fill="#000000"> &#160;Providers</text>
<polygon fill="#fb8072" stroke="transparent" points="472,-10 472,-30 492,-30 492,-10 472,-10"/>
<text text-anchor="start" x="495.7258" y="-15.4" font-family="sans-serif" font-size="14.00" fill="#000000"> &#160;Exports</text>
<g id="clust1" class="cluster">
<title>cluster_HelgolandTimeRangeSliderModule</title>
<polygon fill="none" stroke="#000000" stroke-dasharray="1,5" points="8,-70 8,-268 620,-268 620,-70 8,-70"/>
</g>
<g id="clust2" class="cluster">
<title>cluster_HelgolandTimeRangeSliderModule_declarations</title>
<polygon fill="none" stroke="#000000" points="416,-78 416,-130 612,-130 612,-78 416,-78"/>
</g>
<g id="clust4" class="cluster">
<title>cluster_HelgolandTimeRangeSliderModule_imports</title>
<polygon fill="none" stroke="#000000" points="246,-78 246,-130 408,-130 408,-78 246,-78"/>
</g>
<g id="clust5" class="cluster">
<title>cluster_HelgolandTimeRangeSliderModule_exports</title>
<polygon fill="none" stroke="#000000" points="227,-208 227,-260 427,-260 427,-208 227,-208"/>
</g>
<g id="clust7" class="cluster">
<title>cluster_HelgolandTimeRangeSliderModule_providers</title>
<polygon fill="none" stroke="#000000" points="16,-78 16,-130 238,-130 238,-78 16,-78"/>
</g>
<!-- TimeRangeSliderComponent -->
<g id="node1" class="node">
<title>TimeRangeSliderComponent</title>
<polygon fill="#ffffb3" stroke="#000000" points="604.0856,-122 423.9144,-122 423.9144,-86 604.0856,-86 604.0856,-122"/>
<text text-anchor="middle" x="514" y="-99.8" font-family="Times,serif" font-size="14.00" fill="#000000">TimeRangeSliderComponent</text>
</g>
<!-- HelgolandTimeRangeSliderModule -->
<g id="node2" class="node">
<title>HelgolandTimeRangeSliderModule</title>
<polygon fill="#8dd3c7" stroke="#000000" points="435.1203,-187 432.1203,-191 411.1203,-191 408.1203,-187 218.8797,-187 218.8797,-151 435.1203,-151 435.1203,-187"/>
<text text-anchor="middle" x="327" y="-164.8" font-family="Times,serif" font-size="14.00" fill="#000000">HelgolandTimeRangeSliderModule</text>
</g>
<!-- TimeRangeSliderComponent&#45;&gt;HelgolandTimeRangeSliderModule -->
<g id="edge1" class="edge">
<title>TimeRangeSliderComponent&#45;&gt;HelgolandTimeRangeSliderModule</title>
<path fill="none" stroke="#000000" d="M429.6336,-122.1061C429.6336,-122.1061 429.6336,-140.991 429.6336,-140.991"/>
<polygon fill="#000000" stroke="#000000" points="426.1337,-140.9909 429.6336,-150.991 433.1337,-140.991 426.1337,-140.9909"/>
</g>
<!-- TimeRangeSliderComponent  -->
<g id="node4" class="node">
<title>TimeRangeSliderComponent </title>
<polygon fill="#fb8072" stroke="#000000" points="418.5861,-252 235.4139,-252 235.4139,-216 418.5861,-216 418.5861,-252"/>
<text text-anchor="middle" x="327" y="-229.8" font-family="Times,serif" font-size="14.00" fill="#000000">TimeRangeSliderComponent </text>
</g>
<!-- HelgolandTimeRangeSliderModule&#45;&gt;TimeRangeSliderComponent  -->
<g id="edge3" class="edge">
<title>HelgolandTimeRangeSliderModule&#45;&gt;TimeRangeSliderComponent </title>
<path fill="none" stroke="#000000" stroke-dasharray="5,2" d="M327,-187.1061C327,-187.1061 327,-205.991 327,-205.991"/>
<polygon fill="#000000" stroke="#000000" points="323.5001,-205.9909 327,-215.991 330.5001,-205.991 323.5001,-205.9909"/>
</g>
<!-- HelgolandCoreModule -->
<g id="node3" class="node">
<title>HelgolandCoreModule</title>
<polygon fill="#8dd3c7" stroke="#000000" points="399.5786,-122 396.5786,-126 375.5786,-126 372.5786,-122 254.4214,-122 254.4214,-86 399.5786,-86 399.5786,-122"/>
<text text-anchor="middle" x="327" y="-99.8" font-family="Times,serif" font-size="14.00" fill="#000000">HelgolandCoreModule</text>
</g>
<!-- HelgolandCoreModule&#45;&gt;HelgolandTimeRangeSliderModule -->
<g id="edge2" class="edge">
<title>HelgolandCoreModule&#45;&gt;HelgolandTimeRangeSliderModule</title>
<path fill="none" stroke="#000000" d="M327,-122.1061C327,-122.1061 327,-140.991 327,-140.991"/>
<polygon fill="#000000" stroke="#000000" points="323.5001,-140.9909 327,-150.991 330.5001,-140.991 323.5001,-140.9909"/>
</g>
<!-- TimeRangeSliderCache -->
<g id="node5" class="node">
<title>TimeRangeSliderCache</title>
<ellipse fill="#fdb462" stroke="#000000" cx="127" cy="-104" rx="103.0675" ry="18"/>
<text text-anchor="middle" x="127" y="-99.8" font-family="Times,serif" font-size="14.00" fill="#000000">TimeRangeSliderCache</text>
</g>
<!-- TimeRangeSliderCache&#45;&gt;HelgolandTimeRangeSliderModule -->
<g id="edge4" class="edge">
<title>TimeRangeSliderCache&#45;&gt;HelgolandTimeRangeSliderModule</title>
<path fill="none" stroke="#000000" d="M224.4868,-109.9985C224.4868,-109.9985 224.4868,-140.7642 224.4868,-140.7642"/>
<polygon fill="#000000" stroke="#000000" points="220.9869,-140.7642 224.4868,-150.7642 227.9869,-140.7642 220.9869,-140.7642"/>
</g>
</g>
</svg>
