<?xml version="1.0" encoding="UTF-8" standalone="no"?>
<!DOCTYPE svg PUBLIC "-//W3C//DTD SVG 1.1//EN"
 "http://www.w3.org/Graphics/SVG/1.1/DTD/svg11.dtd">
<!-- Generated by graphviz version 2.40.1 (20161225.0304)
 -->
<!-- Title: dependencies Pages: 1 -->
<svg width="504pt" height="284pt"
 viewBox="0.00 0.00 504.00 284.00" xmlns="http://www.w3.org/2000/svg" xmlns:xlink="http://www.w3.org/1999/xlink">
<g id="graph0" class="graph" transform="scale(1 1) rotate(0) translate(4 280)">
<title>dependencies</title>
<polygon fill="#ffffff" stroke="transparent" points="-4,4 -4,-280 500,-280 500,4 -4,4"/>
<text text-anchor="start" x="227.0091" y="-42.4" font-family="sans-serif" font-weight="bold" font-size="14.00" fill="#000000">Legend</text>
<polygon fill="#ffffb3" stroke="transparent" points="14,-10 14,-30 34,-30 34,-10 14,-10"/>
<text text-anchor="start" x="37.629" y="-15.4" font-family="sans-serif" font-size="14.00" fill="#000000"> &#160;Declarations</text>
<polygon fill="#8dd3c7" stroke="transparent" points="127,-10 127,-30 147,-30 147,-10 127,-10"/>
<text text-anchor="start" x="150.7251" y="-15.4" font-family="sans-serif" font-size="14.00" fill="#000000"> &#160;Module</text>
<polygon fill="#80b1d3" stroke="transparent" points="213,-10 213,-30 233,-30 233,-10 213,-10"/>
<text text-anchor="start" x="236.7812" y="-15.4" font-family="sans-serif" font-size="14.00" fill="#000000"> &#160;Bootstrap</text>
<polygon fill="#fdb462" stroke="transparent" points="310,-10 310,-30 330,-30 330,-10 310,-10"/>
<text text-anchor="start" x="333.6732" y="-15.4" font-family="sans-serif" font-size="14.00" fill="#000000"> &#160;Providers</text>
<polygon fill="#fb8072" stroke="transparent" points="406,-10 406,-30 426,-30 426,-10 406,-10"/>
<text text-anchor="start" x="429.7258" y="-15.4" font-family="sans-serif" font-size="14.00" fill="#000000"> &#160;Exports</text>
<g id="clust1" class="cluster">
<title>cluster_HelgolandTimeRangeSliderModule</title>
<polygon fill="none" stroke="#000000" stroke-dasharray="1,5" points="27,-70 27,-268 469,-268 469,-70 27,-70"/>
</g>
<g id="clust2" class="cluster">
<title>cluster_HelgolandTimeRangeSliderModule_declarations</title>
<polygon fill="none" stroke="#000000" points="265,-78 265,-130 461,-130 461,-78 265,-78"/>
</g>
<g id="clust5" class="cluster">
<title>cluster_HelgolandTimeRangeSliderModule_exports</title>
<polygon fill="none" stroke="#000000" points="149,-208 149,-260 349,-260 349,-208 149,-208"/>
</g>
<g id="clust7" class="cluster">
<title>cluster_HelgolandTimeRangeSliderModule_providers</title>
<polygon fill="none" stroke="#000000" points="35,-78 35,-130 257,-130 257,-78 35,-78"/>
</g>
<!-- TimeRangeSliderComponent -->
<g id="node1" class="node">
<title>TimeRangeSliderComponent</title>
<polygon fill="#ffffb3" stroke="#000000" points="453.0856,-122 272.9144,-122 272.9144,-86 453.0856,-86 453.0856,-122"/>
<text text-anchor="middle" x="363" y="-99.8" font-family="Times,serif" font-size="14.00" fill="#000000">TimeRangeSliderComponent</text>
</g>
<!-- HelgolandTimeRangeSliderModule -->
<g id="node2" class="node">
<title>HelgolandTimeRangeSliderModule</title>
<polygon fill="#8dd3c7" stroke="#000000" points="357.1203,-187 354.1203,-191 333.1203,-191 330.1203,-187 140.8797,-187 140.8797,-151 357.1203,-151 357.1203,-187"/>
<text text-anchor="middle" x="249" y="-164.8" font-family="Times,serif" font-size="14.00" fill="#000000">HelgolandTimeRangeSliderModule</text>
</g>
<!-- TimeRangeSliderComponent&#45;&gt;HelgolandTimeRangeSliderModule -->
<g id="edge1" class="edge">
<title>TimeRangeSliderComponent&#45;&gt;HelgolandTimeRangeSliderModule</title>
<path fill="none" stroke="#000000" d="M315.1336,-122.1061C315.1336,-122.1061 315.1336,-140.991 315.1336,-140.991"/>
<polygon fill="#000000" stroke="#000000" points="311.6337,-140.9909 315.1336,-150.991 318.6337,-140.991 311.6337,-140.9909"/>
</g>
<!-- TimeRangeSliderComponent  -->
<g id="node3" class="node">
<title>TimeRangeSliderComponent </title>
<polygon fill="#fb8072" stroke="#000000" points="340.5861,-252 157.4139,-252 157.4139,-216 340.5861,-216 340.5861,-252"/>
<text text-anchor="middle" x="249" y="-229.8" font-family="Times,serif" font-size="14.00" fill="#000000">TimeRangeSliderComponent </text>
</g>
<!-- HelgolandTimeRangeSliderModule&#45;&gt;TimeRangeSliderComponent  -->
<g id="edge2" class="edge">
<title>HelgolandTimeRangeSliderModule&#45;&gt;TimeRangeSliderComponent </title>
<path fill="none" stroke="#000000" stroke-dasharray="5,2" d="M249,-187.1061C249,-187.1061 249,-205.991 249,-205.991"/>
<polygon fill="#000000" stroke="#000000" points="245.5001,-205.9909 249,-215.991 252.5001,-205.991 245.5001,-205.9909"/>
</g>
<!-- TimeRangeSliderCache -->
<g id="node4" class="node">
<title>TimeRangeSliderCache</title>
<ellipse fill="#fdb462" stroke="#000000" cx="146" cy="-104" rx="103.0675" ry="18"/>
<text text-anchor="middle" x="146" y="-99.8" font-family="Times,serif" font-size="14.00" fill="#000000">TimeRangeSliderCache</text>
</g>
<!-- TimeRangeSliderCache&#45;&gt;HelgolandTimeRangeSliderModule -->
<g id="edge3" class="edge">
<title>TimeRangeSliderCache&#45;&gt;HelgolandTimeRangeSliderModule</title>
<path fill="none" stroke="#000000" d="M194.9868,-120.0674C194.9868,-120.0674 194.9868,-140.8237 194.9868,-140.8237"/>
<polygon fill="#000000" stroke="#000000" points="191.4869,-140.8236 194.9868,-150.8237 198.4869,-140.8237 191.4869,-140.8236"/>
</g>
</g>
</svg>
