<?xml version="1.0" encoding="UTF-8" standalone="no"?>
<!DOCTYPE svg PUBLIC "-//W3C//DTD SVG 1.1//EN"
 "http://www.w3.org/Graphics/SVG/1.1/DTD/svg11.dtd">
<!-- Generated by graphviz version 2.40.1 (20161225.0304)
 -->
<!-- Title: dependencies Pages: 1 -->
<svg width="504pt" height="284pt"
 viewBox="0.00 0.00 504.00 284.00" xmlns="http://www.w3.org/2000/svg" xmlns:xlink="http://www.w3.org/1999/xlink">
<g id="graph0" class="graph" transform="scale(1 1) rotate(0) translate(4 280)">
<title>dependencies</title>
<polygon fill="#ffffff" stroke="transparent" points="-4,4 -4,-280 500,-280 500,4 -4,4"/>
<text text-anchor="start" x="227.0091" y="-42.4" font-family="sans-serif" font-weight="bold" font-size="14.00" fill="#000000">Legend</text>
<polygon fill="#ffffb3" stroke="transparent" points="14,-10 14,-30 34,-30 34,-10 14,-10"/>
<text text-anchor="start" x="37.629" y="-15.4" font-family="sans-serif" font-size="14.00" fill="#000000"> &#160;Declarations</text>
<polygon fill="#8dd3c7" stroke="transparent" points="127,-10 127,-30 147,-30 147,-10 127,-10"/>
<text text-anchor="start" x="150.7251" y="-15.4" font-family="sans-serif" font-size="14.00" fill="#000000"> &#160;Module</text>
<polygon fill="#80b1d3" stroke="transparent" points="213,-10 213,-30 233,-30 233,-10 213,-10"/>
<text text-anchor="start" x="236.7812" y="-15.4" font-family="sans-serif" font-size="14.00" fill="#000000"> &#160;Bootstrap</text>
<polygon fill="#fdb462" stroke="transparent" points="310,-10 310,-30 330,-30 330,-10 310,-10"/>
<text text-anchor="start" x="333.6732" y="-15.4" font-family="sans-serif" font-size="14.00" fill="#000000"> &#160;Providers</text>
<polygon fill="#fb8072" stroke="transparent" points="406,-10 406,-30 426,-30 426,-10 406,-10"/>
<text text-anchor="start" x="429.7258" y="-15.4" font-family="sans-serif" font-size="14.00" fill="#000000"> &#160;Exports</text>
<g id="clust1" class="cluster">
<title>cluster_HelgolandPlotlyModule</title>
<polygon fill="none" stroke="#000000" stroke-dasharray="1,5" points="53,-70 53,-268 443,-268 443,-70 53,-70"/>
</g>
<g id="clust2" class="cluster">
<title>cluster_HelgolandPlotlyModule_declarations</title>
<polygon fill="none" stroke="#000000" points="231,-78 231,-130 435,-130 435,-78 231,-78"/>
</g>
<g id="clust4" class="cluster">
<title>cluster_HelgolandPlotlyModule_imports</title>
<polygon fill="none" stroke="#000000" points="61,-78 61,-130 223,-130 223,-78 61,-78"/>
</g>
<g id="clust5" class="cluster">
<title>cluster_HelgolandPlotlyModule_exports</title>
<polygon fill="none" stroke="#000000" points="144,-208 144,-260 352,-260 352,-208 144,-208"/>
</g>
<!-- PlotlyProfileGraphComponent -->
<g id="node1" class="node">
<title>PlotlyProfileGraphComponent</title>
<polygon fill="#ffffb3" stroke="#000000" points="426.8682,-122 239.1318,-122 239.1318,-86 426.8682,-86 426.8682,-122"/>
<text text-anchor="middle" x="333" y="-99.8" font-family="Times,serif" font-size="14.00" fill="#000000">PlotlyProfileGraphComponent</text>
</g>
<!-- HelgolandPlotlyModule -->
<g id="node2" class="node">
<title>HelgolandPlotlyModule</title>
<polygon fill="#8dd3c7" stroke="#000000" points="323.8215,-187 320.8215,-191 299.8215,-191 296.8215,-187 172.1785,-187 172.1785,-151 323.8215,-151 323.8215,-187"/>
<text text-anchor="middle" x="248" y="-164.8" font-family="Times,serif" font-size="14.00" fill="#000000">HelgolandPlotlyModule</text>
</g>
<!-- PlotlyProfileGraphComponent&#45;&gt;HelgolandPlotlyModule -->
<g id="edge1" class="edge">
<title>PlotlyProfileGraphComponent&#45;&gt;HelgolandPlotlyModule</title>
<path fill="none" stroke="#000000" d="M281.3633,-122.1061C281.3633,-122.1061 281.3633,-140.991 281.3633,-140.991"/>
<polygon fill="#000000" stroke="#000000" points="277.8633,-140.9909 281.3633,-150.991 284.8633,-140.991 277.8633,-140.9909"/>
</g>
<!-- PlotlyProfileGraphComponent  -->
<g id="node4" class="node">
<title>PlotlyProfileGraphComponent </title>
<polygon fill="#fb8072" stroke="#000000" points="343.8686,-252 152.1314,-252 152.1314,-216 343.8686,-216 343.8686,-252"/>
<text text-anchor="middle" x="248" y="-229.8" font-family="Times,serif" font-size="14.00" fill="#000000">PlotlyProfileGraphComponent </text>
</g>
<!-- HelgolandPlotlyModule&#45;&gt;PlotlyProfileGraphComponent  -->
<g id="edge3" class="edge">
<title>HelgolandPlotlyModule&#45;&gt;PlotlyProfileGraphComponent </title>
<path fill="none" stroke="#000000" stroke-dasharray="5,2" d="M248,-187.1061C248,-187.1061 248,-205.991 248,-205.991"/>
<polygon fill="#000000" stroke="#000000" points="244.5001,-205.9909 248,-215.991 251.5001,-205.991 244.5001,-205.9909"/>
</g>
<!-- HelgolandCoreModule -->
<g id="node3" class="node">
<title>HelgolandCoreModule</title>
<polygon fill="#8dd3c7" stroke="#000000" points="214.5786,-122 211.5786,-126 190.5786,-126 187.5786,-122 69.4214,-122 69.4214,-86 214.5786,-86 214.5786,-122"/>
<text text-anchor="middle" x="142" y="-99.8" font-family="Times,serif" font-size="14.00" fill="#000000">HelgolandCoreModule</text>
</g>
<!-- HelgolandCoreModule&#45;&gt;HelgolandPlotlyModule -->
<g id="edge2" class="edge">
<title>HelgolandCoreModule&#45;&gt;HelgolandPlotlyModule</title>
<path fill="none" stroke="#000000" d="M193.4394,-122.1061C193.4394,-122.1061 193.4394,-140.991 193.4394,-140.991"/>
<polygon fill="#000000" stroke="#000000" points="189.9394,-140.9909 193.4394,-150.991 196.9394,-140.991 189.9394,-140.9909"/>
</g>
</g>
</svg>
