<?xml version="1.0" encoding="UTF-8" standalone="no"?>
<!DOCTYPE svg PUBLIC "-//W3C//DTD SVG 1.1//EN"
 "http://www.w3.org/Graphics/SVG/1.1/DTD/svg11.dtd">
<!-- Generated by graphviz version 2.40.1 (20161225.0304)
 -->
<!-- Title: dependencies Pages: 1 -->
<svg width="645pt" height="284pt"
 viewBox="0.00 0.00 645.00 284.00" xmlns="http://www.w3.org/2000/svg" xmlns:xlink="http://www.w3.org/1999/xlink">
<g id="graph0" class="graph" transform="scale(1 1) rotate(0) translate(4 280)">
<title>dependencies</title>
<polygon fill="#ffffff" stroke="transparent" points="-4,4 -4,-280 641,-280 641,4 -4,4"/>
<text text-anchor="start" x="297.5091" y="-42.4" font-family="sans-serif" font-weight="bold" font-size="14.00" fill="#000000">Legend</text>
<polygon fill="#ffffb3" stroke="transparent" points="84.5,-10 84.5,-30 104.5,-30 104.5,-10 84.5,-10"/>
<text text-anchor="start" x="108.129" y="-15.4" font-family="sans-serif" font-size="14.00" fill="#000000"> &#160;Declarations</text>
<polygon fill="#8dd3c7" stroke="transparent" points="197.5,-10 197.5,-30 217.5,-30 217.5,-10 197.5,-10"/>
<text text-anchor="start" x="221.2251" y="-15.4" font-family="sans-serif" font-size="14.00" fill="#000000"> &#160;Module</text>
<polygon fill="#80b1d3" stroke="transparent" points="283.5,-10 283.5,-30 303.5,-30 303.5,-10 283.5,-10"/>
<text text-anchor="start" x="307.2812" y="-15.4" font-family="sans-serif" font-size="14.00" fill="#000000"> &#160;Bootstrap</text>
<polygon fill="#fdb462" stroke="transparent" points="380.5,-10 380.5,-30 400.5,-30 400.5,-10 380.5,-10"/>
<text text-anchor="start" x="404.1732" y="-15.4" font-family="sans-serif" font-size="14.00" fill="#000000"> &#160;Providers</text>
<polygon fill="#fb8072" stroke="transparent" points="476.5,-10 476.5,-30 496.5,-30 496.5,-10 476.5,-10"/>
<text text-anchor="start" x="500.2258" y="-15.4" font-family="sans-serif" font-size="14.00" fill="#000000"> &#160;Exports</text>
<g id="clust1" class="cluster">
<title>cluster_HelgolandDatasetDownloadModule</title>
<polygon fill="none" stroke="#000000" stroke-dasharray="1,5" points="8,-70 8,-268 629,-268 629,-70 8,-70"/>
</g>
<g id="clust2" class="cluster">
<title>cluster_HelgolandDatasetDownloadModule_declarations</title>
<polygon fill="none" stroke="#000000" points="186,-78 186,-130 621,-130 621,-78 186,-78"/>
</g>
<g id="clust5" class="cluster">
<title>cluster_HelgolandDatasetDownloadModule_imports</title>
<polygon fill="none" stroke="#000000" points="16,-78 16,-130 178,-130 178,-78 16,-78"/>
</g>
<g id="clust6" class="cluster">
<title>cluster_HelgolandDatasetDownloadModule_exports</title>
<polygon fill="none" stroke="#000000" points="98,-208 98,-260 539,-260 539,-208 98,-208"/>
</g>
<!-- DatasetExportComponent -->
<g id="node1" class="node">
<title>DatasetExportComponent</title>
<polygon fill="#ffffb3" stroke="#000000" points="612.9129,-122 451.0871,-122 451.0871,-86 612.9129,-86 612.9129,-122"/>
<text text-anchor="middle" x="532" y="-99.8" font-family="Times,serif" font-size="14.00" fill="#000000">DatasetExportComponent</text>
</g>
<!-- HelgolandDatasetDownloadModule -->
<g id="node3" class="node">
<title>HelgolandDatasetDownloadModule</title>
<polygon fill="#8dd3c7" stroke="#000000" points="423.1615,-187 420.1615,-191 399.1615,-191 396.1615,-187 204.8385,-187 204.8385,-151 423.1615,-151 423.1615,-187"/>
<text text-anchor="middle" x="314" y="-164.8" font-family="Times,serif" font-size="14.00" fill="#000000">HelgolandDatasetDownloadModule</text>
</g>
<!-- DatasetExportComponent&#45;&gt;HelgolandDatasetDownloadModule -->
<g id="edge1" class="edge">
<title>DatasetExportComponent&#45;&gt;HelgolandDatasetDownloadModule</title>
<path fill="none" stroke="#000000" d="M491.375,-122.1061C491.375,-141.3391 491.375,-169 491.375,-169 491.375,-169 433.3045,-169 433.3045,-169"/>
<polygon fill="#000000" stroke="#000000" points="433.3045,-165.5001 423.3045,-169 433.3044,-172.5001 433.3045,-165.5001"/>
</g>
<!-- DatasetPermalinkDownloadComponent -->
<g id="node2" class="node">
<title>DatasetPermalinkDownloadComponent</title>
<polygon fill="#ffffb3" stroke="#000000" points="433.6713,-122 194.3287,-122 194.3287,-86 433.6713,-86 433.6713,-122"/>
<text text-anchor="middle" x="314" y="-99.8" font-family="Times,serif" font-size="14.00" fill="#000000">DatasetPermalinkDownloadComponent</text>
</g>
<!-- DatasetPermalinkDownloadComponent&#45;&gt;HelgolandDatasetDownloadModule -->
<g id="edge2" class="edge">
<title>DatasetPermalinkDownloadComponent&#45;&gt;HelgolandDatasetDownloadModule</title>
<path fill="none" stroke="#000000" d="M314,-122.1061C314,-122.1061 314,-140.991 314,-140.991"/>
<polygon fill="#000000" stroke="#000000" points="310.5001,-140.9909 314,-150.991 317.5001,-140.991 310.5001,-140.9909"/>
</g>
<!-- DatasetExportComponent  -->
<g id="node5" class="node">
<title>DatasetExportComponent </title>
<polygon fill="#fb8072" stroke="#000000" points="531.4124,-252 366.5876,-252 366.5876,-216 531.4124,-216 531.4124,-252"/>
<text text-anchor="middle" x="449" y="-229.8" font-family="Times,serif" font-size="14.00" fill="#000000">DatasetExportComponent </text>
</g>
<!-- HelgolandDatasetDownloadModule&#45;&gt;DatasetExportComponent  -->
<g id="edge4" class="edge">
<title>HelgolandDatasetDownloadModule&#45;&gt;DatasetExportComponent </title>
<path fill="none" stroke="#000000" stroke-dasharray="5,2" d="M394.8123,-187.1061C394.8123,-187.1061 394.8123,-205.991 394.8123,-205.991"/>
<polygon fill="#000000" stroke="#000000" points="391.3123,-205.9909 394.8123,-215.991 398.3123,-205.991 391.3123,-205.9909"/>
</g>
<!-- DatasetPermalinkDownloadComponent  -->
<g id="node6" class="node">
<title>DatasetPermalinkDownloadComponent </title>
<polygon fill="#fb8072" stroke="#000000" points="348.1714,-252 105.8286,-252 105.8286,-216 348.1714,-216 348.1714,-252"/>
<text text-anchor="middle" x="227" y="-229.8" font-family="Times,serif" font-size="14.00" fill="#000000">DatasetPermalinkDownloadComponent </text>
</g>
<!-- HelgolandDatasetDownloadModule&#45;&gt;DatasetPermalinkDownloadComponent  -->
<g id="edge5" class="edge">
<title>HelgolandDatasetDownloadModule&#45;&gt;DatasetPermalinkDownloadComponent </title>
<path fill="none" stroke="#000000" stroke-dasharray="5,2" d="M276.6275,-187.1061C276.6275,-187.1061 276.6275,-205.991 276.6275,-205.991"/>
<polygon fill="#000000" stroke="#000000" points="273.1275,-205.9909 276.6275,-215.991 280.1275,-205.991 273.1275,-205.9909"/>
</g>
<!-- HelgolandCoreModule -->
<g id="node4" class="node">
<title>HelgolandCoreModule</title>
<polygon fill="#8dd3c7" stroke="#000000" points="169.5786,-122 166.5786,-126 145.5786,-126 142.5786,-122 24.4214,-122 24.4214,-86 169.5786,-86 169.5786,-122"/>
<text text-anchor="middle" x="97" y="-99.8" font-family="Times,serif" font-size="14.00" fill="#000000">HelgolandCoreModule</text>
</g>
<!-- HelgolandCoreModule&#45;&gt;HelgolandDatasetDownloadModule -->
<g id="edge3" class="edge">
<title>HelgolandCoreModule&#45;&gt;HelgolandDatasetDownloadModule</title>
<path fill="none" stroke="#000000" d="M137.6019,-122.1061C137.6019,-141.3391 137.6019,-169 137.6019,-169 137.6019,-169 194.7936,-169 194.7936,-169"/>
<polygon fill="#000000" stroke="#000000" points="194.7937,-172.5001 204.7936,-169 194.7936,-165.5001 194.7937,-172.5001"/>
</g>
</g>
</svg>
