<?xml version="1.0" encoding="UTF-8" standalone="no"?>
<!DOCTYPE svg PUBLIC "-//W3C//DTD SVG 1.1//EN"
 "http://www.w3.org/Graphics/SVG/1.1/DTD/svg11.dtd">
<!-- Generated by graphviz version 2.40.1 (20161225.0304)
 -->
<!-- Title: dependencies Pages: 1 -->
<svg width="737pt" height="284pt"
 viewBox="0.00 0.00 737.00 284.00" xmlns="http://www.w3.org/2000/svg" xmlns:xlink="http://www.w3.org/1999/xlink">
<g id="graph0" class="graph" transform="scale(1 1) rotate(0) translate(4 280)">
<title>dependencies</title>
<polygon fill="#ffffff" stroke="transparent" points="-4,4 -4,-280 733,-280 733,4 -4,4"/>
<text text-anchor="start" x="343.5091" y="-42.4" font-family="sans-serif" font-weight="bold" font-size="14.00" fill="#000000">Legend</text>
<polygon fill="#ffffb3" stroke="transparent" points="130.5,-10 130.5,-30 150.5,-30 150.5,-10 130.5,-10"/>
<text text-anchor="start" x="154.129" y="-15.4" font-family="sans-serif" font-size="14.00" fill="#000000"> &#160;Declarations</text>
<polygon fill="#8dd3c7" stroke="transparent" points="243.5,-10 243.5,-30 263.5,-30 263.5,-10 243.5,-10"/>
<text text-anchor="start" x="267.2251" y="-15.4" font-family="sans-serif" font-size="14.00" fill="#000000"> &#160;Module</text>
<polygon fill="#80b1d3" stroke="transparent" points="329.5,-10 329.5,-30 349.5,-30 349.5,-10 329.5,-10"/>
<text text-anchor="start" x="353.2812" y="-15.4" font-family="sans-serif" font-size="14.00" fill="#000000"> &#160;Bootstrap</text>
<polygon fill="#fdb462" stroke="transparent" points="426.5,-10 426.5,-30 446.5,-30 446.5,-10 426.5,-10"/>
<text text-anchor="start" x="450.1732" y="-15.4" font-family="sans-serif" font-size="14.00" fill="#000000"> &#160;Providers</text>
<polygon fill="#fb8072" stroke="transparent" points="522.5,-10 522.5,-30 542.5,-30 542.5,-10 522.5,-10"/>
<text text-anchor="start" x="546.2258" y="-15.4" font-family="sans-serif" font-size="14.00" fill="#000000"> &#160;Exports</text>
<g id="clust1" class="cluster">
<title>cluster_HelgolandFacetSearchModule</title>
<polygon fill="none" stroke="#000000" stroke-dasharray="1,5" points="8,-70 8,-268 721,-268 721,-70 8,-70"/>
</g>
<g id="clust2" class="cluster">
<title>cluster_HelgolandFacetSearchModule_declarations</title>
<polygon fill="none" stroke="#000000" points="186,-78 186,-130 713,-130 713,-78 186,-78"/>
</g>
<g id="clust6" class="cluster">
<title>cluster_HelgolandFacetSearchModule_imports</title>
<polygon fill="none" stroke="#000000" points="16,-78 16,-130 178,-130 178,-78 16,-78"/>
</g>
<g id="clust7" class="cluster">
<title>cluster_HelgolandFacetSearchModule_exports</title>
<polygon fill="none" stroke="#000000" points="95,-208 95,-260 633,-260 633,-208 95,-208"/>
</g>
<!-- BoolTogglerComponent -->
<g id="node1" class="node">
<title>BoolTogglerComponent</title>
<polygon fill="#ffffb3" stroke="#000000" points="705.378,-122 552.622,-122 552.622,-86 705.378,-86 705.378,-122"/>
<text text-anchor="middle" x="629" y="-99.8" font-family="Times,serif" font-size="14.00" fill="#000000">BoolTogglerComponent</text>
</g>
<!-- HelgolandFacetSearchModule -->
<g id="node4" class="node">
<title>HelgolandFacetSearchModule</title>
<polygon fill="#8dd3c7" stroke="#000000" points="461.271,-187 458.271,-191 437.271,-191 434.271,-187 274.729,-187 274.729,-151 461.271,-151 461.271,-187"/>
<text text-anchor="middle" x="368" y="-164.8" font-family="Times,serif" font-size="14.00" fill="#000000">HelgolandFacetSearchModule</text>
</g>
<!-- BoolTogglerComponent&#45;&gt;HelgolandFacetSearchModule -->
<g id="edge1" class="edge">
<title>BoolTogglerComponent&#45;&gt;HelgolandFacetSearchModule</title>
<path fill="none" stroke="#000000" d="M588.875,-122.1061C588.875,-141.3391 588.875,-169 588.875,-169 588.875,-169 471.3507,-169 471.3507,-169"/>
<polygon fill="#000000" stroke="#000000" points="471.3508,-165.5001 461.3507,-169 471.3507,-172.5001 471.3508,-165.5001"/>
</g>
<!-- RefreshButtonComponent -->
<g id="node2" class="node">
<title>RefreshButtonComponent</title>
<polygon fill="#ffffb3" stroke="#000000" points="534.4818,-122 371.5182,-122 371.5182,-86 534.4818,-86 534.4818,-122"/>
<text text-anchor="middle" x="453" y="-99.8" font-family="Times,serif" font-size="14.00" fill="#000000">RefreshButtonComponent</text>
</g>
<!-- RefreshButtonComponent&#45;&gt;HelgolandFacetSearchModule -->
<g id="edge2" class="edge">
<title>RefreshButtonComponent&#45;&gt;HelgolandFacetSearchModule</title>
<path fill="none" stroke="#000000" d="M416.3223,-122.1061C416.3223,-122.1061 416.3223,-140.991 416.3223,-140.991"/>
<polygon fill="#000000" stroke="#000000" points="412.8223,-140.9909 416.3223,-150.991 419.8223,-140.991 412.8223,-140.9909"/>
</g>
<!-- StringTogglerComponent -->
<g id="node3" class="node">
<title>StringTogglerComponent</title>
<polygon fill="#ffffb3" stroke="#000000" points="353.8752,-122 194.1248,-122 194.1248,-86 353.8752,-86 353.8752,-122"/>
<text text-anchor="middle" x="274" y="-99.8" font-family="Times,serif" font-size="14.00" fill="#000000">StringTogglerComponent</text>
</g>
<!-- StringTogglerComponent&#45;&gt;HelgolandFacetSearchModule -->
<g id="edge3" class="edge">
<title>StringTogglerComponent&#45;&gt;HelgolandFacetSearchModule</title>
<path fill="none" stroke="#000000" d="M314.4011,-122.1061C314.4011,-122.1061 314.4011,-140.991 314.4011,-140.991"/>
<polygon fill="#000000" stroke="#000000" points="310.9012,-140.9909 314.4011,-150.991 317.9012,-140.991 310.9012,-140.9909"/>
</g>
<!-- BoolTogglerComponent  -->
<g id="node6" class="node">
<title>BoolTogglerComponent </title>
<polygon fill="#fb8072" stroke="#000000" points="625.3785,-252 468.6215,-252 468.6215,-216 625.3785,-216 625.3785,-252"/>
<text text-anchor="middle" x="547" y="-229.8" font-family="Times,serif" font-size="14.00" fill="#000000">BoolTogglerComponent </text>
</g>
<!-- HelgolandFacetSearchModule&#45;&gt;BoolTogglerComponent  -->
<g id="edge5" class="edge">
<title>HelgolandFacetSearchModule&#45;&gt;BoolTogglerComponent </title>
<path fill="none" stroke="#000000" stroke-dasharray="5,2" d="M456.1882,-187.1061C456.1882,-206.3391 456.1882,-234 456.1882,-234 456.1882,-234 458.4354,-234 458.4354,-234"/>
<polygon fill="#000000" stroke="#000000" points="458.4355,-237.5001 468.4354,-234 458.4354,-230.5001 458.4355,-237.5001"/>
</g>
<!-- RefreshButtonComponent  -->
<g id="node7" class="node">
<title>RefreshButtonComponent </title>
<polygon fill="#fb8072" stroke="#000000" points="451.4825,-252 284.5175,-252 284.5175,-216 451.4825,-216 451.4825,-252"/>
<text text-anchor="middle" x="368" y="-229.8" font-family="Times,serif" font-size="14.00" fill="#000000">RefreshButtonComponent </text>
</g>
<!-- HelgolandFacetSearchModule&#45;&gt;RefreshButtonComponent  -->
<g id="edge6" class="edge">
<title>HelgolandFacetSearchModule&#45;&gt;RefreshButtonComponent </title>
<path fill="none" stroke="#000000" stroke-dasharray="5,2" d="M368,-187.1061C368,-187.1061 368,-205.991 368,-205.991"/>
<polygon fill="#000000" stroke="#000000" points="364.5001,-205.9909 368,-215.991 371.5001,-205.991 364.5001,-205.9909"/>
</g>
<!-- StringTogglerComponent  -->
<g id="node8" class="node">
<title>StringTogglerComponent </title>
<polygon fill="#fb8072" stroke="#000000" points="266.8756,-252 103.1244,-252 103.1244,-216 266.8756,-216 266.8756,-252"/>
<text text-anchor="middle" x="185" y="-229.8" font-family="Times,serif" font-size="14.00" fill="#000000">StringTogglerComponent </text>
</g>
<!-- HelgolandFacetSearchModule&#45;&gt;StringTogglerComponent  -->
<g id="edge7" class="edge">
<title>HelgolandFacetSearchModule&#45;&gt;StringTogglerComponent </title>
<path fill="none" stroke="#000000" stroke-dasharray="5,2" d="M279.8119,-187.1061C279.8119,-206.3391 279.8119,-234 279.8119,-234 279.8119,-234 277.0251,-234 277.0251,-234"/>
<polygon fill="#000000" stroke="#000000" points="277.0251,-230.5001 267.0251,-234 277.0251,-237.5001 277.0251,-230.5001"/>
</g>
<!-- HelgolandCoreModule -->
<g id="node5" class="node">
<title>HelgolandCoreModule</title>
<polygon fill="#8dd3c7" stroke="#000000" points="169.5786,-122 166.5786,-126 145.5786,-126 142.5786,-122 24.4214,-122 24.4214,-86 169.5786,-86 169.5786,-122"/>
<text text-anchor="middle" x="97" y="-99.8" font-family="Times,serif" font-size="14.00" fill="#000000">HelgolandCoreModule</text>
</g>
<!-- HelgolandCoreModule&#45;&gt;HelgolandFacetSearchModule -->
<g id="edge4" class="edge">
<title>HelgolandCoreModule&#45;&gt;HelgolandFacetSearchModule</title>
<path fill="none" stroke="#000000" d="M136.4259,-122.1061C136.4259,-141.3391 136.4259,-169 136.4259,-169 136.4259,-169 264.8109,-169 264.8109,-169"/>
<polygon fill="#000000" stroke="#000000" points="264.811,-172.5001 274.8109,-169 264.8109,-165.5001 264.811,-172.5001"/>
</g>
</g>
</svg>
