<?xml version="1.0" encoding="UTF-8" standalone="no"?>
<!DOCTYPE svg PUBLIC "-//W3C//DTD SVG 1.1//EN"
 "http://www.w3.org/Graphics/SVG/1.1/DTD/svg11.dtd">
<!-- Generated by graphviz version 2.40.1 (20161225.0304)
 -->
<!-- Title: dependencies Pages: 1 -->
<svg width="2485pt" height="284pt"
 viewBox="0.00 0.00 2485.00 284.00" xmlns="http://www.w3.org/2000/svg" xmlns:xlink="http://www.w3.org/1999/xlink">
<g id="graph0" class="graph" transform="scale(1 1) rotate(0) translate(4 280)">
<title>dependencies</title>
<polygon fill="#ffffff" stroke="transparent" points="-4,4 -4,-280 2481,-280 2481,4 -4,4"/>
<text text-anchor="start" x="1217.5091" y="-42.4" font-family="sans-serif" font-weight="bold" font-size="14.00" fill="#000000">Legend</text>
<polygon fill="#ffffb3" stroke="transparent" points="1004.5,-10 1004.5,-30 1024.5,-30 1024.5,-10 1004.5,-10"/>
<text text-anchor="start" x="1028.129" y="-15.4" font-family="sans-serif" font-size="14.00" fill="#000000"> &#160;Declarations</text>
<polygon fill="#8dd3c7" stroke="transparent" points="1117.5,-10 1117.5,-30 1137.5,-30 1137.5,-10 1117.5,-10"/>
<text text-anchor="start" x="1141.2251" y="-15.4" font-family="sans-serif" font-size="14.00" fill="#000000"> &#160;Module</text>
<polygon fill="#80b1d3" stroke="transparent" points="1203.5,-10 1203.5,-30 1223.5,-30 1223.5,-10 1203.5,-10"/>
<text text-anchor="start" x="1227.2812" y="-15.4" font-family="sans-serif" font-size="14.00" fill="#000000"> &#160;Bootstrap</text>
<polygon fill="#fdb462" stroke="transparent" points="1300.5,-10 1300.5,-30 1320.5,-30 1320.5,-10 1300.5,-10"/>
<text text-anchor="start" x="1324.1732" y="-15.4" font-family="sans-serif" font-size="14.00" fill="#000000"> &#160;Providers</text>
<polygon fill="#fb8072" stroke="transparent" points="1396.5,-10 1396.5,-30 1416.5,-30 1416.5,-10 1396.5,-10"/>
<text text-anchor="start" x="1420.2258" y="-15.4" font-family="sans-serif" font-size="14.00" fill="#000000"> &#160;Exports</text>
<g id="clust1" class="cluster">
<title>cluster_HelgolandFacetSearchModule</title>
<polygon fill="none" stroke="#000000" stroke-dasharray="1,5" points="8,-70 8,-268 2469,-268 2469,-70 8,-70"/>
</g>
<g id="clust2" class="cluster">
<title>cluster_HelgolandFacetSearchModule_declarations</title>
<polygon fill="none" stroke="#000000" points="186,-78 186,-130 2461,-130 2461,-78 186,-78"/>
</g>
<g id="clust13" class="cluster">
<title>cluster_HelgolandFacetSearchModule_imports</title>
<polygon fill="none" stroke="#000000" points="16,-78 16,-130 178,-130 178,-78 16,-78"/>
</g>
<g id="clust14" class="cluster">
<title>cluster_HelgolandFacetSearchModule_exports</title>
<polygon fill="none" stroke="#000000" points="82,-208 82,-260 2395,-260 2395,-208 82,-208"/>
</g>
<!-- D3GeneralGraphComponent -->
<g id="node1" class="node">
<title>D3GeneralGraphComponent</title>
<polygon fill="#ffffb3" stroke="#000000" points="2452.7226,-122 2275.2774,-122 2275.2774,-86 2452.7226,-86 2452.7226,-122"/>
<text text-anchor="middle" x="2364" y="-99.8" font-family="Times,serif" font-size="14.00" fill="#000000">D3GeneralGraphComponent</text>
</g>
<!-- HelgolandFacetSearchModule -->
<g id="node11" class="node">
<title>HelgolandFacetSearchModule</title>
<polygon fill="#8dd3c7" stroke="#000000" points="1299.271,-187 1296.271,-191 1275.271,-191 1272.271,-187 1112.729,-187 1112.729,-151 1299.271,-151 1299.271,-187"/>
<text text-anchor="middle" x="1206" y="-164.8" font-family="Times,serif" font-size="14.00" fill="#000000">HelgolandFacetSearchModule</text>
</g>
<!-- D3GeneralGraphComponent&#45;&gt;HelgolandFacetSearchModule -->
<g id="edge1" class="edge">
<title>D3GeneralGraphComponent&#45;&gt;HelgolandFacetSearchModule</title>
<path fill="none" stroke="#000000" d="M2330.875,-122.1061C2330.875,-141.3391 2330.875,-169 2330.875,-169 2330.875,-169 1309.4903,-169 1309.4903,-169"/>
<polygon fill="#000000" stroke="#000000" points="1309.4904,-165.5001 1299.4903,-169 1309.4903,-172.5001 1309.4904,-165.5001"/>
</g>
<!-- D3GraphCopyrightComponent -->
<g id="node2" class="node">
<title>D3GraphCopyrightComponent</title>
<polygon fill="#ffffb3" stroke="#000000" points="2257.1993,-122 2066.8007,-122 2066.8007,-86 2257.1993,-86 2257.1993,-122"/>
<text text-anchor="middle" x="2162" y="-99.8" font-family="Times,serif" font-size="14.00" fill="#000000">D3GraphCopyrightComponent</text>
</g>
<!-- D3GraphCopyrightComponent&#45;&gt;HelgolandFacetSearchModule -->
<g id="edge2" class="edge">
<title>D3GraphCopyrightComponent&#45;&gt;HelgolandFacetSearchModule</title>
<path fill="none" stroke="#000000" d="M2127.375,-122.2667C2127.375,-140.5552 2127.375,-166 2127.375,-166 2127.375,-166 1309.4168,-166 1309.4168,-166"/>
<polygon fill="#000000" stroke="#000000" points="1309.4169,-162.5001 1299.4168,-166 1309.4168,-169.5001 1309.4169,-162.5001"/>
</g>
<!-- D3GraphHoverLineComponent -->
<g id="node3" class="node">
<title>D3GraphHoverLineComponent</title>
<polygon fill="#ffffb3" stroke="#000000" points="2049.0604,-122 1854.9396,-122 1854.9396,-86 2049.0604,-86 2049.0604,-122"/>
<text text-anchor="middle" x="1952" y="-99.8" font-family="Times,serif" font-size="14.00" fill="#000000">D3GraphHoverLineComponent</text>
</g>
<!-- D3GraphHoverLineComponent&#45;&gt;HelgolandFacetSearchModule -->
<g id="edge3" class="edge">
<title>D3GraphHoverLineComponent&#45;&gt;HelgolandFacetSearchModule</title>
<path fill="none" stroke="#000000" d="M1915.375,-122.0336C1915.375,-139.0597 1915.375,-162 1915.375,-162 1915.375,-162 1309.4679,-162 1309.4679,-162"/>
<polygon fill="#000000" stroke="#000000" points="1309.4679,-158.5001 1299.4679,-162 1309.4678,-165.5001 1309.4679,-158.5001"/>
</g>
<!-- D3GraphPanZoomInteractionComponent -->
<g id="node4" class="node">
<title>D3GraphPanZoomInteractionComponent</title>
<polygon fill="#ffffb3" stroke="#000000" points="1837.4985,-122 1588.5015,-122 1588.5015,-86 1837.4985,-86 1837.4985,-122"/>
<text text-anchor="middle" x="1713" y="-99.8" font-family="Times,serif" font-size="14.00" fill="#000000">D3GraphPanZoomInteractionComponent</text>
</g>
<!-- D3GraphPanZoomInteractionComponent&#45;&gt;HelgolandFacetSearchModule -->
<g id="edge4" class="edge">
<title>D3GraphPanZoomInteractionComponent&#45;&gt;HelgolandFacetSearchModule</title>
<path fill="none" stroke="#000000" d="M1674.375,-122.0091C1674.375,-138.0494 1674.375,-159 1674.375,-159 1674.375,-159 1309.3763,-159 1309.3763,-159"/>
<polygon fill="#000000" stroke="#000000" points="1309.3763,-155.5001 1299.3763,-159 1309.3762,-162.5001 1309.3763,-155.5001"/>
</g>
<!-- D3OverviewTimeseriesGraphComponent -->
<g id="node5" class="node">
<title>D3OverviewTimeseriesGraphComponent</title>
<polygon fill="#ffffb3" stroke="#000000" points="1571.0324,-122 1320.9676,-122 1320.9676,-86 1571.0324,-86 1571.0324,-122"/>
<text text-anchor="middle" x="1446" y="-99.8" font-family="Times,serif" font-size="14.00" fill="#000000">D3OverviewTimeseriesGraphComponent</text>
</g>
<!-- D3OverviewTimeseriesGraphComponent&#45;&gt;HelgolandFacetSearchModule -->
<g id="edge5" class="edge">
<title>D3OverviewTimeseriesGraphComponent&#45;&gt;HelgolandFacetSearchModule</title>
<path fill="none" stroke="#000000" d="M1405.375,-122.1243C1405.375,-136.7832 1405.375,-155 1405.375,-155 1405.375,-155 1309.2663,-155 1309.2663,-155"/>
<polygon fill="#000000" stroke="#000000" points="1309.2663,-151.5001 1299.2663,-155 1309.2662,-158.5001 1309.2663,-151.5001"/>
</g>
<!-- D3TimeseriesGraphComponent -->
<g id="node6" class="node">
<title>D3TimeseriesGraphComponent</title>
<polygon fill="#ffffb3" stroke="#000000" points="1303.3389,-122 1108.6611,-122 1108.6611,-86 1303.3389,-86 1303.3389,-122"/>
<text text-anchor="middle" x="1206" y="-99.8" font-family="Times,serif" font-size="14.00" fill="#000000">D3TimeseriesGraphComponent</text>
</g>
<!-- D3TimeseriesGraphComponent&#45;&gt;HelgolandFacetSearchModule -->
<g id="edge6" class="edge">
<title>D3TimeseriesGraphComponent&#45;&gt;HelgolandFacetSearchModule</title>
<path fill="none" stroke="#000000" d="M1206,-122.1061C1206,-122.1061 1206,-140.991 1206,-140.991"/>
<polygon fill="#000000" stroke="#000000" points="1202.5001,-140.9909 1206,-150.991 1209.5001,-140.991 1202.5001,-140.9909"/>
</g>
<!-- D3TrajectoryGraphComponent -->
<g id="node7" class="node">
<title>D3TrajectoryGraphComponent</title>
<polygon fill="#ffffb3" stroke="#000000" points="1090.7198,-122 899.2802,-122 899.2802,-86 1090.7198,-86 1090.7198,-122"/>
<text text-anchor="middle" x="995" y="-99.8" font-family="Times,serif" font-size="14.00" fill="#000000">D3TrajectoryGraphComponent</text>
</g>
<!-- D3TrajectoryGraphComponent&#45;&gt;HelgolandFacetSearchModule -->
<g id="edge7" class="edge">
<title>D3TrajectoryGraphComponent&#45;&gt;HelgolandFacetSearchModule</title>
<path fill="none" stroke="#000000" d="M1055.3452,-122.1243C1055.3452,-136.7832 1055.3452,-155 1055.3452,-155 1055.3452,-155 1102.7311,-155 1102.7311,-155"/>
<polygon fill="#000000" stroke="#000000" points="1102.7311,-158.5001 1112.7311,-155 1102.7311,-151.5001 1102.7311,-158.5001"/>
</g>
<!-- D3YAxisModifierComponent -->
<g id="node8" class="node">
<title>D3YAxisModifierComponent</title>
<polygon fill="#ffffb3" stroke="#000000" points="881.2492,-122 696.7508,-122 696.7508,-86 881.2492,-86 881.2492,-122"/>
<text text-anchor="middle" x="789" y="-99.8" font-family="Times,serif" font-size="14.00" fill="#000000">D3YAxisModifierComponent</text>
</g>
<!-- D3YAxisModifierComponent&#45;&gt;HelgolandFacetSearchModule -->
<g id="edge8" class="edge">
<title>D3YAxisModifierComponent&#45;&gt;HelgolandFacetSearchModule</title>
<path fill="none" stroke="#000000" d="M843.8824,-122.0091C843.8824,-138.0494 843.8824,-159 843.8824,-159 843.8824,-159 1102.7457,-159 1102.7457,-159"/>
<polygon fill="#000000" stroke="#000000" points="1102.7457,-162.5001 1112.7457,-159 1102.7457,-155.5001 1102.7457,-162.5001"/>
</g>
<!-- ExportImageButtonComponent -->
<g id="node9" class="node">
<title>ExportImageButtonComponent</title>
<polygon fill="#ffffb3" stroke="#000000" points="678.035,-122 485.965,-122 485.965,-86 678.035,-86 678.035,-122"/>
<text text-anchor="middle" x="582" y="-99.8" font-family="Times,serif" font-size="14.00" fill="#000000">ExportImageButtonComponent</text>
</g>
<!-- ExportImageButtonComponent&#45;&gt;HelgolandFacetSearchModule -->
<g id="edge9" class="edge">
<title>ExportImageButtonComponent&#45;&gt;HelgolandFacetSearchModule</title>
<path fill="none" stroke="#000000" d="M639.0713,-122.0336C639.0713,-139.0597 639.0713,-162 639.0713,-162 639.0713,-162 1102.7009,-162 1102.7009,-162"/>
<polygon fill="#000000" stroke="#000000" points="1102.7009,-165.5001 1112.7009,-162 1102.7008,-158.5001 1102.7009,-165.5001"/>
</g>
<!-- ExtendedDataD3TimeseriesGraphComponent -->
<g id="node10" class="node">
<title>ExtendedDataD3TimeseriesGraphComponent</title>
<polygon fill="#ffffb3" stroke="#000000" points="468.1376,-122 193.8624,-122 193.8624,-86 468.1376,-86 468.1376,-122"/>
<text text-anchor="middle" x="331" y="-99.8" font-family="Times,serif" font-size="14.00" fill="#000000">ExtendedDataD3TimeseriesGraphComponent</text>
</g>
<!-- ExtendedDataD3TimeseriesGraphComponent&#45;&gt;HelgolandFacetSearchModule -->
<g id="edge10" class="edge">
<title>ExtendedDataD3TimeseriesGraphComponent&#45;&gt;HelgolandFacetSearchModule</title>
<path fill="none" stroke="#000000" d="M427.0258,-122.2667C427.0258,-140.5552 427.0258,-166 427.0258,-166 427.0258,-166 1102.8112,-166 1102.8112,-166"/>
<polygon fill="#000000" stroke="#000000" points="1102.8113,-169.5001 1112.8112,-166 1102.8112,-162.5001 1102.8113,-169.5001"/>
</g>
<!-- D3GeneralGraphComponent  -->
<g id="node13" class="node">
<title>D3GeneralGraphComponent </title>
<polygon fill="#fb8072" stroke="#000000" points="2386.7225,-252 2205.2775,-252 2205.2775,-216 2386.7225,-216 2386.7225,-252"/>
<text text-anchor="middle" x="2296" y="-229.8" font-family="Times,serif" font-size="14.00" fill="#000000">D3GeneralGraphComponent </text>
</g>
<!-- HelgolandFacetSearchModule&#45;&gt;D3GeneralGraphComponent  -->
<g id="edge12" class="edge">
<title>HelgolandFacetSearchModule&#45;&gt;D3GeneralGraphComponent </title>
<path fill="none" stroke="#000000" stroke-dasharray="5,2" d="M1299.2462,-173C1551.9802,-173 2231.2442,-173 2231.2442,-173 2231.2442,-173 2231.2442,-205.698 2231.2442,-205.698"/>
<polygon fill="#000000" stroke="#000000" points="2227.7443,-205.698 2231.2442,-215.698 2234.7443,-205.698 2227.7443,-205.698"/>
</g>
<!-- D3GraphCopyrightComponent  -->
<g id="node14" class="node">
<title>D3GraphCopyrightComponent </title>
<polygon fill="#fb8072" stroke="#000000" points="2187.6994,-252 1994.3006,-252 1994.3006,-216 2187.6994,-216 2187.6994,-252"/>
<text text-anchor="middle" x="2091" y="-229.8" font-family="Times,serif" font-size="14.00" fill="#000000">D3GraphCopyrightComponent </text>
</g>
<!-- HelgolandFacetSearchModule&#45;&gt;D3GraphCopyrightComponent  -->
<g id="edge13" class="edge">
<title>HelgolandFacetSearchModule&#45;&gt;D3GraphCopyrightComponent </title>
<path fill="none" stroke="#000000" stroke-dasharray="5,2" d="M1299.1612,-177C1513.1591,-177 2021.5903,-177 2021.5903,-177 2021.5903,-177 2021.5903,-205.9648 2021.5903,-205.9648"/>
<polygon fill="#000000" stroke="#000000" points="2018.0904,-205.9648 2021.5903,-215.9648 2025.0904,-205.9649 2018.0904,-205.9648"/>
</g>
<!-- D3GraphHoverLineComponent  -->
<g id="node15" class="node">
<title>D3GraphHoverLineComponent </title>
<polygon fill="#fb8072" stroke="#000000" points="1975.5609,-252 1778.4391,-252 1778.4391,-216 1975.5609,-216 1975.5609,-252"/>
<text text-anchor="middle" x="1877" y="-229.8" font-family="Times,serif" font-size="14.00" fill="#000000">D3GraphHoverLineComponent </text>
</g>
<!-- HelgolandFacetSearchModule&#45;&gt;D3GraphHoverLineComponent  -->
<g id="edge14" class="edge">
<title>HelgolandFacetSearchModule&#45;&gt;D3GraphHoverLineComponent </title>
<path fill="none" stroke="#000000" stroke-dasharray="5,2" d="M1299.3608,-180C1468.3768,-180 1807.7344,-180 1807.7344,-180 1807.7344,-180 1807.7344,-205.7181 1807.7344,-205.7181"/>
<polygon fill="#000000" stroke="#000000" points="1804.2345,-205.718 1807.7344,-215.7181 1811.2345,-205.7181 1804.2345,-205.718"/>
</g>
<!-- D3GraphPanZoomInteractionComponent  -->
<g id="node16" class="node">
<title>D3GraphPanZoomInteractionComponent </title>
<polygon fill="#fb8072" stroke="#000000" points="1759.998,-252 1508.002,-252 1508.002,-216 1759.998,-216 1759.998,-252"/>
<text text-anchor="middle" x="1634" y="-229.8" font-family="Times,serif" font-size="14.00" fill="#000000">D3GraphPanZoomInteractionComponent </text>
</g>
<!-- HelgolandFacetSearchModule&#45;&gt;D3GraphPanZoomInteractionComponent  -->
<g id="edge15" class="edge">
<title>HelgolandFacetSearchModule&#45;&gt;D3GraphPanZoomInteractionComponent </title>
<path fill="none" stroke="#000000" stroke-dasharray="5,2" d="M1299.3442,-184C1398.0078,-184 1539.5086,-184 1539.5086,-184 1539.5086,-184 1539.5086,-205.9489 1539.5086,-205.9489"/>
<polygon fill="#000000" stroke="#000000" points="1536.0087,-205.9488 1539.5086,-215.9489 1543.0087,-205.9489 1536.0087,-205.9488"/>
</g>
<!-- D3OverviewTimeseriesGraphComponent  -->
<g id="node17" class="node">
<title>D3OverviewTimeseriesGraphComponent </title>
<polygon fill="#fb8072" stroke="#000000" points="1489.5328,-252 1236.4672,-252 1236.4672,-216 1489.5328,-216 1489.5328,-252"/>
<text text-anchor="middle" x="1363" y="-229.8" font-family="Times,serif" font-size="14.00" fill="#000000">D3OverviewTimeseriesGraphComponent </text>
</g>
<!-- HelgolandFacetSearchModule&#45;&gt;D3OverviewTimeseriesGraphComponent  -->
<g id="edge16" class="edge">
<title>HelgolandFacetSearchModule&#45;&gt;D3OverviewTimeseriesGraphComponent </title>
<path fill="none" stroke="#000000" stroke-dasharray="5,2" d="M1267.6846,-187.1061C1267.6846,-187.1061 1267.6846,-205.991 1267.6846,-205.991"/>
<polygon fill="#000000" stroke="#000000" points="1264.1847,-205.9909 1267.6846,-215.991 1271.1847,-205.991 1264.1847,-205.9909"/>
</g>
<!-- D3TimeseriesGraphComponent  -->
<g id="node18" class="node">
<title>D3TimeseriesGraphComponent </title>
<polygon fill="#fb8072" stroke="#000000" points="1218.3391,-252 1019.6609,-252 1019.6609,-216 1218.3391,-216 1218.3391,-252"/>
<text text-anchor="middle" x="1119" y="-229.8" font-family="Times,serif" font-size="14.00" fill="#000000">D3TimeseriesGraphComponent </text>
</g>
<!-- HelgolandFacetSearchModule&#45;&gt;D3TimeseriesGraphComponent  -->
<g id="edge17" class="edge">
<title>HelgolandFacetSearchModule&#45;&gt;D3TimeseriesGraphComponent </title>
<path fill="none" stroke="#000000" stroke-dasharray="5,2" d="M1165.517,-187.1061C1165.517,-187.1061 1165.517,-205.991 1165.517,-205.991"/>
<polygon fill="#000000" stroke="#000000" points="1162.0171,-205.9909 1165.517,-215.991 1169.0171,-205.991 1162.0171,-205.9909"/>
</g>
<!-- D3TrajectoryGraphComponent  -->
<g id="node19" class="node">
<title>D3TrajectoryGraphComponent </title>
<polygon fill="#fb8072" stroke="#000000" points="1001.7197,-252 806.2803,-252 806.2803,-216 1001.7197,-216 1001.7197,-252"/>
<text text-anchor="middle" x="904" y="-229.8" font-family="Times,serif" font-size="14.00" fill="#000000">D3TrajectoryGraphComponent </text>
</g>
<!-- HelgolandFacetSearchModule&#45;&gt;D3TrajectoryGraphComponent  -->
<g id="edge18" class="edge">
<title>HelgolandFacetSearchModule&#45;&gt;D3TrajectoryGraphComponent </title>
<path fill="none" stroke="#000000" stroke-dasharray="5,2" d="M1112.6284,-184C1039.6057,-184 950.375,-184 950.375,-184 950.375,-184 950.375,-205.9489 950.375,-205.9489"/>
<polygon fill="#000000" stroke="#000000" points="946.8751,-205.9488 950.375,-215.9489 953.8751,-205.9489 946.8751,-205.9488"/>
</g>
<!-- D3YAxisModifierComponent  -->
<g id="node20" class="node">
<title>D3YAxisModifierComponent </title>
<polygon fill="#fb8072" stroke="#000000" points="788.2492,-252 599.7508,-252 599.7508,-216 788.2492,-216 788.2492,-252"/>
<text text-anchor="middle" x="694" y="-229.8" font-family="Times,serif" font-size="14.00" fill="#000000">D3YAxisModifierComponent </text>
</g>
<!-- HelgolandFacetSearchModule&#45;&gt;D3YAxisModifierComponent  -->
<g id="edge19" class="edge">
<title>HelgolandFacetSearchModule&#45;&gt;D3YAxisModifierComponent </title>
<path fill="none" stroke="#000000" stroke-dasharray="5,2" d="M1112.7363,-180C977.3502,-180 742.375,-180 742.375,-180 742.375,-180 742.375,-205.7181 742.375,-205.7181"/>
<polygon fill="#000000" stroke="#000000" points="738.8751,-205.718 742.375,-215.7181 745.8751,-205.7181 738.8751,-205.718"/>
</g>
<!-- ExportImageButtonComponent  -->
<g id="node21" class="node">
<title>ExportImageButtonComponent </title>
<polygon fill="#fb8072" stroke="#000000" points="582.0344,-252 385.9656,-252 385.9656,-216 582.0344,-216 582.0344,-252"/>
<text text-anchor="middle" x="484" y="-229.8" font-family="Times,serif" font-size="14.00" fill="#000000">ExportImageButtonComponent </text>
</g>
<!-- HelgolandFacetSearchModule&#45;&gt;ExportImageButtonComponent  -->
<g id="edge20" class="edge">
<title>HelgolandFacetSearchModule&#45;&gt;ExportImageButtonComponent </title>
<path fill="none" stroke="#000000" stroke-dasharray="5,2" d="M1112.5439,-177C927.8623,-177 533.875,-177 533.875,-177 533.875,-177 533.875,-205.9648 533.875,-205.9648"/>
<polygon fill="#000000" stroke="#000000" points="530.3751,-205.9648 533.875,-215.9648 537.3751,-205.9649 530.3751,-205.9648"/>
</g>
<!-- ExtendedDataD3TimeseriesGraphComponent  -->
<g id="node22" class="node">
<title>ExtendedDataD3TimeseriesGraphComponent </title>
<polygon fill="#fb8072" stroke="#000000" points="367.6378,-252 90.3622,-252 90.3622,-216 367.6378,-216 367.6378,-252"/>
<text text-anchor="middle" x="229" y="-229.8" font-family="Times,serif" font-size="14.00" fill="#000000">ExtendedDataD3TimeseriesGraphComponent </text>
</g>
<!-- HelgolandFacetSearchModule&#45;&gt;ExtendedDataD3TimeseriesGraphComponent  -->
<g id="edge21" class="edge">
<title>HelgolandFacetSearchModule&#45;&gt;ExtendedDataD3TimeseriesGraphComponent </title>
<path fill="none" stroke="#000000" stroke-dasharray="5,2" d="M1112.6317,-173C877.7348,-173 280.875,-173 280.875,-173 280.875,-173 280.875,-205.698 280.875,-205.698"/>
<polygon fill="#000000" stroke="#000000" points="277.3751,-205.698 280.875,-215.698 284.3751,-205.698 277.3751,-205.698"/>
</g>
<!-- HelgolandCoreModule -->
<g id="node12" class="node">
<title>HelgolandCoreModule</title>
<polygon fill="#8dd3c7" stroke="#000000" points="169.5786,-122 166.5786,-126 145.5786,-126 142.5786,-122 24.4214,-122 24.4214,-86 169.5786,-86 169.5786,-122"/>
<text text-anchor="middle" x="97" y="-99.8" font-family="Times,serif" font-size="14.00" fill="#000000">HelgolandCoreModule</text>
</g>
<!-- HelgolandCoreModule&#45;&gt;HelgolandFacetSearchModule -->
<g id="edge11" class="edge">
<title>HelgolandCoreModule&#45;&gt;HelgolandFacetSearchModule</title>
<path fill="none" stroke="#000000" d="M129.8603,-122.1061C129.8603,-141.3391 129.8603,-169 129.8602,-169 129.8602,-169 1102.8504,-169 1102.8504,-169"/>
<polygon fill="#000000" stroke="#000000" points="1102.8504,-172.5001 1112.8504,-169 1102.8503,-165.5001 1102.8504,-172.5001"/>
</g>
</g>
</svg>
