<?xml version="1.0" encoding="UTF-8" standalone="no"?>
<!DOCTYPE svg PUBLIC "-//W3C//DTD SVG 1.1//EN"
 "http://www.w3.org/Graphics/SVG/1.1/DTD/svg11.dtd">
<!-- Generated by graphviz version 2.40.1 (20161225.0304)
 -->
<!-- Title: dependencies Pages: 1 -->
<svg width="983pt" height="211pt"
 viewBox="0.00 0.00 983.00 211.00" xmlns="http://www.w3.org/2000/svg" xmlns:xlink="http://www.w3.org/1999/xlink">
<g id="graph0" class="graph" transform="scale(1 1) rotate(0) translate(4 207)">
<title>dependencies</title>
<polygon fill="#ffffff" stroke="transparent" points="-4,4 -4,-207 979,-207 979,4 -4,4"/>
<text text-anchor="start" x="466.5091" y="-42.4" font-family="sans-serif" font-weight="bold" font-size="14.00" fill="#000000">Legend</text>
<polygon fill="#ffffb3" stroke="transparent" points="253.5,-10 253.5,-30 273.5,-30 273.5,-10 253.5,-10"/>
<text text-anchor="start" x="277.129" y="-15.4" font-family="sans-serif" font-size="14.00" fill="#000000"> &#160;Declarations</text>
<polygon fill="#8dd3c7" stroke="transparent" points="366.5,-10 366.5,-30 386.5,-30 386.5,-10 366.5,-10"/>
<text text-anchor="start" x="390.2251" y="-15.4" font-family="sans-serif" font-size="14.00" fill="#000000"> &#160;Module</text>
<polygon fill="#80b1d3" stroke="transparent" points="452.5,-10 452.5,-30 472.5,-30 472.5,-10 452.5,-10"/>
<text text-anchor="start" x="476.2812" y="-15.4" font-family="sans-serif" font-size="14.00" fill="#000000"> &#160;Bootstrap</text>
<polygon fill="#fdb462" stroke="transparent" points="549.5,-10 549.5,-30 569.5,-30 569.5,-10 549.5,-10"/>
<text text-anchor="start" x="573.1732" y="-15.4" font-family="sans-serif" font-size="14.00" fill="#000000"> &#160;Providers</text>
<polygon fill="#fb8072" stroke="transparent" points="645.5,-10 645.5,-30 665.5,-30 665.5,-10 645.5,-10"/>
<text text-anchor="start" x="669.2258" y="-15.4" font-family="sans-serif" font-size="14.00" fill="#000000"> &#160;Exports</text>
<g id="clust1" class="cluster">
<title>cluster_HelgolandToolboxModule</title>
<polygon fill="none" stroke="#000000" stroke-dasharray="1,5" points="8,-70 8,-195 967,-195 967,-70 8,-70"/>
</g>
<g id="clust6" class="cluster">
<title>cluster_HelgolandToolboxModule_providers</title>
<polygon fill="none" stroke="#000000" points="16,-78 16,-130 959,-130 959,-78 16,-78"/>
</g>
<!-- ApiInterface -->
<g id="node1" class="node">
<title>ApiInterface</title>
<ellipse fill="#fdb462" stroke="#000000" cx="891" cy="-104" rx="59.6473" ry="18"/>
<text text-anchor="middle" x="891" y="-99.8" font-family="Times,serif" font-size="14.00" fill="#000000">ApiInterface</text>
</g>
<!-- HelgolandToolboxModule -->
<g id="node8" class="node">
<title>HelgolandToolboxModule</title>
<polygon fill="#8dd3c7" stroke="#000000" points="515.8103,-187 512.8103,-191 491.8103,-191 488.8103,-187 350.1897,-187 350.1897,-151 515.8103,-151 515.8103,-187"/>
<text text-anchor="middle" x="433" y="-164.8" font-family="Times,serif" font-size="14.00" fill="#000000">HelgolandToolboxModule</text>
</g>
<!-- ApiInterface&#45;&gt;HelgolandToolboxModule -->
<g id="edge1" class="edge">
<title>ApiInterface&#45;&gt;HelgolandToolboxModule</title>
<path fill="none" stroke="#000000" d="M891,-122.2843C891,-143.3211 891,-175 891,-175 891,-175 525.6751,-175 525.6751,-175"/>
<polygon fill="#000000" stroke="#000000" points="525.6751,-171.5001 515.6751,-175 525.6751,-178.5001 525.6751,-171.5001"/>
</g>
<!-- ApiMapping -->
<g id="node2" class="node">
<title>ApiMapping</title>
<ellipse fill="#fdb462" stroke="#000000" cx="753" cy="-104" rx="60.2769" ry="18"/>
<text text-anchor="middle" x="753" y="-99.8" font-family="Times,serif" font-size="14.00" fill="#000000">ApiMapping</text>
</g>
<!-- ApiMapping&#45;&gt;HelgolandToolboxModule -->
<g id="edge2" class="edge">
<title>ApiMapping&#45;&gt;HelgolandToolboxModule</title>
<path fill="none" stroke="#000000" d="M753,-122.0225C753,-139.3734 753,-163 753,-163 753,-163 525.8241,-163 525.8241,-163"/>
<polygon fill="#000000" stroke="#000000" points="525.8241,-159.5001 515.8241,-163 525.8241,-166.5001 525.8241,-159.5001"/>
</g>
<!-- InternalIdHandler -->
<g id="node3" class="node">
<title>InternalIdHandler</title>
<ellipse fill="#fdb462" stroke="#000000" cx="594" cy="-104" rx="80.4151" ry="18"/>
<text text-anchor="middle" x="594" y="-99.8" font-family="Times,serif" font-size="14.00" fill="#000000">InternalIdHandler</text>
</g>
<!-- InternalIdHandler&#45;&gt;HelgolandToolboxModule -->
<g id="edge3" class="edge">
<title>InternalIdHandler&#45;&gt;HelgolandToolboxModule</title>
<path fill="none" stroke="#000000" d="M513.549,-104C508.0639,-104 504.6557,-104 504.6557,-104 504.6557,-104 504.6557,-140.8939 504.6557,-140.8939"/>
<polygon fill="#000000" stroke="#000000" points="501.1558,-140.8938 504.6557,-150.8939 508.1558,-140.8939 501.1558,-140.8938"/>
</g>
<!-- LocalStorage -->
<g id="node4" class="node">
<title>LocalStorage</title>
<ellipse fill="#fdb462" stroke="#000000" cx="433" cy="-104" rx="62.5373" ry="18"/>
<text text-anchor="middle" x="433" y="-99.8" font-family="Times,serif" font-size="14.00" fill="#000000">LocalStorage</text>
</g>
<!-- LocalStorage&#45;&gt;HelgolandToolboxModule -->
<g id="edge4" class="edge">
<title>LocalStorage&#45;&gt;HelgolandToolboxModule</title>
<path fill="none" stroke="#000000" d="M433,-122.1061C433,-122.1061 433,-140.991 433,-140.991"/>
<polygon fill="#000000" stroke="#000000" points="429.5001,-140.9909 433,-150.991 436.5001,-140.991 429.5001,-140.9909"/>
</g>
<!-- Time -->
<g id="node5" class="node">
<title>Time</title>
<ellipse fill="#fdb462" stroke="#000000" cx="321" cy="-104" rx="31.3371" ry="18"/>
<text text-anchor="middle" x="321" y="-99.8" font-family="Times,serif" font-size="14.00" fill="#000000">Time</text>
</g>
<!-- Time&#45;&gt;HelgolandToolboxModule -->
<g id="edge5" class="edge">
<title>Time&#45;&gt;HelgolandToolboxModule</title>
<path fill="none" stroke="#000000" d="M352.4728,-104C357.6948,-104 361.4499,-104 361.4499,-104 361.4499,-104 361.4499,-140.8939 361.4499,-140.8939"/>
<polygon fill="#000000" stroke="#000000" points="357.95,-140.8938 361.4499,-150.8939 364.95,-140.8939 357.95,-140.8938"/>
</g>
<!-- MapCache -->
<g id="node6" class="node">
<title>MapCache</title>
<ellipse fill="#fdb462" stroke="#000000" cx="219" cy="-104" rx="52.7295" ry="18"/>
<text text-anchor="middle" x="219" y="-99.8" font-family="Times,serif" font-size="14.00" fill="#000000">MapCache</text>
</g>
<!-- MapCache&#45;&gt;HelgolandToolboxModule -->
<g id="edge6" class="edge">
<title>MapCache&#45;&gt;HelgolandToolboxModule</title>
<path fill="none" stroke="#000000" d="M219,-122.0225C219,-139.3734 219,-163 219,-163 219,-163 340.262,-163 340.262,-163"/>
<polygon fill="#000000" stroke="#000000" points="340.262,-166.5001 350.262,-163 340.262,-159.5001 340.262,-166.5001"/>
</g>
<!-- ColorService -->
<g id="node7" class="node">
<title>ColorService</title>
<ellipse fill="#fdb462" stroke="#000000" cx="86" cy="-104" rx="61.975" ry="18"/>
<text text-anchor="middle" x="86" y="-99.8" font-family="Times,serif" font-size="14.00" fill="#000000">ColorService</text>
</g>
<!-- ColorService&#45;&gt;HelgolandToolboxModule -->
<g id="edge7" class="edge">
<title>ColorService&#45;&gt;HelgolandToolboxModule</title>
<path fill="none" stroke="#000000" d="M86,-122.2843C86,-143.3211 86,-175 86,-175 86,-175 340.3257,-175 340.3257,-175"/>
<polygon fill="#000000" stroke="#000000" points="340.3257,-178.5001 350.3257,-175 340.3257,-171.5001 340.3257,-178.5001"/>
</g>
</g>
</svg>
