<?xml version="1.0" encoding="UTF-8" standalone="no"?>
<!DOCTYPE svg PUBLIC "-//W3C//DTD SVG 1.1//EN"
 "http://www.w3.org/Graphics/SVG/1.1/DTD/svg11.dtd">
<!-- Generated by graphviz version 2.40.1 (20161225.0304)
 -->
<!-- Title: dependencies Pages: 1 -->
<svg width="2429pt" height="284pt"
 viewBox="0.00 0.00 2429.00 284.00" xmlns="http://www.w3.org/2000/svg" xmlns:xlink="http://www.w3.org/1999/xlink">
<g id="graph0" class="graph" transform="scale(1 1) rotate(0) translate(4 280)">
<title>dependencies</title>
<polygon fill="#ffffff" stroke="transparent" points="-4,4 -4,-280 2425,-280 2425,4 -4,4"/>
<text text-anchor="start" x="1189.5091" y="-42.4" font-family="sans-serif" font-weight="bold" font-size="14.00" fill="#000000">Legend</text>
<polygon fill="#ffffb3" stroke="transparent" points="976.5,-10 976.5,-30 996.5,-30 996.5,-10 976.5,-10"/>
<text text-anchor="start" x="1000.129" y="-15.4" font-family="sans-serif" font-size="14.00" fill="#000000"> &#160;Declarations</text>
<polygon fill="#8dd3c7" stroke="transparent" points="1089.5,-10 1089.5,-30 1109.5,-30 1109.5,-10 1089.5,-10"/>
<text text-anchor="start" x="1113.2251" y="-15.4" font-family="sans-serif" font-size="14.00" fill="#000000"> &#160;Module</text>
<polygon fill="#80b1d3" stroke="transparent" points="1175.5,-10 1175.5,-30 1195.5,-30 1195.5,-10 1175.5,-10"/>
<text text-anchor="start" x="1199.2812" y="-15.4" font-family="sans-serif" font-size="14.00" fill="#000000"> &#160;Bootstrap</text>
<polygon fill="#fdb462" stroke="transparent" points="1272.5,-10 1272.5,-30 1292.5,-30 1292.5,-10 1272.5,-10"/>
<text text-anchor="start" x="1296.1732" y="-15.4" font-family="sans-serif" font-size="14.00" fill="#000000"> &#160;Providers</text>
<polygon fill="#fb8072" stroke="transparent" points="1368.5,-10 1368.5,-30 1388.5,-30 1388.5,-10 1368.5,-10"/>
<text text-anchor="start" x="1392.2258" y="-15.4" font-family="sans-serif" font-size="14.00" fill="#000000"> &#160;Exports</text>
<g id="clust1" class="cluster">
<title>cluster_HelgolandMapModule</title>
<polygon fill="none" stroke="#000000" stroke-dasharray="1,5" points="8,-70 8,-268 2413,-268 2413,-70 8,-70"/>
</g>
<g id="clust2" class="cluster">
<title>cluster_HelgolandMapModule_declarations</title>
<polygon fill="none" stroke="#000000" points="342,-78 342,-130 2405,-130 2405,-78 342,-78"/>
</g>
<g id="clust13" class="cluster">
<title>cluster_HelgolandMapModule_exports</title>
<polygon fill="none" stroke="#000000" points="114,-208 114,-260 2211,-260 2211,-208 114,-208"/>
</g>
<g id="clust15" class="cluster">
<title>cluster_HelgolandMapModule_providers</title>
<polygon fill="none" stroke="#000000" points="16,-78 16,-130 334,-130 334,-78 16,-78"/>
</g>
<!-- D3GeneralGraphComponent -->
<g id="node1" class="node">
<title>D3GeneralGraphComponent</title>
<polygon fill="#ffffb3" stroke="#000000" points="2396.7226,-122 2219.2774,-122 2219.2774,-86 2396.7226,-86 2396.7226,-122"/>
<text text-anchor="middle" x="2308" y="-99.8" font-family="Times,serif" font-size="14.00" fill="#000000">D3GeneralGraphComponent</text>
</g>
<!-- HelgolandMapModule -->
<g id="node10" class="node">
<title>HelgolandMapModule</title>
<polygon fill="#8dd3c7" stroke="#000000" points="1222.5268,-187 1219.5268,-191 1198.5268,-191 1195.5268,-187 1079.4732,-187 1079.4732,-151 1222.5268,-151 1222.5268,-187"/>
<text text-anchor="middle" x="1151" y="-164.8" font-family="Times,serif" font-size="14.00" fill="#000000">HelgolandMapModule</text>
</g>
<!-- D3GeneralGraphComponent&#45;&gt;HelgolandMapModule -->
<g id="edge1" class="edge">
<title>D3GeneralGraphComponent&#45;&gt;HelgolandMapModule</title>
<path fill="none" stroke="#000000" d="M2308,-122.1061C2308,-141.3391 2308,-169 2308,-169 2308,-169 1232.9384,-169 1232.9384,-169"/>
<polygon fill="#000000" stroke="#000000" points="1232.9384,-165.5001 1222.9384,-169 1232.9383,-172.5001 1232.9384,-165.5001"/>
</g>
<!-- D3GraphCopyrightComponent -->
<g id="node2" class="node">
<title>D3GraphCopyrightComponent</title>
<polygon fill="#ffffb3" stroke="#000000" points="2201.1993,-122 2010.8007,-122 2010.8007,-86 2201.1993,-86 2201.1993,-122"/>
<text text-anchor="middle" x="2106" y="-99.8" font-family="Times,serif" font-size="14.00" fill="#000000">D3GraphCopyrightComponent</text>
</g>
<!-- D3GraphCopyrightComponent&#45;&gt;HelgolandMapModule -->
<g id="edge2" class="edge">
<title>D3GraphCopyrightComponent&#45;&gt;HelgolandMapModule</title>
<path fill="none" stroke="#000000" d="M2016.1446,-122.2667C2016.1446,-140.5552 2016.1446,-166 2016.1446,-166 2016.1446,-166 1232.5345,-166 1232.5345,-166"/>
<polygon fill="#000000" stroke="#000000" points="1232.5345,-162.5001 1222.5345,-166 1232.5344,-169.5001 1232.5345,-162.5001"/>
</g>
<!-- D3GraphPanZoomInteractionComponent -->
<g id="node3" class="node">
<title>D3GraphPanZoomInteractionComponent</title>
<polygon fill="#ffffb3" stroke="#000000" points="1993.4985,-122 1744.5015,-122 1744.5015,-86 1993.4985,-86 1993.4985,-122"/>
<text text-anchor="middle" x="1869" y="-99.8" font-family="Times,serif" font-size="14.00" fill="#000000">D3GraphPanZoomInteractionComponent</text>
</g>
<!-- D3GraphPanZoomInteractionComponent&#45;&gt;HelgolandMapModule -->
<g id="edge3" class="edge">
<title>D3GraphPanZoomInteractionComponent&#45;&gt;HelgolandMapModule</title>
<path fill="none" stroke="#000000" d="M1768.375,-122.0336C1768.375,-139.0597 1768.375,-162 1768.375,-162 1768.375,-162 1232.7262,-162 1232.7262,-162"/>
<polygon fill="#000000" stroke="#000000" points="1232.7262,-158.5001 1222.7262,-162 1232.7262,-165.5001 1232.7262,-158.5001"/>
</g>
<!-- D3OverviewTimeseriesGraphComponent -->
<g id="node4" class="node">
<title>D3OverviewTimeseriesGraphComponent</title>
<polygon fill="#ffffb3" stroke="#000000" points="1727.0324,-122 1476.9676,-122 1476.9676,-86 1727.0324,-86 1727.0324,-122"/>
<text text-anchor="middle" x="1602" y="-99.8" font-family="Times,serif" font-size="14.00" fill="#000000">D3OverviewTimeseriesGraphComponent</text>
</g>
<!-- D3OverviewTimeseriesGraphComponent&#45;&gt;HelgolandMapModule -->
<g id="edge4" class="edge">
<title>D3OverviewTimeseriesGraphComponent&#45;&gt;HelgolandMapModule</title>
<path fill="none" stroke="#000000" d="M1499.375,-122.0091C1499.375,-138.0494 1499.375,-159 1499.375,-159 1499.375,-159 1232.7611,-159 1232.7611,-159"/>
<polygon fill="#000000" stroke="#000000" points="1232.7612,-155.5001 1222.7611,-159 1232.7611,-162.5001 1232.7612,-155.5001"/>
</g>
<!-- D3TimeseriesGraphComponent -->
<g id="node5" class="node">
<title>D3TimeseriesGraphComponent</title>
<polygon fill="#ffffb3" stroke="#000000" points="1459.3389,-122 1264.6611,-122 1264.6611,-86 1459.3389,-86 1459.3389,-122"/>
<text text-anchor="middle" x="1362" y="-99.8" font-family="Times,serif" font-size="14.00" fill="#000000">D3TimeseriesGraphComponent</text>
</g>
<!-- D3TimeseriesGraphComponent&#45;&gt;HelgolandMapModule -->
<g id="edge5" class="edge">
<title>D3TimeseriesGraphComponent&#45;&gt;HelgolandMapModule</title>
<path fill="none" stroke="#000000" d="M1395.6909,-122.1243C1395.6909,-136.7832 1395.6909,-155 1395.6909,-155 1395.6909,-155 1232.762,-155 1232.762,-155"/>
<polygon fill="#000000" stroke="#000000" points="1232.762,-151.5001 1222.762,-155 1232.762,-158.5001 1232.762,-151.5001"/>
</g>
<!-- D3TrajectoryGraphComponent -->
<g id="node6" class="node">
<title>D3TrajectoryGraphComponent</title>
<polygon fill="#ffffb3" stroke="#000000" points="1246.7198,-122 1055.2802,-122 1055.2802,-86 1246.7198,-86 1246.7198,-122"/>
<text text-anchor="middle" x="1151" y="-99.8" font-family="Times,serif" font-size="14.00" fill="#000000">D3TrajectoryGraphComponent</text>
</g>
<!-- D3TrajectoryGraphComponent&#45;&gt;HelgolandMapModule -->
<g id="edge6" class="edge">
<title>D3TrajectoryGraphComponent&#45;&gt;HelgolandMapModule</title>
<path fill="none" stroke="#000000" d="M1151,-122.1061C1151,-122.1061 1151,-140.991 1151,-140.991"/>
<polygon fill="#000000" stroke="#000000" points="1147.5001,-140.9909 1151,-150.991 1154.5001,-140.991 1147.5001,-140.9909"/>
</g>
<!-- D3YAxisModifierComponent -->
<g id="node7" class="node">
<title>D3YAxisModifierComponent</title>
<polygon fill="#ffffb3" stroke="#000000" points="1037.2492,-122 852.7508,-122 852.7508,-86 1037.2492,-86 1037.2492,-122"/>
<text text-anchor="middle" x="945" y="-99.8" font-family="Times,serif" font-size="14.00" fill="#000000">D3YAxisModifierComponent</text>
</g>
<!-- D3YAxisModifierComponent&#45;&gt;HelgolandMapModule -->
<g id="edge7" class="edge">
<title>D3YAxisModifierComponent&#45;&gt;HelgolandMapModule</title>
<path fill="none" stroke="#000000" d="M973.2817,-122.1243C973.2817,-136.7832 973.2817,-155 973.2817,-155 973.2817,-155 1069.2274,-155 1069.2274,-155"/>
<polygon fill="#000000" stroke="#000000" points="1069.2275,-158.5001 1079.2274,-155 1069.2274,-151.5001 1069.2275,-158.5001"/>
</g>
<!-- ExportImageButtonComponent -->
<g id="node8" class="node">
<title>ExportImageButtonComponent</title>
<polygon fill="#ffffb3" stroke="#000000" points="834.035,-122 641.965,-122 641.965,-86 834.035,-86 834.035,-122"/>
<text text-anchor="middle" x="738" y="-99.8" font-family="Times,serif" font-size="14.00" fill="#000000">ExportImageButtonComponent</text>
</g>
<!-- ExportImageButtonComponent&#45;&gt;HelgolandMapModule -->
<g id="edge8" class="edge">
<title>ExportImageButtonComponent&#45;&gt;HelgolandMapModule</title>
<path fill="none" stroke="#000000" d="M827.1959,-122.0091C827.1959,-138.0494 827.1959,-159 827.1959,-159 827.1959,-159 1069.1374,-159 1069.1374,-159"/>
<polygon fill="#000000" stroke="#000000" points="1069.1374,-162.5001 1079.1374,-159 1069.1373,-155.5001 1069.1374,-162.5001"/>
</g>
<!-- ExtendedDataD3TimeseriesGraphComponent -->
<g id="node9" class="node">
<title>ExtendedDataD3TimeseriesGraphComponent</title>
<polygon fill="#ffffb3" stroke="#000000" points="624.1376,-122 349.8624,-122 349.8624,-86 624.1376,-86 624.1376,-122"/>
<text text-anchor="middle" x="487" y="-99.8" font-family="Times,serif" font-size="14.00" fill="#000000">ExtendedDataD3TimeseriesGraphComponent</text>
</g>
<!-- ExtendedDataD3TimeseriesGraphComponent&#45;&gt;HelgolandMapModule -->
<g id="edge9" class="edge">
<title>ExtendedDataD3TimeseriesGraphComponent&#45;&gt;HelgolandMapModule</title>
<path fill="none" stroke="#000000" d="M619.043,-122.0336C619.043,-139.0597 619.043,-162 619.043,-162 619.043,-162 1069.2579,-162 1069.2579,-162"/>
<polygon fill="#000000" stroke="#000000" points="1069.2579,-165.5001 1079.2579,-162 1069.2579,-158.5001 1069.2579,-165.5001"/>
</g>
<!-- D3GeneralGraphComponent  -->
<g id="node11" class="node">
<title>D3GeneralGraphComponent </title>
<polygon fill="#fb8072" stroke="#000000" points="2202.7225,-252 2021.2775,-252 2021.2775,-216 2202.7225,-216 2202.7225,-252"/>
<text text-anchor="middle" x="2112" y="-229.8" font-family="Times,serif" font-size="14.00" fill="#000000">D3GeneralGraphComponent </text>
</g>
<!-- HelgolandMapModule&#45;&gt;D3GeneralGraphComponent  -->
<g id="edge10" class="edge">
<title>HelgolandMapModule&#45;&gt;D3GeneralGraphComponent </title>
<path fill="none" stroke="#000000" stroke-dasharray="5,2" d="M1222.7817,-173C1445.7097,-173 2111.2442,-173 2111.2442,-173 2111.2442,-173 2111.2442,-205.698 2111.2442,-205.698"/>
<polygon fill="#000000" stroke="#000000" points="2107.7443,-205.698 2111.2442,-215.698 2114.7443,-205.698 2107.7443,-205.698"/>
</g>
<!-- D3GraphCopyrightComponent  -->
<g id="node12" class="node">
<title>D3GraphCopyrightComponent </title>
<polygon fill="#fb8072" stroke="#000000" points="2003.6994,-252 1810.3006,-252 1810.3006,-216 2003.6994,-216 2003.6994,-252"/>
<text text-anchor="middle" x="1907" y="-229.8" font-family="Times,serif" font-size="14.00" fill="#000000">D3GraphCopyrightComponent </text>
</g>
<!-- HelgolandMapModule&#45;&gt;D3GraphCopyrightComponent  -->
<g id="edge11" class="edge">
<title>HelgolandMapModule&#45;&gt;D3GraphCopyrightComponent </title>
<path fill="none" stroke="#000000" stroke-dasharray="5,2" d="M1222.6402,-177C1410.2814,-177 1901.6997,-177 1901.6997,-177 1901.6997,-177 1901.6997,-205.9648 1901.6997,-205.9648"/>
<polygon fill="#000000" stroke="#000000" points="1898.1998,-205.9648 1901.6997,-215.9648 1905.1998,-205.9649 1898.1998,-205.9648"/>
</g>
<!-- D3GraphPanZoomInteractionComponent  -->
<g id="node13" class="node">
<title>D3GraphPanZoomInteractionComponent </title>
<polygon fill="#fb8072" stroke="#000000" points="1791.998,-252 1540.002,-252 1540.002,-216 1791.998,-216 1791.998,-252"/>
<text text-anchor="middle" x="1666" y="-229.8" font-family="Times,serif" font-size="14.00" fill="#000000">D3GraphPanZoomInteractionComponent </text>
</g>
<!-- HelgolandMapModule&#45;&gt;D3GraphPanZoomInteractionComponent  -->
<g id="edge12" class="edge">
<title>HelgolandMapModule&#45;&gt;D3GraphPanZoomInteractionComponent </title>
<path fill="none" stroke="#000000" stroke-dasharray="5,2" d="M1222.7154,-180C1357.1274,-180 1633.5086,-180 1633.5086,-180 1633.5086,-180 1633.5086,-205.7181 1633.5086,-205.7181"/>
<polygon fill="#000000" stroke="#000000" points="1630.0087,-205.718 1633.5086,-215.7181 1637.0087,-205.7181 1630.0087,-205.718"/>
</g>
<!-- D3OverviewTimeseriesGraphComponent  -->
<g id="node14" class="node">
<title>D3OverviewTimeseriesGraphComponent </title>
<polygon fill="#fb8072" stroke="#000000" points="1521.5328,-252 1268.4672,-252 1268.4672,-216 1521.5328,-216 1521.5328,-252"/>
<text text-anchor="middle" x="1395" y="-229.8" font-family="Times,serif" font-size="14.00" fill="#000000">D3OverviewTimeseriesGraphComponent </text>
</g>
<!-- HelgolandMapModule&#45;&gt;D3OverviewTimeseriesGraphComponent  -->
<g id="edge13" class="edge">
<title>HelgolandMapModule&#45;&gt;D3OverviewTimeseriesGraphComponent </title>
<path fill="none" stroke="#000000" stroke-dasharray="5,2" d="M1222.781,-184C1273.3046,-184 1331.9623,-184 1331.9623,-184 1331.9623,-184 1331.9623,-205.9489 1331.9623,-205.9489"/>
<polygon fill="#000000" stroke="#000000" points="1328.4624,-205.9488 1331.9623,-215.9489 1335.4624,-205.9489 1328.4624,-205.9488"/>
</g>
<!-- D3TimeseriesGraphComponent  -->
<g id="node15" class="node">
<title>D3TimeseriesGraphComponent </title>
<polygon fill="#fb8072" stroke="#000000" points="1250.3391,-252 1051.6609,-252 1051.6609,-216 1250.3391,-216 1250.3391,-252"/>
<text text-anchor="middle" x="1151" y="-229.8" font-family="Times,serif" font-size="14.00" fill="#000000">D3TimeseriesGraphComponent </text>
</g>
<!-- HelgolandMapModule&#45;&gt;D3TimeseriesGraphComponent  -->
<g id="edge14" class="edge">
<title>HelgolandMapModule&#45;&gt;D3TimeseriesGraphComponent </title>
<path fill="none" stroke="#000000" stroke-dasharray="5,2" d="M1151,-187.1061C1151,-187.1061 1151,-205.991 1151,-205.991"/>
<polygon fill="#000000" stroke="#000000" points="1147.5001,-205.9909 1151,-215.991 1154.5001,-205.991 1147.5001,-205.9909"/>
</g>
<!-- D3TrajectoryGraphComponent  -->
<g id="node16" class="node">
<title>D3TrajectoryGraphComponent </title>
<polygon fill="#fb8072" stroke="#000000" points="1033.7197,-252 838.2803,-252 838.2803,-216 1033.7197,-216 1033.7197,-252"/>
<text text-anchor="middle" x="936" y="-229.8" font-family="Times,serif" font-size="14.00" fill="#000000">D3TrajectoryGraphComponent </text>
</g>
<!-- HelgolandMapModule&#45;&gt;D3TrajectoryGraphComponent  -->
<g id="edge15" class="edge">
<title>HelgolandMapModule&#45;&gt;D3TrajectoryGraphComponent </title>
<path fill="none" stroke="#000000" stroke-dasharray="5,2" d="M1079.2554,-184C1009.1644,-184 912.9536,-184 912.9536,-184 912.9536,-184 912.9536,-205.9489 912.9536,-205.9489"/>
<polygon fill="#000000" stroke="#000000" points="909.4537,-205.9488 912.9536,-215.9489 916.4537,-205.9489 909.4537,-205.9488"/>
</g>
<!-- D3YAxisModifierComponent  -->
<g id="node17" class="node">
<title>D3YAxisModifierComponent </title>
<polygon fill="#fb8072" stroke="#000000" points="820.2492,-252 631.7508,-252 631.7508,-216 820.2492,-216 820.2492,-252"/>
<text text-anchor="middle" x="726" y="-229.8" font-family="Times,serif" font-size="14.00" fill="#000000">D3YAxisModifierComponent </text>
</g>
<!-- HelgolandMapModule&#45;&gt;D3YAxisModifierComponent  -->
<g id="edge16" class="edge">
<title>HelgolandMapModule&#45;&gt;D3YAxisModifierComponent </title>
<path fill="none" stroke="#000000" stroke-dasharray="5,2" d="M1079.2645,-180C959.2871,-180 730.9287,-180 730.9287,-180 730.9287,-180 730.9287,-205.7181 730.9287,-205.7181"/>
<polygon fill="#000000" stroke="#000000" points="727.4287,-205.718 730.9287,-215.7181 734.4287,-205.7181 727.4287,-205.718"/>
</g>
<!-- ExportImageButtonComponent  -->
<g id="node18" class="node">
<title>ExportImageButtonComponent </title>
<polygon fill="#fb8072" stroke="#000000" points="614.0344,-252 417.9656,-252 417.9656,-216 614.0344,-216 614.0344,-252"/>
<text text-anchor="middle" x="516" y="-229.8" font-family="Times,serif" font-size="14.00" fill="#000000">ExportImageButtonComponent </text>
</g>
<!-- HelgolandMapModule&#45;&gt;ExportImageButtonComponent  -->
<g id="edge17" class="edge">
<title>HelgolandMapModule&#45;&gt;ExportImageButtonComponent </title>
<path fill="none" stroke="#000000" stroke-dasharray="5,2" d="M1079.3918,-177C913.3231,-177 516,-177 516,-177 516,-177 516,-205.9648 516,-205.9648"/>
<polygon fill="#000000" stroke="#000000" points="512.5001,-205.9648 516,-215.9648 519.5001,-205.9649 512.5001,-205.9648"/>
</g>
<!-- ExtendedDataD3TimeseriesGraphComponent  -->
<g id="node19" class="node">
<title>ExtendedDataD3TimeseriesGraphComponent </title>
<polygon fill="#fb8072" stroke="#000000" points="399.6378,-252 122.3622,-252 122.3622,-216 399.6378,-216 399.6378,-252"/>
<text text-anchor="middle" x="261" y="-229.8" font-family="Times,serif" font-size="14.00" fill="#000000">ExtendedDataD3TimeseriesGraphComponent </text>
</g>
<!-- HelgolandMapModule&#45;&gt;ExtendedDataD3TimeseriesGraphComponent  -->
<g id="edge18" class="edge">
<title>HelgolandMapModule&#45;&gt;ExtendedDataD3TimeseriesGraphComponent </title>
<path fill="none" stroke="#000000" stroke-dasharray="5,2" d="M1079.3752,-173C887.2388,-173 374.875,-173 374.875,-173 374.875,-173 374.875,-205.698 374.875,-205.698"/>
<polygon fill="#000000" stroke="#000000" points="371.3751,-205.698 374.875,-215.698 378.3751,-205.698 371.3751,-205.698"/>
</g>
<!-- MapCache -->
<g id="node20" class="node">
<title>MapCache</title>
<ellipse fill="#fdb462" stroke="#000000" cx="273" cy="-104" rx="52.7295" ry="18"/>
<text text-anchor="middle" x="273" y="-99.8" font-family="Times,serif" font-size="14.00" fill="#000000">MapCache</text>
</g>
<!-- MapCache&#45;&gt;HelgolandMapModule -->
<g id="edge19" class="edge">
<title>MapCache&#45;&gt;HelgolandMapModule</title>
<path fill="none" stroke="#000000" d="M273,-122.2667C273,-140.5552 273,-166 273,-166 273,-166 1069.1496,-166 1069.1496,-166"/>
<polygon fill="#000000" stroke="#000000" points="1069.1496,-169.5001 1079.1496,-166 1069.1495,-162.5001 1069.1496,-169.5001"/>
</g>
<!-- MapHandlerService -->
<g id="node21" class="node">
<title>MapHandlerService</title>
<ellipse fill="#fdb462" stroke="#000000" cx="113" cy="-104" rx="88.5831" ry="18"/>
<text text-anchor="middle" x="113" y="-99.8" font-family="Times,serif" font-size="14.00" fill="#000000">MapHandlerService</text>
</g>
<!-- MapHandlerService&#45;&gt;HelgolandMapModule -->
<g id="edge20" class="edge">
<title>MapHandlerService&#45;&gt;HelgolandMapModule</title>
<path fill="none" stroke="#000000" d="M161.9863,-119.0757C161.9863,-138.2773 161.9863,-169 161.9863,-169 161.9863,-169 1069.0759,-169 1069.0759,-169"/>
<polygon fill="#000000" stroke="#000000" points="1069.0759,-172.5001 1079.0759,-169 1069.0759,-165.5001 1069.0759,-172.5001"/>
</g>
</g>
</svg>
