<?xml version="1.0" encoding="UTF-8" standalone="no"?>
<!DOCTYPE svg PUBLIC "-//W3C//DTD SVG 1.1//EN"
 "http://www.w3.org/Graphics/SVG/1.1/DTD/svg11.dtd">
<!-- Generated by graphviz version 2.40.1 (20161225.0304)
 -->
<!-- Title: dependencies Pages: 1 -->
<svg width="697pt" height="284pt"
 viewBox="0.00 0.00 697.00 284.00" xmlns="http://www.w3.org/2000/svg" xmlns:xlink="http://www.w3.org/1999/xlink">
<g id="graph0" class="graph" transform="scale(1 1) rotate(0) translate(4 280)">
<title>dependencies</title>
<polygon fill="#ffffff" stroke="transparent" points="-4,4 -4,-280 693,-280 693,4 -4,4"/>
<text text-anchor="start" x="323.5091" y="-42.4" font-family="sans-serif" font-weight="bold" font-size="14.00" fill="#000000">Legend</text>
<polygon fill="#ffffb3" stroke="transparent" points="110.5,-10 110.5,-30 130.5,-30 130.5,-10 110.5,-10"/>
<text text-anchor="start" x="134.129" y="-15.4" font-family="sans-serif" font-size="14.00" fill="#000000"> &#160;Declarations</text>
<polygon fill="#8dd3c7" stroke="transparent" points="223.5,-10 223.5,-30 243.5,-30 243.5,-10 223.5,-10"/>
<text text-anchor="start" x="247.2251" y="-15.4" font-family="sans-serif" font-size="14.00" fill="#000000"> &#160;Module</text>
<polygon fill="#80b1d3" stroke="transparent" points="309.5,-10 309.5,-30 329.5,-30 329.5,-10 309.5,-10"/>
<text text-anchor="start" x="333.2812" y="-15.4" font-family="sans-serif" font-size="14.00" fill="#000000"> &#160;Bootstrap</text>
<polygon fill="#fdb462" stroke="transparent" points="406.5,-10 406.5,-30 426.5,-30 426.5,-10 406.5,-10"/>
<text text-anchor="start" x="430.1732" y="-15.4" font-family="sans-serif" font-size="14.00" fill="#000000"> &#160;Providers</text>
<polygon fill="#fb8072" stroke="transparent" points="502.5,-10 502.5,-30 522.5,-30 522.5,-10 502.5,-10"/>
<text text-anchor="start" x="526.2258" y="-15.4" font-family="sans-serif" font-size="14.00" fill="#000000"> &#160;Exports</text>
<g id="clust1" class="cluster">
<title>cluster_HelgolandMapModule</title>
<polygon fill="none" stroke="#000000" stroke-dasharray="1,5" points="8,-70 8,-268 681,-268 681,-70 8,-70"/>
</g>
<g id="clust2" class="cluster">
<title>cluster_HelgolandMapModule_declarations</title>
<polygon fill="none" stroke="#000000" points="146,-78 146,-130 673,-130 673,-78 146,-78"/>
</g>
<g id="clust7" class="cluster">
<title>cluster_HelgolandMapModule_exports</title>
<polygon fill="none" stroke="#000000" points="75,-208 75,-260 613,-260 613,-208 75,-208"/>
</g>
<g id="clust9" class="cluster">
<title>cluster_HelgolandMapModule_providers</title>
<polygon fill="none" stroke="#000000" points="16,-78 16,-130 138,-130 138,-78 16,-78"/>
</g>
<!-- BoolTogglerComponent -->
<g id="node1" class="node">
<title>BoolTogglerComponent</title>
<polygon fill="#ffffb3" stroke="#000000" points="665.378,-122 512.622,-122 512.622,-86 665.378,-86 665.378,-122"/>
<text text-anchor="middle" x="589" y="-99.8" font-family="Times,serif" font-size="14.00" fill="#000000">BoolTogglerComponent</text>
</g>
<!-- HelgolandMapModule -->
<g id="node4" class="node">
<title>HelgolandMapModule</title>
<polygon fill="#8dd3c7" stroke="#000000" points="419.5268,-187 416.5268,-191 395.5268,-191 392.5268,-187 276.4732,-187 276.4732,-151 419.5268,-151 419.5268,-187"/>
<text text-anchor="middle" x="348" y="-164.8" font-family="Times,serif" font-size="14.00" fill="#000000">HelgolandMapModule</text>
</g>
<!-- BoolTogglerComponent&#45;&gt;HelgolandMapModule -->
<g id="edge1" class="edge">
<title>BoolTogglerComponent&#45;&gt;HelgolandMapModule</title>
<path fill="none" stroke="#000000" d="M558.875,-122.0225C558.875,-139.3734 558.875,-163 558.875,-163 558.875,-163 429.6869,-163 429.6869,-163"/>
<polygon fill="#000000" stroke="#000000" points="429.6869,-159.5001 419.6869,-163 429.6869,-166.5001 429.6869,-159.5001"/>
</g>
<!-- RefreshButtonComponent -->
<g id="node2" class="node">
<title>RefreshButtonComponent</title>
<polygon fill="#ffffb3" stroke="#000000" points="494.4818,-122 331.5182,-122 331.5182,-86 494.4818,-86 494.4818,-122"/>
<text text-anchor="middle" x="413" y="-99.8" font-family="Times,serif" font-size="14.00" fill="#000000">RefreshButtonComponent</text>
</g>
<!-- RefreshButtonComponent&#45;&gt;HelgolandMapModule -->
<g id="edge2" class="edge">
<title>RefreshButtonComponent&#45;&gt;HelgolandMapModule</title>
<path fill="none" stroke="#000000" d="M375.6361,-122.1061C375.6361,-122.1061 375.6361,-140.991 375.6361,-140.991"/>
<polygon fill="#000000" stroke="#000000" points="372.1361,-140.9909 375.6361,-150.991 379.1361,-140.991 372.1361,-140.9909"/>
</g>
<!-- StringTogglerComponent -->
<g id="node3" class="node">
<title>StringTogglerComponent</title>
<polygon fill="#ffffb3" stroke="#000000" points="313.8752,-122 154.1248,-122 154.1248,-86 313.8752,-86 313.8752,-122"/>
<text text-anchor="middle" x="234" y="-99.8" font-family="Times,serif" font-size="14.00" fill="#000000">StringTogglerComponent</text>
</g>
<!-- StringTogglerComponent&#45;&gt;HelgolandMapModule -->
<g id="edge3" class="edge">
<title>StringTogglerComponent&#45;&gt;HelgolandMapModule</title>
<path fill="none" stroke="#000000" d="M295.0873,-122.1061C295.0873,-122.1061 295.0873,-140.991 295.0873,-140.991"/>
<polygon fill="#000000" stroke="#000000" points="291.5874,-140.9909 295.0873,-150.991 298.5874,-140.991 291.5874,-140.9909"/>
</g>
<!-- BoolTogglerComponent  -->
<g id="node5" class="node">
<title>BoolTogglerComponent </title>
<polygon fill="#fb8072" stroke="#000000" points="605.3785,-252 448.6215,-252 448.6215,-216 605.3785,-216 605.3785,-252"/>
<text text-anchor="middle" x="527" y="-229.8" font-family="Times,serif" font-size="14.00" fill="#000000">BoolTogglerComponent </text>
</g>
<!-- HelgolandMapModule&#45;&gt;BoolTogglerComponent  -->
<g id="edge4" class="edge">
<title>HelgolandMapModule&#45;&gt;BoolTogglerComponent </title>
<path fill="none" stroke="#000000" stroke-dasharray="5,2" d="M419.5702,-175C446.915,-175 471.651,-175 471.651,-175 471.651,-175 471.651,-205.9775 471.651,-205.9775"/>
<polygon fill="#000000" stroke="#000000" points="468.151,-205.9774 471.651,-215.9775 475.151,-205.9775 468.151,-205.9774"/>
</g>
<!-- RefreshButtonComponent  -->
<g id="node6" class="node">
<title>RefreshButtonComponent </title>
<polygon fill="#fb8072" stroke="#000000" points="431.4825,-252 264.5175,-252 264.5175,-216 431.4825,-216 431.4825,-252"/>
<text text-anchor="middle" x="348" y="-229.8" font-family="Times,serif" font-size="14.00" fill="#000000">RefreshButtonComponent </text>
</g>
<!-- HelgolandMapModule&#45;&gt;RefreshButtonComponent  -->
<g id="edge5" class="edge">
<title>HelgolandMapModule&#45;&gt;RefreshButtonComponent </title>
<path fill="none" stroke="#000000" stroke-dasharray="5,2" d="M348,-187.1061C348,-187.1061 348,-205.991 348,-205.991"/>
<polygon fill="#000000" stroke="#000000" points="344.5001,-205.9909 348,-215.991 351.5001,-205.991 344.5001,-205.9909"/>
</g>
<!-- StringTogglerComponent  -->
<g id="node7" class="node">
<title>StringTogglerComponent </title>
<polygon fill="#fb8072" stroke="#000000" points="246.8756,-252 83.1244,-252 83.1244,-216 246.8756,-216 246.8756,-252"/>
<text text-anchor="middle" x="165" y="-229.8" font-family="Times,serif" font-size="14.00" fill="#000000">StringTogglerComponent </text>
</g>
<!-- HelgolandMapModule&#45;&gt;StringTogglerComponent  -->
<g id="edge6" class="edge">
<title>HelgolandMapModule&#45;&gt;StringTogglerComponent </title>
<path fill="none" stroke="#000000" stroke-dasharray="5,2" d="M276.3497,-175C238.737,-175 200.375,-175 200.375,-175 200.375,-175 200.375,-205.9775 200.375,-205.9775"/>
<polygon fill="#000000" stroke="#000000" points="196.8751,-205.9774 200.375,-215.9775 203.8751,-205.9775 196.8751,-205.9774"/>
</g>
<!-- MapCache -->
<g id="node8" class="node">
<title>MapCache</title>
<ellipse fill="#fdb462" stroke="#000000" cx="77" cy="-104" rx="52.7295" ry="18"/>
<text text-anchor="middle" x="77" y="-99.8" font-family="Times,serif" font-size="14.00" fill="#000000">MapCache</text>
</g>
<!-- MapCache&#45;&gt;HelgolandMapModule -->
<g id="edge7" class="edge">
<title>MapCache&#45;&gt;HelgolandMapModule</title>
<path fill="none" stroke="#000000" d="M106.5885,-119.194C106.5885,-136.6752 106.5885,-163 106.5885,-163 106.5885,-163 266.2222,-163 266.2222,-163"/>
<polygon fill="#000000" stroke="#000000" points="266.2222,-166.5001 276.2222,-163 266.2222,-159.5001 266.2222,-166.5001"/>
</g>
</g>
</svg>
