<?xml version="1.0" encoding="UTF-8" standalone="no"?>
<!DOCTYPE svg PUBLIC "-//W3C//DTD SVG 1.1//EN"
 "http://www.w3.org/Graphics/SVG/1.1/DTD/svg11.dtd">
<!-- Generated by graphviz version 2.40.1 (20161225.0304)
 -->
<!-- Title: dependencies Pages: 1 -->
<svg width="893pt" height="284pt"
 viewBox="0.00 0.00 893.00 284.00" xmlns="http://www.w3.org/2000/svg" xmlns:xlink="http://www.w3.org/1999/xlink">
<g id="graph0" class="graph" transform="scale(1 1) rotate(0) translate(4 280)">
<title>dependencies</title>
<polygon fill="#ffffff" stroke="transparent" points="-4,4 -4,-280 889,-280 889,4 -4,4"/>
<text text-anchor="start" x="421.5091" y="-42.4" font-family="sans-serif" font-weight="bold" font-size="14.00" fill="#000000">Legend</text>
<polygon fill="#ffffb3" stroke="transparent" points="208.5,-10 208.5,-30 228.5,-30 228.5,-10 208.5,-10"/>
<text text-anchor="start" x="232.129" y="-15.4" font-family="sans-serif" font-size="14.00" fill="#000000"> &#160;Declarations</text>
<polygon fill="#8dd3c7" stroke="transparent" points="321.5,-10 321.5,-30 341.5,-30 341.5,-10 321.5,-10"/>
<text text-anchor="start" x="345.2251" y="-15.4" font-family="sans-serif" font-size="14.00" fill="#000000"> &#160;Module</text>
<polygon fill="#80b1d3" stroke="transparent" points="407.5,-10 407.5,-30 427.5,-30 427.5,-10 407.5,-10"/>
<text text-anchor="start" x="431.2812" y="-15.4" font-family="sans-serif" font-size="14.00" fill="#000000"> &#160;Bootstrap</text>
<polygon fill="#fdb462" stroke="transparent" points="504.5,-10 504.5,-30 524.5,-30 524.5,-10 504.5,-10"/>
<text text-anchor="start" x="528.1732" y="-15.4" font-family="sans-serif" font-size="14.00" fill="#000000"> &#160;Providers</text>
<polygon fill="#fb8072" stroke="transparent" points="600.5,-10 600.5,-30 620.5,-30 620.5,-10 600.5,-10"/>
<text text-anchor="start" x="624.2258" y="-15.4" font-family="sans-serif" font-size="14.00" fill="#000000"> &#160;Exports</text>
<g id="clust1" class="cluster">
<title>cluster_HelgolandMapModule</title>
<polygon fill="none" stroke="#000000" stroke-dasharray="1,5" points="8,-70 8,-268 877,-268 877,-70 8,-70"/>
</g>
<g id="clust2" class="cluster">
<title>cluster_HelgolandMapModule_declarations</title>
<polygon fill="none" stroke="#000000" points="342,-78 342,-130 869,-130 869,-78 342,-78"/>
</g>
<g id="clust7" class="cluster">
<title>cluster_HelgolandMapModule_exports</title>
<polygon fill="none" stroke="#000000" points="157,-208 157,-260 695,-260 695,-208 157,-208"/>
</g>
<g id="clust9" class="cluster">
<title>cluster_HelgolandMapModule_providers</title>
<polygon fill="none" stroke="#000000" points="16,-78 16,-130 334,-130 334,-78 16,-78"/>
</g>
<!-- BoolTogglerComponent -->
<g id="node1" class="node">
<title>BoolTogglerComponent</title>
<polygon fill="#ffffb3" stroke="#000000" points="861.378,-122 708.622,-122 708.622,-86 861.378,-86 861.378,-122"/>
<text text-anchor="middle" x="785" y="-99.8" font-family="Times,serif" font-size="14.00" fill="#000000">BoolTogglerComponent</text>
</g>
<!-- HelgolandMapModule -->
<g id="node4" class="node">
<title>HelgolandMapModule</title>
<polygon fill="#8dd3c7" stroke="#000000" points="501.5268,-187 498.5268,-191 477.5268,-191 474.5268,-187 358.4732,-187 358.4732,-151 501.5268,-151 501.5268,-187"/>
<text text-anchor="middle" x="430" y="-164.8" font-family="Times,serif" font-size="14.00" fill="#000000">HelgolandMapModule</text>
</g>
<!-- BoolTogglerComponent&#45;&gt;HelgolandMapModule -->
<g id="edge1" class="edge">
<title>BoolTogglerComponent&#45;&gt;HelgolandMapModule</title>
<path fill="none" stroke="#000000" d="M785,-122.1061C785,-141.3391 785,-169 785,-169 785,-169 511.8395,-169 511.8395,-169"/>
<polygon fill="#000000" stroke="#000000" points="511.8396,-165.5001 501.8395,-169 511.8395,-172.5001 511.8396,-165.5001"/>
</g>
<!-- RefreshButtonComponent -->
<g id="node2" class="node">
<title>RefreshButtonComponent</title>
<polygon fill="#ffffb3" stroke="#000000" points="690.4818,-122 527.5182,-122 527.5182,-86 690.4818,-86 690.4818,-122"/>
<text text-anchor="middle" x="609" y="-99.8" font-family="Times,serif" font-size="14.00" fill="#000000">RefreshButtonComponent</text>
</g>
<!-- RefreshButtonComponent&#45;&gt;HelgolandMapModule -->
<g id="edge2" class="edge">
<title>RefreshButtonComponent&#45;&gt;HelgolandMapModule</title>
<path fill="none" stroke="#000000" d="M582.937,-122.027C582.937,-138.3976 582.937,-160 582.937,-160 582.937,-160 511.5429,-160 511.5429,-160"/>
<polygon fill="#000000" stroke="#000000" points="511.5429,-156.5001 501.5429,-160 511.5429,-163.5001 511.5429,-156.5001"/>
</g>
<!-- StringTogglerComponent -->
<g id="node3" class="node">
<title>StringTogglerComponent</title>
<polygon fill="#ffffb3" stroke="#000000" points="509.8752,-122 350.1248,-122 350.1248,-86 509.8752,-86 509.8752,-122"/>
<text text-anchor="middle" x="430" y="-99.8" font-family="Times,serif" font-size="14.00" fill="#000000">StringTogglerComponent</text>
</g>
<!-- StringTogglerComponent&#45;&gt;HelgolandMapModule -->
<g id="edge3" class="edge">
<title>StringTogglerComponent&#45;&gt;HelgolandMapModule</title>
<path fill="none" stroke="#000000" d="M430,-122.1061C430,-122.1061 430,-140.991 430,-140.991"/>
<polygon fill="#000000" stroke="#000000" points="426.5001,-140.9909 430,-150.991 433.5001,-140.991 426.5001,-140.9909"/>
</g>
<!-- BoolTogglerComponent  -->
<g id="node5" class="node">
<title>BoolTogglerComponent </title>
<polygon fill="#fb8072" stroke="#000000" points="687.3785,-252 530.6215,-252 530.6215,-216 687.3785,-216 687.3785,-252"/>
<text text-anchor="middle" x="609" y="-229.8" font-family="Times,serif" font-size="14.00" fill="#000000">BoolTogglerComponent </text>
</g>
<!-- HelgolandMapModule&#45;&gt;BoolTogglerComponent  -->
<g id="edge4" class="edge">
<title>HelgolandMapModule&#45;&gt;BoolTogglerComponent </title>
<path fill="none" stroke="#000000" stroke-dasharray="5,2" d="M501.7211,-178C560.8553,-178 635.063,-178 635.063,-178 635.063,-178 635.063,-205.973 635.063,-205.973"/>
<polygon fill="#000000" stroke="#000000" points="631.5631,-205.973 635.063,-215.973 638.5631,-205.973 631.5631,-205.973"/>
</g>
<!-- RefreshButtonComponent  -->
<g id="node6" class="node">
<title>RefreshButtonComponent </title>
<polygon fill="#fb8072" stroke="#000000" points="513.4825,-252 346.5175,-252 346.5175,-216 513.4825,-216 513.4825,-252"/>
<text text-anchor="middle" x="430" y="-229.8" font-family="Times,serif" font-size="14.00" fill="#000000">RefreshButtonComponent </text>
</g>
<!-- HelgolandMapModule&#45;&gt;RefreshButtonComponent  -->
<g id="edge5" class="edge">
<title>HelgolandMapModule&#45;&gt;RefreshButtonComponent </title>
<path fill="none" stroke="#000000" stroke-dasharray="5,2" d="M430,-187.1061C430,-187.1061 430,-205.991 430,-205.991"/>
<polygon fill="#000000" stroke="#000000" points="426.5001,-205.9909 430,-215.991 433.5001,-205.991 426.5001,-205.9909"/>
</g>
<!-- StringTogglerComponent  -->
<g id="node7" class="node">
<title>StringTogglerComponent </title>
<polygon fill="#fb8072" stroke="#000000" points="328.8756,-252 165.1244,-252 165.1244,-216 328.8756,-216 328.8756,-252"/>
<text text-anchor="middle" x="247" y="-229.8" font-family="Times,serif" font-size="14.00" fill="#000000">StringTogglerComponent </text>
</g>
<!-- HelgolandMapModule&#45;&gt;StringTogglerComponent  -->
<g id="edge6" class="edge">
<title>HelgolandMapModule&#45;&gt;StringTogglerComponent </title>
<path fill="none" stroke="#000000" stroke-dasharray="5,2" d="M358.4709,-178C310.2468,-178 255.3785,-178 255.3785,-178 255.3785,-178 255.3785,-205.973 255.3785,-205.973"/>
<polygon fill="#000000" stroke="#000000" points="251.8786,-205.973 255.3785,-215.973 258.8786,-205.973 251.8786,-205.973"/>
</g>
<!-- MapCache -->
<g id="node8" class="node">
<title>MapCache</title>
<ellipse fill="#fdb462" stroke="#000000" cx="273" cy="-104" rx="52.7295" ry="18"/>
<text text-anchor="middle" x="273" y="-99.8" font-family="Times,serif" font-size="14.00" fill="#000000">MapCache</text>
</g>
<!-- MapCache&#45;&gt;HelgolandMapModule -->
<g id="edge7" class="edge">
<title>MapCache&#45;&gt;HelgolandMapModule</title>
<path fill="none" stroke="#000000" d="M290.6215,-121.1061C290.6215,-137.5747 290.6215,-160 290.6215,-160 290.6215,-160 348.2693,-160 348.2693,-160"/>
<polygon fill="#000000" stroke="#000000" points="348.2694,-163.5001 358.2693,-160 348.2693,-156.5001 348.2694,-163.5001"/>
</g>
<!-- MapHandlerService -->
<g id="node9" class="node">
<title>MapHandlerService</title>
<ellipse fill="#fdb462" stroke="#000000" cx="113" cy="-104" rx="88.5831" ry="18"/>
<text text-anchor="middle" x="113" y="-99.8" font-family="Times,serif" font-size="14.00" fill="#000000">MapHandlerService</text>
</g>
<!-- MapHandlerService&#45;&gt;HelgolandMapModule -->
<g id="edge8" class="edge">
<title>MapHandlerService&#45;&gt;HelgolandMapModule</title>
<path fill="none" stroke="#000000" d="M183.5519,-115.0264C183.5519,-133.5712 183.5519,-169 183.5519,-169 183.5519,-169 348.3859,-169 348.3859,-169"/>
<polygon fill="#000000" stroke="#000000" points="348.386,-172.5001 358.3859,-169 348.3859,-165.5001 348.386,-172.5001"/>
</g>
</g>
</svg>
