<?xml version="1.0" encoding="UTF-8" standalone="no"?>
<!DOCTYPE svg PUBLIC "-//W3C//DTD SVG 1.1//EN"
 "http://www.w3.org/Graphics/SVG/1.1/DTD/svg11.dtd">
<!-- Generated by graphviz version 2.40.1 (20161225.0304)
 -->
<!-- Title: dependencies Pages: 1 -->
<svg width="2646pt" height="284pt"
 viewBox="0.00 0.00 2646.00 284.00" xmlns="http://www.w3.org/2000/svg" xmlns:xlink="http://www.w3.org/1999/xlink">
<g id="graph0" class="graph" transform="scale(1 1) rotate(0) translate(4 280)">
<title>dependencies</title>
<polygon fill="#ffffff" stroke="transparent" points="-4,4 -4,-280 2642,-280 2642,4 -4,4"/>
<text text-anchor="start" x="1298.0091" y="-42.4" font-family="sans-serif" font-weight="bold" font-size="14.00" fill="#000000">Legend</text>
<polygon fill="#ffffb3" stroke="transparent" points="1085,-10 1085,-30 1105,-30 1105,-10 1085,-10"/>
<text text-anchor="start" x="1108.629" y="-15.4" font-family="sans-serif" font-size="14.00" fill="#000000"> &#160;Declarations</text>
<polygon fill="#8dd3c7" stroke="transparent" points="1198,-10 1198,-30 1218,-30 1218,-10 1198,-10"/>
<text text-anchor="start" x="1221.7251" y="-15.4" font-family="sans-serif" font-size="14.00" fill="#000000"> &#160;Module</text>
<polygon fill="#80b1d3" stroke="transparent" points="1284,-10 1284,-30 1304,-30 1304,-10 1284,-10"/>
<text text-anchor="start" x="1307.7812" y="-15.4" font-family="sans-serif" font-size="14.00" fill="#000000"> &#160;Bootstrap</text>
<polygon fill="#fdb462" stroke="transparent" points="1381,-10 1381,-30 1401,-30 1401,-10 1381,-10"/>
<text text-anchor="start" x="1404.6732" y="-15.4" font-family="sans-serif" font-size="14.00" fill="#000000"> &#160;Providers</text>
<polygon fill="#fb8072" stroke="transparent" points="1477,-10 1477,-30 1497,-30 1497,-10 1477,-10"/>
<text text-anchor="start" x="1500.7258" y="-15.4" font-family="sans-serif" font-size="14.00" fill="#000000"> &#160;Exports</text>
<g id="clust1" class="cluster">
<title>cluster_HelgolandMapSelectorModule</title>
<polygon fill="none" stroke="#000000" stroke-dasharray="1,5" points="8,-70 8,-268 2630,-268 2630,-70 8,-70"/>
</g>
<g id="clust2" class="cluster">
<title>cluster_HelgolandMapSelectorModule_declarations</title>
<polygon fill="none" stroke="#000000" points="347,-78 347,-130 2622,-130 2622,-78 347,-78"/>
</g>
<g id="clust13" class="cluster">
<title>cluster_HelgolandMapSelectorModule_imports</title>
<polygon fill="none" stroke="#000000" points="16,-78 16,-130 339,-130 339,-78 16,-78"/>
</g>
<g id="clust14" class="cluster">
<title>cluster_HelgolandMapSelectorModule_exports</title>
<polygon fill="none" stroke="#000000" points="115,-208 115,-260 2428,-260 2428,-208 115,-208"/>
</g>
<!-- D3GeneralGraphComponent -->
<g id="node1" class="node">
<title>D3GeneralGraphComponent</title>
<polygon fill="#ffffb3" stroke="#000000" points="2613.7226,-122 2436.2774,-122 2436.2774,-86 2613.7226,-86 2613.7226,-122"/>
<text text-anchor="middle" x="2525" y="-99.8" font-family="Times,serif" font-size="14.00" fill="#000000">D3GeneralGraphComponent</text>
</g>
<!-- HelgolandMapSelectorModule -->
<g id="node11" class="node">
<title>HelgolandMapSelectorModule</title>
<polygon fill="#8dd3c7" stroke="#000000" points="1345.8946,-187 1342.8946,-191 1321.8946,-191 1318.8946,-187 1156.1054,-187 1156.1054,-151 1345.8946,-151 1345.8946,-187"/>
<text text-anchor="middle" x="1251" y="-164.8" font-family="Times,serif" font-size="14.00" fill="#000000">HelgolandMapSelectorModule</text>
</g>
<!-- D3GeneralGraphComponent&#45;&gt;HelgolandMapSelectorModule -->
<g id="edge1" class="edge">
<title>D3GeneralGraphComponent&#45;&gt;HelgolandMapSelectorModule</title>
<path fill="none" stroke="#000000" d="M2525,-122.1061C2525,-141.3391 2525,-169 2525,-169 2525,-169 1355.7162,-169 1355.7162,-169"/>
<polygon fill="#000000" stroke="#000000" points="1355.7163,-165.5001 1345.7162,-169 1355.7162,-172.5001 1355.7163,-165.5001"/>
</g>
<!-- D3GraphCopyrightComponent -->
<g id="node2" class="node">
<title>D3GraphCopyrightComponent</title>
<polygon fill="#ffffb3" stroke="#000000" points="2418.1993,-122 2227.8007,-122 2227.8007,-86 2418.1993,-86 2418.1993,-122"/>
<text text-anchor="middle" x="2323" y="-99.8" font-family="Times,serif" font-size="14.00" fill="#000000">D3GraphCopyrightComponent</text>
</g>
<!-- D3GraphCopyrightComponent&#45;&gt;HelgolandMapSelectorModule -->
<g id="edge2" class="edge">
<title>D3GraphCopyrightComponent&#45;&gt;HelgolandMapSelectorModule</title>
<path fill="none" stroke="#000000" d="M2233.1446,-122.2667C2233.1446,-140.5552 2233.1446,-166 2233.1446,-166 2233.1446,-166 1356.0645,-166 1356.0645,-166"/>
<polygon fill="#000000" stroke="#000000" points="1356.0646,-162.5001 1346.0645,-166 1356.0645,-169.5001 1356.0646,-162.5001"/>
</g>
<!-- D3GraphHoverLineComponent -->
<g id="node3" class="node">
<title>D3GraphHoverLineComponent</title>
<polygon fill="#ffffb3" stroke="#000000" points="2210.0604,-122 2015.9396,-122 2015.9396,-86 2210.0604,-86 2210.0604,-122"/>
<text text-anchor="middle" x="2113" y="-99.8" font-family="Times,serif" font-size="14.00" fill="#000000">D3GraphHoverLineComponent</text>
</g>
<!-- D3GraphHoverLineComponent&#45;&gt;HelgolandMapSelectorModule -->
<g id="edge3" class="edge">
<title>D3GraphHoverLineComponent&#45;&gt;HelgolandMapSelectorModule</title>
<path fill="none" stroke="#000000" d="M2021.5601,-122.0336C2021.5601,-139.0597 2021.5601,-162 2021.5601,-162 2021.5601,-162 1355.8719,-162 1355.8719,-162"/>
<polygon fill="#000000" stroke="#000000" points="1355.8719,-158.5001 1345.8719,-162 1355.8719,-165.5001 1355.8719,-158.5001"/>
</g>
<!-- D3GraphPanZoomInteractionComponent -->
<g id="node4" class="node">
<title>D3GraphPanZoomInteractionComponent</title>
<polygon fill="#ffffb3" stroke="#000000" points="1998.4985,-122 1749.5015,-122 1749.5015,-86 1998.4985,-86 1998.4985,-122"/>
<text text-anchor="middle" x="1874" y="-99.8" font-family="Times,serif" font-size="14.00" fill="#000000">D3GraphPanZoomInteractionComponent</text>
</g>
<!-- D3GraphPanZoomInteractionComponent&#45;&gt;HelgolandMapSelectorModule -->
<g id="edge4" class="edge">
<title>D3GraphPanZoomInteractionComponent&#45;&gt;HelgolandMapSelectorModule</title>
<path fill="none" stroke="#000000" d="M1771.375,-122.0091C1771.375,-138.0494 1771.375,-159 1771.375,-159 1771.375,-159 1355.8397,-159 1355.8397,-159"/>
<polygon fill="#000000" stroke="#000000" points="1355.8397,-155.5001 1345.8397,-159 1355.8397,-162.5001 1355.8397,-155.5001"/>
</g>
<!-- D3OverviewTimeseriesGraphComponent -->
<g id="node5" class="node">
<title>D3OverviewTimeseriesGraphComponent</title>
<polygon fill="#ffffb3" stroke="#000000" points="1732.0324,-122 1481.9676,-122 1481.9676,-86 1732.0324,-86 1732.0324,-122"/>
<text text-anchor="middle" x="1607" y="-99.8" font-family="Times,serif" font-size="14.00" fill="#000000">D3OverviewTimeseriesGraphComponent</text>
</g>
<!-- D3OverviewTimeseriesGraphComponent&#45;&gt;HelgolandMapSelectorModule -->
<g id="edge5" class="edge">
<title>D3OverviewTimeseriesGraphComponent&#45;&gt;HelgolandMapSelectorModule</title>
<path fill="none" stroke="#000000" d="M1502.375,-122.1243C1502.375,-136.7832 1502.375,-155 1502.375,-155 1502.375,-155 1356.0341,-155 1356.0341,-155"/>
<polygon fill="#000000" stroke="#000000" points="1356.0341,-151.5001 1346.0341,-155 1356.0341,-158.5001 1356.0341,-151.5001"/>
</g>
<!-- D3TimeseriesGraphComponent -->
<g id="node6" class="node">
<title>D3TimeseriesGraphComponent</title>
<polygon fill="#ffffb3" stroke="#000000" points="1464.3389,-122 1269.6611,-122 1269.6611,-86 1464.3389,-86 1464.3389,-122"/>
<text text-anchor="middle" x="1367" y="-99.8" font-family="Times,serif" font-size="14.00" fill="#000000">D3TimeseriesGraphComponent</text>
</g>
<!-- D3TimeseriesGraphComponent&#45;&gt;HelgolandMapSelectorModule -->
<g id="edge6" class="edge">
<title>D3TimeseriesGraphComponent&#45;&gt;HelgolandMapSelectorModule</title>
<path fill="none" stroke="#000000" d="M1307.6389,-122.1061C1307.6389,-122.1061 1307.6389,-140.991 1307.6389,-140.991"/>
<polygon fill="#000000" stroke="#000000" points="1304.1389,-140.9909 1307.6389,-150.991 1311.1389,-140.991 1304.1389,-140.9909"/>
</g>
<!-- D3TrajectoryGraphComponent -->
<g id="node7" class="node">
<title>D3TrajectoryGraphComponent</title>
<polygon fill="#ffffb3" stroke="#000000" points="1251.7198,-122 1060.2802,-122 1060.2802,-86 1251.7198,-86 1251.7198,-122"/>
<text text-anchor="middle" x="1156" y="-99.8" font-family="Times,serif" font-size="14.00" fill="#000000">D3TrajectoryGraphComponent</text>
</g>
<!-- D3TrajectoryGraphComponent&#45;&gt;HelgolandMapSelectorModule -->
<g id="edge7" class="edge">
<title>D3TrajectoryGraphComponent&#45;&gt;HelgolandMapSelectorModule</title>
<path fill="none" stroke="#000000" d="M1204.0814,-122.1061C1204.0814,-122.1061 1204.0814,-140.991 1204.0814,-140.991"/>
<polygon fill="#000000" stroke="#000000" points="1200.5814,-140.9909 1204.0814,-150.991 1207.5814,-140.991 1200.5814,-140.9909"/>
</g>
<!-- D3YAxisModifierComponent -->
<g id="node8" class="node">
<title>D3YAxisModifierComponent</title>
<polygon fill="#ffffb3" stroke="#000000" points="1042.2492,-122 857.7508,-122 857.7508,-86 1042.2492,-86 1042.2492,-122"/>
<text text-anchor="middle" x="950" y="-99.8" font-family="Times,serif" font-size="14.00" fill="#000000">D3YAxisModifierComponent</text>
</g>
<!-- D3YAxisModifierComponent&#45;&gt;HelgolandMapSelectorModule -->
<g id="edge8" class="edge">
<title>D3YAxisModifierComponent&#45;&gt;HelgolandMapSelectorModule</title>
<path fill="none" stroke="#000000" d="M1038.4922,-122.1243C1038.4922,-136.7832 1038.4922,-155 1038.4922,-155 1038.4922,-155 1146.2438,-155 1146.2438,-155"/>
<polygon fill="#000000" stroke="#000000" points="1146.2438,-158.5001 1156.2438,-155 1146.2437,-151.5001 1146.2438,-158.5001"/>
</g>
<!-- ExportImageButtonComponent -->
<g id="node9" class="node">
<title>ExportImageButtonComponent</title>
<polygon fill="#ffffb3" stroke="#000000" points="839.035,-122 646.965,-122 646.965,-86 839.035,-86 839.035,-122"/>
<text text-anchor="middle" x="743" y="-99.8" font-family="Times,serif" font-size="14.00" fill="#000000">ExportImageButtonComponent</text>
</g>
<!-- ExportImageButtonComponent&#45;&gt;HelgolandMapSelectorModule -->
<g id="edge9" class="edge">
<title>ExportImageButtonComponent&#45;&gt;HelgolandMapSelectorModule</title>
<path fill="none" stroke="#000000" d="M830.1959,-122.0091C830.1959,-138.0494 830.1959,-159 830.1959,-159 830.1959,-159 1146.3011,-159 1146.3011,-159"/>
<polygon fill="#000000" stroke="#000000" points="1146.3011,-162.5001 1156.3011,-159 1146.3011,-155.5001 1146.3011,-162.5001"/>
</g>
<!-- ExtendedDataD3TimeseriesGraphComponent -->
<g id="node10" class="node">
<title>ExtendedDataD3TimeseriesGraphComponent</title>
<polygon fill="#ffffb3" stroke="#000000" points="629.1376,-122 354.8624,-122 354.8624,-86 629.1376,-86 629.1376,-122"/>
<text text-anchor="middle" x="492" y="-99.8" font-family="Times,serif" font-size="14.00" fill="#000000">ExtendedDataD3TimeseriesGraphComponent</text>
</g>
<!-- ExtendedDataD3TimeseriesGraphComponent&#45;&gt;HelgolandMapSelectorModule -->
<g id="edge10" class="edge">
<title>ExtendedDataD3TimeseriesGraphComponent&#45;&gt;HelgolandMapSelectorModule</title>
<path fill="none" stroke="#000000" d="M622.043,-122.0336C622.043,-139.0597 622.043,-162 622.043,-162 622.043,-162 1146.1578,-162 1146.1578,-162"/>
<polygon fill="#000000" stroke="#000000" points="1146.1578,-165.5001 1156.1578,-162 1146.1578,-158.5001 1146.1578,-165.5001"/>
</g>
<!-- D3GeneralGraphComponent  -->
<g id="node14" class="node">
<title>D3GeneralGraphComponent </title>
<polygon fill="#fb8072" stroke="#000000" points="2419.7225,-252 2238.2775,-252 2238.2775,-216 2419.7225,-216 2419.7225,-252"/>
<text text-anchor="middle" x="2329" y="-229.8" font-family="Times,serif" font-size="14.00" fill="#000000">D3GeneralGraphComponent </text>
</g>
<!-- HelgolandMapSelectorModule&#45;&gt;D3GeneralGraphComponent  -->
<g id="edge13" class="edge">
<title>HelgolandMapSelectorModule&#45;&gt;D3GeneralGraphComponent </title>
<path fill="none" stroke="#000000" stroke-dasharray="5,2" d="M1346.1257,-173C1609.3812,-173 2328.2442,-173 2328.2442,-173 2328.2442,-173 2328.2442,-205.698 2328.2442,-205.698"/>
<polygon fill="#000000" stroke="#000000" points="2324.7443,-205.698 2328.2442,-215.698 2331.7443,-205.698 2324.7443,-205.698"/>
</g>
<!-- D3GraphCopyrightComponent  -->
<g id="node15" class="node">
<title>D3GraphCopyrightComponent </title>
<polygon fill="#fb8072" stroke="#000000" points="2220.6994,-252 2027.3006,-252 2027.3006,-216 2220.6994,-216 2220.6994,-252"/>
<text text-anchor="middle" x="2124" y="-229.8" font-family="Times,serif" font-size="14.00" fill="#000000">D3GraphCopyrightComponent </text>
</g>
<!-- HelgolandMapSelectorModule&#45;&gt;D3GraphCopyrightComponent  -->
<g id="edge14" class="edge">
<title>HelgolandMapSelectorModule&#45;&gt;D3GraphCopyrightComponent </title>
<path fill="none" stroke="#000000" stroke-dasharray="5,2" d="M1345.9137,-177C1571.0326,-177 2118.5903,-177 2118.5903,-177 2118.5903,-177 2118.5903,-205.9648 2118.5903,-205.9648"/>
<polygon fill="#000000" stroke="#000000" points="2115.0904,-205.9648 2118.5903,-215.9648 2122.0904,-205.9649 2115.0904,-205.9648"/>
</g>
<!-- D3GraphHoverLineComponent  -->
<g id="node16" class="node">
<title>D3GraphHoverLineComponent </title>
<polygon fill="#fb8072" stroke="#000000" points="2008.5609,-252 1811.4391,-252 1811.4391,-216 2008.5609,-216 2008.5609,-252"/>
<text text-anchor="middle" x="1910" y="-229.8" font-family="Times,serif" font-size="14.00" fill="#000000">D3GraphHoverLineComponent </text>
</g>
<!-- HelgolandMapSelectorModule&#45;&gt;D3GraphHoverLineComponent  -->
<g id="edge15" class="edge">
<title>HelgolandMapSelectorModule&#45;&gt;D3GraphHoverLineComponent </title>
<path fill="none" stroke="#000000" stroke-dasharray="5,2" d="M1345.7093,-180C1526.8851,-180 1904.7344,-180 1904.7344,-180 1904.7344,-180 1904.7344,-205.7181 1904.7344,-205.7181"/>
<polygon fill="#000000" stroke="#000000" points="1901.2345,-205.718 1904.7344,-215.7181 1908.2345,-205.7181 1901.2345,-205.718"/>
</g>
<!-- D3GraphPanZoomInteractionComponent  -->
<g id="node17" class="node">
<title>D3GraphPanZoomInteractionComponent </title>
<polygon fill="#fb8072" stroke="#000000" points="1792.998,-252 1541.002,-252 1541.002,-216 1792.998,-216 1792.998,-252"/>
<text text-anchor="middle" x="1667" y="-229.8" font-family="Times,serif" font-size="14.00" fill="#000000">D3GraphPanZoomInteractionComponent </text>
</g>
<!-- HelgolandMapSelectorModule&#45;&gt;D3GraphPanZoomInteractionComponent  -->
<g id="edge16" class="edge">
<title>HelgolandMapSelectorModule&#45;&gt;D3GraphPanZoomInteractionComponent </title>
<path fill="none" stroke="#000000" stroke-dasharray="5,2" d="M1345.7998,-184C1459.9452,-184 1636.5086,-184 1636.5086,-184 1636.5086,-184 1636.5086,-205.9489 1636.5086,-205.9489"/>
<polygon fill="#000000" stroke="#000000" points="1633.0087,-205.9488 1636.5086,-215.9489 1640.0087,-205.9489 1633.0087,-205.9488"/>
</g>
<!-- D3OverviewTimeseriesGraphComponent  -->
<g id="node18" class="node">
<title>D3OverviewTimeseriesGraphComponent </title>
<polygon fill="#fb8072" stroke="#000000" points="1522.5328,-252 1269.4672,-252 1269.4672,-216 1522.5328,-216 1522.5328,-252"/>
<text text-anchor="middle" x="1396" y="-229.8" font-family="Times,serif" font-size="14.00" fill="#000000">D3OverviewTimeseriesGraphComponent </text>
</g>
<!-- HelgolandMapSelectorModule&#45;&gt;D3OverviewTimeseriesGraphComponent  -->
<g id="edge17" class="edge">
<title>HelgolandMapSelectorModule&#45;&gt;D3OverviewTimeseriesGraphComponent </title>
<path fill="none" stroke="#000000" stroke-dasharray="5,2" d="M1307.4655,-187.1061C1307.4655,-187.1061 1307.4655,-205.991 1307.4655,-205.991"/>
<polygon fill="#000000" stroke="#000000" points="1303.9655,-205.9909 1307.4655,-215.991 1310.9655,-205.991 1303.9655,-205.9909"/>
</g>
<!-- D3TimeseriesGraphComponent  -->
<g id="node19" class="node">
<title>D3TimeseriesGraphComponent </title>
<polygon fill="#fb8072" stroke="#000000" points="1251.3391,-252 1052.6609,-252 1052.6609,-216 1251.3391,-216 1251.3391,-252"/>
<text text-anchor="middle" x="1152" y="-229.8" font-family="Times,serif" font-size="14.00" fill="#000000">D3TimeseriesGraphComponent </text>
</g>
<!-- HelgolandMapSelectorModule&#45;&gt;D3TimeseriesGraphComponent  -->
<g id="edge18" class="edge">
<title>HelgolandMapSelectorModule&#45;&gt;D3TimeseriesGraphComponent </title>
<path fill="none" stroke="#000000" stroke-dasharray="5,2" d="M1203.7362,-187.1061C1203.7362,-187.1061 1203.7362,-205.991 1203.7362,-205.991"/>
<polygon fill="#000000" stroke="#000000" points="1200.2362,-205.9909 1203.7362,-215.991 1207.2362,-205.991 1200.2362,-205.9909"/>
</g>
<!-- D3TrajectoryGraphComponent  -->
<g id="node20" class="node">
<title>D3TrajectoryGraphComponent </title>
<polygon fill="#fb8072" stroke="#000000" points="1034.7197,-252 839.2803,-252 839.2803,-216 1034.7197,-216 1034.7197,-252"/>
<text text-anchor="middle" x="937" y="-229.8" font-family="Times,serif" font-size="14.00" fill="#000000">D3TrajectoryGraphComponent </text>
</g>
<!-- HelgolandMapSelectorModule&#45;&gt;D3TrajectoryGraphComponent  -->
<g id="edge19" class="edge">
<title>HelgolandMapSelectorModule&#45;&gt;D3TrajectoryGraphComponent </title>
<path fill="none" stroke="#000000" stroke-dasharray="5,2" d="M1156.2046,-184C1066.7057,-184 946.1177,-184 946.1177,-184 946.1177,-184 946.1177,-205.9489 946.1177,-205.9489"/>
<polygon fill="#000000" stroke="#000000" points="942.6177,-205.9488 946.1177,-215.9489 949.6177,-205.9489 942.6177,-205.9488"/>
</g>
<!-- D3YAxisModifierComponent  -->
<g id="node21" class="node">
<title>D3YAxisModifierComponent </title>
<polygon fill="#fb8072" stroke="#000000" points="821.2492,-252 632.7508,-252 632.7508,-216 821.2492,-216 821.2492,-252"/>
<text text-anchor="middle" x="727" y="-229.8" font-family="Times,serif" font-size="14.00" fill="#000000">D3YAxisModifierComponent </text>
</g>
<!-- HelgolandMapSelectorModule&#45;&gt;D3YAxisModifierComponent  -->
<g id="edge20" class="edge">
<title>HelgolandMapSelectorModule&#45;&gt;D3YAxisModifierComponent </title>
<path fill="none" stroke="#000000" stroke-dasharray="5,2" d="M1156.1611,-180C1006.887,-180 733.9287,-180 733.9287,-180 733.9287,-180 733.9287,-205.7181 733.9287,-205.7181"/>
<polygon fill="#000000" stroke="#000000" points="730.4287,-205.718 733.9287,-215.7181 737.4287,-205.7181 730.4287,-205.718"/>
</g>
<!-- ExportImageButtonComponent  -->
<g id="node22" class="node">
<title>ExportImageButtonComponent </title>
<polygon fill="#fb8072" stroke="#000000" points="615.0344,-252 418.9656,-252 418.9656,-216 615.0344,-216 615.0344,-252"/>
<text text-anchor="middle" x="517" y="-229.8" font-family="Times,serif" font-size="14.00" fill="#000000">ExportImageButtonComponent </text>
</g>
<!-- HelgolandMapSelectorModule&#45;&gt;ExportImageButtonComponent  -->
<g id="edge21" class="edge">
<title>HelgolandMapSelectorModule&#45;&gt;ExportImageButtonComponent </title>
<path fill="none" stroke="#000000" stroke-dasharray="5,2" d="M1156.1702,-177C957.7477,-177 517,-177 517,-177 517,-177 517,-205.9648 517,-205.9648"/>
<polygon fill="#000000" stroke="#000000" points="513.5001,-205.9648 517,-215.9648 520.5001,-205.9649 513.5001,-205.9648"/>
</g>
<!-- ExtendedDataD3TimeseriesGraphComponent  -->
<g id="node23" class="node">
<title>ExtendedDataD3TimeseriesGraphComponent </title>
<polygon fill="#fb8072" stroke="#000000" points="400.6378,-252 123.3622,-252 123.3622,-216 400.6378,-216 400.6378,-252"/>
<text text-anchor="middle" x="262" y="-229.8" font-family="Times,serif" font-size="14.00" fill="#000000">ExtendedDataD3TimeseriesGraphComponent </text>
</g>
<!-- HelgolandMapSelectorModule&#45;&gt;ExtendedDataD3TimeseriesGraphComponent  -->
<g id="edge22" class="edge">
<title>HelgolandMapSelectorModule&#45;&gt;ExtendedDataD3TimeseriesGraphComponent </title>
<path fill="none" stroke="#000000" stroke-dasharray="5,2" d="M1155.8982,-173C929.6034,-173 377.875,-173 377.875,-173 377.875,-173 377.875,-205.698 377.875,-205.698"/>
<polygon fill="#000000" stroke="#000000" points="374.3751,-205.698 377.875,-215.698 381.3751,-205.698 374.3751,-205.698"/>
</g>
<!-- HelgolandCoreModule -->
<g id="node12" class="node">
<title>HelgolandCoreModule</title>
<polygon fill="#8dd3c7" stroke="#000000" points="330.5786,-122 327.5786,-126 306.5786,-126 303.5786,-122 185.4214,-122 185.4214,-86 330.5786,-86 330.5786,-122"/>
<text text-anchor="middle" x="258" y="-99.8" font-family="Times,serif" font-size="14.00" fill="#000000">HelgolandCoreModule</text>
</g>
<!-- HelgolandCoreModule&#45;&gt;HelgolandMapSelectorModule -->
<g id="edge11" class="edge">
<title>HelgolandCoreModule&#45;&gt;HelgolandMapSelectorModule</title>
<path fill="none" stroke="#000000" d="M258,-122.2667C258,-140.5552 258,-166 258,-166 258,-166 1146.2368,-166 1146.2368,-166"/>
<polygon fill="#000000" stroke="#000000" points="1146.2368,-169.5001 1156.2368,-166 1146.2368,-162.5001 1146.2368,-169.5001"/>
</g>
<!-- HelgolandMapModule -->
<g id="node13" class="node">
<title>HelgolandMapModule</title>
<polygon fill="#8dd3c7" stroke="#000000" points="167.5268,-122 164.5268,-126 143.5268,-126 140.5268,-122 24.4732,-122 24.4732,-86 167.5268,-86 167.5268,-122"/>
<text text-anchor="middle" x="96" y="-99.8" font-family="Times,serif" font-size="14.00" fill="#000000">HelgolandMapModule</text>
</g>
<!-- HelgolandMapModule&#45;&gt;HelgolandMapSelectorModule -->
<g id="edge12" class="edge">
<title>HelgolandMapModule&#45;&gt;HelgolandMapSelectorModule</title>
<path fill="none" stroke="#000000" d="M145.4721,-122.1061C145.4721,-141.3391 145.4721,-169 145.4721,-169 145.4721,-169 1146.2654,-169 1146.2654,-169"/>
<polygon fill="#000000" stroke="#000000" points="1146.2654,-172.5001 1156.2654,-169 1146.2654,-165.5001 1146.2654,-172.5001"/>
</g>
</g>
</svg>
