<?xml version="1.0" encoding="UTF-8" standalone="no"?>
<!DOCTYPE svg PUBLIC "-//W3C//DTD SVG 1.1//EN"
 "http://www.w3.org/Graphics/SVG/1.1/DTD/svg11.dtd">
<!-- Generated by graphviz version 2.40.1 (20161225.0304)
 -->
<!-- Title: dependencies Pages: 1 -->
<svg width="2434pt" height="284pt"
 viewBox="0.00 0.00 2434.00 284.00" xmlns="http://www.w3.org/2000/svg" xmlns:xlink="http://www.w3.org/1999/xlink">
<g id="graph0" class="graph" transform="scale(1 1) rotate(0) translate(4 280)">
<title>dependencies</title>
<polygon fill="#ffffff" stroke="transparent" points="-4,4 -4,-280 2430,-280 2430,4 -4,4"/>
<text text-anchor="start" x="1192.0091" y="-42.4" font-family="sans-serif" font-weight="bold" font-size="14.00" fill="#000000">Legend</text>
<polygon fill="#ffffb3" stroke="transparent" points="979,-10 979,-30 999,-30 999,-10 979,-10"/>
<text text-anchor="start" x="1002.629" y="-15.4" font-family="sans-serif" font-size="14.00" fill="#000000"> &#160;Declarations</text>
<polygon fill="#8dd3c7" stroke="transparent" points="1092,-10 1092,-30 1112,-30 1112,-10 1092,-10"/>
<text text-anchor="start" x="1115.7251" y="-15.4" font-family="sans-serif" font-size="14.00" fill="#000000"> &#160;Module</text>
<polygon fill="#80b1d3" stroke="transparent" points="1178,-10 1178,-30 1198,-30 1198,-10 1178,-10"/>
<text text-anchor="start" x="1201.7812" y="-15.4" font-family="sans-serif" font-size="14.00" fill="#000000"> &#160;Bootstrap</text>
<polygon fill="#fdb462" stroke="transparent" points="1275,-10 1275,-30 1295,-30 1295,-10 1275,-10"/>
<text text-anchor="start" x="1298.6732" y="-15.4" font-family="sans-serif" font-size="14.00" fill="#000000"> &#160;Providers</text>
<polygon fill="#fb8072" stroke="transparent" points="1371,-10 1371,-30 1391,-30 1391,-10 1371,-10"/>
<text text-anchor="start" x="1394.7258" y="-15.4" font-family="sans-serif" font-size="14.00" fill="#000000"> &#160;Exports</text>
<g id="clust1" class="cluster">
<title>cluster_HelgolandMapSelectorModule</title>
<polygon fill="none" stroke="#000000" stroke-dasharray="1,5" points="8,-70 8,-268 2418,-268 2418,-70 8,-70"/>
</g>
<g id="clust2" class="cluster">
<title>cluster_HelgolandMapSelectorModule_declarations</title>
<polygon fill="none" stroke="#000000" points="347,-78 347,-130 2410,-130 2410,-78 347,-78"/>
</g>
<g id="clust12" class="cluster">
<title>cluster_HelgolandMapSelectorModule_imports</title>
<polygon fill="none" stroke="#000000" points="16,-78 16,-130 339,-130 339,-78 16,-78"/>
</g>
<g id="clust13" class="cluster">
<title>cluster_HelgolandMapSelectorModule_exports</title>
<polygon fill="none" stroke="#000000" points="119,-208 119,-260 2216,-260 2216,-208 119,-208"/>
</g>
<!-- D3GeneralGraphComponent -->
<g id="node1" class="node">
<title>D3GeneralGraphComponent</title>
<polygon fill="#ffffb3" stroke="#000000" points="2401.7226,-122 2224.2774,-122 2224.2774,-86 2401.7226,-86 2401.7226,-122"/>
<text text-anchor="middle" x="2313" y="-99.8" font-family="Times,serif" font-size="14.00" fill="#000000">D3GeneralGraphComponent</text>
</g>
<!-- HelgolandMapSelectorModule -->
<g id="node10" class="node">
<title>HelgolandMapSelectorModule</title>
<polygon fill="#8dd3c7" stroke="#000000" points="1250.8946,-187 1247.8946,-191 1226.8946,-191 1223.8946,-187 1061.1054,-187 1061.1054,-151 1250.8946,-151 1250.8946,-187"/>
<text text-anchor="middle" x="1156" y="-164.8" font-family="Times,serif" font-size="14.00" fill="#000000">HelgolandMapSelectorModule</text>
</g>
<!-- D3GeneralGraphComponent&#45;&gt;HelgolandMapSelectorModule -->
<g id="edge1" class="edge">
<title>D3GeneralGraphComponent&#45;&gt;HelgolandMapSelectorModule</title>
<path fill="none" stroke="#000000" d="M2313,-122.1061C2313,-141.3391 2313,-169 2313,-169 2313,-169 1261.1738,-169 1261.1738,-169"/>
<polygon fill="#000000" stroke="#000000" points="1261.1738,-165.5001 1251.1738,-169 1261.1738,-172.5001 1261.1738,-165.5001"/>
</g>
<!-- D3GraphCopyrightComponent -->
<g id="node2" class="node">
<title>D3GraphCopyrightComponent</title>
<polygon fill="#ffffb3" stroke="#000000" points="2206.1993,-122 2015.8007,-122 2015.8007,-86 2206.1993,-86 2206.1993,-122"/>
<text text-anchor="middle" x="2111" y="-99.8" font-family="Times,serif" font-size="14.00" fill="#000000">D3GraphCopyrightComponent</text>
</g>
<!-- D3GraphCopyrightComponent&#45;&gt;HelgolandMapSelectorModule -->
<g id="edge2" class="edge">
<title>D3GraphCopyrightComponent&#45;&gt;HelgolandMapSelectorModule</title>
<path fill="none" stroke="#000000" d="M2021.1446,-122.2667C2021.1446,-140.5552 2021.1446,-166 2021.1446,-166 2021.1446,-166 1261.0604,-166 1261.0604,-166"/>
<polygon fill="#000000" stroke="#000000" points="1261.0604,-162.5001 1251.0604,-166 1261.0604,-169.5001 1261.0604,-162.5001"/>
</g>
<!-- D3GraphPanZoomInteractionComponent -->
<g id="node3" class="node">
<title>D3GraphPanZoomInteractionComponent</title>
<polygon fill="#ffffb3" stroke="#000000" points="1998.4985,-122 1749.5015,-122 1749.5015,-86 1998.4985,-86 1998.4985,-122"/>
<text text-anchor="middle" x="1874" y="-99.8" font-family="Times,serif" font-size="14.00" fill="#000000">D3GraphPanZoomInteractionComponent</text>
</g>
<!-- D3GraphPanZoomInteractionComponent&#45;&gt;HelgolandMapSelectorModule -->
<g id="edge3" class="edge">
<title>D3GraphPanZoomInteractionComponent&#45;&gt;HelgolandMapSelectorModule</title>
<path fill="none" stroke="#000000" d="M1773.375,-122.0336C1773.375,-139.0597 1773.375,-162 1773.375,-162 1773.375,-162 1260.7747,-162 1260.7747,-162"/>
<polygon fill="#000000" stroke="#000000" points="1260.7747,-158.5001 1250.7747,-162 1260.7747,-165.5001 1260.7747,-158.5001"/>
</g>
<!-- D3OverviewTimeseriesGraphComponent -->
<g id="node4" class="node">
<title>D3OverviewTimeseriesGraphComponent</title>
<polygon fill="#ffffb3" stroke="#000000" points="1732.0324,-122 1481.9676,-122 1481.9676,-86 1732.0324,-86 1732.0324,-122"/>
<text text-anchor="middle" x="1607" y="-99.8" font-family="Times,serif" font-size="14.00" fill="#000000">D3OverviewTimeseriesGraphComponent</text>
</g>
<!-- D3OverviewTimeseriesGraphComponent&#45;&gt;HelgolandMapSelectorModule -->
<g id="edge4" class="edge">
<title>D3OverviewTimeseriesGraphComponent&#45;&gt;HelgolandMapSelectorModule</title>
<path fill="none" stroke="#000000" d="M1504.375,-122.0091C1504.375,-138.0494 1504.375,-159 1504.375,-159 1504.375,-159 1260.7348,-159 1260.7348,-159"/>
<polygon fill="#000000" stroke="#000000" points="1260.7349,-155.5001 1250.7348,-159 1260.7348,-162.5001 1260.7349,-155.5001"/>
</g>
<!-- D3TimeseriesGraphComponent -->
<g id="node5" class="node">
<title>D3TimeseriesGraphComponent</title>
<polygon fill="#ffffb3" stroke="#000000" points="1464.3389,-122 1269.6611,-122 1269.6611,-86 1464.3389,-86 1464.3389,-122"/>
<text text-anchor="middle" x="1367" y="-99.8" font-family="Times,serif" font-size="14.00" fill="#000000">D3TimeseriesGraphComponent</text>
</g>
<!-- D3TimeseriesGraphComponent&#45;&gt;HelgolandMapSelectorModule -->
<g id="edge5" class="edge">
<title>D3TimeseriesGraphComponent&#45;&gt;HelgolandMapSelectorModule</title>
<path fill="none" stroke="#000000" d="M1400.6909,-122.1243C1400.6909,-136.7832 1400.6909,-155 1400.6909,-155 1400.6909,-155 1260.9541,-155 1260.9541,-155"/>
<polygon fill="#000000" stroke="#000000" points="1260.9541,-151.5001 1250.9541,-155 1260.9541,-158.5001 1260.9541,-151.5001"/>
</g>
<!-- D3TrajectoryGraphComponent -->
<g id="node6" class="node">
<title>D3TrajectoryGraphComponent</title>
<polygon fill="#ffffb3" stroke="#000000" points="1251.7198,-122 1060.2802,-122 1060.2802,-86 1251.7198,-86 1251.7198,-122"/>
<text text-anchor="middle" x="1156" y="-99.8" font-family="Times,serif" font-size="14.00" fill="#000000">D3TrajectoryGraphComponent</text>
</g>
<!-- D3TrajectoryGraphComponent&#45;&gt;HelgolandMapSelectorModule -->
<g id="edge6" class="edge">
<title>D3TrajectoryGraphComponent&#45;&gt;HelgolandMapSelectorModule</title>
<path fill="none" stroke="#000000" d="M1156,-122.1061C1156,-122.1061 1156,-140.991 1156,-140.991"/>
<polygon fill="#000000" stroke="#000000" points="1152.5001,-140.9909 1156,-150.991 1159.5001,-140.991 1152.5001,-140.9909"/>
</g>
<!-- D3YAxisModifierComponent -->
<g id="node7" class="node">
<title>D3YAxisModifierComponent</title>
<polygon fill="#ffffb3" stroke="#000000" points="1042.2492,-122 857.7508,-122 857.7508,-86 1042.2492,-86 1042.2492,-122"/>
<text text-anchor="middle" x="950" y="-99.8" font-family="Times,serif" font-size="14.00" fill="#000000">D3YAxisModifierComponent</text>
</g>
<!-- D3YAxisModifierComponent&#45;&gt;HelgolandMapSelectorModule -->
<g id="edge7" class="edge">
<title>D3YAxisModifierComponent&#45;&gt;HelgolandMapSelectorModule</title>
<path fill="none" stroke="#000000" d="M978.2817,-122.1243C978.2817,-136.7832 978.2817,-155 978.2817,-155 978.2817,-155 1051.1573,-155 1051.1573,-155"/>
<polygon fill="#000000" stroke="#000000" points="1051.1573,-158.5001 1061.1573,-155 1051.1573,-151.5001 1051.1573,-158.5001"/>
</g>
<!-- ExportImageButtonComponent -->
<g id="node8" class="node">
<title>ExportImageButtonComponent</title>
<polygon fill="#ffffb3" stroke="#000000" points="839.035,-122 646.965,-122 646.965,-86 839.035,-86 839.035,-122"/>
<text text-anchor="middle" x="743" y="-99.8" font-family="Times,serif" font-size="14.00" fill="#000000">ExportImageButtonComponent</text>
</g>
<!-- ExportImageButtonComponent&#45;&gt;HelgolandMapSelectorModule -->
<g id="edge8" class="edge">
<title>ExportImageButtonComponent&#45;&gt;HelgolandMapSelectorModule</title>
<path fill="none" stroke="#000000" d="M832.1959,-122.0091C832.1959,-138.0494 832.1959,-159 832.1959,-159 832.1959,-159 1051.036,-159 1051.036,-159"/>
<polygon fill="#000000" stroke="#000000" points="1051.036,-162.5001 1061.036,-159 1051.0359,-155.5001 1051.036,-162.5001"/>
</g>
<!-- ExtendedDataD3TimeseriesGraphComponent -->
<g id="node9" class="node">
<title>ExtendedDataD3TimeseriesGraphComponent</title>
<polygon fill="#ffffb3" stroke="#000000" points="629.1376,-122 354.8624,-122 354.8624,-86 629.1376,-86 629.1376,-122"/>
<text text-anchor="middle" x="492" y="-99.8" font-family="Times,serif" font-size="14.00" fill="#000000">ExtendedDataD3TimeseriesGraphComponent</text>
</g>
<!-- ExtendedDataD3TimeseriesGraphComponent&#45;&gt;HelgolandMapSelectorModule -->
<g id="edge9" class="edge">
<title>ExtendedDataD3TimeseriesGraphComponent&#45;&gt;HelgolandMapSelectorModule</title>
<path fill="none" stroke="#000000" d="M624.043,-122.0336C624.043,-139.0597 624.043,-162 624.043,-162 624.043,-162 1051.2034,-162 1051.2034,-162"/>
<polygon fill="#000000" stroke="#000000" points="1051.2034,-165.5001 1061.2034,-162 1051.2034,-158.5001 1051.2034,-165.5001"/>
</g>
<!-- D3GeneralGraphComponent  -->
<g id="node13" class="node">
<title>D3GeneralGraphComponent </title>
<polygon fill="#fb8072" stroke="#000000" points="2207.7225,-252 2026.2775,-252 2026.2775,-216 2207.7225,-216 2207.7225,-252"/>
<text text-anchor="middle" x="2117" y="-229.8" font-family="Times,serif" font-size="14.00" fill="#000000">D3GeneralGraphComponent </text>
</g>
<!-- HelgolandMapSelectorModule&#45;&gt;D3GeneralGraphComponent  -->
<g id="edge12" class="edge">
<title>HelgolandMapSelectorModule&#45;&gt;D3GeneralGraphComponent </title>
<path fill="none" stroke="#000000" stroke-dasharray="5,2" d="M1250.6999,-173C1492.9549,-173 2116.2442,-173 2116.2442,-173 2116.2442,-173 2116.2442,-205.698 2116.2442,-205.698"/>
<polygon fill="#000000" stroke="#000000" points="2112.7443,-205.698 2116.2442,-215.698 2119.7443,-205.698 2112.7443,-205.698"/>
</g>
<!-- D3GraphCopyrightComponent  -->
<g id="node14" class="node">
<title>D3GraphCopyrightComponent </title>
<polygon fill="#fb8072" stroke="#000000" points="2008.6994,-252 1815.3006,-252 1815.3006,-216 2008.6994,-216 2008.6994,-252"/>
<text text-anchor="middle" x="1912" y="-229.8" font-family="Times,serif" font-size="14.00" fill="#000000">D3GraphCopyrightComponent </text>
</g>
<!-- HelgolandMapSelectorModule&#45;&gt;D3GraphCopyrightComponent  -->
<g id="edge13" class="edge">
<title>HelgolandMapSelectorModule&#45;&gt;D3GraphCopyrightComponent </title>
<path fill="none" stroke="#000000" stroke-dasharray="5,2" d="M1251.0766,-177C1453.0794,-177 1906.6997,-177 1906.6997,-177 1906.6997,-177 1906.6997,-205.9648 1906.6997,-205.9648"/>
<polygon fill="#000000" stroke="#000000" points="1903.1998,-205.9648 1906.6997,-215.9648 1910.1998,-205.9649 1903.1998,-205.9648"/>
</g>
<!-- D3GraphPanZoomInteractionComponent  -->
<g id="node15" class="node">
<title>D3GraphPanZoomInteractionComponent </title>
<polygon fill="#fb8072" stroke="#000000" points="1796.998,-252 1545.002,-252 1545.002,-216 1796.998,-216 1796.998,-252"/>
<text text-anchor="middle" x="1671" y="-229.8" font-family="Times,serif" font-size="14.00" fill="#000000">D3GraphPanZoomInteractionComponent </text>
</g>
<!-- HelgolandMapSelectorModule&#45;&gt;D3GraphPanZoomInteractionComponent  -->
<g id="edge14" class="edge">
<title>HelgolandMapSelectorModule&#45;&gt;D3GraphPanZoomInteractionComponent </title>
<path fill="none" stroke="#000000" stroke-dasharray="5,2" d="M1250.7525,-180C1391.2718,-180 1638.5086,-180 1638.5086,-180 1638.5086,-180 1638.5086,-205.7181 1638.5086,-205.7181"/>
<polygon fill="#000000" stroke="#000000" points="1635.0087,-205.718 1638.5086,-215.7181 1642.0087,-205.7181 1635.0087,-205.718"/>
</g>
<!-- D3OverviewTimeseriesGraphComponent  -->
<g id="node16" class="node">
<title>D3OverviewTimeseriesGraphComponent </title>
<polygon fill="#fb8072" stroke="#000000" points="1526.5328,-252 1273.4672,-252 1273.4672,-216 1526.5328,-216 1526.5328,-252"/>
<text text-anchor="middle" x="1400" y="-229.8" font-family="Times,serif" font-size="14.00" fill="#000000">D3OverviewTimeseriesGraphComponent </text>
</g>
<!-- HelgolandMapSelectorModule&#45;&gt;D3OverviewTimeseriesGraphComponent  -->
<g id="edge15" class="edge">
<title>HelgolandMapSelectorModule&#45;&gt;D3OverviewTimeseriesGraphComponent </title>
<path fill="none" stroke="#000000" stroke-dasharray="5,2" d="M1250.7211,-184C1294.5051,-184 1336.9623,-184 1336.9623,-184 1336.9623,-184 1336.9623,-205.9489 1336.9623,-205.9489"/>
<polygon fill="#000000" stroke="#000000" points="1333.4624,-205.9488 1336.9623,-215.9489 1340.4624,-205.9489 1333.4624,-205.9488"/>
</g>
<!-- D3TimeseriesGraphComponent  -->
<g id="node17" class="node">
<title>D3TimeseriesGraphComponent </title>
<polygon fill="#fb8072" stroke="#000000" points="1255.3391,-252 1056.6609,-252 1056.6609,-216 1255.3391,-216 1255.3391,-252"/>
<text text-anchor="middle" x="1156" y="-229.8" font-family="Times,serif" font-size="14.00" fill="#000000">D3TimeseriesGraphComponent </text>
</g>
<!-- HelgolandMapSelectorModule&#45;&gt;D3TimeseriesGraphComponent  -->
<g id="edge16" class="edge">
<title>HelgolandMapSelectorModule&#45;&gt;D3TimeseriesGraphComponent </title>
<path fill="none" stroke="#000000" stroke-dasharray="5,2" d="M1156,-187.1061C1156,-187.1061 1156,-205.991 1156,-205.991"/>
<polygon fill="#000000" stroke="#000000" points="1152.5001,-205.9909 1156,-215.991 1159.5001,-205.991 1152.5001,-205.9909"/>
</g>
<!-- D3TrajectoryGraphComponent  -->
<g id="node18" class="node">
<title>D3TrajectoryGraphComponent </title>
<polygon fill="#fb8072" stroke="#000000" points="1038.7197,-252 843.2803,-252 843.2803,-216 1038.7197,-216 1038.7197,-252"/>
<text text-anchor="middle" x="941" y="-229.8" font-family="Times,serif" font-size="14.00" fill="#000000">D3TrajectoryGraphComponent </text>
</g>
<!-- HelgolandMapSelectorModule&#45;&gt;D3TrajectoryGraphComponent  -->
<g id="edge17" class="edge">
<title>HelgolandMapSelectorModule&#45;&gt;D3TrajectoryGraphComponent </title>
<path fill="none" stroke="#000000" stroke-dasharray="5,2" d="M1061.2338,-184C994.8503,-184 917.9536,-184 917.9536,-184 917.9536,-184 917.9536,-205.9489 917.9536,-205.9489"/>
<polygon fill="#000000" stroke="#000000" points="914.4537,-205.9488 917.9536,-215.9489 921.4537,-205.9489 914.4537,-205.9488"/>
</g>
<!-- D3YAxisModifierComponent  -->
<g id="node19" class="node">
<title>D3YAxisModifierComponent </title>
<polygon fill="#fb8072" stroke="#000000" points="825.2492,-252 636.7508,-252 636.7508,-216 825.2492,-216 825.2492,-252"/>
<text text-anchor="middle" x="731" y="-229.8" font-family="Times,serif" font-size="14.00" fill="#000000">D3YAxisModifierComponent </text>
</g>
<!-- HelgolandMapSelectorModule&#45;&gt;D3YAxisModifierComponent  -->
<g id="edge18" class="edge">
<title>HelgolandMapSelectorModule&#45;&gt;D3YAxisModifierComponent </title>
<path fill="none" stroke="#000000" stroke-dasharray="5,2" d="M1061.204,-180C937.3083,-180 735.9287,-180 735.9287,-180 735.9287,-180 735.9287,-205.7181 735.9287,-205.7181"/>
<polygon fill="#000000" stroke="#000000" points="732.4287,-205.718 735.9287,-215.7181 739.4287,-205.7181 732.4287,-205.718"/>
</g>
<!-- ExportImageButtonComponent  -->
<g id="node20" class="node">
<title>ExportImageButtonComponent </title>
<polygon fill="#fb8072" stroke="#000000" points="619.0344,-252 422.9656,-252 422.9656,-216 619.0344,-216 619.0344,-252"/>
<text text-anchor="middle" x="521" y="-229.8" font-family="Times,serif" font-size="14.00" fill="#000000">ExportImageButtonComponent </text>
</g>
<!-- HelgolandMapSelectorModule&#45;&gt;ExportImageButtonComponent  -->
<g id="edge19" class="edge">
<title>HelgolandMapSelectorModule&#45;&gt;ExportImageButtonComponent </title>
<path fill="none" stroke="#000000" stroke-dasharray="5,2" d="M1061.2772,-177C884.2592,-177 521,-177 521,-177 521,-177 521,-205.9648 521,-205.9648"/>
<polygon fill="#000000" stroke="#000000" points="517.5001,-205.9648 521,-215.9648 524.5001,-205.9649 517.5001,-205.9648"/>
</g>
<!-- ExtendedDataD3TimeseriesGraphComponent  -->
<g id="node21" class="node">
<title>ExtendedDataD3TimeseriesGraphComponent </title>
<polygon fill="#fb8072" stroke="#000000" points="404.6378,-252 127.3622,-252 127.3622,-216 404.6378,-216 404.6378,-252"/>
<text text-anchor="middle" x="266" y="-229.8" font-family="Times,serif" font-size="14.00" fill="#000000">ExtendedDataD3TimeseriesGraphComponent </text>
</g>
<!-- HelgolandMapSelectorModule&#45;&gt;ExtendedDataD3TimeseriesGraphComponent  -->
<g id="edge20" class="edge">
<title>HelgolandMapSelectorModule&#45;&gt;ExtendedDataD3TimeseriesGraphComponent </title>
<path fill="none" stroke="#000000" stroke-dasharray="5,2" d="M1061.2201,-173C854.1764,-173 379.875,-173 379.875,-173 379.875,-173 379.875,-205.698 379.875,-205.698"/>
<polygon fill="#000000" stroke="#000000" points="376.3751,-205.698 379.875,-215.698 383.3751,-205.698 376.3751,-205.698"/>
</g>
<!-- HelgolandCoreModule -->
<g id="node11" class="node">
<title>HelgolandCoreModule</title>
<polygon fill="#8dd3c7" stroke="#000000" points="330.5786,-122 327.5786,-126 306.5786,-126 303.5786,-122 185.4214,-122 185.4214,-86 330.5786,-86 330.5786,-122"/>
<text text-anchor="middle" x="258" y="-99.8" font-family="Times,serif" font-size="14.00" fill="#000000">HelgolandCoreModule</text>
</g>
<!-- HelgolandCoreModule&#45;&gt;HelgolandMapSelectorModule -->
<g id="edge10" class="edge">
<title>HelgolandCoreModule&#45;&gt;HelgolandMapSelectorModule</title>
<path fill="none" stroke="#000000" d="M258,-122.2667C258,-140.5552 258,-166 258,-166 258,-166 1051.1724,-166 1051.1724,-166"/>
<polygon fill="#000000" stroke="#000000" points="1051.1724,-169.5001 1061.1724,-166 1051.1723,-162.5001 1051.1724,-169.5001"/>
</g>
<!-- HelgolandMapModule -->
<g id="node12" class="node">
<title>HelgolandMapModule</title>
<polygon fill="#8dd3c7" stroke="#000000" points="167.5268,-122 164.5268,-126 143.5268,-126 140.5268,-122 24.4732,-122 24.4732,-86 167.5268,-86 167.5268,-122"/>
<text text-anchor="middle" x="96" y="-99.8" font-family="Times,serif" font-size="14.00" fill="#000000">HelgolandMapModule</text>
</g>
<!-- HelgolandMapModule&#45;&gt;HelgolandMapSelectorModule -->
<g id="edge11" class="edge">
<title>HelgolandMapModule&#45;&gt;HelgolandMapSelectorModule</title>
<path fill="none" stroke="#000000" d="M147.4721,-122.1061C147.4721,-141.3391 147.4721,-169 147.4721,-169 147.4721,-169 1051.1201,-169 1051.1201,-169"/>
<polygon fill="#000000" stroke="#000000" points="1051.1202,-172.5001 1061.1201,-169 1051.1201,-165.5001 1051.1202,-172.5001"/>
</g>
</g>
</svg>
