<?xml version="1.0" encoding="UTF-8" standalone="no"?>
<!DOCTYPE svg PUBLIC "-//W3C//DTD SVG 1.1//EN"
 "http://www.w3.org/Graphics/SVG/1.1/DTD/svg11.dtd">
<!-- Generated by graphviz version 2.40.1 (20161225.0304)
 -->
<!-- Title: dependencies Pages: 1 -->
<svg width="898pt" height="284pt"
 viewBox="0.00 0.00 898.00 284.00" xmlns="http://www.w3.org/2000/svg" xmlns:xlink="http://www.w3.org/1999/xlink">
<g id="graph0" class="graph" transform="scale(1 1) rotate(0) translate(4 280)">
<title>dependencies</title>
<polygon fill="#ffffff" stroke="transparent" points="-4,4 -4,-280 894,-280 894,4 -4,4"/>
<text text-anchor="start" x="424.0091" y="-42.4" font-family="sans-serif" font-weight="bold" font-size="14.00" fill="#000000">Legend</text>
<polygon fill="#ffffb3" stroke="transparent" points="211,-10 211,-30 231,-30 231,-10 211,-10"/>
<text text-anchor="start" x="234.629" y="-15.4" font-family="sans-serif" font-size="14.00" fill="#000000"> &#160;Declarations</text>
<polygon fill="#8dd3c7" stroke="transparent" points="324,-10 324,-30 344,-30 344,-10 324,-10"/>
<text text-anchor="start" x="347.7251" y="-15.4" font-family="sans-serif" font-size="14.00" fill="#000000"> &#160;Module</text>
<polygon fill="#80b1d3" stroke="transparent" points="410,-10 410,-30 430,-30 430,-10 410,-10"/>
<text text-anchor="start" x="433.7812" y="-15.4" font-family="sans-serif" font-size="14.00" fill="#000000"> &#160;Bootstrap</text>
<polygon fill="#fdb462" stroke="transparent" points="507,-10 507,-30 527,-30 527,-10 507,-10"/>
<text text-anchor="start" x="530.6732" y="-15.4" font-family="sans-serif" font-size="14.00" fill="#000000"> &#160;Providers</text>
<polygon fill="#fb8072" stroke="transparent" points="603,-10 603,-30 623,-30 623,-10 603,-10"/>
<text text-anchor="start" x="626.7258" y="-15.4" font-family="sans-serif" font-size="14.00" fill="#000000"> &#160;Exports</text>
<g id="clust1" class="cluster">
<title>cluster_HelgolandMapSelectorModule</title>
<polygon fill="none" stroke="#000000" stroke-dasharray="1,5" points="8,-70 8,-268 882,-268 882,-70 8,-70"/>
</g>
<g id="clust2" class="cluster">
<title>cluster_HelgolandMapSelectorModule_declarations</title>
<polygon fill="none" stroke="#000000" points="347,-78 347,-130 874,-130 874,-78 347,-78"/>
</g>
<g id="clust6" class="cluster">
<title>cluster_HelgolandMapSelectorModule_imports</title>
<polygon fill="none" stroke="#000000" points="16,-78 16,-130 339,-130 339,-78 16,-78"/>
</g>
<g id="clust7" class="cluster">
<title>cluster_HelgolandMapSelectorModule_exports</title>
<polygon fill="none" stroke="#000000" points="162,-208 162,-260 700,-260 700,-208 162,-208"/>
</g>
<!-- BoolTogglerComponent -->
<g id="node1" class="node">
<title>BoolTogglerComponent</title>
<polygon fill="#ffffb3" stroke="#000000" points="866.378,-122 713.622,-122 713.622,-86 866.378,-86 866.378,-122"/>
<text text-anchor="middle" x="790" y="-99.8" font-family="Times,serif" font-size="14.00" fill="#000000">BoolTogglerComponent</text>
</g>
<!-- HelgolandMapSelectorModule -->
<g id="node4" class="node">
<title>HelgolandMapSelectorModule</title>
<polygon fill="#8dd3c7" stroke="#000000" points="529.8946,-187 526.8946,-191 505.8946,-191 502.8946,-187 340.1054,-187 340.1054,-151 529.8946,-151 529.8946,-187"/>
<text text-anchor="middle" x="435" y="-164.8" font-family="Times,serif" font-size="14.00" fill="#000000">HelgolandMapSelectorModule</text>
</g>
<!-- BoolTogglerComponent&#45;&gt;HelgolandMapSelectorModule -->
<g id="edge1" class="edge">
<title>BoolTogglerComponent&#45;&gt;HelgolandMapSelectorModule</title>
<path fill="none" stroke="#000000" d="M790,-122.1061C790,-141.3391 790,-169 790,-169 790,-169 540.1335,-169 540.1335,-169"/>
<polygon fill="#000000" stroke="#000000" points="540.1335,-165.5001 530.1335,-169 540.1335,-172.5001 540.1335,-165.5001"/>
</g>
<!-- RefreshButtonComponent -->
<g id="node2" class="node">
<title>RefreshButtonComponent</title>
<polygon fill="#ffffb3" stroke="#000000" points="695.4818,-122 532.5182,-122 532.5182,-86 695.4818,-86 695.4818,-122"/>
<text text-anchor="middle" x="614" y="-99.8" font-family="Times,serif" font-size="14.00" fill="#000000">RefreshButtonComponent</text>
</g>
<!-- RefreshButtonComponent&#45;&gt;HelgolandMapSelectorModule -->
<g id="edge2" class="edge">
<title>RefreshButtonComponent&#45;&gt;HelgolandMapSelectorModule</title>
<path fill="none" stroke="#000000" d="M532.4793,-104C526.247,-104 522.3174,-104 522.3174,-104 522.3174,-104 522.3174,-140.8939 522.3174,-140.8939"/>
<polygon fill="#000000" stroke="#000000" points="518.8174,-140.8938 522.3174,-150.8939 525.8174,-140.8939 518.8174,-140.8938"/>
</g>
<!-- StringTogglerComponent -->
<g id="node3" class="node">
<title>StringTogglerComponent</title>
<polygon fill="#ffffb3" stroke="#000000" points="514.8752,-122 355.1248,-122 355.1248,-86 514.8752,-86 514.8752,-122"/>
<text text-anchor="middle" x="435" y="-99.8" font-family="Times,serif" font-size="14.00" fill="#000000">StringTogglerComponent</text>
</g>
<!-- StringTogglerComponent&#45;&gt;HelgolandMapSelectorModule -->
<g id="edge3" class="edge">
<title>StringTogglerComponent&#45;&gt;HelgolandMapSelectorModule</title>
<path fill="none" stroke="#000000" d="M435,-122.1061C435,-122.1061 435,-140.991 435,-140.991"/>
<polygon fill="#000000" stroke="#000000" points="431.5001,-140.9909 435,-150.991 438.5001,-140.991 431.5001,-140.9909"/>
</g>
<!-- BoolTogglerComponent  -->
<g id="node7" class="node">
<title>BoolTogglerComponent </title>
<polygon fill="#fb8072" stroke="#000000" points="692.3785,-252 535.6215,-252 535.6215,-216 692.3785,-216 692.3785,-252"/>
<text text-anchor="middle" x="614" y="-229.8" font-family="Times,serif" font-size="14.00" fill="#000000">BoolTogglerComponent </text>
</g>
<!-- HelgolandMapSelectorModule&#45;&gt;BoolTogglerComponent  -->
<g id="edge6" class="edge">
<title>HelgolandMapSelectorModule&#45;&gt;BoolTogglerComponent </title>
<path fill="none" stroke="#000000" stroke-dasharray="5,2" d="M523.969,-187.1061C523.969,-206.3391 523.969,-234 523.969,-234 523.969,-234 525.739,-234 525.739,-234"/>
<polygon fill="#000000" stroke="#000000" points="525.739,-237.5001 535.739,-234 525.7389,-230.5001 525.739,-237.5001"/>
</g>
<!-- RefreshButtonComponent  -->
<g id="node8" class="node">
<title>RefreshButtonComponent </title>
<polygon fill="#fb8072" stroke="#000000" points="518.4825,-252 351.5175,-252 351.5175,-216 518.4825,-216 518.4825,-252"/>
<text text-anchor="middle" x="435" y="-229.8" font-family="Times,serif" font-size="14.00" fill="#000000">RefreshButtonComponent </text>
</g>
<!-- HelgolandMapSelectorModule&#45;&gt;RefreshButtonComponent  -->
<g id="edge7" class="edge">
<title>HelgolandMapSelectorModule&#45;&gt;RefreshButtonComponent </title>
<path fill="none" stroke="#000000" stroke-dasharray="5,2" d="M435,-187.1061C435,-187.1061 435,-205.991 435,-205.991"/>
<polygon fill="#000000" stroke="#000000" points="431.5001,-205.9909 435,-215.991 438.5001,-205.991 431.5001,-205.9909"/>
</g>
<!-- StringTogglerComponent  -->
<g id="node9" class="node">
<title>StringTogglerComponent </title>
<polygon fill="#fb8072" stroke="#000000" points="333.8756,-252 170.1244,-252 170.1244,-216 333.8756,-216 333.8756,-252"/>
<text text-anchor="middle" x="252" y="-229.8" font-family="Times,serif" font-size="14.00" fill="#000000">StringTogglerComponent </text>
</g>
<!-- HelgolandMapSelectorModule&#45;&gt;StringTogglerComponent  -->
<g id="edge8" class="edge">
<title>HelgolandMapSelectorModule&#45;&gt;StringTogglerComponent </title>
<path fill="none" stroke="#000000" stroke-dasharray="5,2" d="M346.031,-187.1061C346.031,-206.3391 346.031,-234 346.031,-234 346.031,-234 343.7381,-234 343.7381,-234"/>
<polygon fill="#000000" stroke="#000000" points="343.7381,-230.5001 333.7381,-234 343.7381,-237.5001 343.7381,-230.5001"/>
</g>
<!-- HelgolandCoreModule -->
<g id="node5" class="node">
<title>HelgolandCoreModule</title>
<polygon fill="#8dd3c7" stroke="#000000" points="330.5786,-122 327.5786,-126 306.5786,-126 303.5786,-122 185.4214,-122 185.4214,-86 330.5786,-86 330.5786,-122"/>
<text text-anchor="middle" x="258" y="-99.8" font-family="Times,serif" font-size="14.00" fill="#000000">HelgolandCoreModule</text>
</g>
<!-- HelgolandCoreModule&#45;&gt;HelgolandMapSelectorModule -->
<g id="edge4" class="edge">
<title>HelgolandCoreModule&#45;&gt;HelgolandMapSelectorModule</title>
<path fill="none" stroke="#000000" d="M330.814,-104C340.7843,-104 347.6827,-104 347.6827,-104 347.6827,-104 347.6827,-140.8939 347.6827,-140.8939"/>
<polygon fill="#000000" stroke="#000000" points="344.1827,-140.8938 347.6827,-150.8939 351.1827,-140.8939 344.1827,-140.8938"/>
</g>
<!-- HelgolandMapModule -->
<g id="node6" class="node">
<title>HelgolandMapModule</title>
<polygon fill="#8dd3c7" stroke="#000000" points="167.5268,-122 164.5268,-126 143.5268,-126 140.5268,-122 24.4732,-122 24.4732,-86 167.5268,-86 167.5268,-122"/>
<text text-anchor="middle" x="96" y="-99.8" font-family="Times,serif" font-size="14.00" fill="#000000">HelgolandMapModule</text>
</g>
<!-- HelgolandMapModule&#45;&gt;HelgolandMapSelectorModule -->
<g id="edge5" class="edge">
<title>HelgolandMapModule&#45;&gt;HelgolandMapSelectorModule</title>
<path fill="none" stroke="#000000" d="M96,-122.1061C96,-141.3391 96,-169 96,-169 96,-169 330.1188,-169 330.1188,-169"/>
<polygon fill="#000000" stroke="#000000" points="330.1189,-172.5001 340.1188,-169 330.1188,-165.5001 330.1189,-172.5001"/>
</g>
</g>
</svg>
