<?xml version="1.0" encoding="UTF-8" standalone="no"?>
<!DOCTYPE svg PUBLIC "-//W3C//DTD SVG 1.1//EN"
 "http://www.w3.org/Graphics/SVG/1.1/DTD/svg11.dtd">
<!-- Generated by graphviz version 2.40.1 (20161225.0304)
 -->
<!-- Title: dependencies Pages: 1 -->
<svg width="926pt" height="284pt"
 viewBox="0.00 0.00 926.00 284.00" xmlns="http://www.w3.org/2000/svg" xmlns:xlink="http://www.w3.org/1999/xlink">
<g id="graph0" class="graph" transform="scale(1 1) rotate(0) translate(4 280)">
<title>dependencies</title>
<polygon fill="#ffffff" stroke="transparent" points="-4,4 -4,-280 922,-280 922,4 -4,4"/>
<text text-anchor="start" x="438.0091" y="-42.4" font-family="sans-serif" font-weight="bold" font-size="14.00" fill="#000000">Legend</text>
<polygon fill="#ffffb3" stroke="transparent" points="225,-10 225,-30 245,-30 245,-10 225,-10"/>
<text text-anchor="start" x="248.629" y="-15.4" font-family="sans-serif" font-size="14.00" fill="#000000"> &#160;Declarations</text>
<polygon fill="#8dd3c7" stroke="transparent" points="338,-10 338,-30 358,-30 358,-10 338,-10"/>
<text text-anchor="start" x="361.7251" y="-15.4" font-family="sans-serif" font-size="14.00" fill="#000000"> &#160;Module</text>
<polygon fill="#80b1d3" stroke="transparent" points="424,-10 424,-30 444,-30 444,-10 424,-10"/>
<text text-anchor="start" x="447.7812" y="-15.4" font-family="sans-serif" font-size="14.00" fill="#000000"> &#160;Bootstrap</text>
<polygon fill="#fdb462" stroke="transparent" points="521,-10 521,-30 541,-30 541,-10 521,-10"/>
<text text-anchor="start" x="544.6732" y="-15.4" font-family="sans-serif" font-size="14.00" fill="#000000"> &#160;Providers</text>
<polygon fill="#fb8072" stroke="transparent" points="617,-10 617,-30 637,-30 637,-10 617,-10"/>
<text text-anchor="start" x="640.7258" y="-15.4" font-family="sans-serif" font-size="14.00" fill="#000000"> &#160;Exports</text>
<g id="clust1" class="cluster">
<title>cluster_HelgolandMapSelectorModule</title>
<polygon fill="none" stroke="#000000" stroke-dasharray="1,5" points="8,-70 8,-268 910,-268 910,-70 8,-70"/>
</g>
<g id="clust2" class="cluster">
<title>cluster_HelgolandMapSelectorModule_declarations</title>
<polygon fill="none" stroke="#000000" points="206,-78 206,-130 902,-130 902,-78 206,-78"/>
</g>
<g id="clust6" class="cluster">
<title>cluster_HelgolandMapSelectorModule_imports</title>
<polygon fill="none" stroke="#000000" points="16,-78 16,-130 198,-130 198,-78 16,-78"/>
</g>
<g id="clust7" class="cluster">
<title>cluster_HelgolandMapSelectorModule_exports</title>
<polygon fill="none" stroke="#000000" points="106,-208 106,-260 812,-260 812,-208 106,-208"/>
</g>
<!-- PlatformMapSelectorComponent -->
<g id="node1" class="node">
<title>PlatformMapSelectorComponent</title>
<polygon fill="#ffffb3" stroke="#000000" points="893.8501,-122 692.1499,-122 692.1499,-86 893.8501,-86 893.8501,-122"/>
<text text-anchor="middle" x="793" y="-99.8" font-family="Times,serif" font-size="14.00" fill="#000000">PlatformMapSelectorComponent</text>
</g>
<!-- HelgolandMapSelectorModule -->
<g id="node4" class="node">
<title>HelgolandMapSelectorModule</title>
<polygon fill="#8dd3c7" stroke="#000000" points="576.8946,-187 573.8946,-191 552.8946,-191 549.8946,-187 387.1054,-187 387.1054,-151 576.8946,-151 576.8946,-187"/>
<text text-anchor="middle" x="482" y="-164.8" font-family="Times,serif" font-size="14.00" fill="#000000">HelgolandMapSelectorModule</text>
</g>
<!-- PlatformMapSelectorComponent&#45;&gt;HelgolandMapSelectorModule -->
<g id="edge1" class="edge">
<title>PlatformMapSelectorComponent&#45;&gt;HelgolandMapSelectorModule</title>
<path fill="none" stroke="#000000" d="M747.875,-122.0225C747.875,-139.3734 747.875,-163 747.875,-163 747.875,-163 586.861,-163 586.861,-163"/>
<polygon fill="#000000" stroke="#000000" points="586.861,-159.5001 576.861,-163 586.8609,-166.5001 586.861,-159.5001"/>
</g>
<!-- StationMapSelectorComponent -->
<g id="node2" class="node">
<title>StationMapSelectorComponent</title>
<polygon fill="#ffffb3" stroke="#000000" points="674.0294,-122 481.9706,-122 481.9706,-86 674.0294,-86 674.0294,-122"/>
<text text-anchor="middle" x="578" y="-99.8" font-family="Times,serif" font-size="14.00" fill="#000000">StationMapSelectorComponent</text>
</g>
<!-- StationMapSelectorComponent&#45;&gt;HelgolandMapSelectorModule -->
<g id="edge2" class="edge">
<title>StationMapSelectorComponent&#45;&gt;HelgolandMapSelectorModule</title>
<path fill="none" stroke="#000000" d="M529.2163,-122.1061C529.2163,-122.1061 529.2163,-140.991 529.2163,-140.991"/>
<polygon fill="#000000" stroke="#000000" points="525.7164,-140.9909 529.2163,-150.991 532.7164,-140.991 525.7164,-140.9909"/>
</g>
<!-- ProfileTrajectoryMapSelectorComponent -->
<g id="node3" class="node">
<title>ProfileTrajectoryMapSelectorComponent</title>
<polygon fill="#ffffb3" stroke="#000000" points="463.7583,-122 214.2417,-122 214.2417,-86 463.7583,-86 463.7583,-122"/>
<text text-anchor="middle" x="339" y="-99.8" font-family="Times,serif" font-size="14.00" fill="#000000">ProfileTrajectoryMapSelectorComponent</text>
</g>
<!-- ProfileTrajectoryMapSelectorComponent&#45;&gt;HelgolandMapSelectorModule -->
<g id="edge3" class="edge">
<title>ProfileTrajectoryMapSelectorComponent&#45;&gt;HelgolandMapSelectorModule</title>
<path fill="none" stroke="#000000" d="M425.466,-122.1061C425.466,-122.1061 425.466,-140.991 425.466,-140.991"/>
<polygon fill="#000000" stroke="#000000" points="421.9661,-140.9909 425.466,-150.991 428.9661,-140.991 421.9661,-140.9909"/>
</g>
<!-- PlatformMapSelectorComponent  -->
<g id="node6" class="node">
<title>PlatformMapSelectorComponent </title>
<polygon fill="#fb8072" stroke="#000000" points="803.8503,-252 598.1497,-252 598.1497,-216 803.8503,-216 803.8503,-252"/>
<text text-anchor="middle" x="701" y="-229.8" font-family="Times,serif" font-size="14.00" fill="#000000">PlatformMapSelectorComponent </text>
</g>
<!-- HelgolandMapSelectorModule&#45;&gt;PlatformMapSelectorComponent  -->
<g id="edge5" class="edge">
<title>HelgolandMapSelectorModule&#45;&gt;PlatformMapSelectorComponent </title>
<path fill="none" stroke="#000000" stroke-dasharray="5,2" d="M577.0816,-175C608.8336,-175 636.2947,-175 636.2947,-175 636.2947,-175 636.2947,-205.9775 636.2947,-205.9775"/>
<polygon fill="#000000" stroke="#000000" points="632.7948,-205.9774 636.2947,-215.9775 639.7948,-205.9775 632.7948,-205.9774"/>
</g>
<!-- StationMapSelectorComponent  -->
<g id="node7" class="node">
<title>StationMapSelectorComponent </title>
<polygon fill="#fb8072" stroke="#000000" points="580.0288,-252 383.9712,-252 383.9712,-216 580.0288,-216 580.0288,-252"/>
<text text-anchor="middle" x="482" y="-229.8" font-family="Times,serif" font-size="14.00" fill="#000000">StationMapSelectorComponent </text>
</g>
<!-- HelgolandMapSelectorModule&#45;&gt;StationMapSelectorComponent  -->
<g id="edge6" class="edge">
<title>HelgolandMapSelectorModule&#45;&gt;StationMapSelectorComponent </title>
<path fill="none" stroke="#000000" stroke-dasharray="5,2" d="M482,-187.1061C482,-187.1061 482,-205.991 482,-205.991"/>
<polygon fill="#000000" stroke="#000000" points="478.5001,-205.9909 482,-215.991 485.5001,-205.991 478.5001,-205.9909"/>
</g>
<!-- ProfileTrajectoryMapSelectorComponent  -->
<g id="node8" class="node">
<title>ProfileTrajectoryMapSelectorComponent </title>
<polygon fill="#fb8072" stroke="#000000" points="366.2583,-252 113.7417,-252 113.7417,-216 366.2583,-216 366.2583,-252"/>
<text text-anchor="middle" x="240" y="-229.8" font-family="Times,serif" font-size="14.00" fill="#000000">ProfileTrajectoryMapSelectorComponent </text>
</g>
<!-- HelgolandMapSelectorModule&#45;&gt;ProfileTrajectoryMapSelectorComponent  -->
<g id="edge7" class="edge">
<title>HelgolandMapSelectorModule&#45;&gt;ProfileTrajectoryMapSelectorComponent </title>
<path fill="none" stroke="#000000" stroke-dasharray="5,2" d="M387.0296,-175C338.8443,-175 290.375,-175 290.375,-175 290.375,-175 290.375,-205.9775 290.375,-205.9775"/>
<polygon fill="#000000" stroke="#000000" points="286.8751,-205.9774 290.375,-215.9775 293.8751,-205.9775 286.8751,-205.9774"/>
</g>
<!-- HelgolandServicesModule -->
<g id="node5" class="node">
<title>HelgolandServicesModule</title>
<polygon fill="#8dd3c7" stroke="#000000" points="189.7893,-122 186.7893,-126 165.7893,-126 162.7893,-122 24.2107,-122 24.2107,-86 189.7893,-86 189.7893,-122"/>
<text text-anchor="middle" x="107" y="-99.8" font-family="Times,serif" font-size="14.00" fill="#000000">HelgolandServicesModule</text>
</g>
<!-- HelgolandServicesModule&#45;&gt;HelgolandMapSelectorModule -->
<g id="edge4" class="edge">
<title>HelgolandServicesModule&#45;&gt;HelgolandMapSelectorModule</title>
<path fill="none" stroke="#000000" d="M151.6327,-122.0225C151.6327,-139.3734 151.6327,-163 151.6327,-163 151.6327,-163 376.8873,-163 376.8873,-163"/>
<polygon fill="#000000" stroke="#000000" points="376.8873,-166.5001 386.8873,-163 376.8873,-159.5001 376.8873,-166.5001"/>
</g>
</g>
</svg>
