<?xml version="1.0" encoding="UTF-8" standalone="no"?>
<!DOCTYPE svg PUBLIC "-//W3C//DTD SVG 1.1//EN"
 "http://www.w3.org/Graphics/SVG/1.1/DTD/svg11.dtd">
<!-- Generated by graphviz version 2.40.1 (20161225.0304)
 -->
<!-- Title: dependencies Pages: 1 -->
<svg width="1067pt" height="284pt"
 viewBox="0.00 0.00 1067.00 284.00" xmlns="http://www.w3.org/2000/svg" xmlns:xlink="http://www.w3.org/1999/xlink">
<g id="graph0" class="graph" transform="scale(1 1) rotate(0) translate(4 280)">
<title>dependencies</title>
<polygon fill="#ffffff" stroke="transparent" points="-4,4 -4,-280 1063,-280 1063,4 -4,4"/>
<text text-anchor="start" x="508.5091" y="-42.4" font-family="sans-serif" font-weight="bold" font-size="14.00" fill="#000000">Legend</text>
<polygon fill="#ffffb3" stroke="transparent" points="295.5,-10 295.5,-30 315.5,-30 315.5,-10 295.5,-10"/>
<text text-anchor="start" x="319.129" y="-15.4" font-family="sans-serif" font-size="14.00" fill="#000000"> &#160;Declarations</text>
<polygon fill="#8dd3c7" stroke="transparent" points="408.5,-10 408.5,-30 428.5,-30 428.5,-10 408.5,-10"/>
<text text-anchor="start" x="432.2251" y="-15.4" font-family="sans-serif" font-size="14.00" fill="#000000"> &#160;Module</text>
<polygon fill="#80b1d3" stroke="transparent" points="494.5,-10 494.5,-30 514.5,-30 514.5,-10 494.5,-10"/>
<text text-anchor="start" x="518.2812" y="-15.4" font-family="sans-serif" font-size="14.00" fill="#000000"> &#160;Bootstrap</text>
<polygon fill="#fdb462" stroke="transparent" points="591.5,-10 591.5,-30 611.5,-30 611.5,-10 591.5,-10"/>
<text text-anchor="start" x="615.1732" y="-15.4" font-family="sans-serif" font-size="14.00" fill="#000000"> &#160;Providers</text>
<polygon fill="#fb8072" stroke="transparent" points="687.5,-10 687.5,-30 707.5,-30 707.5,-10 687.5,-10"/>
<text text-anchor="start" x="711.2258" y="-15.4" font-family="sans-serif" font-size="14.00" fill="#000000"> &#160;Exports</text>
<g id="clust1" class="cluster">
<title>cluster_HelgolandMapSelectorModule</title>
<polygon fill="none" stroke="#000000" stroke-dasharray="1,5" points="8,-70 8,-268 1051,-268 1051,-70 8,-70"/>
</g>
<g id="clust2" class="cluster">
<title>cluster_HelgolandMapSelectorModule_declarations</title>
<polygon fill="none" stroke="#000000" points="347,-78 347,-130 1043,-130 1043,-78 347,-78"/>
</g>
<g id="clust6" class="cluster">
<title>cluster_HelgolandMapSelectorModule_imports</title>
<polygon fill="none" stroke="#000000" points="16,-78 16,-130 339,-130 339,-78 16,-78"/>
</g>
<g id="clust7" class="cluster">
<title>cluster_HelgolandMapSelectorModule_exports</title>
<polygon fill="none" stroke="#000000" points="104,-208 104,-260 810,-260 810,-208 104,-208"/>
</g>
<!-- PlatformMapSelectorComponent -->
<g id="node1" class="node">
<title>PlatformMapSelectorComponent</title>
<polygon fill="#ffffb3" stroke="#000000" points="1034.8501,-122 833.1499,-122 833.1499,-86 1034.8501,-86 1034.8501,-122"/>
<text text-anchor="middle" x="934" y="-99.8" font-family="Times,serif" font-size="14.00" fill="#000000">PlatformMapSelectorComponent</text>
</g>
<!-- HelgolandMapSelectorModule -->
<g id="node4" class="node">
<title>HelgolandMapSelectorModule</title>
<polygon fill="#8dd3c7" stroke="#000000" points="574.8946,-187 571.8946,-191 550.8946,-191 547.8946,-187 385.1054,-187 385.1054,-151 574.8946,-151 574.8946,-187"/>
<text text-anchor="middle" x="480" y="-164.8" font-family="Times,serif" font-size="14.00" fill="#000000">HelgolandMapSelectorModule</text>
</g>
<!-- PlatformMapSelectorComponent&#45;&gt;HelgolandMapSelectorModule -->
<g id="edge1" class="edge">
<title>PlatformMapSelectorComponent&#45;&gt;HelgolandMapSelectorModule</title>
<path fill="none" stroke="#000000" d="M934,-122.1061C934,-141.3391 934,-169 934,-169 934,-169 584.8968,-169 584.8968,-169"/>
<polygon fill="#000000" stroke="#000000" points="584.8969,-165.5001 574.8968,-169 584.8968,-172.5001 584.8969,-165.5001"/>
</g>
<!-- StationMapSelectorComponent -->
<g id="node2" class="node">
<title>StationMapSelectorComponent</title>
<polygon fill="#ffffb3" stroke="#000000" points="815.0294,-122 622.9706,-122 622.9706,-86 815.0294,-86 815.0294,-122"/>
<text text-anchor="middle" x="719" y="-99.8" font-family="Times,serif" font-size="14.00" fill="#000000">StationMapSelectorComponent</text>
</g>
<!-- StationMapSelectorComponent&#45;&gt;HelgolandMapSelectorModule -->
<g id="edge2" class="edge">
<title>StationMapSelectorComponent&#45;&gt;HelgolandMapSelectorModule</title>
<path fill="none" stroke="#000000" d="M712.2053,-122.027C712.2053,-138.3976 712.2053,-160 712.2053,-160 712.2053,-160 584.7817,-160 584.7817,-160"/>
<polygon fill="#000000" stroke="#000000" points="584.7817,-156.5001 574.7817,-160 584.7817,-163.5001 584.7817,-156.5001"/>
</g>
<!-- ProfileTrajectoryMapSelectorComponent -->
<g id="node3" class="node">
<title>ProfileTrajectoryMapSelectorComponent</title>
<polygon fill="#ffffb3" stroke="#000000" points="604.7583,-122 355.2417,-122 355.2417,-86 604.7583,-86 604.7583,-122"/>
<text text-anchor="middle" x="480" y="-99.8" font-family="Times,serif" font-size="14.00" fill="#000000">ProfileTrajectoryMapSelectorComponent</text>
</g>
<!-- ProfileTrajectoryMapSelectorComponent&#45;&gt;HelgolandMapSelectorModule -->
<g id="edge3" class="edge">
<title>ProfileTrajectoryMapSelectorComponent&#45;&gt;HelgolandMapSelectorModule</title>
<path fill="none" stroke="#000000" d="M480,-122.1061C480,-122.1061 480,-140.991 480,-140.991"/>
<polygon fill="#000000" stroke="#000000" points="476.5001,-140.9909 480,-150.991 483.5001,-140.991 476.5001,-140.9909"/>
</g>
<!-- PlatformMapSelectorComponent  -->
<g id="node7" class="node">
<title>PlatformMapSelectorComponent </title>
<polygon fill="#fb8072" stroke="#000000" points="801.8503,-252 596.1497,-252 596.1497,-216 801.8503,-216 801.8503,-252"/>
<text text-anchor="middle" x="699" y="-229.8" font-family="Times,serif" font-size="14.00" fill="#000000">PlatformMapSelectorComponent </text>
</g>
<!-- HelgolandMapSelectorModule&#45;&gt;PlatformMapSelectorComponent  -->
<g id="edge6" class="edge">
<title>HelgolandMapSelectorModule&#45;&gt;PlatformMapSelectorComponent </title>
<path fill="none" stroke="#000000" stroke-dasharray="5,2" d="M574.927,-178C589.8588,-178 600.4771,-178 600.4771,-178 600.4771,-178 600.4771,-205.973 600.4771,-205.973"/>
<polygon fill="#000000" stroke="#000000" points="596.9771,-205.973 600.4771,-215.973 603.9771,-205.973 596.9771,-205.973"/>
</g>
<!-- StationMapSelectorComponent  -->
<g id="node8" class="node">
<title>StationMapSelectorComponent </title>
<polygon fill="#fb8072" stroke="#000000" points="578.0288,-252 381.9712,-252 381.9712,-216 578.0288,-216 578.0288,-252"/>
<text text-anchor="middle" x="480" y="-229.8" font-family="Times,serif" font-size="14.00" fill="#000000">StationMapSelectorComponent </text>
</g>
<!-- HelgolandMapSelectorModule&#45;&gt;StationMapSelectorComponent  -->
<g id="edge7" class="edge">
<title>HelgolandMapSelectorModule&#45;&gt;StationMapSelectorComponent </title>
<path fill="none" stroke="#000000" stroke-dasharray="5,2" d="M480,-187.1061C480,-187.1061 480,-205.991 480,-205.991"/>
<polygon fill="#000000" stroke="#000000" points="476.5001,-205.9909 480,-215.991 483.5001,-205.991 476.5001,-205.9909"/>
</g>
<!-- ProfileTrajectoryMapSelectorComponent  -->
<g id="node9" class="node">
<title>ProfileTrajectoryMapSelectorComponent </title>
<polygon fill="#fb8072" stroke="#000000" points="364.2583,-252 111.7417,-252 111.7417,-216 364.2583,-216 364.2583,-252"/>
<text text-anchor="middle" x="238" y="-229.8" font-family="Times,serif" font-size="14.00" fill="#000000">ProfileTrajectoryMapSelectorComponent </text>
</g>
<!-- HelgolandMapSelectorModule&#45;&gt;ProfileTrajectoryMapSelectorComponent  -->
<g id="edge8" class="edge">
<title>HelgolandMapSelectorModule&#45;&gt;ProfileTrajectoryMapSelectorComponent </title>
<path fill="none" stroke="#000000" stroke-dasharray="5,2" d="M385.0571,-178C370.3233,-178 359.875,-178 359.875,-178 359.875,-178 359.875,-205.973 359.875,-205.973"/>
<polygon fill="#000000" stroke="#000000" points="356.3751,-205.973 359.875,-215.973 363.3751,-205.973 356.3751,-205.973"/>
</g>
<!-- HelgolandCoreModule -->
<g id="node5" class="node">
<title>HelgolandCoreModule</title>
<polygon fill="#8dd3c7" stroke="#000000" points="330.5786,-122 327.5786,-126 306.5786,-126 303.5786,-122 185.4214,-122 185.4214,-86 330.5786,-86 330.5786,-122"/>
<text text-anchor="middle" x="258" y="-99.8" font-family="Times,serif" font-size="14.00" fill="#000000">HelgolandCoreModule</text>
</g>
<!-- HelgolandCoreModule&#45;&gt;HelgolandMapSelectorModule -->
<g id="edge4" class="edge">
<title>HelgolandCoreModule&#45;&gt;HelgolandMapSelectorModule</title>
<path fill="none" stroke="#000000" d="M258,-122.027C258,-138.3976 258,-160 258,-160 258,-160 375.2081,-160 375.2081,-160"/>
<polygon fill="#000000" stroke="#000000" points="375.2081,-163.5001 385.2081,-160 375.208,-156.5001 375.2081,-163.5001"/>
</g>
<!-- HelgolandMapModule -->
<g id="node6" class="node">
<title>HelgolandMapModule</title>
<polygon fill="#8dd3c7" stroke="#000000" points="167.5268,-122 164.5268,-126 143.5268,-126 140.5268,-122 24.4732,-122 24.4732,-86 167.5268,-86 167.5268,-122"/>
<text text-anchor="middle" x="96" y="-99.8" font-family="Times,serif" font-size="14.00" fill="#000000">HelgolandMapModule</text>
</g>
<!-- HelgolandMapModule&#45;&gt;HelgolandMapSelectorModule -->
<g id="edge5" class="edge">
<title>HelgolandMapModule&#45;&gt;HelgolandMapSelectorModule</title>
<path fill="none" stroke="#000000" d="M139.692,-122.1061C139.692,-141.3391 139.692,-169 139.692,-169 139.692,-169 375.2052,-169 375.2052,-169"/>
<polygon fill="#000000" stroke="#000000" points="375.2053,-172.5001 385.2052,-169 375.2052,-165.5001 375.2053,-172.5001"/>
</g>
</g>
</svg>
