<?xml version="1.0" encoding="UTF-8" standalone="no"?>
<!DOCTYPE svg PUBLIC "-//W3C//DTD SVG 1.1//EN"
 "http://www.w3.org/Graphics/SVG/1.1/DTD/svg11.dtd">
<!-- Generated by graphviz version 2.40.1 (20161225.0304)
 -->
<!-- Title: dependencies Pages: 1 -->
<svg width="2590pt" height="284pt"
 viewBox="0.00 0.00 2590.00 284.00" xmlns="http://www.w3.org/2000/svg" xmlns:xlink="http://www.w3.org/1999/xlink">
<g id="graph0" class="graph" transform="scale(1 1) rotate(0) translate(4 280)">
<title>dependencies</title>
<polygon fill="#ffffff" stroke="transparent" points="-4,4 -4,-280 2586,-280 2586,4 -4,4"/>
<text text-anchor="start" x="1270.0091" y="-42.4" font-family="sans-serif" font-weight="bold" font-size="14.00" fill="#000000">Legend</text>
<polygon fill="#ffffb3" stroke="transparent" points="1057,-10 1057,-30 1077,-30 1077,-10 1057,-10"/>
<text text-anchor="start" x="1080.629" y="-15.4" font-family="sans-serif" font-size="14.00" fill="#000000"> &#160;Declarations</text>
<polygon fill="#8dd3c7" stroke="transparent" points="1170,-10 1170,-30 1190,-30 1190,-10 1170,-10"/>
<text text-anchor="start" x="1193.7251" y="-15.4" font-family="sans-serif" font-size="14.00" fill="#000000"> &#160;Module</text>
<polygon fill="#80b1d3" stroke="transparent" points="1256,-10 1256,-30 1276,-30 1276,-10 1256,-10"/>
<text text-anchor="start" x="1279.7812" y="-15.4" font-family="sans-serif" font-size="14.00" fill="#000000"> &#160;Bootstrap</text>
<polygon fill="#fdb462" stroke="transparent" points="1353,-10 1353,-30 1373,-30 1373,-10 1353,-10"/>
<text text-anchor="start" x="1376.6732" y="-15.4" font-family="sans-serif" font-size="14.00" fill="#000000"> &#160;Providers</text>
<polygon fill="#fb8072" stroke="transparent" points="1449,-10 1449,-30 1469,-30 1469,-10 1449,-10"/>
<text text-anchor="start" x="1472.7258" y="-15.4" font-family="sans-serif" font-size="14.00" fill="#000000"> &#160;Exports</text>
<g id="clust1" class="cluster">
<title>cluster_HelgolandMapControlModule</title>
<polygon fill="none" stroke="#000000" stroke-dasharray="1,5" points="8,-70 8,-268 2574,-268 2574,-70 8,-70"/>
</g>
<g id="clust2" class="cluster">
<title>cluster_HelgolandMapControlModule_declarations</title>
<polygon fill="none" stroke="#000000" points="503,-78 503,-130 2566,-130 2566,-78 503,-78"/>
</g>
<g id="clust12" class="cluster">
<title>cluster_HelgolandMapControlModule_imports</title>
<polygon fill="none" stroke="#000000" points="172,-78 172,-130 495,-130 495,-78 172,-78"/>
</g>
<g id="clust13" class="cluster">
<title>cluster_HelgolandMapControlModule_exports</title>
<polygon fill="none" stroke="#000000" points="172,-208 172,-260 2269,-260 2269,-208 172,-208"/>
</g>
<g id="clust15" class="cluster">
<title>cluster_HelgolandMapControlModule_providers</title>
<polygon fill="none" stroke="#000000" points="16,-78 16,-130 164,-130 164,-78 16,-78"/>
</g>
<!-- D3GeneralGraphComponent -->
<g id="node1" class="node">
<title>D3GeneralGraphComponent</title>
<polygon fill="#ffffb3" stroke="#000000" points="2557.7226,-122 2380.2774,-122 2380.2774,-86 2557.7226,-86 2557.7226,-122"/>
<text text-anchor="middle" x="2469" y="-99.8" font-family="Times,serif" font-size="14.00" fill="#000000">D3GeneralGraphComponent</text>
</g>
<!-- HelgolandMapControlModule -->
<g id="node10" class="node">
<title>HelgolandMapControlModule</title>
<polygon fill="#8dd3c7" stroke="#000000" points="1302.3046,-187 1299.3046,-191 1278.3046,-191 1275.3046,-187 1115.6954,-187 1115.6954,-151 1302.3046,-151 1302.3046,-187"/>
<text text-anchor="middle" x="1209" y="-164.8" font-family="Times,serif" font-size="14.00" fill="#000000">HelgolandMapControlModule</text>
</g>
<!-- D3GeneralGraphComponent&#45;&gt;HelgolandMapControlModule -->
<g id="edge1" class="edge">
<title>D3GeneralGraphComponent&#45;&gt;HelgolandMapControlModule</title>
<path fill="none" stroke="#000000" d="M2469,-122.1061C2469,-141.3391 2469,-169 2469,-169 2469,-169 1312.1625,-169 1312.1625,-169"/>
<polygon fill="#000000" stroke="#000000" points="1312.1625,-165.5001 1302.1625,-169 1312.1625,-172.5001 1312.1625,-165.5001"/>
</g>
<!-- D3GraphCopyrightComponent -->
<g id="node2" class="node">
<title>D3GraphCopyrightComponent</title>
<polygon fill="#ffffb3" stroke="#000000" points="2362.1993,-122 2171.8007,-122 2171.8007,-86 2362.1993,-86 2362.1993,-122"/>
<text text-anchor="middle" x="2267" y="-99.8" font-family="Times,serif" font-size="14.00" fill="#000000">D3GraphCopyrightComponent</text>
</g>
<!-- D3GraphCopyrightComponent&#45;&gt;HelgolandMapControlModule -->
<g id="edge2" class="edge">
<title>D3GraphCopyrightComponent&#45;&gt;HelgolandMapControlModule</title>
<path fill="none" stroke="#000000" d="M2216.2558,-122.2667C2216.2558,-140.5552 2216.2558,-166 2216.2558,-166 2216.2558,-166 1312.4048,-166 1312.4048,-166"/>
<polygon fill="#000000" stroke="#000000" points="1312.4048,-162.5001 1302.4048,-166 1312.4047,-169.5001 1312.4048,-162.5001"/>
</g>
<!-- D3GraphPanZoomInteractionComponent -->
<g id="node3" class="node">
<title>D3GraphPanZoomInteractionComponent</title>
<polygon fill="#ffffb3" stroke="#000000" points="2154.4985,-122 1905.5015,-122 1905.5015,-86 2154.4985,-86 2154.4985,-122"/>
<text text-anchor="middle" x="2030" y="-99.8" font-family="Times,serif" font-size="14.00" fill="#000000">D3GraphPanZoomInteractionComponent</text>
</g>
<!-- D3GraphPanZoomInteractionComponent&#45;&gt;HelgolandMapControlModule -->
<g id="edge3" class="edge">
<title>D3GraphPanZoomInteractionComponent&#45;&gt;HelgolandMapControlModule</title>
<path fill="none" stroke="#000000" d="M1983.8003,-122.0336C1983.8003,-139.0597 1983.8003,-162 1983.8003,-162 1983.8003,-162 1312.459,-162 1312.459,-162"/>
<polygon fill="#000000" stroke="#000000" points="1312.4591,-158.5001 1302.459,-162 1312.459,-165.5001 1312.4591,-158.5001"/>
</g>
<!-- D3OverviewTimeseriesGraphComponent -->
<g id="node4" class="node">
<title>D3OverviewTimeseriesGraphComponent</title>
<polygon fill="#ffffb3" stroke="#000000" points="1888.0324,-122 1637.9676,-122 1637.9676,-86 1888.0324,-86 1888.0324,-122"/>
<text text-anchor="middle" x="1763" y="-99.8" font-family="Times,serif" font-size="14.00" fill="#000000">D3OverviewTimeseriesGraphComponent</text>
</g>
<!-- D3OverviewTimeseriesGraphComponent&#45;&gt;HelgolandMapControlModule -->
<g id="edge4" class="edge">
<title>D3OverviewTimeseriesGraphComponent&#45;&gt;HelgolandMapControlModule</title>
<path fill="none" stroke="#000000" d="M1743.9914,-122.0091C1743.9914,-138.0494 1743.9914,-159 1743.9914,-159 1743.9914,-159 1312.1884,-159 1312.1884,-159"/>
<polygon fill="#000000" stroke="#000000" points="1312.1884,-155.5001 1302.1884,-159 1312.1884,-162.5001 1312.1884,-155.5001"/>
</g>
<!-- D3TimeseriesGraphComponent -->
<g id="node5" class="node">
<title>D3TimeseriesGraphComponent</title>
<polygon fill="#ffffb3" stroke="#000000" points="1620.3389,-122 1425.6611,-122 1425.6611,-86 1620.3389,-86 1620.3389,-122"/>
<text text-anchor="middle" x="1523" y="-99.8" font-family="Times,serif" font-size="14.00" fill="#000000">D3TimeseriesGraphComponent</text>
</g>
<!-- D3TimeseriesGraphComponent&#45;&gt;HelgolandMapControlModule -->
<g id="edge5" class="edge">
<title>D3TimeseriesGraphComponent&#45;&gt;HelgolandMapControlModule</title>
<path fill="none" stroke="#000000" d="M1502.6734,-122.1243C1502.6734,-136.7832 1502.6734,-155 1502.6734,-155 1502.6734,-155 1312.3236,-155 1312.3236,-155"/>
<polygon fill="#000000" stroke="#000000" points="1312.3236,-151.5001 1302.3236,-155 1312.3236,-158.5001 1312.3236,-151.5001"/>
</g>
<!-- D3TrajectoryGraphComponent -->
<g id="node6" class="node">
<title>D3TrajectoryGraphComponent</title>
<polygon fill="#ffffb3" stroke="#000000" points="1407.7198,-122 1216.2802,-122 1216.2802,-86 1407.7198,-86 1407.7198,-122"/>
<text text-anchor="middle" x="1312" y="-99.8" font-family="Times,serif" font-size="14.00" fill="#000000">D3TrajectoryGraphComponent</text>
</g>
<!-- D3TrajectoryGraphComponent&#45;&gt;HelgolandMapControlModule -->
<g id="edge6" class="edge">
<title>D3TrajectoryGraphComponent&#45;&gt;HelgolandMapControlModule</title>
<path fill="none" stroke="#000000" d="M1259.1462,-122.1061C1259.1462,-122.1061 1259.1462,-140.991 1259.1462,-140.991"/>
<polygon fill="#000000" stroke="#000000" points="1255.6463,-140.9909 1259.1462,-150.991 1262.6463,-140.991 1255.6463,-140.9909"/>
</g>
<!-- D3YAxisModifierComponent -->
<g id="node7" class="node">
<title>D3YAxisModifierComponent</title>
<polygon fill="#ffffb3" stroke="#000000" points="1198.2492,-122 1013.7508,-122 1013.7508,-86 1198.2492,-86 1198.2492,-122"/>
<text text-anchor="middle" x="1106" y="-99.8" font-family="Times,serif" font-size="14.00" fill="#000000">D3YAxisModifierComponent</text>
</g>
<!-- D3YAxisModifierComponent&#45;&gt;HelgolandMapControlModule -->
<g id="edge7" class="edge">
<title>D3YAxisModifierComponent&#45;&gt;HelgolandMapControlModule</title>
<path fill="none" stroke="#000000" d="M1157.1112,-122.1061C1157.1112,-122.1061 1157.1112,-140.991 1157.1112,-140.991"/>
<polygon fill="#000000" stroke="#000000" points="1153.6112,-140.9909 1157.1112,-150.991 1160.6112,-140.991 1153.6112,-140.9909"/>
</g>
<!-- ExportImageButtonComponent -->
<g id="node8" class="node">
<title>ExportImageButtonComponent</title>
<polygon fill="#ffffb3" stroke="#000000" points="995.035,-122 802.965,-122 802.965,-86 995.035,-86 995.035,-122"/>
<text text-anchor="middle" x="899" y="-99.8" font-family="Times,serif" font-size="14.00" fill="#000000">ExportImageButtonComponent</text>
</g>
<!-- ExportImageButtonComponent&#45;&gt;HelgolandMapControlModule -->
<g id="edge8" class="edge">
<title>ExportImageButtonComponent&#45;&gt;HelgolandMapControlModule</title>
<path fill="none" stroke="#000000" d="M945.8287,-122.1243C945.8287,-136.7832 945.8287,-155 945.8287,-155 945.8287,-155 1105.8453,-155 1105.8453,-155"/>
<polygon fill="#000000" stroke="#000000" points="1105.8453,-158.5001 1115.8453,-155 1105.8453,-151.5001 1105.8453,-158.5001"/>
</g>
<!-- ExtendedDataD3TimeseriesGraphComponent -->
<g id="node9" class="node">
<title>ExtendedDataD3TimeseriesGraphComponent</title>
<polygon fill="#ffffb3" stroke="#000000" points="785.1376,-122 510.8624,-122 510.8624,-86 785.1376,-86 785.1376,-122"/>
<text text-anchor="middle" x="648" y="-99.8" font-family="Times,serif" font-size="14.00" fill="#000000">ExtendedDataD3TimeseriesGraphComponent</text>
</g>
<!-- ExtendedDataD3TimeseriesGraphComponent&#45;&gt;HelgolandMapControlModule -->
<g id="edge9" class="edge">
<title>ExtendedDataD3TimeseriesGraphComponent&#45;&gt;HelgolandMapControlModule</title>
<path fill="none" stroke="#000000" d="M737.4722,-122.0091C737.4722,-138.0494 737.4722,-159 737.4722,-159 737.4722,-159 1105.8413,-159 1105.8413,-159"/>
<polygon fill="#000000" stroke="#000000" points="1105.8413,-162.5001 1115.8413,-159 1105.8412,-155.5001 1105.8413,-162.5001"/>
</g>
<!-- D3GeneralGraphComponent  -->
<g id="node13" class="node">
<title>D3GeneralGraphComponent </title>
<polygon fill="#fb8072" stroke="#000000" points="2260.7225,-252 2079.2775,-252 2079.2775,-216 2260.7225,-216 2260.7225,-252"/>
<text text-anchor="middle" x="2170" y="-229.8" font-family="Times,serif" font-size="14.00" fill="#000000">D3GeneralGraphComponent </text>
</g>
<!-- HelgolandMapControlModule&#45;&gt;D3GeneralGraphComponent  -->
<g id="edge12" class="edge">
<title>HelgolandMapControlModule&#45;&gt;D3GeneralGraphComponent </title>
<path fill="none" stroke="#000000" stroke-dasharray="5,2" d="M1302.3094,-173C1533.9693,-173 2116.8189,-173 2116.8189,-173 2116.8189,-173 2116.8189,-205.698 2116.8189,-205.698"/>
<polygon fill="#000000" stroke="#000000" points="2113.319,-205.698 2116.8189,-215.698 2120.319,-205.698 2113.319,-205.698"/>
</g>
<!-- D3GraphCopyrightComponent  -->
<g id="node14" class="node">
<title>D3GraphCopyrightComponent </title>
<polygon fill="#fb8072" stroke="#000000" points="2061.6994,-252 1868.3006,-252 1868.3006,-216 2061.6994,-216 2061.6994,-252"/>
<text text-anchor="middle" x="1965" y="-229.8" font-family="Times,serif" font-size="14.00" fill="#000000">D3GraphCopyrightComponent </text>
</g>
<!-- HelgolandMapControlModule&#45;&gt;D3GraphCopyrightComponent  -->
<g id="edge13" class="edge">
<title>HelgolandMapControlModule&#45;&gt;D3GraphCopyrightComponent </title>
<path fill="none" stroke="#000000" stroke-dasharray="5,2" d="M1302.3852,-177C1486.3791,-177 1878.0833,-177 1878.0833,-177 1878.0833,-177 1878.0833,-205.9648 1878.0833,-205.9648"/>
<polygon fill="#000000" stroke="#000000" points="1874.5834,-205.9648 1878.0833,-215.9648 1881.5834,-205.9649 1874.5834,-205.9648"/>
</g>
<!-- D3GraphPanZoomInteractionComponent  -->
<g id="node15" class="node">
<title>D3GraphPanZoomInteractionComponent </title>
<polygon fill="#fb8072" stroke="#000000" points="1849.998,-252 1598.002,-252 1598.002,-216 1849.998,-216 1849.998,-252"/>
<text text-anchor="middle" x="1724" y="-229.8" font-family="Times,serif" font-size="14.00" fill="#000000">D3GraphPanZoomInteractionComponent </text>
</g>
<!-- HelgolandMapControlModule&#45;&gt;D3GraphPanZoomInteractionComponent  -->
<g id="edge14" class="edge">
<title>HelgolandMapControlModule&#45;&gt;D3GraphPanZoomInteractionComponent </title>
<path fill="none" stroke="#000000" stroke-dasharray="5,2" d="M1302.3264,-180C1420.5854,-180 1609.2102,-180 1609.2102,-180 1609.2102,-180 1609.2102,-205.7181 1609.2102,-205.7181"/>
<polygon fill="#000000" stroke="#000000" points="1605.7103,-205.718 1609.2102,-215.7181 1612.7103,-205.7181 1605.7103,-205.718"/>
</g>
<!-- D3OverviewTimeseriesGraphComponent  -->
<g id="node16" class="node">
<title>D3OverviewTimeseriesGraphComponent </title>
<polygon fill="#fb8072" stroke="#000000" points="1579.5328,-252 1326.4672,-252 1326.4672,-216 1579.5328,-216 1579.5328,-252"/>
<text text-anchor="middle" x="1453" y="-229.8" font-family="Times,serif" font-size="14.00" fill="#000000">D3OverviewTimeseriesGraphComponent </text>
</g>
<!-- HelgolandMapControlModule&#45;&gt;D3OverviewTimeseriesGraphComponent  -->
<g id="edge15" class="edge">
<title>HelgolandMapControlModule&#45;&gt;D3OverviewTimeseriesGraphComponent </title>
<path fill="none" stroke="#000000" stroke-dasharray="5,2" d="M1302.3071,-184C1336.525,-184 1367.0468,-184 1367.0468,-184 1367.0468,-184 1367.0468,-205.9489 1367.0468,-205.9489"/>
<polygon fill="#000000" stroke="#000000" points="1363.5469,-205.9488 1367.0468,-215.9489 1370.5469,-205.9489 1363.5469,-205.9488"/>
</g>
<!-- D3TimeseriesGraphComponent  -->
<g id="node17" class="node">
<title>D3TimeseriesGraphComponent </title>
<polygon fill="#fb8072" stroke="#000000" points="1308.3391,-252 1109.6609,-252 1109.6609,-216 1308.3391,-216 1308.3391,-252"/>
<text text-anchor="middle" x="1209" y="-229.8" font-family="Times,serif" font-size="14.00" fill="#000000">D3TimeseriesGraphComponent </text>
</g>
<!-- HelgolandMapControlModule&#45;&gt;D3TimeseriesGraphComponent  -->
<g id="edge16" class="edge">
<title>HelgolandMapControlModule&#45;&gt;D3TimeseriesGraphComponent </title>
<path fill="none" stroke="#000000" stroke-dasharray="5,2" d="M1209,-187.1061C1209,-187.1061 1209,-205.991 1209,-205.991"/>
<polygon fill="#000000" stroke="#000000" points="1205.5001,-205.9909 1209,-215.991 1212.5001,-205.991 1205.5001,-205.9909"/>
</g>
<!-- D3TrajectoryGraphComponent  -->
<g id="node18" class="node">
<title>D3TrajectoryGraphComponent </title>
<polygon fill="#fb8072" stroke="#000000" points="1091.7197,-252 896.2803,-252 896.2803,-216 1091.7197,-216 1091.7197,-252"/>
<text text-anchor="middle" x="994" y="-229.8" font-family="Times,serif" font-size="14.00" fill="#000000">D3TrajectoryGraphComponent </text>
</g>
<!-- HelgolandMapControlModule&#45;&gt;D3TrajectoryGraphComponent  -->
<g id="edge17" class="edge">
<title>HelgolandMapControlModule&#45;&gt;D3TrajectoryGraphComponent </title>
<path fill="none" stroke="#000000" stroke-dasharray="5,2" d="M1115.7736,-184C1082.2836,-184 1052.6177,-184 1052.6177,-184 1052.6177,-184 1052.6177,-205.9489 1052.6177,-205.9489"/>
<polygon fill="#000000" stroke="#000000" points="1049.1177,-205.9488 1052.6177,-215.9489 1056.1177,-205.9489 1049.1177,-205.9488"/>
</g>
<!-- D3YAxisModifierComponent  -->
<g id="node19" class="node">
<title>D3YAxisModifierComponent </title>
<polygon fill="#fb8072" stroke="#000000" points="878.2492,-252 689.7508,-252 689.7508,-216 878.2492,-216 878.2492,-252"/>
<text text-anchor="middle" x="784" y="-229.8" font-family="Times,serif" font-size="14.00" fill="#000000">D3YAxisModifierComponent </text>
</g>
<!-- HelgolandMapControlModule&#45;&gt;D3YAxisModifierComponent  -->
<g id="edge18" class="edge">
<title>HelgolandMapControlModule&#45;&gt;D3YAxisModifierComponent </title>
<path fill="none" stroke="#000000" stroke-dasharray="5,2" d="M1115.5174,-180C1006.3244,-180 840.4287,-180 840.4287,-180 840.4287,-180 840.4287,-205.7181 840.4287,-205.7181"/>
<polygon fill="#000000" stroke="#000000" points="836.9287,-205.718 840.4287,-215.7181 843.9287,-205.7181 836.9287,-205.718"/>
</g>
<!-- ExportImageButtonComponent  -->
<g id="node20" class="node">
<title>ExportImageButtonComponent </title>
<polygon fill="#fb8072" stroke="#000000" points="672.0344,-252 475.9656,-252 475.9656,-216 672.0344,-216 672.0344,-252"/>
<text text-anchor="middle" x="574" y="-229.8" font-family="Times,serif" font-size="14.00" fill="#000000">ExportImageButtonComponent </text>
</g>
<!-- HelgolandMapControlModule&#45;&gt;ExportImageButtonComponent  -->
<g id="edge19" class="edge">
<title>HelgolandMapControlModule&#45;&gt;ExportImageButtonComponent </title>
<path fill="none" stroke="#000000" stroke-dasharray="5,2" d="M1115.5466,-177C942.915,-177 591.4742,-177 591.4742,-177 591.4742,-177 591.4742,-205.9648 591.4742,-205.9648"/>
<polygon fill="#000000" stroke="#000000" points="587.9743,-205.9648 591.4742,-215.9648 594.9743,-205.9649 587.9743,-205.9648"/>
</g>
<!-- ExtendedDataD3TimeseriesGraphComponent  -->
<g id="node21" class="node">
<title>ExtendedDataD3TimeseriesGraphComponent </title>
<polygon fill="#fb8072" stroke="#000000" points="457.6378,-252 180.3622,-252 180.3622,-216 457.6378,-216 457.6378,-252"/>
<text text-anchor="middle" x="319" y="-229.8" font-family="Times,serif" font-size="14.00" fill="#000000">ExtendedDataD3TimeseriesGraphComponent </text>
</g>
<!-- HelgolandMapControlModule&#45;&gt;ExtendedDataD3TimeseriesGraphComponent  -->
<g id="edge20" class="edge">
<title>HelgolandMapControlModule&#45;&gt;ExtendedDataD3TimeseriesGraphComponent </title>
<path fill="none" stroke="#000000" stroke-dasharray="5,2" d="M1115.7611,-173C902.9399,-173 399.6398,-173 399.6398,-173 399.6398,-173 399.6398,-205.698 399.6398,-205.698"/>
<polygon fill="#000000" stroke="#000000" points="396.1398,-205.698 399.6398,-215.698 403.1398,-205.698 396.1398,-205.698"/>
</g>
<!-- HelgolandCoreModule -->
<g id="node11" class="node">
<title>HelgolandCoreModule</title>
<polygon fill="#8dd3c7" stroke="#000000" points="486.5786,-122 483.5786,-126 462.5786,-126 459.5786,-122 341.4214,-122 341.4214,-86 486.5786,-86 486.5786,-122"/>
<text text-anchor="middle" x="414" y="-99.8" font-family="Times,serif" font-size="14.00" fill="#000000">HelgolandCoreModule</text>
</g>
<!-- HelgolandCoreModule&#45;&gt;HelgolandMapControlModule -->
<g id="edge10" class="edge">
<title>HelgolandCoreModule&#45;&gt;HelgolandMapControlModule</title>
<path fill="none" stroke="#000000" d="M481.2611,-122.0336C481.2611,-139.0597 481.2611,-162 481.2611,-162 481.2611,-162 1105.7217,-162 1105.7217,-162"/>
<polygon fill="#000000" stroke="#000000" points="1105.7218,-165.5001 1115.7217,-162 1105.7217,-158.5001 1105.7218,-165.5001"/>
</g>
<!-- HelgolandMapModule -->
<g id="node12" class="node">
<title>HelgolandMapModule</title>
<polygon fill="#8dd3c7" stroke="#000000" points="323.5268,-122 320.5268,-126 299.5268,-126 296.5268,-122 180.4732,-122 180.4732,-86 323.5268,-86 323.5268,-122"/>
<text text-anchor="middle" x="252" y="-99.8" font-family="Times,serif" font-size="14.00" fill="#000000">HelgolandMapModule</text>
</g>
<!-- HelgolandMapModule&#45;&gt;HelgolandMapControlModule -->
<g id="edge11" class="edge">
<title>HelgolandMapModule&#45;&gt;HelgolandMapControlModule</title>
<path fill="none" stroke="#000000" d="M252,-122.2667C252,-140.5552 252,-166 252,-166 252,-166 1105.4964,-166 1105.4964,-166"/>
<polygon fill="#000000" stroke="#000000" points="1105.4964,-169.5001 1115.4964,-166 1105.4963,-162.5001 1105.4964,-169.5001"/>
</g>
<!-- LocateService -->
<g id="node22" class="node">
<title>LocateService</title>
<ellipse fill="#fdb462" stroke="#000000" cx="90" cy="-104" rx="66.0281" ry="18"/>
<text text-anchor="middle" x="90" y="-99.8" font-family="Times,serif" font-size="14.00" fill="#000000">LocateService</text>
</g>
<!-- LocateService&#45;&gt;HelgolandMapControlModule -->
<g id="edge21" class="edge">
<title>LocateService&#45;&gt;HelgolandMapControlModule</title>
<path fill="none" stroke="#000000" d="M90,-122.1061C90,-141.3391 90,-169 90,-169 90,-169 1105.5194,-169 1105.5194,-169"/>
<polygon fill="#000000" stroke="#000000" points="1105.5194,-172.5001 1115.5194,-169 1105.5193,-165.5001 1105.5194,-172.5001"/>
</g>
</g>
</svg>
