<?xml version="1.0" encoding="UTF-8" standalone="no"?>
<!DOCTYPE svg PUBLIC "-//W3C//DTD SVG 1.1//EN"
 "http://www.w3.org/Graphics/SVG/1.1/DTD/svg11.dtd">
<!-- Generated by graphviz version 2.40.1 (20161225.0304)
 -->
<!-- Title: dependencies Pages: 1 -->
<svg width="1119pt" height="284pt"
 viewBox="0.00 0.00 1119.00 284.00" xmlns="http://www.w3.org/2000/svg" xmlns:xlink="http://www.w3.org/1999/xlink">
<g id="graph0" class="graph" transform="scale(1 1) rotate(0) translate(4 280)">
<title>dependencies</title>
<polygon fill="#ffffff" stroke="transparent" points="-4,4 -4,-280 1115,-280 1115,4 -4,4"/>
<text text-anchor="start" x="534.5091" y="-42.4" font-family="sans-serif" font-weight="bold" font-size="14.00" fill="#000000">Legend</text>
<polygon fill="#ffffb3" stroke="transparent" points="321.5,-10 321.5,-30 341.5,-30 341.5,-10 321.5,-10"/>
<text text-anchor="start" x="345.129" y="-15.4" font-family="sans-serif" font-size="14.00" fill="#000000"> &#160;Declarations</text>
<polygon fill="#8dd3c7" stroke="transparent" points="434.5,-10 434.5,-30 454.5,-30 454.5,-10 434.5,-10"/>
<text text-anchor="start" x="458.2251" y="-15.4" font-family="sans-serif" font-size="14.00" fill="#000000"> &#160;Module</text>
<polygon fill="#80b1d3" stroke="transparent" points="520.5,-10 520.5,-30 540.5,-30 540.5,-10 520.5,-10"/>
<text text-anchor="start" x="544.2812" y="-15.4" font-family="sans-serif" font-size="14.00" fill="#000000"> &#160;Bootstrap</text>
<polygon fill="#fdb462" stroke="transparent" points="617.5,-10 617.5,-30 637.5,-30 637.5,-10 617.5,-10"/>
<text text-anchor="start" x="641.1732" y="-15.4" font-family="sans-serif" font-size="14.00" fill="#000000"> &#160;Providers</text>
<polygon fill="#fb8072" stroke="transparent" points="713.5,-10 713.5,-30 733.5,-30 733.5,-10 713.5,-10"/>
<text text-anchor="start" x="737.2258" y="-15.4" font-family="sans-serif" font-size="14.00" fill="#000000"> &#160;Exports</text>
<g id="clust1" class="cluster">
<title>cluster_HelgolandMapControlModule</title>
<polygon fill="none" stroke="#000000" stroke-dasharray="1,5" points="8,-70 8,-268 1103,-268 1103,-70 8,-70"/>
</g>
<g id="clust2" class="cluster">
<title>cluster_HelgolandMapControlModule_declarations</title>
<polygon fill="none" stroke="#000000" points="362,-78 362,-130 1095,-130 1095,-78 362,-78"/>
</g>
<g id="clust7" class="cluster">
<title>cluster_HelgolandMapControlModule_imports</title>
<polygon fill="none" stroke="#000000" points="172,-78 172,-130 354,-130 354,-78 172,-78"/>
</g>
<g id="clust8" class="cluster">
<title>cluster_HelgolandMapControlModule_exports</title>
<polygon fill="none" stroke="#000000" points="161,-208 161,-260 908,-260 908,-208 161,-208"/>
</g>
<g id="clust10" class="cluster">
<title>cluster_HelgolandMapControlModule_providers</title>
<polygon fill="none" stroke="#000000" points="16,-78 16,-130 164,-130 164,-78 16,-78"/>
</g>
<!-- LocateControlComponent -->
<g id="node1" class="node">
<title>LocateControlComponent</title>
<polygon fill="#ffffb3" stroke="#000000" points="1087.1979,-122 924.8021,-122 924.8021,-86 1087.1979,-86 1087.1979,-122"/>
<text text-anchor="middle" x="1006" y="-99.8" font-family="Times,serif" font-size="14.00" fill="#000000">LocateControlComponent</text>
</g>
<!-- HelgolandMapControlModule -->
<g id="node5" class="node">
<title>HelgolandMapControlModule</title>
<polygon fill="#8dd3c7" stroke="#000000" points="633.3046,-187 630.3046,-191 609.3046,-191 606.3046,-187 446.6954,-187 446.6954,-151 633.3046,-151 633.3046,-187"/>
<text text-anchor="middle" x="540" y="-164.8" font-family="Times,serif" font-size="14.00" fill="#000000">HelgolandMapControlModule</text>
</g>
<!-- LocateControlComponent&#45;&gt;HelgolandMapControlModule -->
<g id="edge1" class="edge">
<title>LocateControlComponent&#45;&gt;HelgolandMapControlModule</title>
<path fill="none" stroke="#000000" d="M1006,-122.1061C1006,-141.3391 1006,-169 1006,-169 1006,-169 643.1821,-169 643.1821,-169"/>
<polygon fill="#000000" stroke="#000000" points="643.1821,-165.5001 633.1821,-169 643.182,-172.5001 643.1821,-165.5001"/>
</g>
<!-- ZoomControlComponent -->
<g id="node2" class="node">
<title>ZoomControlComponent</title>
<polygon fill="#ffffb3" stroke="#000000" points="906.5546,-122 749.4454,-122 749.4454,-86 906.5546,-86 906.5546,-122"/>
<text text-anchor="middle" x="828" y="-99.8" font-family="Times,serif" font-size="14.00" fill="#000000">ZoomControlComponent</text>
</g>
<!-- ZoomControlComponent&#45;&gt;HelgolandMapControlModule -->
<g id="edge2" class="edge">
<title>ZoomControlComponent&#45;&gt;HelgolandMapControlModule</title>
<path fill="none" stroke="#000000" d="M824.536,-122.027C824.536,-138.3976 824.536,-160 824.536,-160 824.536,-160 643.1677,-160 643.1677,-160"/>
<polygon fill="#000000" stroke="#000000" points="643.1677,-156.5001 633.1677,-160 643.1677,-163.5001 643.1677,-156.5001"/>
</g>
<!-- GeosearchControlComponent -->
<g id="node3" class="node">
<title>GeosearchControlComponent</title>
<polygon fill="#ffffb3" stroke="#000000" points="731.6811,-122 548.3189,-122 548.3189,-86 731.6811,-86 731.6811,-122"/>
<text text-anchor="middle" x="640" y="-99.8" font-family="Times,serif" font-size="14.00" fill="#000000">GeosearchControlComponent</text>
</g>
<!-- GeosearchControlComponent&#45;&gt;HelgolandMapControlModule -->
<g id="edge3" class="edge">
<title>GeosearchControlComponent&#45;&gt;HelgolandMapControlModule</title>
<path fill="none" stroke="#000000" d="M590.7809,-122.1061C590.7809,-122.1061 590.7809,-140.991 590.7809,-140.991"/>
<polygon fill="#000000" stroke="#000000" points="587.2809,-140.9909 590.7809,-150.991 594.2809,-140.991 587.2809,-140.9909"/>
</g>
<!-- ExtentControlComponent -->
<g id="node4" class="node">
<title>ExtentControlComponent</title>
<polygon fill="#ffffb3" stroke="#000000" points="530.1596,-122 369.8404,-122 369.8404,-86 530.1596,-86 530.1596,-122"/>
<text text-anchor="middle" x="450" y="-99.8" font-family="Times,serif" font-size="14.00" fill="#000000">ExtentControlComponent</text>
</g>
<!-- ExtentControlComponent&#45;&gt;HelgolandMapControlModule -->
<g id="edge4" class="edge">
<title>ExtentControlComponent&#45;&gt;HelgolandMapControlModule</title>
<path fill="none" stroke="#000000" d="M488.5887,-122.1061C488.5887,-122.1061 488.5887,-140.991 488.5887,-140.991"/>
<polygon fill="#000000" stroke="#000000" points="485.0888,-140.9909 488.5887,-150.991 492.0888,-140.991 485.0888,-140.9909"/>
</g>
<!-- LocateControlComponent  -->
<g id="node7" class="node">
<title>LocateControlComponent </title>
<polygon fill="#fb8072" stroke="#000000" points="899.6981,-252 734.3019,-252 734.3019,-216 899.6981,-216 899.6981,-252"/>
<text text-anchor="middle" x="817" y="-229.8" font-family="Times,serif" font-size="14.00" fill="#000000">LocateControlComponent </text>
</g>
<!-- HelgolandMapControlModule&#45;&gt;LocateControlComponent  -->
<g id="edge6" class="edge">
<title>HelgolandMapControlModule&#45;&gt;LocateControlComponent </title>
<path fill="none" stroke="#000000" stroke-dasharray="5,2" d="M633.1687,-178C686.0143,-178 741.6871,-178 741.6871,-178 741.6871,-178 741.6871,-205.973 741.6871,-205.973"/>
<polygon fill="#000000" stroke="#000000" points="738.1871,-205.973 741.6871,-215.973 745.1871,-205.973 738.1871,-205.973"/>
</g>
<!-- ZoomControlComponent  -->
<g id="node8" class="node">
<title>ZoomControlComponent </title>
<polygon fill="#fb8072" stroke="#000000" points="716.554,-252 555.446,-252 555.446,-216 716.554,-216 716.554,-252"/>
<text text-anchor="middle" x="636" y="-229.8" font-family="Times,serif" font-size="14.00" fill="#000000">ZoomControlComponent </text>
</g>
<!-- HelgolandMapControlModule&#45;&gt;ZoomControlComponent  -->
<g id="edge7" class="edge">
<title>HelgolandMapControlModule&#45;&gt;ZoomControlComponent </title>
<path fill="none" stroke="#000000" stroke-dasharray="5,2" d="M594.3126,-187.1061C594.3126,-187.1061 594.3126,-205.991 594.3126,-205.991"/>
<polygon fill="#000000" stroke="#000000" points="590.8127,-205.9909 594.3126,-215.991 597.8127,-205.991 590.8127,-205.9909"/>
</g>
<!-- GeosearchControlComponent  -->
<g id="node9" class="node">
<title>GeosearchControlComponent </title>
<polygon fill="#fb8072" stroke="#000000" points="537.1813,-252 350.8187,-252 350.8187,-216 537.1813,-216 537.1813,-252"/>
<text text-anchor="middle" x="444" y="-229.8" font-family="Times,serif" font-size="14.00" fill="#000000">GeosearchControlComponent </text>
</g>
<!-- HelgolandMapControlModule&#45;&gt;GeosearchControlComponent  -->
<g id="edge8" class="edge">
<title>HelgolandMapControlModule&#45;&gt;GeosearchControlComponent </title>
<path fill="none" stroke="#000000" stroke-dasharray="5,2" d="M492.0942,-187.1061C492.0942,-187.1061 492.0942,-205.991 492.0942,-205.991"/>
<polygon fill="#000000" stroke="#000000" points="488.5942,-205.9909 492.0942,-215.991 495.5942,-205.991 488.5942,-205.9909"/>
</g>
<!-- ExtentControlComponent  -->
<g id="node10" class="node">
<title>ExtentControlComponent </title>
<polygon fill="#fb8072" stroke="#000000" points="333.1593,-252 168.8407,-252 168.8407,-216 333.1593,-216 333.1593,-252"/>
<text text-anchor="middle" x="251" y="-229.8" font-family="Times,serif" font-size="14.00" fill="#000000">ExtentControlComponent </text>
</g>
<!-- HelgolandMapControlModule&#45;&gt;ExtentControlComponent  -->
<g id="edge9" class="edge">
<title>HelgolandMapControlModule&#45;&gt;ExtentControlComponent </title>
<path fill="none" stroke="#000000" stroke-dasharray="5,2" d="M446.4576,-178C363.9437,-178 256.7176,-178 256.7176,-178 256.7176,-178 256.7176,-205.973 256.7176,-205.973"/>
<polygon fill="#000000" stroke="#000000" points="253.2176,-205.973 256.7176,-215.973 260.2176,-205.973 253.2176,-205.973"/>
</g>
<!-- HelgolandServicesModule -->
<g id="node6" class="node">
<title>HelgolandServicesModule</title>
<polygon fill="#8dd3c7" stroke="#000000" points="345.7893,-122 342.7893,-126 321.7893,-126 318.7893,-122 180.2107,-122 180.2107,-86 345.7893,-86 345.7893,-122"/>
<text text-anchor="middle" x="263" y="-99.8" font-family="Times,serif" font-size="14.00" fill="#000000">HelgolandServicesModule</text>
</g>
<!-- HelgolandServicesModule&#45;&gt;HelgolandMapControlModule -->
<g id="edge5" class="edge">
<title>HelgolandServicesModule&#45;&gt;HelgolandMapControlModule</title>
<path fill="none" stroke="#000000" d="M339.3621,-122.027C339.3621,-138.3976 339.3621,-160 339.3621,-160 339.3621,-160 436.7295,-160 436.7295,-160"/>
<polygon fill="#000000" stroke="#000000" points="436.7296,-163.5001 446.7295,-160 436.7295,-156.5001 436.7296,-163.5001"/>
</g>
<!-- LocateService -->
<g id="node11" class="node">
<title>LocateService</title>
<ellipse fill="#fdb462" stroke="#000000" cx="90" cy="-104" rx="66.0281" ry="18"/>
<text text-anchor="middle" x="90" y="-99.8" font-family="Times,serif" font-size="14.00" fill="#000000">LocateService</text>
</g>
<!-- LocateService&#45;&gt;HelgolandMapControlModule -->
<g id="edge10" class="edge">
<title>LocateService&#45;&gt;HelgolandMapControlModule</title>
<path fill="none" stroke="#000000" d="M90,-122.1061C90,-141.3391 90,-169 90,-169 90,-169 436.7597,-169 436.7597,-169"/>
<polygon fill="#000000" stroke="#000000" points="436.7597,-172.5001 446.7597,-169 436.7597,-165.5001 436.7597,-172.5001"/>
</g>
</g>
</svg>
