<?xml version="1.0" encoding="UTF-8" standalone="no"?>
<!DOCTYPE svg PUBLIC "-//W3C//DTD SVG 1.1//EN"
 "http://www.w3.org/Graphics/SVG/1.1/DTD/svg11.dtd">
<!-- Generated by graphviz version 2.40.1 (20161225.0304)
 -->
<!-- Title: dependencies Pages: 1 -->
<svg width="2802pt" height="284pt"
 viewBox="0.00 0.00 2802.00 284.00" xmlns="http://www.w3.org/2000/svg" xmlns:xlink="http://www.w3.org/1999/xlink">
<g id="graph0" class="graph" transform="scale(1 1) rotate(0) translate(4 280)">
<title>dependencies</title>
<polygon fill="#ffffff" stroke="transparent" points="-4,4 -4,-280 2798,-280 2798,4 -4,4"/>
<text text-anchor="start" x="1376.0091" y="-42.4" font-family="sans-serif" font-weight="bold" font-size="14.00" fill="#000000">Legend</text>
<polygon fill="#ffffb3" stroke="transparent" points="1163,-10 1163,-30 1183,-30 1183,-10 1163,-10"/>
<text text-anchor="start" x="1186.629" y="-15.4" font-family="sans-serif" font-size="14.00" fill="#000000"> &#160;Declarations</text>
<polygon fill="#8dd3c7" stroke="transparent" points="1276,-10 1276,-30 1296,-30 1296,-10 1276,-10"/>
<text text-anchor="start" x="1299.7251" y="-15.4" font-family="sans-serif" font-size="14.00" fill="#000000"> &#160;Module</text>
<polygon fill="#80b1d3" stroke="transparent" points="1362,-10 1362,-30 1382,-30 1382,-10 1362,-10"/>
<text text-anchor="start" x="1385.7812" y="-15.4" font-family="sans-serif" font-size="14.00" fill="#000000"> &#160;Bootstrap</text>
<polygon fill="#fdb462" stroke="transparent" points="1459,-10 1459,-30 1479,-30 1479,-10 1459,-10"/>
<text text-anchor="start" x="1482.6732" y="-15.4" font-family="sans-serif" font-size="14.00" fill="#000000"> &#160;Providers</text>
<polygon fill="#fb8072" stroke="transparent" points="1555,-10 1555,-30 1575,-30 1575,-10 1555,-10"/>
<text text-anchor="start" x="1578.7258" y="-15.4" font-family="sans-serif" font-size="14.00" fill="#000000"> &#160;Exports</text>
<g id="clust1" class="cluster">
<title>cluster_HelgolandMapControlModule</title>
<polygon fill="none" stroke="#000000" stroke-dasharray="1,5" points="8,-70 8,-268 2786,-268 2786,-70 8,-70"/>
</g>
<g id="clust2" class="cluster">
<title>cluster_HelgolandMapControlModule_declarations</title>
<polygon fill="none" stroke="#000000" points="503,-78 503,-130 2778,-130 2778,-78 503,-78"/>
</g>
<g id="clust13" class="cluster">
<title>cluster_HelgolandMapControlModule_imports</title>
<polygon fill="none" stroke="#000000" points="172,-78 172,-130 495,-130 495,-78 172,-78"/>
</g>
<g id="clust14" class="cluster">
<title>cluster_HelgolandMapControlModule_exports</title>
<polygon fill="none" stroke="#000000" points="153,-208 153,-260 2466,-260 2466,-208 153,-208"/>
</g>
<g id="clust16" class="cluster">
<title>cluster_HelgolandMapControlModule_providers</title>
<polygon fill="none" stroke="#000000" points="16,-78 16,-130 164,-130 164,-78 16,-78"/>
</g>
<!-- D3GeneralGraphComponent -->
<g id="node1" class="node">
<title>D3GeneralGraphComponent</title>
<polygon fill="#ffffb3" stroke="#000000" points="2769.7226,-122 2592.2774,-122 2592.2774,-86 2769.7226,-86 2769.7226,-122"/>
<text text-anchor="middle" x="2681" y="-99.8" font-family="Times,serif" font-size="14.00" fill="#000000">D3GeneralGraphComponent</text>
</g>
<!-- HelgolandMapControlModule -->
<g id="node11" class="node">
<title>HelgolandMapControlModule</title>
<polygon fill="#8dd3c7" stroke="#000000" points="1405.3046,-187 1402.3046,-191 1381.3046,-191 1378.3046,-187 1218.6954,-187 1218.6954,-151 1405.3046,-151 1405.3046,-187"/>
<text text-anchor="middle" x="1312" y="-164.8" font-family="Times,serif" font-size="14.00" fill="#000000">HelgolandMapControlModule</text>
</g>
<!-- D3GeneralGraphComponent&#45;&gt;HelgolandMapControlModule -->
<g id="edge1" class="edge">
<title>D3GeneralGraphComponent&#45;&gt;HelgolandMapControlModule</title>
<path fill="none" stroke="#000000" d="M2681,-122.308C2681,-142.1455 2681,-171 2681,-171 2681,-171 1415.2892,-171 1415.2892,-171"/>
<polygon fill="#000000" stroke="#000000" points="1415.2892,-167.5001 1405.2892,-171 1415.2892,-174.5001 1415.2892,-167.5001"/>
</g>
<!-- D3GraphCopyrightComponent -->
<g id="node2" class="node">
<title>D3GraphCopyrightComponent</title>
<polygon fill="#ffffb3" stroke="#000000" points="2574.1993,-122 2383.8007,-122 2383.8007,-86 2574.1993,-86 2574.1993,-122"/>
<text text-anchor="middle" x="2479" y="-99.8" font-family="Times,serif" font-size="14.00" fill="#000000">D3GraphCopyrightComponent</text>
</g>
<!-- D3GraphCopyrightComponent&#45;&gt;HelgolandMapControlModule -->
<g id="edge2" class="edge">
<title>D3GraphCopyrightComponent&#45;&gt;HelgolandMapControlModule</title>
<path fill="none" stroke="#000000" d="M2420.7558,-122.1686C2420.7558,-141.0898 2420.7558,-168 2420.7558,-168 2420.7558,-168 1415.5763,-168 1415.5763,-168"/>
<polygon fill="#000000" stroke="#000000" points="1415.5764,-164.5001 1405.5763,-168 1415.5763,-171.5001 1415.5764,-164.5001"/>
</g>
<!-- D3GraphHoverLineComponent -->
<g id="node3" class="node">
<title>D3GraphHoverLineComponent</title>
<polygon fill="#ffffb3" stroke="#000000" points="2366.0604,-122 2171.9396,-122 2171.9396,-86 2366.0604,-86 2366.0604,-122"/>
<text text-anchor="middle" x="2269" y="-99.8" font-family="Times,serif" font-size="14.00" fill="#000000">D3GraphHoverLineComponent</text>
</g>
<!-- D3GraphHoverLineComponent&#45;&gt;HelgolandMapControlModule -->
<g id="edge3" class="edge">
<title>D3GraphHoverLineComponent&#45;&gt;HelgolandMapControlModule</title>
<path fill="none" stroke="#000000" d="M2215.4097,-122.302C2215.4097,-140.2699 2215.4097,-165 2215.4097,-165 2215.4097,-165 1415.278,-165 1415.278,-165"/>
<polygon fill="#000000" stroke="#000000" points="1415.2781,-161.5001 1405.278,-165 1415.278,-168.5001 1415.2781,-161.5001"/>
</g>
<!-- D3GraphPanZoomInteractionComponent -->
<g id="node4" class="node">
<title>D3GraphPanZoomInteractionComponent</title>
<polygon fill="#ffffb3" stroke="#000000" points="2154.4985,-122 1905.5015,-122 1905.5015,-86 2154.4985,-86 2154.4985,-122"/>
<text text-anchor="middle" x="2030" y="-99.8" font-family="Times,serif" font-size="14.00" fill="#000000">D3GraphPanZoomInteractionComponent</text>
</g>
<!-- D3GraphPanZoomInteractionComponent&#45;&gt;HelgolandMapControlModule -->
<g id="edge4" class="edge">
<title>D3GraphPanZoomInteractionComponent&#45;&gt;HelgolandMapControlModule</title>
<path fill="none" stroke="#000000" d="M1976.2656,-122.0352C1976.2656,-138.7344 1976.2656,-161 1976.2656,-161 1976.2656,-161 1415.4132,-161 1415.4132,-161"/>
<polygon fill="#000000" stroke="#000000" points="1415.4132,-157.5001 1405.4132,-161 1415.4132,-164.5001 1415.4132,-157.5001"/>
</g>
<!-- D3OverviewTimeseriesGraphComponent -->
<g id="node5" class="node">
<title>D3OverviewTimeseriesGraphComponent</title>
<polygon fill="#ffffb3" stroke="#000000" points="1888.0324,-122 1637.9676,-122 1637.9676,-86 1888.0324,-86 1888.0324,-122"/>
<text text-anchor="middle" x="1763" y="-99.8" font-family="Times,serif" font-size="14.00" fill="#000000">D3OverviewTimeseriesGraphComponent</text>
</g>
<!-- D3OverviewTimeseriesGraphComponent&#45;&gt;HelgolandMapControlModule -->
<g id="edge5" class="edge">
<title>D3OverviewTimeseriesGraphComponent&#45;&gt;HelgolandMapControlModule</title>
<path fill="none" stroke="#000000" d="M1734.4914,-122.2819C1734.4914,-137.9478 1734.4914,-158 1734.4914,-158 1734.4914,-158 1415.2406,-158 1415.2406,-158"/>
<polygon fill="#000000" stroke="#000000" points="1415.2406,-154.5001 1405.2406,-158 1415.2405,-161.5001 1415.2406,-154.5001"/>
</g>
<!-- D3TimeseriesGraphComponent -->
<g id="node6" class="node">
<title>D3TimeseriesGraphComponent</title>
<polygon fill="#ffffb3" stroke="#000000" points="1620.3389,-122 1425.6611,-122 1425.6611,-86 1620.3389,-86 1620.3389,-122"/>
<text text-anchor="middle" x="1523" y="-99.8" font-family="Times,serif" font-size="14.00" fill="#000000">D3TimeseriesGraphComponent</text>
</g>
<!-- D3TimeseriesGraphComponent&#45;&gt;HelgolandMapControlModule -->
<g id="edge6" class="edge">
<title>D3TimeseriesGraphComponent&#45;&gt;HelgolandMapControlModule</title>
<path fill="none" stroke="#000000" d="M1493.1734,-122.1243C1493.1734,-136.7832 1493.1734,-155 1493.1734,-155 1493.1734,-155 1415.2403,-155 1415.2403,-155"/>
<polygon fill="#000000" stroke="#000000" points="1415.2403,-151.5001 1405.2403,-155 1415.2402,-158.5001 1415.2403,-151.5001"/>
</g>
<!-- D3TrajectoryGraphComponent -->
<g id="node7" class="node">
<title>D3TrajectoryGraphComponent</title>
<polygon fill="#ffffb3" stroke="#000000" points="1407.7198,-122 1216.2802,-122 1216.2802,-86 1407.7198,-86 1407.7198,-122"/>
<text text-anchor="middle" x="1312" y="-99.8" font-family="Times,serif" font-size="14.00" fill="#000000">D3TrajectoryGraphComponent</text>
</g>
<!-- D3TrajectoryGraphComponent&#45;&gt;HelgolandMapControlModule -->
<g id="edge7" class="edge">
<title>D3TrajectoryGraphComponent&#45;&gt;HelgolandMapControlModule</title>
<path fill="none" stroke="#000000" d="M1312,-122.1061C1312,-122.1061 1312,-140.991 1312,-140.991"/>
<polygon fill="#000000" stroke="#000000" points="1308.5001,-140.9909 1312,-150.991 1315.5001,-140.991 1308.5001,-140.9909"/>
</g>
<!-- D3YAxisModifierComponent -->
<g id="node8" class="node">
<title>D3YAxisModifierComponent</title>
<polygon fill="#ffffb3" stroke="#000000" points="1198.2492,-122 1013.7508,-122 1013.7508,-86 1198.2492,-86 1198.2492,-122"/>
<text text-anchor="middle" x="1106" y="-99.8" font-family="Times,serif" font-size="14.00" fill="#000000">D3YAxisModifierComponent</text>
</g>
<!-- D3YAxisModifierComponent&#45;&gt;HelgolandMapControlModule -->
<g id="edge8" class="edge">
<title>D3YAxisModifierComponent&#45;&gt;HelgolandMapControlModule</title>
<path fill="none" stroke="#000000" d="M1144.6026,-122.1243C1144.6026,-136.7832 1144.6026,-155 1144.6026,-155 1144.6026,-155 1208.5128,-155 1208.5128,-155"/>
<polygon fill="#000000" stroke="#000000" points="1208.5128,-158.5001 1218.5128,-155 1208.5128,-151.5001 1208.5128,-158.5001"/>
</g>
<!-- ExportImageButtonComponent -->
<g id="node9" class="node">
<title>ExportImageButtonComponent</title>
<polygon fill="#ffffb3" stroke="#000000" points="995.035,-122 802.965,-122 802.965,-86 995.035,-86 995.035,-122"/>
<text text-anchor="middle" x="899" y="-99.8" font-family="Times,serif" font-size="14.00" fill="#000000">ExportImageButtonComponent</text>
</g>
<!-- ExportImageButtonComponent&#45;&gt;HelgolandMapControlModule -->
<g id="edge9" class="edge">
<title>ExportImageButtonComponent&#45;&gt;HelgolandMapControlModule</title>
<path fill="none" stroke="#000000" d="M936.3287,-122.2819C936.3287,-137.9478 936.3287,-158 936.3287,-158 936.3287,-158 1208.6547,-158 1208.6547,-158"/>
<polygon fill="#000000" stroke="#000000" points="1208.6548,-161.5001 1218.6547,-158 1208.6547,-154.5001 1208.6548,-161.5001"/>
</g>
<!-- ExtendedDataD3TimeseriesGraphComponent -->
<g id="node10" class="node">
<title>ExtendedDataD3TimeseriesGraphComponent</title>
<polygon fill="#ffffb3" stroke="#000000" points="785.1376,-122 510.8624,-122 510.8624,-86 785.1376,-86 785.1376,-122"/>
<text text-anchor="middle" x="648" y="-99.8" font-family="Times,serif" font-size="14.00" fill="#000000">ExtendedDataD3TimeseriesGraphComponent</text>
</g>
<!-- ExtendedDataD3TimeseriesGraphComponent&#45;&gt;HelgolandMapControlModule -->
<g id="edge10" class="edge">
<title>ExtendedDataD3TimeseriesGraphComponent&#45;&gt;HelgolandMapControlModule</title>
<path fill="none" stroke="#000000" d="M727.9722,-122.0352C727.9722,-138.7344 727.9722,-161 727.9722,-161 727.9722,-161 1208.8133,-161 1208.8133,-161"/>
<polygon fill="#000000" stroke="#000000" points="1208.8133,-164.5001 1218.8133,-161 1208.8132,-157.5001 1208.8133,-164.5001"/>
</g>
<!-- D3GeneralGraphComponent  -->
<g id="node14" class="node">
<title>D3GeneralGraphComponent </title>
<polygon fill="#fb8072" stroke="#000000" points="2457.7225,-252 2276.2775,-252 2276.2775,-216 2457.7225,-216 2457.7225,-252"/>
<text text-anchor="middle" x="2367" y="-229.8" font-family="Times,serif" font-size="14.00" fill="#000000">D3GeneralGraphComponent </text>
</g>
<!-- HelgolandMapControlModule&#45;&gt;D3GeneralGraphComponent  -->
<g id="edge13" class="edge">
<title>HelgolandMapControlModule&#45;&gt;D3GeneralGraphComponent </title>
<path fill="none" stroke="#000000" stroke-dasharray="5,2" d="M1405.5859,-174C1655.7741,-174 2321.2095,-174 2321.2095,-174 2321.2095,-174 2321.2095,-205.998 2321.2095,-205.998"/>
<polygon fill="#000000" stroke="#000000" points="2317.7096,-205.998 2321.2095,-215.998 2324.7096,-205.9981 2317.7096,-205.998"/>
</g>
<!-- D3GraphCopyrightComponent  -->
<g id="node15" class="node">
<title>D3GraphCopyrightComponent </title>
<polygon fill="#fb8072" stroke="#000000" points="2258.6994,-252 2065.3006,-252 2065.3006,-216 2258.6994,-216 2258.6994,-252"/>
<text text-anchor="middle" x="2162" y="-229.8" font-family="Times,serif" font-size="14.00" fill="#000000">D3GraphCopyrightComponent </text>
</g>
<!-- HelgolandMapControlModule&#45;&gt;D3GraphCopyrightComponent  -->
<g id="edge14" class="edge">
<title>HelgolandMapControlModule&#45;&gt;D3GraphCopyrightComponent </title>
<path fill="none" stroke="#000000" stroke-dasharray="5,2" d="M1405.4594,-178C1616.1049,-178 2109.6997,-178 2109.6997,-178 2109.6997,-178 2109.6997,-205.973 2109.6997,-205.973"/>
<polygon fill="#000000" stroke="#000000" points="2106.1998,-205.973 2109.6997,-215.973 2113.1998,-205.973 2106.1998,-205.973"/>
</g>
<!-- D3GraphHoverLineComponent  -->
<g id="node16" class="node">
<title>D3GraphHoverLineComponent </title>
<polygon fill="#fb8072" stroke="#000000" points="2046.5609,-252 1849.4391,-252 1849.4391,-216 2046.5609,-216 2046.5609,-252"/>
<text text-anchor="middle" x="1948" y="-229.8" font-family="Times,serif" font-size="14.00" fill="#000000">D3GraphHoverLineComponent </text>
</g>
<!-- HelgolandMapControlModule&#45;&gt;D3GraphHoverLineComponent  -->
<g id="edge15" class="edge">
<title>HelgolandMapControlModule&#45;&gt;D3GraphHoverLineComponent </title>
<path fill="none" stroke="#000000" stroke-dasharray="5,2" d="M1405.1653,-181C1563.6209,-181 1868.618,-181 1868.618,-181 1868.618,-181 1868.618,-205.7604 1868.618,-205.7604"/>
<polygon fill="#000000" stroke="#000000" points="1865.1181,-205.7604 1868.618,-215.7604 1872.1181,-205.7604 1865.1181,-205.7604"/>
</g>
<!-- D3GraphPanZoomInteractionComponent  -->
<g id="node17" class="node">
<title>D3GraphPanZoomInteractionComponent </title>
<polygon fill="#fb8072" stroke="#000000" points="1830.998,-252 1579.002,-252 1579.002,-216 1830.998,-216 1830.998,-252"/>
<text text-anchor="middle" x="1705" y="-229.8" font-family="Times,serif" font-size="14.00" fill="#000000">D3GraphPanZoomInteractionComponent </text>
</g>
<!-- HelgolandMapControlModule&#45;&gt;D3GraphPanZoomInteractionComponent  -->
<g id="edge16" class="edge">
<title>HelgolandMapControlModule&#45;&gt;D3GraphPanZoomInteractionComponent </title>
<path fill="none" stroke="#000000" stroke-dasharray="5,2" d="M1405.4113,-184C1489.4208,-184 1599.7102,-184 1599.7102,-184 1599.7102,-184 1599.7102,-205.9489 1599.7102,-205.9489"/>
<polygon fill="#000000" stroke="#000000" points="1596.2103,-205.9488 1599.7102,-215.9489 1603.2103,-205.9489 1596.2103,-205.9488"/>
</g>
<!-- D3OverviewTimeseriesGraphComponent  -->
<g id="node18" class="node">
<title>D3OverviewTimeseriesGraphComponent </title>
<polygon fill="#fb8072" stroke="#000000" points="1560.5328,-252 1307.4672,-252 1307.4672,-216 1560.5328,-216 1560.5328,-252"/>
<text text-anchor="middle" x="1434" y="-229.8" font-family="Times,serif" font-size="14.00" fill="#000000">D3OverviewTimeseriesGraphComponent </text>
</g>
<!-- HelgolandMapControlModule&#45;&gt;D3OverviewTimeseriesGraphComponent  -->
<g id="edge17" class="edge">
<title>HelgolandMapControlModule&#45;&gt;D3OverviewTimeseriesGraphComponent </title>
<path fill="none" stroke="#000000" stroke-dasharray="5,2" d="M1356.193,-187.1061C1356.193,-187.1061 1356.193,-205.991 1356.193,-205.991"/>
<polygon fill="#000000" stroke="#000000" points="1352.6931,-205.9909 1356.193,-215.991 1359.6931,-205.991 1352.6931,-205.9909"/>
</g>
<!-- D3TimeseriesGraphComponent  -->
<g id="node19" class="node">
<title>D3TimeseriesGraphComponent </title>
<polygon fill="#fb8072" stroke="#000000" points="1289.3391,-252 1090.6609,-252 1090.6609,-216 1289.3391,-216 1289.3391,-252"/>
<text text-anchor="middle" x="1190" y="-229.8" font-family="Times,serif" font-size="14.00" fill="#000000">D3TimeseriesGraphComponent </text>
</g>
<!-- HelgolandMapControlModule&#45;&gt;D3TimeseriesGraphComponent  -->
<g id="edge18" class="edge">
<title>HelgolandMapControlModule&#45;&gt;D3TimeseriesGraphComponent </title>
<path fill="none" stroke="#000000" stroke-dasharray="5,2" d="M1254.0086,-187.1061C1254.0086,-187.1061 1254.0086,-205.991 1254.0086,-205.991"/>
<polygon fill="#000000" stroke="#000000" points="1250.5087,-205.9909 1254.0086,-215.991 1257.5087,-205.991 1250.5087,-205.9909"/>
</g>
<!-- D3TrajectoryGraphComponent  -->
<g id="node20" class="node">
<title>D3TrajectoryGraphComponent </title>
<polygon fill="#fb8072" stroke="#000000" points="1072.7197,-252 877.2803,-252 877.2803,-216 1072.7197,-216 1072.7197,-252"/>
<text text-anchor="middle" x="975" y="-229.8" font-family="Times,serif" font-size="14.00" fill="#000000">D3TrajectoryGraphComponent </text>
</g>
<!-- HelgolandMapControlModule&#45;&gt;D3TrajectoryGraphComponent  -->
<g id="edge19" class="edge">
<title>HelgolandMapControlModule&#45;&gt;D3TrajectoryGraphComponent </title>
<path fill="none" stroke="#000000" stroke-dasharray="5,2" d="M1218.7126,-184C1141.053,-184 1043.1177,-184 1043.1177,-184 1043.1177,-184 1043.1177,-205.9489 1043.1177,-205.9489"/>
<polygon fill="#000000" stroke="#000000" points="1039.6177,-205.9488 1043.1177,-215.9489 1046.6177,-205.9489 1039.6177,-205.9488"/>
</g>
<!-- D3YAxisModifierComponent  -->
<g id="node21" class="node">
<title>D3YAxisModifierComponent </title>
<polygon fill="#fb8072" stroke="#000000" points="859.2492,-252 670.7508,-252 670.7508,-216 859.2492,-216 859.2492,-252"/>
<text text-anchor="middle" x="765" y="-229.8" font-family="Times,serif" font-size="14.00" fill="#000000">D3YAxisModifierComponent </text>
</g>
<!-- HelgolandMapControlModule&#45;&gt;D3YAxisModifierComponent  -->
<g id="edge20" class="edge">
<title>HelgolandMapControlModule&#45;&gt;D3YAxisModifierComponent </title>
<path fill="none" stroke="#000000" stroke-dasharray="5,2" d="M1218.6742,-181C1078.776,-181 830.9287,-181 830.9287,-181 830.9287,-181 830.9287,-205.7604 830.9287,-205.7604"/>
<polygon fill="#000000" stroke="#000000" points="827.4287,-205.7604 830.9287,-215.7604 834.4287,-205.7604 827.4287,-205.7604"/>
</g>
<!-- ExportImageButtonComponent  -->
<g id="node22" class="node">
<title>ExportImageButtonComponent </title>
<polygon fill="#fb8072" stroke="#000000" points="653.0344,-252 456.9656,-252 456.9656,-216 653.0344,-216 653.0344,-252"/>
<text text-anchor="middle" x="555" y="-229.8" font-family="Times,serif" font-size="14.00" fill="#000000">ExportImageButtonComponent </text>
</g>
<!-- HelgolandMapControlModule&#45;&gt;ExportImageButtonComponent  -->
<g id="edge21" class="edge">
<title>HelgolandMapControlModule&#45;&gt;ExportImageButtonComponent </title>
<path fill="none" stroke="#000000" stroke-dasharray="5,2" d="M1218.8002,-178C1021.9943,-178 581.9742,-178 581.9742,-178 581.9742,-178 581.9742,-205.973 581.9742,-205.973"/>
<polygon fill="#000000" stroke="#000000" points="578.4743,-205.973 581.9742,-215.973 585.4743,-205.973 578.4743,-205.973"/>
</g>
<!-- ExtendedDataD3TimeseriesGraphComponent  -->
<g id="node23" class="node">
<title>ExtendedDataD3TimeseriesGraphComponent </title>
<polygon fill="#fb8072" stroke="#000000" points="438.6378,-252 161.3622,-252 161.3622,-216 438.6378,-216 438.6378,-252"/>
<text text-anchor="middle" x="300" y="-229.8" font-family="Times,serif" font-size="14.00" fill="#000000">ExtendedDataD3TimeseriesGraphComponent </text>
</g>
<!-- HelgolandMapControlModule&#45;&gt;ExtendedDataD3TimeseriesGraphComponent  -->
<g id="edge22" class="edge">
<title>HelgolandMapControlModule&#45;&gt;ExtendedDataD3TimeseriesGraphComponent </title>
<path fill="none" stroke="#000000" stroke-dasharray="5,2" d="M1218.534,-174C984.1703,-174 390.1398,-174 390.1398,-174 390.1398,-174 390.1398,-205.998 390.1398,-205.998"/>
<polygon fill="#000000" stroke="#000000" points="386.6398,-205.998 390.1398,-215.998 393.6398,-205.9981 386.6398,-205.998"/>
</g>
<!-- HelgolandCoreModule -->
<g id="node12" class="node">
<title>HelgolandCoreModule</title>
<polygon fill="#8dd3c7" stroke="#000000" points="486.5786,-122 483.5786,-126 462.5786,-126 459.5786,-122 341.4214,-122 341.4214,-86 486.5786,-86 486.5786,-122"/>
<text text-anchor="middle" x="414" y="-99.8" font-family="Times,serif" font-size="14.00" fill="#000000">HelgolandCoreModule</text>
</g>
<!-- HelgolandCoreModule&#45;&gt;HelgolandMapControlModule -->
<g id="edge11" class="edge">
<title>HelgolandCoreModule&#45;&gt;HelgolandMapControlModule</title>
<path fill="none" stroke="#000000" d="M471.7611,-122.302C471.7611,-140.2699 471.7611,-165 471.7611,-165 471.7611,-165 1208.4649,-165 1208.4649,-165"/>
<polygon fill="#000000" stroke="#000000" points="1208.4649,-168.5001 1218.4649,-165 1208.4648,-161.5001 1208.4649,-168.5001"/>
</g>
<!-- HelgolandMapModule -->
<g id="node13" class="node">
<title>HelgolandMapModule</title>
<polygon fill="#8dd3c7" stroke="#000000" points="323.5268,-122 320.5268,-126 299.5268,-126 296.5268,-122 180.4732,-122 180.4732,-86 323.5268,-86 323.5268,-122"/>
<text text-anchor="middle" x="252" y="-99.8" font-family="Times,serif" font-size="14.00" fill="#000000">HelgolandMapModule</text>
</g>
<!-- HelgolandMapModule&#45;&gt;HelgolandMapControlModule -->
<g id="edge12" class="edge">
<title>HelgolandMapModule&#45;&gt;HelgolandMapControlModule</title>
<path fill="none" stroke="#000000" d="M252,-122.1686C252,-141.0898 252,-168 252,-168 252,-168 1208.3971,-168 1208.3971,-168"/>
<polygon fill="#000000" stroke="#000000" points="1208.3971,-171.5001 1218.3971,-168 1208.397,-164.5001 1208.3971,-171.5001"/>
</g>
<!-- LocateService -->
<g id="node24" class="node">
<title>LocateService</title>
<ellipse fill="#fdb462" stroke="#000000" cx="90" cy="-104" rx="66.0281" ry="18"/>
<text text-anchor="middle" x="90" y="-99.8" font-family="Times,serif" font-size="14.00" fill="#000000">LocateService</text>
</g>
<!-- LocateService&#45;&gt;HelgolandMapControlModule -->
<g id="edge23" class="edge">
<title>LocateService&#45;&gt;HelgolandMapControlModule</title>
<path fill="none" stroke="#000000" d="M90,-122.308C90,-142.1455 90,-171 90,-171 90,-171 1208.6452,-171 1208.6452,-171"/>
<polygon fill="#000000" stroke="#000000" points="1208.6452,-174.5001 1218.6452,-171 1208.6451,-167.5001 1208.6452,-174.5001"/>
</g>
</g>
</svg>
