<?xml version="1.0" encoding="UTF-8" standalone="no"?>
<!DOCTYPE svg PUBLIC "-//W3C//DTD SVG 1.1//EN"
 "http://www.w3.org/Graphics/SVG/1.1/DTD/svg11.dtd">
<!-- Generated by graphviz version 2.40.1 (20161225.0304)
 -->
<!-- Title: dependencies Pages: 1 -->
<svg width="1054pt" height="284pt"
 viewBox="0.00 0.00 1054.00 284.00" xmlns="http://www.w3.org/2000/svg" xmlns:xlink="http://www.w3.org/1999/xlink">
<g id="graph0" class="graph" transform="scale(1 1) rotate(0) translate(4 280)">
<title>dependencies</title>
<polygon fill="#ffffff" stroke="transparent" points="-4,4 -4,-280 1050,-280 1050,4 -4,4"/>
<text text-anchor="start" x="502.0091" y="-42.4" font-family="sans-serif" font-weight="bold" font-size="14.00" fill="#000000">Legend</text>
<polygon fill="#ffffb3" stroke="transparent" points="289,-10 289,-30 309,-30 309,-10 289,-10"/>
<text text-anchor="start" x="312.629" y="-15.4" font-family="sans-serif" font-size="14.00" fill="#000000"> &#160;Declarations</text>
<polygon fill="#8dd3c7" stroke="transparent" points="402,-10 402,-30 422,-30 422,-10 402,-10"/>
<text text-anchor="start" x="425.7251" y="-15.4" font-family="sans-serif" font-size="14.00" fill="#000000"> &#160;Module</text>
<polygon fill="#80b1d3" stroke="transparent" points="488,-10 488,-30 508,-30 508,-10 488,-10"/>
<text text-anchor="start" x="511.7812" y="-15.4" font-family="sans-serif" font-size="14.00" fill="#000000"> &#160;Bootstrap</text>
<polygon fill="#fdb462" stroke="transparent" points="585,-10 585,-30 605,-30 605,-10 585,-10"/>
<text text-anchor="start" x="608.6732" y="-15.4" font-family="sans-serif" font-size="14.00" fill="#000000"> &#160;Providers</text>
<polygon fill="#fb8072" stroke="transparent" points="681,-10 681,-30 701,-30 701,-10 681,-10"/>
<text text-anchor="start" x="704.7258" y="-15.4" font-family="sans-serif" font-size="14.00" fill="#000000"> &#160;Exports</text>
<g id="clust1" class="cluster">
<title>cluster_HelgolandMapControlModule</title>
<polygon fill="none" stroke="#000000" stroke-dasharray="1,5" points="8,-70 8,-268 1038,-268 1038,-70 8,-70"/>
</g>
<g id="clust2" class="cluster">
<title>cluster_HelgolandMapControlModule_declarations</title>
<polygon fill="none" stroke="#000000" points="503,-78 503,-130 1030,-130 1030,-78 503,-78"/>
</g>
<g id="clust6" class="cluster">
<title>cluster_HelgolandMapControlModule_imports</title>
<polygon fill="none" stroke="#000000" points="172,-78 172,-130 495,-130 495,-78 172,-78"/>
</g>
<g id="clust7" class="cluster">
<title>cluster_HelgolandMapControlModule_exports</title>
<polygon fill="none" stroke="#000000" points="229,-208 229,-260 767,-260 767,-208 229,-208"/>
</g>
<g id="clust9" class="cluster">
<title>cluster_HelgolandMapControlModule_providers</title>
<polygon fill="none" stroke="#000000" points="16,-78 16,-130 164,-130 164,-78 16,-78"/>
</g>
<!-- BoolTogglerComponent -->
<g id="node1" class="node">
<title>BoolTogglerComponent</title>
<polygon fill="#ffffb3" stroke="#000000" points="1022.378,-122 869.622,-122 869.622,-86 1022.378,-86 1022.378,-122"/>
<text text-anchor="middle" x="946" y="-99.8" font-family="Times,serif" font-size="14.00" fill="#000000">BoolTogglerComponent</text>
</g>
<!-- HelgolandMapControlModule -->
<g id="node4" class="node">
<title>HelgolandMapControlModule</title>
<polygon fill="#8dd3c7" stroke="#000000" points="595.3046,-187 592.3046,-191 571.3046,-191 568.3046,-187 408.6954,-187 408.6954,-151 595.3046,-151 595.3046,-187"/>
<text text-anchor="middle" x="502" y="-164.8" font-family="Times,serif" font-size="14.00" fill="#000000">HelgolandMapControlModule</text>
</g>
<!-- BoolTogglerComponent&#45;&gt;HelgolandMapControlModule -->
<g id="edge1" class="edge">
<title>BoolTogglerComponent&#45;&gt;HelgolandMapControlModule</title>
<path fill="none" stroke="#000000" d="M946,-122.2843C946,-143.3211 946,-175 946,-175 946,-175 605.3476,-175 605.3476,-175"/>
<polygon fill="#000000" stroke="#000000" points="605.3476,-171.5001 595.3476,-175 605.3475,-178.5001 605.3476,-171.5001"/>
</g>
<!-- RefreshButtonComponent -->
<g id="node2" class="node">
<title>RefreshButtonComponent</title>
<polygon fill="#ffffb3" stroke="#000000" points="851.4818,-122 688.5182,-122 688.5182,-86 851.4818,-86 851.4818,-122"/>
<text text-anchor="middle" x="770" y="-99.8" font-family="Times,serif" font-size="14.00" fill="#000000">RefreshButtonComponent</text>
</g>
<!-- RefreshButtonComponent&#45;&gt;HelgolandMapControlModule -->
<g id="edge2" class="edge">
<title>RefreshButtonComponent&#45;&gt;HelgolandMapControlModule</title>
<path fill="none" stroke="#000000" d="M723.8491,-122.0225C723.8491,-139.3734 723.8491,-163 723.8491,-163 723.8491,-163 605.441,-163 605.441,-163"/>
<polygon fill="#000000" stroke="#000000" points="605.441,-159.5001 595.441,-163 605.441,-166.5001 605.441,-159.5001"/>
</g>
<!-- StringTogglerComponent -->
<g id="node3" class="node">
<title>StringTogglerComponent</title>
<polygon fill="#ffffb3" stroke="#000000" points="670.8752,-122 511.1248,-122 511.1248,-86 670.8752,-86 670.8752,-122"/>
<text text-anchor="middle" x="591" y="-99.8" font-family="Times,serif" font-size="14.00" fill="#000000">StringTogglerComponent</text>
</g>
<!-- StringTogglerComponent&#45;&gt;HelgolandMapControlModule -->
<g id="edge3" class="edge">
<title>StringTogglerComponent&#45;&gt;HelgolandMapControlModule</title>
<path fill="none" stroke="#000000" d="M553.1073,-122.1061C553.1073,-122.1061 553.1073,-140.991 553.1073,-140.991"/>
<polygon fill="#000000" stroke="#000000" points="549.6074,-140.9909 553.1073,-150.991 556.6074,-140.991 549.6074,-140.9909"/>
</g>
<!-- BoolTogglerComponent  -->
<g id="node7" class="node">
<title>BoolTogglerComponent </title>
<polygon fill="#fb8072" stroke="#000000" points="759.3785,-252 602.6215,-252 602.6215,-216 759.3785,-216 759.3785,-252"/>
<text text-anchor="middle" x="681" y="-229.8" font-family="Times,serif" font-size="14.00" fill="#000000">BoolTogglerComponent </text>
</g>
<!-- HelgolandMapControlModule&#45;&gt;BoolTogglerComponent  -->
<g id="edge6" class="edge">
<title>HelgolandMapControlModule&#45;&gt;BoolTogglerComponent </title>
<path fill="none" stroke="#000000" stroke-dasharray="5,2" d="M590.1966,-187.1061C590.1966,-206.3391 590.1966,-234 590.1966,-234 590.1966,-234 592.4427,-234 592.4427,-234"/>
<polygon fill="#000000" stroke="#000000" points="592.4427,-237.5001 602.4427,-234 592.4427,-230.5001 592.4427,-237.5001"/>
</g>
<!-- RefreshButtonComponent  -->
<g id="node8" class="node">
<title>RefreshButtonComponent </title>
<polygon fill="#fb8072" stroke="#000000" points="585.4825,-252 418.5175,-252 418.5175,-216 585.4825,-216 585.4825,-252"/>
<text text-anchor="middle" x="502" y="-229.8" font-family="Times,serif" font-size="14.00" fill="#000000">RefreshButtonComponent </text>
</g>
<!-- HelgolandMapControlModule&#45;&gt;RefreshButtonComponent  -->
<g id="edge7" class="edge">
<title>HelgolandMapControlModule&#45;&gt;RefreshButtonComponent </title>
<path fill="none" stroke="#000000" stroke-dasharray="5,2" d="M502,-187.1061C502,-187.1061 502,-205.991 502,-205.991"/>
<polygon fill="#000000" stroke="#000000" points="498.5001,-205.9909 502,-215.991 505.5001,-205.991 498.5001,-205.9909"/>
</g>
<!-- StringTogglerComponent  -->
<g id="node9" class="node">
<title>StringTogglerComponent </title>
<polygon fill="#fb8072" stroke="#000000" points="400.8756,-252 237.1244,-252 237.1244,-216 400.8756,-216 400.8756,-252"/>
<text text-anchor="middle" x="319" y="-229.8" font-family="Times,serif" font-size="14.00" fill="#000000">StringTogglerComponent </text>
</g>
<!-- HelgolandMapControlModule&#45;&gt;StringTogglerComponent  -->
<g id="edge8" class="edge">
<title>HelgolandMapControlModule&#45;&gt;StringTogglerComponent </title>
<path fill="none" stroke="#000000" stroke-dasharray="5,2" d="M413.8035,-187.1061C413.8035,-206.3391 413.8035,-234 413.8035,-234 413.8035,-234 411.0178,-234 411.0178,-234"/>
<polygon fill="#000000" stroke="#000000" points="411.0179,-230.5001 401.0178,-234 411.0178,-237.5001 411.0179,-230.5001"/>
</g>
<!-- HelgolandCoreModule -->
<g id="node5" class="node">
<title>HelgolandCoreModule</title>
<polygon fill="#8dd3c7" stroke="#000000" points="486.5786,-122 483.5786,-126 462.5786,-126 459.5786,-122 341.4214,-122 341.4214,-86 486.5786,-86 486.5786,-122"/>
<text text-anchor="middle" x="414" y="-99.8" font-family="Times,serif" font-size="14.00" fill="#000000">HelgolandCoreModule</text>
</g>
<!-- HelgolandCoreModule&#45;&gt;HelgolandMapControlModule -->
<g id="edge4" class="edge">
<title>HelgolandCoreModule&#45;&gt;HelgolandMapControlModule</title>
<path fill="none" stroke="#000000" d="M447.6936,-122.1061C447.6936,-122.1061 447.6936,-140.991 447.6936,-140.991"/>
<polygon fill="#000000" stroke="#000000" points="444.1936,-140.9909 447.6936,-150.991 451.1936,-140.991 444.1936,-140.9909"/>
</g>
<!-- HelgolandMapModule -->
<g id="node6" class="node">
<title>HelgolandMapModule</title>
<polygon fill="#8dd3c7" stroke="#000000" points="323.5268,-122 320.5268,-126 299.5268,-126 296.5268,-122 180.4732,-122 180.4732,-86 323.5268,-86 323.5268,-122"/>
<text text-anchor="middle" x="252" y="-99.8" font-family="Times,serif" font-size="14.00" fill="#000000">HelgolandMapModule</text>
</g>
<!-- HelgolandMapModule&#45;&gt;HelgolandMapControlModule -->
<g id="edge5" class="edge">
<title>HelgolandMapModule&#45;&gt;HelgolandMapControlModule</title>
<path fill="none" stroke="#000000" d="M280.5377,-122.0225C280.5377,-139.3734 280.5377,-163 280.5377,-163 280.5377,-163 398.7219,-163 398.7219,-163"/>
<polygon fill="#000000" stroke="#000000" points="398.7219,-166.5001 408.7219,-163 398.7219,-159.5001 398.7219,-166.5001"/>
</g>
<!-- LocateService -->
<g id="node10" class="node">
<title>LocateService</title>
<ellipse fill="#fdb462" stroke="#000000" cx="90" cy="-104" rx="66.0281" ry="18"/>
<text text-anchor="middle" x="90" y="-99.8" font-family="Times,serif" font-size="14.00" fill="#000000">LocateService</text>
</g>
<!-- LocateService&#45;&gt;HelgolandMapControlModule -->
<g id="edge9" class="edge">
<title>LocateService&#45;&gt;HelgolandMapControlModule</title>
<path fill="none" stroke="#000000" d="M90,-122.2843C90,-143.3211 90,-175 90,-175 90,-175 398.7682,-175 398.7682,-175"/>
<polygon fill="#000000" stroke="#000000" points="398.7683,-178.5001 408.7682,-175 398.7682,-171.5001 398.7683,-178.5001"/>
</g>
</g>
</svg>
