<?xml version="1.0" encoding="UTF-8" standalone="no"?>
<!DOCTYPE svg PUBLIC "-//W3C//DTD SVG 1.1//EN"
 "http://www.w3.org/Graphics/SVG/1.1/DTD/svg11.dtd">
<!-- Generated by graphviz version 2.40.1 (20161225.0304)
 -->
<!-- Title: dependencies Pages: 1 -->
<svg width="1260pt" height="284pt"
 viewBox="0.00 0.00 1260.00 284.00" xmlns="http://www.w3.org/2000/svg" xmlns:xlink="http://www.w3.org/1999/xlink">
<g id="graph0" class="graph" transform="scale(1 1) rotate(0) translate(4 280)">
<title>dependencies</title>
<polygon fill="#ffffff" stroke="transparent" points="-4,4 -4,-280 1256,-280 1256,4 -4,4"/>
<text text-anchor="start" x="605.0091" y="-42.4" font-family="sans-serif" font-weight="bold" font-size="14.00" fill="#000000">Legend</text>
<polygon fill="#ffffb3" stroke="transparent" points="392,-10 392,-30 412,-30 412,-10 392,-10"/>
<text text-anchor="start" x="415.629" y="-15.4" font-family="sans-serif" font-size="14.00" fill="#000000"> &#160;Declarations</text>
<polygon fill="#8dd3c7" stroke="transparent" points="505,-10 505,-30 525,-30 525,-10 505,-10"/>
<text text-anchor="start" x="528.7251" y="-15.4" font-family="sans-serif" font-size="14.00" fill="#000000"> &#160;Module</text>
<polygon fill="#80b1d3" stroke="transparent" points="591,-10 591,-30 611,-30 611,-10 591,-10"/>
<text text-anchor="start" x="614.7812" y="-15.4" font-family="sans-serif" font-size="14.00" fill="#000000"> &#160;Bootstrap</text>
<polygon fill="#fdb462" stroke="transparent" points="688,-10 688,-30 708,-30 708,-10 688,-10"/>
<text text-anchor="start" x="711.6732" y="-15.4" font-family="sans-serif" font-size="14.00" fill="#000000"> &#160;Providers</text>
<polygon fill="#fb8072" stroke="transparent" points="784,-10 784,-30 804,-30 804,-10 784,-10"/>
<text text-anchor="start" x="807.7258" y="-15.4" font-family="sans-serif" font-size="14.00" fill="#000000"> &#160;Exports</text>
<g id="clust1" class="cluster">
<title>cluster_HelgolandMapControlModule</title>
<polygon fill="none" stroke="#000000" stroke-dasharray="1,5" points="8,-70 8,-268 1244,-268 1244,-70 8,-70"/>
</g>
<g id="clust2" class="cluster">
<title>cluster_HelgolandMapControlModule_declarations</title>
<polygon fill="none" stroke="#000000" points="503,-78 503,-130 1236,-130 1236,-78 503,-78"/>
</g>
<g id="clust7" class="cluster">
<title>cluster_HelgolandMapControlModule_imports</title>
<polygon fill="none" stroke="#000000" points="172,-78 172,-130 495,-130 495,-78 172,-78"/>
</g>
<g id="clust8" class="cluster">
<title>cluster_HelgolandMapControlModule_exports</title>
<polygon fill="none" stroke="#000000" points="212,-208 212,-260 959,-260 959,-208 212,-208"/>
</g>
<g id="clust10" class="cluster">
<title>cluster_HelgolandMapControlModule_providers</title>
<polygon fill="none" stroke="#000000" points="16,-78 16,-130 164,-130 164,-78 16,-78"/>
</g>
<!-- LocateControlComponent -->
<g id="node1" class="node">
<title>LocateControlComponent</title>
<polygon fill="#ffffb3" stroke="#000000" points="1228.1979,-122 1065.8021,-122 1065.8021,-86 1228.1979,-86 1228.1979,-122"/>
<text text-anchor="middle" x="1147" y="-99.8" font-family="Times,serif" font-size="14.00" fill="#000000">LocateControlComponent</text>
</g>
<!-- HelgolandMapControlModule -->
<g id="node5" class="node">
<title>HelgolandMapControlModule</title>
<polygon fill="#8dd3c7" stroke="#000000" points="684.3046,-187 681.3046,-191 660.3046,-191 657.3046,-187 497.6954,-187 497.6954,-151 684.3046,-151 684.3046,-187"/>
<text text-anchor="middle" x="591" y="-164.8" font-family="Times,serif" font-size="14.00" fill="#000000">HelgolandMapControlModule</text>
</g>
<!-- LocateControlComponent&#45;&gt;HelgolandMapControlModule -->
<g id="edge1" class="edge">
<title>LocateControlComponent&#45;&gt;HelgolandMapControlModule</title>
<path fill="none" stroke="#000000" d="M1147,-122.1061C1147,-141.3391 1147,-169 1147,-169 1147,-169 694.3753,-169 694.3753,-169"/>
<polygon fill="#000000" stroke="#000000" points="694.3753,-165.5001 684.3753,-169 694.3753,-172.5001 694.3753,-165.5001"/>
</g>
<!-- ZoomControlComponent -->
<g id="node2" class="node">
<title>ZoomControlComponent</title>
<polygon fill="#ffffb3" stroke="#000000" points="1047.5546,-122 890.4454,-122 890.4454,-86 1047.5546,-86 1047.5546,-122"/>
<text text-anchor="middle" x="969" y="-99.8" font-family="Times,serif" font-size="14.00" fill="#000000">ZoomControlComponent</text>
</g>
<!-- ZoomControlComponent&#45;&gt;HelgolandMapControlModule -->
<g id="edge2" class="edge">
<title>ZoomControlComponent&#45;&gt;HelgolandMapControlModule</title>
<path fill="none" stroke="#000000" d="M920.536,-122.027C920.536,-138.3976 920.536,-160 920.536,-160 920.536,-160 694.5503,-160 694.5503,-160"/>
<polygon fill="#000000" stroke="#000000" points="694.5503,-156.5001 684.5503,-160 694.5503,-163.5001 694.5503,-156.5001"/>
</g>
<!-- GeosearchControlComponent -->
<g id="node3" class="node">
<title>GeosearchControlComponent</title>
<polygon fill="#ffffb3" stroke="#000000" points="872.6811,-122 689.3189,-122 689.3189,-86 872.6811,-86 872.6811,-122"/>
<text text-anchor="middle" x="781" y="-99.8" font-family="Times,serif" font-size="14.00" fill="#000000">GeosearchControlComponent</text>
</g>
<!-- GeosearchControlComponent&#45;&gt;HelgolandMapControlModule -->
<g id="edge3" class="edge">
<title>GeosearchControlComponent&#45;&gt;HelgolandMapControlModule</title>
<path fill="none" stroke="#000000" d="M689.186,-104C682.1668,-104 677.7409,-104 677.7409,-104 677.7409,-104 677.7409,-140.8939 677.7409,-140.8939"/>
<polygon fill="#000000" stroke="#000000" points="674.241,-140.8938 677.7409,-150.8939 681.241,-140.8939 674.241,-140.8938"/>
</g>
<!-- ExtentControlComponent -->
<g id="node4" class="node">
<title>ExtentControlComponent</title>
<polygon fill="#ffffb3" stroke="#000000" points="671.1596,-122 510.8404,-122 510.8404,-86 671.1596,-86 671.1596,-122"/>
<text text-anchor="middle" x="591" y="-99.8" font-family="Times,serif" font-size="14.00" fill="#000000">ExtentControlComponent</text>
</g>
<!-- ExtentControlComponent&#45;&gt;HelgolandMapControlModule -->
<g id="edge4" class="edge">
<title>ExtentControlComponent&#45;&gt;HelgolandMapControlModule</title>
<path fill="none" stroke="#000000" d="M591,-122.1061C591,-122.1061 591,-140.991 591,-140.991"/>
<polygon fill="#000000" stroke="#000000" points="587.5001,-140.9909 591,-150.991 594.5001,-140.991 587.5001,-140.9909"/>
</g>
<!-- LocateControlComponent  -->
<g id="node8" class="node">
<title>LocateControlComponent </title>
<polygon fill="#fb8072" stroke="#000000" points="950.6981,-252 785.3019,-252 785.3019,-216 950.6981,-216 950.6981,-252"/>
<text text-anchor="middle" x="868" y="-229.8" font-family="Times,serif" font-size="14.00" fill="#000000">LocateControlComponent </text>
</g>
<!-- HelgolandMapControlModule&#45;&gt;LocateControlComponent  -->
<g id="edge7" class="edge">
<title>HelgolandMapControlModule&#45;&gt;LocateControlComponent </title>
<path fill="none" stroke="#000000" stroke-dasharray="5,2" d="M684.3301,-178C750.971,-178 828.8708,-178 828.8708,-178 828.8708,-178 828.8708,-205.973 828.8708,-205.973"/>
<polygon fill="#000000" stroke="#000000" points="825.3709,-205.973 828.8708,-215.973 832.3709,-205.973 825.3709,-205.973"/>
</g>
<!-- ZoomControlComponent  -->
<g id="node9" class="node">
<title>ZoomControlComponent </title>
<polygon fill="#fb8072" stroke="#000000" points="767.554,-252 606.446,-252 606.446,-216 767.554,-216 767.554,-252"/>
<text text-anchor="middle" x="687" y="-229.8" font-family="Times,serif" font-size="14.00" fill="#000000">ZoomControlComponent </text>
</g>
<!-- HelgolandMapControlModule&#45;&gt;ZoomControlComponent  -->
<g id="edge8" class="edge">
<title>HelgolandMapControlModule&#45;&gt;ZoomControlComponent </title>
<path fill="none" stroke="#000000" stroke-dasharray="5,2" d="M645.3126,-187.1061C645.3126,-187.1061 645.3126,-205.991 645.3126,-205.991"/>
<polygon fill="#000000" stroke="#000000" points="641.8127,-205.9909 645.3126,-215.991 648.8127,-205.991 641.8127,-205.9909"/>
</g>
<!-- GeosearchControlComponent  -->
<g id="node10" class="node">
<title>GeosearchControlComponent </title>
<polygon fill="#fb8072" stroke="#000000" points="588.1813,-252 401.8187,-252 401.8187,-216 588.1813,-216 588.1813,-252"/>
<text text-anchor="middle" x="495" y="-229.8" font-family="Times,serif" font-size="14.00" fill="#000000">GeosearchControlComponent </text>
</g>
<!-- HelgolandMapControlModule&#45;&gt;GeosearchControlComponent  -->
<g id="edge9" class="edge">
<title>HelgolandMapControlModule&#45;&gt;GeosearchControlComponent </title>
<path fill="none" stroke="#000000" stroke-dasharray="5,2" d="M543.0942,-187.1061C543.0942,-187.1061 543.0942,-205.991 543.0942,-205.991"/>
<polygon fill="#000000" stroke="#000000" points="539.5942,-205.9909 543.0942,-215.991 546.5942,-205.991 539.5942,-205.9909"/>
</g>
<!-- ExtentControlComponent  -->
<g id="node11" class="node">
<title>ExtentControlComponent </title>
<polygon fill="#fb8072" stroke="#000000" points="384.1593,-252 219.8407,-252 219.8407,-216 384.1593,-216 384.1593,-252"/>
<text text-anchor="middle" x="302" y="-229.8" font-family="Times,serif" font-size="14.00" fill="#000000">ExtentControlComponent </text>
</g>
<!-- HelgolandMapControlModule&#45;&gt;ExtentControlComponent  -->
<g id="edge10" class="edge">
<title>HelgolandMapControlModule&#45;&gt;ExtentControlComponent </title>
<path fill="none" stroke="#000000" stroke-dasharray="5,2" d="M497.841,-178C434.733,-178 362.7702,-178 362.7701,-178 362.7701,-178 362.7701,-205.973 362.7701,-205.973"/>
<polygon fill="#000000" stroke="#000000" points="359.2702,-205.973 362.7701,-215.973 366.2702,-205.973 359.2702,-205.973"/>
</g>
<!-- HelgolandCoreModule -->
<g id="node6" class="node">
<title>HelgolandCoreModule</title>
<polygon fill="#8dd3c7" stroke="#000000" points="486.5786,-122 483.5786,-126 462.5786,-126 459.5786,-122 341.4214,-122 341.4214,-86 486.5786,-86 486.5786,-122"/>
<text text-anchor="middle" x="414" y="-99.8" font-family="Times,serif" font-size="14.00" fill="#000000">HelgolandCoreModule</text>
</g>
<!-- HelgolandCoreModule&#45;&gt;HelgolandMapControlModule -->
<g id="edge5" class="edge">
<title>HelgolandCoreModule&#45;&gt;HelgolandMapControlModule</title>
<path fill="none" stroke="#000000" d="M486.8562,-104C497.1195,-104 504.2591,-104 504.2591,-104 504.2591,-104 504.2591,-140.8939 504.2591,-140.8939"/>
<polygon fill="#000000" stroke="#000000" points="500.7592,-140.8938 504.2591,-150.8939 507.7592,-140.8939 500.7592,-140.8938"/>
</g>
<!-- HelgolandMapModule -->
<g id="node7" class="node">
<title>HelgolandMapModule</title>
<polygon fill="#8dd3c7" stroke="#000000" points="323.5268,-122 320.5268,-126 299.5268,-126 296.5268,-122 180.4732,-122 180.4732,-86 323.5268,-86 323.5268,-122"/>
<text text-anchor="middle" x="252" y="-99.8" font-family="Times,serif" font-size="14.00" fill="#000000">HelgolandMapModule</text>
</g>
<!-- HelgolandMapModule&#45;&gt;HelgolandMapControlModule -->
<g id="edge6" class="edge">
<title>HelgolandMapModule&#45;&gt;HelgolandMapControlModule</title>
<path fill="none" stroke="#000000" d="M271.8417,-122.027C271.8417,-138.3976 271.8417,-160 271.8417,-160 271.8417,-160 487.8282,-160 487.8282,-160"/>
<polygon fill="#000000" stroke="#000000" points="487.8283,-163.5001 497.8282,-160 487.8282,-156.5001 487.8283,-163.5001"/>
</g>
<!-- LocateService -->
<g id="node12" class="node">
<title>LocateService</title>
<ellipse fill="#fdb462" stroke="#000000" cx="90" cy="-104" rx="66.0281" ry="18"/>
<text text-anchor="middle" x="90" y="-99.8" font-family="Times,serif" font-size="14.00" fill="#000000">LocateService</text>
</g>
<!-- LocateService&#45;&gt;HelgolandMapControlModule -->
<g id="edge11" class="edge">
<title>LocateService&#45;&gt;HelgolandMapControlModule</title>
<path fill="none" stroke="#000000" d="M90,-122.1061C90,-141.3391 90,-169 90,-169 90,-169 487.6468,-169 487.6468,-169"/>
<polygon fill="#000000" stroke="#000000" points="487.6469,-172.5001 497.6468,-169 487.6468,-165.5001 487.6469,-172.5001"/>
</g>
</g>
</svg>
