<?xml version="1.0" encoding="UTF-8" standalone="no"?>
<!DOCTYPE svg PUBLIC "-//W3C//DTD SVG 1.1//EN"
 "http://www.w3.org/Graphics/SVG/1.1/DTD/svg11.dtd">
<!-- Generated by graphviz version 2.40.1 (20161225.0304)
 -->
<!-- Title: dependencies Pages: 1 -->
<svg width="740pt" height="284pt"
 viewBox="0.00 0.00 740.00 284.00" xmlns="http://www.w3.org/2000/svg" xmlns:xlink="http://www.w3.org/1999/xlink">
<g id="graph0" class="graph" transform="scale(1 1) rotate(0) translate(4 280)">
<title>dependencies</title>
<polygon fill="#ffffff" stroke="transparent" points="-4,4 -4,-280 736,-280 736,4 -4,4"/>
<text text-anchor="start" x="345.0091" y="-42.4" font-family="sans-serif" font-weight="bold" font-size="14.00" fill="#000000">Legend</text>
<polygon fill="#ffffb3" stroke="transparent" points="132,-10 132,-30 152,-30 152,-10 132,-10"/>
<text text-anchor="start" x="155.629" y="-15.4" font-family="sans-serif" font-size="14.00" fill="#000000"> &#160;Declarations</text>
<polygon fill="#8dd3c7" stroke="transparent" points="245,-10 245,-30 265,-30 265,-10 245,-10"/>
<text text-anchor="start" x="268.7251" y="-15.4" font-family="sans-serif" font-size="14.00" fill="#000000"> &#160;Module</text>
<polygon fill="#80b1d3" stroke="transparent" points="331,-10 331,-30 351,-30 351,-10 331,-10"/>
<text text-anchor="start" x="354.7812" y="-15.4" font-family="sans-serif" font-size="14.00" fill="#000000"> &#160;Bootstrap</text>
<polygon fill="#fdb462" stroke="transparent" points="428,-10 428,-30 448,-30 448,-10 428,-10"/>
<text text-anchor="start" x="451.6732" y="-15.4" font-family="sans-serif" font-size="14.00" fill="#000000"> &#160;Providers</text>
<polygon fill="#fb8072" stroke="transparent" points="524,-10 524,-30 544,-30 544,-10 524,-10"/>
<text text-anchor="start" x="547.7258" y="-15.4" font-family="sans-serif" font-size="14.00" fill="#000000"> &#160;Exports</text>
<g id="clust1" class="cluster">
<title>cluster_HelgolandMapControlModule</title>
<polygon fill="none" stroke="#000000" stroke-dasharray="1,5" points="8,-70 8,-268 724,-268 724,-70 8,-70"/>
</g>
<g id="clust2" class="cluster">
<title>cluster_HelgolandMapControlModule_declarations</title>
<polygon fill="none" stroke="#000000" points="362,-78 362,-130 716,-130 716,-78 362,-78"/>
</g>
<g id="clust5" class="cluster">
<title>cluster_HelgolandMapControlModule_imports</title>
<polygon fill="none" stroke="#000000" points="172,-78 172,-130 354,-130 354,-78 172,-78"/>
</g>
<g id="clust6" class="cluster">
<title>cluster_HelgolandMapControlModule_exports</title>
<polygon fill="none" stroke="#000000" points="95,-208 95,-260 456,-260 456,-208 95,-208"/>
</g>
<g id="clust8" class="cluster">
<title>cluster_HelgolandMapControlModule_providers</title>
<polygon fill="none" stroke="#000000" points="16,-78 16,-130 164,-130 164,-78 16,-78"/>
</g>
<!-- LocateControlComponent -->
<g id="node1" class="node">
<title>LocateControlComponent</title>
<polygon fill="#ffffb3" stroke="#000000" points="708.1979,-122 545.8021,-122 545.8021,-86 708.1979,-86 708.1979,-122"/>
<text text-anchor="middle" x="627" y="-99.8" font-family="Times,serif" font-size="14.00" fill="#000000">LocateControlComponent</text>
</g>
<!-- HelgolandMapControlModule -->
<g id="node3" class="node">
<title>HelgolandMapControlModule</title>
<polygon fill="#8dd3c7" stroke="#000000" points="407.3046,-187 404.3046,-191 383.3046,-191 380.3046,-187 220.6954,-187 220.6954,-151 407.3046,-151 407.3046,-187"/>
<text text-anchor="middle" x="314" y="-164.8" font-family="Times,serif" font-size="14.00" fill="#000000">HelgolandMapControlModule</text>
</g>
<!-- LocateControlComponent&#45;&gt;HelgolandMapControlModule -->
<g id="edge1" class="edge">
<title>LocateControlComponent&#45;&gt;HelgolandMapControlModule</title>
<path fill="none" stroke="#000000" d="M627,-122.1061C627,-141.3391 627,-169 627,-169 627,-169 417.4864,-169 417.4864,-169"/>
<polygon fill="#000000" stroke="#000000" points="417.4864,-165.5001 407.4864,-169 417.4863,-172.5001 417.4864,-165.5001"/>
</g>
<!-- ZoomControlComponent -->
<g id="node2" class="node">
<title>ZoomControlComponent</title>
<polygon fill="#ffffb3" stroke="#000000" points="527.5546,-122 370.4454,-122 370.4454,-86 527.5546,-86 527.5546,-122"/>
<text text-anchor="middle" x="449" y="-99.8" font-family="Times,serif" font-size="14.00" fill="#000000">ZoomControlComponent</text>
</g>
<!-- ZoomControlComponent&#45;&gt;HelgolandMapControlModule -->
<g id="edge2" class="edge">
<title>ZoomControlComponent&#45;&gt;HelgolandMapControlModule</title>
<path fill="none" stroke="#000000" d="M388.6876,-122.1061C388.6876,-122.1061 388.6876,-140.991 388.6876,-140.991"/>
<polygon fill="#000000" stroke="#000000" points="385.1877,-140.9909 388.6876,-150.991 392.1877,-140.991 385.1877,-140.9909"/>
</g>
<!-- LocateControlComponent  -->
<g id="node5" class="node">
<title>LocateControlComponent </title>
<polygon fill="#fb8072" stroke="#000000" points="447.6981,-252 282.3019,-252 282.3019,-216 447.6981,-216 447.6981,-252"/>
<text text-anchor="middle" x="365" y="-229.8" font-family="Times,serif" font-size="14.00" fill="#000000">LocateControlComponent </text>
</g>
<!-- HelgolandMapControlModule&#45;&gt;LocateControlComponent  -->
<g id="edge4" class="edge">
<title>HelgolandMapControlModule&#45;&gt;LocateControlComponent </title>
<path fill="none" stroke="#000000" stroke-dasharray="5,2" d="M344.6517,-187.1061C344.6517,-187.1061 344.6517,-205.991 344.6517,-205.991"/>
<polygon fill="#000000" stroke="#000000" points="341.1517,-205.9909 344.6517,-215.991 348.1517,-205.991 341.1517,-205.9909"/>
</g>
<!-- ZoomControlComponent  -->
<g id="node6" class="node">
<title>ZoomControlComponent </title>
<polygon fill="#fb8072" stroke="#000000" points="264.554,-252 103.446,-252 103.446,-216 264.554,-216 264.554,-252"/>
<text text-anchor="middle" x="184" y="-229.8" font-family="Times,serif" font-size="14.00" fill="#000000">ZoomControlComponent </text>
</g>
<!-- HelgolandMapControlModule&#45;&gt;ZoomControlComponent  -->
<g id="edge5" class="edge">
<title>HelgolandMapControlModule&#45;&gt;ZoomControlComponent </title>
<path fill="none" stroke="#000000" stroke-dasharray="5,2" d="M242.6874,-187.1061C242.6874,-187.1061 242.6874,-205.991 242.6874,-205.991"/>
<polygon fill="#000000" stroke="#000000" points="239.1875,-205.9909 242.6874,-215.991 246.1875,-205.991 239.1875,-205.9909"/>
</g>
<!-- HelgolandServicesModule -->
<g id="node4" class="node">
<title>HelgolandServicesModule</title>
<polygon fill="#8dd3c7" stroke="#000000" points="345.7893,-122 342.7893,-126 321.7893,-126 318.7893,-122 180.2107,-122 180.2107,-86 345.7893,-86 345.7893,-122"/>
<text text-anchor="middle" x="263" y="-99.8" font-family="Times,serif" font-size="14.00" fill="#000000">HelgolandServicesModule</text>
</g>
<!-- HelgolandServicesModule&#45;&gt;HelgolandMapControlModule -->
<g id="edge3" class="edge">
<title>HelgolandServicesModule&#45;&gt;HelgolandMapControlModule</title>
<path fill="none" stroke="#000000" d="M283.2462,-122.1061C283.2462,-122.1061 283.2462,-140.991 283.2462,-140.991"/>
<polygon fill="#000000" stroke="#000000" points="279.7462,-140.9909 283.2462,-150.991 286.7462,-140.991 279.7462,-140.9909"/>
</g>
<!-- LocateService -->
<g id="node7" class="node">
<title>LocateService</title>
<ellipse fill="#fdb462" stroke="#000000" cx="90" cy="-104" rx="66.0281" ry="18"/>
<text text-anchor="middle" x="90" y="-99.8" font-family="Times,serif" font-size="14.00" fill="#000000">LocateService</text>
</g>
<!-- LocateService&#45;&gt;HelgolandMapControlModule -->
<g id="edge6" class="edge">
<title>LocateService&#45;&gt;HelgolandMapControlModule</title>
<path fill="none" stroke="#000000" d="M129.8683,-118.4256C129.8683,-137.5751 129.8683,-169 129.8683,-169 129.8683,-169 210.5856,-169 210.5856,-169"/>
<polygon fill="#000000" stroke="#000000" points="210.5856,-172.5001 220.5856,-169 210.5855,-165.5001 210.5856,-172.5001"/>
</g>
</g>
</svg>
