<?xml version="1.0" encoding="UTF-8" standalone="no"?>
<!DOCTYPE svg PUBLIC "-//W3C//DTD SVG 1.1//EN"
 "http://www.w3.org/Graphics/SVG/1.1/DTD/svg11.dtd">
<!-- Generated by graphviz version 2.40.1 (20161225.0304)
 -->
<!-- Title: dependencies Pages: 1 -->
<svg width="1999pt" height="284pt"
 viewBox="0.00 0.00 1999.00 284.00" xmlns="http://www.w3.org/2000/svg" xmlns:xlink="http://www.w3.org/1999/xlink">
<g id="graph0" class="graph" transform="scale(1 1) rotate(0) translate(4 280)">
<title>dependencies</title>
<polygon fill="#ffffff" stroke="transparent" points="-4,4 -4,-280 1995,-280 1995,4 -4,4"/>
<text text-anchor="start" x="974.5091" y="-42.4" font-family="sans-serif" font-weight="bold" font-size="14.00" fill="#000000">Legend</text>
<polygon fill="#ffffb3" stroke="transparent" points="761.5,-10 761.5,-30 781.5,-30 781.5,-10 761.5,-10"/>
<text text-anchor="start" x="785.129" y="-15.4" font-family="sans-serif" font-size="14.00" fill="#000000"> &#160;Declarations</text>
<polygon fill="#8dd3c7" stroke="transparent" points="874.5,-10 874.5,-30 894.5,-30 894.5,-10 874.5,-10"/>
<text text-anchor="start" x="898.2251" y="-15.4" font-family="sans-serif" font-size="14.00" fill="#000000"> &#160;Module</text>
<polygon fill="#80b1d3" stroke="transparent" points="960.5,-10 960.5,-30 980.5,-30 980.5,-10 960.5,-10"/>
<text text-anchor="start" x="984.2812" y="-15.4" font-family="sans-serif" font-size="14.00" fill="#000000"> &#160;Bootstrap</text>
<polygon fill="#fdb462" stroke="transparent" points="1057.5,-10 1057.5,-30 1077.5,-30 1077.5,-10 1057.5,-10"/>
<text text-anchor="start" x="1081.1732" y="-15.4" font-family="sans-serif" font-size="14.00" fill="#000000"> &#160;Providers</text>
<polygon fill="#fb8072" stroke="transparent" points="1153.5,-10 1153.5,-30 1173.5,-30 1173.5,-10 1153.5,-10"/>
<text text-anchor="start" x="1177.2258" y="-15.4" font-family="sans-serif" font-size="14.00" fill="#000000"> &#160;Exports</text>
<g id="clust1" class="cluster">
<title>cluster_HelgolandCoreModule</title>
<polygon fill="none" stroke="#000000" stroke-dasharray="1,5" points="8,-70 8,-268 1983,-268 1983,-70 8,-70"/>
</g>
<g id="clust2" class="cluster">
<title>cluster_HelgolandCoreModule_declarations</title>
<polygon fill="none" stroke="#000000" points="1751,-78 1751,-130 1975,-130 1975,-78 1751,-78"/>
</g>
<g id="clust6" class="cluster">
<title>cluster_HelgolandCoreModule_exports</title>
<polygon fill="none" stroke="#000000" points="915,-208 915,-260 1147,-260 1147,-208 915,-208"/>
</g>
<g id="clust8" class="cluster">
<title>cluster_HelgolandCoreModule_providers</title>
<polygon fill="none" stroke="#000000" points="16,-78 16,-130 1743,-130 1743,-78 16,-78"/>
</g>
<!-- MatchLabelPipe -->
<g id="node1" class="node">
<title>MatchLabelPipe</title>
<polygon fill="#ffffb3" stroke="#000000" points="1967.0256,-122 1858.9744,-122 1858.9744,-86 1967.0256,-86 1967.0256,-122"/>
<text text-anchor="middle" x="1913" y="-99.8" font-family="Times,serif" font-size="14.00" fill="#000000">MatchLabelPipe</text>
</g>
<!-- HelgolandCoreModule -->
<g id="node3" class="node">
<title>HelgolandCoreModule</title>
<polygon fill="#8dd3c7" stroke="#000000" points="1097.5786,-187 1094.5786,-191 1073.5786,-191 1070.5786,-187 952.4214,-187 952.4214,-151 1097.5786,-151 1097.5786,-187"/>
<text text-anchor="middle" x="1025" y="-164.8" font-family="Times,serif" font-size="14.00" fill="#000000">HelgolandCoreModule</text>
</g>
<!-- MatchLabelPipe&#45;&gt;HelgolandCoreModule -->
<g id="edge1" class="edge">
<title>MatchLabelPipe&#45;&gt;HelgolandCoreModule</title>
<path fill="none" stroke="#000000" d="M1913,-122.2479C1913,-145.0179 1913,-181 1913,-181 1913,-181 1107.6688,-181 1107.6688,-181"/>
<polygon fill="#000000" stroke="#000000" points="1107.6688,-177.5001 1097.6688,-181 1107.6687,-184.5001 1107.6688,-177.5001"/>
</g>
<!-- TzDatePipe -->
<g id="node2" class="node">
<title>TzDatePipe</title>
<polygon fill="#ffffb3" stroke="#000000" points="1841.0814,-122 1758.9186,-122 1758.9186,-86 1841.0814,-86 1841.0814,-122"/>
<text text-anchor="middle" x="1800" y="-99.8" font-family="Times,serif" font-size="14.00" fill="#000000">TzDatePipe</text>
</g>
<!-- TzDatePipe&#45;&gt;HelgolandCoreModule -->
<g id="edge2" class="edge">
<title>TzDatePipe&#45;&gt;HelgolandCoreModule</title>
<path fill="none" stroke="#000000" d="M1800,-122.2843C1800,-143.3211 1800,-175 1800,-175 1800,-175 1107.5618,-175 1107.5618,-175"/>
<polygon fill="#000000" stroke="#000000" points="1107.5618,-171.5001 1097.5618,-175 1107.5618,-178.5001 1107.5618,-171.5001"/>
</g>
<!-- MatchLabelPipe  -->
<g id="node4" class="node">
<title>MatchLabelPipe </title>
<polygon fill="#fb8072" stroke="#000000" points="1139.0246,-252 1026.9754,-252 1026.9754,-216 1139.0246,-216 1139.0246,-252"/>
<text text-anchor="middle" x="1083" y="-229.8" font-family="Times,serif" font-size="14.00" fill="#000000">MatchLabelPipe </text>
</g>
<!-- HelgolandCoreModule&#45;&gt;MatchLabelPipe  -->
<g id="edge3" class="edge">
<title>HelgolandCoreModule&#45;&gt;MatchLabelPipe </title>
<path fill="none" stroke="#000000" stroke-dasharray="5,2" d="M1062.2635,-187.1061C1062.2635,-187.1061 1062.2635,-205.991 1062.2635,-205.991"/>
<polygon fill="#000000" stroke="#000000" points="1058.7636,-205.9909 1062.2635,-215.991 1065.7636,-205.991 1058.7636,-205.9909"/>
</g>
<!-- TzDatePipe  -->
<g id="node5" class="node">
<title>TzDatePipe </title>
<polygon fill="#fb8072" stroke="#000000" points="1008.5824,-252 923.4176,-252 923.4176,-216 1008.5824,-216 1008.5824,-252"/>
<text text-anchor="middle" x="966" y="-229.8" font-family="Times,serif" font-size="14.00" fill="#000000">TzDatePipe </text>
</g>
<!-- HelgolandCoreModule&#45;&gt;TzDatePipe  -->
<g id="edge4" class="edge">
<title>HelgolandCoreModule&#45;&gt;TzDatePipe </title>
<path fill="none" stroke="#000000" stroke-dasharray="5,2" d="M980.6257,-187.1061C980.6257,-187.1061 980.6257,-205.991 980.6257,-205.991"/>
<polygon fill="#000000" stroke="#000000" points="977.1258,-205.9909 980.6257,-215.991 984.1258,-205.991 977.1258,-205.9909"/>
</g>
<!-- ColorService -->
<g id="node6" class="node">
<title>ColorService</title>
<ellipse fill="#fdb462" stroke="#000000" cx="1673" cy="-104" rx="61.975" ry="18"/>
<text text-anchor="middle" x="1673" y="-99.8" font-family="Times,serif" font-size="14.00" fill="#000000">ColorService</text>
</g>
<!-- ColorService&#45;&gt;HelgolandCoreModule -->
<g id="edge5" class="edge">
<title>ColorService&#45;&gt;HelgolandCoreModule</title>
<path fill="none" stroke="#000000" d="M1673,-122.1061C1673,-141.3391 1673,-169 1673,-169 1673,-169 1107.7607,-169 1107.7607,-169"/>
<polygon fill="#000000" stroke="#000000" points="1107.7607,-165.5001 1097.7607,-169 1107.7606,-172.5001 1107.7607,-165.5001"/>
</g>
<!-- DatasetApiMapping -->
<g id="node7" class="node">
<title>DatasetApiMapping</title>
<ellipse fill="#fdb462" stroke="#000000" cx="1504" cy="-104" rx="89.1858" ry="18"/>
<text text-anchor="middle" x="1504" y="-99.8" font-family="Times,serif" font-size="14.00" fill="#000000">DatasetApiMapping</text>
</g>
<!-- DatasetApiMapping&#45;&gt;HelgolandCoreModule -->
<g id="edge6" class="edge">
<title>DatasetApiMapping&#45;&gt;HelgolandCoreModule</title>
<path fill="none" stroke="#000000" d="M1504,-122.0225C1504,-139.3734 1504,-163 1504,-163 1504,-163 1107.7498,-163 1107.7498,-163"/>
<polygon fill="#000000" stroke="#000000" points="1107.7498,-159.5001 1097.7498,-163 1107.7498,-166.5001 1107.7498,-159.5001"/>
</g>
<!-- DefinedTimespanService -->
<g id="node8" class="node">
<title>DefinedTimespanService</title>
<ellipse fill="#fdb462" stroke="#000000" cx="1287" cy="-104" rx="109.3468" ry="18"/>
<text text-anchor="middle" x="1287" y="-99.8" font-family="Times,serif" font-size="14.00" fill="#000000">DefinedTimespanService</text>
</g>
<!-- DefinedTimespanService&#45;&gt;HelgolandCoreModule -->
<g id="edge7" class="edge">
<title>DefinedTimespanService&#45;&gt;HelgolandCoreModule</title>
<path fill="none" stroke="#000000" d="M1287,-122.2396C1287,-137.5706 1287,-157 1287,-157 1287,-157 1107.6337,-157 1107.6337,-157"/>
<polygon fill="#000000" stroke="#000000" points="1107.6337,-153.5001 1097.6337,-157 1107.6336,-160.5001 1107.6337,-153.5001"/>
</g>
<!-- HttpService -->
<g id="node9" class="node">
<title>HttpService</title>
<ellipse fill="#fdb462" stroke="#000000" cx="1103" cy="-104" rx="57.3185" ry="18"/>
<text text-anchor="middle" x="1103" y="-99.8" font-family="Times,serif" font-size="14.00" fill="#000000">HttpService</text>
</g>
<!-- HttpService&#45;&gt;HelgolandCoreModule -->
<g id="edge8" class="edge">
<title>HttpService&#45;&gt;HelgolandCoreModule</title>
<path fill="none" stroke="#000000" d="M1071.6901,-119.0757C1071.6901,-119.0757 1071.6901,-140.7642 1071.6901,-140.7642"/>
<polygon fill="#000000" stroke="#000000" points="1068.1902,-140.7642 1071.6901,-150.7642 1075.1902,-140.7642 1068.1902,-140.7642"/>
</g>
<!-- InternalIdHandler -->
<g id="node10" class="node">
<title>InternalIdHandler</title>
<ellipse fill="#fdb462" stroke="#000000" cx="948" cy="-104" rx="80.4151" ry="18"/>
<text text-anchor="middle" x="948" y="-99.8" font-family="Times,serif" font-size="14.00" fill="#000000">InternalIdHandler</text>
</g>
<!-- InternalIdHandler&#45;&gt;HelgolandCoreModule -->
<g id="edge9" class="edge">
<title>InternalIdHandler&#45;&gt;HelgolandCoreModule</title>
<path fill="none" stroke="#000000" d="M990.334,-119.4041C990.334,-119.4041 990.334,-140.9397 990.334,-140.9397"/>
<polygon fill="#000000" stroke="#000000" points="986.8341,-140.9397 990.334,-150.9397 993.8341,-140.9398 986.8341,-140.9397"/>
</g>
<!-- LocalStorage -->
<g id="node11" class="node">
<title>LocalStorage</title>
<ellipse fill="#fdb462" stroke="#000000" cx="787" cy="-104" rx="62.5373" ry="18"/>
<text text-anchor="middle" x="787" y="-99.8" font-family="Times,serif" font-size="14.00" fill="#000000">LocalStorage</text>
</g>
<!-- LocalStorage&#45;&gt;HelgolandCoreModule -->
<g id="edge10" class="edge">
<title>LocalStorage&#45;&gt;HelgolandCoreModule</title>
<path fill="none" stroke="#000000" d="M787,-122.2396C787,-137.5706 787,-157 787,-157 787,-157 942.2989,-157 942.2989,-157"/>
<polygon fill="#000000" stroke="#000000" points="942.299,-160.5001 952.2989,-157 942.2989,-153.5001 942.299,-160.5001"/>
</g>
<!-- NotifierService -->
<g id="node12" class="node">
<title>NotifierService</title>
<ellipse fill="#fdb462" stroke="#000000" cx="636" cy="-104" rx="70.6181" ry="18"/>
<text text-anchor="middle" x="636" y="-99.8" font-family="Times,serif" font-size="14.00" fill="#000000">NotifierService</text>
</g>
<!-- NotifierService&#45;&gt;HelgolandCoreModule -->
<g id="edge11" class="edge">
<title>NotifierService&#45;&gt;HelgolandCoreModule</title>
<path fill="none" stroke="#000000" d="M636,-122.0225C636,-139.3734 636,-163 636,-163 636,-163 942.2884,-163 942.2884,-163"/>
<polygon fill="#000000" stroke="#000000" points="942.2884,-166.5001 952.2884,-163 942.2884,-159.5001 942.2884,-166.5001"/>
</g>
<!-- StatusIntervalResolverService -->
<g id="node13" class="node">
<title>StatusIntervalResolverService</title>
<ellipse fill="#fdb462" stroke="#000000" cx="419" cy="-104" rx="127.9005" ry="18"/>
<text text-anchor="middle" x="419" y="-99.8" font-family="Times,serif" font-size="14.00" fill="#000000">StatusIntervalResolverService</text>
</g>
<!-- StatusIntervalResolverService&#45;&gt;HelgolandCoreModule -->
<g id="edge12" class="edge">
<title>StatusIntervalResolverService&#45;&gt;HelgolandCoreModule</title>
<path fill="none" stroke="#000000" d="M419,-122.1061C419,-141.3391 419,-169 419,-169 419,-169 942.2034,-169 942.2034,-169"/>
<polygon fill="#000000" stroke="#000000" points="942.2035,-172.5001 952.2034,-169 942.2034,-165.5001 942.2035,-172.5001"/>
</g>
<!-- SumValuesService -->
<g id="node14" class="node">
<title>SumValuesService</title>
<ellipse fill="#fdb462" stroke="#000000" cx="189" cy="-104" rx="84.5266" ry="18"/>
<text text-anchor="middle" x="189" y="-99.8" font-family="Times,serif" font-size="14.00" fill="#000000">SumValuesService</text>
</g>
<!-- SumValuesService&#45;&gt;HelgolandCoreModule -->
<g id="edge13" class="edge">
<title>SumValuesService&#45;&gt;HelgolandCoreModule</title>
<path fill="none" stroke="#000000" d="M189,-122.2843C189,-143.3211 189,-175 189,-175 189,-175 942.2729,-175 942.2729,-175"/>
<polygon fill="#000000" stroke="#000000" points="942.273,-178.5001 952.2729,-175 942.2729,-171.5001 942.273,-178.5001"/>
</g>
<!-- Time -->
<g id="node15" class="node">
<title>Time</title>
<ellipse fill="#fdb462" stroke="#000000" cx="55" cy="-104" rx="31.3371" ry="18"/>
<text text-anchor="middle" x="55" y="-99.8" font-family="Times,serif" font-size="14.00" fill="#000000">Time</text>
</g>
<!-- Time&#45;&gt;HelgolandCoreModule -->
<g id="edge14" class="edge">
<title>Time&#45;&gt;HelgolandCoreModule</title>
<path fill="none" stroke="#000000" d="M55,-122.2479C55,-145.0179 55,-181 55,-181 55,-181 942.0923,-181 942.0923,-181"/>
<polygon fill="#000000" stroke="#000000" points="942.0924,-184.5001 952.0923,-181 942.0923,-177.5001 942.0924,-184.5001"/>
</g>
</g>
</svg>
