<?xml version="1.0" encoding="UTF-8" standalone="no"?>
<!DOCTYPE svg PUBLIC "-//W3C//DTD SVG 1.1//EN"
 "http://www.w3.org/Graphics/SVG/1.1/DTD/svg11.dtd">
<!-- Generated by graphviz version 2.40.1 (20161225.0304)
 -->
<!-- Title: dependencies Pages: 1 -->
<svg width="1759pt" height="284pt"
 viewBox="0.00 0.00 1759.00 284.00" xmlns="http://www.w3.org/2000/svg" xmlns:xlink="http://www.w3.org/1999/xlink">
<g id="graph0" class="graph" transform="scale(1 1) rotate(0) translate(4 280)">
<title>dependencies</title>
<polygon fill="#ffffff" stroke="transparent" points="-4,4 -4,-280 1755,-280 1755,4 -4,4"/>
<text text-anchor="start" x="854.5091" y="-42.4" font-family="sans-serif" font-weight="bold" font-size="14.00" fill="#000000">Legend</text>
<polygon fill="#ffffb3" stroke="transparent" points="641.5,-10 641.5,-30 661.5,-30 661.5,-10 641.5,-10"/>
<text text-anchor="start" x="665.129" y="-15.4" font-family="sans-serif" font-size="14.00" fill="#000000"> &#160;Declarations</text>
<polygon fill="#8dd3c7" stroke="transparent" points="754.5,-10 754.5,-30 774.5,-30 774.5,-10 754.5,-10"/>
<text text-anchor="start" x="778.2251" y="-15.4" font-family="sans-serif" font-size="14.00" fill="#000000"> &#160;Module</text>
<polygon fill="#80b1d3" stroke="transparent" points="840.5,-10 840.5,-30 860.5,-30 860.5,-10 840.5,-10"/>
<text text-anchor="start" x="864.2812" y="-15.4" font-family="sans-serif" font-size="14.00" fill="#000000"> &#160;Bootstrap</text>
<polygon fill="#fdb462" stroke="transparent" points="937.5,-10 937.5,-30 957.5,-30 957.5,-10 937.5,-10"/>
<text text-anchor="start" x="961.1732" y="-15.4" font-family="sans-serif" font-size="14.00" fill="#000000"> &#160;Providers</text>
<polygon fill="#fb8072" stroke="transparent" points="1033.5,-10 1033.5,-30 1053.5,-30 1053.5,-10 1033.5,-10"/>
<text text-anchor="start" x="1057.2258" y="-15.4" font-family="sans-serif" font-size="14.00" fill="#000000"> &#160;Exports</text>
<g id="clust1" class="cluster">
<title>cluster_HelgolandCoreModule</title>
<polygon fill="none" stroke="#000000" stroke-dasharray="1,5" points="8,-70 8,-268 1743,-268 1743,-70 8,-70"/>
</g>
<g id="clust2" class="cluster">
<title>cluster_HelgolandCoreModule_declarations</title>
<polygon fill="none" stroke="#000000" points="1619,-78 1619,-130 1735,-130 1735,-78 1619,-78"/>
</g>
<g id="clust5" class="cluster">
<title>cluster_HelgolandCoreModule_exports</title>
<polygon fill="none" stroke="#000000" points="807,-208 807,-260 927,-260 927,-208 807,-208"/>
</g>
<g id="clust7" class="cluster">
<title>cluster_HelgolandCoreModule_providers</title>
<polygon fill="none" stroke="#000000" points="16,-78 16,-130 1611,-130 1611,-78 16,-78"/>
</g>
<!-- DateProxyPipe -->
<g id="node1" class="node">
<title>DateProxyPipe</title>
<polygon fill="#ffffb3" stroke="#000000" points="1727.2577,-122 1626.7423,-122 1626.7423,-86 1727.2577,-86 1727.2577,-122"/>
<text text-anchor="middle" x="1677" y="-99.8" font-family="Times,serif" font-size="14.00" fill="#000000">DateProxyPipe</text>
</g>
<!-- HelgolandCoreModule -->
<g id="node2" class="node">
<title>HelgolandCoreModule</title>
<polygon fill="#8dd3c7" stroke="#000000" points="939.5786,-187 936.5786,-191 915.5786,-191 912.5786,-187 794.4214,-187 794.4214,-151 939.5786,-151 939.5786,-187"/>
<text text-anchor="middle" x="867" y="-164.8" font-family="Times,serif" font-size="14.00" fill="#000000">HelgolandCoreModule</text>
</g>
<!-- DateProxyPipe&#45;&gt;HelgolandCoreModule -->
<g id="edge1" class="edge">
<title>DateProxyPipe&#45;&gt;HelgolandCoreModule</title>
<path fill="none" stroke="#000000" d="M1677,-122.0109C1677,-144.4852 1677,-180 1677,-180 1677,-180 949.5949,-180 949.5949,-180"/>
<polygon fill="#000000" stroke="#000000" points="949.595,-176.5001 939.5949,-180 949.5949,-183.5001 949.595,-176.5001"/>
</g>
<!-- DateProxyPipe  -->
<g id="node3" class="node">
<title>DateProxyPipe </title>
<polygon fill="#fb8072" stroke="#000000" points="919.2577,-252 814.7423,-252 814.7423,-216 919.2577,-216 919.2577,-252"/>
<text text-anchor="middle" x="867" y="-229.8" font-family="Times,serif" font-size="14.00" fill="#000000">DateProxyPipe </text>
</g>
<!-- HelgolandCoreModule&#45;&gt;DateProxyPipe  -->
<g id="edge2" class="edge">
<title>HelgolandCoreModule&#45;&gt;DateProxyPipe </title>
<path fill="none" stroke="#000000" stroke-dasharray="5,2" d="M867,-187.1061C867,-187.1061 867,-205.991 867,-205.991"/>
<polygon fill="#000000" stroke="#000000" points="863.5001,-205.9909 867,-215.991 870.5001,-205.991 863.5001,-205.9909"/>
</g>
<!-- ColorService -->
<g id="node4" class="node">
<title>ColorService</title>
<ellipse fill="#fdb462" stroke="#000000" cx="1541" cy="-104" rx="61.975" ry="18"/>
<text text-anchor="middle" x="1541" y="-99.8" font-family="Times,serif" font-size="14.00" fill="#000000">ColorService</text>
</g>
<!-- ColorService&#45;&gt;HelgolandCoreModule -->
<g id="edge3" class="edge">
<title>ColorService&#45;&gt;HelgolandCoreModule</title>
<path fill="none" stroke="#000000" d="M1541,-122.1289C1541,-142.5724 1541,-173 1541,-173 1541,-173 949.7702,-173 949.7702,-173"/>
<polygon fill="#000000" stroke="#000000" points="949.7702,-169.5001 939.7702,-173 949.7702,-176.5001 949.7702,-169.5001"/>
</g>
<!-- DatasetApiMapping -->
<g id="node5" class="node">
<title>DatasetApiMapping</title>
<ellipse fill="#fdb462" stroke="#000000" cx="1372" cy="-104" rx="89.1858" ry="18"/>
<text text-anchor="middle" x="1372" y="-99.8" font-family="Times,serif" font-size="14.00" fill="#000000">DatasetApiMapping</text>
</g>
<!-- DatasetApiMapping&#45;&gt;HelgolandCoreModule -->
<g id="edge4" class="edge">
<title>DatasetApiMapping&#45;&gt;HelgolandCoreModule</title>
<path fill="none" stroke="#000000" d="M1372,-122.2667C1372,-140.5552 1372,-166 1372,-166 1372,-166 949.6229,-166 949.6229,-166"/>
<polygon fill="#000000" stroke="#000000" points="949.6229,-162.5001 939.6229,-166 949.6229,-169.5001 949.6229,-162.5001"/>
</g>
<!-- DefinedTimespanService -->
<g id="node6" class="node">
<title>DefinedTimespanService</title>
<ellipse fill="#fdb462" stroke="#000000" cx="1155" cy="-104" rx="109.3468" ry="18"/>
<text text-anchor="middle" x="1155" y="-99.8" font-family="Times,serif" font-size="14.00" fill="#000000">DefinedTimespanService</text>
</g>
<!-- DefinedTimespanService&#45;&gt;HelgolandCoreModule -->
<g id="edge5" class="edge">
<title>DefinedTimespanService&#45;&gt;HelgolandCoreModule</title>
<path fill="none" stroke="#000000" d="M1155,-122.0091C1155,-138.0494 1155,-159 1155,-159 1155,-159 949.6746,-159 949.6746,-159"/>
<polygon fill="#000000" stroke="#000000" points="949.6746,-155.5001 939.6746,-159 949.6745,-162.5001 949.6746,-155.5001"/>
</g>
<!-- InternalIdHandler -->
<g id="node7" class="node">
<title>InternalIdHandler</title>
<ellipse fill="#fdb462" stroke="#000000" cx="948" cy="-104" rx="80.4151" ry="18"/>
<text text-anchor="middle" x="948" y="-99.8" font-family="Times,serif" font-size="14.00" fill="#000000">InternalIdHandler</text>
</g>
<!-- InternalIdHandler&#45;&gt;HelgolandCoreModule -->
<g id="edge6" class="edge">
<title>InternalIdHandler&#45;&gt;HelgolandCoreModule</title>
<path fill="none" stroke="#000000" d="M903.666,-119.0757C903.666,-119.0757 903.666,-140.7642 903.666,-140.7642"/>
<polygon fill="#000000" stroke="#000000" points="900.1661,-140.7642 903.666,-150.7642 907.1661,-140.7642 900.1661,-140.7642"/>
</g>
<!-- LocalStorage -->
<g id="node8" class="node">
<title>LocalStorage</title>
<ellipse fill="#fdb462" stroke="#000000" cx="787" cy="-104" rx="62.5373" ry="18"/>
<text text-anchor="middle" x="787" y="-99.8" font-family="Times,serif" font-size="14.00" fill="#000000">LocalStorage</text>
</g>
<!-- LocalStorage&#45;&gt;HelgolandCoreModule -->
<g id="edge7" class="edge">
<title>LocalStorage&#45;&gt;HelgolandCoreModule</title>
<path fill="none" stroke="#000000" d="M821.9897,-119.0757C821.9897,-119.0757 821.9897,-140.7642 821.9897,-140.7642"/>
<polygon fill="#000000" stroke="#000000" points="818.4898,-140.7642 821.9897,-150.7642 825.4898,-140.7642 818.4898,-140.7642"/>
</g>
<!-- NotifierService -->
<g id="node9" class="node">
<title>NotifierService</title>
<ellipse fill="#fdb462" stroke="#000000" cx="636" cy="-104" rx="70.6181" ry="18"/>
<text text-anchor="middle" x="636" y="-99.8" font-family="Times,serif" font-size="14.00" fill="#000000">NotifierService</text>
</g>
<!-- NotifierService&#45;&gt;HelgolandCoreModule -->
<g id="edge8" class="edge">
<title>NotifierService&#45;&gt;HelgolandCoreModule</title>
<path fill="none" stroke="#000000" d="M636,-122.0091C636,-138.0494 636,-159 636,-159 636,-159 784.2272,-159 784.2272,-159"/>
<polygon fill="#000000" stroke="#000000" points="784.2273,-162.5001 794.2272,-159 784.2272,-155.5001 784.2273,-162.5001"/>
</g>
<!-- StatusIntervalResolverService -->
<g id="node10" class="node">
<title>StatusIntervalResolverService</title>
<ellipse fill="#fdb462" stroke="#000000" cx="419" cy="-104" rx="127.9005" ry="18"/>
<text text-anchor="middle" x="419" y="-99.8" font-family="Times,serif" font-size="14.00" fill="#000000">StatusIntervalResolverService</text>
</g>
<!-- StatusIntervalResolverService&#45;&gt;HelgolandCoreModule -->
<g id="edge9" class="edge">
<title>StatusIntervalResolverService&#45;&gt;HelgolandCoreModule</title>
<path fill="none" stroke="#000000" d="M419,-122.2667C419,-140.5552 419,-166 419,-166 419,-166 784.024,-166 784.024,-166"/>
<polygon fill="#000000" stroke="#000000" points="784.024,-169.5001 794.024,-166 784.0239,-162.5001 784.024,-169.5001"/>
</g>
<!-- SumValuesService -->
<g id="node11" class="node">
<title>SumValuesService</title>
<ellipse fill="#fdb462" stroke="#000000" cx="189" cy="-104" rx="84.5266" ry="18"/>
<text text-anchor="middle" x="189" y="-99.8" font-family="Times,serif" font-size="14.00" fill="#000000">SumValuesService</text>
</g>
<!-- SumValuesService&#45;&gt;HelgolandCoreModule -->
<g id="edge10" class="edge">
<title>SumValuesService&#45;&gt;HelgolandCoreModule</title>
<path fill="none" stroke="#000000" d="M189,-122.1289C189,-142.5724 189,-173 189,-173 189,-173 784.4421,-173 784.4421,-173"/>
<polygon fill="#000000" stroke="#000000" points="784.4422,-176.5001 794.4421,-173 784.4421,-169.5001 784.4422,-176.5001"/>
</g>
<!-- Time -->
<g id="node12" class="node">
<title>Time</title>
<ellipse fill="#fdb462" stroke="#000000" cx="55" cy="-104" rx="31.3371" ry="18"/>
<text text-anchor="middle" x="55" y="-99.8" font-family="Times,serif" font-size="14.00" fill="#000000">Time</text>
</g>
<!-- Time&#45;&gt;HelgolandCoreModule -->
<g id="edge11" class="edge">
<title>Time&#45;&gt;HelgolandCoreModule</title>
<path fill="none" stroke="#000000" d="M55,-122.0109C55,-144.4852 55,-180 55,-180 55,-180 784.2258,-180 784.2258,-180"/>
<polygon fill="#000000" stroke="#000000" points="784.2258,-183.5001 794.2258,-180 784.2258,-176.5001 784.2258,-183.5001"/>
</g>
</g>
</svg>
