<?xml version="1.0" encoding="UTF-8" standalone="no"?>
<!DOCTYPE svg PUBLIC "-//W3C//DTD SVG 1.1//EN"
 "http://www.w3.org/Graphics/SVG/1.1/DTD/svg11.dtd">
<!-- Generated by graphviz version 2.40.1 (20161225.0304)
 -->
<!-- Title: dependencies Pages: 1 -->
<svg width="1298pt" height="284pt"
 viewBox="0.00 0.00 1298.00 284.00" xmlns="http://www.w3.org/2000/svg" xmlns:xlink="http://www.w3.org/1999/xlink">
<g id="graph0" class="graph" transform="scale(1 1) rotate(0) translate(4 280)">
<title>dependencies</title>
<polygon fill="#ffffff" stroke="transparent" points="-4,4 -4,-280 1294,-280 1294,4 -4,4"/>
<text text-anchor="start" x="624.0091" y="-42.4" font-family="sans-serif" font-weight="bold" font-size="14.00" fill="#000000">Legend</text>
<polygon fill="#ffffb3" stroke="transparent" points="411,-10 411,-30 431,-30 431,-10 411,-10"/>
<text text-anchor="start" x="434.629" y="-15.4" font-family="sans-serif" font-size="14.00" fill="#000000"> &#160;Declarations</text>
<polygon fill="#8dd3c7" stroke="transparent" points="524,-10 524,-30 544,-30 544,-10 524,-10"/>
<text text-anchor="start" x="547.7251" y="-15.4" font-family="sans-serif" font-size="14.00" fill="#000000"> &#160;Module</text>
<polygon fill="#80b1d3" stroke="transparent" points="610,-10 610,-30 630,-30 630,-10 610,-10"/>
<text text-anchor="start" x="633.7812" y="-15.4" font-family="sans-serif" font-size="14.00" fill="#000000"> &#160;Bootstrap</text>
<polygon fill="#fdb462" stroke="transparent" points="707,-10 707,-30 727,-30 727,-10 707,-10"/>
<text text-anchor="start" x="730.6732" y="-15.4" font-family="sans-serif" font-size="14.00" fill="#000000"> &#160;Providers</text>
<polygon fill="#fb8072" stroke="transparent" points="803,-10 803,-30 823,-30 823,-10 803,-10"/>
<text text-anchor="start" x="826.7258" y="-15.4" font-family="sans-serif" font-size="14.00" fill="#000000"> &#160;Exports</text>
<g id="clust1" class="cluster">
<title>cluster_HelgolandCoreModule</title>
<polygon fill="none" stroke="#000000" stroke-dasharray="1,5" points="8,-70 8,-268 1282,-268 1282,-70 8,-70"/>
</g>
<g id="clust2" class="cluster">
<title>cluster_HelgolandCoreModule_declarations</title>
<polygon fill="none" stroke="#000000" points="1158,-78 1158,-130 1274,-130 1274,-78 1158,-78"/>
</g>
<g id="clust5" class="cluster">
<title>cluster_HelgolandCoreModule_exports</title>
<polygon fill="none" stroke="#000000" points="530,-208 530,-260 650,-260 650,-208 530,-208"/>
</g>
<g id="clust7" class="cluster">
<title>cluster_HelgolandCoreModule_providers</title>
<polygon fill="none" stroke="#000000" points="16,-78 16,-130 1150,-130 1150,-78 16,-78"/>
</g>
<!-- DateProxyPipe -->
<g id="node1" class="node">
<title>DateProxyPipe</title>
<polygon fill="#ffffb3" stroke="#000000" points="1266.2577,-122 1165.7423,-122 1165.7423,-86 1266.2577,-86 1266.2577,-122"/>
<text text-anchor="middle" x="1216" y="-99.8" font-family="Times,serif" font-size="14.00" fill="#000000">DateProxyPipe</text>
</g>
<!-- HelgolandCoreModule -->
<g id="node2" class="node">
<title>HelgolandCoreModule</title>
<polygon fill="#8dd3c7" stroke="#000000" points="662.5786,-187 659.5786,-191 638.5786,-191 635.5786,-187 517.4214,-187 517.4214,-151 662.5786,-151 662.5786,-187"/>
<text text-anchor="middle" x="590" y="-164.8" font-family="Times,serif" font-size="14.00" fill="#000000">HelgolandCoreModule</text>
</g>
<!-- DateProxyPipe&#45;&gt;HelgolandCoreModule -->
<g id="edge1" class="edge">
<title>DateProxyPipe&#45;&gt;HelgolandCoreModule</title>
<path fill="none" stroke="#000000" d="M1216,-122.2921C1216,-144.2057 1216,-178 1216,-178 1216,-178 672.7282,-178 672.7282,-178"/>
<polygon fill="#000000" stroke="#000000" points="672.7283,-174.5001 662.7282,-178 672.7282,-181.5001 672.7283,-174.5001"/>
</g>
<!-- DateProxyPipe  -->
<g id="node3" class="node">
<title>DateProxyPipe </title>
<polygon fill="#fb8072" stroke="#000000" points="642.2577,-252 537.7423,-252 537.7423,-216 642.2577,-216 642.2577,-252"/>
<text text-anchor="middle" x="590" y="-229.8" font-family="Times,serif" font-size="14.00" fill="#000000">DateProxyPipe </text>
</g>
<!-- HelgolandCoreModule&#45;&gt;DateProxyPipe  -->
<g id="edge2" class="edge">
<title>HelgolandCoreModule&#45;&gt;DateProxyPipe </title>
<path fill="none" stroke="#000000" stroke-dasharray="5,2" d="M590,-187.1061C590,-187.1061 590,-205.991 590,-205.991"/>
<polygon fill="#000000" stroke="#000000" points="586.5001,-205.9909 590,-215.991 593.5001,-205.991 586.5001,-205.9909"/>
</g>
<!-- ColorService -->
<g id="node4" class="node">
<title>ColorService</title>
<ellipse fill="#fdb462" stroke="#000000" cx="1080" cy="-104" rx="61.975" ry="18"/>
<text text-anchor="middle" x="1080" y="-99.8" font-family="Times,serif" font-size="14.00" fill="#000000">ColorService</text>
</g>
<!-- ColorService&#45;&gt;HelgolandCoreModule -->
<g id="edge3" class="edge">
<title>ColorService&#45;&gt;HelgolandCoreModule</title>
<path fill="none" stroke="#000000" d="M1080,-122.1061C1080,-141.3391 1080,-169 1080,-169 1080,-169 672.5648,-169 672.5648,-169"/>
<polygon fill="#000000" stroke="#000000" points="672.5649,-165.5001 662.5648,-169 672.5648,-172.5001 672.5649,-165.5001"/>
</g>
<!-- DatasetApiMapping -->
<g id="node5" class="node">
<title>DatasetApiMapping</title>
<ellipse fill="#fdb462" stroke="#000000" cx="911" cy="-104" rx="89.1858" ry="18"/>
<text text-anchor="middle" x="911" y="-99.8" font-family="Times,serif" font-size="14.00" fill="#000000">DatasetApiMapping</text>
</g>
<!-- DatasetApiMapping&#45;&gt;HelgolandCoreModule -->
<g id="edge4" class="edge">
<title>DatasetApiMapping&#45;&gt;HelgolandCoreModule</title>
<path fill="none" stroke="#000000" d="M911,-122.027C911,-138.3976 911,-160 911,-160 911,-160 672.8399,-160 672.8399,-160"/>
<polygon fill="#000000" stroke="#000000" points="672.8399,-156.5001 662.8399,-160 672.8398,-163.5001 672.8399,-156.5001"/>
</g>
<!-- DefinedTimespanService -->
<g id="node6" class="node">
<title>DefinedTimespanService</title>
<ellipse fill="#fdb462" stroke="#000000" cx="694" cy="-104" rx="109.3468" ry="18"/>
<text text-anchor="middle" x="694" y="-99.8" font-family="Times,serif" font-size="14.00" fill="#000000">DefinedTimespanService</text>
</g>
<!-- DefinedTimespanService&#45;&gt;HelgolandCoreModule -->
<g id="edge5" class="edge">
<title>DefinedTimespanService&#45;&gt;HelgolandCoreModule</title>
<path fill="none" stroke="#000000" d="M623.683,-117.7848C623.683,-117.7848 623.683,-140.5475 623.683,-140.5475"/>
<polygon fill="#000000" stroke="#000000" points="620.1831,-140.5474 623.683,-150.5475 627.1831,-140.5475 620.1831,-140.5474"/>
</g>
<!-- InternalIdHandler -->
<g id="node7" class="node">
<title>InternalIdHandler</title>
<ellipse fill="#fdb462" stroke="#000000" cx="487" cy="-104" rx="80.4151" ry="18"/>
<text text-anchor="middle" x="487" y="-99.8" font-family="Times,serif" font-size="14.00" fill="#000000">InternalIdHandler</text>
</g>
<!-- InternalIdHandler&#45;&gt;HelgolandCoreModule -->
<g id="edge6" class="edge">
<title>InternalIdHandler&#45;&gt;HelgolandCoreModule</title>
<path fill="none" stroke="#000000" d="M542.334,-117.1537C542.334,-117.1537 542.334,-140.6938 542.334,-140.6938"/>
<polygon fill="#000000" stroke="#000000" points="538.8341,-140.6938 542.334,-150.6938 545.8341,-140.6939 538.8341,-140.6938"/>
</g>
<!-- LocalStorage -->
<g id="node8" class="node">
<title>LocalStorage</title>
<ellipse fill="#fdb462" stroke="#000000" cx="326" cy="-104" rx="62.5373" ry="18"/>
<text text-anchor="middle" x="326" y="-99.8" font-family="Times,serif" font-size="14.00" fill="#000000">LocalStorage</text>
</g>
<!-- LocalStorage&#45;&gt;HelgolandCoreModule -->
<g id="edge7" class="edge">
<title>LocalStorage&#45;&gt;HelgolandCoreModule</title>
<path fill="none" stroke="#000000" d="M326,-122.027C326,-138.3976 326,-160 326,-160 326,-160 507.162,-160 507.162,-160"/>
<polygon fill="#000000" stroke="#000000" points="507.162,-163.5001 517.162,-160 507.162,-156.5001 507.162,-163.5001"/>
</g>
<!-- NotifierService -->
<g id="node9" class="node">
<title>NotifierService</title>
<ellipse fill="#fdb462" stroke="#000000" cx="175" cy="-104" rx="70.6181" ry="18"/>
<text text-anchor="middle" x="175" y="-99.8" font-family="Times,serif" font-size="14.00" fill="#000000">NotifierService</text>
</g>
<!-- NotifierService&#45;&gt;HelgolandCoreModule -->
<g id="edge8" class="edge">
<title>NotifierService&#45;&gt;HelgolandCoreModule</title>
<path fill="none" stroke="#000000" d="M175,-122.1061C175,-141.3391 175,-169 175,-169 175,-169 507.2376,-169 507.2376,-169"/>
<polygon fill="#000000" stroke="#000000" points="507.2377,-172.5001 517.2376,-169 507.2376,-165.5001 507.2377,-172.5001"/>
</g>
<!-- Time -->
<g id="node10" class="node">
<title>Time</title>
<ellipse fill="#fdb462" stroke="#000000" cx="55" cy="-104" rx="31.3371" ry="18"/>
<text text-anchor="middle" x="55" y="-99.8" font-family="Times,serif" font-size="14.00" fill="#000000">Time</text>
</g>
<!-- Time&#45;&gt;HelgolandCoreModule -->
<g id="edge9" class="edge">
<title>Time&#45;&gt;HelgolandCoreModule</title>
<path fill="none" stroke="#000000" d="M55,-122.2921C55,-144.2057 55,-178 55,-178 55,-178 507.2907,-178 507.2907,-178"/>
<polygon fill="#000000" stroke="#000000" points="507.2908,-181.5001 517.2907,-178 507.2907,-174.5001 507.2908,-181.5001"/>
</g>
</g>
</svg>
