<?xml version="1.0" encoding="UTF-8" standalone="no"?>
<!DOCTYPE svg PUBLIC "-//W3C//DTD SVG 1.1//EN"
 "http://www.w3.org/Graphics/SVG/1.1/DTD/svg11.dtd">
<!-- Generated by graphviz version 2.40.1 (20161225.0304)
 -->
<!-- Title: dependencies Pages: 1 -->
<svg width="1432pt" height="284pt"
 viewBox="0.00 0.00 1432.00 284.00" xmlns="http://www.w3.org/2000/svg" xmlns:xlink="http://www.w3.org/1999/xlink">
<g id="graph0" class="graph" transform="scale(1 1) rotate(0) translate(4 280)">
<title>dependencies</title>
<polygon fill="#ffffff" stroke="transparent" points="-4,4 -4,-280 1428,-280 1428,4 -4,4"/>
<text text-anchor="start" x="691.0091" y="-42.4" font-family="sans-serif" font-weight="bold" font-size="14.00" fill="#000000">Legend</text>
<polygon fill="#ffffb3" stroke="transparent" points="478,-10 478,-30 498,-30 498,-10 478,-10"/>
<text text-anchor="start" x="501.629" y="-15.4" font-family="sans-serif" font-size="14.00" fill="#000000"> &#160;Declarations</text>
<polygon fill="#8dd3c7" stroke="transparent" points="591,-10 591,-30 611,-30 611,-10 591,-10"/>
<text text-anchor="start" x="614.7251" y="-15.4" font-family="sans-serif" font-size="14.00" fill="#000000"> &#160;Module</text>
<polygon fill="#80b1d3" stroke="transparent" points="677,-10 677,-30 697,-30 697,-10 677,-10"/>
<text text-anchor="start" x="700.7812" y="-15.4" font-family="sans-serif" font-size="14.00" fill="#000000"> &#160;Bootstrap</text>
<polygon fill="#fdb462" stroke="transparent" points="774,-10 774,-30 794,-30 794,-10 774,-10"/>
<text text-anchor="start" x="797.6732" y="-15.4" font-family="sans-serif" font-size="14.00" fill="#000000"> &#160;Providers</text>
<polygon fill="#fb8072" stroke="transparent" points="870,-10 870,-30 890,-30 890,-10 870,-10"/>
<text text-anchor="start" x="893.7258" y="-15.4" font-family="sans-serif" font-size="14.00" fill="#000000"> &#160;Exports</text>
<g id="clust1" class="cluster">
<title>cluster_HelgolandCoreModule</title>
<polygon fill="none" stroke="#000000" stroke-dasharray="1,5" points="8,-70 8,-268 1416,-268 1416,-70 8,-70"/>
</g>
<g id="clust2" class="cluster">
<title>cluster_HelgolandCoreModule_declarations</title>
<polygon fill="none" stroke="#000000" points="1292,-78 1292,-130 1408,-130 1408,-78 1292,-78"/>
</g>
<g id="clust5" class="cluster">
<title>cluster_HelgolandCoreModule_exports</title>
<polygon fill="none" stroke="#000000" points="572,-208 572,-260 692,-260 692,-208 572,-208"/>
</g>
<g id="clust7" class="cluster">
<title>cluster_HelgolandCoreModule_providers</title>
<polygon fill="none" stroke="#000000" points="16,-78 16,-130 1284,-130 1284,-78 16,-78"/>
</g>
<!-- DateProxyPipe -->
<g id="node1" class="node">
<title>DateProxyPipe</title>
<polygon fill="#ffffb3" stroke="#000000" points="1400.2577,-122 1299.7423,-122 1299.7423,-86 1400.2577,-86 1400.2577,-122"/>
<text text-anchor="middle" x="1350" y="-99.8" font-family="Times,serif" font-size="14.00" fill="#000000">DateProxyPipe</text>
</g>
<!-- HelgolandCoreModule -->
<g id="node2" class="node">
<title>HelgolandCoreModule</title>
<polygon fill="#8dd3c7" stroke="#000000" points="704.5786,-187 701.5786,-191 680.5786,-191 677.5786,-187 559.4214,-187 559.4214,-151 704.5786,-151 704.5786,-187"/>
<text text-anchor="middle" x="632" y="-164.8" font-family="Times,serif" font-size="14.00" fill="#000000">HelgolandCoreModule</text>
</g>
<!-- DateProxyPipe&#45;&gt;HelgolandCoreModule -->
<g id="edge1" class="edge">
<title>DateProxyPipe&#45;&gt;HelgolandCoreModule</title>
<path fill="none" stroke="#000000" d="M1350,-122.2921C1350,-144.2057 1350,-178 1350,-178 1350,-178 714.7969,-178 714.7969,-178"/>
<polygon fill="#000000" stroke="#000000" points="714.797,-174.5001 704.7969,-178 714.7969,-181.5001 714.797,-174.5001"/>
</g>
<!-- DateProxyPipe  -->
<g id="node3" class="node">
<title>DateProxyPipe </title>
<polygon fill="#fb8072" stroke="#000000" points="684.2577,-252 579.7423,-252 579.7423,-216 684.2577,-216 684.2577,-252"/>
<text text-anchor="middle" x="632" y="-229.8" font-family="Times,serif" font-size="14.00" fill="#000000">DateProxyPipe </text>
</g>
<!-- HelgolandCoreModule&#45;&gt;DateProxyPipe  -->
<g id="edge2" class="edge">
<title>HelgolandCoreModule&#45;&gt;DateProxyPipe </title>
<path fill="none" stroke="#000000" stroke-dasharray="5,2" d="M632,-187.1061C632,-187.1061 632,-205.991 632,-205.991"/>
<polygon fill="#000000" stroke="#000000" points="628.5001,-205.9909 632,-215.991 635.5001,-205.991 628.5001,-205.9909"/>
</g>
<!-- InternalIdHandler -->
<g id="node4" class="node">
<title>InternalIdHandler</title>
<ellipse fill="#fdb462" stroke="#000000" cx="1196" cy="-104" rx="80.4151" ry="18"/>
<text text-anchor="middle" x="1196" y="-99.8" font-family="Times,serif" font-size="14.00" fill="#000000">InternalIdHandler</text>
</g>
<!-- InternalIdHandler&#45;&gt;HelgolandCoreModule -->
<g id="edge3" class="edge">
<title>InternalIdHandler&#45;&gt;HelgolandCoreModule</title>
<path fill="none" stroke="#000000" d="M1196,-122.1061C1196,-141.3391 1196,-169 1196,-169 1196,-169 714.5785,-169 714.5785,-169"/>
<polygon fill="#000000" stroke="#000000" points="714.5786,-165.5001 704.5785,-169 714.5785,-172.5001 714.5786,-165.5001"/>
</g>
<!-- DatasetApiMapping -->
<g id="node5" class="node">
<title>DatasetApiMapping</title>
<ellipse fill="#fdb462" stroke="#000000" cx="1008" cy="-104" rx="89.1858" ry="18"/>
<text text-anchor="middle" x="1008" y="-99.8" font-family="Times,serif" font-size="14.00" fill="#000000">DatasetApiMapping</text>
</g>
<!-- DatasetApiMapping&#45;&gt;HelgolandCoreModule -->
<g id="edge4" class="edge">
<title>DatasetApiMapping&#45;&gt;HelgolandCoreModule</title>
<path fill="none" stroke="#000000" d="M1008,-122.027C1008,-138.3976 1008,-160 1008,-160 1008,-160 714.9424,-160 714.9424,-160"/>
<polygon fill="#000000" stroke="#000000" points="714.9424,-156.5001 704.9424,-160 714.9424,-163.5001 714.9424,-156.5001"/>
</g>
<!-- DefinedTimespanService -->
<g id="node6" class="node">
<title>DefinedTimespanService</title>
<ellipse fill="#fdb462" stroke="#000000" cx="791" cy="-104" rx="109.3468" ry="18"/>
<text text-anchor="middle" x="791" y="-99.8" font-family="Times,serif" font-size="14.00" fill="#000000">DefinedTimespanService</text>
</g>
<!-- DefinedTimespanService&#45;&gt;HelgolandCoreModule -->
<g id="edge5" class="edge">
<title>DefinedTimespanService&#45;&gt;HelgolandCoreModule</title>
<path fill="none" stroke="#000000" d="M693.183,-112.2323C693.183,-112.2323 693.183,-140.7574 693.183,-140.7574"/>
<polygon fill="#000000" stroke="#000000" points="689.6831,-140.7574 693.183,-150.7574 696.6831,-140.7575 689.6831,-140.7574"/>
</g>
<!-- Time -->
<g id="node7" class="node">
<title>Time</title>
<ellipse fill="#fdb462" stroke="#000000" cx="632" cy="-104" rx="31.3371" ry="18"/>
<text text-anchor="middle" x="632" y="-99.8" font-family="Times,serif" font-size="14.00" fill="#000000">Time</text>
</g>
<!-- Time&#45;&gt;HelgolandCoreModule -->
<g id="edge6" class="edge">
<title>Time&#45;&gt;HelgolandCoreModule</title>
<path fill="none" stroke="#000000" d="M632,-122.1061C632,-122.1061 632,-140.991 632,-140.991"/>
<polygon fill="#000000" stroke="#000000" points="628.5001,-140.9909 632,-150.991 635.5001,-140.991 628.5001,-140.9909"/>
</g>
<!-- LocalStorage -->
<g id="node8" class="node">
<title>LocalStorage</title>
<ellipse fill="#fdb462" stroke="#000000" cx="520" cy="-104" rx="62.5373" ry="18"/>
<text text-anchor="middle" x="520" y="-99.8" font-family="Times,serif" font-size="14.00" fill="#000000">LocalStorage</text>
</g>
<!-- LocalStorage&#45;&gt;HelgolandCoreModule -->
<g id="edge7" class="edge">
<title>LocalStorage&#45;&gt;HelgolandCoreModule</title>
<path fill="none" stroke="#000000" d="M570.9897,-114.4434C570.9897,-114.4434 570.9897,-140.9681 570.9897,-140.9681"/>
<polygon fill="#000000" stroke="#000000" points="567.4898,-140.968 570.9897,-150.9681 574.4898,-140.9681 567.4898,-140.968"/>
</g>
<!-- NotifierService -->
<g id="node9" class="node">
<title>NotifierService</title>
<ellipse fill="#fdb462" stroke="#000000" cx="369" cy="-104" rx="70.6181" ry="18"/>
<text text-anchor="middle" x="369" y="-99.8" font-family="Times,serif" font-size="14.00" fill="#000000">NotifierService</text>
</g>
<!-- NotifierService&#45;&gt;HelgolandCoreModule -->
<g id="edge8" class="edge">
<title>NotifierService&#45;&gt;HelgolandCoreModule</title>
<path fill="none" stroke="#000000" d="M369,-122.027C369,-138.3976 369,-160 369,-160 369,-160 549.4379,-160 549.4379,-160"/>
<polygon fill="#000000" stroke="#000000" points="549.4379,-163.5001 559.4379,-160 549.4379,-156.5001 549.4379,-163.5001"/>
</g>
<!-- ColorService -->
<g id="node10" class="node">
<title>ColorService</title>
<ellipse fill="#fdb462" stroke="#000000" cx="218" cy="-104" rx="61.975" ry="18"/>
<text text-anchor="middle" x="218" y="-99.8" font-family="Times,serif" font-size="14.00" fill="#000000">ColorService</text>
</g>
<!-- ColorService&#45;&gt;HelgolandCoreModule -->
<g id="edge9" class="edge">
<title>ColorService&#45;&gt;HelgolandCoreModule</title>
<path fill="none" stroke="#000000" d="M218,-122.1061C218,-141.3391 218,-169 218,-169 218,-169 549.413,-169 549.413,-169"/>
<polygon fill="#000000" stroke="#000000" points="549.413,-172.5001 559.413,-169 549.4129,-165.5001 549.413,-172.5001"/>
</g>
<!-- HttpService -->
<g id="node11" class="node">
<title>HttpService</title>
<ellipse fill="#fdb462" stroke="#000000" cx="81" cy="-104" rx="57.3185" ry="18"/>
<text text-anchor="middle" x="81" y="-99.8" font-family="Times,serif" font-size="14.00" fill="#000000">HttpService</text>
</g>
<!-- HttpService&#45;&gt;HelgolandCoreModule -->
<g id="edge10" class="edge">
<title>HttpService&#45;&gt;HelgolandCoreModule</title>
<path fill="none" stroke="#000000" d="M81,-122.2921C81,-144.2057 81,-178 81,-178 81,-178 549.3998,-178 549.3998,-178"/>
<polygon fill="#000000" stroke="#000000" points="549.3998,-181.5001 559.3998,-178 549.3997,-174.5001 549.3998,-181.5001"/>
</g>
</g>
</svg>
