<?xml version="1.0" encoding="UTF-8" standalone="no"?>
<!DOCTYPE svg PUBLIC "-//W3C//DTD SVG 1.1//EN"
 "http://www.w3.org/Graphics/SVG/1.1/DTD/svg11.dtd">
<!-- Generated by graphviz version 2.40.1 (20161225.0304)
 -->
<!-- Title: dependencies Pages: 1 -->
<svg width="1891pt" height="284pt"
 viewBox="0.00 0.00 1891.00 284.00" xmlns="http://www.w3.org/2000/svg" xmlns:xlink="http://www.w3.org/1999/xlink">
<g id="graph0" class="graph" transform="scale(1 1) rotate(0) translate(4 280)">
<title>dependencies</title>
<polygon fill="#ffffff" stroke="transparent" points="-4,4 -4,-280 1887,-280 1887,4 -4,4"/>
<text text-anchor="start" x="920.5091" y="-42.4" font-family="sans-serif" font-weight="bold" font-size="14.00" fill="#000000">Legend</text>
<polygon fill="#ffffb3" stroke="transparent" points="707.5,-10 707.5,-30 727.5,-30 727.5,-10 707.5,-10"/>
<text text-anchor="start" x="731.129" y="-15.4" font-family="sans-serif" font-size="14.00" fill="#000000"> &#160;Declarations</text>
<polygon fill="#8dd3c7" stroke="transparent" points="820.5,-10 820.5,-30 840.5,-30 840.5,-10 820.5,-10"/>
<text text-anchor="start" x="844.2251" y="-15.4" font-family="sans-serif" font-size="14.00" fill="#000000"> &#160;Module</text>
<polygon fill="#80b1d3" stroke="transparent" points="906.5,-10 906.5,-30 926.5,-30 926.5,-10 906.5,-10"/>
<text text-anchor="start" x="930.2812" y="-15.4" font-family="sans-serif" font-size="14.00" fill="#000000"> &#160;Bootstrap</text>
<polygon fill="#fdb462" stroke="transparent" points="1003.5,-10 1003.5,-30 1023.5,-30 1023.5,-10 1003.5,-10"/>
<text text-anchor="start" x="1027.1732" y="-15.4" font-family="sans-serif" font-size="14.00" fill="#000000"> &#160;Providers</text>
<polygon fill="#fb8072" stroke="transparent" points="1099.5,-10 1099.5,-30 1119.5,-30 1119.5,-10 1099.5,-10"/>
<text text-anchor="start" x="1123.2258" y="-15.4" font-family="sans-serif" font-size="14.00" fill="#000000"> &#160;Exports</text>
<g id="clust1" class="cluster">
<title>cluster_HelgolandCoreModule</title>
<polygon fill="none" stroke="#000000" stroke-dasharray="1,5" points="8,-70 8,-268 1875,-268 1875,-70 8,-70"/>
</g>
<g id="clust2" class="cluster">
<title>cluster_HelgolandCoreModule_declarations</title>
<polygon fill="none" stroke="#000000" points="1751,-78 1751,-130 1867,-130 1867,-78 1751,-78"/>
</g>
<g id="clust5" class="cluster">
<title>cluster_HelgolandCoreModule_exports</title>
<polygon fill="none" stroke="#000000" points="888,-208 888,-260 1008,-260 1008,-208 888,-208"/>
</g>
<g id="clust7" class="cluster">
<title>cluster_HelgolandCoreModule_providers</title>
<polygon fill="none" stroke="#000000" points="16,-78 16,-130 1743,-130 1743,-78 16,-78"/>
</g>
<!-- DateProxyPipe -->
<g id="node1" class="node">
<title>DateProxyPipe</title>
<polygon fill="#ffffb3" stroke="#000000" points="1859.2577,-122 1758.7423,-122 1758.7423,-86 1859.2577,-86 1859.2577,-122"/>
<text text-anchor="middle" x="1809" y="-99.8" font-family="Times,serif" font-size="14.00" fill="#000000">DateProxyPipe</text>
</g>
<!-- HelgolandCoreModule -->
<g id="node2" class="node">
<title>HelgolandCoreModule</title>
<polygon fill="#8dd3c7" stroke="#000000" points="1020.5786,-187 1017.5786,-191 996.5786,-191 993.5786,-187 875.4214,-187 875.4214,-151 1020.5786,-151 1020.5786,-187"/>
<text text-anchor="middle" x="948" y="-164.8" font-family="Times,serif" font-size="14.00" fill="#000000">HelgolandCoreModule</text>
</g>
<!-- DateProxyPipe&#45;&gt;HelgolandCoreModule -->
<g id="edge1" class="edge">
<title>DateProxyPipe&#45;&gt;HelgolandCoreModule</title>
<path fill="none" stroke="#000000" d="M1809,-122.2479C1809,-145.0179 1809,-181 1809,-181 1809,-181 1030.6663,-181 1030.6663,-181"/>
<polygon fill="#000000" stroke="#000000" points="1030.6664,-177.5001 1020.6663,-181 1030.6663,-184.5001 1030.6664,-177.5001"/>
</g>
<!-- DateProxyPipe  -->
<g id="node3" class="node">
<title>DateProxyPipe </title>
<polygon fill="#fb8072" stroke="#000000" points="1000.2577,-252 895.7423,-252 895.7423,-216 1000.2577,-216 1000.2577,-252"/>
<text text-anchor="middle" x="948" y="-229.8" font-family="Times,serif" font-size="14.00" fill="#000000">DateProxyPipe </text>
</g>
<!-- HelgolandCoreModule&#45;&gt;DateProxyPipe  -->
<g id="edge2" class="edge">
<title>HelgolandCoreModule&#45;&gt;DateProxyPipe </title>
<path fill="none" stroke="#000000" stroke-dasharray="5,2" d="M948,-187.1061C948,-187.1061 948,-205.991 948,-205.991"/>
<polygon fill="#000000" stroke="#000000" points="944.5001,-205.9909 948,-215.991 951.5001,-205.991 944.5001,-205.9909"/>
</g>
<!-- ColorService -->
<g id="node4" class="node">
<title>ColorService</title>
<ellipse fill="#fdb462" stroke="#000000" cx="1673" cy="-104" rx="61.975" ry="18"/>
<text text-anchor="middle" x="1673" y="-99.8" font-family="Times,serif" font-size="14.00" fill="#000000">ColorService</text>
</g>
<!-- ColorService&#45;&gt;HelgolandCoreModule -->
<g id="edge3" class="edge">
<title>ColorService&#45;&gt;HelgolandCoreModule</title>
<path fill="none" stroke="#000000" d="M1673,-122.2843C1673,-143.3211 1673,-175 1673,-175 1673,-175 1030.8352,-175 1030.8352,-175"/>
<polygon fill="#000000" stroke="#000000" points="1030.8353,-171.5001 1020.8352,-175 1030.8352,-178.5001 1030.8353,-171.5001"/>
</g>
<!-- DatasetApiMapping -->
<g id="node5" class="node">
<title>DatasetApiMapping</title>
<ellipse fill="#fdb462" stroke="#000000" cx="1504" cy="-104" rx="89.1858" ry="18"/>
<text text-anchor="middle" x="1504" y="-99.8" font-family="Times,serif" font-size="14.00" fill="#000000">DatasetApiMapping</text>
</g>
<!-- DatasetApiMapping&#45;&gt;HelgolandCoreModule -->
<g id="edge4" class="edge">
<title>DatasetApiMapping&#45;&gt;HelgolandCoreModule</title>
<path fill="none" stroke="#000000" d="M1504,-122.1061C1504,-141.3391 1504,-169 1504,-169 1504,-169 1030.6873,-169 1030.6873,-169"/>
<polygon fill="#000000" stroke="#000000" points="1030.6873,-165.5001 1020.6873,-169 1030.6873,-172.5001 1030.6873,-165.5001"/>
</g>
<!-- DefinedTimespanService -->
<g id="node6" class="node">
<title>DefinedTimespanService</title>
<ellipse fill="#fdb462" stroke="#000000" cx="1287" cy="-104" rx="109.3468" ry="18"/>
<text text-anchor="middle" x="1287" y="-99.8" font-family="Times,serif" font-size="14.00" fill="#000000">DefinedTimespanService</text>
</g>
<!-- DefinedTimespanService&#45;&gt;HelgolandCoreModule -->
<g id="edge5" class="edge">
<title>DefinedTimespanService&#45;&gt;HelgolandCoreModule</title>
<path fill="none" stroke="#000000" d="M1287,-122.0225C1287,-139.3734 1287,-163 1287,-163 1287,-163 1030.724,-163 1030.724,-163"/>
<polygon fill="#000000" stroke="#000000" points="1030.724,-159.5001 1020.724,-163 1030.724,-166.5001 1030.724,-159.5001"/>
</g>
<!-- HttpService -->
<g id="node7" class="node">
<title>HttpService</title>
<ellipse fill="#fdb462" stroke="#000000" cx="1103" cy="-104" rx="57.3185" ry="18"/>
<text text-anchor="middle" x="1103" y="-99.8" font-family="Times,serif" font-size="14.00" fill="#000000">HttpService</text>
</g>
<!-- HttpService&#45;&gt;HelgolandCoreModule -->
<g id="edge6" class="edge">
<title>HttpService&#45;&gt;HelgolandCoreModule</title>
<path fill="none" stroke="#000000" d="M1103,-122.2396C1103,-137.5706 1103,-157 1103,-157 1103,-157 1030.9613,-157 1030.9613,-157"/>
<polygon fill="#000000" stroke="#000000" points="1030.9613,-153.5001 1020.9613,-157 1030.9613,-160.5001 1030.9613,-153.5001"/>
</g>
<!-- InternalIdHandler -->
<g id="node8" class="node">
<title>InternalIdHandler</title>
<ellipse fill="#fdb462" stroke="#000000" cx="948" cy="-104" rx="80.4151" ry="18"/>
<text text-anchor="middle" x="948" y="-99.8" font-family="Times,serif" font-size="14.00" fill="#000000">InternalIdHandler</text>
</g>
<!-- InternalIdHandler&#45;&gt;HelgolandCoreModule -->
<g id="edge7" class="edge">
<title>InternalIdHandler&#45;&gt;HelgolandCoreModule</title>
<path fill="none" stroke="#000000" d="M948,-122.1061C948,-122.1061 948,-140.991 948,-140.991"/>
<polygon fill="#000000" stroke="#000000" points="944.5001,-140.9909 948,-150.991 951.5001,-140.991 944.5001,-140.9909"/>
</g>
<!-- LocalStorage -->
<g id="node9" class="node">
<title>LocalStorage</title>
<ellipse fill="#fdb462" stroke="#000000" cx="787" cy="-104" rx="62.5373" ry="18"/>
<text text-anchor="middle" x="787" y="-99.8" font-family="Times,serif" font-size="14.00" fill="#000000">LocalStorage</text>
</g>
<!-- LocalStorage&#45;&gt;HelgolandCoreModule -->
<g id="edge8" class="edge">
<title>LocalStorage&#45;&gt;HelgolandCoreModule</title>
<path fill="none" stroke="#000000" d="M787,-122.2396C787,-137.5706 787,-157 787,-157 787,-157 865.037,-157 865.037,-157"/>
<polygon fill="#000000" stroke="#000000" points="865.0371,-160.5001 875.037,-157 865.037,-153.5001 865.0371,-160.5001"/>
</g>
<!-- NotifierService -->
<g id="node10" class="node">
<title>NotifierService</title>
<ellipse fill="#fdb462" stroke="#000000" cx="636" cy="-104" rx="70.6181" ry="18"/>
<text text-anchor="middle" x="636" y="-99.8" font-family="Times,serif" font-size="14.00" fill="#000000">NotifierService</text>
</g>
<!-- NotifierService&#45;&gt;HelgolandCoreModule -->
<g id="edge9" class="edge">
<title>NotifierService&#45;&gt;HelgolandCoreModule</title>
<path fill="none" stroke="#000000" d="M636,-122.0225C636,-139.3734 636,-163 636,-163 636,-163 865.2436,-163 865.2436,-163"/>
<polygon fill="#000000" stroke="#000000" points="865.2437,-166.5001 875.2436,-163 865.2436,-159.5001 865.2437,-166.5001"/>
</g>
<!-- StatusIntervalResolverService -->
<g id="node11" class="node">
<title>StatusIntervalResolverService</title>
<ellipse fill="#fdb462" stroke="#000000" cx="419" cy="-104" rx="127.9005" ry="18"/>
<text text-anchor="middle" x="419" y="-99.8" font-family="Times,serif" font-size="14.00" fill="#000000">StatusIntervalResolverService</text>
</g>
<!-- StatusIntervalResolverService&#45;&gt;HelgolandCoreModule -->
<g id="edge10" class="edge">
<title>StatusIntervalResolverService&#45;&gt;HelgolandCoreModule</title>
<path fill="none" stroke="#000000" d="M419,-122.1061C419,-141.3391 419,-169 419,-169 419,-169 865.2773,-169 865.2773,-169"/>
<polygon fill="#000000" stroke="#000000" points="865.2773,-172.5001 875.2773,-169 865.2773,-165.5001 865.2773,-172.5001"/>
</g>
<!-- SumValuesService -->
<g id="node12" class="node">
<title>SumValuesService</title>
<ellipse fill="#fdb462" stroke="#000000" cx="189" cy="-104" rx="84.5266" ry="18"/>
<text text-anchor="middle" x="189" y="-99.8" font-family="Times,serif" font-size="14.00" fill="#000000">SumValuesService</text>
</g>
<!-- SumValuesService&#45;&gt;HelgolandCoreModule -->
<g id="edge11" class="edge">
<title>SumValuesService&#45;&gt;HelgolandCoreModule</title>
<path fill="none" stroke="#000000" d="M189,-122.2843C189,-143.3211 189,-175 189,-175 189,-175 865.2239,-175 865.2239,-175"/>
<polygon fill="#000000" stroke="#000000" points="865.2239,-178.5001 875.2239,-175 865.2239,-171.5001 865.2239,-178.5001"/>
</g>
<!-- Time -->
<g id="node13" class="node">
<title>Time</title>
<ellipse fill="#fdb462" stroke="#000000" cx="55" cy="-104" rx="31.3371" ry="18"/>
<text text-anchor="middle" x="55" y="-99.8" font-family="Times,serif" font-size="14.00" fill="#000000">Time</text>
</g>
<!-- Time&#45;&gt;HelgolandCoreModule -->
<g id="edge12" class="edge">
<title>Time&#45;&gt;HelgolandCoreModule</title>
<path fill="none" stroke="#000000" d="M55,-122.2479C55,-145.0179 55,-181 55,-181 55,-181 865.3007,-181 865.3007,-181"/>
<polygon fill="#000000" stroke="#000000" points="865.3007,-184.5001 875.3007,-181 865.3007,-177.5001 865.3007,-184.5001"/>
</g>
</g>
</svg>
