<?xml version="1.0" encoding="UTF-8" standalone="no"?>
<!DOCTYPE svg PUBLIC "-//W3C//DTD SVG 1.1//EN"
 "http://www.w3.org/Graphics/SVG/1.1/DTD/svg11.dtd">
<!-- Generated by graphviz version 2.40.1 (20161225.0304)
 -->
<!-- Title: dependencies Pages: 1 -->
<svg width="1572pt" height="284pt"
 viewBox="0.00 0.00 1572.00 284.00" xmlns="http://www.w3.org/2000/svg" xmlns:xlink="http://www.w3.org/1999/xlink">
<g id="graph0" class="graph" transform="scale(1 1) rotate(0) translate(4 280)">
<title>dependencies</title>
<polygon fill="#ffffff" stroke="transparent" points="-4,4 -4,-280 1568,-280 1568,4 -4,4"/>
<text text-anchor="start" x="761.0091" y="-42.4" font-family="sans-serif" font-weight="bold" font-size="14.00" fill="#000000">Legend</text>
<polygon fill="#ffffb3" stroke="transparent" points="548,-10 548,-30 568,-30 568,-10 548,-10"/>
<text text-anchor="start" x="571.629" y="-15.4" font-family="sans-serif" font-size="14.00" fill="#000000"> &#160;Declarations</text>
<polygon fill="#8dd3c7" stroke="transparent" points="661,-10 661,-30 681,-30 681,-10 661,-10"/>
<text text-anchor="start" x="684.7251" y="-15.4" font-family="sans-serif" font-size="14.00" fill="#000000"> &#160;Module</text>
<polygon fill="#80b1d3" stroke="transparent" points="747,-10 747,-30 767,-30 767,-10 747,-10"/>
<text text-anchor="start" x="770.7812" y="-15.4" font-family="sans-serif" font-size="14.00" fill="#000000"> &#160;Bootstrap</text>
<polygon fill="#fdb462" stroke="transparent" points="844,-10 844,-30 864,-30 864,-10 844,-10"/>
<text text-anchor="start" x="867.6732" y="-15.4" font-family="sans-serif" font-size="14.00" fill="#000000"> &#160;Providers</text>
<polygon fill="#fb8072" stroke="transparent" points="940,-10 940,-30 960,-30 960,-10 940,-10"/>
<text text-anchor="start" x="963.7258" y="-15.4" font-family="sans-serif" font-size="14.00" fill="#000000"> &#160;Exports</text>
<g id="clust1" class="cluster">
<title>cluster_HelgolandCoreModule</title>
<polygon fill="none" stroke="#000000" stroke-dasharray="1,5" points="8,-70 8,-268 1556,-268 1556,-70 8,-70"/>
</g>
<g id="clust2" class="cluster">
<title>cluster_HelgolandCoreModule_declarations</title>
<polygon fill="none" stroke="#000000" points="1432,-78 1432,-130 1548,-130 1548,-78 1432,-78"/>
</g>
<g id="clust5" class="cluster">
<title>cluster_HelgolandCoreModule_exports</title>
<polygon fill="none" stroke="#000000" points="701,-208 701,-260 821,-260 821,-208 701,-208"/>
</g>
<g id="clust7" class="cluster">
<title>cluster_HelgolandCoreModule_providers</title>
<polygon fill="none" stroke="#000000" points="16,-78 16,-130 1424,-130 1424,-78 16,-78"/>
</g>
<!-- DateProxyPipe -->
<g id="node1" class="node">
<title>DateProxyPipe</title>
<polygon fill="#ffffb3" stroke="#000000" points="1540.2577,-122 1439.7423,-122 1439.7423,-86 1540.2577,-86 1540.2577,-122"/>
<text text-anchor="middle" x="1490" y="-99.8" font-family="Times,serif" font-size="14.00" fill="#000000">DateProxyPipe</text>
</g>
<!-- HelgolandCoreModule -->
<g id="node2" class="node">
<title>HelgolandCoreModule</title>
<polygon fill="#8dd3c7" stroke="#000000" points="833.5786,-187 830.5786,-191 809.5786,-191 806.5786,-187 688.4214,-187 688.4214,-151 833.5786,-151 833.5786,-187"/>
<text text-anchor="middle" x="761" y="-164.8" font-family="Times,serif" font-size="14.00" fill="#000000">HelgolandCoreModule</text>
</g>
<!-- DateProxyPipe&#45;&gt;HelgolandCoreModule -->
<g id="edge1" class="edge">
<title>DateProxyPipe&#45;&gt;HelgolandCoreModule</title>
<path fill="none" stroke="#000000" d="M1490,-122.0109C1490,-144.4852 1490,-180 1490,-180 1490,-180 843.5645,-180 843.5645,-180"/>
<polygon fill="#000000" stroke="#000000" points="843.5645,-176.5001 833.5645,-180 843.5644,-183.5001 843.5645,-176.5001"/>
</g>
<!-- DateProxyPipe  -->
<g id="node3" class="node">
<title>DateProxyPipe </title>
<polygon fill="#fb8072" stroke="#000000" points="813.2577,-252 708.7423,-252 708.7423,-216 813.2577,-216 813.2577,-252"/>
<text text-anchor="middle" x="761" y="-229.8" font-family="Times,serif" font-size="14.00" fill="#000000">DateProxyPipe </text>
</g>
<!-- HelgolandCoreModule&#45;&gt;DateProxyPipe  -->
<g id="edge2" class="edge">
<title>HelgolandCoreModule&#45;&gt;DateProxyPipe </title>
<path fill="none" stroke="#000000" stroke-dasharray="5,2" d="M761,-187.1061C761,-187.1061 761,-205.991 761,-205.991"/>
<polygon fill="#000000" stroke="#000000" points="757.5001,-205.9909 761,-215.991 764.5001,-205.991 757.5001,-205.9909"/>
</g>
<!-- ColorService -->
<g id="node4" class="node">
<title>ColorService</title>
<ellipse fill="#fdb462" stroke="#000000" cx="1354" cy="-104" rx="61.975" ry="18"/>
<text text-anchor="middle" x="1354" y="-99.8" font-family="Times,serif" font-size="14.00" fill="#000000">ColorService</text>
</g>
<!-- ColorService&#45;&gt;HelgolandCoreModule -->
<g id="edge3" class="edge">
<title>ColorService&#45;&gt;HelgolandCoreModule</title>
<path fill="none" stroke="#000000" d="M1354,-122.1289C1354,-142.5724 1354,-173 1354,-173 1354,-173 843.7134,-173 843.7134,-173"/>
<polygon fill="#000000" stroke="#000000" points="843.7135,-169.5001 833.7134,-173 843.7134,-176.5001 843.7135,-169.5001"/>
</g>
<!-- DatasetApiMapping -->
<g id="node5" class="node">
<title>DatasetApiMapping</title>
<ellipse fill="#fdb462" stroke="#000000" cx="1185" cy="-104" rx="89.1858" ry="18"/>
<text text-anchor="middle" x="1185" y="-99.8" font-family="Times,serif" font-size="14.00" fill="#000000">DatasetApiMapping</text>
</g>
<!-- DatasetApiMapping&#45;&gt;HelgolandCoreModule -->
<g id="edge4" class="edge">
<title>DatasetApiMapping&#45;&gt;HelgolandCoreModule</title>
<path fill="none" stroke="#000000" d="M1185,-122.2667C1185,-140.5552 1185,-166 1185,-166 1185,-166 843.8882,-166 843.8882,-166"/>
<polygon fill="#000000" stroke="#000000" points="843.8882,-162.5001 833.8882,-166 843.8882,-169.5001 843.8882,-162.5001"/>
</g>
<!-- DefinedTimespanService -->
<g id="node6" class="node">
<title>DefinedTimespanService</title>
<ellipse fill="#fdb462" stroke="#000000" cx="968" cy="-104" rx="109.3468" ry="18"/>
<text text-anchor="middle" x="968" y="-99.8" font-family="Times,serif" font-size="14.00" fill="#000000">DefinedTimespanService</text>
</g>
<!-- DefinedTimespanService&#45;&gt;HelgolandCoreModule -->
<g id="edge5" class="edge">
<title>DefinedTimespanService&#45;&gt;HelgolandCoreModule</title>
<path fill="none" stroke="#000000" d="M968,-122.0091C968,-138.0494 968,-159 968,-159 968,-159 843.6894,-159 843.6894,-159"/>
<polygon fill="#000000" stroke="#000000" points="843.6894,-155.5001 833.6894,-159 843.6894,-162.5001 843.6894,-155.5001"/>
</g>
<!-- InternalIdHandler -->
<g id="node7" class="node">
<title>InternalIdHandler</title>
<ellipse fill="#fdb462" stroke="#000000" cx="761" cy="-104" rx="80.4151" ry="18"/>
<text text-anchor="middle" x="761" y="-99.8" font-family="Times,serif" font-size="14.00" fill="#000000">InternalIdHandler</text>
</g>
<!-- InternalIdHandler&#45;&gt;HelgolandCoreModule -->
<g id="edge6" class="edge">
<title>InternalIdHandler&#45;&gt;HelgolandCoreModule</title>
<path fill="none" stroke="#000000" d="M761,-122.1061C761,-122.1061 761,-140.991 761,-140.991"/>
<polygon fill="#000000" stroke="#000000" points="757.5001,-140.9909 761,-150.991 764.5001,-140.991 757.5001,-140.9909"/>
</g>
<!-- LocalStorage -->
<g id="node8" class="node">
<title>LocalStorage</title>
<ellipse fill="#fdb462" stroke="#000000" cx="600" cy="-104" rx="62.5373" ry="18"/>
<text text-anchor="middle" x="600" y="-99.8" font-family="Times,serif" font-size="14.00" fill="#000000">LocalStorage</text>
</g>
<!-- LocalStorage&#45;&gt;HelgolandCoreModule -->
<g id="edge7" class="edge">
<title>LocalStorage&#45;&gt;HelgolandCoreModule</title>
<path fill="none" stroke="#000000" d="M600,-122.0091C600,-138.0494 600,-159 600,-159 600,-159 678.037,-159 678.037,-159"/>
<polygon fill="#000000" stroke="#000000" points="678.0371,-162.5001 688.037,-159 678.037,-155.5001 678.0371,-162.5001"/>
</g>
<!-- NotifierService -->
<g id="node9" class="node">
<title>NotifierService</title>
<ellipse fill="#fdb462" stroke="#000000" cx="449" cy="-104" rx="70.6181" ry="18"/>
<text text-anchor="middle" x="449" y="-99.8" font-family="Times,serif" font-size="14.00" fill="#000000">NotifierService</text>
</g>
<!-- NotifierService&#45;&gt;HelgolandCoreModule -->
<g id="edge8" class="edge">
<title>NotifierService&#45;&gt;HelgolandCoreModule</title>
<path fill="none" stroke="#000000" d="M449,-122.2667C449,-140.5552 449,-166 449,-166 449,-166 678.2436,-166 678.2436,-166"/>
<polygon fill="#000000" stroke="#000000" points="678.2437,-169.5001 688.2436,-166 678.2436,-162.5001 678.2437,-169.5001"/>
</g>
<!-- StatusIntervalResolverService -->
<g id="node10" class="node">
<title>StatusIntervalResolverService</title>
<ellipse fill="#fdb462" stroke="#000000" cx="232" cy="-104" rx="127.9005" ry="18"/>
<text text-anchor="middle" x="232" y="-99.8" font-family="Times,serif" font-size="14.00" fill="#000000">StatusIntervalResolverService</text>
</g>
<!-- StatusIntervalResolverService&#45;&gt;HelgolandCoreModule -->
<g id="edge9" class="edge">
<title>StatusIntervalResolverService&#45;&gt;HelgolandCoreModule</title>
<path fill="none" stroke="#000000" d="M232,-122.1289C232,-142.5724 232,-173 232,-173 232,-173 678.2773,-173 678.2773,-173"/>
<polygon fill="#000000" stroke="#000000" points="678.2773,-176.5001 688.2773,-173 678.2773,-169.5001 678.2773,-176.5001"/>
</g>
<!-- Time -->
<g id="node11" class="node">
<title>Time</title>
<ellipse fill="#fdb462" stroke="#000000" cx="55" cy="-104" rx="31.3371" ry="18"/>
<text text-anchor="middle" x="55" y="-99.8" font-family="Times,serif" font-size="14.00" fill="#000000">Time</text>
</g>
<!-- Time&#45;&gt;HelgolandCoreModule -->
<g id="edge10" class="edge">
<title>Time&#45;&gt;HelgolandCoreModule</title>
<path fill="none" stroke="#000000" d="M55,-122.0109C55,-144.4852 55,-180 55,-180 55,-180 678.4344,-180 678.4344,-180"/>
<polygon fill="#000000" stroke="#000000" points="678.4344,-183.5001 688.4344,-180 678.4344,-176.5001 678.4344,-183.5001"/>
</g>
</g>
</svg>
