<?xml version="1.0" encoding="UTF-8" standalone="no"?>
<!DOCTYPE svg PUBLIC "-//W3C//DTD SVG 1.1//EN"
 "http://www.w3.org/Graphics/SVG/1.1/DTD/svg11.dtd">
<!-- Generated by graphviz version 2.40.1 (20161225.0304)
 -->
<!-- Title: dependencies Pages: 1 -->
<svg width="504pt" height="284pt"
 viewBox="0.00 0.00 504.00 284.00" xmlns="http://www.w3.org/2000/svg" xmlns:xlink="http://www.w3.org/1999/xlink">
<g id="graph0" class="graph" transform="scale(1 1) rotate(0) translate(4 280)">
<title>dependencies</title>
<polygon fill="#ffffff" stroke="transparent" points="-4,4 -4,-280 500,-280 500,4 -4,4"/>
<text text-anchor="start" x="227.0091" y="-42.4" font-family="sans-serif" font-weight="bold" font-size="14.00" fill="#000000">Legend</text>
<polygon fill="#ffffb3" stroke="transparent" points="14,-10 14,-30 34,-30 34,-10 14,-10"/>
<text text-anchor="start" x="37.629" y="-15.4" font-family="sans-serif" font-size="14.00" fill="#000000"> &#160;Declarations</text>
<polygon fill="#8dd3c7" stroke="transparent" points="127,-10 127,-30 147,-30 147,-10 127,-10"/>
<text text-anchor="start" x="150.7251" y="-15.4" font-family="sans-serif" font-size="14.00" fill="#000000"> &#160;Module</text>
<polygon fill="#80b1d3" stroke="transparent" points="213,-10 213,-30 233,-30 233,-10 213,-10"/>
<text text-anchor="start" x="236.7812" y="-15.4" font-family="sans-serif" font-size="14.00" fill="#000000"> &#160;Bootstrap</text>
<polygon fill="#fdb462" stroke="transparent" points="310,-10 310,-30 330,-30 330,-10 310,-10"/>
<text text-anchor="start" x="333.6732" y="-15.4" font-family="sans-serif" font-size="14.00" fill="#000000"> &#160;Providers</text>
<polygon fill="#fb8072" stroke="transparent" points="406,-10 406,-30 426,-30 426,-10 406,-10"/>
<text text-anchor="start" x="429.7258" y="-15.4" font-family="sans-serif" font-size="14.00" fill="#000000"> &#160;Exports</text>
<g id="clust1" class="cluster">
<title>cluster_HelgolandLabelMapperModule</title>
<polygon fill="none" stroke="#000000" stroke-dasharray="1,5" points="50,-70 50,-268 446,-268 446,-70 50,-70"/>
</g>
<g id="clust2" class="cluster">
<title>cluster_HelgolandLabelMapperModule_declarations</title>
<polygon fill="none" stroke="#000000" points="266,-78 266,-130 438,-130 438,-78 266,-78"/>
</g>
<g id="clust5" class="cluster">
<title>cluster_HelgolandLabelMapperModule_exports</title>
<polygon fill="none" stroke="#000000" points="161,-208 161,-260 337,-260 337,-208 161,-208"/>
</g>
<g id="clust7" class="cluster">
<title>cluster_HelgolandLabelMapperModule_providers</title>
<polygon fill="none" stroke="#000000" points="58,-78 58,-130 258,-130 258,-78 58,-78"/>
</g>
<!-- LabelMapperComponent -->
<g id="node1" class="node">
<title>LabelMapperComponent</title>
<polygon fill="#ffffb3" stroke="#000000" points="430.2394,-122 273.7606,-122 273.7606,-86 430.2394,-86 430.2394,-122"/>
<text text-anchor="middle" x="352" y="-99.8" font-family="Times,serif" font-size="14.00" fill="#000000">LabelMapperComponent</text>
</g>
<!-- HelgolandLabelMapperModule -->
<g id="node2" class="node">
<title>HelgolandLabelMapperModule</title>
<polygon fill="#8dd3c7" stroke="#000000" points="345.7738,-187 342.7738,-191 321.7738,-191 318.7738,-187 152.2262,-187 152.2262,-151 345.7738,-151 345.7738,-187"/>
<text text-anchor="middle" x="249" y="-164.8" font-family="Times,serif" font-size="14.00" fill="#000000">HelgolandLabelMapperModule</text>
</g>
<!-- LabelMapperComponent&#45;&gt;HelgolandLabelMapperModule -->
<g id="edge1" class="edge">
<title>LabelMapperComponent&#45;&gt;HelgolandLabelMapperModule</title>
<path fill="none" stroke="#000000" d="M309.6336,-122.1061C309.6336,-122.1061 309.6336,-140.991 309.6336,-140.991"/>
<polygon fill="#000000" stroke="#000000" points="306.1337,-140.9909 309.6336,-150.991 313.1337,-140.991 306.1337,-140.9909"/>
</g>
<!-- LabelMapperComponent  -->
<g id="node3" class="node">
<title>LabelMapperComponent </title>
<polygon fill="#fb8072" stroke="#000000" points="329.2394,-252 168.7606,-252 168.7606,-216 329.2394,-216 329.2394,-252"/>
<text text-anchor="middle" x="249" y="-229.8" font-family="Times,serif" font-size="14.00" fill="#000000">LabelMapperComponent </text>
</g>
<!-- HelgolandLabelMapperModule&#45;&gt;LabelMapperComponent  -->
<g id="edge2" class="edge">
<title>HelgolandLabelMapperModule&#45;&gt;LabelMapperComponent </title>
<path fill="none" stroke="#000000" stroke-dasharray="5,2" d="M249,-187.1061C249,-187.1061 249,-205.991 249,-205.991"/>
<polygon fill="#000000" stroke="#000000" points="245.5001,-205.9909 249,-215.991 252.5001,-205.991 245.5001,-205.9909"/>
</g>
<!-- LabelMapperService -->
<g id="node4" class="node">
<title>LabelMapperService</title>
<ellipse fill="#fdb462" stroke="#000000" cx="158" cy="-104" rx="92.0123" ry="18"/>
<text text-anchor="middle" x="158" y="-99.8" font-family="Times,serif" font-size="14.00" fill="#000000">LabelMapperService</text>
</g>
<!-- LabelMapperService&#45;&gt;HelgolandLabelMapperModule -->
<g id="edge3" class="edge">
<title>LabelMapperService&#45;&gt;HelgolandLabelMapperModule</title>
<path fill="none" stroke="#000000" d="M201.1847,-120.0674C201.1847,-120.0674 201.1847,-140.8237 201.1847,-140.8237"/>
<polygon fill="#000000" stroke="#000000" points="197.6848,-140.8236 201.1847,-150.8237 204.6848,-140.8237 197.6848,-140.8236"/>
</g>
</g>
</svg>
