<?xml version="1.0" encoding="UTF-8" standalone="no"?>
<!DOCTYPE svg PUBLIC "-//W3C//DTD SVG 1.1//EN"
 "http://www.w3.org/Graphics/SVG/1.1/DTD/svg11.dtd">
<!-- Generated by graphviz version 2.40.1 (20161225.0304)
 -->
<!-- Title: dependencies Pages: 1 -->
<svg width="901pt" height="284pt"
 viewBox="0.00 0.00 901.00 284.00" xmlns="http://www.w3.org/2000/svg" xmlns:xlink="http://www.w3.org/1999/xlink">
<g id="graph0" class="graph" transform="scale(1 1) rotate(0) translate(4 280)">
<title>dependencies</title>
<polygon fill="#ffffff" stroke="transparent" points="-4,4 -4,-280 897,-280 897,4 -4,4"/>
<text text-anchor="start" x="425.5091" y="-42.4" font-family="sans-serif" font-weight="bold" font-size="14.00" fill="#000000">Legend</text>
<polygon fill="#ffffb3" stroke="transparent" points="212.5,-10 212.5,-30 232.5,-30 232.5,-10 212.5,-10"/>
<text text-anchor="start" x="236.129" y="-15.4" font-family="sans-serif" font-size="14.00" fill="#000000"> &#160;Declarations</text>
<polygon fill="#8dd3c7" stroke="transparent" points="325.5,-10 325.5,-30 345.5,-30 345.5,-10 325.5,-10"/>
<text text-anchor="start" x="349.2251" y="-15.4" font-family="sans-serif" font-size="14.00" fill="#000000"> &#160;Module</text>
<polygon fill="#80b1d3" stroke="transparent" points="411.5,-10 411.5,-30 431.5,-30 431.5,-10 411.5,-10"/>
<text text-anchor="start" x="435.2812" y="-15.4" font-family="sans-serif" font-size="14.00" fill="#000000"> &#160;Bootstrap</text>
<polygon fill="#fdb462" stroke="transparent" points="508.5,-10 508.5,-30 528.5,-30 528.5,-10 508.5,-10"/>
<text text-anchor="start" x="532.1732" y="-15.4" font-family="sans-serif" font-size="14.00" fill="#000000"> &#160;Providers</text>
<polygon fill="#fb8072" stroke="transparent" points="604.5,-10 604.5,-30 624.5,-30 624.5,-10 604.5,-10"/>
<text text-anchor="start" x="628.2258" y="-15.4" font-family="sans-serif" font-size="14.00" fill="#000000"> &#160;Exports</text>
<g id="clust1" class="cluster">
<title>cluster_HelgolandPermalinkModule</title>
<polygon fill="none" stroke="#000000" stroke-dasharray="1,5" points="8,-70 8,-268 885,-268 885,-70 8,-70"/>
</g>
<g id="clust2" class="cluster">
<title>cluster_HelgolandPermalinkModule_declarations</title>
<polygon fill="none" stroke="#000000" points="24,-78 24,-130 871,-130 871,-78 24,-78"/>
</g>
<g id="clust8" class="cluster">
<title>cluster_HelgolandPermalinkModule_exports</title>
<polygon fill="none" stroke="#000000" points="16,-208 16,-260 877,-260 877,-208 16,-208"/>
</g>
<!-- PermalinkButtonComponent -->
<g id="node1" class="node">
<title>PermalinkButtonComponent</title>
<polygon fill="#ffffb3" stroke="#000000" points="863.4944,-122 686.5056,-122 686.5056,-86 863.4944,-86 863.4944,-122"/>
<text text-anchor="middle" x="775" y="-99.8" font-family="Times,serif" font-size="14.00" fill="#000000">PermalinkButtonComponent</text>
</g>
<!-- HelgolandPermalinkModule -->
<g id="node5" class="node">
<title>HelgolandPermalinkModule</title>
<polygon fill="#8dd3c7" stroke="#000000" points="456.9115,-187 453.9115,-191 432.9115,-191 429.9115,-187 281.0885,-187 281.0885,-151 456.9115,-151 456.9115,-187"/>
<text text-anchor="middle" x="369" y="-164.8" font-family="Times,serif" font-size="14.00" fill="#000000">HelgolandPermalinkModule</text>
</g>
<!-- PermalinkButtonComponent&#45;&gt;HelgolandPermalinkModule -->
<g id="edge1" class="edge">
<title>PermalinkButtonComponent&#45;&gt;HelgolandPermalinkModule</title>
<path fill="none" stroke="#000000" d="M805.2491,-122.2667C805.2491,-140.5552 805.2491,-166 805.2491,-166 805.2491,-166 466.7567,-166 466.7567,-166"/>
<polygon fill="#000000" stroke="#000000" points="466.7568,-162.5001 456.7567,-166 466.7567,-169.5001 466.7568,-162.5001"/>
</g>
<!-- PermalinkInMailComponent -->
<g id="node2" class="node">
<title>PermalinkInMailComponent</title>
<polygon fill="#ffffb3" stroke="#000000" points="668.4776,-122 491.5224,-122 491.5224,-86 668.4776,-86 668.4776,-122"/>
<text text-anchor="middle" x="580" y="-99.8" font-family="Times,serif" font-size="14.00" fill="#000000">PermalinkInMailComponent</text>
</g>
<!-- PermalinkInMailComponent&#45;&gt;HelgolandPermalinkModule -->
<g id="edge2" class="edge">
<title>PermalinkInMailComponent&#45;&gt;HelgolandPermalinkModule</title>
<path fill="none" stroke="#000000" d="M609.4963,-122.0091C609.4963,-138.0494 609.4963,-159 609.4963,-159 609.4963,-159 466.8455,-159 466.8455,-159"/>
<polygon fill="#000000" stroke="#000000" points="466.8456,-155.5001 456.8455,-159 466.8455,-162.5001 466.8456,-155.5001"/>
</g>
<!-- PermalinkNewWindowComponent -->
<g id="node3" class="node">
<title>PermalinkNewWindowComponent</title>
<polygon fill="#ffffb3" stroke="#000000" points="473.5167,-122 260.4833,-122 260.4833,-86 473.5167,-86 473.5167,-122"/>
<text text-anchor="middle" x="367" y="-99.8" font-family="Times,serif" font-size="14.00" fill="#000000">PermalinkNewWindowComponent</text>
</g>
<!-- PermalinkNewWindowComponent&#45;&gt;HelgolandPermalinkModule -->
<g id="edge3" class="edge">
<title>PermalinkNewWindowComponent&#45;&gt;HelgolandPermalinkModule</title>
<path fill="none" stroke="#000000" d="M369,-122.1061C369,-122.1061 369,-140.991 369,-140.991"/>
<polygon fill="#000000" stroke="#000000" points="365.5001,-140.9909 369,-150.991 372.5001,-140.991 365.5001,-140.9909"/>
</g>
<!-- PermalinkToClipboardComponent -->
<g id="node4" class="node">
<title>PermalinkToClipboardComponent</title>
<polygon fill="#ffffb3" stroke="#000000" points="242.4226,-122 31.5774,-122 31.5774,-86 242.4226,-86 242.4226,-122"/>
<text text-anchor="middle" x="137" y="-99.8" font-family="Times,serif" font-size="14.00" fill="#000000">PermalinkToClipboardComponent</text>
</g>
<!-- PermalinkToClipboardComponent&#45;&gt;HelgolandPermalinkModule -->
<g id="edge4" class="edge">
<title>PermalinkToClipboardComponent&#45;&gt;HelgolandPermalinkModule</title>
<path fill="none" stroke="#000000" d="M169.237,-122.0225C169.237,-139.3734 169.237,-163 169.237,-163 169.237,-163 271.0904,-163 271.0904,-163"/>
<polygon fill="#000000" stroke="#000000" points="271.0904,-166.5001 281.0904,-163 271.0903,-159.5001 271.0904,-166.5001"/>
</g>
<!-- PermalinkButtonComponent  -->
<g id="node6" class="node">
<title>PermalinkButtonComponent </title>
<polygon fill="#fb8072" stroke="#000000" points="869.4951,-252 688.5049,-252 688.5049,-216 869.4951,-216 869.4951,-252"/>
<text text-anchor="middle" x="779" y="-229.8" font-family="Times,serif" font-size="14.00" fill="#000000">PermalinkButtonComponent </text>
</g>
<!-- HelgolandPermalinkModule&#45;&gt;PermalinkButtonComponent  -->
<g id="edge5" class="edge">
<title>HelgolandPermalinkModule&#45;&gt;PermalinkButtonComponent </title>
<path fill="none" stroke="#000000" stroke-dasharray="5,2" d="M457.1474,-173C568.8436,-173 747.0009,-173 747.0009,-173 747.0009,-173 747.0009,-205.698 747.0009,-205.698"/>
<polygon fill="#000000" stroke="#000000" points="743.501,-205.698 747.0009,-215.698 750.501,-205.698 743.501,-205.698"/>
</g>
<!-- PermalinkInMailComponent  -->
<g id="node7" class="node">
<title>PermalinkInMailComponent </title>
<polygon fill="#fb8072" stroke="#000000" points="671.4782,-252 490.5218,-252 490.5218,-216 671.4782,-216 671.4782,-252"/>
<text text-anchor="middle" x="581" y="-229.8" font-family="Times,serif" font-size="14.00" fill="#000000">PermalinkInMailComponent </text>
</g>
<!-- HelgolandPermalinkModule&#45;&gt;PermalinkInMailComponent  -->
<g id="edge6" class="edge">
<title>HelgolandPermalinkModule&#45;&gt;PermalinkInMailComponent </title>
<path fill="none" stroke="#000000" stroke-dasharray="5,2" d="M456.8277,-180C503.1571,-180 550.5037,-180 550.5037,-180 550.5037,-180 550.5037,-205.7181 550.5037,-205.7181"/>
<polygon fill="#000000" stroke="#000000" points="547.0038,-205.718 550.5037,-215.7181 554.0038,-205.7181 547.0038,-205.718"/>
</g>
<!-- PermalinkNewWindowComponent  -->
<g id="node8" class="node">
<title>PermalinkNewWindowComponent </title>
<polygon fill="#fb8072" stroke="#000000" points="472.5162,-252 255.4838,-252 255.4838,-216 472.5162,-216 472.5162,-252"/>
<text text-anchor="middle" x="364" y="-229.8" font-family="Times,serif" font-size="14.00" fill="#000000">PermalinkNewWindowComponent </text>
</g>
<!-- HelgolandPermalinkModule&#45;&gt;PermalinkNewWindowComponent  -->
<g id="edge7" class="edge">
<title>HelgolandPermalinkModule&#45;&gt;PermalinkNewWindowComponent </title>
<path fill="none" stroke="#000000" stroke-dasharray="5,2" d="M369,-187.1061C369,-187.1061 369,-205.991 369,-205.991"/>
<polygon fill="#000000" stroke="#000000" points="365.5001,-205.9909 369,-215.991 372.5001,-205.991 365.5001,-205.9909"/>
</g>
<!-- PermalinkToClipboardComponent  -->
<g id="node9" class="node">
<title>PermalinkToClipboardComponent </title>
<polygon fill="#fb8072" stroke="#000000" points="237.9222,-252 24.0778,-252 24.0778,-216 237.9222,-216 237.9222,-252"/>
<text text-anchor="middle" x="131" y="-229.8" font-family="Times,serif" font-size="14.00" fill="#000000">PermalinkToClipboardComponent </text>
</g>
<!-- HelgolandPermalinkModule&#45;&gt;PermalinkToClipboardComponent  -->
<g id="edge8" class="edge">
<title>HelgolandPermalinkModule&#45;&gt;PermalinkToClipboardComponent </title>
<path fill="none" stroke="#000000" stroke-dasharray="5,2" d="M281.0873,-175C202.7852,-175 100.513,-175 100.513,-175 100.513,-175 100.513,-205.9775 100.513,-205.9775"/>
<polygon fill="#000000" stroke="#000000" points="97.0131,-205.9774 100.513,-215.9775 104.0131,-205.9775 97.0131,-205.9774"/>
</g>
</g>
</svg>
