<?xml version="1.0" encoding="UTF-8" standalone="no"?>
<!DOCTYPE svg PUBLIC "-//W3C//DTD SVG 1.1//EN"
 "http://www.w3.org/Graphics/SVG/1.1/DTD/svg11.dtd">
<!-- Generated by graphviz version 2.40.1 (20161225.0304)
 -->
<!-- Title: dependencies Pages: 1 -->
<svg width="2137pt" height="284pt"
 viewBox="0.00 0.00 2137.00 284.00" xmlns="http://www.w3.org/2000/svg" xmlns:xlink="http://www.w3.org/1999/xlink">
<g id="graph0" class="graph" transform="scale(1 1) rotate(0) translate(4 280)">
<title>dependencies</title>
<polygon fill="#ffffff" stroke="transparent" points="-4,4 -4,-280 2133,-280 2133,4 -4,4"/>
<text text-anchor="start" x="1043.5091" y="-42.4" font-family="sans-serif" font-weight="bold" font-size="14.00" fill="#000000">Legend</text>
<polygon fill="#ffffb3" stroke="transparent" points="830.5,-10 830.5,-30 850.5,-30 850.5,-10 830.5,-10"/>
<text text-anchor="start" x="854.129" y="-15.4" font-family="sans-serif" font-size="14.00" fill="#000000"> &#160;Declarations</text>
<polygon fill="#8dd3c7" stroke="transparent" points="943.5,-10 943.5,-30 963.5,-30 963.5,-10 943.5,-10"/>
<text text-anchor="start" x="967.2251" y="-15.4" font-family="sans-serif" font-size="14.00" fill="#000000"> &#160;Module</text>
<polygon fill="#80b1d3" stroke="transparent" points="1029.5,-10 1029.5,-30 1049.5,-30 1049.5,-10 1029.5,-10"/>
<text text-anchor="start" x="1053.2812" y="-15.4" font-family="sans-serif" font-size="14.00" fill="#000000"> &#160;Bootstrap</text>
<polygon fill="#fdb462" stroke="transparent" points="1126.5,-10 1126.5,-30 1146.5,-30 1146.5,-10 1126.5,-10"/>
<text text-anchor="start" x="1150.1732" y="-15.4" font-family="sans-serif" font-size="14.00" fill="#000000"> &#160;Providers</text>
<polygon fill="#fb8072" stroke="transparent" points="1222.5,-10 1222.5,-30 1242.5,-30 1242.5,-10 1222.5,-10"/>
<text text-anchor="start" x="1246.2258" y="-15.4" font-family="sans-serif" font-size="14.00" fill="#000000"> &#160;Exports</text>
<g id="clust1" class="cluster">
<title>cluster_HelgolandPermalinkModule</title>
<polygon fill="none" stroke="#000000" stroke-dasharray="1,5" points="8,-70 8,-268 2121,-268 2121,-70 8,-70"/>
</g>
<g id="clust2" class="cluster">
<title>cluster_HelgolandPermalinkModule_declarations</title>
<polygon fill="none" stroke="#000000" points="33,-78 33,-130 2096,-130 2096,-78 33,-78"/>
</g>
<g id="clust13" class="cluster">
<title>cluster_HelgolandPermalinkModule_exports</title>
<polygon fill="none" stroke="#000000" points="16,-208 16,-260 2113,-260 2113,-208 16,-208"/>
</g>
<!-- D3GeneralGraphComponent -->
<g id="node1" class="node">
<title>D3GeneralGraphComponent</title>
<polygon fill="#ffffb3" stroke="#000000" points="2087.7226,-122 1910.2774,-122 1910.2774,-86 2087.7226,-86 2087.7226,-122"/>
<text text-anchor="middle" x="1999" y="-99.8" font-family="Times,serif" font-size="14.00" fill="#000000">D3GeneralGraphComponent</text>
</g>
<!-- HelgolandPermalinkModule -->
<g id="node10" class="node">
<title>HelgolandPermalinkModule</title>
<polygon fill="#8dd3c7" stroke="#000000" points="1140.9115,-187 1137.9115,-191 1116.9115,-191 1113.9115,-187 965.0885,-187 965.0885,-151 1140.9115,-151 1140.9115,-187"/>
<text text-anchor="middle" x="1053" y="-164.8" font-family="Times,serif" font-size="14.00" fill="#000000">HelgolandPermalinkModule</text>
</g>
<!-- D3GeneralGraphComponent&#45;&gt;HelgolandPermalinkModule -->
<g id="edge1" class="edge">
<title>D3GeneralGraphComponent&#45;&gt;HelgolandPermalinkModule</title>
<path fill="none" stroke="#000000" d="M1916.7638,-122.2222C1916.7638,-140.8285 1916.7638,-167 1916.7638,-167 1916.7638,-167 1150.9768,-167 1150.9768,-167"/>
<polygon fill="#000000" stroke="#000000" points="1150.9768,-163.5001 1140.9768,-167 1150.9768,-170.5001 1150.9768,-163.5001"/>
</g>
<!-- D3GraphCopyrightComponent -->
<g id="node2" class="node">
<title>D3GraphCopyrightComponent</title>
<polygon fill="#ffffb3" stroke="#000000" points="1892.1993,-122 1701.8007,-122 1701.8007,-86 1892.1993,-86 1892.1993,-122"/>
<text text-anchor="middle" x="1797" y="-99.8" font-family="Times,serif" font-size="14.00" fill="#000000">D3GraphCopyrightComponent</text>
</g>
<!-- D3GraphCopyrightComponent&#45;&gt;HelgolandPermalinkModule -->
<g id="edge2" class="edge">
<title>D3GraphCopyrightComponent&#45;&gt;HelgolandPermalinkModule</title>
<path fill="none" stroke="#000000" d="M1707.0254,-122.0225C1707.0254,-139.3734 1707.0254,-163 1707.0254,-163 1707.0254,-163 1150.8652,-163 1150.8652,-163"/>
<polygon fill="#000000" stroke="#000000" points="1150.8652,-159.5001 1140.8652,-163 1150.8652,-166.5001 1150.8652,-159.5001"/>
</g>
<!-- D3GraphPanZoomInteractionComponent -->
<g id="node3" class="node">
<title>D3GraphPanZoomInteractionComponent</title>
<polygon fill="#ffffb3" stroke="#000000" points="1684.4985,-122 1435.5015,-122 1435.5015,-86 1684.4985,-86 1684.4985,-122"/>
<text text-anchor="middle" x="1560" y="-99.8" font-family="Times,serif" font-size="14.00" fill="#000000">D3GraphPanZoomInteractionComponent</text>
</g>
<!-- D3GraphPanZoomInteractionComponent&#45;&gt;HelgolandPermalinkModule -->
<g id="edge3" class="edge">
<title>D3GraphPanZoomInteractionComponent&#45;&gt;HelgolandPermalinkModule</title>
<path fill="none" stroke="#000000" d="M1603.4997,-122.0091C1603.4997,-138.0494 1603.4997,-159 1603.4997,-159 1603.4997,-159 1150.837,-159 1150.837,-159"/>
<polygon fill="#000000" stroke="#000000" points="1150.8371,-155.5001 1140.837,-159 1150.837,-162.5001 1150.8371,-155.5001"/>
</g>
<!-- D3OverviewTimeseriesGraphComponent -->
<g id="node4" class="node">
<title>D3OverviewTimeseriesGraphComponent</title>
<polygon fill="#ffffb3" stroke="#000000" points="1418.0324,-122 1167.9676,-122 1167.9676,-86 1418.0324,-86 1418.0324,-122"/>
<text text-anchor="middle" x="1293" y="-99.8" font-family="Times,serif" font-size="14.00" fill="#000000">D3OverviewTimeseriesGraphComponent</text>
</g>
<!-- D3OverviewTimeseriesGraphComponent&#45;&gt;HelgolandPermalinkModule -->
<g id="edge4" class="edge">
<title>D3OverviewTimeseriesGraphComponent&#45;&gt;HelgolandPermalinkModule</title>
<path fill="none" stroke="#000000" d="M1335.4221,-122.1243C1335.4221,-136.7832 1335.4221,-155 1335.4221,-155 1335.4221,-155 1150.812,-155 1150.812,-155"/>
<polygon fill="#000000" stroke="#000000" points="1150.812,-151.5001 1140.812,-155 1150.8119,-158.5001 1150.812,-151.5001"/>
</g>
<!-- D3TimeseriesGraphComponent -->
<g id="node5" class="node">
<title>D3TimeseriesGraphComponent</title>
<polygon fill="#ffffb3" stroke="#000000" points="1150.3389,-122 955.6611,-122 955.6611,-86 1150.3389,-86 1150.3389,-122"/>
<text text-anchor="middle" x="1053" y="-99.8" font-family="Times,serif" font-size="14.00" fill="#000000">D3TimeseriesGraphComponent</text>
</g>
<!-- D3TimeseriesGraphComponent&#45;&gt;HelgolandPermalinkModule -->
<g id="edge5" class="edge">
<title>D3TimeseriesGraphComponent&#45;&gt;HelgolandPermalinkModule</title>
<path fill="none" stroke="#000000" d="M1053,-122.1061C1053,-122.1061 1053,-140.991 1053,-140.991"/>
<polygon fill="#000000" stroke="#000000" points="1049.5001,-140.9909 1053,-150.991 1056.5001,-140.991 1049.5001,-140.9909"/>
</g>
<!-- D3TrajectoryGraphComponent -->
<g id="node6" class="node">
<title>D3TrajectoryGraphComponent</title>
<polygon fill="#ffffb3" stroke="#000000" points="937.7198,-122 746.2802,-122 746.2802,-86 937.7198,-86 937.7198,-122"/>
<text text-anchor="middle" x="842" y="-99.8" font-family="Times,serif" font-size="14.00" fill="#000000">D3TrajectoryGraphComponent</text>
</g>
<!-- D3TrajectoryGraphComponent&#45;&gt;HelgolandPermalinkModule -->
<g id="edge6" class="edge">
<title>D3TrajectoryGraphComponent&#45;&gt;HelgolandPermalinkModule</title>
<path fill="none" stroke="#000000" d="M872.4533,-122.1243C872.4533,-136.7832 872.4533,-155 872.4533,-155 872.4533,-155 955.1066,-155 955.1066,-155"/>
<polygon fill="#000000" stroke="#000000" points="955.1067,-158.5001 965.1066,-155 955.1066,-151.5001 955.1067,-158.5001"/>
</g>
<!-- D3YAxisModifierComponent -->
<g id="node7" class="node">
<title>D3YAxisModifierComponent</title>
<polygon fill="#ffffb3" stroke="#000000" points="728.2492,-122 543.7508,-122 543.7508,-86 728.2492,-86 728.2492,-122"/>
<text text-anchor="middle" x="636" y="-99.8" font-family="Times,serif" font-size="14.00" fill="#000000">D3YAxisModifierComponent</text>
</g>
<!-- D3YAxisModifierComponent&#45;&gt;HelgolandPermalinkModule -->
<g id="edge7" class="edge">
<title>D3YAxisModifierComponent&#45;&gt;HelgolandPermalinkModule</title>
<path fill="none" stroke="#000000" d="M662.6248,-122.0091C662.6248,-138.0494 662.6248,-159 662.6248,-159 662.6248,-159 954.9054,-159 954.9054,-159"/>
<polygon fill="#000000" stroke="#000000" points="954.9055,-162.5001 964.9054,-159 954.9054,-155.5001 954.9055,-162.5001"/>
</g>
<!-- ExportImageButtonComponent -->
<g id="node8" class="node">
<title>ExportImageButtonComponent</title>
<polygon fill="#ffffb3" stroke="#000000" points="525.035,-122 332.965,-122 332.965,-86 525.035,-86 525.035,-122"/>
<text text-anchor="middle" x="429" y="-99.8" font-family="Times,serif" font-size="14.00" fill="#000000">ExportImageButtonComponent</text>
</g>
<!-- ExportImageButtonComponent&#45;&gt;HelgolandPermalinkModule -->
<g id="edge8" class="edge">
<title>ExportImageButtonComponent&#45;&gt;HelgolandPermalinkModule</title>
<path fill="none" stroke="#000000" d="M520.6422,-122.0225C520.6422,-139.3734 520.6422,-163 520.6422,-163 520.6422,-163 955.0919,-163 955.0919,-163"/>
<polygon fill="#000000" stroke="#000000" points="955.092,-166.5001 965.0919,-163 955.0919,-159.5001 955.092,-166.5001"/>
</g>
<!-- ExtendedDataD3TimeseriesGraphComponent -->
<g id="node9" class="node">
<title>ExtendedDataD3TimeseriesGraphComponent</title>
<polygon fill="#ffffb3" stroke="#000000" points="315.1376,-122 40.8624,-122 40.8624,-86 315.1376,-86 315.1376,-122"/>
<text text-anchor="middle" x="178" y="-99.8" font-family="Times,serif" font-size="14.00" fill="#000000">ExtendedDataD3TimeseriesGraphComponent</text>
</g>
<!-- ExtendedDataD3TimeseriesGraphComponent&#45;&gt;HelgolandPermalinkModule -->
<g id="edge9" class="edge">
<title>ExtendedDataD3TimeseriesGraphComponent&#45;&gt;HelgolandPermalinkModule</title>
<path fill="none" stroke="#000000" d="M308.4438,-122.2222C308.4438,-140.8285 308.4438,-167 308.4438,-167 308.4438,-167 955.0335,-167 955.0335,-167"/>
<polygon fill="#000000" stroke="#000000" points="955.0335,-170.5001 965.0335,-167 955.0334,-163.5001 955.0335,-170.5001"/>
</g>
<!-- D3GeneralGraphComponent  -->
<g id="node11" class="node">
<title>D3GeneralGraphComponent </title>
<polygon fill="#fb8072" stroke="#000000" points="2104.7225,-252 1923.2775,-252 1923.2775,-216 2104.7225,-216 2104.7225,-252"/>
<text text-anchor="middle" x="2014" y="-229.8" font-family="Times,serif" font-size="14.00" fill="#000000">D3GeneralGraphComponent </text>
</g>
<!-- HelgolandPermalinkModule&#45;&gt;D3GeneralGraphComponent  -->
<g id="edge10" class="edge">
<title>HelgolandPermalinkModule&#45;&gt;D3GeneralGraphComponent </title>
<path fill="none" stroke="#000000" stroke-dasharray="5,2" d="M1140.9131,-171C1376.7437,-171 2005.625,-171 2005.625,-171 2005.625,-171 2005.625,-205.7778 2005.625,-205.7778"/>
<polygon fill="#000000" stroke="#000000" points="2002.1251,-205.7778 2005.625,-215.7778 2009.1251,-205.7778 2002.1251,-205.7778"/>
</g>
<!-- D3GraphCopyrightComponent  -->
<g id="node12" class="node">
<title>D3GraphCopyrightComponent </title>
<polygon fill="#fb8072" stroke="#000000" points="1905.6994,-252 1712.3006,-252 1712.3006,-216 1905.6994,-216 1905.6994,-252"/>
<text text-anchor="middle" x="1809" y="-229.8" font-family="Times,serif" font-size="14.00" fill="#000000">D3GraphCopyrightComponent </text>
</g>
<!-- HelgolandPermalinkModule&#45;&gt;D3GraphCopyrightComponent  -->
<g id="edge11" class="edge">
<title>HelgolandPermalinkModule&#45;&gt;D3GraphCopyrightComponent </title>
<path fill="none" stroke="#000000" stroke-dasharray="5,2" d="M1140.7683,-175C1338.5869,-175 1802.125,-175 1802.125,-175 1802.125,-175 1802.125,-205.9775 1802.125,-205.9775"/>
<polygon fill="#000000" stroke="#000000" points="1798.6251,-205.9774 1802.125,-215.9775 1805.6251,-205.9775 1798.6251,-205.9774"/>
</g>
<!-- D3GraphPanZoomInteractionComponent  -->
<g id="node13" class="node">
<title>D3GraphPanZoomInteractionComponent </title>
<polygon fill="#fb8072" stroke="#000000" points="1693.998,-252 1442.002,-252 1442.002,-216 1693.998,-216 1693.998,-252"/>
<text text-anchor="middle" x="1568" y="-229.8" font-family="Times,serif" font-size="14.00" fill="#000000">D3GraphPanZoomInteractionComponent </text>
</g>
<!-- HelgolandPermalinkModule&#45;&gt;D3GraphPanZoomInteractionComponent  -->
<g id="edge12" class="edge">
<title>HelgolandPermalinkModule&#45;&gt;D3GraphPanZoomInteractionComponent </title>
<path fill="none" stroke="#000000" stroke-dasharray="5,2" d="M1140.8054,-179C1276.7682,-179 1522.7503,-179 1522.7503,-179 1522.7503,-179 1522.7503,-205.9909 1522.7503,-205.9909"/>
<polygon fill="#000000" stroke="#000000" points="1519.2504,-205.9909 1522.7503,-215.9909 1526.2504,-205.991 1519.2504,-205.9909"/>
</g>
<!-- D3OverviewTimeseriesGraphComponent  -->
<g id="node14" class="node">
<title>D3OverviewTimeseriesGraphComponent </title>
<polygon fill="#fb8072" stroke="#000000" points="1423.5328,-252 1170.4672,-252 1170.4672,-216 1423.5328,-216 1423.5328,-252"/>
<text text-anchor="middle" x="1297" y="-229.8" font-family="Times,serif" font-size="14.00" fill="#000000">D3OverviewTimeseriesGraphComponent </text>
</g>
<!-- HelgolandPermalinkModule&#45;&gt;D3OverviewTimeseriesGraphComponent  -->
<g id="edge13" class="edge">
<title>HelgolandPermalinkModule&#45;&gt;D3OverviewTimeseriesGraphComponent </title>
<path fill="none" stroke="#000000" stroke-dasharray="5,2" d="M1140.9382,-183C1194.5497,-183 1252.8279,-183 1252.8279,-183 1252.8279,-183 1252.8279,-205.8757 1252.8279,-205.8757"/>
<polygon fill="#000000" stroke="#000000" points="1249.328,-205.8757 1252.8279,-215.8757 1256.328,-205.8757 1249.328,-205.8757"/>
</g>
<!-- D3TimeseriesGraphComponent  -->
<g id="node15" class="node">
<title>D3TimeseriesGraphComponent </title>
<polygon fill="#fb8072" stroke="#000000" points="1152.3391,-252 953.6609,-252 953.6609,-216 1152.3391,-216 1152.3391,-252"/>
<text text-anchor="middle" x="1053" y="-229.8" font-family="Times,serif" font-size="14.00" fill="#000000">D3TimeseriesGraphComponent </text>
</g>
<!-- HelgolandPermalinkModule&#45;&gt;D3TimeseriesGraphComponent  -->
<g id="edge14" class="edge">
<title>HelgolandPermalinkModule&#45;&gt;D3TimeseriesGraphComponent </title>
<path fill="none" stroke="#000000" stroke-dasharray="5,2" d="M1053,-187.1061C1053,-187.1061 1053,-205.991 1053,-205.991"/>
<polygon fill="#000000" stroke="#000000" points="1049.5001,-205.9909 1053,-215.991 1056.5001,-205.991 1049.5001,-205.9909"/>
</g>
<!-- D3TrajectoryGraphComponent  -->
<g id="node16" class="node">
<title>D3TrajectoryGraphComponent </title>
<polygon fill="#fb8072" stroke="#000000" points="935.7197,-252 740.2803,-252 740.2803,-216 935.7197,-216 935.7197,-252"/>
<text text-anchor="middle" x="838" y="-229.8" font-family="Times,serif" font-size="14.00" fill="#000000">D3TrajectoryGraphComponent </text>
</g>
<!-- HelgolandPermalinkModule&#45;&gt;D3TrajectoryGraphComponent  -->
<g id="edge15" class="edge">
<title>HelgolandPermalinkModule&#45;&gt;D3TrajectoryGraphComponent </title>
<path fill="none" stroke="#000000" stroke-dasharray="5,2" d="M965.0175,-183C895.2117,-183 809.2967,-183 809.2967,-183 809.2967,-183 809.2967,-205.8757 809.2967,-205.8757"/>
<polygon fill="#000000" stroke="#000000" points="805.7968,-205.8757 809.2967,-215.8757 812.7968,-205.8757 805.7968,-205.8757"/>
</g>
<!-- D3YAxisModifierComponent  -->
<g id="node17" class="node">
<title>D3YAxisModifierComponent </title>
<polygon fill="#fb8072" stroke="#000000" points="722.2492,-252 533.7508,-252 533.7508,-216 722.2492,-216 722.2492,-252"/>
<text text-anchor="middle" x="628" y="-229.8" font-family="Times,serif" font-size="14.00" fill="#000000">D3YAxisModifierComponent </text>
</g>
<!-- HelgolandPermalinkModule&#45;&gt;D3YAxisModifierComponent  -->
<g id="edge16" class="edge">
<title>HelgolandPermalinkModule&#45;&gt;D3YAxisModifierComponent </title>
<path fill="none" stroke="#000000" stroke-dasharray="5,2" d="M965.1916,-179C834.2698,-179 603.1252,-179 603.1252,-179 603.1252,-179 603.1252,-205.9909 603.1252,-205.9909"/>
<polygon fill="#000000" stroke="#000000" points="599.6253,-205.9909 603.1252,-215.9909 606.6253,-205.991 599.6253,-205.9909"/>
</g>
<!-- ExportImageButtonComponent  -->
<g id="node18" class="node">
<title>ExportImageButtonComponent </title>
<polygon fill="#fb8072" stroke="#000000" points="516.0344,-252 319.9656,-252 319.9656,-216 516.0344,-216 516.0344,-252"/>
<text text-anchor="middle" x="418" y="-229.8" font-family="Times,serif" font-size="14.00" fill="#000000">ExportImageButtonComponent </text>
</g>
<!-- HelgolandPermalinkModule&#45;&gt;ExportImageButtonComponent  -->
<g id="edge17" class="edge">
<title>HelgolandPermalinkModule&#45;&gt;ExportImageButtonComponent </title>
<path fill="none" stroke="#000000" stroke-dasharray="5,2" d="M965.2617,-175C792.3936,-175 424.375,-175 424.375,-175 424.375,-175 424.375,-205.9775 424.375,-205.9775"/>
<polygon fill="#000000" stroke="#000000" points="420.8751,-205.9774 424.375,-215.9775 427.8751,-205.9775 420.8751,-205.9774"/>
</g>
<!-- ExtendedDataD3TimeseriesGraphComponent  -->
<g id="node19" class="node">
<title>ExtendedDataD3TimeseriesGraphComponent </title>
<polygon fill="#fb8072" stroke="#000000" points="301.6378,-252 24.3622,-252 24.3622,-216 301.6378,-216 301.6378,-252"/>
<text text-anchor="middle" x="163" y="-229.8" font-family="Times,serif" font-size="14.00" fill="#000000">ExtendedDataD3TimeseriesGraphComponent </text>
</g>
<!-- HelgolandPermalinkModule&#45;&gt;ExtendedDataD3TimeseriesGraphComponent  -->
<g id="edge18" class="edge">
<title>HelgolandPermalinkModule&#45;&gt;ExtendedDataD3TimeseriesGraphComponent </title>
<path fill="none" stroke="#000000" stroke-dasharray="5,2" d="M965.2433,-171C742.2466,-171 171.375,-171 171.375,-171 171.375,-171 171.375,-205.7778 171.375,-205.7778"/>
<polygon fill="#000000" stroke="#000000" points="167.8751,-205.7778 171.375,-215.7778 174.8751,-205.7778 167.8751,-205.7778"/>
</g>
</g>
</svg>
