<?xml version="1.0" encoding="UTF-8" standalone="no"?>
<!DOCTYPE svg PUBLIC "-//W3C//DTD SVG 1.1//EN"
 "http://www.w3.org/Graphics/SVG/1.1/DTD/svg11.dtd">
<!-- Generated by graphviz version 2.40.1 (20161225.0304)
 -->
<!-- Title: dependencies Pages: 1 -->
<svg width="703pt" height="284pt"
 viewBox="0.00 0.00 703.00 284.00" xmlns="http://www.w3.org/2000/svg" xmlns:xlink="http://www.w3.org/1999/xlink">
<g id="graph0" class="graph" transform="scale(1 1) rotate(0) translate(4 280)">
<title>dependencies</title>
<polygon fill="#ffffff" stroke="transparent" points="-4,4 -4,-280 699,-280 699,4 -4,4"/>
<text text-anchor="start" x="326.5091" y="-42.4" font-family="sans-serif" font-weight="bold" font-size="14.00" fill="#000000">Legend</text>
<polygon fill="#ffffb3" stroke="transparent" points="113.5,-10 113.5,-30 133.5,-30 133.5,-10 113.5,-10"/>
<text text-anchor="start" x="137.129" y="-15.4" font-family="sans-serif" font-size="14.00" fill="#000000"> &#160;Declarations</text>
<polygon fill="#8dd3c7" stroke="transparent" points="226.5,-10 226.5,-30 246.5,-30 246.5,-10 226.5,-10"/>
<text text-anchor="start" x="250.2251" y="-15.4" font-family="sans-serif" font-size="14.00" fill="#000000"> &#160;Module</text>
<polygon fill="#80b1d3" stroke="transparent" points="312.5,-10 312.5,-30 332.5,-30 332.5,-10 312.5,-10"/>
<text text-anchor="start" x="336.2812" y="-15.4" font-family="sans-serif" font-size="14.00" fill="#000000"> &#160;Bootstrap</text>
<polygon fill="#fdb462" stroke="transparent" points="409.5,-10 409.5,-30 429.5,-30 429.5,-10 409.5,-10"/>
<text text-anchor="start" x="433.1732" y="-15.4" font-family="sans-serif" font-size="14.00" fill="#000000"> &#160;Providers</text>
<polygon fill="#fb8072" stroke="transparent" points="505.5,-10 505.5,-30 525.5,-30 525.5,-10 505.5,-10"/>
<text text-anchor="start" x="529.2258" y="-15.4" font-family="sans-serif" font-size="14.00" fill="#000000"> &#160;Exports</text>
<g id="clust1" class="cluster">
<title>cluster_HelgolandPermalinkModule</title>
<polygon fill="none" stroke="#000000" stroke-dasharray="1,5" points="8,-70 8,-268 687,-268 687,-70 8,-70"/>
</g>
<g id="clust2" class="cluster">
<title>cluster_HelgolandPermalinkModule_declarations</title>
<polygon fill="none" stroke="#000000" points="21,-78 21,-130 673,-130 673,-78 21,-78"/>
</g>
<g id="clust7" class="cluster">
<title>cluster_HelgolandPermalinkModule_exports</title>
<polygon fill="none" stroke="#000000" points="16,-208 16,-260 679,-260 679,-208 16,-208"/>
</g>
<!-- PermalinkInMailComponent -->
<g id="node1" class="node">
<title>PermalinkInMailComponent</title>
<polygon fill="#ffffb3" stroke="#000000" points="665.4776,-122 488.5224,-122 488.5224,-86 665.4776,-86 665.4776,-122"/>
<text text-anchor="middle" x="577" y="-99.8" font-family="Times,serif" font-size="14.00" fill="#000000">PermalinkInMailComponent</text>
</g>
<!-- HelgolandPermalinkModule -->
<g id="node4" class="node">
<title>HelgolandPermalinkModule</title>
<polygon fill="#8dd3c7" stroke="#000000" points="451.9115,-187 448.9115,-191 427.9115,-191 424.9115,-187 276.0885,-187 276.0885,-151 451.9115,-151 451.9115,-187"/>
<text text-anchor="middle" x="364" y="-164.8" font-family="Times,serif" font-size="14.00" fill="#000000">HelgolandPermalinkModule</text>
</g>
<!-- PermalinkInMailComponent&#45;&gt;HelgolandPermalinkModule -->
<g id="edge1" class="edge">
<title>PermalinkInMailComponent&#45;&gt;HelgolandPermalinkModule</title>
<path fill="none" stroke="#000000" d="M607.2463,-122.0225C607.2463,-139.3734 607.2463,-163 607.2463,-163 607.2463,-163 461.8175,-163 461.8175,-163"/>
<polygon fill="#000000" stroke="#000000" points="461.8175,-159.5001 451.8175,-163 461.8174,-166.5001 461.8175,-159.5001"/>
</g>
<!-- PermalinkNewWindowComponent -->
<g id="node2" class="node">
<title>PermalinkNewWindowComponent</title>
<polygon fill="#ffffb3" stroke="#000000" points="470.5167,-122 257.4833,-122 257.4833,-86 470.5167,-86 470.5167,-122"/>
<text text-anchor="middle" x="364" y="-99.8" font-family="Times,serif" font-size="14.00" fill="#000000">PermalinkNewWindowComponent</text>
</g>
<!-- PermalinkNewWindowComponent&#45;&gt;HelgolandPermalinkModule -->
<g id="edge2" class="edge">
<title>PermalinkNewWindowComponent&#45;&gt;HelgolandPermalinkModule</title>
<path fill="none" stroke="#000000" d="M364,-122.1061C364,-122.1061 364,-140.991 364,-140.991"/>
<polygon fill="#000000" stroke="#000000" points="360.5001,-140.9909 364,-150.991 367.5001,-140.991 360.5001,-140.9909"/>
</g>
<!-- PermalinkToClipboardComponent -->
<g id="node3" class="node">
<title>PermalinkToClipboardComponent</title>
<polygon fill="#ffffb3" stroke="#000000" points="239.4226,-122 28.5774,-122 28.5774,-86 239.4226,-86 239.4226,-122"/>
<text text-anchor="middle" x="134" y="-99.8" font-family="Times,serif" font-size="14.00" fill="#000000">PermalinkToClipboardComponent</text>
</g>
<!-- PermalinkToClipboardComponent&#45;&gt;HelgolandPermalinkModule -->
<g id="edge3" class="edge">
<title>PermalinkToClipboardComponent&#45;&gt;HelgolandPermalinkModule</title>
<path fill="none" stroke="#000000" d="M168.237,-122.0225C168.237,-139.3734 168.237,-163 168.237,-163 168.237,-163 266.1396,-163 266.1396,-163"/>
<polygon fill="#000000" stroke="#000000" points="266.1396,-166.5001 276.1396,-163 266.1395,-159.5001 266.1396,-166.5001"/>
</g>
<!-- PermalinkInMailComponent  -->
<g id="node5" class="node">
<title>PermalinkInMailComponent </title>
<polygon fill="#fb8072" stroke="#000000" points="671.4782,-252 490.5218,-252 490.5218,-216 671.4782,-216 671.4782,-252"/>
<text text-anchor="middle" x="581" y="-229.8" font-family="Times,serif" font-size="14.00" fill="#000000">PermalinkInMailComponent </text>
</g>
<!-- HelgolandPermalinkModule&#45;&gt;PermalinkInMailComponent  -->
<g id="edge4" class="edge">
<title>HelgolandPermalinkModule&#45;&gt;PermalinkInMailComponent </title>
<path fill="none" stroke="#000000" stroke-dasharray="5,2" d="M451.8965,-175C499.6305,-175 549.0037,-175 549.0037,-175 549.0037,-175 549.0037,-205.9775 549.0037,-205.9775"/>
<polygon fill="#000000" stroke="#000000" points="545.5038,-205.9774 549.0037,-215.9775 552.5038,-205.9775 545.5038,-205.9774"/>
</g>
<!-- PermalinkNewWindowComponent  -->
<g id="node6" class="node">
<title>PermalinkNewWindowComponent </title>
<polygon fill="#fb8072" stroke="#000000" points="472.5162,-252 255.4838,-252 255.4838,-216 472.5162,-216 472.5162,-252"/>
<text text-anchor="middle" x="364" y="-229.8" font-family="Times,serif" font-size="14.00" fill="#000000">PermalinkNewWindowComponent </text>
</g>
<!-- HelgolandPermalinkModule&#45;&gt;PermalinkNewWindowComponent  -->
<g id="edge5" class="edge">
<title>HelgolandPermalinkModule&#45;&gt;PermalinkNewWindowComponent </title>
<path fill="none" stroke="#000000" stroke-dasharray="5,2" d="M364,-187.1061C364,-187.1061 364,-205.991 364,-205.991"/>
<polygon fill="#000000" stroke="#000000" points="360.5001,-205.9909 364,-215.991 367.5001,-205.991 360.5001,-205.9909"/>
</g>
<!-- PermalinkToClipboardComponent  -->
<g id="node7" class="node">
<title>PermalinkToClipboardComponent </title>
<polygon fill="#fb8072" stroke="#000000" points="237.9222,-252 24.0778,-252 24.0778,-216 237.9222,-216 237.9222,-252"/>
<text text-anchor="middle" x="131" y="-229.8" font-family="Times,serif" font-size="14.00" fill="#000000">PermalinkToClipboardComponent </text>
</g>
<!-- HelgolandPermalinkModule&#45;&gt;PermalinkToClipboardComponent  -->
<g id="edge6" class="edge">
<title>HelgolandPermalinkModule&#45;&gt;PermalinkToClipboardComponent </title>
<path fill="none" stroke="#000000" stroke-dasharray="5,2" d="M275.9654,-175C198.6846,-175 98.513,-175 98.513,-175 98.513,-175 98.513,-205.9775 98.513,-205.9775"/>
<polygon fill="#000000" stroke="#000000" points="95.0131,-205.9774 98.513,-215.9775 102.0131,-205.9775 95.0131,-205.9774"/>
</g>
</g>
</svg>
