<?xml version="1.0" encoding="UTF-8" standalone="no"?>
<!DOCTYPE svg PUBLIC "-//W3C//DTD SVG 1.1//EN"
 "http://www.w3.org/Graphics/SVG/1.1/DTD/svg11.dtd">
<!-- Generated by graphviz version 2.40.1 (20161225.0304)
 -->
<!-- Title: dependencies Pages: 1 -->
<svg width="504pt" height="211pt"
 viewBox="0.00 0.00 504.00 211.00" xmlns="http://www.w3.org/2000/svg" xmlns:xlink="http://www.w3.org/1999/xlink">
<g id="graph0" class="graph" transform="scale(1 1) rotate(0) translate(4 207)">
<title>dependencies</title>
<polygon fill="#ffffff" stroke="transparent" points="-4,4 -4,-207 500,-207 500,4 -4,4"/>
<text text-anchor="start" x="227.0091" y="-42.4" font-family="sans-serif" font-weight="bold" font-size="14.00" fill="#000000">Legend</text>
<polygon fill="#ffffb3" stroke="transparent" points="14,-10 14,-30 34,-30 34,-10 14,-10"/>
<text text-anchor="start" x="37.629" y="-15.4" font-family="sans-serif" font-size="14.00" fill="#000000"> &#160;Declarations</text>
<polygon fill="#8dd3c7" stroke="transparent" points="127,-10 127,-30 147,-30 147,-10 127,-10"/>
<text text-anchor="start" x="150.7251" y="-15.4" font-family="sans-serif" font-size="14.00" fill="#000000"> &#160;Module</text>
<polygon fill="#80b1d3" stroke="transparent" points="213,-10 213,-30 233,-30 233,-10 213,-10"/>
<text text-anchor="start" x="236.7812" y="-15.4" font-family="sans-serif" font-size="14.00" fill="#000000"> &#160;Bootstrap</text>
<polygon fill="#fdb462" stroke="transparent" points="310,-10 310,-30 330,-30 330,-10 310,-10"/>
<text text-anchor="start" x="333.6732" y="-15.4" font-family="sans-serif" font-size="14.00" fill="#000000"> &#160;Providers</text>
<polygon fill="#fb8072" stroke="transparent" points="406,-10 406,-30 426,-30 426,-10 406,-10"/>
<text text-anchor="start" x="429.7258" y="-15.4" font-family="sans-serif" font-size="14.00" fill="#000000"> &#160;Exports</text>
<g id="clust1" class="cluster">
<title>cluster_HelgolandBasicAuthModule</title>
<polygon fill="none" stroke="#000000" stroke-dasharray="1,5" points="19,-70 19,-195 477,-195 477,-70 19,-70"/>
</g>
<g id="clust6" class="cluster">
<title>cluster_HelgolandBasicAuthModule_providers</title>
<polygon fill="none" stroke="#000000" points="27,-78 27,-130 469,-130 469,-78 27,-78"/>
</g>
<!-- BasicAuthService -->
<g id="node1" class="node">
<title>BasicAuthService</title>
<ellipse fill="#fdb462" stroke="#000000" cx="380" cy="-104" rx="80.5142" ry="18"/>
<text text-anchor="middle" x="380" y="-99.8" font-family="Times,serif" font-size="14.00" fill="#000000">BasicAuthService</text>
</g>
<!-- HelgolandBasicAuthModule -->
<g id="node3" class="node">
<title>HelgolandBasicAuthModule</title>
<polygon fill="#8dd3c7" stroke="#000000" points="357.465,-187 354.465,-191 333.465,-191 330.465,-187 180.535,-187 180.535,-151 357.465,-151 357.465,-187"/>
<text text-anchor="middle" x="269" y="-164.8" font-family="Times,serif" font-size="14.00" fill="#000000">HelgolandBasicAuthModule</text>
</g>
<!-- BasicAuthService&#45;&gt;HelgolandBasicAuthModule -->
<g id="edge1" class="edge">
<title>BasicAuthService&#45;&gt;HelgolandBasicAuthModule</title>
<path fill="none" stroke="#000000" d="M328.3629,-118.104C328.3629,-118.104 328.3629,-140.7209 328.3629,-140.7209"/>
<polygon fill="#000000" stroke="#000000" points="324.863,-140.7209 328.3629,-150.7209 331.863,-140.7209 324.863,-140.7209"/>
</g>
<!-- BasicAuthServiceMaintainer -->
<g id="node2" class="node">
<title>BasicAuthServiceMaintainer</title>
<ellipse fill="#fdb462" stroke="#000000" cx="158" cy="-104" rx="123.2475" ry="18"/>
<text text-anchor="middle" x="158" y="-99.8" font-family="Times,serif" font-size="14.00" fill="#000000">BasicAuthServiceMaintainer</text>
</g>
<!-- BasicAuthServiceMaintainer&#45;&gt;HelgolandBasicAuthModule -->
<g id="edge2" class="edge">
<title>BasicAuthServiceMaintainer&#45;&gt;HelgolandBasicAuthModule</title>
<path fill="none" stroke="#000000" d="M230.8206,-118.7495C230.8206,-118.7495 230.8206,-140.5882 230.8206,-140.5882"/>
<polygon fill="#000000" stroke="#000000" points="227.3207,-140.5881 230.8206,-150.5882 234.3207,-140.5882 227.3207,-140.5881"/>
</g>
</g>
</svg>
