<?xml version="1.0" encoding="UTF-8" standalone="no"?>
<!DOCTYPE svg PUBLIC "-//W3C//DTD SVG 1.1//EN"
 "http://www.w3.org/Graphics/SVG/1.1/DTD/svg11.dtd">
<!-- Generated by graphviz version 2.40.1 (20161225.0304)
 -->
<!-- Title: dependencies Pages: 1 -->
<svg width="1444pt" height="211pt"
 viewBox="0.00 0.00 1444.00 211.00" xmlns="http://www.w3.org/2000/svg" xmlns:xlink="http://www.w3.org/1999/xlink">
<g id="graph0" class="graph" transform="scale(1 1) rotate(0) translate(4 207)">
<title>dependencies</title>
<polygon fill="#ffffff" stroke="transparent" points="-4,4 -4,-207 1440,-207 1440,4 -4,4"/>
<text text-anchor="start" x="697.0091" y="-42.4" font-family="sans-serif" font-weight="bold" font-size="14.00" fill="#000000">Legend</text>
<polygon fill="#ffffb3" stroke="transparent" points="484,-10 484,-30 504,-30 504,-10 484,-10"/>
<text text-anchor="start" x="507.629" y="-15.4" font-family="sans-serif" font-size="14.00" fill="#000000"> &#160;Declarations</text>
<polygon fill="#8dd3c7" stroke="transparent" points="597,-10 597,-30 617,-30 617,-10 597,-10"/>
<text text-anchor="start" x="620.7251" y="-15.4" font-family="sans-serif" font-size="14.00" fill="#000000"> &#160;Module</text>
<polygon fill="#80b1d3" stroke="transparent" points="683,-10 683,-30 703,-30 703,-10 683,-10"/>
<text text-anchor="start" x="706.7812" y="-15.4" font-family="sans-serif" font-size="14.00" fill="#000000"> &#160;Bootstrap</text>
<polygon fill="#fdb462" stroke="transparent" points="780,-10 780,-30 800,-30 800,-10 780,-10"/>
<text text-anchor="start" x="803.6732" y="-15.4" font-family="sans-serif" font-size="14.00" fill="#000000"> &#160;Providers</text>
<polygon fill="#fb8072" stroke="transparent" points="876,-10 876,-30 896,-30 896,-10 876,-10"/>
<text text-anchor="start" x="899.7258" y="-15.4" font-family="sans-serif" font-size="14.00" fill="#000000"> &#160;Exports</text>
<g id="clust1" class="cluster">
<title>cluster_HelgolandServicesModule</title>
<polygon fill="none" stroke="#000000" stroke-dasharray="1,5" points="8,-70 8,-195 1428,-195 1428,-70 8,-70"/>
</g>
<g id="clust6" class="cluster">
<title>cluster_HelgolandServicesModule_providers</title>
<polygon fill="none" stroke="#000000" points="16,-78 16,-130 1420,-130 1420,-78 16,-78"/>
</g>
<!-- ApiMapping -->
<g id="node1" class="node">
<title>ApiMapping</title>
<ellipse fill="#fdb462" stroke="#000000" cx="1352" cy="-104" rx="60.2769" ry="18"/>
<text text-anchor="middle" x="1352" y="-99.8" font-family="Times,serif" font-size="14.00" fill="#000000">ApiMapping</text>
</g>
<!-- HelgolandServicesModule -->
<g id="node10" class="node">
<title>HelgolandServicesModule</title>
<polygon fill="#8dd3c7" stroke="#000000" points="843.7893,-187 840.7893,-191 819.7893,-191 816.7893,-187 678.2107,-187 678.2107,-151 843.7893,-151 843.7893,-187"/>
<text text-anchor="middle" x="761" y="-164.8" font-family="Times,serif" font-size="14.00" fill="#000000">HelgolandServicesModule</text>
</g>
<!-- ApiMapping&#45;&gt;HelgolandServicesModule -->
<g id="edge1" class="edge">
<title>ApiMapping&#45;&gt;HelgolandServicesModule</title>
<path fill="none" stroke="#000000" d="M1352,-122.0109C1352,-144.4852 1352,-180 1352,-180 1352,-180 853.7983,-180 853.7983,-180"/>
<polygon fill="#000000" stroke="#000000" points="853.7983,-176.5001 843.7983,-180 853.7983,-183.5001 853.7983,-176.5001"/>
</g>
<!-- InternalIdHandler -->
<g id="node2" class="node">
<title>InternalIdHandler</title>
<ellipse fill="#fdb462" stroke="#000000" cx="1193" cy="-104" rx="80.4151" ry="18"/>
<text text-anchor="middle" x="1193" y="-99.8" font-family="Times,serif" font-size="14.00" fill="#000000">InternalIdHandler</text>
</g>
<!-- InternalIdHandler&#45;&gt;HelgolandServicesModule -->
<g id="edge2" class="edge">
<title>InternalIdHandler&#45;&gt;HelgolandServicesModule</title>
<path fill="none" stroke="#000000" d="M1193,-122.1289C1193,-142.5724 1193,-173 1193,-173 1193,-173 853.7828,-173 853.7828,-173"/>
<polygon fill="#000000" stroke="#000000" points="853.7828,-169.5001 843.7828,-173 853.7828,-176.5001 853.7828,-169.5001"/>
</g>
<!-- LocalStorage -->
<g id="node3" class="node">
<title>LocalStorage</title>
<ellipse fill="#fdb462" stroke="#000000" cx="1032" cy="-104" rx="62.5373" ry="18"/>
<text text-anchor="middle" x="1032" y="-99.8" font-family="Times,serif" font-size="14.00" fill="#000000">LocalStorage</text>
</g>
<!-- LocalStorage&#45;&gt;HelgolandServicesModule -->
<g id="edge3" class="edge">
<title>LocalStorage&#45;&gt;HelgolandServicesModule</title>
<path fill="none" stroke="#000000" d="M1032,-122.2667C1032,-140.5552 1032,-166 1032,-166 1032,-166 853.7815,-166 853.7815,-166"/>
<polygon fill="#000000" stroke="#000000" points="853.7815,-162.5001 843.7815,-166 853.7814,-169.5001 853.7815,-162.5001"/>
</g>
<!-- Time -->
<g id="node4" class="node">
<title>Time</title>
<ellipse fill="#fdb462" stroke="#000000" cx="920" cy="-104" rx="31.3371" ry="18"/>
<text text-anchor="middle" x="920" y="-99.8" font-family="Times,serif" font-size="14.00" fill="#000000">Time</text>
</g>
<!-- Time&#45;&gt;HelgolandServicesModule -->
<g id="edge4" class="edge">
<title>Time&#45;&gt;HelgolandServicesModule</title>
<path fill="none" stroke="#000000" d="M920,-122.0091C920,-138.0494 920,-159 920,-159 920,-159 853.7599,-159 853.7599,-159"/>
<polygon fill="#000000" stroke="#000000" points="853.76,-155.5001 843.7599,-159 853.7599,-162.5001 853.76,-155.5001"/>
</g>
<!-- DefinedTimespanService -->
<g id="node5" class="node">
<title>DefinedTimespanService</title>
<ellipse fill="#fdb462" stroke="#000000" cx="761" cy="-104" rx="109.3468" ry="18"/>
<text text-anchor="middle" x="761" y="-99.8" font-family="Times,serif" font-size="14.00" fill="#000000">DefinedTimespanService</text>
</g>
<!-- DefinedTimespanService&#45;&gt;HelgolandServicesModule -->
<g id="edge5" class="edge">
<title>DefinedTimespanService&#45;&gt;HelgolandServicesModule</title>
<path fill="none" stroke="#000000" d="M761,-122.1061C761,-122.1061 761,-140.991 761,-140.991"/>
<polygon fill="#000000" stroke="#000000" points="757.5001,-140.9909 761,-150.991 764.5001,-140.991 757.5001,-140.9909"/>
</g>
<!-- MapCache -->
<g id="node6" class="node">
<title>MapCache</title>
<ellipse fill="#fdb462" stroke="#000000" cx="581" cy="-104" rx="52.7295" ry="18"/>
<text text-anchor="middle" x="581" y="-99.8" font-family="Times,serif" font-size="14.00" fill="#000000">MapCache</text>
</g>
<!-- MapCache&#45;&gt;HelgolandServicesModule -->
<g id="edge6" class="edge">
<title>MapCache&#45;&gt;HelgolandServicesModule</title>
<path fill="none" stroke="#000000" d="M581,-122.0091C581,-138.0494 581,-159 581,-159 581,-159 668.1125,-159 668.1125,-159"/>
<polygon fill="#000000" stroke="#000000" points="668.1126,-162.5001 678.1125,-159 668.1125,-155.5001 668.1126,-162.5001"/>
</g>
<!-- ColorService -->
<g id="node7" class="node">
<title>ColorService</title>
<ellipse fill="#fdb462" stroke="#000000" cx="448" cy="-104" rx="61.975" ry="18"/>
<text text-anchor="middle" x="448" y="-99.8" font-family="Times,serif" font-size="14.00" fill="#000000">ColorService</text>
</g>
<!-- ColorService&#45;&gt;HelgolandServicesModule -->
<g id="edge7" class="edge">
<title>ColorService&#45;&gt;HelgolandServicesModule</title>
<path fill="none" stroke="#000000" d="M448,-122.2667C448,-140.5552 448,-166 448,-166 448,-166 668.3535,-166 668.3535,-166"/>
<polygon fill="#000000" stroke="#000000" points="668.3535,-169.5001 678.3535,-166 668.3535,-162.5001 668.3535,-169.5001"/>
</g>
<!-- NotifierService -->
<g id="node8" class="node">
<title>NotifierService</title>
<ellipse fill="#fdb462" stroke="#000000" cx="297" cy="-104" rx="70.6181" ry="18"/>
<text text-anchor="middle" x="297" y="-99.8" font-family="Times,serif" font-size="14.00" fill="#000000">NotifierService</text>
</g>
<!-- NotifierService&#45;&gt;HelgolandServicesModule -->
<g id="edge8" class="edge">
<title>NotifierService&#45;&gt;HelgolandServicesModule</title>
<path fill="none" stroke="#000000" d="M297,-122.1289C297,-142.5724 297,-173 297,-173 297,-173 668.3136,-173 668.3136,-173"/>
<polygon fill="#000000" stroke="#000000" points="668.3136,-176.5001 678.3136,-173 668.3136,-169.5001 668.3136,-176.5001"/>
</g>
<!-- LabelMapperService -->
<g id="node9" class="node">
<title>LabelMapperService</title>
<ellipse fill="#fdb462" stroke="#000000" cx="116" cy="-104" rx="92.0123" ry="18"/>
<text text-anchor="middle" x="116" y="-99.8" font-family="Times,serif" font-size="14.00" fill="#000000">LabelMapperService</text>
</g>
<!-- LabelMapperService&#45;&gt;HelgolandServicesModule -->
<g id="edge9" class="edge">
<title>LabelMapperService&#45;&gt;HelgolandServicesModule</title>
<path fill="none" stroke="#000000" d="M116,-122.0109C116,-144.4852 116,-180 116,-180 116,-180 668.3268,-180 668.3268,-180"/>
<polygon fill="#000000" stroke="#000000" points="668.3269,-183.5001 678.3268,-180 668.3268,-176.5001 668.3269,-183.5001"/>
</g>
</g>
</svg>
