<?xml version="1.0" encoding="UTF-8" standalone="no"?>
<!DOCTYPE svg PUBLIC "-//W3C//DTD SVG 1.1//EN"
 "http://www.w3.org/Graphics/SVG/1.1/DTD/svg11.dtd">
<!-- Generated by graphviz version 2.40.1 (20161225.0304)
 -->
<!-- Title: dependencies Pages: 1 -->
<svg width="845pt" height="211pt"
 viewBox="0.00 0.00 845.00 211.00" xmlns="http://www.w3.org/2000/svg" xmlns:xlink="http://www.w3.org/1999/xlink">
<g id="graph0" class="graph" transform="scale(1 1) rotate(0) translate(4 207)">
<title>dependencies</title>
<polygon fill="#ffffff" stroke="transparent" points="-4,4 -4,-207 841,-207 841,4 -4,4"/>
<text text-anchor="start" x="397.5091" y="-42.4" font-family="sans-serif" font-weight="bold" font-size="14.00" fill="#000000">Legend</text>
<polygon fill="#ffffb3" stroke="transparent" points="184.5,-10 184.5,-30 204.5,-30 204.5,-10 184.5,-10"/>
<text text-anchor="start" x="208.129" y="-15.4" font-family="sans-serif" font-size="14.00" fill="#000000"> &#160;Declarations</text>
<polygon fill="#8dd3c7" stroke="transparent" points="297.5,-10 297.5,-30 317.5,-30 317.5,-10 297.5,-10"/>
<text text-anchor="start" x="321.2251" y="-15.4" font-family="sans-serif" font-size="14.00" fill="#000000"> &#160;Module</text>
<polygon fill="#80b1d3" stroke="transparent" points="383.5,-10 383.5,-30 403.5,-30 403.5,-10 383.5,-10"/>
<text text-anchor="start" x="407.2812" y="-15.4" font-family="sans-serif" font-size="14.00" fill="#000000"> &#160;Bootstrap</text>
<polygon fill="#fdb462" stroke="transparent" points="480.5,-10 480.5,-30 500.5,-30 500.5,-10 480.5,-10"/>
<text text-anchor="start" x="504.1732" y="-15.4" font-family="sans-serif" font-size="14.00" fill="#000000"> &#160;Providers</text>
<polygon fill="#fb8072" stroke="transparent" points="576.5,-10 576.5,-30 596.5,-30 596.5,-10 576.5,-10"/>
<text text-anchor="start" x="600.2258" y="-15.4" font-family="sans-serif" font-size="14.00" fill="#000000"> &#160;Exports</text>
<g id="clust1" class="cluster">
<title>cluster_HelgolandServicesModule</title>
<polygon fill="none" stroke="#000000" stroke-dasharray="1,5" points="8,-70 8,-195 829,-195 829,-70 8,-70"/>
</g>
<g id="clust6" class="cluster">
<title>cluster_HelgolandServicesModule_providers</title>
<polygon fill="none" stroke="#000000" points="16,-78 16,-130 821,-130 821,-78 16,-78"/>
</g>
<!-- ApiMapping -->
<g id="node1" class="node">
<title>ApiMapping</title>
<ellipse fill="#fdb462" stroke="#000000" cx="753" cy="-104" rx="60.2769" ry="18"/>
<text text-anchor="middle" x="753" y="-99.8" font-family="Times,serif" font-size="14.00" fill="#000000">ApiMapping</text>
</g>
<!-- HelgolandServicesModule -->
<g id="node7" class="node">
<title>HelgolandServicesModule</title>
<polygon fill="#8dd3c7" stroke="#000000" points="459.7893,-187 456.7893,-191 435.7893,-191 432.7893,-187 294.2107,-187 294.2107,-151 459.7893,-151 459.7893,-187"/>
<text text-anchor="middle" x="377" y="-164.8" font-family="Times,serif" font-size="14.00" fill="#000000">HelgolandServicesModule</text>
</g>
<!-- ApiMapping&#45;&gt;HelgolandServicesModule -->
<g id="edge1" class="edge">
<title>ApiMapping&#45;&gt;HelgolandServicesModule</title>
<path fill="none" stroke="#000000" d="M753,-122.2843C753,-143.3211 753,-175 753,-175 753,-175 469.9803,-175 469.9803,-175"/>
<polygon fill="#000000" stroke="#000000" points="469.9803,-171.5001 459.9803,-175 469.9802,-178.5001 469.9803,-171.5001"/>
</g>
<!-- InternalIdHandler -->
<g id="node2" class="node">
<title>InternalIdHandler</title>
<ellipse fill="#fdb462" stroke="#000000" cx="594" cy="-104" rx="80.4151" ry="18"/>
<text text-anchor="middle" x="594" y="-99.8" font-family="Times,serif" font-size="14.00" fill="#000000">InternalIdHandler</text>
</g>
<!-- InternalIdHandler&#45;&gt;HelgolandServicesModule -->
<g id="edge2" class="edge">
<title>InternalIdHandler&#45;&gt;HelgolandServicesModule</title>
<path fill="none" stroke="#000000" d="M594,-122.0225C594,-139.3734 594,-163 594,-163 594,-163 469.6574,-163 469.6574,-163"/>
<polygon fill="#000000" stroke="#000000" points="469.6575,-159.5001 459.6574,-163 469.6574,-166.5001 469.6575,-159.5001"/>
</g>
<!-- LocalStorage -->
<g id="node3" class="node">
<title>LocalStorage</title>
<ellipse fill="#fdb462" stroke="#000000" cx="433" cy="-104" rx="62.5373" ry="18"/>
<text text-anchor="middle" x="433" y="-99.8" font-family="Times,serif" font-size="14.00" fill="#000000">LocalStorage</text>
</g>
<!-- LocalStorage&#45;&gt;HelgolandServicesModule -->
<g id="edge3" class="edge">
<title>LocalStorage&#45;&gt;HelgolandServicesModule</title>
<path fill="none" stroke="#000000" d="M415.0629,-121.4188C415.0629,-121.4188 415.0629,-140.6234 415.0629,-140.6234"/>
<polygon fill="#000000" stroke="#000000" points="411.563,-140.6234 415.0629,-150.6234 418.563,-140.6234 411.563,-140.6234"/>
</g>
<!-- Time -->
<g id="node4" class="node">
<title>Time</title>
<ellipse fill="#fdb462" stroke="#000000" cx="321" cy="-104" rx="31.3371" ry="18"/>
<text text-anchor="middle" x="321" y="-99.8" font-family="Times,serif" font-size="14.00" fill="#000000">Time</text>
</g>
<!-- Time&#45;&gt;HelgolandServicesModule -->
<g id="edge4" class="edge">
<title>Time&#45;&gt;HelgolandServicesModule</title>
<path fill="none" stroke="#000000" d="M323.387,-122.1061C323.387,-122.1061 323.387,-140.991 323.387,-140.991"/>
<polygon fill="#000000" stroke="#000000" points="319.8871,-140.9909 323.387,-150.991 326.8871,-140.991 319.8871,-140.9909"/>
</g>
<!-- MapCache -->
<g id="node5" class="node">
<title>MapCache</title>
<ellipse fill="#fdb462" stroke="#000000" cx="219" cy="-104" rx="52.7295" ry="18"/>
<text text-anchor="middle" x="219" y="-99.8" font-family="Times,serif" font-size="14.00" fill="#000000">MapCache</text>
</g>
<!-- MapCache&#45;&gt;HelgolandServicesModule -->
<g id="edge5" class="edge">
<title>MapCache&#45;&gt;HelgolandServicesModule</title>
<path fill="none" stroke="#000000" d="M219,-122.0225C219,-139.3734 219,-163 219,-163 219,-163 284.2981,-163 284.2981,-163"/>
<polygon fill="#000000" stroke="#000000" points="284.2981,-166.5001 294.2981,-163 284.298,-159.5001 284.2981,-166.5001"/>
</g>
<!-- ColorService -->
<g id="node6" class="node">
<title>ColorService</title>
<ellipse fill="#fdb462" stroke="#000000" cx="86" cy="-104" rx="61.975" ry="18"/>
<text text-anchor="middle" x="86" y="-99.8" font-family="Times,serif" font-size="14.00" fill="#000000">ColorService</text>
</g>
<!-- ColorService&#45;&gt;HelgolandServicesModule -->
<g id="edge6" class="edge">
<title>ColorService&#45;&gt;HelgolandServicesModule</title>
<path fill="none" stroke="#000000" d="M86,-122.2843C86,-143.3211 86,-175 86,-175 86,-175 284.0005,-175 284.0005,-175"/>
<polygon fill="#000000" stroke="#000000" points="284.0006,-178.5001 294.0005,-175 284.0005,-171.5001 284.0006,-178.5001"/>
</g>
</g>
</svg>
