<?xml version="1.0" encoding="UTF-8" standalone="no"?>
<!DOCTYPE svg PUBLIC "-//W3C//DTD SVG 1.1//EN"
 "http://www.w3.org/Graphics/SVG/1.1/DTD/svg11.dtd">
<!-- Generated by graphviz version 2.40.1 (20161225.0304)
 -->
<!-- Title: dependencies Pages: 1 -->
<svg width="1005pt" height="211pt"
 viewBox="0.00 0.00 1005.00 211.00" xmlns="http://www.w3.org/2000/svg" xmlns:xlink="http://www.w3.org/1999/xlink">
<g id="graph0" class="graph" transform="scale(1 1) rotate(0) translate(4 207)">
<title>dependencies</title>
<polygon fill="#ffffff" stroke="transparent" points="-4,4 -4,-207 1001,-207 1001,4 -4,4"/>
<text text-anchor="start" x="477.5091" y="-42.4" font-family="sans-serif" font-weight="bold" font-size="14.00" fill="#000000">Legend</text>
<polygon fill="#ffffb3" stroke="transparent" points="264.5,-10 264.5,-30 284.5,-30 284.5,-10 264.5,-10"/>
<text text-anchor="start" x="288.129" y="-15.4" font-family="sans-serif" font-size="14.00" fill="#000000"> &#160;Declarations</text>
<polygon fill="#8dd3c7" stroke="transparent" points="377.5,-10 377.5,-30 397.5,-30 397.5,-10 377.5,-10"/>
<text text-anchor="start" x="401.2251" y="-15.4" font-family="sans-serif" font-size="14.00" fill="#000000"> &#160;Module</text>
<polygon fill="#80b1d3" stroke="transparent" points="463.5,-10 463.5,-30 483.5,-30 483.5,-10 463.5,-10"/>
<text text-anchor="start" x="487.2812" y="-15.4" font-family="sans-serif" font-size="14.00" fill="#000000"> &#160;Bootstrap</text>
<polygon fill="#fdb462" stroke="transparent" points="560.5,-10 560.5,-30 580.5,-30 580.5,-10 560.5,-10"/>
<text text-anchor="start" x="584.1732" y="-15.4" font-family="sans-serif" font-size="14.00" fill="#000000"> &#160;Providers</text>
<polygon fill="#fb8072" stroke="transparent" points="656.5,-10 656.5,-30 676.5,-30 676.5,-10 656.5,-10"/>
<text text-anchor="start" x="680.2258" y="-15.4" font-family="sans-serif" font-size="14.00" fill="#000000"> &#160;Exports</text>
<g id="clust1" class="cluster">
<title>cluster_HelgolandServicesModule</title>
<polygon fill="none" stroke="#000000" stroke-dasharray="1,5" points="8,-70 8,-195 989,-195 989,-70 8,-70"/>
</g>
<g id="clust6" class="cluster">
<title>cluster_HelgolandServicesModule_providers</title>
<polygon fill="none" stroke="#000000" points="16,-78 16,-130 981,-130 981,-78 16,-78"/>
</g>
<!-- ApiMapping -->
<g id="node1" class="node">
<title>ApiMapping</title>
<ellipse fill="#fdb462" stroke="#000000" cx="913" cy="-104" rx="60.2769" ry="18"/>
<text text-anchor="middle" x="913" y="-99.8" font-family="Times,serif" font-size="14.00" fill="#000000">ApiMapping</text>
</g>
<!-- HelgolandServicesModule -->
<g id="node8" class="node">
<title>HelgolandServicesModule</title>
<polygon fill="#8dd3c7" stroke="#000000" points="563.7893,-187 560.7893,-191 539.7893,-191 536.7893,-187 398.2107,-187 398.2107,-151 563.7893,-151 563.7893,-187"/>
<text text-anchor="middle" x="481" y="-164.8" font-family="Times,serif" font-size="14.00" fill="#000000">HelgolandServicesModule</text>
</g>
<!-- ApiMapping&#45;&gt;HelgolandServicesModule -->
<g id="edge1" class="edge">
<title>ApiMapping&#45;&gt;HelgolandServicesModule</title>
<path fill="none" stroke="#000000" d="M913,-122.2843C913,-143.3211 913,-175 913,-175 913,-175 573.7828,-175 573.7828,-175"/>
<polygon fill="#000000" stroke="#000000" points="573.7828,-171.5001 563.7828,-175 573.7828,-178.5001 573.7828,-171.5001"/>
</g>
<!-- InternalIdHandler -->
<g id="node2" class="node">
<title>InternalIdHandler</title>
<ellipse fill="#fdb462" stroke="#000000" cx="754" cy="-104" rx="80.4151" ry="18"/>
<text text-anchor="middle" x="754" y="-99.8" font-family="Times,serif" font-size="14.00" fill="#000000">InternalIdHandler</text>
</g>
<!-- InternalIdHandler&#45;&gt;HelgolandServicesModule -->
<g id="edge2" class="edge">
<title>InternalIdHandler&#45;&gt;HelgolandServicesModule</title>
<path fill="none" stroke="#000000" d="M754,-122.0225C754,-139.3734 754,-163 754,-163 754,-163 573.6499,-163 573.6499,-163"/>
<polygon fill="#000000" stroke="#000000" points="573.6499,-159.5001 563.6499,-163 573.6498,-166.5001 573.6499,-159.5001"/>
</g>
<!-- LocalStorage -->
<g id="node3" class="node">
<title>LocalStorage</title>
<ellipse fill="#fdb462" stroke="#000000" cx="593" cy="-104" rx="62.5373" ry="18"/>
<text text-anchor="middle" x="593" y="-99.8" font-family="Times,serif" font-size="14.00" fill="#000000">LocalStorage</text>
</g>
<!-- LocalStorage&#45;&gt;HelgolandServicesModule -->
<g id="edge3" class="edge">
<title>LocalStorage&#45;&gt;HelgolandServicesModule</title>
<path fill="none" stroke="#000000" d="M547.0629,-116.226C547.0629,-116.226 547.0629,-140.683 547.0629,-140.683"/>
<polygon fill="#000000" stroke="#000000" points="543.563,-140.683 547.0629,-150.683 550.563,-140.683 543.563,-140.683"/>
</g>
<!-- Time -->
<g id="node4" class="node">
<title>Time</title>
<ellipse fill="#fdb462" stroke="#000000" cx="481" cy="-104" rx="31.3371" ry="18"/>
<text text-anchor="middle" x="481" y="-99.8" font-family="Times,serif" font-size="14.00" fill="#000000">Time</text>
</g>
<!-- Time&#45;&gt;HelgolandServicesModule -->
<g id="edge4" class="edge">
<title>Time&#45;&gt;HelgolandServicesModule</title>
<path fill="none" stroke="#000000" d="M481,-122.1061C481,-122.1061 481,-140.991 481,-140.991"/>
<polygon fill="#000000" stroke="#000000" points="477.5001,-140.9909 481,-150.991 484.5001,-140.991 477.5001,-140.9909"/>
</g>
<!-- MapCache -->
<g id="node5" class="node">
<title>MapCache</title>
<ellipse fill="#fdb462" stroke="#000000" cx="379" cy="-104" rx="52.7295" ry="18"/>
<text text-anchor="middle" x="379" y="-99.8" font-family="Times,serif" font-size="14.00" fill="#000000">MapCache</text>
</g>
<!-- MapCache&#45;&gt;HelgolandServicesModule -->
<g id="edge5" class="edge">
<title>MapCache&#45;&gt;HelgolandServicesModule</title>
<path fill="none" stroke="#000000" d="M415.11,-117.1537C415.11,-117.1537 415.11,-140.6938 415.11,-140.6938"/>
<polygon fill="#000000" stroke="#000000" points="411.6101,-140.6938 415.11,-150.6938 418.6101,-140.6939 411.6101,-140.6938"/>
</g>
<!-- ColorService -->
<g id="node6" class="node">
<title>ColorService</title>
<ellipse fill="#fdb462" stroke="#000000" cx="246" cy="-104" rx="61.975" ry="18"/>
<text text-anchor="middle" x="246" y="-99.8" font-family="Times,serif" font-size="14.00" fill="#000000">ColorService</text>
</g>
<!-- ColorService&#45;&gt;HelgolandServicesModule -->
<g id="edge6" class="edge">
<title>ColorService&#45;&gt;HelgolandServicesModule</title>
<path fill="none" stroke="#000000" d="M246,-122.0225C246,-139.3734 246,-163 246,-163 246,-163 388.1478,-163 388.1478,-163"/>
<polygon fill="#000000" stroke="#000000" points="388.1478,-166.5001 398.1478,-163 388.1478,-159.5001 388.1478,-166.5001"/>
</g>
<!-- NotifierService -->
<g id="node7" class="node">
<title>NotifierService</title>
<ellipse fill="#fdb462" stroke="#000000" cx="95" cy="-104" rx="70.6181" ry="18"/>
<text text-anchor="middle" x="95" y="-99.8" font-family="Times,serif" font-size="14.00" fill="#000000">NotifierService</text>
</g>
<!-- NotifierService&#45;&gt;HelgolandServicesModule -->
<g id="edge7" class="edge">
<title>NotifierService&#45;&gt;HelgolandServicesModule</title>
<path fill="none" stroke="#000000" d="M95,-122.2843C95,-143.3211 95,-175 95,-175 95,-175 388.1933,-175 388.1933,-175"/>
<polygon fill="#000000" stroke="#000000" points="388.1934,-178.5001 398.1933,-175 388.1933,-171.5001 388.1934,-178.5001"/>
</g>
</g>
</svg>
