<?xml version="1.0" encoding="UTF-8" standalone="no"?>
<!DOCTYPE svg PUBLIC "-//W3C//DTD SVG 1.1//EN"
 "http://www.w3.org/Graphics/SVG/1.1/DTD/svg11.dtd">
<!-- Generated by graphviz version 2.40.1 (20161225.0304)
 -->
<!-- Title: dependencies Pages: 1 -->
<svg width="660pt" height="284pt"
 viewBox="0.00 0.00 660.00 284.00" xmlns="http://www.w3.org/2000/svg" xmlns:xlink="http://www.w3.org/1999/xlink">
<g id="graph0" class="graph" transform="scale(1 1) rotate(0) translate(4 280)">
<title>dependencies</title>
<polygon fill="#ffffff" stroke="transparent" points="-4,4 -4,-280 656,-280 656,4 -4,4"/>
<text text-anchor="start" x="305.0091" y="-42.4" font-family="sans-serif" font-weight="bold" font-size="14.00" fill="#000000">Legend</text>
<polygon fill="#ffffb3" stroke="transparent" points="92,-10 92,-30 112,-30 112,-10 92,-10"/>
<text text-anchor="start" x="115.629" y="-15.4" font-family="sans-serif" font-size="14.00" fill="#000000"> &#160;Declarations</text>
<polygon fill="#8dd3c7" stroke="transparent" points="205,-10 205,-30 225,-30 225,-10 205,-10"/>
<text text-anchor="start" x="228.7251" y="-15.4" font-family="sans-serif" font-size="14.00" fill="#000000"> &#160;Module</text>
<polygon fill="#80b1d3" stroke="transparent" points="291,-10 291,-30 311,-30 311,-10 291,-10"/>
<text text-anchor="start" x="314.7812" y="-15.4" font-family="sans-serif" font-size="14.00" fill="#000000"> &#160;Bootstrap</text>
<polygon fill="#fdb462" stroke="transparent" points="388,-10 388,-30 408,-30 408,-10 388,-10"/>
<text text-anchor="start" x="411.6732" y="-15.4" font-family="sans-serif" font-size="14.00" fill="#000000"> &#160;Providers</text>
<polygon fill="#fb8072" stroke="transparent" points="484,-10 484,-30 504,-30 504,-10 484,-10"/>
<text text-anchor="start" x="507.7258" y="-15.4" font-family="sans-serif" font-size="14.00" fill="#000000"> &#160;Exports</text>
<g id="clust1" class="cluster">
<title>cluster_HelgolandFavoriteModule</title>
<polygon fill="none" stroke="#000000" stroke-dasharray="1,5" points="8,-70 8,-268 644,-268 644,-70 8,-70"/>
</g>
<g id="clust2" class="cluster">
<title>cluster_HelgolandFavoriteModule_declarations</title>
<polygon fill="none" stroke="#000000" points="448,-78 448,-130 636,-130 636,-78 448,-78"/>
</g>
<g id="clust5" class="cluster">
<title>cluster_HelgolandFavoriteModule_exports</title>
<polygon fill="none" stroke="#000000" points="264,-208 264,-260 456,-260 456,-208 264,-208"/>
</g>
<g id="clust7" class="cluster">
<title>cluster_HelgolandFavoriteModule_providers</title>
<polygon fill="none" stroke="#000000" points="16,-78 16,-130 440,-130 440,-78 16,-78"/>
</g>
<!-- FavoriteTogglerComponent -->
<g id="node1" class="node">
<title>FavoriteTogglerComponent</title>
<polygon fill="#ffffb3" stroke="#000000" points="628.3047,-122 455.6953,-122 455.6953,-86 628.3047,-86 628.3047,-122"/>
<text text-anchor="middle" x="542" y="-99.8" font-family="Times,serif" font-size="14.00" fill="#000000">FavoriteTogglerComponent</text>
</g>
<!-- HelgolandFavoriteModule -->
<g id="node2" class="node">
<title>HelgolandFavoriteModule</title>
<polygon fill="#8dd3c7" stroke="#000000" points="442.0211,-187 439.0211,-191 418.0211,-191 415.0211,-187 277.9789,-187 277.9789,-151 442.0211,-151 442.0211,-187"/>
<text text-anchor="middle" x="360" y="-164.8" font-family="Times,serif" font-size="14.00" fill="#000000">HelgolandFavoriteModule</text>
</g>
<!-- FavoriteTogglerComponent&#45;&gt;HelgolandFavoriteModule -->
<g id="edge1" class="edge">
<title>FavoriteTogglerComponent&#45;&gt;HelgolandFavoriteModule</title>
<path fill="none" stroke="#000000" d="M455.4683,-104C444.6096,-104 437.2164,-104 437.2164,-104 437.2164,-104 437.2164,-140.8939 437.2164,-140.8939"/>
<polygon fill="#000000" stroke="#000000" points="433.7165,-140.8938 437.2164,-150.8939 440.7165,-140.8939 433.7165,-140.8938"/>
</g>
<!-- FavoriteTogglerComponent  -->
<g id="node3" class="node">
<title>FavoriteTogglerComponent </title>
<polygon fill="#fb8072" stroke="#000000" points="447.8045,-252 272.1955,-252 272.1955,-216 447.8045,-216 447.8045,-252"/>
<text text-anchor="middle" x="360" y="-229.8" font-family="Times,serif" font-size="14.00" fill="#000000">FavoriteTogglerComponent </text>
</g>
<!-- HelgolandFavoriteModule&#45;&gt;FavoriteTogglerComponent  -->
<g id="edge2" class="edge">
<title>HelgolandFavoriteModule&#45;&gt;FavoriteTogglerComponent </title>
<path fill="none" stroke="#000000" stroke-dasharray="5,2" d="M360,-187.1061C360,-187.1061 360,-205.991 360,-205.991"/>
<polygon fill="#000000" stroke="#000000" points="356.5001,-205.9909 360,-215.991 363.5001,-205.991 356.5001,-205.9909"/>
</g>
<!-- FavoriteService -->
<g id="node4" class="node">
<title>FavoriteService</title>
<ellipse fill="#fdb462" stroke="#000000" cx="360" cy="-104" rx="72.3458" ry="18"/>
<text text-anchor="middle" x="360" y="-99.8" font-family="Times,serif" font-size="14.00" fill="#000000">FavoriteService</text>
</g>
<!-- FavoriteService&#45;&gt;HelgolandFavoriteModule -->
<g id="edge3" class="edge">
<title>FavoriteService&#45;&gt;HelgolandFavoriteModule</title>
<path fill="none" stroke="#000000" d="M360,-122.1061C360,-122.1061 360,-140.991 360,-140.991"/>
<polygon fill="#000000" stroke="#000000" points="356.5001,-140.9909 360,-150.991 363.5001,-140.991 356.5001,-140.9909"/>
</g>
<!-- JsonFavoriteExporterService -->
<g id="node5" class="node">
<title>JsonFavoriteExporterService</title>
<ellipse fill="#fdb462" stroke="#000000" cx="147" cy="-104" rx="123.2514" ry="18"/>
<text text-anchor="middle" x="147" y="-99.8" font-family="Times,serif" font-size="14.00" fill="#000000">JsonFavoriteExporterService</text>
</g>
<!-- JsonFavoriteExporterService&#45;&gt;HelgolandFavoriteModule -->
<g id="edge4" class="edge">
<title>JsonFavoriteExporterService&#45;&gt;HelgolandFavoriteModule</title>
<path fill="none" stroke="#000000" d="M270.2527,-104C278.0099,-104 282.7836,-104 282.7836,-104 282.7836,-104 282.7836,-140.8939 282.7836,-140.8939"/>
<polygon fill="#000000" stroke="#000000" points="279.2837,-140.8938 282.7836,-150.8939 286.2837,-140.8939 279.2837,-140.8938"/>
</g>
</g>
</svg>
