<?xml version="1.0" encoding="UTF-8" standalone="no"?>
<!DOCTYPE svg PUBLIC "-//W3C//DTD SVG 1.1//EN"
 "http://www.w3.org/Graphics/SVG/1.1/DTD/svg11.dtd">
<!-- Generated by graphviz version 2.40.1 (20161225.0304)
 -->
<!-- Title: dependencies Pages: 1 -->
<svg width="999pt" height="284pt"
 viewBox="0.00 0.00 999.00 284.00" xmlns="http://www.w3.org/2000/svg" xmlns:xlink="http://www.w3.org/1999/xlink">
<g id="graph0" class="graph" transform="scale(1 1) rotate(0) translate(4 280)">
<title>dependencies</title>
<polygon fill="#ffffff" stroke="transparent" points="-4,4 -4,-280 995,-280 995,4 -4,4"/>
<text text-anchor="start" x="474.5091" y="-42.4" font-family="sans-serif" font-weight="bold" font-size="14.00" fill="#000000">Legend</text>
<polygon fill="#ffffb3" stroke="transparent" points="261.5,-10 261.5,-30 281.5,-30 281.5,-10 261.5,-10"/>
<text text-anchor="start" x="285.129" y="-15.4" font-family="sans-serif" font-size="14.00" fill="#000000"> &#160;Declarations</text>
<polygon fill="#8dd3c7" stroke="transparent" points="374.5,-10 374.5,-30 394.5,-30 394.5,-10 374.5,-10"/>
<text text-anchor="start" x="398.2251" y="-15.4" font-family="sans-serif" font-size="14.00" fill="#000000"> &#160;Module</text>
<polygon fill="#80b1d3" stroke="transparent" points="460.5,-10 460.5,-30 480.5,-30 480.5,-10 460.5,-10"/>
<text text-anchor="start" x="484.2812" y="-15.4" font-family="sans-serif" font-size="14.00" fill="#000000"> &#160;Bootstrap</text>
<polygon fill="#fdb462" stroke="transparent" points="557.5,-10 557.5,-30 577.5,-30 577.5,-10 557.5,-10"/>
<text text-anchor="start" x="581.1732" y="-15.4" font-family="sans-serif" font-size="14.00" fill="#000000"> &#160;Providers</text>
<polygon fill="#fb8072" stroke="transparent" points="653.5,-10 653.5,-30 673.5,-30 673.5,-10 653.5,-10"/>
<text text-anchor="start" x="677.2258" y="-15.4" font-family="sans-serif" font-size="14.00" fill="#000000"> &#160;Exports</text>
<g id="clust1" class="cluster">
<title>cluster_HelgolandFavoriteModule</title>
<polygon fill="none" stroke="#000000" stroke-dasharray="1,5" points="8,-70 8,-268 983,-268 983,-70 8,-70"/>
</g>
<g id="clust2" class="cluster">
<title>cluster_HelgolandFavoriteModule_declarations</title>
<polygon fill="none" stroke="#000000" points="448,-78 448,-130 975,-130 975,-78 448,-78"/>
</g>
<g id="clust7" class="cluster">
<title>cluster_HelgolandFavoriteModule_exports</title>
<polygon fill="none" stroke="#000000" points="263,-208 263,-260 801,-260 801,-208 263,-208"/>
</g>
<g id="clust9" class="cluster">
<title>cluster_HelgolandFavoriteModule_providers</title>
<polygon fill="none" stroke="#000000" points="16,-78 16,-130 440,-130 440,-78 16,-78"/>
</g>
<!-- BoolTogglerComponent -->
<g id="node1" class="node">
<title>BoolTogglerComponent</title>
<polygon fill="#ffffb3" stroke="#000000" points="967.378,-122 814.622,-122 814.622,-86 967.378,-86 967.378,-122"/>
<text text-anchor="middle" x="891" y="-99.8" font-family="Times,serif" font-size="14.00" fill="#000000">BoolTogglerComponent</text>
</g>
<!-- HelgolandFavoriteModule -->
<g id="node4" class="node">
<title>HelgolandFavoriteModule</title>
<polygon fill="#8dd3c7" stroke="#000000" points="618.0211,-187 615.0211,-191 594.0211,-191 591.0211,-187 453.9789,-187 453.9789,-151 618.0211,-151 618.0211,-187"/>
<text text-anchor="middle" x="536" y="-164.8" font-family="Times,serif" font-size="14.00" fill="#000000">HelgolandFavoriteModule</text>
</g>
<!-- BoolTogglerComponent&#45;&gt;HelgolandFavoriteModule -->
<g id="edge1" class="edge">
<title>BoolTogglerComponent&#45;&gt;HelgolandFavoriteModule</title>
<path fill="none" stroke="#000000" d="M891,-122.1061C891,-141.3391 891,-169 891,-169 891,-169 628.3364,-169 628.3364,-169"/>
<polygon fill="#000000" stroke="#000000" points="628.3365,-165.5001 618.3364,-169 628.3364,-172.5001 628.3365,-165.5001"/>
</g>
<!-- RefreshButtonComponent -->
<g id="node2" class="node">
<title>RefreshButtonComponent</title>
<polygon fill="#ffffb3" stroke="#000000" points="796.4818,-122 633.5182,-122 633.5182,-86 796.4818,-86 796.4818,-122"/>
<text text-anchor="middle" x="715" y="-99.8" font-family="Times,serif" font-size="14.00" fill="#000000">RefreshButtonComponent</text>
</g>
<!-- RefreshButtonComponent&#45;&gt;HelgolandFavoriteModule -->
<g id="edge2" class="edge">
<title>RefreshButtonComponent&#45;&gt;HelgolandFavoriteModule</title>
<path fill="none" stroke="#000000" d="M688.937,-122.027C688.937,-138.3976 688.937,-160 688.937,-160 688.937,-160 628.2882,-160 628.2882,-160"/>
<polygon fill="#000000" stroke="#000000" points="628.2883,-156.5001 618.2882,-160 628.2882,-163.5001 628.2883,-156.5001"/>
</g>
<!-- StringTogglerComponent -->
<g id="node3" class="node">
<title>StringTogglerComponent</title>
<polygon fill="#ffffb3" stroke="#000000" points="615.8752,-122 456.1248,-122 456.1248,-86 615.8752,-86 615.8752,-122"/>
<text text-anchor="middle" x="536" y="-99.8" font-family="Times,serif" font-size="14.00" fill="#000000">StringTogglerComponent</text>
</g>
<!-- StringTogglerComponent&#45;&gt;HelgolandFavoriteModule -->
<g id="edge3" class="edge">
<title>StringTogglerComponent&#45;&gt;HelgolandFavoriteModule</title>
<path fill="none" stroke="#000000" d="M536,-122.1061C536,-122.1061 536,-140.991 536,-140.991"/>
<polygon fill="#000000" stroke="#000000" points="532.5001,-140.9909 536,-150.991 539.5001,-140.991 532.5001,-140.9909"/>
</g>
<!-- BoolTogglerComponent  -->
<g id="node5" class="node">
<title>BoolTogglerComponent </title>
<polygon fill="#fb8072" stroke="#000000" points="793.3785,-252 636.6215,-252 636.6215,-216 793.3785,-216 793.3785,-252"/>
<text text-anchor="middle" x="715" y="-229.8" font-family="Times,serif" font-size="14.00" fill="#000000">BoolTogglerComponent </text>
</g>
<!-- HelgolandFavoriteModule&#45;&gt;BoolTogglerComponent  -->
<g id="edge4" class="edge">
<title>HelgolandFavoriteModule&#45;&gt;BoolTogglerComponent </title>
<path fill="none" stroke="#000000" stroke-dasharray="5,2" d="M618.2254,-178C675.2755,-178 741.063,-178 741.063,-178 741.063,-178 741.063,-205.973 741.063,-205.973"/>
<polygon fill="#000000" stroke="#000000" points="737.5631,-205.973 741.063,-215.973 744.5631,-205.973 737.5631,-205.973"/>
</g>
<!-- RefreshButtonComponent  -->
<g id="node6" class="node">
<title>RefreshButtonComponent </title>
<polygon fill="#fb8072" stroke="#000000" points="619.4825,-252 452.5175,-252 452.5175,-216 619.4825,-216 619.4825,-252"/>
<text text-anchor="middle" x="536" y="-229.8" font-family="Times,serif" font-size="14.00" fill="#000000">RefreshButtonComponent </text>
</g>
<!-- HelgolandFavoriteModule&#45;&gt;RefreshButtonComponent  -->
<g id="edge5" class="edge">
<title>HelgolandFavoriteModule&#45;&gt;RefreshButtonComponent </title>
<path fill="none" stroke="#000000" stroke-dasharray="5,2" d="M536,-187.1061C536,-187.1061 536,-205.991 536,-205.991"/>
<polygon fill="#000000" stroke="#000000" points="532.5001,-205.9909 536,-215.991 539.5001,-205.991 532.5001,-205.9909"/>
</g>
<!-- StringTogglerComponent  -->
<g id="node7" class="node">
<title>StringTogglerComponent </title>
<polygon fill="#fb8072" stroke="#000000" points="434.8756,-252 271.1244,-252 271.1244,-216 434.8756,-216 434.8756,-252"/>
<text text-anchor="middle" x="353" y="-229.8" font-family="Times,serif" font-size="14.00" fill="#000000">StringTogglerComponent </text>
</g>
<!-- HelgolandFavoriteModule&#45;&gt;StringTogglerComponent  -->
<g id="edge6" class="edge">
<title>HelgolandFavoriteModule&#45;&gt;StringTogglerComponent </title>
<path fill="none" stroke="#000000" stroke-dasharray="5,2" d="M453.7629,-178C398.5842,-178 335.9424,-178 335.9424,-178 335.9424,-178 335.9424,-205.973 335.9424,-205.973"/>
<polygon fill="#000000" stroke="#000000" points="332.4425,-205.973 335.9424,-215.973 339.4425,-205.973 332.4425,-205.973"/>
</g>
<!-- FavoriteService -->
<g id="node8" class="node">
<title>FavoriteService</title>
<ellipse fill="#fdb462" stroke="#000000" cx="360" cy="-104" rx="72.3458" ry="18"/>
<text text-anchor="middle" x="360" y="-99.8" font-family="Times,serif" font-size="14.00" fill="#000000">FavoriteService</text>
</g>
<!-- FavoriteService&#45;&gt;HelgolandFavoriteModule -->
<g id="edge7" class="edge">
<title>FavoriteService&#45;&gt;HelgolandFavoriteModule</title>
<path fill="none" stroke="#000000" d="M384.0576,-121.1061C384.0576,-137.5747 384.0576,-160 384.0576,-160 384.0576,-160 443.803,-160 443.803,-160"/>
<polygon fill="#000000" stroke="#000000" points="443.803,-163.5001 453.803,-160 443.8029,-156.5001 443.803,-163.5001"/>
</g>
<!-- JsonFavoriteExporterService -->
<g id="node9" class="node">
<title>JsonFavoriteExporterService</title>
<ellipse fill="#fdb462" stroke="#000000" cx="147" cy="-104" rx="123.2514" ry="18"/>
<text text-anchor="middle" x="147" y="-99.8" font-family="Times,serif" font-size="14.00" fill="#000000">JsonFavoriteExporterService</text>
</g>
<!-- JsonFavoriteExporterService&#45;&gt;HelgolandFavoriteModule -->
<g id="edge8" class="edge">
<title>JsonFavoriteExporterService&#45;&gt;HelgolandFavoriteModule</title>
<path fill="none" stroke="#000000" d="M147,-122.1061C147,-141.3391 147,-169 147,-169 147,-169 443.9784,-169 443.9784,-169"/>
<polygon fill="#000000" stroke="#000000" points="443.9785,-172.5001 453.9784,-169 443.9784,-165.5001 443.9785,-172.5001"/>
</g>
</g>
</svg>
