<?xml version="1.0" encoding="UTF-8" standalone="no"?>
<!DOCTYPE svg PUBLIC "-//W3C//DTD SVG 1.1//EN"
 "http://www.w3.org/Graphics/SVG/1.1/DTD/svg11.dtd">
<!-- Generated by graphviz version 2.40.1 (20161225.0304)
 -->
<!-- Title: dependencies Pages: 1 -->
<svg width="2535pt" height="284pt"
 viewBox="0.00 0.00 2535.00 284.00" xmlns="http://www.w3.org/2000/svg" xmlns:xlink="http://www.w3.org/1999/xlink">
<g id="graph0" class="graph" transform="scale(1 1) rotate(0) translate(4 280)">
<title>dependencies</title>
<polygon fill="#ffffff" stroke="transparent" points="-4,4 -4,-280 2531,-280 2531,4 -4,4"/>
<text text-anchor="start" x="1242.5091" y="-42.4" font-family="sans-serif" font-weight="bold" font-size="14.00" fill="#000000">Legend</text>
<polygon fill="#ffffb3" stroke="transparent" points="1029.5,-10 1029.5,-30 1049.5,-30 1049.5,-10 1029.5,-10"/>
<text text-anchor="start" x="1053.129" y="-15.4" font-family="sans-serif" font-size="14.00" fill="#000000"> &#160;Declarations</text>
<polygon fill="#8dd3c7" stroke="transparent" points="1142.5,-10 1142.5,-30 1162.5,-30 1162.5,-10 1142.5,-10"/>
<text text-anchor="start" x="1166.2251" y="-15.4" font-family="sans-serif" font-size="14.00" fill="#000000"> &#160;Module</text>
<polygon fill="#80b1d3" stroke="transparent" points="1228.5,-10 1228.5,-30 1248.5,-30 1248.5,-10 1228.5,-10"/>
<text text-anchor="start" x="1252.2812" y="-15.4" font-family="sans-serif" font-size="14.00" fill="#000000"> &#160;Bootstrap</text>
<polygon fill="#fdb462" stroke="transparent" points="1325.5,-10 1325.5,-30 1345.5,-30 1345.5,-10 1325.5,-10"/>
<text text-anchor="start" x="1349.1732" y="-15.4" font-family="sans-serif" font-size="14.00" fill="#000000"> &#160;Providers</text>
<polygon fill="#fb8072" stroke="transparent" points="1421.5,-10 1421.5,-30 1441.5,-30 1441.5,-10 1421.5,-10"/>
<text text-anchor="start" x="1445.2258" y="-15.4" font-family="sans-serif" font-size="14.00" fill="#000000"> &#160;Exports</text>
<g id="clust1" class="cluster">
<title>cluster_HelgolandFavoriteModule</title>
<polygon fill="none" stroke="#000000" stroke-dasharray="1,5" points="8,-70 8,-268 2519,-268 2519,-70 8,-70"/>
</g>
<g id="clust2" class="cluster">
<title>cluster_HelgolandFavoriteModule_declarations</title>
<polygon fill="none" stroke="#000000" points="448,-78 448,-130 2511,-130 2511,-78 448,-78"/>
</g>
<g id="clust13" class="cluster">
<title>cluster_HelgolandFavoriteModule_exports</title>
<polygon fill="none" stroke="#000000" points="220,-208 220,-260 2317,-260 2317,-208 220,-208"/>
</g>
<g id="clust15" class="cluster">
<title>cluster_HelgolandFavoriteModule_providers</title>
<polygon fill="none" stroke="#000000" points="16,-78 16,-130 440,-130 440,-78 16,-78"/>
</g>
<!-- D3GeneralGraphComponent -->
<g id="node1" class="node">
<title>D3GeneralGraphComponent</title>
<polygon fill="#ffffb3" stroke="#000000" points="2502.7226,-122 2325.2774,-122 2325.2774,-86 2502.7226,-86 2502.7226,-122"/>
<text text-anchor="middle" x="2414" y="-99.8" font-family="Times,serif" font-size="14.00" fill="#000000">D3GeneralGraphComponent</text>
</g>
<!-- HelgolandFavoriteModule -->
<g id="node10" class="node">
<title>HelgolandFavoriteModule</title>
<polygon fill="#8dd3c7" stroke="#000000" points="1339.0211,-187 1336.0211,-191 1315.0211,-191 1312.0211,-187 1174.9789,-187 1174.9789,-151 1339.0211,-151 1339.0211,-187"/>
<text text-anchor="middle" x="1257" y="-164.8" font-family="Times,serif" font-size="14.00" fill="#000000">HelgolandFavoriteModule</text>
</g>
<!-- D3GeneralGraphComponent&#45;&gt;HelgolandFavoriteModule -->
<g id="edge1" class="edge">
<title>D3GeneralGraphComponent&#45;&gt;HelgolandFavoriteModule</title>
<path fill="none" stroke="#000000" d="M2414,-122.1061C2414,-141.3391 2414,-169 2414,-169 2414,-169 1349.2811,-169 1349.2811,-169"/>
<polygon fill="#000000" stroke="#000000" points="1349.2811,-165.5001 1339.2811,-169 1349.281,-172.5001 1349.2811,-165.5001"/>
</g>
<!-- D3GraphCopyrightComponent -->
<g id="node2" class="node">
<title>D3GraphCopyrightComponent</title>
<polygon fill="#ffffb3" stroke="#000000" points="2307.1993,-122 2116.8007,-122 2116.8007,-86 2307.1993,-86 2307.1993,-122"/>
<text text-anchor="middle" x="2212" y="-99.8" font-family="Times,serif" font-size="14.00" fill="#000000">D3GraphCopyrightComponent</text>
</g>
<!-- D3GraphCopyrightComponent&#45;&gt;HelgolandFavoriteModule -->
<g id="edge2" class="edge">
<title>D3GraphCopyrightComponent&#45;&gt;HelgolandFavoriteModule</title>
<path fill="none" stroke="#000000" d="M2122.1446,-122.2667C2122.1446,-140.5552 2122.1446,-166 2122.1446,-166 2122.1446,-166 1349.1707,-166 1349.1707,-166"/>
<polygon fill="#000000" stroke="#000000" points="1349.1707,-162.5001 1339.1707,-166 1349.1706,-169.5001 1349.1707,-162.5001"/>
</g>
<!-- D3GraphPanZoomInteractionComponent -->
<g id="node3" class="node">
<title>D3GraphPanZoomInteractionComponent</title>
<polygon fill="#ffffb3" stroke="#000000" points="2099.4985,-122 1850.5015,-122 1850.5015,-86 2099.4985,-86 2099.4985,-122"/>
<text text-anchor="middle" x="1975" y="-99.8" font-family="Times,serif" font-size="14.00" fill="#000000">D3GraphPanZoomInteractionComponent</text>
</g>
<!-- D3GraphPanZoomInteractionComponent&#45;&gt;HelgolandFavoriteModule -->
<g id="edge3" class="edge">
<title>D3GraphPanZoomInteractionComponent&#45;&gt;HelgolandFavoriteModule</title>
<path fill="none" stroke="#000000" d="M1874.375,-122.0336C1874.375,-139.0597 1874.375,-162 1874.375,-162 1874.375,-162 1349.3017,-162 1349.3017,-162"/>
<polygon fill="#000000" stroke="#000000" points="1349.3018,-158.5001 1339.3017,-162 1349.3017,-165.5001 1349.3018,-158.5001"/>
</g>
<!-- D3OverviewTimeseriesGraphComponent -->
<g id="node4" class="node">
<title>D3OverviewTimeseriesGraphComponent</title>
<polygon fill="#ffffb3" stroke="#000000" points="1833.0324,-122 1582.9676,-122 1582.9676,-86 1833.0324,-86 1833.0324,-122"/>
<text text-anchor="middle" x="1708" y="-99.8" font-family="Times,serif" font-size="14.00" fill="#000000">D3OverviewTimeseriesGraphComponent</text>
</g>
<!-- D3OverviewTimeseriesGraphComponent&#45;&gt;HelgolandFavoriteModule -->
<g id="edge4" class="edge">
<title>D3OverviewTimeseriesGraphComponent&#45;&gt;HelgolandFavoriteModule</title>
<path fill="none" stroke="#000000" d="M1605.375,-122.0091C1605.375,-138.0494 1605.375,-159 1605.375,-159 1605.375,-159 1349.1189,-159 1349.1189,-159"/>
<polygon fill="#000000" stroke="#000000" points="1349.1189,-155.5001 1339.1189,-159 1349.1188,-162.5001 1349.1189,-155.5001"/>
</g>
<!-- D3TimeseriesGraphComponent -->
<g id="node5" class="node">
<title>D3TimeseriesGraphComponent</title>
<polygon fill="#ffffb3" stroke="#000000" points="1565.3389,-122 1370.6611,-122 1370.6611,-86 1565.3389,-86 1565.3389,-122"/>
<text text-anchor="middle" x="1468" y="-99.8" font-family="Times,serif" font-size="14.00" fill="#000000">D3TimeseriesGraphComponent</text>
</g>
<!-- D3TimeseriesGraphComponent&#45;&gt;HelgolandFavoriteModule -->
<g id="edge5" class="edge">
<title>D3TimeseriesGraphComponent&#45;&gt;HelgolandFavoriteModule</title>
<path fill="none" stroke="#000000" d="M1501.6909,-122.1243C1501.6909,-136.7832 1501.6909,-155 1501.6909,-155 1501.6909,-155 1349.1592,-155 1349.1592,-155"/>
<polygon fill="#000000" stroke="#000000" points="1349.1593,-151.5001 1339.1592,-155 1349.1592,-158.5001 1349.1593,-151.5001"/>
</g>
<!-- D3TrajectoryGraphComponent -->
<g id="node6" class="node">
<title>D3TrajectoryGraphComponent</title>
<polygon fill="#ffffb3" stroke="#000000" points="1352.7198,-122 1161.2802,-122 1161.2802,-86 1352.7198,-86 1352.7198,-122"/>
<text text-anchor="middle" x="1257" y="-99.8" font-family="Times,serif" font-size="14.00" fill="#000000">D3TrajectoryGraphComponent</text>
</g>
<!-- D3TrajectoryGraphComponent&#45;&gt;HelgolandFavoriteModule -->
<g id="edge6" class="edge">
<title>D3TrajectoryGraphComponent&#45;&gt;HelgolandFavoriteModule</title>
<path fill="none" stroke="#000000" d="M1257,-122.1061C1257,-122.1061 1257,-140.991 1257,-140.991"/>
<polygon fill="#000000" stroke="#000000" points="1253.5001,-140.9909 1257,-150.991 1260.5001,-140.991 1253.5001,-140.9909"/>
</g>
<!-- D3YAxisModifierComponent -->
<g id="node7" class="node">
<title>D3YAxisModifierComponent</title>
<polygon fill="#ffffb3" stroke="#000000" points="1143.2492,-122 958.7508,-122 958.7508,-86 1143.2492,-86 1143.2492,-122"/>
<text text-anchor="middle" x="1051" y="-99.8" font-family="Times,serif" font-size="14.00" fill="#000000">D3YAxisModifierComponent</text>
</g>
<!-- D3YAxisModifierComponent&#45;&gt;HelgolandFavoriteModule -->
<g id="edge7" class="edge">
<title>D3YAxisModifierComponent&#45;&gt;HelgolandFavoriteModule</title>
<path fill="none" stroke="#000000" d="M1079.2817,-122.1243C1079.2817,-136.7832 1079.2817,-155 1079.2817,-155 1079.2817,-155 1164.9036,-155 1164.9036,-155"/>
<polygon fill="#000000" stroke="#000000" points="1164.9036,-158.5001 1174.9036,-155 1164.9036,-151.5001 1164.9036,-158.5001"/>
</g>
<!-- ExportImageButtonComponent -->
<g id="node8" class="node">
<title>ExportImageButtonComponent</title>
<polygon fill="#ffffb3" stroke="#000000" points="940.035,-122 747.965,-122 747.965,-86 940.035,-86 940.035,-122"/>
<text text-anchor="middle" x="844" y="-99.8" font-family="Times,serif" font-size="14.00" fill="#000000">ExportImageButtonComponent</text>
</g>
<!-- ExportImageButtonComponent&#45;&gt;HelgolandFavoriteModule -->
<g id="edge8" class="edge">
<title>ExportImageButtonComponent&#45;&gt;HelgolandFavoriteModule</title>
<path fill="none" stroke="#000000" d="M933.1959,-122.0091C933.1959,-138.0494 933.1959,-159 933.1959,-159 933.1959,-159 1164.8719,-159 1164.8719,-159"/>
<polygon fill="#000000" stroke="#000000" points="1164.872,-162.5001 1174.8719,-159 1164.8719,-155.5001 1164.872,-162.5001"/>
</g>
<!-- ExtendedDataD3TimeseriesGraphComponent -->
<g id="node9" class="node">
<title>ExtendedDataD3TimeseriesGraphComponent</title>
<polygon fill="#ffffb3" stroke="#000000" points="730.1376,-122 455.8624,-122 455.8624,-86 730.1376,-86 730.1376,-122"/>
<text text-anchor="middle" x="593" y="-99.8" font-family="Times,serif" font-size="14.00" fill="#000000">ExtendedDataD3TimeseriesGraphComponent</text>
</g>
<!-- ExtendedDataD3TimeseriesGraphComponent&#45;&gt;HelgolandFavoriteModule -->
<g id="edge9" class="edge">
<title>ExtendedDataD3TimeseriesGraphComponent&#45;&gt;HelgolandFavoriteModule</title>
<path fill="none" stroke="#000000" d="M725.043,-122.0336C725.043,-139.0597 725.043,-162 725.043,-162 725.043,-162 1164.7566,-162 1164.7566,-162"/>
<polygon fill="#000000" stroke="#000000" points="1164.7567,-165.5001 1174.7566,-162 1164.7566,-158.5001 1164.7567,-165.5001"/>
</g>
<!-- D3GeneralGraphComponent  -->
<g id="node11" class="node">
<title>D3GeneralGraphComponent </title>
<polygon fill="#fb8072" stroke="#000000" points="2308.7225,-252 2127.2775,-252 2127.2775,-216 2308.7225,-216 2308.7225,-252"/>
<text text-anchor="middle" x="2218" y="-229.8" font-family="Times,serif" font-size="14.00" fill="#000000">D3GeneralGraphComponent </text>
</g>
<!-- HelgolandFavoriteModule&#45;&gt;D3GeneralGraphComponent  -->
<g id="edge10" class="edge">
<title>HelgolandFavoriteModule&#45;&gt;D3GeneralGraphComponent </title>
<path fill="none" stroke="#000000" stroke-dasharray="5,2" d="M1339.285,-173C1571.8528,-173 2217.2442,-173 2217.2442,-173 2217.2442,-173 2217.2442,-205.698 2217.2442,-205.698"/>
<polygon fill="#000000" stroke="#000000" points="2213.7443,-205.698 2217.2442,-215.698 2220.7443,-205.698 2213.7443,-205.698"/>
</g>
<!-- D3GraphCopyrightComponent  -->
<g id="node12" class="node">
<title>D3GraphCopyrightComponent </title>
<polygon fill="#fb8072" stroke="#000000" points="2109.6994,-252 1916.3006,-252 1916.3006,-216 2109.6994,-216 2109.6994,-252"/>
<text text-anchor="middle" x="2013" y="-229.8" font-family="Times,serif" font-size="14.00" fill="#000000">D3GraphCopyrightComponent </text>
</g>
<!-- HelgolandFavoriteModule&#45;&gt;D3GraphCopyrightComponent  -->
<g id="edge11" class="edge">
<title>HelgolandFavoriteModule&#45;&gt;D3GraphCopyrightComponent </title>
<path fill="none" stroke="#000000" stroke-dasharray="5,2" d="M1339.1259,-177C1533.9146,-177 2007.6997,-177 2007.6997,-177 2007.6997,-177 2007.6997,-205.9648 2007.6997,-205.9648"/>
<polygon fill="#000000" stroke="#000000" points="2004.1998,-205.9648 2007.6997,-215.9648 2011.1998,-205.9649 2004.1998,-205.9648"/>
</g>
<!-- D3GraphPanZoomInteractionComponent  -->
<g id="node13" class="node">
<title>D3GraphPanZoomInteractionComponent </title>
<polygon fill="#fb8072" stroke="#000000" points="1897.998,-252 1646.002,-252 1646.002,-216 1897.998,-216 1897.998,-252"/>
<text text-anchor="middle" x="1772" y="-229.8" font-family="Times,serif" font-size="14.00" fill="#000000">D3GraphPanZoomInteractionComponent </text>
</g>
<!-- HelgolandFavoriteModule&#45;&gt;D3GraphPanZoomInteractionComponent  -->
<g id="edge12" class="edge">
<title>HelgolandFavoriteModule&#45;&gt;D3GraphPanZoomInteractionComponent </title>
<path fill="none" stroke="#000000" stroke-dasharray="5,2" d="M1339.1243,-180C1476.8606,-180 1739.5086,-180 1739.5086,-180 1739.5086,-180 1739.5086,-205.7181 1739.5086,-205.7181"/>
<polygon fill="#000000" stroke="#000000" points="1736.0087,-205.718 1739.5086,-215.7181 1743.0087,-205.7181 1736.0087,-205.718"/>
</g>
<!-- D3OverviewTimeseriesGraphComponent  -->
<g id="node14" class="node">
<title>D3OverviewTimeseriesGraphComponent </title>
<polygon fill="#fb8072" stroke="#000000" points="1627.5328,-252 1374.4672,-252 1374.4672,-216 1627.5328,-216 1627.5328,-252"/>
<text text-anchor="middle" x="1501" y="-229.8" font-family="Times,serif" font-size="14.00" fill="#000000">D3OverviewTimeseriesGraphComponent </text>
</g>
<!-- HelgolandFavoriteModule&#45;&gt;D3OverviewTimeseriesGraphComponent  -->
<g id="edge13" class="edge">
<title>HelgolandFavoriteModule&#45;&gt;D3OverviewTimeseriesGraphComponent </title>
<path fill="none" stroke="#000000" stroke-dasharray="5,2" d="M1339.2737,-184C1387.0775,-184 1437.9623,-184 1437.9623,-184 1437.9623,-184 1437.9623,-205.9489 1437.9623,-205.9489"/>
<polygon fill="#000000" stroke="#000000" points="1434.4624,-205.9488 1437.9623,-215.9489 1441.4624,-205.9489 1434.4624,-205.9488"/>
</g>
<!-- D3TimeseriesGraphComponent  -->
<g id="node15" class="node">
<title>D3TimeseriesGraphComponent </title>
<polygon fill="#fb8072" stroke="#000000" points="1356.3391,-252 1157.6609,-252 1157.6609,-216 1356.3391,-216 1356.3391,-252"/>
<text text-anchor="middle" x="1257" y="-229.8" font-family="Times,serif" font-size="14.00" fill="#000000">D3TimeseriesGraphComponent </text>
</g>
<!-- HelgolandFavoriteModule&#45;&gt;D3TimeseriesGraphComponent  -->
<g id="edge14" class="edge">
<title>HelgolandFavoriteModule&#45;&gt;D3TimeseriesGraphComponent </title>
<path fill="none" stroke="#000000" stroke-dasharray="5,2" d="M1257,-187.1061C1257,-187.1061 1257,-205.991 1257,-205.991"/>
<polygon fill="#000000" stroke="#000000" points="1253.5001,-205.9909 1257,-215.991 1260.5001,-205.991 1253.5001,-205.9909"/>
</g>
<!-- D3TrajectoryGraphComponent  -->
<g id="node16" class="node">
<title>D3TrajectoryGraphComponent </title>
<polygon fill="#fb8072" stroke="#000000" points="1139.7197,-252 944.2803,-252 944.2803,-216 1139.7197,-216 1139.7197,-252"/>
<text text-anchor="middle" x="1042" y="-229.8" font-family="Times,serif" font-size="14.00" fill="#000000">D3TrajectoryGraphComponent </text>
</g>
<!-- HelgolandFavoriteModule&#45;&gt;D3TrajectoryGraphComponent  -->
<g id="edge15" class="edge">
<title>HelgolandFavoriteModule&#45;&gt;D3TrajectoryGraphComponent </title>
<path fill="none" stroke="#000000" stroke-dasharray="5,2" d="M1174.7446,-184C1105.9383,-184 1018.9536,-184 1018.9536,-184 1018.9536,-184 1018.9536,-205.9489 1018.9536,-205.9489"/>
<polygon fill="#000000" stroke="#000000" points="1015.4537,-205.9488 1018.9536,-215.9489 1022.4537,-205.9489 1015.4537,-205.9488"/>
</g>
<!-- D3YAxisModifierComponent  -->
<g id="node17" class="node">
<title>D3YAxisModifierComponent </title>
<polygon fill="#fb8072" stroke="#000000" points="926.2492,-252 737.7508,-252 737.7508,-216 926.2492,-216 926.2492,-252"/>
<text text-anchor="middle" x="832" y="-229.8" font-family="Times,serif" font-size="14.00" fill="#000000">D3YAxisModifierComponent </text>
</g>
<!-- HelgolandFavoriteModule&#45;&gt;D3YAxisModifierComponent  -->
<g id="edge16" class="edge">
<title>HelgolandFavoriteModule&#45;&gt;D3YAxisModifierComponent </title>
<path fill="none" stroke="#000000" stroke-dasharray="5,2" d="M1174.7588,-180C1052.4664,-180 836.9287,-180 836.9287,-180 836.9287,-180 836.9287,-205.7181 836.9287,-205.7181"/>
<polygon fill="#000000" stroke="#000000" points="833.4287,-205.718 836.9287,-215.7181 840.4287,-205.7181 833.4287,-205.718"/>
</g>
<!-- ExportImageButtonComponent  -->
<g id="node18" class="node">
<title>ExportImageButtonComponent </title>
<polygon fill="#fb8072" stroke="#000000" points="720.0344,-252 523.9656,-252 523.9656,-216 720.0344,-216 720.0344,-252"/>
<text text-anchor="middle" x="622" y="-229.8" font-family="Times,serif" font-size="14.00" fill="#000000">ExportImageButtonComponent </text>
</g>
<!-- HelgolandFavoriteModule&#45;&gt;ExportImageButtonComponent  -->
<g id="edge17" class="edge">
<title>HelgolandFavoriteModule&#45;&gt;ExportImageButtonComponent </title>
<path fill="none" stroke="#000000" stroke-dasharray="5,2" d="M1174.9606,-177C1003.3008,-177 622,-177 622,-177 622,-177 622,-205.9648 622,-205.9648"/>
<polygon fill="#000000" stroke="#000000" points="618.5001,-205.9648 622,-215.9648 625.5001,-205.9649 618.5001,-205.9648"/>
</g>
<!-- ExtendedDataD3TimeseriesGraphComponent  -->
<g id="node19" class="node">
<title>ExtendedDataD3TimeseriesGraphComponent </title>
<polygon fill="#fb8072" stroke="#000000" points="505.6378,-252 228.3622,-252 228.3622,-216 505.6378,-216 505.6378,-252"/>
<text text-anchor="middle" x="367" y="-229.8" font-family="Times,serif" font-size="14.00" fill="#000000">ExtendedDataD3TimeseriesGraphComponent </text>
</g>
<!-- HelgolandFavoriteModule&#45;&gt;ExtendedDataD3TimeseriesGraphComponent  -->
<g id="edge18" class="edge">
<title>HelgolandFavoriteModule&#45;&gt;ExtendedDataD3TimeseriesGraphComponent </title>
<path fill="none" stroke="#000000" stroke-dasharray="5,2" d="M1174.6758,-173C974.9307,-173 480.875,-173 480.875,-173 480.875,-173 480.875,-205.698 480.875,-205.698"/>
<polygon fill="#000000" stroke="#000000" points="477.3751,-205.698 480.875,-215.698 484.3751,-205.698 477.3751,-205.698"/>
</g>
<!-- FavoriteService -->
<g id="node20" class="node">
<title>FavoriteService</title>
<ellipse fill="#fdb462" stroke="#000000" cx="360" cy="-104" rx="72.3458" ry="18"/>
<text text-anchor="middle" x="360" y="-99.8" font-family="Times,serif" font-size="14.00" fill="#000000">FavoriteService</text>
</g>
<!-- FavoriteService&#45;&gt;HelgolandFavoriteModule -->
<g id="edge19" class="edge">
<title>FavoriteService&#45;&gt;HelgolandFavoriteModule</title>
<path fill="none" stroke="#000000" d="M360,-122.2667C360,-140.5552 360,-166 360,-166 360,-166 1164.6202,-166 1164.6202,-166"/>
<polygon fill="#000000" stroke="#000000" points="1164.6202,-169.5001 1174.6202,-166 1164.6201,-162.5001 1164.6202,-169.5001"/>
</g>
<!-- JsonFavoriteExporterService -->
<g id="node21" class="node">
<title>JsonFavoriteExporterService</title>
<ellipse fill="#fdb462" stroke="#000000" cx="147" cy="-104" rx="123.2514" ry="18"/>
<text text-anchor="middle" x="147" y="-99.8" font-family="Times,serif" font-size="14.00" fill="#000000">JsonFavoriteExporterService</text>
</g>
<!-- JsonFavoriteExporterService&#45;&gt;HelgolandFavoriteModule -->
<g id="edge20" class="edge">
<title>JsonFavoriteExporterService&#45;&gt;HelgolandFavoriteModule</title>
<path fill="none" stroke="#000000" d="M249.1534,-114.1563C249.1534,-132.4375 249.1534,-169 249.1534,-169 249.1534,-169 1164.951,-169 1164.951,-169"/>
<polygon fill="#000000" stroke="#000000" points="1164.951,-172.5001 1174.951,-169 1164.951,-165.5001 1164.951,-172.5001"/>
</g>
</g>
</svg>
