<?xml version="1.0" encoding="UTF-8" standalone="no"?>
<!DOCTYPE svg PUBLIC "-//W3C//DTD SVG 1.1//EN"
 "http://www.w3.org/Graphics/SVG/1.1/DTD/svg11.dtd">
<!-- Generated by graphviz version 2.40.1 (20161225.0304)
 -->
<!-- Title: dependencies Pages: 1 -->
<svg width="1013pt" height="284pt"
 viewBox="0.00 0.00 1013.00 284.00" xmlns="http://www.w3.org/2000/svg" xmlns:xlink="http://www.w3.org/1999/xlink">
<g id="graph0" class="graph" transform="scale(1 1) rotate(0) translate(4 280)">
<title>dependencies</title>
<polygon fill="#ffffff" stroke="transparent" points="-4,4 -4,-280 1009,-280 1009,4 -4,4"/>
<text text-anchor="start" x="481.5091" y="-42.4" font-family="sans-serif" font-weight="bold" font-size="14.00" fill="#000000">Legend</text>
<polygon fill="#ffffb3" stroke="transparent" points="268.5,-10 268.5,-30 288.5,-30 288.5,-10 268.5,-10"/>
<text text-anchor="start" x="292.129" y="-15.4" font-family="sans-serif" font-size="14.00" fill="#000000"> &#160;Declarations</text>
<polygon fill="#8dd3c7" stroke="transparent" points="381.5,-10 381.5,-30 401.5,-30 401.5,-10 381.5,-10"/>
<text text-anchor="start" x="405.2251" y="-15.4" font-family="sans-serif" font-size="14.00" fill="#000000"> &#160;Module</text>
<polygon fill="#80b1d3" stroke="transparent" points="467.5,-10 467.5,-30 487.5,-30 487.5,-10 467.5,-10"/>
<text text-anchor="start" x="491.2812" y="-15.4" font-family="sans-serif" font-size="14.00" fill="#000000"> &#160;Bootstrap</text>
<polygon fill="#fdb462" stroke="transparent" points="564.5,-10 564.5,-30 584.5,-30 584.5,-10 564.5,-10"/>
<text text-anchor="start" x="588.1732" y="-15.4" font-family="sans-serif" font-size="14.00" fill="#000000"> &#160;Providers</text>
<polygon fill="#fb8072" stroke="transparent" points="660.5,-10 660.5,-30 680.5,-30 680.5,-10 660.5,-10"/>
<text text-anchor="start" x="684.2258" y="-15.4" font-family="sans-serif" font-size="14.00" fill="#000000"> &#160;Exports</text>
<g id="clust1" class="cluster">
<title>cluster_HelgolandD3Module</title>
<polygon fill="none" stroke="#000000" stroke-dasharray="1,5" points="8,-70 8,-268 997,-268 997,-70 8,-70"/>
</g>
<g id="clust2" class="cluster">
<title>cluster_HelgolandD3Module_declarations</title>
<polygon fill="none" stroke="#000000" points="462,-78 462,-130 989,-130 989,-78 462,-78"/>
</g>
<g id="clust6" class="cluster">
<title>cluster_HelgolandD3Module_imports</title>
<polygon fill="none" stroke="#000000" points="292,-78 292,-130 454,-130 454,-78 292,-78"/>
</g>
<g id="clust7" class="cluster">
<title>cluster_HelgolandD3Module_exports</title>
<polygon fill="none" stroke="#000000" points="277,-208 277,-260 815,-260 815,-208 277,-208"/>
</g>
<g id="clust9" class="cluster">
<title>cluster_HelgolandD3Module_providers</title>
<polygon fill="none" stroke="#000000" points="16,-78 16,-130 284,-130 284,-78 16,-78"/>
</g>
<!-- BoolTogglerComponent -->
<g id="node1" class="node">
<title>BoolTogglerComponent</title>
<polygon fill="#ffffb3" stroke="#000000" points="981.378,-122 828.622,-122 828.622,-86 981.378,-86 981.378,-122"/>
<text text-anchor="middle" x="905" y="-99.8" font-family="Times,serif" font-size="14.00" fill="#000000">BoolTogglerComponent</text>
</g>
<!-- HelgolandD3Module -->
<g id="node4" class="node">
<title>HelgolandD3Module</title>
<polygon fill="#8dd3c7" stroke="#000000" points="617.4734,-187 614.4734,-191 593.4734,-191 590.4734,-187 482.5266,-187 482.5266,-151 617.4734,-151 617.4734,-187"/>
<text text-anchor="middle" x="550" y="-164.8" font-family="Times,serif" font-size="14.00" fill="#000000">HelgolandD3Module</text>
</g>
<!-- BoolTogglerComponent&#45;&gt;HelgolandD3Module -->
<g id="edge1" class="edge">
<title>BoolTogglerComponent&#45;&gt;HelgolandD3Module</title>
<path fill="none" stroke="#000000" d="M905,-122.1061C905,-141.3391 905,-169 905,-169 905,-169 627.6084,-169 627.6084,-169"/>
<polygon fill="#000000" stroke="#000000" points="627.6084,-165.5001 617.6084,-169 627.6083,-172.5001 627.6084,-165.5001"/>
</g>
<!-- RefreshButtonComponent -->
<g id="node2" class="node">
<title>RefreshButtonComponent</title>
<polygon fill="#ffffb3" stroke="#000000" points="810.4818,-122 647.5182,-122 647.5182,-86 810.4818,-86 810.4818,-122"/>
<text text-anchor="middle" x="729" y="-99.8" font-family="Times,serif" font-size="14.00" fill="#000000">RefreshButtonComponent</text>
</g>
<!-- RefreshButtonComponent&#45;&gt;HelgolandD3Module -->
<g id="edge2" class="edge">
<title>RefreshButtonComponent&#45;&gt;HelgolandD3Module</title>
<path fill="none" stroke="#000000" d="M702.937,-122.027C702.937,-138.3976 702.937,-160 702.937,-160 702.937,-160 627.5256,-160 627.5256,-160"/>
<polygon fill="#000000" stroke="#000000" points="627.5256,-156.5001 617.5256,-160 627.5255,-163.5001 627.5256,-156.5001"/>
</g>
<!-- StringTogglerComponent -->
<g id="node3" class="node">
<title>StringTogglerComponent</title>
<polygon fill="#ffffb3" stroke="#000000" points="629.8752,-122 470.1248,-122 470.1248,-86 629.8752,-86 629.8752,-122"/>
<text text-anchor="middle" x="550" y="-99.8" font-family="Times,serif" font-size="14.00" fill="#000000">StringTogglerComponent</text>
</g>
<!-- StringTogglerComponent&#45;&gt;HelgolandD3Module -->
<g id="edge3" class="edge">
<title>StringTogglerComponent&#45;&gt;HelgolandD3Module</title>
<path fill="none" stroke="#000000" d="M550,-122.1061C550,-122.1061 550,-140.991 550,-140.991"/>
<polygon fill="#000000" stroke="#000000" points="546.5001,-140.9909 550,-150.991 553.5001,-140.991 546.5001,-140.9909"/>
</g>
<!-- BoolTogglerComponent  -->
<g id="node6" class="node">
<title>BoolTogglerComponent </title>
<polygon fill="#fb8072" stroke="#000000" points="807.3785,-252 650.6215,-252 650.6215,-216 807.3785,-216 807.3785,-252"/>
<text text-anchor="middle" x="729" y="-229.8" font-family="Times,serif" font-size="14.00" fill="#000000">BoolTogglerComponent </text>
</g>
<!-- HelgolandD3Module&#45;&gt;BoolTogglerComponent  -->
<g id="edge5" class="edge">
<title>HelgolandD3Module&#45;&gt;BoolTogglerComponent </title>
<path fill="none" stroke="#000000" stroke-dasharray="5,2" d="M617.7136,-178C677.4439,-178 755.063,-178 755.063,-178 755.063,-178 755.063,-205.973 755.063,-205.973"/>
<polygon fill="#000000" stroke="#000000" points="751.5631,-205.973 755.063,-215.973 758.5631,-205.973 751.5631,-205.973"/>
</g>
<!-- RefreshButtonComponent  -->
<g id="node7" class="node">
<title>RefreshButtonComponent </title>
<polygon fill="#fb8072" stroke="#000000" points="633.4825,-252 466.5175,-252 466.5175,-216 633.4825,-216 633.4825,-252"/>
<text text-anchor="middle" x="550" y="-229.8" font-family="Times,serif" font-size="14.00" fill="#000000">RefreshButtonComponent </text>
</g>
<!-- HelgolandD3Module&#45;&gt;RefreshButtonComponent  -->
<g id="edge6" class="edge">
<title>HelgolandD3Module&#45;&gt;RefreshButtonComponent </title>
<path fill="none" stroke="#000000" stroke-dasharray="5,2" d="M550,-187.1061C550,-187.1061 550,-205.991 550,-205.991"/>
<polygon fill="#000000" stroke="#000000" points="546.5001,-205.9909 550,-215.991 553.5001,-205.991 546.5001,-205.9909"/>
</g>
<!-- StringTogglerComponent  -->
<g id="node8" class="node">
<title>StringTogglerComponent </title>
<polygon fill="#fb8072" stroke="#000000" points="448.8756,-252 285.1244,-252 285.1244,-216 448.8756,-216 448.8756,-252"/>
<text text-anchor="middle" x="367" y="-229.8" font-family="Times,serif" font-size="14.00" fill="#000000">StringTogglerComponent </text>
</g>
<!-- HelgolandD3Module&#45;&gt;StringTogglerComponent  -->
<g id="edge7" class="edge">
<title>HelgolandD3Module&#45;&gt;StringTogglerComponent </title>
<path fill="none" stroke="#000000" stroke-dasharray="5,2" d="M482.4504,-178C424.0056,-178 348.8202,-178 348.8202,-178 348.8202,-178 348.8202,-205.973 348.8202,-205.973"/>
<polygon fill="#000000" stroke="#000000" points="345.3203,-205.973 348.8202,-215.973 352.3203,-205.973 345.3203,-205.973"/>
</g>
<!-- HelgolandCoreModule -->
<g id="node5" class="node">
<title>HelgolandCoreModule</title>
<polygon fill="#8dd3c7" stroke="#000000" points="445.5786,-122 442.5786,-126 421.5786,-126 418.5786,-122 300.4214,-122 300.4214,-86 445.5786,-86 445.5786,-122"/>
<text text-anchor="middle" x="373" y="-99.8" font-family="Times,serif" font-size="14.00" fill="#000000">HelgolandCoreModule</text>
</g>
<!-- HelgolandCoreModule&#45;&gt;HelgolandD3Module -->
<g id="edge4" class="edge">
<title>HelgolandCoreModule&#45;&gt;HelgolandD3Module</title>
<path fill="none" stroke="#000000" d="M397.1798,-122.027C397.1798,-138.3976 397.1798,-160 397.1798,-160 397.1798,-160 472.526,-160 472.526,-160"/>
<polygon fill="#000000" stroke="#000000" points="472.526,-163.5001 482.526,-160 472.5259,-156.5001 472.526,-163.5001"/>
</g>
<!-- D3TimeFormatLocaleService -->
<g id="node9" class="node">
<title>D3TimeFormatLocaleService</title>
<ellipse fill="#fdb462" stroke="#000000" cx="150" cy="-104" rx="126.1791" ry="18"/>
<text text-anchor="middle" x="150" y="-99.8" font-family="Times,serif" font-size="14.00" fill="#000000">D3TimeFormatLocaleService</text>
</g>
<!-- D3TimeFormatLocaleService&#45;&gt;HelgolandD3Module -->
<g id="edge8" class="edge">
<title>D3TimeFormatLocaleService&#45;&gt;HelgolandD3Module</title>
<path fill="none" stroke="#000000" d="M150,-122.1061C150,-141.3391 150,-169 150,-169 150,-169 472.1455,-169 472.1455,-169"/>
<polygon fill="#000000" stroke="#000000" points="472.1455,-172.5001 482.1455,-169 472.1454,-165.5001 472.1455,-172.5001"/>
</g>
</g>
</svg>
