<?xml version="1.0" encoding="UTF-8" standalone="no"?>
<!DOCTYPE svg PUBLIC "-//W3C//DTD SVG 1.1//EN"
 "http://www.w3.org/Graphics/SVG/1.1/DTD/svg11.dtd">
<!-- Generated by graphviz version 2.40.1 (20161225.0304)
 -->
<!-- Title: dependencies Pages: 1 -->
<svg width="630pt" height="284pt"
 viewBox="0.00 0.00 630.00 284.00" xmlns="http://www.w3.org/2000/svg" xmlns:xlink="http://www.w3.org/1999/xlink">
<g id="graph0" class="graph" transform="scale(1 1) rotate(0) translate(4 280)">
<title>dependencies</title>
<polygon fill="#ffffff" stroke="transparent" points="-4,4 -4,-280 626,-280 626,4 -4,4"/>
<text text-anchor="start" x="290.0091" y="-42.4" font-family="sans-serif" font-weight="bold" font-size="14.00" fill="#000000">Legend</text>
<polygon fill="#ffffb3" stroke="transparent" points="77,-10 77,-30 97,-30 97,-10 77,-10"/>
<text text-anchor="start" x="100.629" y="-15.4" font-family="sans-serif" font-size="14.00" fill="#000000"> &#160;Declarations</text>
<polygon fill="#8dd3c7" stroke="transparent" points="190,-10 190,-30 210,-30 210,-10 190,-10"/>
<text text-anchor="start" x="213.7251" y="-15.4" font-family="sans-serif" font-size="14.00" fill="#000000"> &#160;Module</text>
<polygon fill="#80b1d3" stroke="transparent" points="276,-10 276,-30 296,-30 296,-10 276,-10"/>
<text text-anchor="start" x="299.7812" y="-15.4" font-family="sans-serif" font-size="14.00" fill="#000000"> &#160;Bootstrap</text>
<polygon fill="#fdb462" stroke="transparent" points="373,-10 373,-30 393,-30 393,-10 373,-10"/>
<text text-anchor="start" x="396.6732" y="-15.4" font-family="sans-serif" font-size="14.00" fill="#000000"> &#160;Providers</text>
<polygon fill="#fb8072" stroke="transparent" points="469,-10 469,-30 489,-30 489,-10 469,-10"/>
<text text-anchor="start" x="492.7258" y="-15.4" font-family="sans-serif" font-size="14.00" fill="#000000"> &#160;Exports</text>
<g id="clust1" class="cluster">
<title>cluster_HelgolandD3Module</title>
<polygon fill="none" stroke="#000000" stroke-dasharray="1,5" points="8,-70 8,-268 614,-268 614,-70 8,-70"/>
</g>
<g id="clust2" class="cluster">
<title>cluster_HelgolandD3Module_declarations</title>
<polygon fill="none" stroke="#000000" points="186,-78 186,-130 606,-130 606,-78 186,-78"/>
</g>
<g id="clust5" class="cluster">
<title>cluster_HelgolandD3Module_imports</title>
<polygon fill="none" stroke="#000000" points="16,-78 16,-130 178,-130 178,-78 16,-78"/>
</g>
<g id="clust6" class="cluster">
<title>cluster_HelgolandD3Module_exports</title>
<polygon fill="none" stroke="#000000" points="97,-208 97,-260 525,-260 525,-208 97,-208"/>
</g>
<!-- D3TrajectoryGraphComponent -->
<g id="node1" class="node">
<title>D3TrajectoryGraphComponent</title>
<polygon fill="#ffffb3" stroke="#000000" points="597.7198,-122 406.2802,-122 406.2802,-86 597.7198,-86 597.7198,-122"/>
<text text-anchor="middle" x="502" y="-99.8" font-family="Times,serif" font-size="14.00" fill="#000000">D3TrajectoryGraphComponent</text>
</g>
<!-- HelgolandD3Module -->
<g id="node3" class="node">
<title>HelgolandD3Module</title>
<polygon fill="#8dd3c7" stroke="#000000" points="358.4734,-187 355.4734,-191 334.4734,-191 331.4734,-187 223.5266,-187 223.5266,-151 358.4734,-151 358.4734,-187"/>
<text text-anchor="middle" x="291" y="-164.8" font-family="Times,serif" font-size="14.00" fill="#000000">HelgolandD3Module</text>
</g>
<!-- D3TrajectoryGraphComponent&#45;&gt;HelgolandD3Module -->
<g id="edge1" class="edge">
<title>D3TrajectoryGraphComponent&#45;&gt;HelgolandD3Module</title>
<path fill="none" stroke="#000000" d="M461.375,-122.1061C461.375,-141.3391 461.375,-169 461.375,-169 461.375,-169 368.8263,-169 368.8263,-169"/>
<polygon fill="#000000" stroke="#000000" points="368.8263,-165.5001 358.8263,-169 368.8262,-172.5001 368.8263,-165.5001"/>
</g>
<!-- D3TimeseriesGraphComponent -->
<g id="node2" class="node">
<title>D3TimeseriesGraphComponent</title>
<polygon fill="#ffffb3" stroke="#000000" points="388.3389,-122 193.6611,-122 193.6611,-86 388.3389,-86 388.3389,-122"/>
<text text-anchor="middle" x="291" y="-99.8" font-family="Times,serif" font-size="14.00" fill="#000000">D3TimeseriesGraphComponent</text>
</g>
<!-- D3TimeseriesGraphComponent&#45;&gt;HelgolandD3Module -->
<g id="edge2" class="edge">
<title>D3TimeseriesGraphComponent&#45;&gt;HelgolandD3Module</title>
<path fill="none" stroke="#000000" d="M291,-122.1061C291,-122.1061 291,-140.991 291,-140.991"/>
<polygon fill="#000000" stroke="#000000" points="287.5001,-140.9909 291,-150.991 294.5001,-140.991 287.5001,-140.9909"/>
</g>
<!-- D3TrajectoryGraphComponent  -->
<g id="node5" class="node">
<title>D3TrajectoryGraphComponent </title>
<polygon fill="#fb8072" stroke="#000000" points="516.7197,-252 321.2803,-252 321.2803,-216 516.7197,-216 516.7197,-252"/>
<text text-anchor="middle" x="419" y="-229.8" font-family="Times,serif" font-size="14.00" fill="#000000">D3TrajectoryGraphComponent </text>
</g>
<!-- HelgolandD3Module&#45;&gt;D3TrajectoryGraphComponent  -->
<g id="edge4" class="edge">
<title>HelgolandD3Module&#45;&gt;D3TrajectoryGraphComponent </title>
<path fill="none" stroke="#000000" stroke-dasharray="5,2" d="M339.9385,-187.1061C339.9385,-187.1061 339.9385,-205.991 339.9385,-205.991"/>
<polygon fill="#000000" stroke="#000000" points="336.4385,-205.9909 339.9385,-215.991 343.4385,-205.991 336.4385,-205.9909"/>
</g>
<!-- D3TimeseriesGraphComponent  -->
<g id="node6" class="node">
<title>D3TimeseriesGraphComponent </title>
<polygon fill="#fb8072" stroke="#000000" points="303.3391,-252 104.6609,-252 104.6609,-216 303.3391,-216 303.3391,-252"/>
<text text-anchor="middle" x="204" y="-229.8" font-family="Times,serif" font-size="14.00" fill="#000000">D3TimeseriesGraphComponent </text>
</g>
<!-- HelgolandD3Module&#45;&gt;D3TimeseriesGraphComponent  -->
<g id="edge5" class="edge">
<title>HelgolandD3Module&#45;&gt;D3TimeseriesGraphComponent </title>
<path fill="none" stroke="#000000" stroke-dasharray="5,2" d="M263.3414,-187.1061C263.3414,-187.1061 263.3414,-205.991 263.3414,-205.991"/>
<polygon fill="#000000" stroke="#000000" points="259.8414,-205.9909 263.3414,-215.991 266.8414,-205.991 259.8414,-205.9909"/>
</g>
<!-- HelgolandCoreModule -->
<g id="node4" class="node">
<title>HelgolandCoreModule</title>
<polygon fill="#8dd3c7" stroke="#000000" points="169.5786,-122 166.5786,-126 145.5786,-126 142.5786,-122 24.4214,-122 24.4214,-86 169.5786,-86 169.5786,-122"/>
<text text-anchor="middle" x="97" y="-99.8" font-family="Times,serif" font-size="14.00" fill="#000000">HelgolandCoreModule</text>
</g>
<!-- HelgolandCoreModule&#45;&gt;HelgolandD3Module -->
<g id="edge3" class="edge">
<title>HelgolandCoreModule&#45;&gt;HelgolandD3Module</title>
<path fill="none" stroke="#000000" d="M137.185,-122.1061C137.185,-141.3391 137.185,-169 137.185,-169 137.185,-169 213.0867,-169 213.0867,-169"/>
<polygon fill="#000000" stroke="#000000" points="213.0868,-172.5001 223.0867,-169 213.0867,-165.5001 213.0868,-172.5001"/>
</g>
</g>
</svg>
