<?xml version="1.0" encoding="UTF-8" standalone="no"?>
<!DOCTYPE svg PUBLIC "-//W3C//DTD SVG 1.1//EN"
 "http://www.w3.org/Graphics/SVG/1.1/DTD/svg11.dtd">
<!-- Generated by graphviz version 2.40.1 (20161225.0304)
 -->
<!-- Title: dependencies Pages: 1 -->
<svg width="898pt" height="284pt"
 viewBox="0.00 0.00 898.00 284.00" xmlns="http://www.w3.org/2000/svg" xmlns:xlink="http://www.w3.org/1999/xlink">
<g id="graph0" class="graph" transform="scale(1 1) rotate(0) translate(4 280)">
<title>dependencies</title>
<polygon fill="#ffffff" stroke="transparent" points="-4,4 -4,-280 894,-280 894,4 -4,4"/>
<text text-anchor="start" x="424.0091" y="-42.4" font-family="sans-serif" font-weight="bold" font-size="14.00" fill="#000000">Legend</text>
<polygon fill="#ffffb3" stroke="transparent" points="211,-10 211,-30 231,-30 231,-10 211,-10"/>
<text text-anchor="start" x="234.629" y="-15.4" font-family="sans-serif" font-size="14.00" fill="#000000"> &#160;Declarations</text>
<polygon fill="#8dd3c7" stroke="transparent" points="324,-10 324,-30 344,-30 344,-10 324,-10"/>
<text text-anchor="start" x="347.7251" y="-15.4" font-family="sans-serif" font-size="14.00" fill="#000000"> &#160;Module</text>
<polygon fill="#80b1d3" stroke="transparent" points="410,-10 410,-30 430,-30 430,-10 410,-10"/>
<text text-anchor="start" x="433.7812" y="-15.4" font-family="sans-serif" font-size="14.00" fill="#000000"> &#160;Bootstrap</text>
<polygon fill="#fdb462" stroke="transparent" points="507,-10 507,-30 527,-30 527,-10 507,-10"/>
<text text-anchor="start" x="530.6732" y="-15.4" font-family="sans-serif" font-size="14.00" fill="#000000"> &#160;Providers</text>
<polygon fill="#fb8072" stroke="transparent" points="603,-10 603,-30 623,-30 623,-10 603,-10"/>
<text text-anchor="start" x="626.7258" y="-15.4" font-family="sans-serif" font-size="14.00" fill="#000000"> &#160;Exports</text>
<g id="clust1" class="cluster">
<title>cluster_HelgolandD3Module</title>
<polygon fill="none" stroke="#000000" stroke-dasharray="1,5" points="8,-70 8,-268 882,-268 882,-70 8,-70"/>
</g>
<g id="clust2" class="cluster">
<title>cluster_HelgolandD3Module_declarations</title>
<polygon fill="none" stroke="#000000" points="186,-78 186,-130 874,-130 874,-78 186,-78"/>
</g>
<g id="clust6" class="cluster">
<title>cluster_HelgolandD3Module_imports</title>
<polygon fill="none" stroke="#000000" points="16,-78 16,-130 178,-130 178,-78 16,-78"/>
</g>
<g id="clust7" class="cluster">
<title>cluster_HelgolandD3Module_exports</title>
<polygon fill="none" stroke="#000000" points="95,-208 95,-260 795,-260 795,-208 95,-208"/>
</g>
<!-- D3OverviewTimeseriesGraphComponent -->
<g id="node1" class="node">
<title>D3OverviewTimeseriesGraphComponent</title>
<polygon fill="#ffffb3" stroke="#000000" points="866.0324,-122 615.9676,-122 615.9676,-86 866.0324,-86 866.0324,-122"/>
<text text-anchor="middle" x="741" y="-99.8" font-family="Times,serif" font-size="14.00" fill="#000000">D3OverviewTimeseriesGraphComponent</text>
</g>
<!-- HelgolandD3Module -->
<g id="node4" class="node">
<title>HelgolandD3Module</title>
<polygon fill="#8dd3c7" stroke="#000000" points="483.4734,-187 480.4734,-191 459.4734,-191 456.4734,-187 348.5266,-187 348.5266,-151 483.4734,-151 483.4734,-187"/>
<text text-anchor="middle" x="416" y="-164.8" font-family="Times,serif" font-size="14.00" fill="#000000">HelgolandD3Module</text>
</g>
<!-- D3OverviewTimeseriesGraphComponent&#45;&gt;HelgolandD3Module -->
<g id="edge1" class="edge">
<title>D3OverviewTimeseriesGraphComponent&#45;&gt;HelgolandD3Module</title>
<path fill="none" stroke="#000000" d="M701.375,-122.0225C701.375,-139.3734 701.375,-163 701.375,-163 701.375,-163 493.6299,-163 493.6299,-163"/>
<polygon fill="#000000" stroke="#000000" points="493.6299,-159.5001 483.6299,-163 493.6299,-166.5001 493.6299,-159.5001"/>
</g>
<!-- D3TimeseriesGraphComponent -->
<g id="node2" class="node">
<title>D3TimeseriesGraphComponent</title>
<polygon fill="#ffffb3" stroke="#000000" points="598.3389,-122 403.6611,-122 403.6611,-86 598.3389,-86 598.3389,-122"/>
<text text-anchor="middle" x="501" y="-99.8" font-family="Times,serif" font-size="14.00" fill="#000000">D3TimeseriesGraphComponent</text>
</g>
<!-- D3TimeseriesGraphComponent&#45;&gt;HelgolandD3Module -->
<g id="edge2" class="edge">
<title>D3TimeseriesGraphComponent&#45;&gt;HelgolandD3Module</title>
<path fill="none" stroke="#000000" d="M443.5337,-122.1061C443.5337,-122.1061 443.5337,-140.991 443.5337,-140.991"/>
<polygon fill="#000000" stroke="#000000" points="440.0337,-140.9909 443.5337,-150.991 447.0337,-140.991 440.0337,-140.9909"/>
</g>
<!-- D3TrajectoryGraphComponent -->
<g id="node3" class="node">
<title>D3TrajectoryGraphComponent</title>
<polygon fill="#ffffb3" stroke="#000000" points="385.7198,-122 194.2802,-122 194.2802,-86 385.7198,-86 385.7198,-122"/>
<text text-anchor="middle" x="290" y="-99.8" font-family="Times,serif" font-size="14.00" fill="#000000">D3TrajectoryGraphComponent</text>
</g>
<!-- D3TrajectoryGraphComponent&#45;&gt;HelgolandD3Module -->
<g id="edge3" class="edge">
<title>D3TrajectoryGraphComponent&#45;&gt;HelgolandD3Module</title>
<path fill="none" stroke="#000000" d="M367.1866,-122.1061C367.1866,-122.1061 367.1866,-140.991 367.1866,-140.991"/>
<polygon fill="#000000" stroke="#000000" points="363.6866,-140.9909 367.1866,-150.991 370.6866,-140.991 363.6866,-140.9909"/>
</g>
<!-- D3OverviewTimeseriesGraphComponent  -->
<g id="node6" class="node">
<title>D3OverviewTimeseriesGraphComponent </title>
<polygon fill="#fb8072" stroke="#000000" points="786.5328,-252 533.4672,-252 533.4672,-216 786.5328,-216 786.5328,-252"/>
<text text-anchor="middle" x="660" y="-229.8" font-family="Times,serif" font-size="14.00" fill="#000000">D3OverviewTimeseriesGraphComponent </text>
</g>
<!-- HelgolandD3Module&#45;&gt;D3OverviewTimeseriesGraphComponent  -->
<g id="edge5" class="edge">
<title>HelgolandD3Module&#45;&gt;D3OverviewTimeseriesGraphComponent </title>
<path fill="none" stroke="#000000" stroke-dasharray="5,2" d="M483.8993,-175C523.5416,-175 565.8266,-175 565.8266,-175 565.8266,-175 565.8266,-205.9775 565.8266,-205.9775"/>
<polygon fill="#000000" stroke="#000000" points="562.3267,-205.9774 565.8266,-215.9775 569.3267,-205.9775 562.3267,-205.9774"/>
</g>
<!-- D3TimeseriesGraphComponent  -->
<g id="node7" class="node">
<title>D3TimeseriesGraphComponent </title>
<polygon fill="#fb8072" stroke="#000000" points="515.3391,-252 316.6609,-252 316.6609,-216 515.3391,-216 515.3391,-252"/>
<text text-anchor="middle" x="416" y="-229.8" font-family="Times,serif" font-size="14.00" fill="#000000">D3TimeseriesGraphComponent </text>
</g>
<!-- HelgolandD3Module&#45;&gt;D3TimeseriesGraphComponent  -->
<g id="edge6" class="edge">
<title>HelgolandD3Module&#45;&gt;D3TimeseriesGraphComponent </title>
<path fill="none" stroke="#000000" stroke-dasharray="5,2" d="M416,-187.1061C416,-187.1061 416,-205.991 416,-205.991"/>
<polygon fill="#000000" stroke="#000000" points="412.5001,-205.9909 416,-215.991 419.5001,-205.991 412.5001,-205.9909"/>
</g>
<!-- D3TrajectoryGraphComponent  -->
<g id="node8" class="node">
<title>D3TrajectoryGraphComponent </title>
<polygon fill="#fb8072" stroke="#000000" points="298.7197,-252 103.2803,-252 103.2803,-216 298.7197,-216 298.7197,-252"/>
<text text-anchor="middle" x="201" y="-229.8" font-family="Times,serif" font-size="14.00" fill="#000000">D3TrajectoryGraphComponent </text>
</g>
<!-- HelgolandD3Module&#45;&gt;D3TrajectoryGraphComponent  -->
<g id="edge7" class="edge">
<title>HelgolandD3Module&#45;&gt;D3TrajectoryGraphComponent </title>
<path fill="none" stroke="#000000" stroke-dasharray="5,2" d="M348.4723,-175C301.1694,-175 246.375,-175 246.375,-175 246.375,-175 246.375,-205.9775 246.375,-205.9775"/>
<polygon fill="#000000" stroke="#000000" points="242.8751,-205.9774 246.375,-215.9775 249.8751,-205.9775 242.8751,-205.9774"/>
</g>
<!-- HelgolandCoreModule -->
<g id="node5" class="node">
<title>HelgolandCoreModule</title>
<polygon fill="#8dd3c7" stroke="#000000" points="169.5786,-122 166.5786,-126 145.5786,-126 142.5786,-122 24.4214,-122 24.4214,-86 169.5786,-86 169.5786,-122"/>
<text text-anchor="middle" x="97" y="-99.8" font-family="Times,serif" font-size="14.00" fill="#000000">HelgolandCoreModule</text>
</g>
<!-- HelgolandCoreModule&#45;&gt;HelgolandD3Module -->
<g id="edge4" class="edge">
<title>HelgolandCoreModule&#45;&gt;HelgolandD3Module</title>
<path fill="none" stroke="#000000" d="M136.4648,-122.0225C136.4648,-139.3734 136.4648,-163 136.4647,-163 136.4647,-163 338.3323,-163 338.3323,-163"/>
<polygon fill="#000000" stroke="#000000" points="338.3323,-166.5001 348.3323,-163 338.3323,-159.5001 338.3323,-166.5001"/>
</g>
</g>
</svg>
