<?xml version="1.0" encoding="UTF-8" standalone="no"?>
<!DOCTYPE svg PUBLIC "-//W3C//DTD SVG 1.1//EN"
 "http://www.w3.org/Graphics/SVG/1.1/DTD/svg11.dtd">
<!-- Generated by graphviz version 2.40.1 (20161225.0304)
 -->
<!-- Title: dependencies Pages: 1 -->
<svg width="2761pt" height="284pt"
 viewBox="0.00 0.00 2761.00 284.00" xmlns="http://www.w3.org/2000/svg" xmlns:xlink="http://www.w3.org/1999/xlink">
<g id="graph0" class="graph" transform="scale(1 1) rotate(0) translate(4 280)">
<title>dependencies</title>
<polygon fill="#ffffff" stroke="transparent" points="-4,4 -4,-280 2757,-280 2757,4 -4,4"/>
<text text-anchor="start" x="1355.5091" y="-42.4" font-family="sans-serif" font-weight="bold" font-size="14.00" fill="#000000">Legend</text>
<polygon fill="#ffffb3" stroke="transparent" points="1142.5,-10 1142.5,-30 1162.5,-30 1162.5,-10 1142.5,-10"/>
<text text-anchor="start" x="1166.129" y="-15.4" font-family="sans-serif" font-size="14.00" fill="#000000"> &#160;Declarations</text>
<polygon fill="#8dd3c7" stroke="transparent" points="1255.5,-10 1255.5,-30 1275.5,-30 1275.5,-10 1255.5,-10"/>
<text text-anchor="start" x="1279.2251" y="-15.4" font-family="sans-serif" font-size="14.00" fill="#000000"> &#160;Module</text>
<polygon fill="#80b1d3" stroke="transparent" points="1341.5,-10 1341.5,-30 1361.5,-30 1361.5,-10 1341.5,-10"/>
<text text-anchor="start" x="1365.2812" y="-15.4" font-family="sans-serif" font-size="14.00" fill="#000000"> &#160;Bootstrap</text>
<polygon fill="#fdb462" stroke="transparent" points="1438.5,-10 1438.5,-30 1458.5,-30 1458.5,-10 1438.5,-10"/>
<text text-anchor="start" x="1462.1732" y="-15.4" font-family="sans-serif" font-size="14.00" fill="#000000"> &#160;Providers</text>
<polygon fill="#fb8072" stroke="transparent" points="1534.5,-10 1534.5,-30 1554.5,-30 1554.5,-10 1534.5,-10"/>
<text text-anchor="start" x="1558.2258" y="-15.4" font-family="sans-serif" font-size="14.00" fill="#000000"> &#160;Exports</text>
<g id="clust1" class="cluster">
<title>cluster_HelgolandD3Module</title>
<polygon fill="none" stroke="#000000" stroke-dasharray="1,5" points="8,-70 8,-268 2745,-268 2745,-70 8,-70"/>
</g>
<g id="clust2" class="cluster">
<title>cluster_HelgolandD3Module_declarations</title>
<polygon fill="none" stroke="#000000" points="462,-78 462,-130 2737,-130 2737,-78 462,-78"/>
</g>
<g id="clust13" class="cluster">
<title>cluster_HelgolandD3Module_imports</title>
<polygon fill="none" stroke="#000000" points="292,-78 292,-130 454,-130 454,-78 292,-78"/>
</g>
<g id="clust14" class="cluster">
<title>cluster_HelgolandD3Module_exports</title>
<polygon fill="none" stroke="#000000" points="207,-208 207,-260 2520,-260 2520,-208 207,-208"/>
</g>
<g id="clust16" class="cluster">
<title>cluster_HelgolandD3Module_providers</title>
<polygon fill="none" stroke="#000000" points="16,-78 16,-130 284,-130 284,-78 16,-78"/>
</g>
<!-- D3GeneralGraphComponent -->
<g id="node1" class="node">
<title>D3GeneralGraphComponent</title>
<polygon fill="#ffffb3" stroke="#000000" points="2728.7226,-122 2551.2774,-122 2551.2774,-86 2728.7226,-86 2728.7226,-122"/>
<text text-anchor="middle" x="2640" y="-99.8" font-family="Times,serif" font-size="14.00" fill="#000000">D3GeneralGraphComponent</text>
</g>
<!-- HelgolandD3Module -->
<g id="node11" class="node">
<title>HelgolandD3Module</title>
<polygon fill="#8dd3c7" stroke="#000000" points="1433.4734,-187 1430.4734,-191 1409.4734,-191 1406.4734,-187 1298.5266,-187 1298.5266,-151 1433.4734,-151 1433.4734,-187"/>
<text text-anchor="middle" x="1366" y="-164.8" font-family="Times,serif" font-size="14.00" fill="#000000">HelgolandD3Module</text>
</g>
<!-- D3GeneralGraphComponent&#45;&gt;HelgolandD3Module -->
<g id="edge1" class="edge">
<title>D3GeneralGraphComponent&#45;&gt;HelgolandD3Module</title>
<path fill="none" stroke="#000000" d="M2640,-122.1061C2640,-141.3391 2640,-169 2640,-169 2640,-169 1443.5963,-169 1443.5963,-169"/>
<polygon fill="#000000" stroke="#000000" points="1443.5963,-165.5001 1433.5963,-169 1443.5962,-172.5001 1443.5963,-165.5001"/>
</g>
<!-- D3GraphCopyrightComponent -->
<g id="node2" class="node">
<title>D3GraphCopyrightComponent</title>
<polygon fill="#ffffb3" stroke="#000000" points="2533.1993,-122 2342.8007,-122 2342.8007,-86 2533.1993,-86 2533.1993,-122"/>
<text text-anchor="middle" x="2438" y="-99.8" font-family="Times,serif" font-size="14.00" fill="#000000">D3GraphCopyrightComponent</text>
</g>
<!-- D3GraphCopyrightComponent&#45;&gt;HelgolandD3Module -->
<g id="edge2" class="edge">
<title>D3GraphCopyrightComponent&#45;&gt;HelgolandD3Module</title>
<path fill="none" stroke="#000000" d="M2427.2558,-122.2667C2427.2558,-140.5552 2427.2558,-166 2427.2558,-166 2427.2558,-166 1443.5955,-166 1443.5955,-166"/>
<polygon fill="#000000" stroke="#000000" points="1443.5956,-162.5001 1433.5955,-166 1443.5955,-169.5001 1443.5956,-162.5001"/>
</g>
<!-- D3GraphHoverLineComponent -->
<g id="node3" class="node">
<title>D3GraphHoverLineComponent</title>
<polygon fill="#ffffb3" stroke="#000000" points="2325.0604,-122 2130.9396,-122 2130.9396,-86 2325.0604,-86 2325.0604,-122"/>
<text text-anchor="middle" x="2228" y="-99.8" font-family="Times,serif" font-size="14.00" fill="#000000">D3GraphHoverLineComponent</text>
</g>
<!-- D3GraphHoverLineComponent&#45;&gt;HelgolandD3Module -->
<g id="edge3" class="edge">
<title>D3GraphHoverLineComponent&#45;&gt;HelgolandD3Module</title>
<path fill="none" stroke="#000000" d="M2221.9097,-122.0336C2221.9097,-139.0597 2221.9097,-162 2221.9097,-162 2221.9097,-162 1443.5191,-162 1443.5191,-162"/>
<polygon fill="#000000" stroke="#000000" points="1443.5191,-158.5001 1433.5191,-162 1443.5191,-165.5001 1443.5191,-158.5001"/>
</g>
<!-- D3GraphPanZoomInteractionComponent -->
<g id="node4" class="node">
<title>D3GraphPanZoomInteractionComponent</title>
<polygon fill="#ffffb3" stroke="#000000" points="2113.4985,-122 1864.5015,-122 1864.5015,-86 2113.4985,-86 2113.4985,-122"/>
<text text-anchor="middle" x="1989" y="-99.8" font-family="Times,serif" font-size="14.00" fill="#000000">D3GraphPanZoomInteractionComponent</text>
</g>
<!-- D3GraphPanZoomInteractionComponent&#45;&gt;HelgolandD3Module -->
<g id="edge4" class="edge">
<title>D3GraphPanZoomInteractionComponent&#45;&gt;HelgolandD3Module</title>
<path fill="none" stroke="#000000" d="M1874.875,-122.0091C1874.875,-138.0494 1874.875,-159 1874.875,-159 1874.875,-159 1443.5747,-159 1443.5747,-159"/>
<polygon fill="#000000" stroke="#000000" points="1443.5747,-155.5001 1433.5747,-159 1443.5746,-162.5001 1443.5747,-155.5001"/>
</g>
<!-- D3OverviewTimeseriesGraphComponent -->
<g id="node5" class="node">
<title>D3OverviewTimeseriesGraphComponent</title>
<polygon fill="#ffffb3" stroke="#000000" points="1847.0324,-122 1596.9676,-122 1596.9676,-86 1847.0324,-86 1847.0324,-122"/>
<text text-anchor="middle" x="1722" y="-99.8" font-family="Times,serif" font-size="14.00" fill="#000000">D3OverviewTimeseriesGraphComponent</text>
</g>
<!-- D3OverviewTimeseriesGraphComponent&#45;&gt;HelgolandD3Module -->
<g id="edge5" class="edge">
<title>D3OverviewTimeseriesGraphComponent&#45;&gt;HelgolandD3Module</title>
<path fill="none" stroke="#000000" d="M1605.875,-122.1243C1605.875,-136.7832 1605.875,-155 1605.875,-155 1605.875,-155 1443.7767,-155 1443.7767,-155"/>
<polygon fill="#000000" stroke="#000000" points="1443.7767,-151.5001 1433.7767,-155 1443.7767,-158.5001 1443.7767,-151.5001"/>
</g>
<!-- D3TimeseriesGraphComponent -->
<g id="node6" class="node">
<title>D3TimeseriesGraphComponent</title>
<polygon fill="#ffffb3" stroke="#000000" points="1579.3389,-122 1384.6611,-122 1384.6611,-86 1579.3389,-86 1579.3389,-122"/>
<text text-anchor="middle" x="1482" y="-99.8" font-family="Times,serif" font-size="14.00" fill="#000000">D3TimeseriesGraphComponent</text>
</g>
<!-- D3TimeseriesGraphComponent&#45;&gt;HelgolandD3Module -->
<g id="edge6" class="edge">
<title>D3TimeseriesGraphComponent&#45;&gt;HelgolandD3Module</title>
<path fill="none" stroke="#000000" d="M1409.0336,-122.1061C1409.0336,-122.1061 1409.0336,-140.991 1409.0336,-140.991"/>
<polygon fill="#000000" stroke="#000000" points="1405.5337,-140.9909 1409.0336,-150.991 1412.5337,-140.991 1405.5337,-140.9909"/>
</g>
<!-- D3TrajectoryGraphComponent -->
<g id="node7" class="node">
<title>D3TrajectoryGraphComponent</title>
<polygon fill="#ffffb3" stroke="#000000" points="1366.7198,-122 1175.2802,-122 1175.2802,-86 1366.7198,-86 1366.7198,-122"/>
<text text-anchor="middle" x="1271" y="-99.8" font-family="Times,serif" font-size="14.00" fill="#000000">D3TrajectoryGraphComponent</text>
</g>
<!-- D3TrajectoryGraphComponent&#45;&gt;HelgolandD3Module -->
<g id="edge7" class="edge">
<title>D3TrajectoryGraphComponent&#45;&gt;HelgolandD3Module</title>
<path fill="none" stroke="#000000" d="M1332.6865,-122.1061C1332.6865,-122.1061 1332.6865,-140.991 1332.6865,-140.991"/>
<polygon fill="#000000" stroke="#000000" points="1329.1866,-140.9909 1332.6865,-150.991 1336.1866,-140.991 1329.1866,-140.9909"/>
</g>
<!-- D3YAxisModifierComponent -->
<g id="node8" class="node">
<title>D3YAxisModifierComponent</title>
<polygon fill="#ffffb3" stroke="#000000" points="1157.2492,-122 972.7508,-122 972.7508,-86 1157.2492,-86 1157.2492,-122"/>
<text text-anchor="middle" x="1065" y="-99.8" font-family="Times,serif" font-size="14.00" fill="#000000">D3YAxisModifierComponent</text>
</g>
<!-- D3YAxisModifierComponent&#45;&gt;HelgolandD3Module -->
<g id="edge8" class="edge">
<title>D3YAxisModifierComponent&#45;&gt;HelgolandD3Module</title>
<path fill="none" stroke="#000000" d="M1151.1026,-122.1243C1151.1026,-136.7832 1151.1026,-155 1151.1026,-155 1151.1026,-155 1288.3001,-155 1288.3001,-155"/>
<polygon fill="#000000" stroke="#000000" points="1288.3001,-158.5001 1298.3001,-155 1288.3,-151.5001 1288.3001,-158.5001"/>
</g>
<!-- ExportImageButtonComponent -->
<g id="node9" class="node">
<title>ExportImageButtonComponent</title>
<polygon fill="#ffffb3" stroke="#000000" points="954.035,-122 761.965,-122 761.965,-86 954.035,-86 954.035,-122"/>
<text text-anchor="middle" x="858" y="-99.8" font-family="Times,serif" font-size="14.00" fill="#000000">ExportImageButtonComponent</text>
</g>
<!-- ExportImageButtonComponent&#45;&gt;HelgolandD3Module -->
<g id="edge9" class="edge">
<title>ExportImageButtonComponent&#45;&gt;HelgolandD3Module</title>
<path fill="none" stroke="#000000" d="M942.8287,-122.0091C942.8287,-138.0494 942.8287,-159 942.8287,-159 942.8287,-159 1288.4793,-159 1288.4793,-159"/>
<polygon fill="#000000" stroke="#000000" points="1288.4794,-162.5001 1298.4793,-159 1288.4793,-155.5001 1288.4794,-162.5001"/>
</g>
<!-- ExtendedDataD3TimeseriesGraphComponent -->
<g id="node10" class="node">
<title>ExtendedDataD3TimeseriesGraphComponent</title>
<polygon fill="#ffffb3" stroke="#000000" points="744.1376,-122 469.8624,-122 469.8624,-86 744.1376,-86 744.1376,-122"/>
<text text-anchor="middle" x="607" y="-99.8" font-family="Times,serif" font-size="14.00" fill="#000000">ExtendedDataD3TimeseriesGraphComponent</text>
</g>
<!-- ExtendedDataD3TimeseriesGraphComponent&#45;&gt;HelgolandD3Module -->
<g id="edge10" class="edge">
<title>ExtendedDataD3TimeseriesGraphComponent&#45;&gt;HelgolandD3Module</title>
<path fill="none" stroke="#000000" d="M734.4722,-122.0336C734.4722,-139.0597 734.4722,-162 734.4722,-162 734.4722,-162 1288.4155,-162 1288.4155,-162"/>
<polygon fill="#000000" stroke="#000000" points="1288.4155,-165.5001 1298.4155,-162 1288.4154,-158.5001 1288.4155,-165.5001"/>
</g>
<!-- D3GeneralGraphComponent  -->
<g id="node13" class="node">
<title>D3GeneralGraphComponent </title>
<polygon fill="#fb8072" stroke="#000000" points="2511.7225,-252 2330.2775,-252 2330.2775,-216 2511.7225,-216 2511.7225,-252"/>
<text text-anchor="middle" x="2421" y="-229.8" font-family="Times,serif" font-size="14.00" fill="#000000">D3GeneralGraphComponent </text>
</g>
<!-- HelgolandD3Module&#45;&gt;D3GeneralGraphComponent  -->
<g id="edge12" class="edge">
<title>HelgolandD3Module&#45;&gt;D3GeneralGraphComponent </title>
<path fill="none" stroke="#000000" stroke-dasharray="5,2" d="M1433.4832,-173C1653.6038,-173 2336.6446,-173 2336.6446,-173 2336.6446,-173 2336.6446,-205.698 2336.6446,-205.698"/>
<polygon fill="#000000" stroke="#000000" points="2333.1447,-205.698 2336.6446,-215.698 2340.1447,-205.698 2333.1447,-205.698"/>
</g>
<!-- D3GraphCopyrightComponent  -->
<g id="node14" class="node">
<title>D3GraphCopyrightComponent </title>
<polygon fill="#fb8072" stroke="#000000" points="2312.6994,-252 2119.3006,-252 2119.3006,-216 2312.6994,-216 2312.6994,-252"/>
<text text-anchor="middle" x="2216" y="-229.8" font-family="Times,serif" font-size="14.00" fill="#000000">D3GraphCopyrightComponent </text>
</g>
<!-- HelgolandD3Module&#45;&gt;D3GraphCopyrightComponent  -->
<g id="edge13" class="edge">
<title>HelgolandD3Module&#45;&gt;D3GraphCopyrightComponent </title>
<path fill="none" stroke="#000000" stroke-dasharray="5,2" d="M1433.6952,-177C1619.737,-177 2125.0601,-177 2125.0601,-177 2125.0601,-177 2125.0601,-205.9648 2125.0601,-205.9648"/>
<polygon fill="#000000" stroke="#000000" points="2121.5602,-205.9648 2125.0601,-215.9648 2128.5602,-205.9649 2121.5602,-205.9648"/>
</g>
<!-- D3GraphHoverLineComponent  -->
<g id="node15" class="node">
<title>D3GraphHoverLineComponent </title>
<polygon fill="#fb8072" stroke="#000000" points="2100.5609,-252 1903.4391,-252 1903.4391,-216 2100.5609,-216 2100.5609,-252"/>
<text text-anchor="middle" x="2002" y="-229.8" font-family="Times,serif" font-size="14.00" fill="#000000">D3GraphHoverLineComponent </text>
</g>
<!-- HelgolandD3Module&#45;&gt;D3GraphHoverLineComponent  -->
<g id="edge14" class="edge">
<title>HelgolandD3Module&#45;&gt;D3GraphHoverLineComponent </title>
<path fill="none" stroke="#000000" stroke-dasharray="5,2" d="M1433.7618,-180C1597.6387,-180 2002,-180 2002,-180 2002,-180 2002,-205.7181 2002,-205.7181"/>
<polygon fill="#000000" stroke="#000000" points="1998.5001,-205.718 2002,-215.7181 2005.5001,-205.7181 1998.5001,-205.718"/>
</g>
<!-- D3GraphPanZoomInteractionComponent  -->
<g id="node16" class="node">
<title>D3GraphPanZoomInteractionComponent </title>
<polygon fill="#fb8072" stroke="#000000" points="1884.998,-252 1633.002,-252 1633.002,-216 1884.998,-216 1884.998,-252"/>
<text text-anchor="middle" x="1759" y="-229.8" font-family="Times,serif" font-size="14.00" fill="#000000">D3GraphPanZoomInteractionComponent </text>
</g>
<!-- HelgolandD3Module&#45;&gt;D3GraphPanZoomInteractionComponent  -->
<g id="edge15" class="edge">
<title>HelgolandD3Module&#45;&gt;D3GraphPanZoomInteractionComponent </title>
<path fill="none" stroke="#000000" stroke-dasharray="5,2" d="M1433.7301,-184C1541.5091,-184 1740.0086,-184 1740.0086,-184 1740.0086,-184 1740.0086,-205.9489 1740.0086,-205.9489"/>
<polygon fill="#000000" stroke="#000000" points="1736.5087,-205.9488 1740.0086,-215.9489 1743.5087,-205.9489 1736.5087,-205.9488"/>
</g>
<!-- D3OverviewTimeseriesGraphComponent  -->
<g id="node17" class="node">
<title>D3OverviewTimeseriesGraphComponent </title>
<polygon fill="#fb8072" stroke="#000000" points="1614.5328,-252 1361.4672,-252 1361.4672,-216 1614.5328,-216 1614.5328,-252"/>
<text text-anchor="middle" x="1488" y="-229.8" font-family="Times,serif" font-size="14.00" fill="#000000">D3OverviewTimeseriesGraphComponent </text>
</g>
<!-- HelgolandD3Module&#45;&gt;D3OverviewTimeseriesGraphComponent  -->
<g id="edge16" class="edge">
<title>HelgolandD3Module&#45;&gt;D3OverviewTimeseriesGraphComponent </title>
<path fill="none" stroke="#000000" stroke-dasharray="5,2" d="M1397.3603,-187.1061C1397.3603,-187.1061 1397.3603,-205.991 1397.3603,-205.991"/>
<polygon fill="#000000" stroke="#000000" points="1393.8603,-205.9909 1397.3603,-215.991 1400.8603,-205.991 1393.8603,-205.9909"/>
</g>
<!-- D3TimeseriesGraphComponent  -->
<g id="node18" class="node">
<title>D3TimeseriesGraphComponent </title>
<polygon fill="#fb8072" stroke="#000000" points="1343.3391,-252 1144.6609,-252 1144.6609,-216 1343.3391,-216 1343.3391,-252"/>
<text text-anchor="middle" x="1244" y="-229.8" font-family="Times,serif" font-size="14.00" fill="#000000">D3TimeseriesGraphComponent </text>
</g>
<!-- HelgolandD3Module&#45;&gt;D3TimeseriesGraphComponent  -->
<g id="edge17" class="edge">
<title>HelgolandD3Module&#45;&gt;D3TimeseriesGraphComponent </title>
<path fill="none" stroke="#000000" stroke-dasharray="5,2" d="M1320.8414,-187.1061C1320.8414,-187.1061 1320.8414,-205.991 1320.8414,-205.991"/>
<polygon fill="#000000" stroke="#000000" points="1317.3414,-205.9909 1320.8414,-215.991 1324.3414,-205.991 1317.3414,-205.9909"/>
</g>
<!-- D3TrajectoryGraphComponent  -->
<g id="node19" class="node">
<title>D3TrajectoryGraphComponent </title>
<polygon fill="#fb8072" stroke="#000000" points="1126.7197,-252 931.2803,-252 931.2803,-216 1126.7197,-216 1126.7197,-252"/>
<text text-anchor="middle" x="1029" y="-229.8" font-family="Times,serif" font-size="14.00" fill="#000000">D3TrajectoryGraphComponent </text>
</g>
<!-- HelgolandD3Module&#45;&gt;D3TrajectoryGraphComponent  -->
<g id="edge18" class="edge">
<title>HelgolandD3Module&#45;&gt;D3TrajectoryGraphComponent </title>
<path fill="none" stroke="#000000" stroke-dasharray="5,2" d="M1298.5161,-184C1205.5981,-184 1049.6177,-184 1049.6177,-184 1049.6177,-184 1049.6177,-205.9489 1049.6177,-205.9489"/>
<polygon fill="#000000" stroke="#000000" points="1046.1177,-205.9488 1049.6177,-215.9489 1053.1177,-205.9489 1046.1177,-205.9488"/>
</g>
<!-- D3YAxisModifierComponent  -->
<g id="node20" class="node">
<title>D3YAxisModifierComponent </title>
<polygon fill="#fb8072" stroke="#000000" points="913.2492,-252 724.7508,-252 724.7508,-216 913.2492,-216 913.2492,-252"/>
<text text-anchor="middle" x="819" y="-229.8" font-family="Times,serif" font-size="14.00" fill="#000000">D3YAxisModifierComponent </text>
</g>
<!-- HelgolandD3Module&#45;&gt;D3YAxisModifierComponent  -->
<g id="edge19" class="edge">
<title>HelgolandD3Module&#45;&gt;D3YAxisModifierComponent </title>
<path fill="none" stroke="#000000" stroke-dasharray="5,2" d="M1298.5192,-180C1156.0229,-180 837.4287,-180 837.4287,-180 837.4287,-180 837.4287,-205.7181 837.4287,-205.7181"/>
<polygon fill="#000000" stroke="#000000" points="833.9287,-205.718 837.4287,-215.7181 840.9287,-205.7181 833.9287,-205.718"/>
</g>
<!-- ExportImageButtonComponent  -->
<g id="node21" class="node">
<title>ExportImageButtonComponent </title>
<polygon fill="#fb8072" stroke="#000000" points="707.0344,-252 510.9656,-252 510.9656,-216 707.0344,-216 707.0344,-252"/>
<text text-anchor="middle" x="609" y="-229.8" font-family="Times,serif" font-size="14.00" fill="#000000">ExportImageButtonComponent </text>
</g>
<!-- HelgolandD3Module&#45;&gt;ExportImageButtonComponent  -->
<g id="edge20" class="edge">
<title>HelgolandD3Module&#45;&gt;ExportImageButtonComponent </title>
<path fill="none" stroke="#000000" stroke-dasharray="5,2" d="M1298.4885,-177C1112.9517,-177 609,-177 609,-177 609,-177 609,-205.9648 609,-205.9648"/>
<polygon fill="#000000" stroke="#000000" points="605.5001,-205.9648 609,-215.9648 612.5001,-205.9649 605.5001,-205.9648"/>
</g>
<!-- ExtendedDataD3TimeseriesGraphComponent  -->
<g id="node22" class="node">
<title>ExtendedDataD3TimeseriesGraphComponent </title>
<polygon fill="#fb8072" stroke="#000000" points="492.6378,-252 215.3622,-252 215.3622,-216 492.6378,-216 492.6378,-252"/>
<text text-anchor="middle" x="354" y="-229.8" font-family="Times,serif" font-size="14.00" fill="#000000">ExtendedDataD3TimeseriesGraphComponent </text>
</g>
<!-- HelgolandD3Module&#45;&gt;ExtendedDataD3TimeseriesGraphComponent  -->
<g id="edge21" class="edge">
<title>HelgolandD3Module&#45;&gt;ExtendedDataD3TimeseriesGraphComponent </title>
<path fill="none" stroke="#000000" stroke-dasharray="5,2" d="M1298.419,-173C1091.6252,-173 481.375,-173 481.375,-173 481.375,-173 481.375,-205.698 481.375,-205.698"/>
<polygon fill="#000000" stroke="#000000" points="477.8751,-205.698 481.375,-215.698 484.8751,-205.698 477.8751,-205.698"/>
</g>
<!-- HelgolandCoreModule -->
<g id="node12" class="node">
<title>HelgolandCoreModule</title>
<polygon fill="#8dd3c7" stroke="#000000" points="445.5786,-122 442.5786,-126 421.5786,-126 418.5786,-122 300.4214,-122 300.4214,-86 445.5786,-86 445.5786,-122"/>
<text text-anchor="middle" x="373" y="-99.8" font-family="Times,serif" font-size="14.00" fill="#000000">HelgolandCoreModule</text>
</g>
<!-- HelgolandCoreModule&#45;&gt;HelgolandD3Module -->
<g id="edge11" class="edge">
<title>HelgolandCoreModule&#45;&gt;HelgolandD3Module</title>
<path fill="none" stroke="#000000" d="M373,-122.2667C373,-140.5552 373,-166 373,-166 373,-166 1288.1379,-166 1288.1379,-166"/>
<polygon fill="#000000" stroke="#000000" points="1288.1379,-169.5001 1298.1379,-166 1288.1379,-162.5001 1288.1379,-169.5001"/>
</g>
<!-- D3TimeFormatLocaleService -->
<g id="node23" class="node">
<title>D3TimeFormatLocaleService</title>
<ellipse fill="#fdb462" stroke="#000000" cx="150" cy="-104" rx="126.1791" ry="18"/>
<text text-anchor="middle" x="150" y="-99.8" font-family="Times,serif" font-size="14.00" fill="#000000">D3TimeFormatLocaleService</text>
</g>
<!-- D3TimeFormatLocaleService&#45;&gt;HelgolandD3Module -->
<g id="edge22" class="edge">
<title>D3TimeFormatLocaleService&#45;&gt;HelgolandD3Module</title>
<path fill="none" stroke="#000000" d="M245.7603,-115.922C245.7603,-134.687 245.7603,-169 245.7603,-169 245.7603,-169 1288.4468,-169 1288.4468,-169"/>
<polygon fill="#000000" stroke="#000000" points="1288.4468,-172.5001 1298.4468,-169 1288.4467,-165.5001 1288.4468,-172.5001"/>
</g>
</g>
</svg>
