<?xml version="1.0" encoding="UTF-8" standalone="no"?>
<!DOCTYPE svg PUBLIC "-//W3C//DTD SVG 1.1//EN"
 "http://www.w3.org/Graphics/SVG/1.1/DTD/svg11.dtd">
<!-- Generated by graphviz version 2.40.1 (20161225.0304)
 -->
<!-- Title: dependencies Pages: 1 -->
<svg width="1662pt" height="284pt"
 viewBox="0.00 0.00 1662.00 284.00" xmlns="http://www.w3.org/2000/svg" xmlns:xlink="http://www.w3.org/1999/xlink">
<g id="graph0" class="graph" transform="scale(1 1) rotate(0) translate(4 280)">
<title>dependencies</title>
<polygon fill="#ffffff" stroke="transparent" points="-4,4 -4,-280 1658,-280 1658,4 -4,4"/>
<text text-anchor="start" x="806.0091" y="-42.4" font-family="sans-serif" font-weight="bold" font-size="14.00" fill="#000000">Legend</text>
<polygon fill="#ffffb3" stroke="transparent" points="593,-10 593,-30 613,-30 613,-10 593,-10"/>
<text text-anchor="start" x="616.629" y="-15.4" font-family="sans-serif" font-size="14.00" fill="#000000"> &#160;Declarations</text>
<polygon fill="#8dd3c7" stroke="transparent" points="706,-10 706,-30 726,-30 726,-10 706,-10"/>
<text text-anchor="start" x="729.7251" y="-15.4" font-family="sans-serif" font-size="14.00" fill="#000000"> &#160;Module</text>
<polygon fill="#80b1d3" stroke="transparent" points="792,-10 792,-30 812,-30 812,-10 792,-10"/>
<text text-anchor="start" x="815.7812" y="-15.4" font-family="sans-serif" font-size="14.00" fill="#000000"> &#160;Bootstrap</text>
<polygon fill="#fdb462" stroke="transparent" points="889,-10 889,-30 909,-30 909,-10 889,-10"/>
<text text-anchor="start" x="912.6732" y="-15.4" font-family="sans-serif" font-size="14.00" fill="#000000"> &#160;Providers</text>
<polygon fill="#fb8072" stroke="transparent" points="985,-10 985,-30 1005,-30 1005,-10 985,-10"/>
<text text-anchor="start" x="1008.7258" y="-15.4" font-family="sans-serif" font-size="14.00" fill="#000000"> &#160;Exports</text>
<g id="clust1" class="cluster">
<title>cluster_HelgolandD3Module</title>
<polygon fill="none" stroke="#000000" stroke-dasharray="1,5" points="8,-70 8,-268 1646,-268 1646,-70 8,-70"/>
</g>
<g id="clust2" class="cluster">
<title>cluster_HelgolandD3Module_declarations</title>
<polygon fill="none" stroke="#000000" points="462,-78 462,-130 1638,-130 1638,-78 462,-78"/>
</g>
<g id="clust8" class="cluster">
<title>cluster_HelgolandD3Module_imports</title>
<polygon fill="none" stroke="#000000" points="292,-78 292,-130 454,-130 454,-78 292,-78"/>
</g>
<g id="clust9" class="cluster">
<title>cluster_HelgolandD3Module_exports</title>
<polygon fill="none" stroke="#000000" points="242,-208 242,-260 1436,-260 1436,-208 242,-208"/>
</g>
<g id="clust11" class="cluster">
<title>cluster_HelgolandD3Module_providers</title>
<polygon fill="none" stroke="#000000" points="16,-78 16,-130 284,-130 284,-78 16,-78"/>
</g>
<!-- D3GeneralGraphComponent -->
<g id="node1" class="node">
<title>D3GeneralGraphComponent</title>
<polygon fill="#ffffb3" stroke="#000000" points="1629.7226,-122 1452.2774,-122 1452.2774,-86 1629.7226,-86 1629.7226,-122"/>
<text text-anchor="middle" x="1541" y="-99.8" font-family="Times,serif" font-size="14.00" fill="#000000">D3GeneralGraphComponent</text>
</g>
<!-- HelgolandD3Module -->
<g id="node6" class="node">
<title>HelgolandD3Module</title>
<polygon fill="#8dd3c7" stroke="#000000" points="925.4734,-187 922.4734,-191 901.4734,-191 898.4734,-187 790.5266,-187 790.5266,-151 925.4734,-151 925.4734,-187"/>
<text text-anchor="middle" x="858" y="-164.8" font-family="Times,serif" font-size="14.00" fill="#000000">HelgolandD3Module</text>
</g>
<!-- D3GeneralGraphComponent&#45;&gt;HelgolandD3Module -->
<g id="edge1" class="edge">
<title>D3GeneralGraphComponent&#45;&gt;HelgolandD3Module</title>
<path fill="none" stroke="#000000" d="M1541,-122.1061C1541,-141.3391 1541,-169 1541,-169 1541,-169 935.6715,-169 935.6715,-169"/>
<polygon fill="#000000" stroke="#000000" points="935.6715,-165.5001 925.6715,-169 935.6714,-172.5001 935.6715,-165.5001"/>
</g>
<!-- D3OverviewTimeseriesGraphComponent -->
<g id="node2" class="node">
<title>D3OverviewTimeseriesGraphComponent</title>
<polygon fill="#ffffb3" stroke="#000000" points="1434.0324,-122 1183.9676,-122 1183.9676,-86 1434.0324,-86 1434.0324,-122"/>
<text text-anchor="middle" x="1309" y="-99.8" font-family="Times,serif" font-size="14.00" fill="#000000">D3OverviewTimeseriesGraphComponent</text>
</g>
<!-- D3OverviewTimeseriesGraphComponent&#45;&gt;HelgolandD3Module -->
<g id="edge2" class="edge">
<title>D3OverviewTimeseriesGraphComponent&#45;&gt;HelgolandD3Module</title>
<path fill="none" stroke="#000000" d="M1206.375,-122.0225C1206.375,-139.3734 1206.375,-163 1206.375,-163 1206.375,-163 935.5833,-163 935.5833,-163"/>
<polygon fill="#000000" stroke="#000000" points="935.5833,-159.5001 925.5833,-163 935.5832,-166.5001 935.5833,-159.5001"/>
</g>
<!-- D3TimeseriesGraphComponent -->
<g id="node3" class="node">
<title>D3TimeseriesGraphComponent</title>
<polygon fill="#ffffb3" stroke="#000000" points="1166.3389,-122 971.6611,-122 971.6611,-86 1166.3389,-86 1166.3389,-122"/>
<text text-anchor="middle" x="1069" y="-99.8" font-family="Times,serif" font-size="14.00" fill="#000000">D3TimeseriesGraphComponent</text>
</g>
<!-- D3TimeseriesGraphComponent&#45;&gt;HelgolandD3Module -->
<g id="edge3" class="edge">
<title>D3TimeseriesGraphComponent&#45;&gt;HelgolandD3Module</title>
<path fill="none" stroke="#000000" d="M1102.6909,-122.2396C1102.6909,-137.5706 1102.6909,-157 1102.6909,-157 1102.6909,-157 935.5106,-157 935.5106,-157"/>
<polygon fill="#000000" stroke="#000000" points="935.5106,-153.5001 925.5106,-157 935.5106,-160.5001 935.5106,-153.5001"/>
</g>
<!-- D3TrajectoryGraphComponent -->
<g id="node4" class="node">
<title>D3TrajectoryGraphComponent</title>
<polygon fill="#ffffb3" stroke="#000000" points="953.7198,-122 762.2802,-122 762.2802,-86 953.7198,-86 953.7198,-122"/>
<text text-anchor="middle" x="858" y="-99.8" font-family="Times,serif" font-size="14.00" fill="#000000">D3TrajectoryGraphComponent</text>
</g>
<!-- D3TrajectoryGraphComponent&#45;&gt;HelgolandD3Module -->
<g id="edge4" class="edge">
<title>D3TrajectoryGraphComponent&#45;&gt;HelgolandD3Module</title>
<path fill="none" stroke="#000000" d="M858,-122.1061C858,-122.1061 858,-140.991 858,-140.991"/>
<polygon fill="#000000" stroke="#000000" points="854.5001,-140.9909 858,-150.991 861.5001,-140.991 854.5001,-140.9909"/>
</g>
<!-- ExtendedDataD3TimeseriesGraphComponent -->
<g id="node5" class="node">
<title>ExtendedDataD3TimeseriesGraphComponent</title>
<polygon fill="#ffffb3" stroke="#000000" points="744.1376,-122 469.8624,-122 469.8624,-86 744.1376,-86 744.1376,-122"/>
<text text-anchor="middle" x="607" y="-99.8" font-family="Times,serif" font-size="14.00" fill="#000000">ExtendedDataD3TimeseriesGraphComponent</text>
</g>
<!-- ExtendedDataD3TimeseriesGraphComponent&#45;&gt;HelgolandD3Module -->
<g id="edge5" class="edge">
<title>ExtendedDataD3TimeseriesGraphComponent&#45;&gt;HelgolandD3Module</title>
<path fill="none" stroke="#000000" d="M610.4634,-122.2396C610.4634,-137.5706 610.4634,-157 610.4634,-157 610.4634,-157 780.3595,-157 780.3595,-157"/>
<polygon fill="#000000" stroke="#000000" points="780.3596,-160.5001 790.3595,-157 780.3595,-153.5001 780.3596,-160.5001"/>
</g>
<!-- D3GeneralGraphComponent  -->
<g id="node8" class="node">
<title>D3GeneralGraphComponent </title>
<polygon fill="#fb8072" stroke="#000000" points="1427.7225,-252 1246.2775,-252 1246.2775,-216 1427.7225,-216 1427.7225,-252"/>
<text text-anchor="middle" x="1337" y="-229.8" font-family="Times,serif" font-size="14.00" fill="#000000">D3GeneralGraphComponent </text>
</g>
<!-- HelgolandD3Module&#45;&gt;D3GeneralGraphComponent  -->
<g id="edge7" class="edge">
<title>HelgolandD3Module&#45;&gt;D3GeneralGraphComponent </title>
<path fill="none" stroke="#000000" stroke-dasharray="5,2" d="M925.6131,-175C1057.6497,-175 1337,-175 1337,-175 1337,-175 1337,-205.9775 1337,-205.9775"/>
<polygon fill="#000000" stroke="#000000" points="1333.5001,-205.9774 1337,-215.9775 1340.5001,-205.9775 1333.5001,-205.9774"/>
</g>
<!-- D3OverviewTimeseriesGraphComponent  -->
<g id="node9" class="node">
<title>D3OverviewTimeseriesGraphComponent </title>
<polygon fill="#fb8072" stroke="#000000" points="1228.5328,-252 975.4672,-252 975.4672,-216 1228.5328,-216 1228.5328,-252"/>
<text text-anchor="middle" x="1102" y="-229.8" font-family="Times,serif" font-size="14.00" fill="#000000">D3OverviewTimeseriesGraphComponent </text>
</g>
<!-- HelgolandD3Module&#45;&gt;D3OverviewTimeseriesGraphComponent  -->
<g id="edge8" class="edge">
<title>HelgolandD3Module&#45;&gt;D3OverviewTimeseriesGraphComponent </title>
<path fill="none" stroke="#000000" stroke-dasharray="5,2" d="M925.641,-181C977.0408,-181 1038.9623,-181 1038.9623,-181 1038.9623,-181 1038.9623,-205.7604 1038.9623,-205.7604"/>
<polygon fill="#000000" stroke="#000000" points="1035.4624,-205.7604 1038.9623,-215.7604 1042.4624,-205.7604 1035.4624,-205.7604"/>
</g>
<!-- D3TimeseriesGraphComponent  -->
<g id="node10" class="node">
<title>D3TimeseriesGraphComponent </title>
<polygon fill="#fb8072" stroke="#000000" points="957.3391,-252 758.6609,-252 758.6609,-216 957.3391,-216 957.3391,-252"/>
<text text-anchor="middle" x="858" y="-229.8" font-family="Times,serif" font-size="14.00" fill="#000000">D3TimeseriesGraphComponent </text>
</g>
<!-- HelgolandD3Module&#45;&gt;D3TimeseriesGraphComponent  -->
<g id="edge9" class="edge">
<title>HelgolandD3Module&#45;&gt;D3TimeseriesGraphComponent </title>
<path fill="none" stroke="#000000" stroke-dasharray="5,2" d="M858,-187.1061C858,-187.1061 858,-205.991 858,-205.991"/>
<polygon fill="#000000" stroke="#000000" points="854.5001,-205.9909 858,-215.991 861.5001,-205.991 854.5001,-205.9909"/>
</g>
<!-- D3TrajectoryGraphComponent  -->
<g id="node11" class="node">
<title>D3TrajectoryGraphComponent </title>
<polygon fill="#fb8072" stroke="#000000" points="740.7197,-252 545.2803,-252 545.2803,-216 740.7197,-216 740.7197,-252"/>
<text text-anchor="middle" x="643" y="-229.8" font-family="Times,serif" font-size="14.00" fill="#000000">D3TrajectoryGraphComponent </text>
</g>
<!-- HelgolandD3Module&#45;&gt;D3TrajectoryGraphComponent  -->
<g id="edge10" class="edge">
<title>HelgolandD3Module&#45;&gt;D3TrajectoryGraphComponent </title>
<path fill="none" stroke="#000000" stroke-dasharray="5,2" d="M790.3167,-181C738.3894,-181 675.5366,-181 675.5366,-181 675.5366,-181 675.5366,-205.7604 675.5366,-205.7604"/>
<polygon fill="#000000" stroke="#000000" points="672.0367,-205.7604 675.5366,-215.7604 679.0367,-205.7604 672.0367,-205.7604"/>
</g>
<!-- ExtendedDataD3TimeseriesGraphComponent  -->
<g id="node12" class="node">
<title>ExtendedDataD3TimeseriesGraphComponent </title>
<polygon fill="#fb8072" stroke="#000000" points="527.6378,-252 250.3622,-252 250.3622,-216 527.6378,-216 527.6378,-252"/>
<text text-anchor="middle" x="389" y="-229.8" font-family="Times,serif" font-size="14.00" fill="#000000">ExtendedDataD3TimeseriesGraphComponent </text>
</g>
<!-- HelgolandD3Module&#45;&gt;ExtendedDataD3TimeseriesGraphComponent  -->
<g id="edge11" class="edge">
<title>HelgolandD3Module&#45;&gt;ExtendedDataD3TimeseriesGraphComponent </title>
<path fill="none" stroke="#000000" stroke-dasharray="5,2" d="M790.4513,-175C686.4216,-175 498.875,-175 498.875,-175 498.875,-175 498.875,-205.9775 498.875,-205.9775"/>
<polygon fill="#000000" stroke="#000000" points="495.3751,-205.9774 498.875,-215.9775 502.3751,-205.9775 495.3751,-205.9774"/>
</g>
<!-- HelgolandCoreModule -->
<g id="node7" class="node">
<title>HelgolandCoreModule</title>
<polygon fill="#8dd3c7" stroke="#000000" points="445.5786,-122 442.5786,-126 421.5786,-126 418.5786,-122 300.4214,-122 300.4214,-86 445.5786,-86 445.5786,-122"/>
<text text-anchor="middle" x="373" y="-99.8" font-family="Times,serif" font-size="14.00" fill="#000000">HelgolandCoreModule</text>
</g>
<!-- HelgolandCoreModule&#45;&gt;HelgolandD3Module -->
<g id="edge6" class="edge">
<title>HelgolandCoreModule&#45;&gt;HelgolandD3Module</title>
<path fill="none" stroke="#000000" d="M373,-122.0225C373,-139.3734 373,-163 373,-163 373,-163 780.3077,-163 780.3077,-163"/>
<polygon fill="#000000" stroke="#000000" points="780.3077,-166.5001 790.3077,-163 780.3076,-159.5001 780.3077,-166.5001"/>
</g>
<!-- D3TimeFormatLocaleService -->
<g id="node13" class="node">
<title>D3TimeFormatLocaleService</title>
<ellipse fill="#fdb462" stroke="#000000" cx="150" cy="-104" rx="126.1791" ry="18"/>
<text text-anchor="middle" x="150" y="-99.8" font-family="Times,serif" font-size="14.00" fill="#000000">D3TimeFormatLocaleService</text>
</g>
<!-- D3TimeFormatLocaleService&#45;&gt;HelgolandD3Module -->
<g id="edge12" class="edge">
<title>D3TimeFormatLocaleService&#45;&gt;HelgolandD3Module</title>
<path fill="none" stroke="#000000" d="M263.2603,-112.2323C263.2603,-129.7229 263.2603,-169 263.2603,-169 263.2603,-169 780.3548,-169 780.3548,-169"/>
<polygon fill="#000000" stroke="#000000" points="780.3549,-172.5001 790.3548,-169 780.3548,-165.5001 780.3549,-172.5001"/>
</g>
</g>
</svg>
