<?xml version="1.0" encoding="UTF-8" standalone="no"?>
<!DOCTYPE svg PUBLIC "-//W3C//DTD SVG 1.1//EN"
 "http://www.w3.org/Graphics/SVG/1.1/DTD/svg11.dtd">
<!-- Generated by graphviz version 2.40.1 (20161225.0304)
 -->
<!-- Title: dependencies Pages: 1 -->
<svg width="1466pt" height="284pt"
 viewBox="0.00 0.00 1466.00 284.00" xmlns="http://www.w3.org/2000/svg" xmlns:xlink="http://www.w3.org/1999/xlink">
<g id="graph0" class="graph" transform="scale(1 1) rotate(0) translate(4 280)">
<title>dependencies</title>
<polygon fill="#ffffff" stroke="transparent" points="-4,4 -4,-280 1462,-280 1462,4 -4,4"/>
<text text-anchor="start" x="708.0091" y="-42.4" font-family="sans-serif" font-weight="bold" font-size="14.00" fill="#000000">Legend</text>
<polygon fill="#ffffb3" stroke="transparent" points="495,-10 495,-30 515,-30 515,-10 495,-10"/>
<text text-anchor="start" x="518.629" y="-15.4" font-family="sans-serif" font-size="14.00" fill="#000000"> &#160;Declarations</text>
<polygon fill="#8dd3c7" stroke="transparent" points="608,-10 608,-30 628,-30 628,-10 608,-10"/>
<text text-anchor="start" x="631.7251" y="-15.4" font-family="sans-serif" font-size="14.00" fill="#000000"> &#160;Module</text>
<polygon fill="#80b1d3" stroke="transparent" points="694,-10 694,-30 714,-30 714,-10 694,-10"/>
<text text-anchor="start" x="717.7812" y="-15.4" font-family="sans-serif" font-size="14.00" fill="#000000"> &#160;Bootstrap</text>
<polygon fill="#fdb462" stroke="transparent" points="791,-10 791,-30 811,-30 811,-10 791,-10"/>
<text text-anchor="start" x="814.6732" y="-15.4" font-family="sans-serif" font-size="14.00" fill="#000000"> &#160;Providers</text>
<polygon fill="#fb8072" stroke="transparent" points="887,-10 887,-30 907,-30 907,-10 887,-10"/>
<text text-anchor="start" x="910.7258" y="-15.4" font-family="sans-serif" font-size="14.00" fill="#000000"> &#160;Exports</text>
<g id="clust1" class="cluster">
<title>cluster_HelgolandD3Module</title>
<polygon fill="none" stroke="#000000" stroke-dasharray="1,5" points="8,-70 8,-268 1450,-268 1450,-70 8,-70"/>
</g>
<g id="clust2" class="cluster">
<title>cluster_HelgolandD3Module_declarations</title>
<polygon fill="none" stroke="#000000" points="462,-78 462,-130 1442,-130 1442,-78 462,-78"/>
</g>
<g id="clust7" class="cluster">
<title>cluster_HelgolandD3Module_imports</title>
<polygon fill="none" stroke="#000000" points="292,-78 292,-130 454,-130 454,-78 292,-78"/>
</g>
<g id="clust8" class="cluster">
<title>cluster_HelgolandD3Module_exports</title>
<polygon fill="none" stroke="#000000" points="219,-208 219,-260 1214,-260 1214,-208 219,-208"/>
</g>
<g id="clust10" class="cluster">
<title>cluster_HelgolandD3Module_providers</title>
<polygon fill="none" stroke="#000000" points="16,-78 16,-130 284,-130 284,-78 16,-78"/>
</g>
<!-- D3OverviewTimeseriesGraphComponent -->
<g id="node1" class="node">
<title>D3OverviewTimeseriesGraphComponent</title>
<polygon fill="#ffffb3" stroke="#000000" points="1434.0324,-122 1183.9676,-122 1183.9676,-86 1434.0324,-86 1434.0324,-122"/>
<text text-anchor="middle" x="1309" y="-99.8" font-family="Times,serif" font-size="14.00" fill="#000000">D3OverviewTimeseriesGraphComponent</text>
</g>
<!-- HelgolandD3Module -->
<g id="node5" class="node">
<title>HelgolandD3Module</title>
<polygon fill="#8dd3c7" stroke="#000000" points="794.4734,-187 791.4734,-191 770.4734,-191 767.4734,-187 659.5266,-187 659.5266,-151 794.4734,-151 794.4734,-187"/>
<text text-anchor="middle" x="727" y="-164.8" font-family="Times,serif" font-size="14.00" fill="#000000">HelgolandD3Module</text>
</g>
<!-- D3OverviewTimeseriesGraphComponent&#45;&gt;HelgolandD3Module -->
<g id="edge1" class="edge">
<title>D3OverviewTimeseriesGraphComponent&#45;&gt;HelgolandD3Module</title>
<path fill="none" stroke="#000000" d="M1194.875,-122.1061C1194.875,-141.3391 1194.875,-169 1194.875,-169 1194.875,-169 804.5334,-169 804.5334,-169"/>
<polygon fill="#000000" stroke="#000000" points="804.5334,-165.5001 794.5334,-169 804.5333,-172.5001 804.5334,-165.5001"/>
</g>
<!-- D3TimeseriesGraphComponent -->
<g id="node2" class="node">
<title>D3TimeseriesGraphComponent</title>
<polygon fill="#ffffb3" stroke="#000000" points="1166.3389,-122 971.6611,-122 971.6611,-86 1166.3389,-86 1166.3389,-122"/>
<text text-anchor="middle" x="1069" y="-99.8" font-family="Times,serif" font-size="14.00" fill="#000000">D3TimeseriesGraphComponent</text>
</g>
<!-- D3TimeseriesGraphComponent&#45;&gt;HelgolandD3Module -->
<g id="edge2" class="edge">
<title>D3TimeseriesGraphComponent&#45;&gt;HelgolandD3Module</title>
<path fill="none" stroke="#000000" d="M1069,-122.027C1069,-138.3976 1069,-160 1069,-160 1069,-160 804.5682,-160 804.5682,-160"/>
<polygon fill="#000000" stroke="#000000" points="804.5682,-156.5001 794.5682,-160 804.5682,-163.5001 804.5682,-156.5001"/>
</g>
<!-- D3TrajectoryGraphComponent -->
<g id="node3" class="node">
<title>D3TrajectoryGraphComponent</title>
<polygon fill="#ffffb3" stroke="#000000" points="953.7198,-122 762.2802,-122 762.2802,-86 953.7198,-86 953.7198,-122"/>
<text text-anchor="middle" x="858" y="-99.8" font-family="Times,serif" font-size="14.00" fill="#000000">D3TrajectoryGraphComponent</text>
</g>
<!-- D3TrajectoryGraphComponent&#45;&gt;HelgolandD3Module -->
<g id="edge3" class="edge">
<title>D3TrajectoryGraphComponent&#45;&gt;HelgolandD3Module</title>
<path fill="none" stroke="#000000" d="M778.3135,-122.1061C778.3135,-122.1061 778.3135,-140.991 778.3135,-140.991"/>
<polygon fill="#000000" stroke="#000000" points="774.8135,-140.9909 778.3135,-150.991 781.8135,-140.991 774.8135,-140.9909"/>
</g>
<!-- ExtendedDataD3TimeseriesGraphComponent -->
<g id="node4" class="node">
<title>ExtendedDataD3TimeseriesGraphComponent</title>
<polygon fill="#ffffb3" stroke="#000000" points="744.1376,-122 469.8624,-122 469.8624,-86 744.1376,-86 744.1376,-122"/>
<text text-anchor="middle" x="607" y="-99.8" font-family="Times,serif" font-size="14.00" fill="#000000">ExtendedDataD3TimeseriesGraphComponent</text>
</g>
<!-- ExtendedDataD3TimeseriesGraphComponent&#45;&gt;HelgolandD3Module -->
<g id="edge4" class="edge">
<title>ExtendedDataD3TimeseriesGraphComponent&#45;&gt;HelgolandD3Module</title>
<path fill="none" stroke="#000000" d="M701.7911,-122.1061C701.7911,-122.1061 701.7911,-140.991 701.7911,-140.991"/>
<polygon fill="#000000" stroke="#000000" points="698.2911,-140.9909 701.7911,-150.991 705.2911,-140.991 698.2911,-140.9909"/>
</g>
<!-- D3OverviewTimeseriesGraphComponent  -->
<g id="node7" class="node">
<title>D3OverviewTimeseriesGraphComponent </title>
<polygon fill="#fb8072" stroke="#000000" points="1205.5328,-252 952.4672,-252 952.4672,-216 1205.5328,-216 1205.5328,-252"/>
<text text-anchor="middle" x="1079" y="-229.8" font-family="Times,serif" font-size="14.00" fill="#000000">D3OverviewTimeseriesGraphComponent </text>
</g>
<!-- HelgolandD3Module&#45;&gt;D3OverviewTimeseriesGraphComponent  -->
<g id="edge6" class="edge">
<title>HelgolandD3Module&#45;&gt;D3OverviewTimeseriesGraphComponent </title>
<path fill="none" stroke="#000000" stroke-dasharray="5,2" d="M794.5479,-178C864.2028,-178 962.7202,-178 962.7202,-178 962.7202,-178 962.7202,-205.973 962.7202,-205.973"/>
<polygon fill="#000000" stroke="#000000" points="959.2203,-205.973 962.7202,-215.973 966.2203,-205.973 959.2203,-205.973"/>
</g>
<!-- D3TimeseriesGraphComponent  -->
<g id="node8" class="node">
<title>D3TimeseriesGraphComponent </title>
<polygon fill="#fb8072" stroke="#000000" points="934.3391,-252 735.6609,-252 735.6609,-216 934.3391,-216 934.3391,-252"/>
<text text-anchor="middle" x="835" y="-229.8" font-family="Times,serif" font-size="14.00" fill="#000000">D3TimeseriesGraphComponent </text>
</g>
<!-- HelgolandD3Module&#45;&gt;D3TimeseriesGraphComponent  -->
<g id="edge7" class="edge">
<title>HelgolandD3Module&#45;&gt;D3TimeseriesGraphComponent </title>
<path fill="none" stroke="#000000" stroke-dasharray="5,2" d="M765.1587,-187.1061C765.1587,-187.1061 765.1587,-205.991 765.1587,-205.991"/>
<polygon fill="#000000" stroke="#000000" points="761.6587,-205.9909 765.1587,-215.991 768.6587,-205.991 761.6587,-205.9909"/>
</g>
<!-- D3TrajectoryGraphComponent  -->
<g id="node9" class="node">
<title>D3TrajectoryGraphComponent </title>
<polygon fill="#fb8072" stroke="#000000" points="717.7197,-252 522.2803,-252 522.2803,-216 717.7197,-216 717.7197,-252"/>
<text text-anchor="middle" x="620" y="-229.8" font-family="Times,serif" font-size="14.00" fill="#000000">D3TrajectoryGraphComponent </text>
</g>
<!-- HelgolandD3Module&#45;&gt;D3TrajectoryGraphComponent  -->
<g id="edge8" class="edge">
<title>HelgolandD3Module&#45;&gt;D3TrajectoryGraphComponent </title>
<path fill="none" stroke="#000000" stroke-dasharray="5,2" d="M688.5616,-187.1061C688.5616,-187.1061 688.5616,-205.991 688.5616,-205.991"/>
<polygon fill="#000000" stroke="#000000" points="685.0616,-205.9909 688.5616,-215.991 692.0616,-205.991 685.0616,-205.9909"/>
</g>
<!-- ExtendedDataD3TimeseriesGraphComponent  -->
<g id="node10" class="node">
<title>ExtendedDataD3TimeseriesGraphComponent </title>
<polygon fill="#fb8072" stroke="#000000" points="504.6378,-252 227.3622,-252 227.3622,-216 504.6378,-216 504.6378,-252"/>
<text text-anchor="middle" x="366" y="-229.8" font-family="Times,serif" font-size="14.00" fill="#000000">ExtendedDataD3TimeseriesGraphComponent </text>
</g>
<!-- HelgolandD3Module&#45;&gt;ExtendedDataD3TimeseriesGraphComponent  -->
<g id="edge9" class="edge">
<title>HelgolandD3Module&#45;&gt;ExtendedDataD3TimeseriesGraphComponent </title>
<path fill="none" stroke="#000000" stroke-dasharray="5,2" d="M659.2939,-178C588.4341,-178 487.375,-178 487.375,-178 487.375,-178 487.375,-205.973 487.375,-205.973"/>
<polygon fill="#000000" stroke="#000000" points="483.8751,-205.973 487.375,-215.973 490.8751,-205.973 483.8751,-205.973"/>
</g>
<!-- HelgolandCoreModule -->
<g id="node6" class="node">
<title>HelgolandCoreModule</title>
<polygon fill="#8dd3c7" stroke="#000000" points="445.5786,-122 442.5786,-126 421.5786,-126 418.5786,-122 300.4214,-122 300.4214,-86 445.5786,-86 445.5786,-122"/>
<text text-anchor="middle" x="373" y="-99.8" font-family="Times,serif" font-size="14.00" fill="#000000">HelgolandCoreModule</text>
</g>
<!-- HelgolandCoreModule&#45;&gt;HelgolandD3Module -->
<g id="edge5" class="edge">
<title>HelgolandCoreModule&#45;&gt;HelgolandD3Module</title>
<path fill="none" stroke="#000000" d="M373,-122.027C373,-138.3976 373,-160 373,-160 373,-160 649.1641,-160 649.1641,-160"/>
<polygon fill="#000000" stroke="#000000" points="649.1641,-163.5001 659.1641,-160 649.1641,-156.5001 649.1641,-163.5001"/>
</g>
<!-- D3TimeFormatLocaleService -->
<g id="node11" class="node">
<title>D3TimeFormatLocaleService</title>
<ellipse fill="#fdb462" stroke="#000000" cx="150" cy="-104" rx="126.1791" ry="18"/>
<text text-anchor="middle" x="150" y="-99.8" font-family="Times,serif" font-size="14.00" fill="#000000">D3TimeFormatLocaleService</text>
</g>
<!-- D3TimeFormatLocaleService&#45;&gt;HelgolandD3Module -->
<g id="edge10" class="edge">
<title>D3TimeFormatLocaleService&#45;&gt;HelgolandD3Module</title>
<path fill="none" stroke="#000000" d="M251.7603,-114.7334C251.7603,-133.1953 251.7603,-169 251.7603,-169 251.7603,-169 649.4144,-169 649.4144,-169"/>
<polygon fill="#000000" stroke="#000000" points="649.4145,-172.5001 659.4144,-169 649.4144,-165.5001 649.4145,-172.5001"/>
</g>
</g>
</svg>
