<?xml version="1.0" encoding="UTF-8" standalone="no"?>
<!DOCTYPE svg PUBLIC "-//W3C//DTD SVG 1.1//EN"
 "http://www.w3.org/Graphics/SVG/1.1/DTD/svg11.dtd">
<!-- Generated by graphviz version 2.40.1 (20161225.0304)
 -->
<!-- Title: dependencies Pages: 1 -->
<svg width="748pt" height="284pt"
 viewBox="0.00 0.00 748.00 284.00" xmlns="http://www.w3.org/2000/svg" xmlns:xlink="http://www.w3.org/1999/xlink">
<g id="graph0" class="graph" transform="scale(1 1) rotate(0) translate(4 280)">
<title>dependencies</title>
<polygon fill="#ffffff" stroke="transparent" points="-4,4 -4,-280 744,-280 744,4 -4,4"/>
<text text-anchor="start" x="349.0091" y="-42.4" font-family="sans-serif" font-weight="bold" font-size="14.00" fill="#000000">Legend</text>
<polygon fill="#ffffb3" stroke="transparent" points="136,-10 136,-30 156,-30 156,-10 136,-10"/>
<text text-anchor="start" x="159.629" y="-15.4" font-family="sans-serif" font-size="14.00" fill="#000000"> &#160;Declarations</text>
<polygon fill="#8dd3c7" stroke="transparent" points="249,-10 249,-30 269,-30 269,-10 249,-10"/>
<text text-anchor="start" x="272.7251" y="-15.4" font-family="sans-serif" font-size="14.00" fill="#000000"> &#160;Module</text>
<polygon fill="#80b1d3" stroke="transparent" points="335,-10 335,-30 355,-30 355,-10 335,-10"/>
<text text-anchor="start" x="358.7812" y="-15.4" font-family="sans-serif" font-size="14.00" fill="#000000"> &#160;Bootstrap</text>
<polygon fill="#fdb462" stroke="transparent" points="432,-10 432,-30 452,-30 452,-10 432,-10"/>
<text text-anchor="start" x="455.6732" y="-15.4" font-family="sans-serif" font-size="14.00" fill="#000000"> &#160;Providers</text>
<polygon fill="#fb8072" stroke="transparent" points="528,-10 528,-30 548,-30 548,-10 528,-10"/>
<text text-anchor="start" x="551.7258" y="-15.4" font-family="sans-serif" font-size="14.00" fill="#000000"> &#160;Exports</text>
<g id="clust1" class="cluster">
<title>cluster_HelgolandFlotModule</title>
<polygon fill="none" stroke="#000000" stroke-dasharray="1,5" points="8,-70 8,-268 732,-268 732,-70 8,-70"/>
</g>
<g id="clust2" class="cluster">
<title>cluster_HelgolandFlotModule_declarations</title>
<polygon fill="none" stroke="#000000" points="234,-78 234,-130 724,-130 724,-78 234,-78"/>
</g>
<g id="clust5" class="cluster">
<title>cluster_HelgolandFlotModule_imports</title>
<polygon fill="none" stroke="#000000" points="16,-78 16,-130 226,-130 226,-78 16,-78"/>
</g>
<g id="clust6" class="cluster">
<title>cluster_HelgolandFlotModule_exports</title>
<polygon fill="none" stroke="#000000" points="122,-208 122,-260 618,-260 618,-208 122,-208"/>
</g>
<!-- FlotTimeseriesGraphComponent -->
<g id="node1" class="node">
<title>FlotTimeseriesGraphComponent</title>
<polygon fill="#ffffb3" stroke="#000000" points="716.2962,-122 515.7038,-122 515.7038,-86 716.2962,-86 716.2962,-122"/>
<text text-anchor="middle" x="616" y="-99.8" font-family="Times,serif" font-size="14.00" fill="#000000">FlotTimeseriesGraphComponent</text>
</g>
<!-- HelgolandFlotModule -->
<g id="node3" class="node">
<title>HelgolandFlotModule</title>
<polygon fill="#8dd3c7" stroke="#000000" points="440.4313,-187 437.4313,-191 416.4313,-191 413.4313,-187 299.5687,-187 299.5687,-151 440.4313,-151 440.4313,-187"/>
<text text-anchor="middle" x="370" y="-164.8" font-family="Times,serif" font-size="14.00" fill="#000000">HelgolandFlotModule</text>
</g>
<!-- FlotTimeseriesGraphComponent&#45;&gt;HelgolandFlotModule -->
<g id="edge1" class="edge">
<title>FlotTimeseriesGraphComponent&#45;&gt;HelgolandFlotModule</title>
<path fill="none" stroke="#000000" d="M562.875,-122.1061C562.875,-141.3391 562.875,-169 562.875,-169 562.875,-169 450.451,-169 450.451,-169"/>
<polygon fill="#000000" stroke="#000000" points="450.4511,-165.5001 440.451,-169 450.451,-172.5001 450.4511,-165.5001"/>
</g>
<!-- FlotOverviewTimeseriesGraphComponent -->
<g id="node2" class="node">
<title>FlotOverviewTimeseriesGraphComponent</title>
<polygon fill="#ffffb3" stroke="#000000" points="497.9901,-122 242.0099,-122 242.0099,-86 497.9901,-86 497.9901,-122"/>
<text text-anchor="middle" x="370" y="-99.8" font-family="Times,serif" font-size="14.00" fill="#000000">FlotOverviewTimeseriesGraphComponent</text>
</g>
<!-- FlotOverviewTimeseriesGraphComponent&#45;&gt;HelgolandFlotModule -->
<g id="edge2" class="edge">
<title>FlotOverviewTimeseriesGraphComponent&#45;&gt;HelgolandFlotModule</title>
<path fill="none" stroke="#000000" d="M370,-122.1061C370,-122.1061 370,-140.991 370,-140.991"/>
<polygon fill="#000000" stroke="#000000" points="366.5001,-140.9909 370,-150.991 373.5001,-140.991 366.5001,-140.9909"/>
</g>
<!-- FlotTimeseriesGraphComponent  -->
<g id="node5" class="node">
<title>FlotTimeseriesGraphComponent </title>
<polygon fill="#fb8072" stroke="#000000" points="609.7961,-252 406.2039,-252 406.2039,-216 609.7961,-216 609.7961,-252"/>
<text text-anchor="middle" x="508" y="-229.8" font-family="Times,serif" font-size="14.00" fill="#000000">FlotTimeseriesGraphComponent </text>
</g>
<!-- HelgolandFlotModule&#45;&gt;FlotTimeseriesGraphComponent  -->
<g id="edge4" class="edge">
<title>HelgolandFlotModule&#45;&gt;FlotTimeseriesGraphComponent </title>
<path fill="none" stroke="#000000" stroke-dasharray="5,2" d="M423.1587,-187.1061C423.1587,-187.1061 423.1587,-205.991 423.1587,-205.991"/>
<polygon fill="#000000" stroke="#000000" points="419.6587,-205.9909 423.1587,-215.991 426.6587,-205.991 419.6587,-205.9909"/>
</g>
<!-- FlotOverviewTimeseriesGraphComponent  -->
<g id="node6" class="node">
<title>FlotOverviewTimeseriesGraphComponent </title>
<polygon fill="#fb8072" stroke="#000000" points="388.4896,-252 129.5104,-252 129.5104,-216 388.4896,-216 388.4896,-252"/>
<text text-anchor="middle" x="259" y="-229.8" font-family="Times,serif" font-size="14.00" fill="#000000">FlotOverviewTimeseriesGraphComponent </text>
</g>
<!-- HelgolandFlotModule&#45;&gt;FlotOverviewTimeseriesGraphComponent  -->
<g id="edge5" class="edge">
<title>HelgolandFlotModule&#45;&gt;FlotOverviewTimeseriesGraphComponent </title>
<path fill="none" stroke="#000000" stroke-dasharray="5,2" d="M344.1398,-187.1061C344.1398,-187.1061 344.1398,-205.991 344.1398,-205.991"/>
<polygon fill="#000000" stroke="#000000" points="340.6398,-205.9909 344.1398,-215.991 347.6398,-205.991 340.6398,-205.9909"/>
</g>
<!-- HelgolandLabelMapperModule -->
<g id="node4" class="node">
<title>HelgolandLabelMapperModule</title>
<polygon fill="#8dd3c7" stroke="#000000" points="217.7738,-122 214.7738,-126 193.7738,-126 190.7738,-122 24.2262,-122 24.2262,-86 217.7738,-86 217.7738,-122"/>
<text text-anchor="middle" x="121" y="-99.8" font-family="Times,serif" font-size="14.00" fill="#000000">HelgolandLabelMapperModule</text>
</g>
<!-- HelgolandLabelMapperModule&#45;&gt;HelgolandFlotModule -->
<g id="edge3" class="edge">
<title>HelgolandLabelMapperModule&#45;&gt;HelgolandFlotModule</title>
<path fill="none" stroke="#000000" d="M173.571,-122.1061C173.571,-141.3391 173.571,-169 173.571,-169 173.571,-169 289.6394,-169 289.6394,-169"/>
<polygon fill="#000000" stroke="#000000" points="289.6395,-172.5001 299.6394,-169 289.6394,-165.5001 289.6395,-172.5001"/>
</g>
</g>
</svg>
