<?xml version="1.0" encoding="UTF-8" standalone="no"?>
<!DOCTYPE svg PUBLIC "-//W3C//DTD SVG 1.1//EN"
 "http://www.w3.org/Graphics/SVG/1.1/DTD/svg11.dtd">
<!-- Generated by graphviz version 2.40.1 (20161225.0304)
 -->
<!-- Title: dependencies Pages: 1 -->
<svg width="1086pt" height="284pt"
 viewBox="0.00 0.00 1086.00 284.00" xmlns="http://www.w3.org/2000/svg" xmlns:xlink="http://www.w3.org/1999/xlink">
<g id="graph0" class="graph" transform="scale(1 1) rotate(0) translate(4 280)">
<title>dependencies</title>
<polygon fill="#ffffff" stroke="transparent" points="-4,4 -4,-280 1082,-280 1082,4 -4,4"/>
<text text-anchor="start" x="518.0091" y="-42.4" font-family="sans-serif" font-weight="bold" font-size="14.00" fill="#000000">Legend</text>
<polygon fill="#ffffb3" stroke="transparent" points="305,-10 305,-30 325,-30 325,-10 305,-10"/>
<text text-anchor="start" x="328.629" y="-15.4" font-family="sans-serif" font-size="14.00" fill="#000000"> &#160;Declarations</text>
<polygon fill="#8dd3c7" stroke="transparent" points="418,-10 418,-30 438,-30 438,-10 418,-10"/>
<text text-anchor="start" x="441.7251" y="-15.4" font-family="sans-serif" font-size="14.00" fill="#000000"> &#160;Module</text>
<polygon fill="#80b1d3" stroke="transparent" points="504,-10 504,-30 524,-30 524,-10 504,-10"/>
<text text-anchor="start" x="527.7812" y="-15.4" font-family="sans-serif" font-size="14.00" fill="#000000"> &#160;Bootstrap</text>
<polygon fill="#fdb462" stroke="transparent" points="601,-10 601,-30 621,-30 621,-10 601,-10"/>
<text text-anchor="start" x="624.6732" y="-15.4" font-family="sans-serif" font-size="14.00" fill="#000000"> &#160;Providers</text>
<polygon fill="#fb8072" stroke="transparent" points="697,-10 697,-30 717,-30 717,-10 697,-10"/>
<text text-anchor="start" x="720.7258" y="-15.4" font-family="sans-serif" font-size="14.00" fill="#000000"> &#160;Exports</text>
<g id="clust1" class="cluster">
<title>cluster_HelgolandTimeModule</title>
<polygon fill="none" stroke="#000000" stroke-dasharray="1,5" points="8,-70 8,-268 1070,-268 1070,-70 8,-70"/>
</g>
<g id="clust2" class="cluster">
<title>cluster_HelgolandTimeModule_declarations</title>
<polygon fill="none" stroke="#000000" points="186,-78 186,-130 1062,-130 1062,-78 186,-78"/>
</g>
<g id="clust7" class="cluster">
<title>cluster_HelgolandTimeModule_imports</title>
<polygon fill="none" stroke="#000000" points="16,-78 16,-130 178,-130 178,-78 16,-78"/>
</g>
<g id="clust8" class="cluster">
<title>cluster_HelgolandTimeModule_exports</title>
<polygon fill="none" stroke="#000000" points="94,-208 94,-260 984,-260 984,-208 94,-208"/>
</g>
<!-- PredefinedTimespanSelectorComponent -->
<g id="node1" class="node">
<title>PredefinedTimespanSelectorComponent</title>
<polygon fill="#ffffb3" stroke="#000000" points="1053.5464,-122 810.4536,-122 810.4536,-86 1053.5464,-86 1053.5464,-122"/>
<text text-anchor="middle" x="932" y="-99.8" font-family="Times,serif" font-size="14.00" fill="#000000">PredefinedTimespanSelectorComponent</text>
</g>
<!-- HelgolandTimeModule -->
<g id="node5" class="node">
<title>HelgolandTimeModule</title>
<polygon fill="#8dd3c7" stroke="#000000" points="564.9158,-187 561.9158,-191 540.9158,-191 537.9158,-187 417.0842,-187 417.0842,-151 564.9158,-151 564.9158,-187"/>
<text text-anchor="middle" x="491" y="-164.8" font-family="Times,serif" font-size="14.00" fill="#000000">HelgolandTimeModule</text>
</g>
<!-- PredefinedTimespanSelectorComponent&#45;&gt;HelgolandTimeModule -->
<g id="edge1" class="edge">
<title>PredefinedTimespanSelectorComponent&#45;&gt;HelgolandTimeModule</title>
<path fill="none" stroke="#000000" d="M893.375,-122.1061C893.375,-141.3391 893.375,-169 893.375,-169 893.375,-169 574.8018,-169 574.8018,-169"/>
<polygon fill="#000000" stroke="#000000" points="574.8018,-165.5001 564.8018,-169 574.8017,-172.5001 574.8018,-165.5001"/>
</g>
<!-- TimeListSelectorComponent -->
<g id="node2" class="node">
<title>TimeListSelectorComponent</title>
<polygon fill="#ffffb3" stroke="#000000" points="792.028,-122 613.972,-122 613.972,-86 792.028,-86 792.028,-122"/>
<text text-anchor="middle" x="703" y="-99.8" font-family="Times,serif" font-size="14.00" fill="#000000">TimeListSelectorComponent</text>
</g>
<!-- TimeListSelectorComponent&#45;&gt;HelgolandTimeModule -->
<g id="edge2" class="edge">
<title>TimeListSelectorComponent&#45;&gt;HelgolandTimeModule</title>
<path fill="none" stroke="#000000" d="M662.875,-122.027C662.875,-138.3976 662.875,-160 662.875,-160 662.875,-160 574.8879,-160 574.8879,-160"/>
<polygon fill="#000000" stroke="#000000" points="574.888,-156.5001 564.8879,-160 574.8879,-163.5001 574.888,-156.5001"/>
</g>
<!-- TimespanShiftSelectorComponent -->
<g id="node3" class="node">
<title>TimespanShiftSelectorComponent</title>
<polygon fill="#ffffb3" stroke="#000000" points="595.6329,-122 386.3671,-122 386.3671,-86 595.6329,-86 595.6329,-122"/>
<text text-anchor="middle" x="491" y="-99.8" font-family="Times,serif" font-size="14.00" fill="#000000">TimespanShiftSelectorComponent</text>
</g>
<!-- TimespanShiftSelectorComponent&#45;&gt;HelgolandTimeModule -->
<g id="edge3" class="edge">
<title>TimespanShiftSelectorComponent&#45;&gt;HelgolandTimeModule</title>
<path fill="none" stroke="#000000" d="M491,-122.1061C491,-122.1061 491,-140.991 491,-140.991"/>
<polygon fill="#000000" stroke="#000000" points="487.5001,-140.9909 491,-150.991 494.5001,-140.991 487.5001,-140.9909"/>
</g>
<!-- TimespanButtonComponent -->
<g id="node4" class="node">
<title>TimespanButtonComponent</title>
<polygon fill="#ffffb3" stroke="#000000" points="368.1581,-122 193.8419,-122 193.8419,-86 368.1581,-86 368.1581,-122"/>
<text text-anchor="middle" x="281" y="-99.8" font-family="Times,serif" font-size="14.00" fill="#000000">TimespanButtonComponent</text>
</g>
<!-- TimespanButtonComponent&#45;&gt;HelgolandTimeModule -->
<g id="edge4" class="edge">
<title>TimespanButtonComponent&#45;&gt;HelgolandTimeModule</title>
<path fill="none" stroke="#000000" d="M333.3813,-122.027C333.3813,-138.3976 333.3813,-160 333.3813,-160 333.3813,-160 407.267,-160 407.267,-160"/>
<polygon fill="#000000" stroke="#000000" points="407.2671,-163.5001 417.267,-160 407.267,-156.5001 407.2671,-163.5001"/>
</g>
<!-- PredefinedTimespanSelectorComponent  -->
<g id="node7" class="node">
<title>PredefinedTimespanSelectorComponent </title>
<polygon fill="#fb8072" stroke="#000000" points="976.0468,-252 729.9532,-252 729.9532,-216 976.0468,-216 976.0468,-252"/>
<text text-anchor="middle" x="853" y="-229.8" font-family="Times,serif" font-size="14.00" fill="#000000">PredefinedTimespanSelectorComponent </text>
</g>
<!-- HelgolandTimeModule&#45;&gt;PredefinedTimespanSelectorComponent  -->
<g id="edge6" class="edge">
<title>HelgolandTimeModule&#45;&gt;PredefinedTimespanSelectorComponent </title>
<path fill="none" stroke="#000000" stroke-dasharray="5,2" d="M564.7774,-178C644.718,-178 760.9952,-178 760.9952,-178 760.9952,-178 760.9952,-205.973 760.9952,-205.973"/>
<polygon fill="#000000" stroke="#000000" points="757.4953,-205.973 760.9952,-215.973 764.4953,-205.973 757.4953,-205.973"/>
</g>
<!-- TimeListSelectorComponent  -->
<g id="node8" class="node">
<title>TimeListSelectorComponent </title>
<polygon fill="#fb8072" stroke="#000000" points="712.0274,-252 529.9726,-252 529.9726,-216 712.0274,-216 712.0274,-252"/>
<text text-anchor="middle" x="621" y="-229.8" font-family="Times,serif" font-size="14.00" fill="#000000">TimeListSelectorComponent </text>
</g>
<!-- HelgolandTimeModule&#45;&gt;TimeListSelectorComponent  -->
<g id="edge7" class="edge">
<title>HelgolandTimeModule&#45;&gt;TimeListSelectorComponent </title>
<path fill="none" stroke="#000000" stroke-dasharray="5,2" d="M547.347,-187.1061C547.347,-187.1061 547.347,-205.991 547.347,-205.991"/>
<polygon fill="#000000" stroke="#000000" points="543.847,-205.9909 547.347,-215.991 550.847,-205.991 543.847,-205.9909"/>
</g>
<!-- TimespanShiftSelectorComponent  -->
<g id="node9" class="node">
<title>TimespanShiftSelectorComponent </title>
<polygon fill="#fb8072" stroke="#000000" points="511.6326,-252 298.3674,-252 298.3674,-216 511.6326,-216 511.6326,-252"/>
<text text-anchor="middle" x="405" y="-229.8" font-family="Times,serif" font-size="14.00" fill="#000000">TimespanShiftSelectorComponent </text>
</g>
<!-- HelgolandTimeModule&#45;&gt;TimespanShiftSelectorComponent  -->
<g id="edge8" class="edge">
<title>HelgolandTimeModule&#45;&gt;TimespanShiftSelectorComponent </title>
<path fill="none" stroke="#000000" stroke-dasharray="5,2" d="M464.4294,-187.1061C464.4294,-187.1061 464.4294,-205.991 464.4294,-205.991"/>
<polygon fill="#000000" stroke="#000000" points="460.9294,-205.9909 464.4294,-215.991 467.9294,-205.991 460.9294,-205.9909"/>
</g>
<!-- TimespanButtonComponent  -->
<g id="node10" class="node">
<title>TimespanButtonComponent </title>
<polygon fill="#fb8072" stroke="#000000" points="280.1579,-252 101.8421,-252 101.8421,-216 280.1579,-216 280.1579,-252"/>
<text text-anchor="middle" x="191" y="-229.8" font-family="Times,serif" font-size="14.00" fill="#000000">TimespanButtonComponent </text>
</g>
<!-- HelgolandTimeModule&#45;&gt;TimespanButtonComponent  -->
<g id="edge9" class="edge">
<title>HelgolandTimeModule&#45;&gt;TimespanButtonComponent </title>
<path fill="none" stroke="#000000" stroke-dasharray="5,2" d="M417.1552,-178C342.1241,-178 236.875,-178 236.875,-178 236.875,-178 236.875,-205.973 236.875,-205.973"/>
<polygon fill="#000000" stroke="#000000" points="233.3751,-205.973 236.875,-215.973 240.3751,-205.973 233.3751,-205.973"/>
</g>
<!-- HelgolandCoreModule -->
<g id="node6" class="node">
<title>HelgolandCoreModule</title>
<polygon fill="#8dd3c7" stroke="#000000" points="169.5786,-122 166.5786,-126 145.5786,-126 142.5786,-122 24.4214,-122 24.4214,-86 169.5786,-86 169.5786,-122"/>
<text text-anchor="middle" x="97" y="-99.8" font-family="Times,serif" font-size="14.00" fill="#000000">HelgolandCoreModule</text>
</g>
<!-- HelgolandCoreModule&#45;&gt;HelgolandTimeModule -->
<g id="edge5" class="edge">
<title>HelgolandCoreModule&#45;&gt;HelgolandTimeModule</title>
<path fill="none" stroke="#000000" d="M135.7302,-122.1061C135.7302,-141.3391 135.7302,-169 135.7302,-169 135.7302,-169 406.9563,-169 406.9563,-169"/>
<polygon fill="#000000" stroke="#000000" points="406.9563,-172.5001 416.9563,-169 406.9562,-165.5001 406.9563,-172.5001"/>
</g>
</g>
</svg>
