<?xml version="1.0" encoding="UTF-8" standalone="no"?>
<!DOCTYPE svg PUBLIC "-//W3C//DTD SVG 1.1//EN"
 "http://www.w3.org/Graphics/SVG/1.1/DTD/svg11.dtd">
<!-- Generated by graphviz version 2.40.1 (20161225.0304)
 -->
<!-- Title: dependencies Pages: 1 -->
<svg width="1644pt" height="284pt"
 viewBox="0.00 0.00 1644.00 284.00" xmlns="http://www.w3.org/2000/svg" xmlns:xlink="http://www.w3.org/1999/xlink">
<g id="graph0" class="graph" transform="scale(1 1) rotate(0) translate(4 280)">
<title>dependencies</title>
<polygon fill="#ffffff" stroke="transparent" points="-4,4 -4,-280 1640,-280 1640,4 -4,4"/>
<text text-anchor="start" x="797.0091" y="-42.4" font-family="sans-serif" font-weight="bold" font-size="14.00" fill="#000000">Legend</text>
<polygon fill="#ffffb3" stroke="transparent" points="584,-10 584,-30 604,-30 604,-10 584,-10"/>
<text text-anchor="start" x="607.629" y="-15.4" font-family="sans-serif" font-size="14.00" fill="#000000"> &#160;Declarations</text>
<polygon fill="#8dd3c7" stroke="transparent" points="697,-10 697,-30 717,-30 717,-10 697,-10"/>
<text text-anchor="start" x="720.7251" y="-15.4" font-family="sans-serif" font-size="14.00" fill="#000000"> &#160;Module</text>
<polygon fill="#80b1d3" stroke="transparent" points="783,-10 783,-30 803,-30 803,-10 783,-10"/>
<text text-anchor="start" x="806.7812" y="-15.4" font-family="sans-serif" font-size="14.00" fill="#000000"> &#160;Bootstrap</text>
<polygon fill="#fdb462" stroke="transparent" points="880,-10 880,-30 900,-30 900,-10 880,-10"/>
<text text-anchor="start" x="903.6732" y="-15.4" font-family="sans-serif" font-size="14.00" fill="#000000"> &#160;Providers</text>
<polygon fill="#fb8072" stroke="transparent" points="976,-10 976,-30 996,-30 996,-10 976,-10"/>
<text text-anchor="start" x="999.7258" y="-15.4" font-family="sans-serif" font-size="14.00" fill="#000000"> &#160;Exports</text>
<g id="clust1" class="cluster">
<title>cluster_HelgolandTimeModule</title>
<polygon fill="none" stroke="#000000" stroke-dasharray="1,5" points="8,-70 8,-268 1628,-268 1628,-70 8,-70"/>
</g>
<g id="clust2" class="cluster">
<title>cluster_HelgolandTimeModule_declarations</title>
<polygon fill="none" stroke="#000000" points="500,-78 500,-130 1620,-130 1620,-78 500,-78"/>
</g>
<g id="clust8" class="cluster">
<title>cluster_HelgolandTimeModule_imports</title>
<polygon fill="none" stroke="#000000" points="310,-78 310,-130 492,-130 492,-78 310,-78"/>
</g>
<g id="clust9" class="cluster">
<title>cluster_HelgolandTimeModule_exports</title>
<polygon fill="none" stroke="#000000" points="255,-208 255,-260 1392,-260 1392,-208 255,-208"/>
</g>
<g id="clust11" class="cluster">
<title>cluster_HelgolandTimeModule_providers</title>
<polygon fill="none" stroke="#000000" points="16,-78 16,-130 302,-130 302,-78 16,-78"/>
</g>
<!-- PredefinedTimespanSelectorComponent -->
<g id="node1" class="node">
<title>PredefinedTimespanSelectorComponent</title>
<polygon fill="#ffffb3" stroke="#000000" points="1611.5464,-122 1368.4536,-122 1368.4536,-86 1611.5464,-86 1611.5464,-122"/>
<text text-anchor="middle" x="1490" y="-99.8" font-family="Times,serif" font-size="14.00" fill="#000000">PredefinedTimespanSelectorComponent</text>
</g>
<!-- HelgolandTimeModule -->
<g id="node6" class="node">
<title>HelgolandTimeModule</title>
<polygon fill="#8dd3c7" stroke="#000000" points="878.9158,-187 875.9158,-191 854.9158,-191 851.9158,-187 731.0842,-187 731.0842,-151 878.9158,-151 878.9158,-187"/>
<text text-anchor="middle" x="805" y="-164.8" font-family="Times,serif" font-size="14.00" fill="#000000">HelgolandTimeModule</text>
</g>
<!-- PredefinedTimespanSelectorComponent&#45;&gt;HelgolandTimeModule -->
<g id="edge1" class="edge">
<title>PredefinedTimespanSelectorComponent&#45;&gt;HelgolandTimeModule</title>
<path fill="none" stroke="#000000" d="M1376.375,-122.1061C1376.375,-141.3391 1376.375,-169 1376.375,-169 1376.375,-169 888.8193,-169 888.8193,-169"/>
<polygon fill="#000000" stroke="#000000" points="888.8194,-165.5001 878.8193,-169 888.8193,-172.5001 888.8194,-165.5001"/>
</g>
<!-- TimeListSelectorComponent -->
<g id="node2" class="node">
<title>TimeListSelectorComponent</title>
<polygon fill="#ffffb3" stroke="#000000" points="1350.028,-122 1171.972,-122 1171.972,-86 1350.028,-86 1350.028,-122"/>
<text text-anchor="middle" x="1261" y="-99.8" font-family="Times,serif" font-size="14.00" fill="#000000">TimeListSelectorComponent</text>
</g>
<!-- TimeListSelectorComponent&#45;&gt;HelgolandTimeModule -->
<g id="edge2" class="edge">
<title>TimeListSelectorComponent&#45;&gt;HelgolandTimeModule</title>
<path fill="none" stroke="#000000" d="M1261,-122.0225C1261,-139.3734 1261,-163 1261,-163 1261,-163 888.7711,-163 888.7711,-163"/>
<polygon fill="#000000" stroke="#000000" points="888.7711,-159.5001 878.7711,-163 888.771,-166.5001 888.7711,-159.5001"/>
</g>
<!-- TimeRangeSliderSelectorComponent -->
<g id="node3" class="node">
<title>TimeRangeSliderSelectorComponent</title>
<polygon fill="#ffffb3" stroke="#000000" points="1153.9538,-122 928.0462,-122 928.0462,-86 1153.9538,-86 1153.9538,-122"/>
<text text-anchor="middle" x="1041" y="-99.8" font-family="Times,serif" font-size="14.00" fill="#000000">TimeRangeSliderSelectorComponent</text>
</g>
<!-- TimeRangeSliderSelectorComponent&#45;&gt;HelgolandTimeModule -->
<g id="edge3" class="edge">
<title>TimeRangeSliderSelectorComponent&#45;&gt;HelgolandTimeModule</title>
<path fill="none" stroke="#000000" d="M933.0047,-122.2396C933.0047,-137.5706 933.0047,-157 933.0047,-157 933.0047,-157 888.7192,-157 888.7192,-157"/>
<polygon fill="#000000" stroke="#000000" points="888.7192,-153.5001 878.7192,-157 888.7191,-160.5001 888.7192,-153.5001"/>
</g>
<!-- TimespanShiftSelectorComponent -->
<g id="node4" class="node">
<title>TimespanShiftSelectorComponent</title>
<polygon fill="#ffffb3" stroke="#000000" points="909.6329,-122 700.3671,-122 700.3671,-86 909.6329,-86 909.6329,-122"/>
<text text-anchor="middle" x="805" y="-99.8" font-family="Times,serif" font-size="14.00" fill="#000000">TimespanShiftSelectorComponent</text>
</g>
<!-- TimespanShiftSelectorComponent&#45;&gt;HelgolandTimeModule -->
<g id="edge4" class="edge">
<title>TimespanShiftSelectorComponent&#45;&gt;HelgolandTimeModule</title>
<path fill="none" stroke="#000000" d="M805,-122.1061C805,-122.1061 805,-140.991 805,-140.991"/>
<polygon fill="#000000" stroke="#000000" points="801.5001,-140.9909 805,-150.991 808.5001,-140.991 801.5001,-140.9909"/>
</g>
<!-- TimespanButtonComponent -->
<g id="node5" class="node">
<title>TimespanButtonComponent</title>
<polygon fill="#ffffb3" stroke="#000000" points="682.1581,-122 507.8419,-122 507.8419,-86 682.1581,-86 682.1581,-122"/>
<text text-anchor="middle" x="595" y="-99.8" font-family="Times,serif" font-size="14.00" fill="#000000">TimespanButtonComponent</text>
</g>
<!-- TimespanButtonComponent&#45;&gt;HelgolandTimeModule -->
<g id="edge5" class="edge">
<title>TimespanButtonComponent&#45;&gt;HelgolandTimeModule</title>
<path fill="none" stroke="#000000" d="M677.4476,-122.2396C677.4476,-137.5706 677.4476,-157 677.4476,-157 677.4476,-157 721.1716,-157 721.1716,-157"/>
<polygon fill="#000000" stroke="#000000" points="721.1717,-160.5001 731.1716,-157 721.1716,-153.5001 721.1717,-160.5001"/>
</g>
<!-- PredefinedTimespanSelectorComponent  -->
<g id="node8" class="node">
<title>PredefinedTimespanSelectorComponent </title>
<polygon fill="#fb8072" stroke="#000000" points="1384.0468,-252 1137.9532,-252 1137.9532,-216 1384.0468,-216 1384.0468,-252"/>
<text text-anchor="middle" x="1261" y="-229.8" font-family="Times,serif" font-size="14.00" fill="#000000">PredefinedTimespanSelectorComponent </text>
</g>
<!-- HelgolandTimeModule&#45;&gt;PredefinedTimespanSelectorComponent  -->
<g id="edge7" class="edge">
<title>HelgolandTimeModule&#45;&gt;PredefinedTimespanSelectorComponent </title>
<path fill="none" stroke="#000000" stroke-dasharray="5,2" d="M878.9598,-175C979.207,-175 1145.8519,-175 1145.8519,-175 1145.8519,-175 1145.8519,-205.9775 1145.8519,-205.9775"/>
<polygon fill="#000000" stroke="#000000" points="1142.3519,-205.9774 1145.8519,-215.9775 1149.3519,-205.9775 1142.3519,-205.9774"/>
</g>
<!-- TimeListSelectorComponent  -->
<g id="node9" class="node">
<title>TimeListSelectorComponent </title>
<polygon fill="#fb8072" stroke="#000000" points="1120.0274,-252 937.9726,-252 937.9726,-216 1120.0274,-216 1120.0274,-252"/>
<text text-anchor="middle" x="1029" y="-229.8" font-family="Times,serif" font-size="14.00" fill="#000000">TimeListSelectorComponent </text>
</g>
<!-- HelgolandTimeModule&#45;&gt;TimeListSelectorComponent  -->
<g id="edge8" class="edge">
<title>HelgolandTimeModule&#45;&gt;TimeListSelectorComponent </title>
<path fill="none" stroke="#000000" stroke-dasharray="5,2" d="M878.9668,-181C944.213,-181 1029,-181 1029,-181 1029,-181 1029,-205.7604 1029,-205.7604"/>
<polygon fill="#000000" stroke="#000000" points="1025.5001,-205.7604 1029,-215.7604 1032.5001,-205.7604 1025.5001,-205.7604"/>
</g>
<!-- TimeRangeSliderSelectorComponent  -->
<g id="node10" class="node">
<title>TimeRangeSliderSelectorComponent </title>
<polygon fill="#fb8072" stroke="#000000" points="919.9542,-252 690.0458,-252 690.0458,-216 919.9542,-216 919.9542,-252"/>
<text text-anchor="middle" x="805" y="-229.8" font-family="Times,serif" font-size="14.00" fill="#000000">TimeRangeSliderSelectorComponent </text>
</g>
<!-- HelgolandTimeModule&#45;&gt;TimeRangeSliderSelectorComponent  -->
<g id="edge9" class="edge">
<title>HelgolandTimeModule&#45;&gt;TimeRangeSliderSelectorComponent </title>
<path fill="none" stroke="#000000" stroke-dasharray="5,2" d="M805,-187.1061C805,-187.1061 805,-205.991 805,-205.991"/>
<polygon fill="#000000" stroke="#000000" points="801.5001,-205.9909 805,-215.991 808.5001,-205.991 801.5001,-205.9909"/>
</g>
<!-- TimespanShiftSelectorComponent  -->
<g id="node11" class="node">
<title>TimespanShiftSelectorComponent </title>
<polygon fill="#fb8072" stroke="#000000" points="672.6326,-252 459.3674,-252 459.3674,-216 672.6326,-216 672.6326,-252"/>
<text text-anchor="middle" x="566" y="-229.8" font-family="Times,serif" font-size="14.00" fill="#000000">TimespanShiftSelectorComponent </text>
</g>
<!-- HelgolandTimeModule&#45;&gt;TimespanShiftSelectorComponent  -->
<g id="edge10" class="edge">
<title>HelgolandTimeModule&#45;&gt;TimespanShiftSelectorComponent </title>
<path fill="none" stroke="#000000" stroke-dasharray="5,2" d="M731.05,-181C668.8926,-181 590.1187,-181 590.1187,-181 590.1187,-181 590.1187,-205.7604 590.1187,-205.7604"/>
<polygon fill="#000000" stroke="#000000" points="586.6188,-205.7604 590.1187,-215.7604 593.6188,-205.7604 586.6188,-205.7604"/>
</g>
<!-- TimespanButtonComponent  -->
<g id="node12" class="node">
<title>TimespanButtonComponent </title>
<polygon fill="#fb8072" stroke="#000000" points="441.1579,-252 262.8421,-252 262.8421,-216 441.1579,-216 441.1579,-252"/>
<text text-anchor="middle" x="352" y="-229.8" font-family="Times,serif" font-size="14.00" fill="#000000">TimespanButtonComponent </text>
</g>
<!-- HelgolandTimeModule&#45;&gt;TimespanButtonComponent  -->
<g id="edge11" class="edge">
<title>HelgolandTimeModule&#45;&gt;TimespanButtonComponent </title>
<path fill="none" stroke="#000000" stroke-dasharray="5,2" d="M730.9214,-175C609.075,-175 379.7172,-175 379.7172,-175 379.7172,-175 379.7172,-205.9775 379.7172,-205.9775"/>
<polygon fill="#000000" stroke="#000000" points="376.2173,-205.9774 379.7172,-215.9775 383.2173,-205.9775 376.2173,-205.9774"/>
</g>
<!-- HelgolandServicesModule -->
<g id="node7" class="node">
<title>HelgolandServicesModule</title>
<polygon fill="#8dd3c7" stroke="#000000" points="483.7893,-122 480.7893,-126 459.7893,-126 456.7893,-122 318.2107,-122 318.2107,-86 483.7893,-86 483.7893,-122"/>
<text text-anchor="middle" x="401" y="-99.8" font-family="Times,serif" font-size="14.00" fill="#000000">HelgolandServicesModule</text>
</g>
<!-- HelgolandServicesModule&#45;&gt;HelgolandTimeModule -->
<g id="edge6" class="edge">
<title>HelgolandServicesModule&#45;&gt;HelgolandTimeModule</title>
<path fill="none" stroke="#000000" d="M471.5391,-122.0225C471.5391,-139.3734 471.5391,-163 471.5391,-163 471.5391,-163 720.9942,-163 720.9942,-163"/>
<polygon fill="#000000" stroke="#000000" points="720.9943,-166.5001 730.9942,-163 720.9942,-159.5001 720.9943,-166.5001"/>
</g>
<!-- TimeRangeSliderSelectorCache -->
<g id="node13" class="node">
<title>TimeRangeSliderSelectorCache</title>
<ellipse fill="#fdb462" stroke="#000000" cx="159" cy="-104" rx="134.8452" ry="18"/>
<text text-anchor="middle" x="159" y="-99.8" font-family="Times,serif" font-size="14.00" fill="#000000">TimeRangeSliderSelectorCache</text>
</g>
<!-- TimeRangeSliderSelectorCache&#45;&gt;HelgolandTimeModule -->
<g id="edge12" class="edge">
<title>TimeRangeSliderSelectorCache&#45;&gt;HelgolandTimeModule</title>
<path fill="none" stroke="#000000" d="M278.4218,-112.4976C278.4218,-130.1166 278.4218,-169 278.4218,-169 278.4218,-169 721.2271,-169 721.2271,-169"/>
<polygon fill="#000000" stroke="#000000" points="721.2271,-172.5001 731.2271,-169 721.2271,-165.5001 721.2271,-172.5001"/>
</g>
</g>
</svg>
