<?xml version="1.0" encoding="UTF-8" standalone="no"?>
<!DOCTYPE svg PUBLIC "-//W3C//DTD SVG 1.1//EN"
 "http://www.w3.org/Graphics/SVG/1.1/DTD/svg11.dtd">
<!-- Generated by graphviz version 2.40.1 (20161225.0304)
 -->
<!-- Title: dependencies Pages: 1 -->
<svg width="1844pt" height="284pt"
 viewBox="0.00 0.00 1844.00 284.00" xmlns="http://www.w3.org/2000/svg" xmlns:xlink="http://www.w3.org/1999/xlink">
<g id="graph0" class="graph" transform="scale(1 1) rotate(0) translate(4 280)">
<title>dependencies</title>
<polygon fill="#ffffff" stroke="transparent" points="-4,4 -4,-280 1840,-280 1840,4 -4,4"/>
<text text-anchor="start" x="897.0091" y="-42.4" font-family="sans-serif" font-weight="bold" font-size="14.00" fill="#000000">Legend</text>
<polygon fill="#ffffb3" stroke="transparent" points="684,-10 684,-30 704,-30 704,-10 684,-10"/>
<text text-anchor="start" x="707.629" y="-15.4" font-family="sans-serif" font-size="14.00" fill="#000000"> &#160;Declarations</text>
<polygon fill="#8dd3c7" stroke="transparent" points="797,-10 797,-30 817,-30 817,-10 797,-10"/>
<text text-anchor="start" x="820.7251" y="-15.4" font-family="sans-serif" font-size="14.00" fill="#000000"> &#160;Module</text>
<polygon fill="#80b1d3" stroke="transparent" points="883,-10 883,-30 903,-30 903,-10 883,-10"/>
<text text-anchor="start" x="906.7812" y="-15.4" font-family="sans-serif" font-size="14.00" fill="#000000"> &#160;Bootstrap</text>
<polygon fill="#fdb462" stroke="transparent" points="980,-10 980,-30 1000,-30 1000,-10 980,-10"/>
<text text-anchor="start" x="1003.6732" y="-15.4" font-family="sans-serif" font-size="14.00" fill="#000000"> &#160;Providers</text>
<polygon fill="#fb8072" stroke="transparent" points="1076,-10 1076,-30 1096,-30 1096,-10 1076,-10"/>
<text text-anchor="start" x="1099.7258" y="-15.4" font-family="sans-serif" font-size="14.00" fill="#000000"> &#160;Exports</text>
<g id="clust1" class="cluster">
<title>cluster_HelgolandTimeModule</title>
<polygon fill="none" stroke="#000000" stroke-dasharray="1,5" points="8,-70 8,-268 1828,-268 1828,-70 8,-70"/>
</g>
<g id="clust2" class="cluster">
<title>cluster_HelgolandTimeModule_declarations</title>
<polygon fill="none" stroke="#000000" points="500,-78 500,-130 1820,-130 1820,-78 500,-78"/>
</g>
<g id="clust9" class="cluster">
<title>cluster_HelgolandTimeModule_imports</title>
<polygon fill="none" stroke="#000000" points="310,-78 310,-130 492,-130 492,-78 310,-78"/>
</g>
<g id="clust10" class="cluster">
<title>cluster_HelgolandTimeModule_exports</title>
<polygon fill="none" stroke="#000000" points="264,-208 264,-260 1606,-260 1606,-208 264,-208"/>
</g>
<g id="clust12" class="cluster">
<title>cluster_HelgolandTimeModule_providers</title>
<polygon fill="none" stroke="#000000" points="16,-78 16,-130 302,-130 302,-78 16,-78"/>
</g>
<!-- PredefinedTimespanSelectorComponent -->
<g id="node1" class="node">
<title>PredefinedTimespanSelectorComponent</title>
<polygon fill="#ffffb3" stroke="#000000" points="1811.5464,-122 1568.4536,-122 1568.4536,-86 1811.5464,-86 1811.5464,-122"/>
<text text-anchor="middle" x="1690" y="-99.8" font-family="Times,serif" font-size="14.00" fill="#000000">PredefinedTimespanSelectorComponent</text>
</g>
<!-- HelgolandTimeModule -->
<g id="node7" class="node">
<title>HelgolandTimeModule</title>
<polygon fill="#8dd3c7" stroke="#000000" points="979.9158,-187 976.9158,-191 955.9158,-191 952.9158,-187 832.0842,-187 832.0842,-151 979.9158,-151 979.9158,-187"/>
<text text-anchor="middle" x="906" y="-164.8" font-family="Times,serif" font-size="14.00" fill="#000000">HelgolandTimeModule</text>
</g>
<!-- PredefinedTimespanSelectorComponent&#45;&gt;HelgolandTimeModule -->
<g id="edge1" class="edge">
<title>PredefinedTimespanSelectorComponent&#45;&gt;HelgolandTimeModule</title>
<path fill="none" stroke="#000000" d="M1583.375,-122.1061C1583.375,-141.3391 1583.375,-169 1583.375,-169 1583.375,-169 989.7805,-169 989.7805,-169"/>
<polygon fill="#000000" stroke="#000000" points="989.7805,-165.5001 979.7805,-169 989.7804,-172.5001 989.7805,-165.5001"/>
</g>
<!-- TimeListSelectorComponent -->
<g id="node2" class="node">
<title>TimeListSelectorComponent</title>
<polygon fill="#ffffb3" stroke="#000000" points="1550.028,-122 1371.972,-122 1371.972,-86 1550.028,-86 1550.028,-122"/>
<text text-anchor="middle" x="1461" y="-99.8" font-family="Times,serif" font-size="14.00" fill="#000000">TimeListSelectorComponent</text>
</g>
<!-- TimeListSelectorComponent&#45;&gt;HelgolandTimeModule -->
<g id="edge2" class="edge">
<title>TimeListSelectorComponent&#45;&gt;HelgolandTimeModule</title>
<path fill="none" stroke="#000000" d="M1461,-122.0225C1461,-139.3734 1461,-163 1461,-163 1461,-163 989.9866,-163 989.9866,-163"/>
<polygon fill="#000000" stroke="#000000" points="989.9866,-159.5001 979.9866,-163 989.9865,-166.5001 989.9866,-159.5001"/>
</g>
<!-- TimeRangeSliderSelectorComponent -->
<g id="node3" class="node">
<title>TimeRangeSliderSelectorComponent</title>
<polygon fill="#ffffb3" stroke="#000000" points="1353.9538,-122 1128.0462,-122 1128.0462,-86 1353.9538,-86 1353.9538,-122"/>
<text text-anchor="middle" x="1241" y="-99.8" font-family="Times,serif" font-size="14.00" fill="#000000">TimeRangeSliderSelectorComponent</text>
</g>
<!-- TimeRangeSliderSelectorComponent&#45;&gt;HelgolandTimeModule -->
<g id="edge3" class="edge">
<title>TimeRangeSliderSelectorComponent&#45;&gt;HelgolandTimeModule</title>
<path fill="none" stroke="#000000" d="M1142.8566,-122.2396C1142.8566,-137.5706 1142.8566,-157 1142.8566,-157 1142.8566,-157 989.9686,-157 989.9686,-157"/>
<polygon fill="#000000" stroke="#000000" points="989.9687,-153.5001 979.9686,-157 989.9686,-160.5001 989.9687,-153.5001"/>
</g>
<!-- TimespanSelectorComponent -->
<g id="node4" class="node">
<title>TimespanSelectorComponent</title>
<polygon fill="#ffffb3" stroke="#000000" points="1110.4087,-122 927.5913,-122 927.5913,-86 1110.4087,-86 1110.4087,-122"/>
<text text-anchor="middle" x="1019" y="-99.8" font-family="Times,serif" font-size="14.00" fill="#000000">TimespanSelectorComponent</text>
</g>
<!-- TimespanSelectorComponent&#45;&gt;HelgolandTimeModule -->
<g id="edge4" class="edge">
<title>TimespanSelectorComponent&#45;&gt;HelgolandTimeModule</title>
<path fill="none" stroke="#000000" d="M953.7517,-122.1061C953.7517,-122.1061 953.7517,-140.991 953.7517,-140.991"/>
<polygon fill="#000000" stroke="#000000" points="950.2518,-140.9909 953.7517,-150.991 957.2518,-140.991 950.2518,-140.9909"/>
</g>
<!-- TimespanShiftSelectorComponent -->
<g id="node5" class="node">
<title>TimespanShiftSelectorComponent</title>
<polygon fill="#ffffb3" stroke="#000000" points="909.6329,-122 700.3671,-122 700.3671,-86 909.6329,-86 909.6329,-122"/>
<text text-anchor="middle" x="805" y="-99.8" font-family="Times,serif" font-size="14.00" fill="#000000">TimespanShiftSelectorComponent</text>
</g>
<!-- TimespanShiftSelectorComponent&#45;&gt;HelgolandTimeModule -->
<g id="edge5" class="edge">
<title>TimespanShiftSelectorComponent&#45;&gt;HelgolandTimeModule</title>
<path fill="none" stroke="#000000" d="M871.0544,-122.1061C871.0544,-122.1061 871.0544,-140.991 871.0544,-140.991"/>
<polygon fill="#000000" stroke="#000000" points="867.5544,-140.9909 871.0544,-150.991 874.5544,-140.991 867.5544,-140.9909"/>
</g>
<!-- TimespanButtonComponent -->
<g id="node6" class="node">
<title>TimespanButtonComponent</title>
<polygon fill="#ffffb3" stroke="#000000" points="682.1581,-122 507.8419,-122 507.8419,-86 682.1581,-86 682.1581,-122"/>
<text text-anchor="middle" x="595" y="-99.8" font-family="Times,serif" font-size="14.00" fill="#000000">TimespanButtonComponent</text>
</g>
<!-- TimespanButtonComponent&#45;&gt;HelgolandTimeModule -->
<g id="edge6" class="edge">
<title>TimespanButtonComponent&#45;&gt;HelgolandTimeModule</title>
<path fill="none" stroke="#000000" d="M623.6012,-122.2396C623.6012,-137.5706 623.6012,-157 623.6012,-157 623.6012,-157 822.1719,-157 822.1719,-157"/>
<polygon fill="#000000" stroke="#000000" points="822.1719,-160.5001 832.1719,-157 822.1719,-153.5001 822.1719,-160.5001"/>
</g>
<!-- PredefinedTimespanSelectorComponent  -->
<g id="node9" class="node">
<title>PredefinedTimespanSelectorComponent </title>
<polygon fill="#fb8072" stroke="#000000" points="1598.0468,-252 1351.9532,-252 1351.9532,-216 1598.0468,-216 1598.0468,-252"/>
<text text-anchor="middle" x="1475" y="-229.8" font-family="Times,serif" font-size="14.00" fill="#000000">PredefinedTimespanSelectorComponent </text>
</g>
<!-- HelgolandTimeModule&#45;&gt;PredefinedTimespanSelectorComponent  -->
<g id="edge8" class="edge">
<title>HelgolandTimeModule&#45;&gt;PredefinedTimespanSelectorComponent </title>
<path fill="none" stroke="#000000" stroke-dasharray="5,2" d="M979.9097,-175C1109.21,-175 1362.8566,-175 1362.8566,-175 1362.8566,-175 1362.8566,-205.9775 1362.8566,-205.9775"/>
<polygon fill="#000000" stroke="#000000" points="1359.3567,-205.9774 1362.8566,-215.9775 1366.3567,-205.9775 1359.3567,-205.9774"/>
</g>
<!-- TimeListSelectorComponent  -->
<g id="node10" class="node">
<title>TimeListSelectorComponent </title>
<polygon fill="#fb8072" stroke="#000000" points="1334.0274,-252 1151.9726,-252 1151.9726,-216 1334.0274,-216 1334.0274,-252"/>
<text text-anchor="middle" x="1243" y="-229.8" font-family="Times,serif" font-size="14.00" fill="#000000">TimeListSelectorComponent </text>
</g>
<!-- HelgolandTimeModule&#45;&gt;TimeListSelectorComponent  -->
<g id="edge9" class="edge">
<title>HelgolandTimeModule&#45;&gt;TimeListSelectorComponent </title>
<path fill="none" stroke="#000000" stroke-dasharray="5,2" d="M979.9561,-181C1079.1576,-181 1243,-181 1243,-181 1243,-181 1243,-205.7604 1243,-205.7604"/>
<polygon fill="#000000" stroke="#000000" points="1239.5001,-205.7604 1243,-215.7604 1246.5001,-205.7604 1239.5001,-205.7604"/>
</g>
<!-- TimeRangeSliderSelectorComponent  -->
<g id="node11" class="node">
<title>TimeRangeSliderSelectorComponent </title>
<polygon fill="#fb8072" stroke="#000000" points="1133.9542,-252 904.0458,-252 904.0458,-216 1133.9542,-216 1133.9542,-252"/>
<text text-anchor="middle" x="1019" y="-229.8" font-family="Times,serif" font-size="14.00" fill="#000000">TimeRangeSliderSelectorComponent </text>
</g>
<!-- HelgolandTimeModule&#45;&gt;TimeRangeSliderSelectorComponent  -->
<g id="edge10" class="edge">
<title>HelgolandTimeModule&#45;&gt;TimeRangeSliderSelectorComponent </title>
<path fill="none" stroke="#000000" stroke-dasharray="5,2" d="M941.9904,-187.1061C941.9904,-187.1061 941.9904,-205.991 941.9904,-205.991"/>
<polygon fill="#000000" stroke="#000000" points="938.4904,-205.9909 941.9904,-215.991 945.4904,-205.991 938.4904,-205.9909"/>
</g>
<!-- TimespanSelectorComponent  -->
<g id="node12" class="node">
<title>TimespanSelectorComponent </title>
<polygon fill="#fb8072" stroke="#000000" points="885.9082,-252 700.0918,-252 700.0918,-216 885.9082,-216 885.9082,-252"/>
<text text-anchor="middle" x="793" y="-229.8" font-family="Times,serif" font-size="14.00" fill="#000000">TimespanSelectorComponent </text>
</g>
<!-- HelgolandTimeModule&#45;&gt;TimespanSelectorComponent  -->
<g id="edge11" class="edge">
<title>HelgolandTimeModule&#45;&gt;TimespanSelectorComponent </title>
<path fill="none" stroke="#000000" stroke-dasharray="5,2" d="M859.1233,-187.1061C859.1233,-187.1061 859.1233,-205.991 859.1233,-205.991"/>
<polygon fill="#000000" stroke="#000000" points="855.6233,-205.9909 859.1233,-215.991 862.6233,-205.991 855.6233,-205.9909"/>
</g>
<!-- TimespanShiftSelectorComponent  -->
<g id="node13" class="node">
<title>TimespanShiftSelectorComponent </title>
<polygon fill="#fb8072" stroke="#000000" points="681.6326,-252 468.3674,-252 468.3674,-216 681.6326,-216 681.6326,-252"/>
<text text-anchor="middle" x="575" y="-229.8" font-family="Times,serif" font-size="14.00" fill="#000000">TimespanShiftSelectorComponent </text>
</g>
<!-- HelgolandTimeModule&#45;&gt;TimespanShiftSelectorComponent  -->
<g id="edge12" class="edge">
<title>HelgolandTimeModule&#45;&gt;TimespanShiftSelectorComponent </title>
<path fill="none" stroke="#000000" stroke-dasharray="5,2" d="M832.1461,-181C732.0424,-181 565.6362,-181 565.6362,-181 565.6362,-181 565.6362,-205.7604 565.6362,-205.7604"/>
<polygon fill="#000000" stroke="#000000" points="562.1363,-205.7604 565.6362,-215.7604 569.1363,-205.7604 562.1363,-205.7604"/>
</g>
<!-- TimespanButtonComponent  -->
<g id="node14" class="node">
<title>TimespanButtonComponent </title>
<polygon fill="#fb8072" stroke="#000000" points="450.1579,-252 271.8421,-252 271.8421,-216 450.1579,-216 450.1579,-252"/>
<text text-anchor="middle" x="361" y="-229.8" font-family="Times,serif" font-size="14.00" fill="#000000">TimespanButtonComponent </text>
</g>
<!-- HelgolandTimeModule&#45;&gt;TimespanButtonComponent  -->
<g id="edge13" class="edge">
<title>HelgolandTimeModule&#45;&gt;TimespanButtonComponent </title>
<path fill="none" stroke="#000000" stroke-dasharray="5,2" d="M832.0719,-175C688.1292,-175 384.2172,-175 384.2172,-175 384.2172,-175 384.2172,-205.9775 384.2172,-205.9775"/>
<polygon fill="#000000" stroke="#000000" points="380.7173,-205.9774 384.2172,-215.9775 387.7173,-205.9775 380.7173,-205.9774"/>
</g>
<!-- HelgolandServicesModule -->
<g id="node8" class="node">
<title>HelgolandServicesModule</title>
<polygon fill="#8dd3c7" stroke="#000000" points="483.7893,-122 480.7893,-126 459.7893,-126 456.7893,-122 318.2107,-122 318.2107,-86 483.7893,-86 483.7893,-122"/>
<text text-anchor="middle" x="401" y="-99.8" font-family="Times,serif" font-size="14.00" fill="#000000">HelgolandServicesModule</text>
</g>
<!-- HelgolandServicesModule&#45;&gt;HelgolandTimeModule -->
<g id="edge7" class="edge">
<title>HelgolandServicesModule&#45;&gt;HelgolandTimeModule</title>
<path fill="none" stroke="#000000" d="M476.0391,-122.0225C476.0391,-139.3734 476.0391,-163 476.0391,-163 476.0391,-163 822.0871,-163 822.0871,-163"/>
<polygon fill="#000000" stroke="#000000" points="822.0871,-166.5001 832.0871,-163 822.0871,-159.5001 822.0871,-166.5001"/>
</g>
<!-- TimeRangeSliderSelectorCache -->
<g id="node15" class="node">
<title>TimeRangeSliderSelectorCache</title>
<ellipse fill="#fdb462" stroke="#000000" cx="159" cy="-104" rx="134.8452" ry="18"/>
<text text-anchor="middle" x="159" y="-99.8" font-family="Times,serif" font-size="14.00" fill="#000000">TimeRangeSliderSelectorCache</text>
</g>
<!-- TimeRangeSliderSelectorCache&#45;&gt;HelgolandTimeModule -->
<g id="edge14" class="edge">
<title>TimeRangeSliderSelectorCache&#45;&gt;HelgolandTimeModule</title>
<path fill="none" stroke="#000000" d="M282.9218,-111.2045C282.9218,-128.128 282.9218,-169 282.9218,-169 282.9218,-169 822.078,-169 822.078,-169"/>
<polygon fill="#000000" stroke="#000000" points="822.078,-172.5001 832.078,-169 822.0779,-165.5001 822.078,-172.5001"/>
</g>
</g>
</svg>
