<?xml version="1.0" encoding="UTF-8" standalone="no"?>
<!DOCTYPE svg PUBLIC "-//W3C//DTD SVG 1.1//EN"
 "http://www.w3.org/Graphics/SVG/1.1/DTD/svg11.dtd">
<!-- Generated by graphviz version 2.40.1 (20161225.0304)
 -->
<!-- Title: dependencies Pages: 1 -->
<svg width="1358pt" height="284pt"
 viewBox="0.00 0.00 1358.00 284.00" xmlns="http://www.w3.org/2000/svg" xmlns:xlink="http://www.w3.org/1999/xlink">
<g id="graph0" class="graph" transform="scale(1 1) rotate(0) translate(4 280)">
<title>dependencies</title>
<polygon fill="#ffffff" stroke="transparent" points="-4,4 -4,-280 1354,-280 1354,4 -4,4"/>
<text text-anchor="start" x="654.0091" y="-42.4" font-family="sans-serif" font-weight="bold" font-size="14.00" fill="#000000">Legend</text>
<polygon fill="#ffffb3" stroke="transparent" points="441,-10 441,-30 461,-30 461,-10 441,-10"/>
<text text-anchor="start" x="464.629" y="-15.4" font-family="sans-serif" font-size="14.00" fill="#000000"> &#160;Declarations</text>
<polygon fill="#8dd3c7" stroke="transparent" points="554,-10 554,-30 574,-30 574,-10 554,-10"/>
<text text-anchor="start" x="577.7251" y="-15.4" font-family="sans-serif" font-size="14.00" fill="#000000"> &#160;Module</text>
<polygon fill="#80b1d3" stroke="transparent" points="640,-10 640,-30 660,-30 660,-10 640,-10"/>
<text text-anchor="start" x="663.7812" y="-15.4" font-family="sans-serif" font-size="14.00" fill="#000000"> &#160;Bootstrap</text>
<polygon fill="#fdb462" stroke="transparent" points="737,-10 737,-30 757,-30 757,-10 737,-10"/>
<text text-anchor="start" x="760.6732" y="-15.4" font-family="sans-serif" font-size="14.00" fill="#000000"> &#160;Providers</text>
<polygon fill="#fb8072" stroke="transparent" points="833,-10 833,-30 853,-30 853,-10 833,-10"/>
<text text-anchor="start" x="856.7258" y="-15.4" font-family="sans-serif" font-size="14.00" fill="#000000"> &#160;Exports</text>
<g id="clust1" class="cluster">
<title>cluster_HelgolandTimeModule</title>
<polygon fill="none" stroke="#000000" stroke-dasharray="1,5" points="8,-70 8,-268 1342,-268 1342,-70 8,-70"/>
</g>
<g id="clust2" class="cluster">
<title>cluster_HelgolandTimeModule_declarations</title>
<polygon fill="none" stroke="#000000" points="206,-78 206,-130 1334,-130 1334,-78 206,-78"/>
</g>
<g id="clust8" class="cluster">
<title>cluster_HelgolandTimeModule_imports</title>
<polygon fill="none" stroke="#000000" points="16,-78 16,-130 198,-130 198,-78 16,-78"/>
</g>
<g id="clust9" class="cluster">
<title>cluster_HelgolandTimeModule_exports</title>
<polygon fill="none" stroke="#000000" points="102,-208 102,-260 1248,-260 1248,-208 102,-208"/>
</g>
<!-- PredefinedTimespanSelectorComponent -->
<g id="node1" class="node">
<title>PredefinedTimespanSelectorComponent</title>
<polygon fill="#ffffb3" stroke="#000000" points="1325.5464,-122 1082.4536,-122 1082.4536,-86 1325.5464,-86 1325.5464,-122"/>
<text text-anchor="middle" x="1204" y="-99.8" font-family="Times,serif" font-size="14.00" fill="#000000">PredefinedTimespanSelectorComponent</text>
</g>
<!-- HelgolandTimeModule -->
<g id="node6" class="node">
<title>HelgolandTimeModule</title>
<polygon fill="#8dd3c7" stroke="#000000" points="734.9158,-187 731.9158,-191 710.9158,-191 707.9158,-187 587.0842,-187 587.0842,-151 734.9158,-151 734.9158,-187"/>
<text text-anchor="middle" x="661" y="-164.8" font-family="Times,serif" font-size="14.00" fill="#000000">HelgolandTimeModule</text>
</g>
<!-- PredefinedTimespanSelectorComponent&#45;&gt;HelgolandTimeModule -->
<g id="edge1" class="edge">
<title>PredefinedTimespanSelectorComponent&#45;&gt;HelgolandTimeModule</title>
<path fill="none" stroke="#000000" d="M1161.375,-122.2667C1161.375,-140.5552 1161.375,-166 1161.375,-166 1161.375,-166 744.8321,-166 744.8321,-166"/>
<polygon fill="#000000" stroke="#000000" points="744.8321,-162.5001 734.8321,-166 744.832,-169.5001 744.8321,-162.5001"/>
</g>
<!-- TimeListSelectorComponent -->
<g id="node2" class="node">
<title>TimeListSelectorComponent</title>
<polygon fill="#ffffb3" stroke="#000000" points="1064.028,-122 885.972,-122 885.972,-86 1064.028,-86 1064.028,-122"/>
<text text-anchor="middle" x="975" y="-99.8" font-family="Times,serif" font-size="14.00" fill="#000000">TimeListSelectorComponent</text>
</g>
<!-- TimeListSelectorComponent&#45;&gt;HelgolandTimeModule -->
<g id="edge2" class="edge">
<title>TimeListSelectorComponent&#45;&gt;HelgolandTimeModule</title>
<path fill="none" stroke="#000000" d="M930.875,-122.0091C930.875,-138.0494 930.875,-159 930.875,-159 930.875,-159 744.7445,-159 744.7445,-159"/>
<polygon fill="#000000" stroke="#000000" points="744.7446,-155.5001 734.7445,-159 744.7445,-162.5001 744.7446,-155.5001"/>
</g>
<!-- TimeRangeSliderSelectorComponent -->
<g id="node3" class="node">
<title>TimeRangeSliderSelectorComponent</title>
<polygon fill="#ffffb3" stroke="#000000" points="867.9538,-122 642.0462,-122 642.0462,-86 867.9538,-86 867.9538,-122"/>
<text text-anchor="middle" x="755" y="-99.8" font-family="Times,serif" font-size="14.00" fill="#000000">TimeRangeSliderSelectorComponent</text>
</g>
<!-- TimeRangeSliderSelectorComponent&#45;&gt;HelgolandTimeModule -->
<g id="edge3" class="edge">
<title>TimeRangeSliderSelectorComponent&#45;&gt;HelgolandTimeModule</title>
<path fill="none" stroke="#000000" d="M688.3654,-122.1061C688.3654,-122.1061 688.3654,-140.991 688.3654,-140.991"/>
<polygon fill="#000000" stroke="#000000" points="684.8654,-140.9909 688.3654,-150.991 691.8654,-140.991 684.8654,-140.9909"/>
</g>
<!-- TimespanSelectorComponent -->
<g id="node4" class="node">
<title>TimespanSelectorComponent</title>
<polygon fill="#ffffb3" stroke="#000000" points="624.4087,-122 441.5913,-122 441.5913,-86 624.4087,-86 624.4087,-122"/>
<text text-anchor="middle" x="533" y="-99.8" font-family="Times,serif" font-size="14.00" fill="#000000">TimespanSelectorComponent</text>
</g>
<!-- TimespanSelectorComponent&#45;&gt;HelgolandTimeModule -->
<g id="edge4" class="edge">
<title>TimespanSelectorComponent&#45;&gt;HelgolandTimeModule</title>
<path fill="none" stroke="#000000" d="M605.7483,-122.1061C605.7483,-122.1061 605.7483,-140.991 605.7483,-140.991"/>
<polygon fill="#000000" stroke="#000000" points="602.2483,-140.9909 605.7483,-150.991 609.2483,-140.991 602.2483,-140.9909"/>
</g>
<!-- TimespanShiftSelectorComponent -->
<g id="node5" class="node">
<title>TimespanShiftSelectorComponent</title>
<polygon fill="#ffffb3" stroke="#000000" points="423.6329,-122 214.3671,-122 214.3671,-86 423.6329,-86 423.6329,-122"/>
<text text-anchor="middle" x="319" y="-99.8" font-family="Times,serif" font-size="14.00" fill="#000000">TimespanShiftSelectorComponent</text>
</g>
<!-- TimespanShiftSelectorComponent&#45;&gt;HelgolandTimeModule -->
<g id="edge5" class="edge">
<title>TimespanShiftSelectorComponent&#45;&gt;HelgolandTimeModule</title>
<path fill="none" stroke="#000000" d="M382.9311,-122.0091C382.9311,-138.0494 382.9311,-159 382.9311,-159 382.9311,-159 577.2127,-159 577.2127,-159"/>
<polygon fill="#000000" stroke="#000000" points="577.2127,-162.5001 587.2127,-159 577.2127,-155.5001 577.2127,-162.5001"/>
</g>
<!-- PredefinedTimespanSelectorComponent  -->
<g id="node8" class="node">
<title>PredefinedTimespanSelectorComponent </title>
<polygon fill="#fb8072" stroke="#000000" points="1240.0468,-252 993.9532,-252 993.9532,-216 1240.0468,-216 1240.0468,-252"/>
<text text-anchor="middle" x="1117" y="-229.8" font-family="Times,serif" font-size="14.00" fill="#000000">PredefinedTimespanSelectorComponent </text>
</g>
<!-- HelgolandTimeModule&#45;&gt;PredefinedTimespanSelectorComponent  -->
<g id="edge7" class="edge">
<title>HelgolandTimeModule&#45;&gt;PredefinedTimespanSelectorComponent </title>
<path fill="none" stroke="#000000" stroke-dasharray="5,2" d="M735.0267,-173C842.4873,-173 1028.9953,-173 1028.9953,-173 1028.9953,-173 1028.9953,-205.698 1028.9953,-205.698"/>
<polygon fill="#000000" stroke="#000000" points="1025.4953,-205.698 1028.9953,-215.698 1032.4953,-205.698 1025.4953,-205.698"/>
</g>
<!-- TimeListSelectorComponent  -->
<g id="node9" class="node">
<title>TimeListSelectorComponent </title>
<polygon fill="#fb8072" stroke="#000000" points="976.0274,-252 793.9726,-252 793.9726,-216 976.0274,-216 976.0274,-252"/>
<text text-anchor="middle" x="885" y="-229.8" font-family="Times,serif" font-size="14.00" fill="#000000">TimeListSelectorComponent </text>
</g>
<!-- HelgolandTimeModule&#45;&gt;TimeListSelectorComponent  -->
<g id="edge8" class="edge">
<title>HelgolandTimeModule&#45;&gt;TimeListSelectorComponent </title>
<path fill="none" stroke="#000000" stroke-dasharray="5,2" d="M735.0619,-180C780.8685,-180 830.9816,-180 830.9816,-180 830.9816,-180 830.9816,-205.7181 830.9816,-205.7181"/>
<polygon fill="#000000" stroke="#000000" points="827.4817,-205.718 830.9816,-215.7181 834.4817,-205.7181 827.4817,-205.718"/>
</g>
<!-- TimeRangeSliderSelectorComponent  -->
<g id="node10" class="node">
<title>TimeRangeSliderSelectorComponent </title>
<polygon fill="#fb8072" stroke="#000000" points="775.9542,-252 546.0458,-252 546.0458,-216 775.9542,-216 775.9542,-252"/>
<text text-anchor="middle" x="661" y="-229.8" font-family="Times,serif" font-size="14.00" fill="#000000">TimeRangeSliderSelectorComponent </text>
</g>
<!-- HelgolandTimeModule&#45;&gt;TimeRangeSliderSelectorComponent  -->
<g id="edge9" class="edge">
<title>HelgolandTimeModule&#45;&gt;TimeRangeSliderSelectorComponent </title>
<path fill="none" stroke="#000000" stroke-dasharray="5,2" d="M661,-187.1061C661,-187.1061 661,-205.991 661,-205.991"/>
<polygon fill="#000000" stroke="#000000" points="657.5001,-205.9909 661,-215.991 664.5001,-205.991 657.5001,-205.9909"/>
</g>
<!-- TimespanSelectorComponent  -->
<g id="node11" class="node">
<title>TimespanSelectorComponent </title>
<polygon fill="#fb8072" stroke="#000000" points="527.9082,-252 342.0918,-252 342.0918,-216 527.9082,-216 527.9082,-252"/>
<text text-anchor="middle" x="435" y="-229.8" font-family="Times,serif" font-size="14.00" fill="#000000">TimespanSelectorComponent </text>
</g>
<!-- HelgolandTimeModule&#45;&gt;TimespanSelectorComponent  -->
<g id="edge10" class="edge">
<title>HelgolandTimeModule&#45;&gt;TimespanSelectorComponent </title>
<path fill="none" stroke="#000000" stroke-dasharray="5,2" d="M587.0727,-180C538.8742,-180 484.875,-180 484.875,-180 484.875,-180 484.875,-205.7181 484.875,-205.7181"/>
<polygon fill="#000000" stroke="#000000" points="481.3751,-205.718 484.875,-215.7181 488.3751,-205.7181 481.3751,-205.718"/>
</g>
<!-- TimespanShiftSelectorComponent  -->
<g id="node12" class="node">
<title>TimespanShiftSelectorComponent </title>
<polygon fill="#fb8072" stroke="#000000" points="323.6326,-252 110.3674,-252 110.3674,-216 323.6326,-216 323.6326,-252"/>
<text text-anchor="middle" x="217" y="-229.8" font-family="Times,serif" font-size="14.00" fill="#000000">TimespanShiftSelectorComponent </text>
</g>
<!-- HelgolandTimeModule&#45;&gt;TimespanShiftSelectorComponent  -->
<g id="edge11" class="edge">
<title>HelgolandTimeModule&#45;&gt;TimespanShiftSelectorComponent </title>
<path fill="none" stroke="#000000" stroke-dasharray="5,2" d="M587.2443,-173C473.6552,-173 268.875,-173 268.875,-173 268.875,-173 268.875,-205.698 268.875,-205.698"/>
<polygon fill="#000000" stroke="#000000" points="265.3751,-205.698 268.875,-215.698 272.3751,-205.698 265.3751,-205.698"/>
</g>
<!-- HelgolandServicesModule -->
<g id="node7" class="node">
<title>HelgolandServicesModule</title>
<polygon fill="#8dd3c7" stroke="#000000" points="189.7893,-122 186.7893,-126 165.7893,-126 162.7893,-122 24.2107,-122 24.2107,-86 189.7893,-86 189.7893,-122"/>
<text text-anchor="middle" x="107" y="-99.8" font-family="Times,serif" font-size="14.00" fill="#000000">HelgolandServicesModule</text>
</g>
<!-- HelgolandServicesModule&#45;&gt;HelgolandTimeModule -->
<g id="edge6" class="edge">
<title>HelgolandServicesModule&#45;&gt;HelgolandTimeModule</title>
<path fill="none" stroke="#000000" d="M150.0391,-122.2667C150.0391,-140.5552 150.0391,-166 150.0391,-166 150.0391,-166 577.2476,-166 577.2476,-166"/>
<polygon fill="#000000" stroke="#000000" points="577.2476,-169.5001 587.2476,-166 577.2476,-162.5001 577.2476,-169.5001"/>
</g>
</g>
</svg>
