<?xml version="1.0" encoding="UTF-8" standalone="no"?>
<!DOCTYPE svg PUBLIC "-//W3C//DTD SVG 1.1//EN"
 "http://www.w3.org/Graphics/SVG/1.1/DTD/svg11.dtd">
<!-- Generated by graphviz version 2.40.1 (20161225.0304)
 -->
<!-- Title: dependencies Pages: 1 -->
<svg width="1652pt" height="284pt"
 viewBox="0.00 0.00 1652.00 284.00" xmlns="http://www.w3.org/2000/svg" xmlns:xlink="http://www.w3.org/1999/xlink">
<g id="graph0" class="graph" transform="scale(1 1) rotate(0) translate(4 280)">
<title>dependencies</title>
<polygon fill="#ffffff" stroke="transparent" points="-4,4 -4,-280 1648,-280 1648,4 -4,4"/>
<text text-anchor="start" x="801.0091" y="-42.4" font-family="sans-serif" font-weight="bold" font-size="14.00" fill="#000000">Legend</text>
<polygon fill="#ffffb3" stroke="transparent" points="588,-10 588,-30 608,-30 608,-10 588,-10"/>
<text text-anchor="start" x="611.629" y="-15.4" font-family="sans-serif" font-size="14.00" fill="#000000"> &#160;Declarations</text>
<polygon fill="#8dd3c7" stroke="transparent" points="701,-10 701,-30 721,-30 721,-10 701,-10"/>
<text text-anchor="start" x="724.7251" y="-15.4" font-family="sans-serif" font-size="14.00" fill="#000000"> &#160;Module</text>
<polygon fill="#80b1d3" stroke="transparent" points="787,-10 787,-30 807,-30 807,-10 787,-10"/>
<text text-anchor="start" x="810.7812" y="-15.4" font-family="sans-serif" font-size="14.00" fill="#000000"> &#160;Bootstrap</text>
<polygon fill="#fdb462" stroke="transparent" points="884,-10 884,-30 904,-30 904,-10 884,-10"/>
<text text-anchor="start" x="907.6732" y="-15.4" font-family="sans-serif" font-size="14.00" fill="#000000"> &#160;Providers</text>
<polygon fill="#fb8072" stroke="transparent" points="980,-10 980,-30 1000,-30 1000,-10 980,-10"/>
<text text-anchor="start" x="1003.7258" y="-15.4" font-family="sans-serif" font-size="14.00" fill="#000000"> &#160;Exports</text>
<g id="clust1" class="cluster">
<title>cluster_HelgolandTimeModule</title>
<polygon fill="none" stroke="#000000" stroke-dasharray="1,5" points="8,-70 8,-268 1636,-268 1636,-70 8,-70"/>
</g>
<g id="clust2" class="cluster">
<title>cluster_HelgolandTimeModule_declarations</title>
<polygon fill="none" stroke="#000000" points="500,-78 500,-130 1628,-130 1628,-78 500,-78"/>
</g>
<g id="clust8" class="cluster">
<title>cluster_HelgolandTimeModule_imports</title>
<polygon fill="none" stroke="#000000" points="310,-78 310,-130 492,-130 492,-78 310,-78"/>
</g>
<g id="clust9" class="cluster">
<title>cluster_HelgolandTimeModule_exports</title>
<polygon fill="none" stroke="#000000" points="268,-208 268,-260 1414,-260 1414,-208 268,-208"/>
</g>
<g id="clust11" class="cluster">
<title>cluster_HelgolandTimeModule_providers</title>
<polygon fill="none" stroke="#000000" points="16,-78 16,-130 302,-130 302,-78 16,-78"/>
</g>
<!-- PredefinedTimespanSelectorComponent -->
<g id="node1" class="node">
<title>PredefinedTimespanSelectorComponent</title>
<polygon fill="#ffffb3" stroke="#000000" points="1619.5464,-122 1376.4536,-122 1376.4536,-86 1619.5464,-86 1619.5464,-122"/>
<text text-anchor="middle" x="1498" y="-99.8" font-family="Times,serif" font-size="14.00" fill="#000000">PredefinedTimespanSelectorComponent</text>
</g>
<!-- HelgolandTimeModule -->
<g id="node6" class="node">
<title>HelgolandTimeModule</title>
<polygon fill="#8dd3c7" stroke="#000000" points="900.9158,-187 897.9158,-191 876.9158,-191 873.9158,-187 753.0842,-187 753.0842,-151 900.9158,-151 900.9158,-187"/>
<text text-anchor="middle" x="827" y="-164.8" font-family="Times,serif" font-size="14.00" fill="#000000">HelgolandTimeModule</text>
</g>
<!-- PredefinedTimespanSelectorComponent&#45;&gt;HelgolandTimeModule -->
<g id="edge1" class="edge">
<title>PredefinedTimespanSelectorComponent&#45;&gt;HelgolandTimeModule</title>
<path fill="none" stroke="#000000" d="M1391.375,-122.1061C1391.375,-141.3391 1391.375,-169 1391.375,-169 1391.375,-169 910.7822,-169 910.7822,-169"/>
<polygon fill="#000000" stroke="#000000" points="910.7822,-165.5001 900.7822,-169 910.7821,-172.5001 910.7822,-165.5001"/>
</g>
<!-- TimeListSelectorComponent -->
<g id="node2" class="node">
<title>TimeListSelectorComponent</title>
<polygon fill="#ffffb3" stroke="#000000" points="1358.028,-122 1179.972,-122 1179.972,-86 1358.028,-86 1358.028,-122"/>
<text text-anchor="middle" x="1269" y="-99.8" font-family="Times,serif" font-size="14.00" fill="#000000">TimeListSelectorComponent</text>
</g>
<!-- TimeListSelectorComponent&#45;&gt;HelgolandTimeModule -->
<g id="edge2" class="edge">
<title>TimeListSelectorComponent&#45;&gt;HelgolandTimeModule</title>
<path fill="none" stroke="#000000" d="M1269,-122.0225C1269,-139.3734 1269,-163 1269,-163 1269,-163 910.9809,-163 910.9809,-163"/>
<polygon fill="#000000" stroke="#000000" points="910.9809,-159.5001 900.9809,-163 910.9808,-166.5001 910.9809,-159.5001"/>
</g>
<!-- TimeRangeSliderSelectorComponent -->
<g id="node3" class="node">
<title>TimeRangeSliderSelectorComponent</title>
<polygon fill="#ffffb3" stroke="#000000" points="1161.9538,-122 936.0462,-122 936.0462,-86 1161.9538,-86 1161.9538,-122"/>
<text text-anchor="middle" x="1049" y="-99.8" font-family="Times,serif" font-size="14.00" fill="#000000">TimeRangeSliderSelectorComponent</text>
</g>
<!-- TimeRangeSliderSelectorComponent&#45;&gt;HelgolandTimeModule -->
<g id="edge3" class="edge">
<title>TimeRangeSliderSelectorComponent&#45;&gt;HelgolandTimeModule</title>
<path fill="none" stroke="#000000" d="M950.8566,-122.2396C950.8566,-137.5706 950.8566,-157 950.8566,-157 950.8566,-157 910.8364,-157 910.8364,-157"/>
<polygon fill="#000000" stroke="#000000" points="910.8364,-153.5001 900.8364,-157 910.8364,-160.5001 910.8364,-153.5001"/>
</g>
<!-- TimespanSelectorComponent -->
<g id="node4" class="node">
<title>TimespanSelectorComponent</title>
<polygon fill="#ffffb3" stroke="#000000" points="918.4087,-122 735.5913,-122 735.5913,-86 918.4087,-86 918.4087,-122"/>
<text text-anchor="middle" x="827" y="-99.8" font-family="Times,serif" font-size="14.00" fill="#000000">TimespanSelectorComponent</text>
</g>
<!-- TimespanSelectorComponent&#45;&gt;HelgolandTimeModule -->
<g id="edge4" class="edge">
<title>TimespanSelectorComponent&#45;&gt;HelgolandTimeModule</title>
<path fill="none" stroke="#000000" d="M827,-122.1061C827,-122.1061 827,-140.991 827,-140.991"/>
<polygon fill="#000000" stroke="#000000" points="823.5001,-140.9909 827,-150.991 830.5001,-140.991 823.5001,-140.9909"/>
</g>
<!-- TimespanShiftSelectorComponent -->
<g id="node5" class="node">
<title>TimespanShiftSelectorComponent</title>
<polygon fill="#ffffb3" stroke="#000000" points="717.6329,-122 508.3671,-122 508.3671,-86 717.6329,-86 717.6329,-122"/>
<text text-anchor="middle" x="613" y="-99.8" font-family="Times,serif" font-size="14.00" fill="#000000">TimespanShiftSelectorComponent</text>
</g>
<!-- TimespanShiftSelectorComponent&#45;&gt;HelgolandTimeModule -->
<g id="edge5" class="edge">
<title>TimespanShiftSelectorComponent&#45;&gt;HelgolandTimeModule</title>
<path fill="none" stroke="#000000" d="M703.1136,-122.2396C703.1136,-137.5706 703.1136,-157 703.1136,-157 703.1136,-157 743.1458,-157 743.1458,-157"/>
<polygon fill="#000000" stroke="#000000" points="743.1459,-160.5001 753.1458,-157 743.1458,-153.5001 743.1459,-160.5001"/>
</g>
<!-- PredefinedTimespanSelectorComponent  -->
<g id="node8" class="node">
<title>PredefinedTimespanSelectorComponent </title>
<polygon fill="#fb8072" stroke="#000000" points="1406.0468,-252 1159.9532,-252 1159.9532,-216 1406.0468,-216 1406.0468,-252"/>
<text text-anchor="middle" x="1283" y="-229.8" font-family="Times,serif" font-size="14.00" fill="#000000">PredefinedTimespanSelectorComponent </text>
</g>
<!-- HelgolandTimeModule&#45;&gt;PredefinedTimespanSelectorComponent  -->
<g id="edge7" class="edge">
<title>HelgolandTimeModule&#45;&gt;PredefinedTimespanSelectorComponent </title>
<path fill="none" stroke="#000000" stroke-dasharray="5,2" d="M900.7659,-175C1001.8023,-175 1170.8566,-175 1170.8566,-175 1170.8566,-175 1170.8566,-205.9775 1170.8566,-205.9775"/>
<polygon fill="#000000" stroke="#000000" points="1167.3567,-205.9774 1170.8566,-215.9775 1174.3567,-205.9775 1167.3567,-205.9774"/>
</g>
<!-- TimeListSelectorComponent  -->
<g id="node9" class="node">
<title>TimeListSelectorComponent </title>
<polygon fill="#fb8072" stroke="#000000" points="1142.0274,-252 959.9726,-252 959.9726,-216 1142.0274,-216 1142.0274,-252"/>
<text text-anchor="middle" x="1051" y="-229.8" font-family="Times,serif" font-size="14.00" fill="#000000">TimeListSelectorComponent </text>
</g>
<!-- HelgolandTimeModule&#45;&gt;TimeListSelectorComponent  -->
<g id="edge8" class="edge">
<title>HelgolandTimeModule&#45;&gt;TimeListSelectorComponent </title>
<path fill="none" stroke="#000000" stroke-dasharray="5,2" d="M900.9668,-181C966.213,-181 1051,-181 1051,-181 1051,-181 1051,-205.7604 1051,-205.7604"/>
<polygon fill="#000000" stroke="#000000" points="1047.5001,-205.7604 1051,-215.7604 1054.5001,-205.7604 1047.5001,-205.7604"/>
</g>
<!-- TimeRangeSliderSelectorComponent  -->
<g id="node10" class="node">
<title>TimeRangeSliderSelectorComponent </title>
<polygon fill="#fb8072" stroke="#000000" points="941.9542,-252 712.0458,-252 712.0458,-216 941.9542,-216 941.9542,-252"/>
<text text-anchor="middle" x="827" y="-229.8" font-family="Times,serif" font-size="14.00" fill="#000000">TimeRangeSliderSelectorComponent </text>
</g>
<!-- HelgolandTimeModule&#45;&gt;TimeRangeSliderSelectorComponent  -->
<g id="edge9" class="edge">
<title>HelgolandTimeModule&#45;&gt;TimeRangeSliderSelectorComponent </title>
<path fill="none" stroke="#000000" stroke-dasharray="5,2" d="M827,-187.1061C827,-187.1061 827,-205.991 827,-205.991"/>
<polygon fill="#000000" stroke="#000000" points="823.5001,-205.9909 827,-215.991 830.5001,-205.991 823.5001,-205.9909"/>
</g>
<!-- TimespanSelectorComponent  -->
<g id="node11" class="node">
<title>TimespanSelectorComponent </title>
<polygon fill="#fb8072" stroke="#000000" points="693.9082,-252 508.0918,-252 508.0918,-216 693.9082,-216 693.9082,-252"/>
<text text-anchor="middle" x="601" y="-229.8" font-family="Times,serif" font-size="14.00" fill="#000000">TimespanSelectorComponent </text>
</g>
<!-- HelgolandTimeModule&#45;&gt;TimespanSelectorComponent  -->
<g id="edge10" class="edge">
<title>HelgolandTimeModule&#45;&gt;TimespanSelectorComponent </title>
<path fill="none" stroke="#000000" stroke-dasharray="5,2" d="M753.0217,-181C687.1307,-181 601.0689,-181 601.0689,-181 601.0689,-181 601.0689,-205.7604 601.0689,-205.7604"/>
<polygon fill="#000000" stroke="#000000" points="597.569,-205.7604 601.0689,-215.7604 604.569,-205.7604 597.569,-205.7604"/>
</g>
<!-- TimespanShiftSelectorComponent  -->
<g id="node12" class="node">
<title>TimespanShiftSelectorComponent </title>
<polygon fill="#fb8072" stroke="#000000" points="489.6326,-252 276.3674,-252 276.3674,-216 489.6326,-216 489.6326,-252"/>
<text text-anchor="middle" x="383" y="-229.8" font-family="Times,serif" font-size="14.00" fill="#000000">TimespanShiftSelectorComponent </text>
</g>
<!-- HelgolandTimeModule&#45;&gt;TimespanShiftSelectorComponent  -->
<g id="edge11" class="edge">
<title>HelgolandTimeModule&#45;&gt;TimespanShiftSelectorComponent </title>
<path fill="none" stroke="#000000" stroke-dasharray="5,2" d="M753.1202,-175C624.602,-175 373.4518,-175 373.4518,-175 373.4518,-175 373.4518,-205.9775 373.4518,-205.9775"/>
<polygon fill="#000000" stroke="#000000" points="369.9519,-205.9774 373.4518,-215.9775 376.9519,-205.9775 369.9519,-205.9774"/>
</g>
<!-- HelgolandServicesModule -->
<g id="node7" class="node">
<title>HelgolandServicesModule</title>
<polygon fill="#8dd3c7" stroke="#000000" points="483.7893,-122 480.7893,-126 459.7893,-126 456.7893,-122 318.2107,-122 318.2107,-86 483.7893,-86 483.7893,-122"/>
<text text-anchor="middle" x="401" y="-99.8" font-family="Times,serif" font-size="14.00" fill="#000000">HelgolandServicesModule</text>
</g>
<!-- HelgolandServicesModule&#45;&gt;HelgolandTimeModule -->
<g id="edge6" class="edge">
<title>HelgolandServicesModule&#45;&gt;HelgolandTimeModule</title>
<path fill="none" stroke="#000000" d="M428.5482,-122.0225C428.5482,-139.3734 428.5482,-163 428.5482,-163 428.5482,-163 742.9881,-163 742.9881,-163"/>
<polygon fill="#000000" stroke="#000000" points="742.9881,-166.5001 752.9881,-163 742.988,-159.5001 742.9881,-166.5001"/>
</g>
<!-- TimeRangeSliderSelectorCache -->
<g id="node13" class="node">
<title>TimeRangeSliderSelectorCache</title>
<ellipse fill="#fdb462" stroke="#000000" cx="159" cy="-104" rx="134.8452" ry="18"/>
<text text-anchor="middle" x="159" y="-99.8" font-family="Times,serif" font-size="14.00" fill="#000000">TimeRangeSliderSelectorCache</text>
</g>
<!-- TimeRangeSliderSelectorCache&#45;&gt;HelgolandTimeModule -->
<g id="edge12" class="edge">
<title>TimeRangeSliderSelectorCache&#45;&gt;HelgolandTimeModule</title>
<path fill="none" stroke="#000000" d="M285.1781,-110.4701C285.1781,-126.9111 285.1781,-169 285.1781,-169 285.1781,-169 743.081,-169 743.081,-169"/>
<polygon fill="#000000" stroke="#000000" points="743.0811,-172.5001 753.081,-169 743.081,-165.5001 743.0811,-172.5001"/>
</g>
</g>
</svg>
