<?xml version="1.0" encoding="UTF-8" standalone="no"?>
<!DOCTYPE svg PUBLIC "-//W3C//DTD SVG 1.1//EN"
 "http://www.w3.org/Graphics/SVG/1.1/DTD/svg11.dtd">
<!-- Generated by graphviz version 2.40.1 (20161225.0304)
 -->
<!-- Title: dependencies Pages: 1 -->
<svg width="2273pt" height="284pt"
 viewBox="0.00 0.00 2273.00 284.00" xmlns="http://www.w3.org/2000/svg" xmlns:xlink="http://www.w3.org/1999/xlink">
<g id="graph0" class="graph" transform="scale(1 1) rotate(0) translate(4 280)">
<title>dependencies</title>
<polygon fill="#ffffff" stroke="transparent" points="-4,4 -4,-280 2269,-280 2269,4 -4,4"/>
<text text-anchor="start" x="1111.5091" y="-42.4" font-family="sans-serif" font-weight="bold" font-size="14.00" fill="#000000">Legend</text>
<polygon fill="#ffffb3" stroke="transparent" points="898.5,-10 898.5,-30 918.5,-30 918.5,-10 898.5,-10"/>
<text text-anchor="start" x="922.129" y="-15.4" font-family="sans-serif" font-size="14.00" fill="#000000"> &#160;Declarations</text>
<polygon fill="#8dd3c7" stroke="transparent" points="1011.5,-10 1011.5,-30 1031.5,-30 1031.5,-10 1011.5,-10"/>
<text text-anchor="start" x="1035.2251" y="-15.4" font-family="sans-serif" font-size="14.00" fill="#000000"> &#160;Module</text>
<polygon fill="#80b1d3" stroke="transparent" points="1097.5,-10 1097.5,-30 1117.5,-30 1117.5,-10 1097.5,-10"/>
<text text-anchor="start" x="1121.2812" y="-15.4" font-family="sans-serif" font-size="14.00" fill="#000000"> &#160;Bootstrap</text>
<polygon fill="#fdb462" stroke="transparent" points="1194.5,-10 1194.5,-30 1214.5,-30 1214.5,-10 1194.5,-10"/>
<text text-anchor="start" x="1218.1732" y="-15.4" font-family="sans-serif" font-size="14.00" fill="#000000"> &#160;Providers</text>
<polygon fill="#fb8072" stroke="transparent" points="1290.5,-10 1290.5,-30 1310.5,-30 1310.5,-10 1290.5,-10"/>
<text text-anchor="start" x="1314.2258" y="-15.4" font-family="sans-serif" font-size="14.00" fill="#000000"> &#160;Exports</text>
<g id="clust1" class="cluster">
<title>cluster_HelgolandTimeModule</title>
<polygon fill="none" stroke="#000000" stroke-dasharray="1,5" points="8,-70 8,-268 2257,-268 2257,-70 8,-70"/>
</g>
<g id="clust2" class="cluster">
<title>cluster_HelgolandTimeModule_declarations</title>
<polygon fill="none" stroke="#000000" points="186,-78 186,-130 2249,-130 2249,-78 186,-78"/>
</g>
<g id="clust12" class="cluster">
<title>cluster_HelgolandTimeModule_imports</title>
<polygon fill="none" stroke="#000000" points="16,-78 16,-130 178,-130 178,-78 16,-78"/>
</g>
<g id="clust13" class="cluster">
<title>cluster_HelgolandTimeModule_exports</title>
<polygon fill="none" stroke="#000000" points="84,-208 84,-260 2181,-260 2181,-208 84,-208"/>
</g>
<!-- D3GeneralGraphComponent -->
<g id="node1" class="node">
<title>D3GeneralGraphComponent</title>
<polygon fill="#ffffb3" stroke="#000000" points="2240.7226,-122 2063.2774,-122 2063.2774,-86 2240.7226,-86 2240.7226,-122"/>
<text text-anchor="middle" x="2152" y="-99.8" font-family="Times,serif" font-size="14.00" fill="#000000">D3GeneralGraphComponent</text>
</g>
<!-- HelgolandTimeModule -->
<g id="node10" class="node">
<title>HelgolandTimeModule</title>
<polygon fill="#8dd3c7" stroke="#000000" points="1194.9158,-187 1191.9158,-191 1170.9158,-191 1167.9158,-187 1047.0842,-187 1047.0842,-151 1194.9158,-151 1194.9158,-187"/>
<text text-anchor="middle" x="1121" y="-164.8" font-family="Times,serif" font-size="14.00" fill="#000000">HelgolandTimeModule</text>
</g>
<!-- D3GeneralGraphComponent&#45;&gt;HelgolandTimeModule -->
<g id="edge1" class="edge">
<title>D3GeneralGraphComponent&#45;&gt;HelgolandTimeModule</title>
<path fill="none" stroke="#000000" d="M2117.875,-122.2222C2117.875,-140.8285 2117.875,-167 2117.875,-167 2117.875,-167 1205.1132,-167 1205.1132,-167"/>
<polygon fill="#000000" stroke="#000000" points="1205.1133,-163.5001 1195.1132,-167 1205.1132,-170.5001 1205.1133,-163.5001"/>
</g>
<!-- D3GraphCopyrightComponent -->
<g id="node2" class="node">
<title>D3GraphCopyrightComponent</title>
<polygon fill="#ffffb3" stroke="#000000" points="2045.1993,-122 1854.8007,-122 1854.8007,-86 2045.1993,-86 2045.1993,-122"/>
<text text-anchor="middle" x="1950" y="-99.8" font-family="Times,serif" font-size="14.00" fill="#000000">D3GraphCopyrightComponent</text>
</g>
<!-- D3GraphCopyrightComponent&#45;&gt;HelgolandTimeModule -->
<g id="edge2" class="edge">
<title>D3GraphCopyrightComponent&#45;&gt;HelgolandTimeModule</title>
<path fill="none" stroke="#000000" d="M1914.375,-122.0225C1914.375,-139.3734 1914.375,-163 1914.375,-163 1914.375,-163 1204.9264,-163 1204.9264,-163"/>
<polygon fill="#000000" stroke="#000000" points="1204.9264,-159.5001 1194.9264,-163 1204.9263,-166.5001 1204.9264,-159.5001"/>
</g>
<!-- D3GraphPanZoomInteractionComponent -->
<g id="node3" class="node">
<title>D3GraphPanZoomInteractionComponent</title>
<polygon fill="#ffffb3" stroke="#000000" points="1837.4985,-122 1588.5015,-122 1588.5015,-86 1837.4985,-86 1837.4985,-122"/>
<text text-anchor="middle" x="1713" y="-99.8" font-family="Times,serif" font-size="14.00" fill="#000000">D3GraphPanZoomInteractionComponent</text>
</g>
<!-- D3GraphPanZoomInteractionComponent&#45;&gt;HelgolandTimeModule -->
<g id="edge3" class="edge">
<title>D3GraphPanZoomInteractionComponent&#45;&gt;HelgolandTimeModule</title>
<path fill="none" stroke="#000000" d="M1675.375,-122.0091C1675.375,-138.0494 1675.375,-159 1675.375,-159 1675.375,-159 1204.9033,-159 1204.9033,-159"/>
<polygon fill="#000000" stroke="#000000" points="1204.9033,-155.5001 1194.9033,-159 1204.9032,-162.5001 1204.9033,-155.5001"/>
</g>
<!-- D3OverviewTimeseriesGraphComponent -->
<g id="node4" class="node">
<title>D3OverviewTimeseriesGraphComponent</title>
<polygon fill="#ffffb3" stroke="#000000" points="1571.0324,-122 1320.9676,-122 1320.9676,-86 1571.0324,-86 1571.0324,-122"/>
<text text-anchor="middle" x="1446" y="-99.8" font-family="Times,serif" font-size="14.00" fill="#000000">D3OverviewTimeseriesGraphComponent</text>
</g>
<!-- D3OverviewTimeseriesGraphComponent&#45;&gt;HelgolandTimeModule -->
<g id="edge4" class="edge">
<title>D3OverviewTimeseriesGraphComponent&#45;&gt;HelgolandTimeModule</title>
<path fill="none" stroke="#000000" d="M1406.375,-122.1243C1406.375,-136.7832 1406.375,-155 1406.375,-155 1406.375,-155 1204.8623,-155 1204.8623,-155"/>
<polygon fill="#000000" stroke="#000000" points="1204.8623,-151.5001 1194.8623,-155 1204.8622,-158.5001 1204.8623,-151.5001"/>
</g>
<!-- D3TimeseriesGraphComponent -->
<g id="node5" class="node">
<title>D3TimeseriesGraphComponent</title>
<polygon fill="#ffffb3" stroke="#000000" points="1303.3389,-122 1108.6611,-122 1108.6611,-86 1303.3389,-86 1303.3389,-122"/>
<text text-anchor="middle" x="1206" y="-99.8" font-family="Times,serif" font-size="14.00" fill="#000000">D3TimeseriesGraphComponent</text>
</g>
<!-- D3TimeseriesGraphComponent&#45;&gt;HelgolandTimeModule -->
<g id="edge5" class="edge">
<title>D3TimeseriesGraphComponent&#45;&gt;HelgolandTimeModule</title>
<path fill="none" stroke="#000000" d="M1151.6441,-122.1061C1151.6441,-122.1061 1151.6441,-140.991 1151.6441,-140.991"/>
<polygon fill="#000000" stroke="#000000" points="1148.1442,-140.9909 1151.6441,-150.991 1155.1442,-140.991 1148.1442,-140.9909"/>
</g>
<!-- D3TrajectoryGraphComponent -->
<g id="node6" class="node">
<title>D3TrajectoryGraphComponent</title>
<polygon fill="#ffffb3" stroke="#000000" points="1090.7198,-122 899.2802,-122 899.2802,-86 1090.7198,-86 1090.7198,-122"/>
<text text-anchor="middle" x="995" y="-99.8" font-family="Times,serif" font-size="14.00" fill="#000000">D3TrajectoryGraphComponent</text>
</g>
<!-- D3TrajectoryGraphComponent&#45;&gt;HelgolandTimeModule -->
<g id="edge6" class="edge">
<title>D3TrajectoryGraphComponent&#45;&gt;HelgolandTimeModule</title>
<path fill="none" stroke="#000000" d="M1069.0761,-122.1061C1069.0761,-122.1061 1069.0761,-140.991 1069.0761,-140.991"/>
<polygon fill="#000000" stroke="#000000" points="1065.5762,-140.9909 1069.0761,-150.991 1072.5762,-140.991 1065.5762,-140.9909"/>
</g>
<!-- D3YAxisModifierComponent -->
<g id="node7" class="node">
<title>D3YAxisModifierComponent</title>
<polygon fill="#ffffb3" stroke="#000000" points="881.2492,-122 696.7508,-122 696.7508,-86 881.2492,-86 881.2492,-122"/>
<text text-anchor="middle" x="789" y="-99.8" font-family="Times,serif" font-size="14.00" fill="#000000">D3YAxisModifierComponent</text>
</g>
<!-- D3YAxisModifierComponent&#45;&gt;HelgolandTimeModule -->
<g id="edge7" class="edge">
<title>D3YAxisModifierComponent&#45;&gt;HelgolandTimeModule</title>
<path fill="none" stroke="#000000" d="M844.8824,-122.1243C844.8824,-136.7832 844.8824,-155 844.8824,-155 844.8824,-155 1037.0055,-155 1037.0055,-155"/>
<polygon fill="#000000" stroke="#000000" points="1037.0056,-158.5001 1047.0055,-155 1037.0055,-151.5001 1037.0056,-158.5001"/>
</g>
<!-- ExportImageButtonComponent -->
<g id="node8" class="node">
<title>ExportImageButtonComponent</title>
<polygon fill="#ffffb3" stroke="#000000" points="678.035,-122 485.965,-122 485.965,-86 678.035,-86 678.035,-122"/>
<text text-anchor="middle" x="582" y="-99.8" font-family="Times,serif" font-size="14.00" fill="#000000">ExportImageButtonComponent</text>
</g>
<!-- ExportImageButtonComponent&#45;&gt;HelgolandTimeModule -->
<g id="edge8" class="edge">
<title>ExportImageButtonComponent&#45;&gt;HelgolandTimeModule</title>
<path fill="none" stroke="#000000" d="M640.0713,-122.0091C640.0713,-138.0494 640.0713,-159 640.0713,-159 640.0713,-159 1037.1715,-159 1037.1715,-159"/>
<polygon fill="#000000" stroke="#000000" points="1037.1715,-162.5001 1047.1715,-159 1037.1715,-155.5001 1037.1715,-162.5001"/>
</g>
<!-- ExtendedDataD3TimeseriesGraphComponent -->
<g id="node9" class="node">
<title>ExtendedDataD3TimeseriesGraphComponent</title>
<polygon fill="#ffffb3" stroke="#000000" points="468.1376,-122 193.8624,-122 193.8624,-86 468.1376,-86 468.1376,-122"/>
<text text-anchor="middle" x="331" y="-99.8" font-family="Times,serif" font-size="14.00" fill="#000000">ExtendedDataD3TimeseriesGraphComponent</text>
</g>
<!-- ExtendedDataD3TimeseriesGraphComponent&#45;&gt;HelgolandTimeModule -->
<g id="edge9" class="edge">
<title>ExtendedDataD3TimeseriesGraphComponent&#45;&gt;HelgolandTimeModule</title>
<path fill="none" stroke="#000000" d="M428.0258,-122.0225C428.0258,-139.3734 428.0258,-163 428.0258,-163 428.0258,-163 1037.1679,-163 1037.1679,-163"/>
<polygon fill="#000000" stroke="#000000" points="1037.168,-166.5001 1047.1679,-163 1037.1679,-159.5001 1037.168,-166.5001"/>
</g>
<!-- D3GeneralGraphComponent  -->
<g id="node12" class="node">
<title>D3GeneralGraphComponent </title>
<polygon fill="#fb8072" stroke="#000000" points="2172.7225,-252 1991.2775,-252 1991.2775,-216 2172.7225,-216 2172.7225,-252"/>
<text text-anchor="middle" x="2082" y="-229.8" font-family="Times,serif" font-size="14.00" fill="#000000">D3GeneralGraphComponent </text>
</g>
<!-- HelgolandTimeModule&#45;&gt;D3GeneralGraphComponent  -->
<g id="edge11" class="edge">
<title>HelgolandTimeModule&#45;&gt;D3GeneralGraphComponent </title>
<path fill="none" stroke="#000000" stroke-dasharray="5,2" d="M1194.8065,-171C1409.4354,-171 2018.2442,-171 2018.2442,-171 2018.2442,-171 2018.2442,-205.7778 2018.2442,-205.7778"/>
<polygon fill="#000000" stroke="#000000" points="2014.7443,-205.7778 2018.2442,-215.7778 2021.7443,-205.7778 2014.7443,-205.7778"/>
</g>
<!-- D3GraphCopyrightComponent  -->
<g id="node13" class="node">
<title>D3GraphCopyrightComponent </title>
<polygon fill="#fb8072" stroke="#000000" points="1973.6994,-252 1780.3006,-252 1780.3006,-216 1973.6994,-216 1973.6994,-252"/>
<text text-anchor="middle" x="1877" y="-229.8" font-family="Times,serif" font-size="14.00" fill="#000000">D3GraphCopyrightComponent </text>
</g>
<!-- HelgolandTimeModule&#45;&gt;D3GraphCopyrightComponent  -->
<g id="edge12" class="edge">
<title>HelgolandTimeModule&#45;&gt;D3GraphCopyrightComponent </title>
<path fill="none" stroke="#000000" stroke-dasharray="5,2" d="M1194.9223,-175C1372.5387,-175 1808.6997,-175 1808.6997,-175 1808.6997,-175 1808.6997,-205.9775 1808.6997,-205.9775"/>
<polygon fill="#000000" stroke="#000000" points="1805.1998,-205.9774 1808.6997,-215.9775 1812.1998,-205.9775 1805.1998,-205.9774"/>
</g>
<!-- D3GraphPanZoomInteractionComponent  -->
<g id="node14" class="node">
<title>D3GraphPanZoomInteractionComponent </title>
<polygon fill="#fb8072" stroke="#000000" points="1761.998,-252 1510.002,-252 1510.002,-216 1761.998,-216 1761.998,-252"/>
<text text-anchor="middle" x="1636" y="-229.8" font-family="Times,serif" font-size="14.00" fill="#000000">D3GraphPanZoomInteractionComponent </text>
</g>
<!-- HelgolandTimeModule&#45;&gt;D3GraphPanZoomInteractionComponent  -->
<g id="edge13" class="edge">
<title>HelgolandTimeModule&#45;&gt;D3GraphPanZoomInteractionComponent </title>
<path fill="none" stroke="#000000" stroke-dasharray="5,2" d="M1195.034,-179C1315.4667,-179 1540.5086,-179 1540.5086,-179 1540.5086,-179 1540.5086,-205.9909 1540.5086,-205.9909"/>
<polygon fill="#000000" stroke="#000000" points="1537.0087,-205.9909 1540.5086,-215.9909 1544.0087,-205.991 1537.0087,-205.9909"/>
</g>
<!-- D3OverviewTimeseriesGraphComponent  -->
<g id="node15" class="node">
<title>D3OverviewTimeseriesGraphComponent </title>
<polygon fill="#fb8072" stroke="#000000" points="1491.5328,-252 1238.4672,-252 1238.4672,-216 1491.5328,-216 1491.5328,-252"/>
<text text-anchor="middle" x="1365" y="-229.8" font-family="Times,serif" font-size="14.00" fill="#000000">D3OverviewTimeseriesGraphComponent </text>
</g>
<!-- HelgolandTimeModule&#45;&gt;D3OverviewTimeseriesGraphComponent  -->
<g id="edge14" class="edge">
<title>HelgolandTimeModule&#45;&gt;D3OverviewTimeseriesGraphComponent </title>
<path fill="none" stroke="#000000" stroke-dasharray="5,2" d="M1195.0354,-183C1232.7824,-183 1270.8266,-183 1270.8266,-183 1270.8266,-183 1270.8266,-205.8757 1270.8266,-205.8757"/>
<polygon fill="#000000" stroke="#000000" points="1267.3267,-205.8757 1270.8266,-215.8757 1274.3267,-205.8757 1267.3267,-205.8757"/>
</g>
<!-- D3TimeseriesGraphComponent  -->
<g id="node16" class="node">
<title>D3TimeseriesGraphComponent </title>
<polygon fill="#fb8072" stroke="#000000" points="1220.3391,-252 1021.6609,-252 1021.6609,-216 1220.3391,-216 1220.3391,-252"/>
<text text-anchor="middle" x="1121" y="-229.8" font-family="Times,serif" font-size="14.00" fill="#000000">D3TimeseriesGraphComponent </text>
</g>
<!-- HelgolandTimeModule&#45;&gt;D3TimeseriesGraphComponent  -->
<g id="edge15" class="edge">
<title>HelgolandTimeModule&#45;&gt;D3TimeseriesGraphComponent </title>
<path fill="none" stroke="#000000" stroke-dasharray="5,2" d="M1121,-187.1061C1121,-187.1061 1121,-205.991 1121,-205.991"/>
<polygon fill="#000000" stroke="#000000" points="1117.5001,-205.9909 1121,-215.991 1124.5001,-205.991 1117.5001,-205.9909"/>
</g>
<!-- D3TrajectoryGraphComponent  -->
<g id="node17" class="node">
<title>D3TrajectoryGraphComponent </title>
<polygon fill="#fb8072" stroke="#000000" points="1003.7197,-252 808.2803,-252 808.2803,-216 1003.7197,-216 1003.7197,-252"/>
<text text-anchor="middle" x="906" y="-229.8" font-family="Times,serif" font-size="14.00" fill="#000000">D3TrajectoryGraphComponent </text>
</g>
<!-- HelgolandTimeModule&#45;&gt;D3TrajectoryGraphComponent  -->
<g id="edge16" class="edge">
<title>HelgolandTimeModule&#45;&gt;D3TrajectoryGraphComponent </title>
<path fill="none" stroke="#000000" stroke-dasharray="5,2" d="M1047.0934,-183C1001.383,-183 951.375,-183 951.375,-183 951.375,-183 951.375,-205.8757 951.375,-205.8757"/>
<polygon fill="#000000" stroke="#000000" points="947.8751,-205.8757 951.375,-215.8757 954.8751,-205.8757 947.8751,-205.8757"/>
</g>
<!-- D3YAxisModifierComponent  -->
<g id="node18" class="node">
<title>D3YAxisModifierComponent </title>
<polygon fill="#fb8072" stroke="#000000" points="790.2492,-252 601.7508,-252 601.7508,-216 790.2492,-216 790.2492,-252"/>
<text text-anchor="middle" x="696" y="-229.8" font-family="Times,serif" font-size="14.00" fill="#000000">D3YAxisModifierComponent </text>
</g>
<!-- HelgolandTimeModule&#45;&gt;D3YAxisModifierComponent  -->
<g id="edge17" class="edge">
<title>HelgolandTimeModule&#45;&gt;D3YAxisModifierComponent </title>
<path fill="none" stroke="#000000" stroke-dasharray="5,2" d="M1046.844,-179C936.8696,-179 743.375,-179 743.375,-179 743.375,-179 743.375,-205.9909 743.375,-205.9909"/>
<polygon fill="#000000" stroke="#000000" points="739.8751,-205.9909 743.375,-215.9909 746.8751,-205.991 739.8751,-205.9909"/>
</g>
<!-- ExportImageButtonComponent  -->
<g id="node19" class="node">
<title>ExportImageButtonComponent </title>
<polygon fill="#fb8072" stroke="#000000" points="584.0344,-252 387.9656,-252 387.9656,-216 584.0344,-216 584.0344,-252"/>
<text text-anchor="middle" x="486" y="-229.8" font-family="Times,serif" font-size="14.00" fill="#000000">ExportImageButtonComponent </text>
</g>
<!-- HelgolandTimeModule&#45;&gt;ExportImageButtonComponent  -->
<g id="edge18" class="edge">
<title>HelgolandTimeModule&#45;&gt;ExportImageButtonComponent </title>
<path fill="none" stroke="#000000" stroke-dasharray="5,2" d="M1047.0638,-175C889.4939,-175 534.875,-175 534.875,-175 534.875,-175 534.875,-205.9775 534.875,-205.9775"/>
<polygon fill="#000000" stroke="#000000" points="531.3751,-205.9774 534.875,-215.9775 538.3751,-205.9775 531.3751,-205.9774"/>
</g>
<!-- ExtendedDataD3TimeseriesGraphComponent  -->
<g id="node20" class="node">
<title>ExtendedDataD3TimeseriesGraphComponent </title>
<polygon fill="#fb8072" stroke="#000000" points="369.6378,-252 92.3622,-252 92.3622,-216 369.6378,-216 369.6378,-252"/>
<text text-anchor="middle" x="231" y="-229.8" font-family="Times,serif" font-size="14.00" fill="#000000">ExtendedDataD3TimeseriesGraphComponent </text>
</g>
<!-- HelgolandTimeModule&#45;&gt;ExtendedDataD3TimeseriesGraphComponent  -->
<g id="edge19" class="edge">
<title>HelgolandTimeModule&#45;&gt;ExtendedDataD3TimeseriesGraphComponent </title>
<path fill="none" stroke="#000000" stroke-dasharray="5,2" d="M1047.2687,-171C842.5067,-171 281.875,-171 281.875,-171 281.875,-171 281.875,-205.7778 281.875,-205.7778"/>
<polygon fill="#000000" stroke="#000000" points="278.3751,-205.7778 281.875,-215.7778 285.3751,-205.7778 278.3751,-205.7778"/>
</g>
<!-- HelgolandCoreModule -->
<g id="node11" class="node">
<title>HelgolandCoreModule</title>
<polygon fill="#8dd3c7" stroke="#000000" points="169.5786,-122 166.5786,-126 145.5786,-126 142.5786,-122 24.4214,-122 24.4214,-86 169.5786,-86 169.5786,-122"/>
<text text-anchor="middle" x="97" y="-99.8" font-family="Times,serif" font-size="14.00" fill="#000000">HelgolandCoreModule</text>
</g>
<!-- HelgolandCoreModule&#45;&gt;HelgolandTimeModule -->
<g id="edge10" class="edge">
<title>HelgolandCoreModule&#45;&gt;HelgolandTimeModule</title>
<path fill="none" stroke="#000000" d="M130.8603,-122.2222C130.8603,-140.8285 130.8603,-167 130.8603,-167 130.8603,-167 1036.9835,-167 1036.9835,-167"/>
<polygon fill="#000000" stroke="#000000" points="1036.9836,-170.5001 1046.9835,-167 1036.9835,-163.5001 1036.9836,-170.5001"/>
</g>
</g>
</svg>
