<?xml version="1.0" encoding="UTF-8" standalone="no"?>
<!DOCTYPE svg PUBLIC "-//W3C//DTD SVG 1.1//EN"
 "http://www.w3.org/Graphics/SVG/1.1/DTD/svg11.dtd">
<!-- Generated by graphviz version 2.40.1 (20161225.0304)
 -->
<!-- Title: dependencies Pages: 1 -->
<svg width="578pt" height="284pt"
 viewBox="0.00 0.00 578.00 284.00" xmlns="http://www.w3.org/2000/svg" xmlns:xlink="http://www.w3.org/1999/xlink">
<g id="graph0" class="graph" transform="scale(1 1) rotate(0) translate(4 280)">
<title>dependencies</title>
<polygon fill="#ffffff" stroke="transparent" points="-4,4 -4,-280 574,-280 574,4 -4,4"/>
<text text-anchor="start" x="264.0091" y="-42.4" font-family="sans-serif" font-weight="bold" font-size="14.00" fill="#000000">Legend</text>
<polygon fill="#ffffb3" stroke="transparent" points="51,-10 51,-30 71,-30 71,-10 51,-10"/>
<text text-anchor="start" x="74.629" y="-15.4" font-family="sans-serif" font-size="14.00" fill="#000000"> &#160;Declarations</text>
<polygon fill="#8dd3c7" stroke="transparent" points="164,-10 164,-30 184,-30 184,-10 164,-10"/>
<text text-anchor="start" x="187.7251" y="-15.4" font-family="sans-serif" font-size="14.00" fill="#000000"> &#160;Module</text>
<polygon fill="#80b1d3" stroke="transparent" points="250,-10 250,-30 270,-30 270,-10 250,-10"/>
<text text-anchor="start" x="273.7812" y="-15.4" font-family="sans-serif" font-size="14.00" fill="#000000"> &#160;Bootstrap</text>
<polygon fill="#fdb462" stroke="transparent" points="347,-10 347,-30 367,-30 367,-10 347,-10"/>
<text text-anchor="start" x="370.6732" y="-15.4" font-family="sans-serif" font-size="14.00" fill="#000000"> &#160;Providers</text>
<polygon fill="#fb8072" stroke="transparent" points="443,-10 443,-30 463,-30 463,-10 443,-10"/>
<text text-anchor="start" x="466.7258" y="-15.4" font-family="sans-serif" font-size="14.00" fill="#000000"> &#160;Exports</text>
<g id="clust1" class="cluster">
<title>cluster_HelgolandControlModule</title>
<polygon fill="none" stroke="#000000" stroke-dasharray="1,5" points="8,-70 8,-268 562,-268 562,-70 8,-70"/>
</g>
<g id="clust2" class="cluster">
<title>cluster_HelgolandControlModule_declarations</title>
<polygon fill="none" stroke="#000000" points="22,-78 22,-130 548,-130 548,-78 22,-78"/>
</g>
<g id="clust7" class="cluster">
<title>cluster_HelgolandControlModule_exports</title>
<polygon fill="none" stroke="#000000" points="16,-208 16,-260 554,-260 554,-208 16,-208"/>
</g>
<!-- BoolTogglerComponent -->
<g id="node1" class="node">
<title>BoolTogglerComponent</title>
<polygon fill="#ffffb3" stroke="#000000" points="540.378,-122 387.622,-122 387.622,-86 540.378,-86 540.378,-122"/>
<text text-anchor="middle" x="464" y="-99.8" font-family="Times,serif" font-size="14.00" fill="#000000">BoolTogglerComponent</text>
</g>
<!-- HelgolandControlModule -->
<g id="node4" class="node">
<title>HelgolandControlModule</title>
<polygon fill="#8dd3c7" stroke="#000000" points="370.1456,-187 367.1456,-191 346.1456,-191 343.1456,-187 209.8544,-187 209.8544,-151 370.1456,-151 370.1456,-187"/>
<text text-anchor="middle" x="290" y="-164.8" font-family="Times,serif" font-size="14.00" fill="#000000">HelgolandControlModule</text>
</g>
<!-- BoolTogglerComponent&#45;&gt;HelgolandControlModule -->
<g id="edge1" class="edge">
<title>BoolTogglerComponent&#45;&gt;HelgolandControlModule</title>
<path fill="none" stroke="#000000" d="M490.2297,-122.0225C490.2297,-139.3734 490.2297,-163 490.2297,-163 490.2297,-163 380.2874,-163 380.2874,-163"/>
<polygon fill="#000000" stroke="#000000" points="380.2874,-159.5001 370.2874,-163 380.2873,-166.5001 380.2874,-159.5001"/>
</g>
<!-- StringTogglerComponent -->
<g id="node2" class="node">
<title>StringTogglerComponent</title>
<polygon fill="#ffffb3" stroke="#000000" points="369.8752,-122 210.1248,-122 210.1248,-86 369.8752,-86 369.8752,-122"/>
<text text-anchor="middle" x="290" y="-99.8" font-family="Times,serif" font-size="14.00" fill="#000000">StringTogglerComponent</text>
</g>
<!-- StringTogglerComponent&#45;&gt;HelgolandControlModule -->
<g id="edge2" class="edge">
<title>StringTogglerComponent&#45;&gt;HelgolandControlModule</title>
<path fill="none" stroke="#000000" d="M290,-122.1061C290,-122.1061 290,-140.991 290,-140.991"/>
<polygon fill="#000000" stroke="#000000" points="286.5001,-140.9909 290,-150.991 293.5001,-140.991 286.5001,-140.9909"/>
</g>
<!-- RefreshButtonComponent -->
<g id="node3" class="node">
<title>RefreshButtonComponent</title>
<polygon fill="#ffffb3" stroke="#000000" points="192.4818,-122 29.5182,-122 29.5182,-86 192.4818,-86 192.4818,-122"/>
<text text-anchor="middle" x="111" y="-99.8" font-family="Times,serif" font-size="14.00" fill="#000000">RefreshButtonComponent</text>
</g>
<!-- RefreshButtonComponent&#45;&gt;HelgolandControlModule -->
<g id="edge3" class="edge">
<title>RefreshButtonComponent&#45;&gt;HelgolandControlModule</title>
<path fill="none" stroke="#000000" d="M136.6636,-122.0225C136.6636,-139.3734 136.6636,-163 136.6636,-163 136.6636,-163 199.7392,-163 199.7392,-163"/>
<polygon fill="#000000" stroke="#000000" points="199.7392,-166.5001 209.7392,-163 199.7391,-159.5001 199.7392,-166.5001"/>
</g>
<!-- BoolTogglerComponent  -->
<g id="node5" class="node">
<title>BoolTogglerComponent </title>
<polygon fill="#fb8072" stroke="#000000" points="546.3785,-252 389.6215,-252 389.6215,-216 546.3785,-216 546.3785,-252"/>
<text text-anchor="middle" x="468" y="-229.8" font-family="Times,serif" font-size="14.00" fill="#000000">BoolTogglerComponent </text>
</g>
<!-- HelgolandControlModule&#45;&gt;BoolTogglerComponent  -->
<g id="edge4" class="edge">
<title>HelgolandControlModule&#45;&gt;BoolTogglerComponent </title>
<path fill="none" stroke="#000000" stroke-dasharray="5,2" d="M370.2805,-175C405.9489,-175 440.0203,-175 440.0203,-175 440.0203,-175 440.0203,-205.9775 440.0203,-205.9775"/>
<polygon fill="#000000" stroke="#000000" points="436.5204,-205.9774 440.0203,-215.9775 443.5204,-205.9775 436.5204,-205.9774"/>
</g>
<!-- StringTogglerComponent  -->
<g id="node6" class="node">
<title>StringTogglerComponent </title>
<polygon fill="#fb8072" stroke="#000000" points="371.8756,-252 208.1244,-252 208.1244,-216 371.8756,-216 371.8756,-252"/>
<text text-anchor="middle" x="290" y="-229.8" font-family="Times,serif" font-size="14.00" fill="#000000">StringTogglerComponent </text>
</g>
<!-- HelgolandControlModule&#45;&gt;StringTogglerComponent  -->
<g id="edge5" class="edge">
<title>HelgolandControlModule&#45;&gt;StringTogglerComponent </title>
<path fill="none" stroke="#000000" stroke-dasharray="5,2" d="M290,-187.1061C290,-187.1061 290,-205.991 290,-205.991"/>
<polygon fill="#000000" stroke="#000000" points="286.5001,-205.9909 290,-215.991 293.5001,-205.991 286.5001,-205.9909"/>
</g>
<!-- RefreshButtonComponent  -->
<g id="node7" class="node">
<title>RefreshButtonComponent </title>
<polygon fill="#fb8072" stroke="#000000" points="190.4825,-252 23.5175,-252 23.5175,-216 190.4825,-216 190.4825,-252"/>
<text text-anchor="middle" x="107" y="-229.8" font-family="Times,serif" font-size="14.00" fill="#000000">RefreshButtonComponent </text>
</g>
<!-- HelgolandControlModule&#45;&gt;RefreshButtonComponent  -->
<g id="edge6" class="edge">
<title>HelgolandControlModule&#45;&gt;RefreshButtonComponent </title>
<path fill="none" stroke="#000000" stroke-dasharray="5,2" d="M209.7056,-175C151.5437,-175 83.0864,-175 83.0864,-175 83.0864,-175 83.0864,-205.9775 83.0864,-205.9775"/>
<polygon fill="#000000" stroke="#000000" points="79.5865,-205.9774 83.0864,-215.9775 86.5865,-205.9775 79.5865,-205.9774"/>
</g>
</g>
</svg>
