<?xml version="1.0" encoding="UTF-8" standalone="no"?>
<!DOCTYPE svg PUBLIC "-//W3C//DTD SVG 1.1//EN"
 "http://www.w3.org/Graphics/SVG/1.1/DTD/svg11.dtd">
<!-- Generated by graphviz version 2.40.1 (20161225.0304)
 -->
<!-- Title: dependencies Pages: 1 -->
<svg width="578pt" height="284pt"
 viewBox="0.00 0.00 578.00 284.00" xmlns="http://www.w3.org/2000/svg" xmlns:xlink="http://www.w3.org/1999/xlink">
<g id="graph0" class="graph" transform="scale(1 1) rotate(0) translate(4 280)">
<title>dependencies</title>
<polygon fill="#ffffff" stroke="transparent" points="-4,4 -4,-280 574,-280 574,4 -4,4"/>
<text text-anchor="start" x="264.0091" y="-42.4" font-family="sans-serif" font-weight="bold" font-size="14.00" fill="#000000">Legend</text>
<polygon fill="#ffffb3" stroke="transparent" points="51,-10 51,-30 71,-30 71,-10 51,-10"/>
<text text-anchor="start" x="74.629" y="-15.4" font-family="sans-serif" font-size="14.00" fill="#000000"> &#160;Declarations</text>
<polygon fill="#8dd3c7" stroke="transparent" points="164,-10 164,-30 184,-30 184,-10 164,-10"/>
<text text-anchor="start" x="187.7251" y="-15.4" font-family="sans-serif" font-size="14.00" fill="#000000"> &#160;Module</text>
<polygon fill="#80b1d3" stroke="transparent" points="250,-10 250,-30 270,-30 270,-10 250,-10"/>
<text text-anchor="start" x="273.7812" y="-15.4" font-family="sans-serif" font-size="14.00" fill="#000000"> &#160;Bootstrap</text>
<polygon fill="#fdb462" stroke="transparent" points="347,-10 347,-30 367,-30 367,-10 347,-10"/>
<text text-anchor="start" x="370.6732" y="-15.4" font-family="sans-serif" font-size="14.00" fill="#000000"> &#160;Providers</text>
<polygon fill="#fb8072" stroke="transparent" points="443,-10 443,-30 463,-30 463,-10 443,-10"/>
<text text-anchor="start" x="466.7258" y="-15.4" font-family="sans-serif" font-size="14.00" fill="#000000"> &#160;Exports</text>
<g id="clust1" class="cluster">
<title>cluster_HelgolandControlModule</title>
<polygon fill="none" stroke="#000000" stroke-dasharray="1,5" points="8,-70 8,-268 562,-268 562,-70 8,-70"/>
</g>
<g id="clust2" class="cluster">
<title>cluster_HelgolandControlModule_declarations</title>
<polygon fill="none" stroke="#000000" points="22,-78 22,-130 549,-130 549,-78 22,-78"/>
</g>
<g id="clust7" class="cluster">
<title>cluster_HelgolandControlModule_exports</title>
<polygon fill="none" stroke="#000000" points="16,-208 16,-260 554,-260 554,-208 16,-208"/>
</g>
<!-- BoolTogglerComponent -->
<g id="node1" class="node">
<title>BoolTogglerComponent</title>
<polygon fill="#ffffb3" stroke="#000000" points="541.378,-122 388.622,-122 388.622,-86 541.378,-86 541.378,-122"/>
<text text-anchor="middle" x="465" y="-99.8" font-family="Times,serif" font-size="14.00" fill="#000000">BoolTogglerComponent</text>
</g>
<!-- HelgolandControlModule -->
<g id="node4" class="node">
<title>HelgolandControlModule</title>
<polygon fill="#8dd3c7" stroke="#000000" points="369.1456,-187 366.1456,-191 345.1456,-191 342.1456,-187 208.8544,-187 208.8544,-151 369.1456,-151 369.1456,-187"/>
<text text-anchor="middle" x="289" y="-164.8" font-family="Times,serif" font-size="14.00" fill="#000000">HelgolandControlModule</text>
</g>
<!-- BoolTogglerComponent&#45;&gt;HelgolandControlModule -->
<g id="edge1" class="edge">
<title>BoolTogglerComponent&#45;&gt;HelgolandControlModule</title>
<path fill="none" stroke="#000000" d="M490.8963,-122.0225C490.8963,-139.3734 490.8963,-163 490.8963,-163 490.8963,-163 379.3749,-163 379.3749,-163"/>
<polygon fill="#000000" stroke="#000000" points="379.3749,-159.5001 369.3749,-163 379.3749,-166.5001 379.3749,-159.5001"/>
</g>
<!-- RefreshButtonComponent -->
<g id="node2" class="node">
<title>RefreshButtonComponent</title>
<polygon fill="#ffffb3" stroke="#000000" points="370.4818,-122 207.5182,-122 207.5182,-86 370.4818,-86 370.4818,-122"/>
<text text-anchor="middle" x="289" y="-99.8" font-family="Times,serif" font-size="14.00" fill="#000000">RefreshButtonComponent</text>
</g>
<!-- RefreshButtonComponent&#45;&gt;HelgolandControlModule -->
<g id="edge2" class="edge">
<title>RefreshButtonComponent&#45;&gt;HelgolandControlModule</title>
<path fill="none" stroke="#000000" d="M289,-122.1061C289,-122.1061 289,-140.991 289,-140.991"/>
<polygon fill="#000000" stroke="#000000" points="285.5001,-140.9909 289,-150.991 292.5001,-140.991 285.5001,-140.9909"/>
</g>
<!-- StringTogglerComponent -->
<g id="node3" class="node">
<title>StringTogglerComponent</title>
<polygon fill="#ffffb3" stroke="#000000" points="189.8752,-122 30.1248,-122 30.1248,-86 189.8752,-86 189.8752,-122"/>
<text text-anchor="middle" x="110" y="-99.8" font-family="Times,serif" font-size="14.00" fill="#000000">StringTogglerComponent</text>
</g>
<!-- StringTogglerComponent&#45;&gt;HelgolandControlModule -->
<g id="edge3" class="edge">
<title>StringTogglerComponent&#45;&gt;HelgolandControlModule</title>
<path fill="none" stroke="#000000" d="M135.1459,-122.0225C135.1459,-139.3734 135.1459,-163 135.1459,-163 135.1459,-163 198.4682,-163 198.4682,-163"/>
<polygon fill="#000000" stroke="#000000" points="198.4682,-166.5001 208.4682,-163 198.4681,-159.5001 198.4682,-166.5001"/>
</g>
<!-- BoolTogglerComponent  -->
<g id="node5" class="node">
<title>BoolTogglerComponent </title>
<polygon fill="#fb8072" stroke="#000000" points="546.3785,-252 389.6215,-252 389.6215,-216 546.3785,-216 546.3785,-252"/>
<text text-anchor="middle" x="468" y="-229.8" font-family="Times,serif" font-size="14.00" fill="#000000">BoolTogglerComponent </text>
</g>
<!-- HelgolandControlModule&#45;&gt;BoolTogglerComponent  -->
<g id="edge4" class="edge">
<title>HelgolandControlModule&#45;&gt;BoolTogglerComponent </title>
<path fill="none" stroke="#000000" stroke-dasharray="5,2" d="M369.5514,-175C405.6971,-175 440.3537,-175 440.3537,-175 440.3537,-175 440.3537,-205.9775 440.3537,-205.9775"/>
<polygon fill="#000000" stroke="#000000" points="436.8538,-205.9774 440.3537,-215.9775 443.8538,-205.9775 436.8538,-205.9774"/>
</g>
<!-- RefreshButtonComponent  -->
<g id="node6" class="node">
<title>RefreshButtonComponent </title>
<polygon fill="#fb8072" stroke="#000000" points="372.4825,-252 205.5175,-252 205.5175,-216 372.4825,-216 372.4825,-252"/>
<text text-anchor="middle" x="289" y="-229.8" font-family="Times,serif" font-size="14.00" fill="#000000">RefreshButtonComponent </text>
</g>
<!-- HelgolandControlModule&#45;&gt;RefreshButtonComponent  -->
<g id="edge5" class="edge">
<title>HelgolandControlModule&#45;&gt;RefreshButtonComponent </title>
<path fill="none" stroke="#000000" stroke-dasharray="5,2" d="M289,-187.1061C289,-187.1061 289,-205.991 289,-205.991"/>
<polygon fill="#000000" stroke="#000000" points="285.5001,-205.9909 289,-215.991 292.5001,-205.991 285.5001,-205.9909"/>
</g>
<!-- StringTogglerComponent  -->
<g id="node7" class="node">
<title>StringTogglerComponent </title>
<polygon fill="#fb8072" stroke="#000000" points="187.8756,-252 24.1244,-252 24.1244,-216 187.8756,-216 187.8756,-252"/>
<text text-anchor="middle" x="106" y="-229.8" font-family="Times,serif" font-size="14.00" fill="#000000">StringTogglerComponent </text>
</g>
<!-- HelgolandControlModule&#45;&gt;StringTogglerComponent  -->
<g id="edge6" class="edge">
<title>HelgolandControlModule&#45;&gt;StringTogglerComponent </title>
<path fill="none" stroke="#000000" stroke-dasharray="5,2" d="M208.611,-175C150.6585,-175 82.6041,-175 82.6041,-175 82.6041,-175 82.6041,-205.9775 82.6041,-205.9775"/>
<polygon fill="#000000" stroke="#000000" points="79.1042,-205.9774 82.6041,-215.9775 86.1042,-205.9775 79.1042,-205.9774"/>
</g>
</g>
</svg>
