<?xml version="1.0" encoding="UTF-8" standalone="no"?>
<!DOCTYPE svg PUBLIC "-//W3C//DTD SVG 1.1//EN"
 "http://www.w3.org/Graphics/SVG/1.1/DTD/svg11.dtd">
<!-- Generated by graphviz version 2.40.1 (20161225.0304)
 -->
<!-- Title: dependencies Pages: 1 -->
<svg width="504pt" height="284pt"
 viewBox="0.00 0.00 504.00 284.00" xmlns="http://www.w3.org/2000/svg" xmlns:xlink="http://www.w3.org/1999/xlink">
<g id="graph0" class="graph" transform="scale(1 1) rotate(0) translate(4 280)">
<title>dependencies</title>
<polygon fill="#ffffff" stroke="transparent" points="-4,4 -4,-280 500,-280 500,4 -4,4"/>
<text text-anchor="start" x="227.0091" y="-42.4" font-family="sans-serif" font-weight="bold" font-size="14.00" fill="#000000">Legend</text>
<polygon fill="#ffffb3" stroke="transparent" points="14,-10 14,-30 34,-30 34,-10 14,-10"/>
<text text-anchor="start" x="37.629" y="-15.4" font-family="sans-serif" font-size="14.00" fill="#000000"> &#160;Declarations</text>
<polygon fill="#8dd3c7" stroke="transparent" points="127,-10 127,-30 147,-30 147,-10 127,-10"/>
<text text-anchor="start" x="150.7251" y="-15.4" font-family="sans-serif" font-size="14.00" fill="#000000"> &#160;Module</text>
<polygon fill="#80b1d3" stroke="transparent" points="213,-10 213,-30 233,-30 233,-10 213,-10"/>
<text text-anchor="start" x="236.7812" y="-15.4" font-family="sans-serif" font-size="14.00" fill="#000000"> &#160;Bootstrap</text>
<polygon fill="#fdb462" stroke="transparent" points="310,-10 310,-30 330,-30 330,-10 310,-10"/>
<text text-anchor="start" x="333.6732" y="-15.4" font-family="sans-serif" font-size="14.00" fill="#000000"> &#160;Providers</text>
<polygon fill="#fb8072" stroke="transparent" points="406,-10 406,-30 426,-30 426,-10 406,-10"/>
<text text-anchor="start" x="429.7258" y="-15.4" font-family="sans-serif" font-size="14.00" fill="#000000"> &#160;Exports</text>
<g id="clust1" class="cluster">
<title>cluster_HelgolandControlModule</title>
<polygon fill="none" stroke="#000000" stroke-dasharray="1,5" points="63,-70 63,-268 433,-268 433,-70 63,-70"/>
</g>
<g id="clust2" class="cluster">
<title>cluster_HelgolandControlModule_declarations</title>
<polygon fill="none" stroke="#000000" points="75,-78 75,-130 421,-130 421,-78 75,-78"/>
</g>
<g id="clust6" class="cluster">
<title>cluster_HelgolandControlModule_exports</title>
<polygon fill="none" stroke="#000000" points="71,-208 71,-260 425,-260 425,-208 71,-208"/>
</g>
<!-- BoolTogglerComponent -->
<g id="node1" class="node">
<title>BoolTogglerComponent</title>
<polygon fill="#ffffb3" stroke="#000000" points="413.378,-122 260.622,-122 260.622,-86 413.378,-86 413.378,-122"/>
<text text-anchor="middle" x="337" y="-99.8" font-family="Times,serif" font-size="14.00" fill="#000000">BoolTogglerComponent</text>
</g>
<!-- HelgolandControlModule -->
<g id="node3" class="node">
<title>HelgolandControlModule</title>
<polygon fill="#8dd3c7" stroke="#000000" points="244.1456,-187 241.1456,-191 220.1456,-191 217.1456,-187 83.8544,-187 83.8544,-151 244.1456,-151 244.1456,-187"/>
<text text-anchor="middle" x="164" y="-164.8" font-family="Times,serif" font-size="14.00" fill="#000000">HelgolandControlModule</text>
</g>
<!-- BoolTogglerComponent&#45;&gt;HelgolandControlModule -->
<g id="edge1" class="edge">
<title>BoolTogglerComponent&#45;&gt;HelgolandControlModule</title>
<path fill="none" stroke="#000000" d="M362.563,-122.0225C362.563,-139.3734 362.563,-163 362.563,-163 362.563,-163 254.1908,-163 254.1908,-163"/>
<polygon fill="#000000" stroke="#000000" points="254.1909,-159.5001 244.1908,-163 254.1908,-166.5001 254.1909,-159.5001"/>
</g>
<!-- StringTogglerComponent -->
<g id="node2" class="node">
<title>StringTogglerComponent</title>
<polygon fill="#ffffb3" stroke="#000000" points="242.8752,-122 83.1248,-122 83.1248,-86 242.8752,-86 242.8752,-122"/>
<text text-anchor="middle" x="163" y="-99.8" font-family="Times,serif" font-size="14.00" fill="#000000">StringTogglerComponent</text>
</g>
<!-- StringTogglerComponent&#45;&gt;HelgolandControlModule -->
<g id="edge2" class="edge">
<title>StringTogglerComponent&#45;&gt;HelgolandControlModule</title>
<path fill="none" stroke="#000000" d="M163.3075,-122.1061C163.3075,-122.1061 163.3075,-140.991 163.3075,-140.991"/>
<polygon fill="#000000" stroke="#000000" points="159.8076,-140.9909 163.3075,-150.991 166.8076,-140.991 159.8076,-140.9909"/>
</g>
<!-- BoolTogglerComponent  -->
<g id="node4" class="node">
<title>BoolTogglerComponent </title>
<polygon fill="#fb8072" stroke="#000000" points="417.3785,-252 260.6215,-252 260.6215,-216 417.3785,-216 417.3785,-252"/>
<text text-anchor="middle" x="339" y="-229.8" font-family="Times,serif" font-size="14.00" fill="#000000">BoolTogglerComponent </text>
</g>
<!-- HelgolandControlModule&#45;&gt;BoolTogglerComponent  -->
<g id="edge3" class="edge">
<title>HelgolandControlModule&#45;&gt;BoolTogglerComponent </title>
<path fill="none" stroke="#000000" stroke-dasharray="5,2" d="M244.3262,-175C278.9653,-175 311.687,-175 311.687,-175 311.687,-175 311.687,-205.9775 311.687,-205.9775"/>
<polygon fill="#000000" stroke="#000000" points="308.1871,-205.9774 311.687,-215.9775 315.1871,-205.9775 308.1871,-205.9774"/>
</g>
<!-- StringTogglerComponent  -->
<g id="node5" class="node">
<title>StringTogglerComponent </title>
<polygon fill="#fb8072" stroke="#000000" points="242.8756,-252 79.1244,-252 79.1244,-216 242.8756,-216 242.8756,-252"/>
<text text-anchor="middle" x="161" y="-229.8" font-family="Times,serif" font-size="14.00" fill="#000000">StringTogglerComponent </text>
</g>
<!-- HelgolandControlModule&#45;&gt;StringTogglerComponent  -->
<g id="edge4" class="edge">
<title>HelgolandControlModule&#45;&gt;StringTogglerComponent </title>
<path fill="none" stroke="#000000" stroke-dasharray="5,2" d="M163.1825,-187.1061C163.1825,-187.1061 163.1825,-205.991 163.1825,-205.991"/>
<polygon fill="#000000" stroke="#000000" points="159.6826,-205.9909 163.1825,-215.991 166.6826,-205.991 159.6826,-205.9909"/>
</g>
</g>
</svg>
