<?xml version="1.0" encoding="UTF-8" standalone="no"?>
<!DOCTYPE svg PUBLIC "-//W3C//DTD SVG 1.1//EN"
 "http://www.w3.org/Graphics/SVG/1.1/DTD/svg11.dtd">
<!-- Generated by graphviz version 2.40.1 (20161225.0304)
 -->
<!-- Title: dependencies Pages: 1 -->
<svg width="2353pt" height="284pt"
 viewBox="0.00 0.00 2353.00 284.00" xmlns="http://www.w3.org/2000/svg" xmlns:xlink="http://www.w3.org/1999/xlink">
<g id="graph0" class="graph" transform="scale(1 1) rotate(0) translate(4 280)">
<title>dependencies</title>
<polygon fill="#ffffff" stroke="transparent" points="-4,4 -4,-280 2349,-280 2349,4 -4,4"/>
<text text-anchor="start" x="1151.5091" y="-42.4" font-family="sans-serif" font-weight="bold" font-size="14.00" fill="#000000">Legend</text>
<polygon fill="#ffffb3" stroke="transparent" points="938.5,-10 938.5,-30 958.5,-30 958.5,-10 938.5,-10"/>
<text text-anchor="start" x="962.129" y="-15.4" font-family="sans-serif" font-size="14.00" fill="#000000"> &#160;Declarations</text>
<polygon fill="#8dd3c7" stroke="transparent" points="1051.5,-10 1051.5,-30 1071.5,-30 1071.5,-10 1051.5,-10"/>
<text text-anchor="start" x="1075.2251" y="-15.4" font-family="sans-serif" font-size="14.00" fill="#000000"> &#160;Module</text>
<polygon fill="#80b1d3" stroke="transparent" points="1137.5,-10 1137.5,-30 1157.5,-30 1157.5,-10 1137.5,-10"/>
<text text-anchor="start" x="1161.2812" y="-15.4" font-family="sans-serif" font-size="14.00" fill="#000000"> &#160;Bootstrap</text>
<polygon fill="#fdb462" stroke="transparent" points="1234.5,-10 1234.5,-30 1254.5,-30 1254.5,-10 1234.5,-10"/>
<text text-anchor="start" x="1258.1732" y="-15.4" font-family="sans-serif" font-size="14.00" fill="#000000"> &#160;Providers</text>
<polygon fill="#fb8072" stroke="transparent" points="1330.5,-10 1330.5,-30 1350.5,-30 1350.5,-10 1330.5,-10"/>
<text text-anchor="start" x="1354.2258" y="-15.4" font-family="sans-serif" font-size="14.00" fill="#000000"> &#160;Exports</text>
<g id="clust1" class="cluster">
<title>cluster_HelgolandControlModule</title>
<polygon fill="none" stroke="#000000" stroke-dasharray="1,5" points="8,-70 8,-268 2337,-268 2337,-70 8,-70"/>
</g>
<g id="clust2" class="cluster">
<title>cluster_HelgolandControlModule_declarations</title>
<polygon fill="none" stroke="#000000" points="39,-78 39,-130 2314,-130 2314,-78 39,-78"/>
</g>
<g id="clust14" class="cluster">
<title>cluster_HelgolandControlModule_exports</title>
<polygon fill="none" stroke="#000000" points="16,-208 16,-260 2329,-260 2329,-208 16,-208"/>
</g>
<!-- D3GeneralGraphComponent -->
<g id="node1" class="node">
<title>D3GeneralGraphComponent</title>
<polygon fill="#ffffb3" stroke="#000000" points="2305.7226,-122 2128.2774,-122 2128.2774,-86 2305.7226,-86 2305.7226,-122"/>
<text text-anchor="middle" x="2217" y="-99.8" font-family="Times,serif" font-size="14.00" fill="#000000">D3GeneralGraphComponent</text>
</g>
<!-- HelgolandControlModule -->
<g id="node11" class="node">
<title>HelgolandControlModule</title>
<polygon fill="#8dd3c7" stroke="#000000" points="1147.1456,-187 1144.1456,-191 1123.1456,-191 1120.1456,-187 986.8544,-187 986.8544,-151 1147.1456,-151 1147.1456,-187"/>
<text text-anchor="middle" x="1067" y="-164.8" font-family="Times,serif" font-size="14.00" fill="#000000">HelgolandControlModule</text>
</g>
<!-- D3GeneralGraphComponent&#45;&gt;HelgolandControlModule -->
<g id="edge1" class="edge">
<title>D3GeneralGraphComponent&#45;&gt;HelgolandControlModule</title>
<path fill="none" stroke="#000000" d="M2133.7638,-122.1686C2133.7638,-141.0898 2133.7638,-168 2133.7638,-168 2133.7638,-168 1157.1807,-168 1157.1807,-168"/>
<polygon fill="#000000" stroke="#000000" points="1157.1807,-164.5001 1147.1807,-168 1157.1806,-171.5001 1157.1807,-164.5001"/>
</g>
<!-- D3GraphCopyrightComponent -->
<g id="node2" class="node">
<title>D3GraphCopyrightComponent</title>
<polygon fill="#ffffb3" stroke="#000000" points="2110.1993,-122 1919.8007,-122 1919.8007,-86 2110.1993,-86 2110.1993,-122"/>
<text text-anchor="middle" x="2015" y="-99.8" font-family="Times,serif" font-size="14.00" fill="#000000">D3GraphCopyrightComponent</text>
</g>
<!-- D3GraphCopyrightComponent&#45;&gt;HelgolandControlModule -->
<g id="edge2" class="edge">
<title>D3GraphCopyrightComponent&#45;&gt;HelgolandControlModule</title>
<path fill="none" stroke="#000000" d="M1924.0254,-122.302C1924.0254,-140.2699 1924.0254,-165 1924.0254,-165 1924.0254,-165 1157.2417,-165 1157.2417,-165"/>
<polygon fill="#000000" stroke="#000000" points="1157.2417,-161.5001 1147.2417,-165 1157.2417,-168.5001 1157.2417,-161.5001"/>
</g>
<!-- D3GraphHoverLineComponent -->
<g id="node3" class="node">
<title>D3GraphHoverLineComponent</title>
<polygon fill="#ffffb3" stroke="#000000" points="1902.0604,-122 1707.9396,-122 1707.9396,-86 1902.0604,-86 1902.0604,-122"/>
<text text-anchor="middle" x="1805" y="-99.8" font-family="Times,serif" font-size="14.00" fill="#000000">D3GraphHoverLineComponent</text>
</g>
<!-- D3GraphHoverLineComponent&#45;&gt;HelgolandControlModule -->
<g id="edge3" class="edge">
<title>D3GraphHoverLineComponent&#45;&gt;HelgolandControlModule</title>
<path fill="none" stroke="#000000" d="M1838.7601,-122.0352C1838.7601,-138.7344 1838.7601,-161 1838.7601,-161 1838.7601,-161 1157.4078,-161 1157.4078,-161"/>
<polygon fill="#000000" stroke="#000000" points="1157.4078,-157.5001 1147.4078,-161 1157.4078,-164.5001 1157.4078,-157.5001"/>
</g>
<!-- D3GraphPanZoomInteractionComponent -->
<g id="node4" class="node">
<title>D3GraphPanZoomInteractionComponent</title>
<polygon fill="#ffffb3" stroke="#000000" points="1690.4985,-122 1441.5015,-122 1441.5015,-86 1690.4985,-86 1690.4985,-122"/>
<text text-anchor="middle" x="1566" y="-99.8" font-family="Times,serif" font-size="14.00" fill="#000000">D3GraphPanZoomInteractionComponent</text>
</g>
<!-- D3GraphPanZoomInteractionComponent&#45;&gt;HelgolandControlModule -->
<g id="edge4" class="edge">
<title>D3GraphPanZoomInteractionComponent&#45;&gt;HelgolandControlModule</title>
<path fill="none" stroke="#000000" d="M1607.4997,-122.2819C1607.4997,-137.9478 1607.4997,-158 1607.4997,-158 1607.4997,-158 1157.3346,-158 1157.3346,-158"/>
<polygon fill="#000000" stroke="#000000" points="1157.3347,-154.5001 1147.3346,-158 1157.3346,-161.5001 1157.3347,-154.5001"/>
</g>
<!-- D3OverviewTimeseriesGraphComponent -->
<g id="node5" class="node">
<title>D3OverviewTimeseriesGraphComponent</title>
<polygon fill="#ffffb3" stroke="#000000" points="1424.0324,-122 1173.9676,-122 1173.9676,-86 1424.0324,-86 1424.0324,-122"/>
<text text-anchor="middle" x="1299" y="-99.8" font-family="Times,serif" font-size="14.00" fill="#000000">D3OverviewTimeseriesGraphComponent</text>
</g>
<!-- D3OverviewTimeseriesGraphComponent&#45;&gt;HelgolandControlModule -->
<g id="edge5" class="edge">
<title>D3OverviewTimeseriesGraphComponent&#45;&gt;HelgolandControlModule</title>
<path fill="none" stroke="#000000" d="M1257.2446,-122.1243C1257.2446,-136.7832 1257.2446,-155 1257.2446,-155 1257.2446,-155 1157.4051,-155 1157.4051,-155"/>
<polygon fill="#000000" stroke="#000000" points="1157.4051,-151.5001 1147.4051,-155 1157.4051,-158.5001 1157.4051,-151.5001"/>
</g>
<!-- D3TimeseriesGraphComponent -->
<g id="node6" class="node">
<title>D3TimeseriesGraphComponent</title>
<polygon fill="#ffffb3" stroke="#000000" points="1156.3389,-122 961.6611,-122 961.6611,-86 1156.3389,-86 1156.3389,-122"/>
<text text-anchor="middle" x="1059" y="-99.8" font-family="Times,serif" font-size="14.00" fill="#000000">D3TimeseriesGraphComponent</text>
</g>
<!-- D3TimeseriesGraphComponent&#45;&gt;HelgolandControlModule -->
<g id="edge6" class="edge">
<title>D3TimeseriesGraphComponent&#45;&gt;HelgolandControlModule</title>
<path fill="none" stroke="#000000" d="M1067,-122.1061C1067,-122.1061 1067,-140.991 1067,-140.991"/>
<polygon fill="#000000" stroke="#000000" points="1063.5001,-140.9909 1067,-150.991 1070.5001,-140.991 1063.5001,-140.9909"/>
</g>
<!-- D3TrajectoryGraphComponent -->
<g id="node7" class="node">
<title>D3TrajectoryGraphComponent</title>
<polygon fill="#ffffb3" stroke="#000000" points="943.7198,-122 752.2802,-122 752.2802,-86 943.7198,-86 943.7198,-122"/>
<text text-anchor="middle" x="848" y="-99.8" font-family="Times,serif" font-size="14.00" fill="#000000">D3TrajectoryGraphComponent</text>
</g>
<!-- D3TrajectoryGraphComponent&#45;&gt;HelgolandControlModule -->
<g id="edge7" class="edge">
<title>D3TrajectoryGraphComponent&#45;&gt;HelgolandControlModule</title>
<path fill="none" stroke="#000000" d="M939.7348,-122.1243C939.7348,-136.7832 939.7348,-155 939.7348,-155 939.7348,-155 976.7621,-155 976.7621,-155"/>
<polygon fill="#000000" stroke="#000000" points="976.7621,-158.5001 986.7621,-155 976.762,-151.5001 976.7621,-158.5001"/>
</g>
<!-- D3YAxisModifierComponent -->
<g id="node8" class="node">
<title>D3YAxisModifierComponent</title>
<polygon fill="#ffffb3" stroke="#000000" points="734.2492,-122 549.7508,-122 549.7508,-86 734.2492,-86 734.2492,-122"/>
<text text-anchor="middle" x="642" y="-99.8" font-family="Times,serif" font-size="14.00" fill="#000000">D3YAxisModifierComponent</text>
</g>
<!-- D3YAxisModifierComponent&#45;&gt;HelgolandControlModule -->
<g id="edge8" class="edge">
<title>D3YAxisModifierComponent&#45;&gt;HelgolandControlModule</title>
<path fill="none" stroke="#000000" d="M728.2495,-122.0091C728.2495,-138.0494 728.2495,-159 728.2495,-159 728.2495,-159 976.7209,-159 976.7209,-159"/>
<polygon fill="#000000" stroke="#000000" points="976.7209,-162.5001 986.7209,-159 976.7208,-155.5001 976.7209,-162.5001"/>
</g>
<!-- ExportImageButtonComponent -->
<g id="node9" class="node">
<title>ExportImageButtonComponent</title>
<polygon fill="#ffffb3" stroke="#000000" points="531.035,-122 338.965,-122 338.965,-86 531.035,-86 531.035,-122"/>
<text text-anchor="middle" x="435" y="-99.8" font-family="Times,serif" font-size="14.00" fill="#000000">ExportImageButtonComponent</text>
</g>
<!-- ExportImageButtonComponent&#45;&gt;HelgolandControlModule -->
<g id="edge9" class="edge">
<title>ExportImageButtonComponent&#45;&gt;HelgolandControlModule</title>
<path fill="none" stroke="#000000" d="M523.6422,-122.0225C523.6422,-139.3734 523.6422,-163 523.6422,-163 523.6422,-163 976.8257,-163 976.8257,-163"/>
<polygon fill="#000000" stroke="#000000" points="976.8257,-166.5001 986.8257,-163 976.8257,-159.5001 976.8257,-166.5001"/>
</g>
<!-- ExtendedDataD3TimeseriesGraphComponent -->
<g id="node10" class="node">
<title>ExtendedDataD3TimeseriesGraphComponent</title>
<polygon fill="#ffffb3" stroke="#000000" points="321.1376,-122 46.8624,-122 46.8624,-86 321.1376,-86 321.1376,-122"/>
<text text-anchor="middle" x="184" y="-99.8" font-family="Times,serif" font-size="14.00" fill="#000000">ExtendedDataD3TimeseriesGraphComponent</text>
</g>
<!-- ExtendedDataD3TimeseriesGraphComponent&#45;&gt;HelgolandControlModule -->
<g id="edge10" class="edge">
<title>ExtendedDataD3TimeseriesGraphComponent&#45;&gt;HelgolandControlModule</title>
<path fill="none" stroke="#000000" d="M310.9008,-122.2222C310.9008,-140.8285 310.9008,-167 310.9008,-167 310.9008,-167 976.8,-167 976.8,-167"/>
<polygon fill="#000000" stroke="#000000" points="976.8,-170.5001 986.8,-167 976.7999,-163.5001 976.8,-170.5001"/>
</g>
<!-- D3GeneralGraphComponent  -->
<g id="node12" class="node">
<title>D3GeneralGraphComponent </title>
<polygon fill="#fb8072" stroke="#000000" points="2320.7225,-252 2139.2775,-252 2139.2775,-216 2320.7225,-216 2320.7225,-252"/>
<text text-anchor="middle" x="2230" y="-229.8" font-family="Times,serif" font-size="14.00" fill="#000000">D3GeneralGraphComponent </text>
</g>
<!-- HelgolandControlModule&#45;&gt;D3GeneralGraphComponent  -->
<g id="edge11" class="edge">
<title>HelgolandControlModule&#45;&gt;D3GeneralGraphComponent </title>
<path fill="none" stroke="#000000" stroke-dasharray="5,2" d="M1147.3438,-171C1409.4138,-171 2222.625,-171 2222.625,-171 2222.625,-171 2222.625,-205.7778 2222.625,-205.7778"/>
<polygon fill="#000000" stroke="#000000" points="2219.1251,-205.7778 2222.625,-215.7778 2226.1251,-205.7778 2219.1251,-205.7778"/>
</g>
<!-- D3GraphCopyrightComponent  -->
<g id="node13" class="node">
<title>D3GraphCopyrightComponent </title>
<polygon fill="#fb8072" stroke="#000000" points="2121.6994,-252 1928.3006,-252 1928.3006,-216 2121.6994,-216 2121.6994,-252"/>
<text text-anchor="middle" x="2025" y="-229.8" font-family="Times,serif" font-size="14.00" fill="#000000">D3GraphCopyrightComponent </text>
</g>
<!-- HelgolandControlModule&#45;&gt;D3GraphCopyrightComponent  -->
<g id="edge12" class="edge">
<title>HelgolandControlModule&#45;&gt;D3GraphCopyrightComponent </title>
<path fill="none" stroke="#000000" stroke-dasharray="5,2" d="M1147.3571,-174C1376.9017,-174 2019.125,-174 2019.125,-174 2019.125,-174 2019.125,-205.998 2019.125,-205.998"/>
<polygon fill="#000000" stroke="#000000" points="2015.6251,-205.998 2019.125,-215.998 2022.6251,-205.9981 2015.6251,-205.998"/>
</g>
<!-- D3GraphHoverLineComponent  -->
<g id="node14" class="node">
<title>D3GraphHoverLineComponent </title>
<polygon fill="#fb8072" stroke="#000000" points="1909.5609,-252 1712.4391,-252 1712.4391,-216 1909.5609,-216 1909.5609,-252"/>
<text text-anchor="middle" x="1811" y="-229.8" font-family="Times,serif" font-size="14.00" fill="#000000">D3GraphHoverLineComponent </text>
</g>
<!-- HelgolandControlModule&#45;&gt;D3GraphHoverLineComponent  -->
<g id="edge13" class="edge">
<title>HelgolandControlModule&#45;&gt;D3GraphHoverLineComponent </title>
<path fill="none" stroke="#000000" stroke-dasharray="5,2" d="M1147.239,-178C1332.7309,-178 1775.4899,-178 1775.4899,-178 1775.4899,-178 1775.4899,-205.973 1775.4899,-205.973"/>
<polygon fill="#000000" stroke="#000000" points="1771.99,-205.973 1775.4899,-215.973 1778.99,-205.973 1771.99,-205.973"/>
</g>
<!-- D3GraphPanZoomInteractionComponent  -->
<g id="node15" class="node">
<title>D3GraphPanZoomInteractionComponent </title>
<polygon fill="#fb8072" stroke="#000000" points="1693.998,-252 1442.002,-252 1442.002,-216 1693.998,-216 1693.998,-252"/>
<text text-anchor="middle" x="1568" y="-229.8" font-family="Times,serif" font-size="14.00" fill="#000000">D3GraphPanZoomInteractionComponent </text>
</g>
<!-- HelgolandControlModule&#45;&gt;D3GraphPanZoomInteractionComponent  -->
<g id="edge14" class="edge">
<title>HelgolandControlModule&#45;&gt;D3GraphPanZoomInteractionComponent </title>
<path fill="none" stroke="#000000" stroke-dasharray="5,2" d="M1147.2578,-181C1278.5387,-181 1524.7503,-181 1524.7503,-181 1524.7503,-181 1524.7503,-205.7604 1524.7503,-205.7604"/>
<polygon fill="#000000" stroke="#000000" points="1521.2504,-205.7604 1524.7503,-215.7604 1528.2504,-205.7604 1521.2504,-205.7604"/>
</g>
<!-- D3OverviewTimeseriesGraphComponent  -->
<g id="node16" class="node">
<title>D3OverviewTimeseriesGraphComponent </title>
<polygon fill="#fb8072" stroke="#000000" points="1423.5328,-252 1170.4672,-252 1170.4672,-216 1423.5328,-216 1423.5328,-252"/>
<text text-anchor="middle" x="1297" y="-229.8" font-family="Times,serif" font-size="14.00" fill="#000000">D3OverviewTimeseriesGraphComponent </text>
</g>
<!-- HelgolandControlModule&#45;&gt;D3OverviewTimeseriesGraphComponent  -->
<g id="edge15" class="edge">
<title>HelgolandControlModule&#45;&gt;D3OverviewTimeseriesGraphComponent </title>
<path fill="none" stroke="#000000" stroke-dasharray="5,2" d="M1147.2126,-184C1227.9162,-184 1340.5054,-184 1340.5054,-184 1340.5054,-184 1340.5054,-205.9489 1340.5054,-205.9489"/>
<polygon fill="#000000" stroke="#000000" points="1337.0055,-205.9488 1340.5054,-215.9489 1344.0055,-205.9489 1337.0055,-205.9488"/>
</g>
<!-- D3TimeseriesGraphComponent  -->
<g id="node17" class="node">
<title>D3TimeseriesGraphComponent </title>
<polygon fill="#fb8072" stroke="#000000" points="1152.3391,-252 953.6609,-252 953.6609,-216 1152.3391,-216 1152.3391,-252"/>
<text text-anchor="middle" x="1053" y="-229.8" font-family="Times,serif" font-size="14.00" fill="#000000">D3TimeseriesGraphComponent </text>
</g>
<!-- HelgolandControlModule&#45;&gt;D3TimeseriesGraphComponent  -->
<g id="edge16" class="edge">
<title>HelgolandControlModule&#45;&gt;D3TimeseriesGraphComponent </title>
<path fill="none" stroke="#000000" stroke-dasharray="5,2" d="M1067,-187.1061C1067,-187.1061 1067,-205.991 1067,-205.991"/>
<polygon fill="#000000" stroke="#000000" points="1063.5001,-205.9909 1067,-215.991 1070.5001,-205.991 1063.5001,-205.9909"/>
</g>
<!-- D3TrajectoryGraphComponent  -->
<g id="node18" class="node">
<title>D3TrajectoryGraphComponent </title>
<polygon fill="#fb8072" stroke="#000000" points="935.7197,-252 740.2803,-252 740.2803,-216 935.7197,-216 935.7197,-252"/>
<text text-anchor="middle" x="838" y="-229.8" font-family="Times,serif" font-size="14.00" fill="#000000">D3TrajectoryGraphComponent </text>
</g>
<!-- HelgolandControlModule&#45;&gt;D3TrajectoryGraphComponent  -->
<g id="edge17" class="edge">
<title>HelgolandControlModule&#45;&gt;D3TrajectoryGraphComponent </title>
<path fill="none" stroke="#000000" stroke-dasharray="5,2" d="M986.762,-183C922.7942,-183 843.875,-183 843.875,-183 843.875,-183 843.875,-205.8757 843.875,-205.8757"/>
<polygon fill="#000000" stroke="#000000" points="840.3751,-205.8757 843.875,-215.8757 847.3751,-205.8757 840.3751,-205.8757"/>
</g>
<!-- D3YAxisModifierComponent  -->
<g id="node19" class="node">
<title>D3YAxisModifierComponent </title>
<polygon fill="#fb8072" stroke="#000000" points="722.2492,-252 533.7508,-252 533.7508,-216 722.2492,-216 722.2492,-252"/>
<text text-anchor="middle" x="628" y="-229.8" font-family="Times,serif" font-size="14.00" fill="#000000">D3YAxisModifierComponent </text>
</g>
<!-- HelgolandControlModule&#45;&gt;D3YAxisModifierComponent  -->
<g id="edge18" class="edge">
<title>HelgolandControlModule&#45;&gt;D3YAxisModifierComponent </title>
<path fill="none" stroke="#000000" stroke-dasharray="5,2" d="M986.6669,-179C861.936,-179 635.875,-179 635.875,-179 635.875,-179 635.875,-205.9909 635.875,-205.9909"/>
<polygon fill="#000000" stroke="#000000" points="632.3751,-205.9909 635.875,-215.9909 639.3751,-205.991 632.3751,-205.9909"/>
</g>
<!-- ExportImageButtonComponent  -->
<g id="node20" class="node">
<title>ExportImageButtonComponent </title>
<polygon fill="#fb8072" stroke="#000000" points="516.0344,-252 319.9656,-252 319.9656,-216 516.0344,-216 516.0344,-252"/>
<text text-anchor="middle" x="418" y="-229.8" font-family="Times,serif" font-size="14.00" fill="#000000">ExportImageButtonComponent </text>
</g>
<!-- HelgolandControlModule&#45;&gt;ExportImageButtonComponent  -->
<g id="edge19" class="edge">
<title>HelgolandControlModule&#45;&gt;ExportImageButtonComponent </title>
<path fill="none" stroke="#000000" stroke-dasharray="5,2" d="M986.6387,-175C814.8486,-175 427.375,-175 427.375,-175 427.375,-175 427.375,-205.9775 427.375,-205.9775"/>
<polygon fill="#000000" stroke="#000000" points="423.8751,-205.9774 427.375,-215.9775 430.8751,-205.9775 423.8751,-205.9774"/>
</g>
<!-- ExtendedDataD3TimeseriesGraphComponent  -->
<g id="node21" class="node">
<title>ExtendedDataD3TimeseriesGraphComponent </title>
<polygon fill="#fb8072" stroke="#000000" points="301.6378,-252 24.3622,-252 24.3622,-216 301.6378,-216 301.6378,-252"/>
<text text-anchor="middle" x="163" y="-229.8" font-family="Times,serif" font-size="14.00" fill="#000000">ExtendedDataD3TimeseriesGraphComponent </text>
</g>
<!-- HelgolandControlModule&#45;&gt;ExtendedDataD3TimeseriesGraphComponent  -->
<g id="edge20" class="edge">
<title>HelgolandControlModule&#45;&gt;ExtendedDataD3TimeseriesGraphComponent </title>
<path fill="none" stroke="#000000" stroke-dasharray="5,2" d="M986.6059,-171C767.1936,-171 174.375,-171 174.375,-171 174.375,-171 174.375,-205.7778 174.375,-205.7778"/>
<polygon fill="#000000" stroke="#000000" points="170.8751,-205.7778 174.375,-215.7778 177.8751,-205.7778 170.8751,-205.7778"/>
</g>
</g>
</svg>
