<?xml version="1.0" encoding="UTF-8" standalone="no"?>
<!DOCTYPE svg PUBLIC "-//W3C//DTD SVG 1.1//EN"
 "http://www.w3.org/Graphics/SVG/1.1/DTD/svg11.dtd">
<!-- Generated by graphviz version 2.40.1 (20161225.0304)
 -->
<!-- Title: dependencies Pages: 1 -->
<svg width="504pt" height="284pt"
 viewBox="0.00 0.00 504.00 284.00" xmlns="http://www.w3.org/2000/svg" xmlns:xlink="http://www.w3.org/1999/xlink">
<g id="graph0" class="graph" transform="scale(1 1) rotate(0) translate(4 280)">
<title>dependencies</title>
<polygon fill="#ffffff" stroke="transparent" points="-4,4 -4,-280 500,-280 500,4 -4,4"/>
<text text-anchor="start" x="227.0091" y="-42.4" font-family="sans-serif" font-weight="bold" font-size="14.00" fill="#000000">Legend</text>
<polygon fill="#ffffb3" stroke="transparent" points="14,-10 14,-30 34,-30 34,-10 14,-10"/>
<text text-anchor="start" x="37.629" y="-15.4" font-family="sans-serif" font-size="14.00" fill="#000000"> &#160;Declarations</text>
<polygon fill="#8dd3c7" stroke="transparent" points="127,-10 127,-30 147,-30 147,-10 127,-10"/>
<text text-anchor="start" x="150.7251" y="-15.4" font-family="sans-serif" font-size="14.00" fill="#000000"> &#160;Module</text>
<polygon fill="#80b1d3" stroke="transparent" points="213,-10 213,-30 233,-30 233,-10 213,-10"/>
<text text-anchor="start" x="236.7812" y="-15.4" font-family="sans-serif" font-size="14.00" fill="#000000"> &#160;Bootstrap</text>
<polygon fill="#fdb462" stroke="transparent" points="310,-10 310,-30 330,-30 330,-10 310,-10"/>
<text text-anchor="start" x="333.6732" y="-15.4" font-family="sans-serif" font-size="14.00" fill="#000000"> &#160;Providers</text>
<polygon fill="#fb8072" stroke="transparent" points="406,-10 406,-30 426,-30 426,-10 406,-10"/>
<text text-anchor="start" x="429.7258" y="-15.4" font-family="sans-serif" font-size="14.00" fill="#000000"> &#160;Exports</text>
<g id="clust1" class="cluster">
<title>cluster_HelgolandDepictionModule</title>
<polygon fill="none" stroke="#000000" stroke-dasharray="1,5" points="50,-70 50,-268 446,-268 446,-70 50,-70"/>
</g>
<g id="clust2" class="cluster">
<title>cluster_HelgolandDepictionModule_declarations</title>
<polygon fill="none" stroke="#000000" points="266,-78 266,-130 438,-130 438,-78 266,-78"/>
</g>
<g id="clust5" class="cluster">
<title>cluster_HelgolandDepictionModule_exports</title>
<polygon fill="none" stroke="#000000" points="166,-208 166,-260 342,-260 342,-208 166,-208"/>
</g>
<g id="clust7" class="cluster">
<title>cluster_HelgolandDepictionModule_providers</title>
<polygon fill="none" stroke="#000000" points="58,-78 58,-130 258,-130 258,-78 58,-78"/>
</g>
<!-- LabelMapperComponent -->
<g id="node1" class="node">
<title>LabelMapperComponent</title>
<polygon fill="#ffffb3" stroke="#000000" points="430.2394,-122 273.7606,-122 273.7606,-86 430.2394,-86 430.2394,-122"/>
<text text-anchor="middle" x="352" y="-99.8" font-family="Times,serif" font-size="14.00" fill="#000000">LabelMapperComponent</text>
</g>
<!-- HelgolandDepictionModule -->
<g id="node2" class="node">
<title>HelgolandDepictionModule</title>
<polygon fill="#8dd3c7" stroke="#000000" points="340.5744,-187 337.5744,-191 316.5744,-191 313.5744,-187 167.4256,-187 167.4256,-151 340.5744,-151 340.5744,-187"/>
<text text-anchor="middle" x="254" y="-164.8" font-family="Times,serif" font-size="14.00" fill="#000000">HelgolandDepictionModule</text>
</g>
<!-- LabelMapperComponent&#45;&gt;HelgolandDepictionModule -->
<g id="edge1" class="edge">
<title>LabelMapperComponent&#45;&gt;HelgolandDepictionModule</title>
<path fill="none" stroke="#000000" d="M307.0838,-122.1061C307.0838,-122.1061 307.0838,-140.991 307.0838,-140.991"/>
<polygon fill="#000000" stroke="#000000" points="303.5839,-140.9909 307.0838,-150.991 310.5839,-140.991 303.5839,-140.9909"/>
</g>
<!-- LabelMapperComponent  -->
<g id="node3" class="node">
<title>LabelMapperComponent </title>
<polygon fill="#fb8072" stroke="#000000" points="334.2394,-252 173.7606,-252 173.7606,-216 334.2394,-216 334.2394,-252"/>
<text text-anchor="middle" x="254" y="-229.8" font-family="Times,serif" font-size="14.00" fill="#000000">LabelMapperComponent </text>
</g>
<!-- HelgolandDepictionModule&#45;&gt;LabelMapperComponent  -->
<g id="edge2" class="edge">
<title>HelgolandDepictionModule&#45;&gt;LabelMapperComponent </title>
<path fill="none" stroke="#000000" stroke-dasharray="5,2" d="M254,-187.1061C254,-187.1061 254,-205.991 254,-205.991"/>
<polygon fill="#000000" stroke="#000000" points="250.5001,-205.9909 254,-215.991 257.5001,-205.991 250.5001,-205.9909"/>
</g>
<!-- LabelMapperService -->
<g id="node4" class="node">
<title>LabelMapperService</title>
<ellipse fill="#fdb462" stroke="#000000" cx="158" cy="-104" rx="92.0123" ry="18"/>
<text text-anchor="middle" x="158" y="-99.8" font-family="Times,serif" font-size="14.00" fill="#000000">LabelMapperService</text>
</g>
<!-- LabelMapperService&#45;&gt;HelgolandDepictionModule -->
<g id="edge3" class="edge">
<title>LabelMapperService&#45;&gt;HelgolandDepictionModule</title>
<path fill="none" stroke="#000000" d="M208.7345,-119.0757C208.7345,-119.0757 208.7345,-140.7642 208.7345,-140.7642"/>
<polygon fill="#000000" stroke="#000000" points="205.2346,-140.7642 208.7345,-150.7642 212.2346,-140.7642 205.2346,-140.7642"/>
</g>
</g>
</svg>
