<?xml version="1.0" encoding="UTF-8" standalone="no"?>
<!DOCTYPE svg PUBLIC "-//W3C//DTD SVG 1.1//EN"
 "http://www.w3.org/Graphics/SVG/1.1/DTD/svg11.dtd">
<!-- Generated by graphviz version 2.40.1 (20161225.0304)
 -->
<!-- Title: dependencies Pages: 1 -->
<svg width="504pt" height="284pt"
 viewBox="0.00 0.00 504.00 284.00" xmlns="http://www.w3.org/2000/svg" xmlns:xlink="http://www.w3.org/1999/xlink">
<g id="graph0" class="graph" transform="scale(1 1) rotate(0) translate(4 280)">
<title>dependencies</title>
<polygon fill="#ffffff" stroke="transparent" points="-4,4 -4,-280 500,-280 500,4 -4,4"/>
<text text-anchor="start" x="227.0091" y="-42.4" font-family="sans-serif" font-weight="bold" font-size="14.00" fill="#000000">Legend</text>
<polygon fill="#ffffb3" stroke="transparent" points="14,-10 14,-30 34,-30 34,-10 14,-10"/>
<text text-anchor="start" x="37.629" y="-15.4" font-family="sans-serif" font-size="14.00" fill="#000000"> &#160;Declarations</text>
<polygon fill="#8dd3c7" stroke="transparent" points="127,-10 127,-30 147,-30 147,-10 127,-10"/>
<text text-anchor="start" x="150.7251" y="-15.4" font-family="sans-serif" font-size="14.00" fill="#000000"> &#160;Module</text>
<polygon fill="#80b1d3" stroke="transparent" points="213,-10 213,-30 233,-30 233,-10 213,-10"/>
<text text-anchor="start" x="236.7812" y="-15.4" font-family="sans-serif" font-size="14.00" fill="#000000"> &#160;Bootstrap</text>
<polygon fill="#fdb462" stroke="transparent" points="310,-10 310,-30 330,-30 330,-10 310,-10"/>
<text text-anchor="start" x="333.6732" y="-15.4" font-family="sans-serif" font-size="14.00" fill="#000000"> &#160;Providers</text>
<polygon fill="#fb8072" stroke="transparent" points="406,-10 406,-30 426,-30 426,-10 406,-10"/>
<text text-anchor="start" x="429.7258" y="-15.4" font-family="sans-serif" font-size="14.00" fill="#000000"> &#160;Exports</text>
<g id="clust1" class="cluster">
<title>cluster_HelgolandDepictionModule</title>
<polygon fill="none" stroke="#000000" stroke-dasharray="1,5" points="59,-70 59,-268 437,-268 437,-70 59,-70"/>
</g>
<g id="clust2" class="cluster">
<title>cluster_HelgolandDepictionModule_declarations</title>
<polygon fill="none" stroke="#000000" points="257,-78 257,-130 429,-130 429,-78 257,-78"/>
</g>
<g id="clust4" class="cluster">
<title>cluster_HelgolandDepictionModule_imports</title>
<polygon fill="none" stroke="#000000" points="67,-78 67,-130 249,-130 249,-78 67,-78"/>
</g>
<g id="clust5" class="cluster">
<title>cluster_HelgolandDepictionModule_exports</title>
<polygon fill="none" stroke="#000000" points="161,-208 161,-260 337,-260 337,-208 161,-208"/>
</g>
<!-- LabelMapperComponent -->
<g id="node1" class="node">
<title>LabelMapperComponent</title>
<polygon fill="#ffffb3" stroke="#000000" points="421.2394,-122 264.7606,-122 264.7606,-86 421.2394,-86 421.2394,-122"/>
<text text-anchor="middle" x="343" y="-99.8" font-family="Times,serif" font-size="14.00" fill="#000000">LabelMapperComponent</text>
</g>
<!-- HelgolandDepictionModule -->
<g id="node2" class="node">
<title>HelgolandDepictionModule</title>
<polygon fill="#8dd3c7" stroke="#000000" points="335.5744,-187 332.5744,-191 311.5744,-191 308.5744,-187 162.4256,-187 162.4256,-151 335.5744,-151 335.5744,-187"/>
<text text-anchor="middle" x="249" y="-164.8" font-family="Times,serif" font-size="14.00" fill="#000000">HelgolandDepictionModule</text>
</g>
<!-- LabelMapperComponent&#45;&gt;HelgolandDepictionModule -->
<g id="edge1" class="edge">
<title>LabelMapperComponent&#45;&gt;HelgolandDepictionModule</title>
<path fill="none" stroke="#000000" d="M300.0838,-122.1061C300.0838,-122.1061 300.0838,-140.991 300.0838,-140.991"/>
<polygon fill="#000000" stroke="#000000" points="296.5839,-140.9909 300.0838,-150.991 303.5839,-140.991 296.5839,-140.9909"/>
</g>
<!-- LabelMapperComponent  -->
<g id="node4" class="node">
<title>LabelMapperComponent </title>
<polygon fill="#fb8072" stroke="#000000" points="329.2394,-252 168.7606,-252 168.7606,-216 329.2394,-216 329.2394,-252"/>
<text text-anchor="middle" x="249" y="-229.8" font-family="Times,serif" font-size="14.00" fill="#000000">LabelMapperComponent </text>
</g>
<!-- HelgolandDepictionModule&#45;&gt;LabelMapperComponent  -->
<g id="edge3" class="edge">
<title>HelgolandDepictionModule&#45;&gt;LabelMapperComponent </title>
<path fill="none" stroke="#000000" stroke-dasharray="5,2" d="M249,-187.1061C249,-187.1061 249,-205.991 249,-205.991"/>
<polygon fill="#000000" stroke="#000000" points="245.5001,-205.9909 249,-215.991 252.5001,-205.991 245.5001,-205.9909"/>
</g>
<!-- HelgolandServicesModule -->
<g id="node3" class="node">
<title>HelgolandServicesModule</title>
<polygon fill="#8dd3c7" stroke="#000000" points="240.7893,-122 237.7893,-126 216.7893,-126 213.7893,-122 75.2107,-122 75.2107,-86 240.7893,-86 240.7893,-122"/>
<text text-anchor="middle" x="158" y="-99.8" font-family="Times,serif" font-size="14.00" fill="#000000">HelgolandServicesModule</text>
</g>
<!-- HelgolandServicesModule&#45;&gt;HelgolandDepictionModule -->
<g id="edge2" class="edge">
<title>HelgolandServicesModule&#45;&gt;HelgolandDepictionModule</title>
<path fill="none" stroke="#000000" d="M201.5537,-122.1061C201.5537,-122.1061 201.5537,-140.991 201.5537,-140.991"/>
<polygon fill="#000000" stroke="#000000" points="198.0537,-140.9909 201.5537,-150.991 205.0537,-140.991 198.0537,-140.9909"/>
</g>
</g>
</svg>
